<svg height="496pt" viewBox="0 0 496 496" width="496pt" xmlns="http://www.w3.org/2000/svg" xmlns:xlink="http://www.w3.org/1999/xlink"><linearGradient id="a" gradientUnits="userSpaceOnUse" x1="248" x2="248" y1="496" y2="0"><stop offset="0" stop-color="#9f2fff"/><stop offset="1" stop-color="#0bb1d3"/></linearGradient><path d="m456 112h-8v-5.785156l25.550781-42.597656-45.429687-63.617188h-24.234375l-45.4375 63.617188 25.550781 42.597656v5.785156h-80v-1.519531c0-36.992188-13.046875-73.023438-36.734375-101.464844-4.777344-5.726563-11.800781-9.015625-19.265625-9.015625s-14.488281 3.289062-19.273438 9.023438c-23.679687 28.433593-36.726562 64.464843-36.726562 101.457031v1.519531h-80v-58.808594l-40-50-40 50v59.617188c-18.230469 3.71875-32 19.878906-32 39.191406v256c0 22.054688 17.945312 40 40 40h104v32h-32v16h272v-16h-32v-32h104c22.054688 0 40-17.945312 40-40v-256c0-22.054688-17.945312-40-40-40zm-24 16h-32v-16h32zm-32 16h32v64c0 8.824219-7.175781 16-16 16s-16-7.175781-16-16zm24-80c0 4.40625-3.585938 8-8 8s-8-3.59375-8-8 3.585938-8 8-8 8 3.59375 8 8zm-16-42.238281v19.710937c-9.289062 3.3125-16 12.113282-16 22.527344 0 13.230469 10.769531 24 24 24s24-10.769531 24-24c0-10.414062-6.710938-19.214844-16-22.527344v-19.710937l30.449219 42.613281-18.976563 31.625h-38.945312l-18.976563-31.617188zm-24 106.238281v80c0 17.648438 14.351562 32 32 32s32-14.351562 32-32v-80h8c13.230469 0 24 10.769531 24 24v216h-48.886719c10.40625-10.175781 16.886719-24.335938 16.886719-40 0-30.878906-25.128906-56-56-56-.207031 0-.414062.046875-.632812.054688-3.878907-27.117188-27.199219-48.054688-55.367188-48.054688-17.238281 0-33.046875 7.878906-43.550781 20.96875-3.714844-3.664062-7.847657-6.960938-12.449219-9.703125v-11.265625h4.945312l8-16h75.054688v-28.945312l-64-32v-19.054688zm-320 200c0-22.054688 17.945312-40 40-40s40 17.945312 40 40h16c0-22.183594-13-41.34375-31.761719-50.398438 1.273438-20.921874 18.53125-37.601562 39.761719-37.601562 11.023438 0 21.457031 4.609375 28.953125 12.480469-8.273437 11.121093-12.953125 24.777343-12.953125 39.296875v4.222656h16v-4.222656c0-19.015625 10.566406-36.121094 27.574219-44.625l4.425781-2.207032v-20.945312h32v20.945312l4.425781 2.207032c17.007813 8.503906 27.574219 25.601562 27.574219 44.625v4.222656h16v-4.222656c0-12.21875-3.367188-23.792969-9.34375-33.792969 7.375-11.167969 19.75-17.984375 33.34375-17.984375 22.054688 0 40 17.945312 40 40s-17.945312 40-40 40v16c28.136719 0 51.425781-20.878906 55.351562-47.945312.214844-.007813.433594-.054688.648438-.054688 22.054688 0 40 17.945312 40 40s-17.945312 40-40 40h-288c-22.054688 0-40-17.945312-40-40zm131.054688-136h-51.054688v-3.054688l48-24v20.941407zm108.945312-27.054688 48 24v3.054688h-51.054688l3.054688-6.113281zm-28.945312 43.054688h-54.109376l-8-16h70.109376zm-34.039063-188.726562c3.472656-4.160157 10.503906-4.152344 13.960937 0 21.296876 25.558593 33.023438 57.949218 33.023438 91.207031v65.519531h-80v-65.519531c0-33.257813 11.726562-65.648438 33.015625-91.207031zm-193.015625 188.726562h48v24c0 4.40625-3.585938 8-8 8h-32c-4.414062 0-8-3.59375-8-8zm48-16h-16v-16h-16v16h-16v-128h16v96h16v-96h16zm-8.640625-144h-30.71875l15.359375-19.191406zm-55.359375 81.472656v102.527344c0 13.230469 10.769531 24 24 24h32c13.230469 0 24-10.769531 24-24v-104h80v19.054688l-64 32v28.945312h75.054688l8 16h4.945312v11.265625c-2.839844 1.695313-5.472656 3.628906-7.984375 5.6875-10.457031-10.695313-24.824219-16.953125-40.015625-16.953125-28.398438 0-51.878906 21.28125-55.472656 48.71875-2.785156-.429688-5.625-.71875-8.527344-.71875-30.871094 0-56 25.121094-56 56 0 15.664062 6.480469 29.824219 16.886719 40h-48.886719v-216c0-10.414062 6.710938-19.214844 16-22.527344zm304 350.527344h-176v-32h176zm120-48h-416c-13.230469 0-24-10.769531-24-24v-24h464v24c0 13.230469-10.769531 24-24 24zm-264-32h16v16h-16zm32 0h48v16h-48zm64 0h16v16h-16zm-16-320h-48v80h48zm-16 64h-16v-48h16zm0-80h-16v-16h16zm0 0" fill="url(#a)"/></svg>