<svg xmlns="http://www.w3.org/2000/svg" viewBox="0 0 500 500"><defs><style>.cls-1{fill:#fff;}.cls-2{fill:none;stroke:#fff;stroke-miterlimit:10;stroke-width:15px;}</style></defs><g id="ram"><path class="cls-1" d="M234.94,210.79a29.46,29.46,0,1,1,29.46-29.46A29.49,29.49,0,0,1,234.94,210.79Zm0-43.92a14.46,14.46,0,1,0,14.46,14.46A14.48,14.48,0,0,0,234.94,166.87Z"/><path class="cls-1" d="M314.19,280.27a29.46,29.46,0,1,1,29.46-29.46A29.49,29.49,0,0,1,314.19,280.27Zm0-43.92a14.46,14.46,0,1,0,14.46,14.46A14.48,14.48,0,0,0,314.19,236.35Z"/><path class="cls-1" d="M185.81,266.7a29.47,29.47,0,1,1,29.47-29.46A29.5,29.5,0,0,1,185.81,266.7Zm0-43.93a14.47,14.47,0,1,0,14.47,14.47A14.48,14.48,0,0,0,185.81,222.77Z"/><rect class="cls-1" x="156.46" y="173.83" width="56.51" height="15"/><path class="cls-1" d="M256,319.51a29.46,29.46,0,1,1,29.46-29.46A29.49,29.49,0,0,1,256,319.51Zm0-43.92a14.46,14.46,0,1,0,14.46,14.46A14.47,14.47,0,0,0,256,275.59Z"/><rect class="cls-1" x="156.51" y="282.82" width="77.53" height="15" transform="translate(-1.92 1.3) rotate(-0.38)"/><polygon class="cls-1" points="257.78 245.29 207.78 245.29 207.78 230.29 251.54 230.29 295.11 186.91 343.46 186.91 343.46 201.91 301.35 201.91 257.78 245.29"/><polygon class="cls-1" points="284 348.13 273.39 337.53 306.69 304.23 306.69 272.77 321.69 272.77 321.69 310.45 284 348.13"/><path class="cls-1" d="M381.62,381.62H118.38V118.38H381.62Zm-248.24-15H366.62V133.38H133.38Z"/><rect class="cls-2" x="136.5" y="82.5" width="31" height="43" rx="6.3"/><rect class="cls-2" x="185.5" y="82.5" width="31" height="43" rx="6.3"/><rect class="cls-2" x="234.5" y="82.5" width="31" height="43" rx="6.3"/><rect class="cls-2" x="283.5" y="82.5" width="31" height="43" rx="6.3"/><rect class="cls-2" x="332.5" y="82.5" width="31" height="43" rx="6.3"/><rect class="cls-2" x="137" y="374.5" width="31" height="43" rx="6.3"/><rect class="cls-2" x="186" y="374.5" width="31" height="43" rx="6.3"/><rect class="cls-2" x="235" y="374.5" width="31" height="43" rx="6.3"/><rect class="cls-2" x="284" y="374.5" width="31" height="43" rx="6.3"/><rect class="cls-2" x="333" y="374.5" width="31" height="43" rx="6.3"/><rect class="cls-2" x="380" y="130.5" width="31" height="43" rx="6.3" transform="translate(547.5 -243.5) rotate(90)"/><rect class="cls-2" x="380" y="179.5" width="31" height="43" rx="6.3" transform="translate(596.5 -194.5) rotate(90)"/><rect class="cls-2" x="380" y="228.5" width="31" height="43" rx="6.3" transform="translate(645.5 -145.5) rotate(90)"/><rect class="cls-2" x="380" y="277.5" width="31" height="43" rx="6.3" transform="translate(694.5 -96.5) rotate(90)"/><rect class="cls-2" x="380" y="326.5" width="31" height="43" rx="6.3" transform="translate(743.5 -47.5) rotate(90)"/><rect class="cls-2" x="89" y="136.5" width="31" height="43" rx="6.3" transform="translate(262.5 53.5) rotate(90)"/><rect class="cls-2" x="89" y="185.5" width="31" height="43" rx="6.3" transform="translate(311.5 102.5) rotate(90)"/><rect class="cls-2" x="89" y="234.5" width="31" height="43" rx="6.3" transform="translate(360.5 151.5) rotate(90)"/><rect class="cls-2" x="89" y="283.5" width="31" height="43" rx="6.3" transform="translate(409.5 200.5) rotate(90)"/><rect class="cls-2" x="89" y="332.5" width="31" height="43" rx="6.3" transform="translate(458.5 249.5) rotate(90)"/></g></svg>