<svg id="Capa_1" data-name="Capa 1" xmlns="http://www.w3.org/2000/svg" xmlns:xlink="http://www.w3.org/1999/xlink" viewBox="0 0 568 511.2"><defs><style>.cls-1{fill:url(#linear-gradient);}</style><linearGradient id="linear-gradient" x1="15.64" y1="293.78" x2="533.25" y2="227.34" gradientUnits="userSpaceOnUse"><stop offset="0" stop-color="#cc28eb"/><stop offset="0.32" stop-color="#ac55eb"/><stop offset="1" stop-color="#60c0eb"/></linearGradient></defs><title>engineering</title><path class="cls-1" d="M511.2,3.74a56.69,56.69,0,0,0-40.82,96.13L366.6,307.38a54.39,54.39,0,0,0-6.87-.7,56.36,56.36,0,0,0-21.37,4.24l-80.56-90.6a56.18,56.18,0,0,0,7.27-27.24,56.8,56.8,0,1,0-99.67,36.84L67,402.37a56.72,56.72,0,0,0-10.15-1,57.5,57.5,0,1,0,42.86,20l98.46-172.45a54,54,0,0,0,31.45-3.21l80.56,90.59a56.06,56.06,0,0,0-7.2,27.25,56.8,56.8,0,1,0,97.62-39.33L504.33,116.64a52.6,52.6,0,0,0,6.87.7,56.8,56.8,0,1,0,0-113.6ZM56.8,477.08a18.94,18.94,0,1,1,18.93-18.94A18.93,18.93,0,0,1,56.8,477.08ZM208.27,212a18.94,18.94,0,1,1,18.93-18.93A18.94,18.94,0,0,1,208.27,212Zm151.46,170.4a18.94,18.94,0,1,1,18.94-18.93A18.94,18.94,0,0,1,359.73,382.41ZM511.2,79.48a18.94,18.94,0,1,1,18.93-18.94A18.94,18.94,0,0,1,511.2,79.48Z" transform="translate(0 -3.74)"/></svg>