<svg height="494pt" viewBox="-15 0 494 494.944" width="494pt" xmlns="http://www.w3.org/2000/svg" xmlns:xlink="http://www.w3.org/1999/xlink"><linearGradient id="a" gradientUnits="userSpaceOnUse" x1="232.472" x2="232.472" y1="494.944" y2="-.0016"><stop offset="0" stop-color="#9f2fff"/><stop offset="1" stop-color="#0bb1d3"/></linearGradient><path d="m448.472656 262.945312h16c0 127.917969-104.082031 232-232 232-127.921875 0-232-104.082031-232-232 0-125.25 99.765625-227.632812 224-231.867187v-31.078125l94.421875 62.945312-94.421875 62.941407v-30.757813c-88.9375 4.191406-160 77.863282-160 167.816406 0 92.628907 75.367188 168 168 168 92.632813 0 168-75.371093 168-168h16c0 101.460938-82.535156 184-184 184s-184-82.539062-184-184c0-101.464843 82.535156-184 184-184h8v17.054688l49.574219-33.054688-49.574219-33.058593v17.058593h-8c-119.105468 0-216 96.894532-216 216 0 119.101563 96.894532 216 216 216 119.101563 0 216-96.898437 216-216zm-192 9.167969c0 2.101563 1.269532 4 3.3125 4.964844 22.285156 10.539063 36.6875 33.25 36.6875 57.867187v16c8.824219 0 16 7.175782 16 16v16c0 8.824219-7.175781 16-16 16h-128c-8.824218 0-16-7.175781-16-16v-16c0-8.824218 7.175782-16 16-16v-16c0-24.617187 14.398438-47.328124 36.6875-57.855468 2.039063-.976563 3.3125-2.875 3.3125-4.976563 0-2.097656-1.273437-3.992187-3.3125-4.960937-22.289062-10.535156-36.6875-33.25-36.6875-57.855469v-18.351563c-8.824218 0-16-7.175781-16-16v-16c0-8.824218 7.175782-16 16-16h128c8.824219 0 16 7.175782 16 16v16c0 8.824219-7.175781 16-16 16v18.351563c0 24.605469-14.402344 47.320313-36.679687 57.855469-2.050781.96875-3.320313 2.871094-3.320313 4.960937zm-88-97.167969h128.015625l-.015625-16h-128zm128 192h-128v16h128.015625zm-56-94.832031c0-8.226562 4.894532-15.847656 12.488282-19.433593 16.703124-7.902344 27.511718-24.925782 27.511718-43.382813v-18.351563h-96v18.351563c0 18.457031 10.808594 35.488281 27.519532 43.390625 7.574218 3.578125 12.480468 11.199219 12.480468 19.433594 0 8.230468-4.898437 15.855468-12.488281 19.4375-16.703125 7.890625-27.511719 24.921875-27.511719 43.386718v16h96v-16c0-18.464843-10.808594-35.496093-27.511718-43.394531-7.59375-3.574219-12.488282-11.207031-12.488282-19.4375zm156.34375-44.929687 15.457032-4.144532-4.144532-15.453124-15.457031 4.140624zm-14.847656-41.3125 13.855469-8-8-13.855469-13.855469 8zm-25.039062-36.070313 11.308593-11.3125-11.308593-11.3125-11.3125 11.3125zm-25.53125-42.207031-13.855469-8-8 13.855469 13.855469 8zm130.175781 117.933594-3.125-15.6875-15.6875 3.121094 3.125 15.6875zm-32.605469-52.632813 6.128906 14.785157 14.789063-6.128907-6.125-14.78125zm-21.34375-36.597656 8.886719 13.296875 13.304687-8.890625-8.886718-13.296875zm-5.449219-31.746094-11.3125-11.3125-11.3125 11.3125 11.3125 11.3125zm-34.167969-30.0625-13.296874-8.886719-8.886719 13.300782 13.296875 8.890625zm0 0" fill="url(#a)"/></svg>