<svg xmlns="http://www.w3.org/2000/svg" viewBox="0 0 500 500"><defs><style>.cls-1{fill:none;stroke:#fff;stroke-miterlimit:10;stroke-width:15px;}</style></defs><g id="ram"><polygon class="cls-1" points="413.5 113.98 413.5 86.5 86.5 86.5 86.5 113.98 107.5 113.98 107.5 136.66 86.5 136.66 86.5 146.66 107.5 146.66 107.5 169.33 86.5 169.33 86.5 179.33 107.5 179.33 107.5 202 86.5 202 86.5 228.5 413.5 228.5 413.5 202 392.5 202 392.5 179.33 413.5 179.33 413.5 169.33 392.5 169.33 392.5 146.66 413.5 146.66 413.5 136.66 392.5 136.66 392.5 113.98 413.5 113.98"/><rect class="cls-1" x="141.5" y="125" width="39" height="65" rx="6.74"/><rect class="cls-1" x="230.5" y="125" width="39" height="65" rx="6.74"/><rect class="cls-1" x="319.5" y="125" width="39" height="65" rx="6.74"/><polygon class="cls-1" points="413.5 298.98 413.5 271.5 86.5 271.5 86.5 298.98 107.5 298.98 107.5 321.66 86.5 321.66 86.5 331.66 107.5 331.66 107.5 354.33 86.5 354.33 86.5 364.33 107.5 364.33 107.5 387 86.5 387 86.5 413.5 413.5 413.5 413.5 387 392.5 387 392.5 364.33 413.5 364.33 413.5 354.33 392.5 354.33 392.5 331.66 413.5 331.66 413.5 321.66 392.5 321.66 392.5 298.98 413.5 298.98"/><rect class="cls-1" x="141.5" y="310" width="39" height="65" rx="6.74"/><rect class="cls-1" x="230.5" y="310" width="39" height="65" rx="6.74"/><rect class="cls-1" x="319.5" y="310" width="39" height="65" rx="6.74"/></g></svg>