<svg id="Capa_1" data-name="Capa 1" xmlns="http://www.w3.org/2000/svg" xmlns:xlink="http://www.w3.org/1999/xlink" viewBox="0 0 371.14 375.15"><defs><style>.cls-1{fill:url(#linear-gradient);}</style><linearGradient id="linear-gradient" x1="34.46" y1="148.97" x2="392.71" y2="245.95" gradientUnits="userSpaceOnUse"><stop offset="0" stop-color="#60c0eb"/><stop offset="1" stop-color="#cc28eb"/></linearGradient></defs><title>sales</title><path class="cls-1" d="M222.08,218.94h-69a10.45,10.45,0,0,0-10.45,10.45V364.7a10.45,10.45,0,0,0,10.45,10.45h69a10.45,10.45,0,0,0,10.45-10.45V229.38A10.45,10.45,0,0,0,222.08,218.94ZM211.63,354.25H163.56V239.83h48.07ZM359,136.91H289.47A10.45,10.45,0,0,0,279,147.36V364.7a10.45,10.45,0,0,0,10.45,10.45H359a10.45,10.45,0,0,0,10.45-10.45V147.36A10.45,10.45,0,0,0,359,136.91ZM348.51,354.25H299.92V157.81h48.59ZM85.72,269.61H16.23A10.45,10.45,0,0,0,5.78,280.06V364.7a10.45,10.45,0,0,0,10.45,10.45H85.72A10.45,10.45,0,0,0,96.17,364.7V280.06A10.45,10.45,0,0,0,85.72,269.61ZM75.27,354.25H26.68V290.51H75.27ZM370.45,10.48a8.88,8.88,0,0,0-6.79-3.66L268.57,0A10.48,10.48,0,1,0,267,20.93L334.3,25.5,210.58,122.28,116,48.1a10.45,10.45,0,0,0-13.59.52l-97.17,93a10.45,10.45,0,0,0-.52,14.63,9.38,9.38,0,0,0,7.84,3.66,10.45,10.45,0,0,0,7.31-3.14L110.27,70l93.52,73.66a10.44,10.44,0,0,0,13.06,0L350.6,39.62l-5.23,64.9a11,11,0,0,0,9.93,11h.52a10.44,10.44,0,0,0,10.45-9.4l6.79-88.3A8.33,8.33,0,0,0,370.45,10.48Z" transform="translate(-2 0)"/></svg>