<svg xmlns="http://www.w3.org/2000/svg" viewBox="0 0 500 500"><defs><style>.cls-1{fill:none;stroke:rgb(68, 68, 68);stroke-miterlimit:10;stroke-width:15px;}.cls-2{fill:#rgb(68, 68, 68);}</style></defs><g id="ram"><polygon class="cls-1" points="349 154.5 349 78.5 82 78.5 82 345.5 155 345.5 155 154.5 349 154.5"/><polyline class="cls-1" points="155 345.5 155 421.5 422 421.5 422 154.5 349 154.5"/><path class="cls-2" d="M351.86,376.24H225.6a24.91,24.91,0,0,1-24.89-24.89V225.09a24.91,24.91,0,0,1,24.89-24.88H351.86a24.91,24.91,0,0,1,24.88,24.88V351.35A24.91,24.91,0,0,1,351.86,376.24Zm-126.26-161a9.89,9.89,0,0,0-9.89,9.88V351.35a9.89,9.89,0,0,0,9.89,9.89H351.86a9.89,9.89,0,0,0,9.88-9.89V225.09a9.89,9.89,0,0,0-9.88-9.88Z"/><path class="cls-2" d="M351.86,207.71H225.6a17.38,17.38,0,0,0-17.39,17.38V351.35a17.38,17.38,0,0,0,17.39,17.39H351.86a17.38,17.38,0,0,0,17.38-17.39V225.09A17.38,17.38,0,0,0,351.86,207.71ZM341.42,323.5A17.39,17.39,0,0,1,324,340.89H253.42A17.38,17.38,0,0,1,236,323.5V252.9a17.38,17.38,0,0,1,17.38-17.39H324a17.39,17.39,0,0,1,17.39,17.39Z"/></g></svg>
