<svg width="217" height="217" viewBox="0 0 217 217" fill="none" xmlns="http://www.w3.org/2000/svg">
<g clip-path="url(#clip0)">
<path d="M215.138 179.175L178.473 142.511L196.455 124.529C198.013 122.971 198.653 120.718 198.147 118.573C197.64 116.429 196.06 114.699 193.97 114.003L86.0812 78.0395C83.7972 77.2779 81.2779 77.8725 79.5754 79.5754C77.8725 81.2784 77.2778 83.7968 78.0395 86.0812L114.003 193.97C114.7 196.061 116.429 197.641 118.573 198.147C120.717 198.655 122.971 198.014 124.529 196.455L142.511 178.474L179.175 215.138C180.417 216.38 182.044 217 183.671 217C185.297 217 186.925 216.38 188.166 215.138L215.138 188.166C217.621 185.683 217.621 181.658 215.138 179.175ZM183.67 201.652L147.006 164.988C144.523 162.505 140.497 162.505 138.015 164.988L122.812 180.191L94.1225 94.1229L180.191 122.812L164.987 138.015C162.507 140.496 162.505 144.524 164.987 147.006L201.652 183.671L183.67 201.652Z" fill="url(#paint0_linear)"/>
<path d="M82.6465 50.8594C86.1575 50.8594 89.0039 48.0129 89.0039 44.502V6.35742C89.0039 2.84643 86.1575 0 82.6465 0C79.1355 0 76.2891 2.84643 76.2891 6.35742V44.502C76.2891 48.0129 79.1355 50.8594 82.6465 50.8594Z" fill="url(#paint1_linear)"/>
<path d="M33.1972 24.2066C30.7148 21.7238 26.6893 21.7238 24.2065 24.2066C21.7237 26.6894 21.7237 30.7145 24.2065 33.1972L51.1789 60.1697C53.6613 62.6525 57.6872 62.6525 60.1696 60.1697C62.6524 57.6869 62.6524 53.6618 60.1696 51.179L33.1972 24.2066Z" fill="url(#paint2_linear)"/>
<path d="M51.1789 105.123L24.2065 132.096C21.7237 134.579 21.7237 138.604 24.2065 141.086C26.6889 143.569 30.7148 143.569 33.1972 141.086L60.1696 114.114C62.6524 111.631 62.6524 107.606 60.1696 105.123C57.6868 102.641 53.6613 102.641 51.1789 105.123Z" fill="url(#paint3_linear)"/>
<path d="M114.114 60.1697L141.086 33.1972C143.569 30.7145 143.569 26.6894 141.086 24.2066C138.604 21.7238 134.579 21.7238 132.096 24.2066L105.123 51.179C102.641 53.6618 102.641 57.6869 105.123 60.1697C107.606 62.6525 111.632 62.6525 114.114 60.1697Z" fill="url(#paint4_linear)"/>
<path d="M50.8594 82.6465C50.8594 79.1355 48.0129 76.2891 44.502 76.2891H6.35742C2.84643 76.2891 0 79.1355 0 82.6465C0 86.1575 2.84643 89.0039 6.35742 89.0039H44.502C48.0129 89.0039 50.8594 86.1575 50.8594 82.6465Z" fill="url(#paint5_linear)"/>
</g>
<defs>
<linearGradient id="paint0_linear" x1="147.357" y1="77.713" x2="147.357" y2="217" gradientUnits="userSpaceOnUse">
<stop stop-color="#1BA8E0"/>
<stop offset="1" stop-color="#D023EB"/>
</linearGradient>
<linearGradient id="paint1_linear" x1="82.6465" y1="0" x2="82.6465" y2="50.8594" gradientUnits="userSpaceOnUse">
<stop stop-color="#1BA8E0"/>
<stop offset="1" stop-color="#D023EB"/>
</linearGradient>
<linearGradient id="paint2_linear" x1="42.1881" y1="22.3445" x2="42.1881" y2="62.0318" gradientUnits="userSpaceOnUse">
<stop stop-color="#1BA8E0"/>
<stop offset="1" stop-color="#D023EB"/>
</linearGradient>
<linearGradient id="paint3_linear" x1="42.1881" y1="103.261" x2="42.1881" y2="142.949" gradientUnits="userSpaceOnUse">
<stop stop-color="#1BA8E0"/>
<stop offset="1" stop-color="#D023EB"/>
</linearGradient>
<linearGradient id="paint4_linear" x1="123.105" y1="22.3445" x2="123.105" y2="62.0318" gradientUnits="userSpaceOnUse">
<stop stop-color="#1BA8E0"/>
<stop offset="1" stop-color="#D023EB"/>
</linearGradient>
<linearGradient id="paint5_linear" x1="25.4297" y1="76.2891" x2="25.4297" y2="89.0039" gradientUnits="userSpaceOnUse">
<stop stop-color="#1BA8E0"/>
<stop offset="1" stop-color="#D023EB"/>
</linearGradient>
<clipPath id="clip0">
<rect width="217" height="217" fill="white"/>
</clipPath>
</defs>
</svg>
