<svg width="196" height="196" viewBox="0 0 196 196" fill="none" xmlns="http://www.w3.org/2000/svg">
<path d="M186.002 20.6822H63.5067L63.5074 14.4297C63.5074 6.47298 57.6098 0 50.3601 0H13.1366C5.89302 0 0 6.47298 0 14.4297V143.374C0 148.883 4.48503 153.366 9.99753 153.366H65.7178L58.006 168.985H51.7287C44.2753 168.985 38.212 175.045 38.212 182.493V192.172C38.212 194.286 39.9258 196 42.0401 196H109.09C109.113 196 109.136 195.997 109.159 195.997C109.205 195.997 109.25 196 109.296 196H186.882C191.91 196 196 191.912 196 186.888V30.674C196 25.1646 191.515 20.6822 186.002 20.6822ZM188.344 80.8194H167.896C166.683 80.8194 165.542 81.394 164.82 82.369L162.133 85.9958H134.045L131.359 82.369C130.637 81.3944 129.496 80.8194 128.282 80.8194H107.834V73.0475C107.834 72.2582 108.504 71.5913 109.296 71.5913H186.882C187.674 71.5913 188.343 72.2582 188.343 73.0475V80.8194H188.344ZM186.002 28.3385C187.271 28.3385 188.344 29.4077 188.344 30.674V64.0537C187.868 63.9768 187.38 63.9351 186.882 63.9351H109.296C104.269 63.9351 100.179 68.0231 100.179 73.0475V127.36H7.65625V104.723C9.3257 105.568 11.1812 106.043 13.1366 106.043H50.3597C57.6033 106.043 63.4963 99.5703 63.4963 91.6143L63.5051 28.3385H186.002ZM7.65625 86.6312H55.8412L55.8405 91.6143C55.8405 95.2859 53.3308 98.3878 50.3601 98.3878H13.1366C10.166 98.3878 7.65625 95.2859 7.65625 91.6143V86.6312ZM23.6555 7.65625H39.8519V15.9947H23.6555V7.65625ZM7.65625 14.4297C7.65625 10.7582 10.166 7.65625 13.1366 7.65625H15.9993V16.9146C15.9993 20.629 19.0223 23.6509 22.7383 23.6509H40.7691C44.4851 23.6509 47.5082 20.629 47.5082 16.9146V7.65625H50.3601C53.3369 7.65625 55.8516 10.7582 55.8516 14.429L55.85 24.3231C55.847 24.3855 55.8405 24.4472 55.8405 24.5103C55.8405 24.5731 55.847 24.6344 55.85 24.6964L55.8424 78.9746H7.65625V30.5871V14.4297ZM7.65625 143.374V135.016H100.178V145.709H9.99753C8.70669 145.71 7.65625 144.662 7.65625 143.374ZM74.2568 153.366H100.179V168.985H66.5451L74.2568 153.366ZM45.8682 182.492C45.8682 179.266 48.4974 176.641 51.7287 176.641C51.7287 176.641 60.3772 176.642 60.3825 176.642C60.3871 176.642 100.179 176.641 100.179 176.641V186.887C100.179 187.383 100.22 187.869 100.296 188.343H45.8682V182.492ZM186.882 188.344H109.296C108.504 188.344 107.835 187.677 107.835 186.888V176.642H130.76C132.874 176.642 134.588 174.928 134.588 172.813C134.588 170.699 132.874 168.985 130.76 168.985H107.834V88.4756H126.354L129.04 92.1024C129.762 93.077 130.904 93.652 132.117 93.652H164.061C165.274 93.652 166.415 93.0774 167.137 92.1024L169.824 88.4756H188.344V168.985H165.18C163.066 168.985 161.352 170.699 161.352 172.813C161.352 174.928 163.066 176.642 165.18 176.642H188.344V186.888C188.344 187.677 187.674 188.344 186.882 188.344Z" fill="url(#paint0_linear)"/>
<path d="M147.964 168.985C145.85 168.985 144.136 170.699 144.136 172.813C144.136 174.928 145.85 176.642 147.964 176.642H147.986C150.1 176.642 151.804 174.928 151.804 172.813C151.804 170.699 150.079 168.985 147.964 168.985Z" fill="url(#paint1_linear)"/>
<defs>
<linearGradient id="paint0_linear" x1="98" y1="0" x2="98" y2="196" gradientUnits="userSpaceOnUse">
<stop stop-color="#1BA8E0"/>
<stop offset="1" stop-color="#D023EB"/>
</linearGradient>
<linearGradient id="paint1_linear" x1="147.97" y1="168.985" x2="147.97" y2="176.642" gradientUnits="userSpaceOnUse">
<stop stop-color="#1BA8E0"/>
<stop offset="1" stop-color="#D023EB"/>
</linearGradient>
</defs>
</svg>
