<svg width="217" height="217" viewBox="0 0 217 217" fill="none" xmlns="http://www.w3.org/2000/svg">
<path d="M120.495 34.086V23.0774C126.85 23.0677 132.017 17.8957 132.017 11.5391C132.017 5.17621 126.84 0 120.477 0H96.5226C90.1601 0 84.9835 5.17621 84.9835 11.5391C84.9835 17.8957 90.1504 23.0677 96.5048 23.0774V34.086C52.1889 39.8309 16.6543 77.7525 16.6543 125.154C16.6543 175.915 57.7326 217 108.5 217C159.261 217 200.346 175.922 200.346 125.154C200.346 77.7602 164.825 39.8326 120.495 34.086ZM93.46 11.5391C93.46 9.85061 94.8337 8.47656 96.5226 8.47656H120.478C122.166 8.47656 123.54 9.85019 123.54 11.5391C123.54 13.2277 122.167 14.6013 120.478 14.6013C115.405 14.6013 101.501 14.6013 96.5226 14.6013C94.8337 14.6013 93.46 13.2273 93.46 11.5391ZM104.981 33.3782V23.0779H112.019V33.3786C109.529 33.2811 107.182 33.2921 104.981 33.3782ZM108.5 208.523C62.5303 208.523 25.1309 171.124 25.1309 125.154C25.1309 78.6044 63.5424 40.7371 110.434 41.8098C155.603 42.8927 191.869 79.8755 191.869 125.154C191.869 171.124 154.47 208.523 108.5 208.523Z" fill="url(#paint0_linear)"/>
<path d="M100.266 53.1429C97.9403 53.4061 96.2683 55.5049 96.5315 57.8308C96.7947 60.1564 98.8922 61.8322 101.219 61.5656C139.423 57.2421 172.498 87.2229 172.498 125.154C172.498 160.443 143.789 189.152 108.5 189.152C73.2112 189.152 44.502 160.443 44.502 125.154C44.502 104.57 54.5043 85.1114 71.2582 73.1018C73.1608 71.7383 73.5973 69.0902 72.2335 67.1877C70.8696 65.2851 68.2223 64.8486 66.3194 66.2124C47.3505 79.8101 36.0254 101.844 36.0254 125.154C36.0254 165.117 68.5372 197.629 108.5 197.629C148.463 197.629 180.975 165.117 180.975 125.154C180.975 82.0742 143.404 48.2629 100.266 53.1429Z" fill="url(#paint1_linear)"/>
<path d="M104.262 109.148C97.1787 111.026 91.9419 117.489 91.9419 125.154C91.9419 134.284 99.3699 141.712 108.5 141.712C117.63 141.712 125.058 134.284 125.058 125.154C125.058 117.489 119.821 111.026 112.738 109.148V85.0576C112.738 82.7168 110.841 80.8193 108.5 80.8193C106.159 80.8193 104.262 82.7168 104.262 85.0576V109.148ZM116.582 125.154C116.582 129.61 112.956 133.236 108.5 133.236C104.044 133.236 100.418 129.61 100.418 125.154C100.418 120.698 104.044 117.073 108.5 117.073C112.956 117.073 116.582 120.698 116.582 125.154Z" fill="url(#paint2_linear)"/>
<path d="M53.0938 118C50.753 118 48.8555 119.897 48.8555 122.238C48.8555 124.579 50.753 126.476 53.0938 126.476H58.7451C61.0859 126.476 62.9834 124.579 62.9834 122.238C62.9834 119.897 61.0859 118 58.7451 118H53.0938Z" fill="url(#paint3_linear)"/>
<path d="M163.906 126.476C166.247 126.476 168.144 124.579 168.144 122.238C168.144 119.897 166.247 118 163.906 118H158.255C155.914 118 154.017 119.897 154.017 122.238C154.017 124.579 155.914 126.476 158.255 126.476H163.906Z" fill="url(#paint4_linear)"/>
<path d="M66.3249 80.0628C64.6698 81.7179 64.6698 84.4015 66.3249 86.057L70.3211 90.0533C71.9762 91.7083 74.6599 91.7083 76.3153 90.0533C77.9704 88.3982 77.9704 85.7146 76.3153 84.0591L72.3191 80.0628C70.664 78.4078 67.9803 78.4078 66.3249 80.0628Z" fill="url(#paint5_linear)"/>
<path d="M140.685 160.417L144.681 164.413C146.336 166.068 149.02 166.068 150.675 164.413C152.33 162.758 152.33 160.074 150.675 158.419L146.679 154.423C145.024 152.768 142.34 152.768 140.685 154.423C139.03 156.078 139.03 158.761 140.685 160.417Z" fill="url(#paint6_linear)"/>
<path d="M108.5 76.7214C110.841 76.7214 112.738 74.8239 112.738 72.4831V66.8318C112.738 64.491 110.841 62.5935 108.5 62.5935C106.159 62.5935 104.262 64.491 104.262 66.8318V72.4831C104.262 74.8239 106.159 76.7214 108.5 76.7214Z" fill="url(#paint7_linear)"/>
<path d="M104.262 171.993V177.644C104.262 179.985 106.159 181.883 108.5 181.883C110.841 181.883 112.738 179.985 112.738 177.644V171.993C112.738 169.652 110.841 167.755 108.5 167.755C106.159 167.755 104.262 169.652 104.262 171.993Z" fill="url(#paint8_linear)"/>
<path d="M146.679 90.0528L150.675 86.0565C152.33 84.4015 152.33 81.7178 150.675 80.0623C149.02 78.4073 146.336 78.4073 144.681 80.0623L140.685 84.0586C139.03 85.7137 139.03 88.3973 140.685 90.0528C142.34 91.7079 145.024 91.7079 146.679 90.0528Z" fill="url(#paint9_linear)"/>
<path d="M70.3211 154.423L66.3249 158.419C64.6698 160.074 64.6698 162.758 66.3249 164.413C67.9799 166.068 70.6636 166.068 72.3191 164.413L76.3153 160.417C77.9704 158.762 77.9704 156.078 76.3153 154.423C74.6599 152.768 71.9762 152.768 70.3211 154.423Z" fill="url(#paint10_linear)"/>
<path d="M83.7671 65.7825C86.1079 65.7825 88.0054 63.885 88.0054 61.5442C88.0054 59.2034 86.1079 57.3059 83.7671 57.3059H83.7565C81.4157 57.3059 79.5233 59.2034 79.5233 61.5442C79.5233 63.885 81.4263 65.7825 83.7671 65.7825Z" fill="url(#paint11_linear)"/>
<defs>
<linearGradient id="paint0_linear" x1="108.5" y1="0" x2="108.5" y2="217" gradientUnits="userSpaceOnUse">
<stop stop-color="#1BA8E0"/>
<stop offset="0.880208" stop-color="#9052E7"/>
<stop offset="1" stop-color="#D023EB"/>
</linearGradient>
<linearGradient id="paint1_linear" x1="108.5" y1="52.6736" x2="108.5" y2="197.629" gradientUnits="userSpaceOnUse">
<stop stop-color="#1BA8E0"/>
<stop offset="0.880208" stop-color="#9052E7"/>
<stop offset="1" stop-color="#D023EB"/>
</linearGradient>
<linearGradient id="paint2_linear" x1="108.5" y1="80.8193" x2="108.5" y2="141.712" gradientUnits="userSpaceOnUse">
<stop stop-color="#1BA8E0"/>
<stop offset="0.880208" stop-color="#9052E7"/>
<stop offset="1" stop-color="#D023EB"/>
</linearGradient>
<linearGradient id="paint3_linear" x1="55.9195" y1="118" x2="55.9195" y2="126.476" gradientUnits="userSpaceOnUse">
<stop stop-color="#1BA8E0"/>
<stop offset="0.880208" stop-color="#9052E7"/>
<stop offset="1" stop-color="#D023EB"/>
</linearGradient>
<linearGradient id="paint4_linear" x1="161.081" y1="118" x2="161.081" y2="126.476" gradientUnits="userSpaceOnUse">
<stop stop-color="#1BA8E0"/>
<stop offset="0.880208" stop-color="#9052E7"/>
<stop offset="1" stop-color="#D023EB"/>
</linearGradient>
<linearGradient id="paint5_linear" x1="71.3201" y1="78.8215" x2="71.3201" y2="91.2946" gradientUnits="userSpaceOnUse">
<stop stop-color="#1BA8E0"/>
<stop offset="0.880208" stop-color="#9052E7"/>
<stop offset="1" stop-color="#D023EB"/>
</linearGradient>
<linearGradient id="paint6_linear" x1="145.68" y1="153.181" x2="145.68" y2="165.654" gradientUnits="userSpaceOnUse">
<stop stop-color="#1BA8E0"/>
<stop offset="0.880208" stop-color="#9052E7"/>
<stop offset="1" stop-color="#D023EB"/>
</linearGradient>
<linearGradient id="paint7_linear" x1="108.5" y1="62.5935" x2="108.5" y2="76.7214" gradientUnits="userSpaceOnUse">
<stop stop-color="#1BA8E0"/>
<stop offset="0.880208" stop-color="#9052E7"/>
<stop offset="1" stop-color="#D023EB"/>
</linearGradient>
<linearGradient id="paint8_linear" x1="108.5" y1="167.755" x2="108.5" y2="181.883" gradientUnits="userSpaceOnUse">
<stop stop-color="#1BA8E0"/>
<stop offset="0.880208" stop-color="#9052E7"/>
<stop offset="1" stop-color="#D023EB"/>
</linearGradient>
<linearGradient id="paint9_linear" x1="145.68" y1="78.821" x2="145.68" y2="91.2941" gradientUnits="userSpaceOnUse">
<stop stop-color="#1BA8E0"/>
<stop offset="0.880208" stop-color="#9052E7"/>
<stop offset="1" stop-color="#D023EB"/>
</linearGradient>
<linearGradient id="paint10_linear" x1="71.3201" y1="153.181" x2="71.3201" y2="165.654" gradientUnits="userSpaceOnUse">
<stop stop-color="#1BA8E0"/>
<stop offset="0.880208" stop-color="#9052E7"/>
<stop offset="1" stop-color="#D023EB"/>
</linearGradient>
<linearGradient id="paint11_linear" x1="83.7643" y1="57.3059" x2="83.7643" y2="65.7825" gradientUnits="userSpaceOnUse">
<stop stop-color="#1BA8E0"/>
<stop offset="0.880208" stop-color="#9052E7"/>
<stop offset="1" stop-color="#D023EB"/>
</linearGradient>
</defs>
</svg>
