<svg xmlns="http://www.w3.org/2000/svg" xmlns:xlink="http://www.w3.org/1999/xlink" viewBox="0 0 940.29 580.14"><defs><style>.cls-1{fill:none;}.cls-2{isolation:isolate;}.cls-13,.cls-3{fill:#fff;}.cls-4{opacity:0.32;}.cls-5{clip-path:url(#clip-path);}.cls-6{opacity:0.11;}.cls-7{fill:#a630b0;}.cls-8,.cls-9{opacity:0.25;}.cls-8{fill:url(#radial-gradient);}.cls-9{fill:url(#radial-gradient-2);}.cls-10{fill:#261843;}.cls-11{fill:url(#linear-gradient);}.cls-12,.cls-14,.cls-15{fill:#fea7af;}.cls-13,.cls-14{opacity:0.29;}.cls-15,.cls-21{opacity:0.33;}.cls-16{opacity:0.22;}.cls-17{fill:url(#linear-gradient-2);}.cls-18{fill:url(#linear-gradient-3);}.cls-19{fill:url(#linear-gradient-4);}.cls-20,.cls-23,.cls-26,.cls-28,.cls-30,.cls-72,.cls-73{mix-blend-mode:screen;}.cls-20{fill:url(#linear-gradient-5);}.cls-22{fill:url(#linear-gradient-6);}.cls-23{fill:url(#linear-gradient-7);}.cls-24{opacity:0.35;}.cls-25{fill:url(#linear-gradient-8);}.cls-26{fill:url(#linear-gradient-9);}.cls-27{fill:url(#linear-gradient-10);}.cls-28{fill:url(#linear-gradient-11);}.cls-29{fill:url(#linear-gradient-12);}.cls-30{fill:url(#linear-gradient-13);}.cls-31{fill:url(#linear-gradient-14);}.cls-32{fill:url(#linear-gradient-15);}.cls-33{fill:url(#linear-gradient-16);}.cls-34{fill:url(#linear-gradient-17);}.cls-35{fill:url(#linear-gradient-18);}.cls-36{fill:url(#linear-gradient-19);}.cls-37{fill:url(#linear-gradient-20);}.cls-38{fill:#ffecff;}.cls-39{fill:url(#linear-gradient-21);}.cls-40{fill:url(#radial-gradient-3);}.cls-41{fill:#cc7dff;}.cls-42{fill:url(#radial-gradient-4);}.cls-43{fill:url(#radial-gradient-5);}.cls-44{fill:url(#radial-gradient-6);}.cls-45{fill:url(#linear-gradient-22);}.cls-46{fill:#dda9ff;}.cls-47{fill:url(#linear-gradient-23);}.cls-48{fill:url(#radial-gradient-7);}.cls-49{fill:url(#radial-gradient-8);}.cls-50{fill:url(#radial-gradient-9);}.cls-51{fill:url(#radial-gradient-10);}.cls-52{fill:url(#linear-gradient-24);}.cls-53{fill:url(#linear-gradient-25);}.cls-54{clip-path:url(#clip-path-4);}.cls-55,.cls-70{mix-blend-mode:multiply;}.cls-55{fill:url(#linear-gradient-26);}.cls-56{fill:#ffdcff;}.cls-57{fill:url(#radial-gradient-11);}.cls-58{fill:#ffe4ff;}.cls-59{fill:url(#radial-gradient-12);}.cls-60{fill:url(#radial-gradient-13);}.cls-61{fill:url(#radial-gradient-14);}.cls-62{fill:url(#radial-gradient-15);}.cls-63{fill:url(#linear-gradient-27);}.cls-64{fill:url(#linear-gradient-28);}.cls-65{fill:#ffe7ff;}.cls-66{fill:url(#linear-gradient-29);}.cls-67{fill:#7c26a4;}.cls-68{fill:url(#linear-gradient-30);}.cls-69{fill:url(#linear-gradient-31);}.cls-70{fill:#552c84;opacity:0.42;}.cls-71{fill:url(#linear-gradient-32);}.cls-72{fill:url(#radial-gradient-16);}.cls-73{fill:url(#radial-gradient-17);}</style><clipPath id="clip-path" transform="translate(141.64 27.18)"><rect class="cls-1" x="0.33" y="0.96" width="749.83" height="499"/></clipPath><radialGradient id="radial-gradient" cx="354.37" cy="270.54" r="270.04" gradientTransform="translate(-109.96 -85.04) scale(1.32 1.34)" gradientUnits="userSpaceOnUse"><stop offset="0.01" stop-color="#de3dbf"/><stop offset="1" stop-color="#67219e"/></radialGradient><radialGradient id="radial-gradient-2" cx="476.11" cy="185.38" r="407.58" gradientTransform="translate(-109.38 -85.04) scale(1.29 1.34)" xlink:href="#radial-gradient"/><linearGradient id="linear-gradient" x1="667.21" y1="429.77" x2="680.61" y2="453.25" gradientUnits="userSpaceOnUse"><stop offset="0.01" stop-color="#fea7af"/><stop offset="0.97" stop-color="#ea47ac"/></linearGradient><linearGradient id="linear-gradient-2" x1="44.71" y1="508.22" x2="66.97" y2="508.22" gradientTransform="translate(-137.86 -188.13) rotate(-20.05)" xlink:href="#linear-gradient"/><linearGradient id="linear-gradient-3" x1="30.55" y1="242.75" x2="78.3" y2="242.75" gradientTransform="translate(98.02 22.59) rotate(14.81)" xlink:href="#linear-gradient"/><linearGradient id="linear-gradient-4" x1="-999.8" y1="762.59" x2="-927.59" y2="762.59" gradientTransform="translate(-1063.23 289.37) rotate(-138.39)" gradientUnits="userSpaceOnUse"><stop offset="0.01" stop-color="#fea7af"/><stop offset="0.99" stop-color="#ea47ac" stop-opacity="0"/></linearGradient><linearGradient id="linear-gradient-5" x1="-998.87" y1="762.13" x2="-954.62" y2="762.13" xlink:href="#linear-gradient-4"/><linearGradient id="linear-gradient-6" x1="-1127.6" y1="984.24" x2="-1092.93" y2="984.24" xlink:href="#linear-gradient-4"/><linearGradient id="linear-gradient-7" x1="-1127.15" y1="984.01" x2="-1105.91" y2="984.01" xlink:href="#linear-gradient-4"/><linearGradient id="linear-gradient-8" x1="-934.74" y1="707.61" x2="-838.86" y2="707.61" xlink:href="#linear-gradient-4"/><linearGradient id="linear-gradient-9" x1="-933.5" y1="706.99" x2="-874.75" y2="706.99" xlink:href="#linear-gradient-4"/><linearGradient id="linear-gradient-10" x1="-871.7" y1="688.63" x2="-827.71" y2="688.63" xlink:href="#linear-gradient-4"/><linearGradient id="linear-gradient-11" x1="-871.14" y1="688.34" x2="-844.18" y2="688.34" xlink:href="#linear-gradient-4"/><linearGradient id="linear-gradient-12" x1="-1244.86" y1="1017.15" x2="-1200.87" y2="1017.15" xlink:href="#linear-gradient-4"/><linearGradient id="linear-gradient-13" x1="-1244.29" y1="1016.86" x2="-1217.33" y2="1016.86" xlink:href="#linear-gradient-4"/><linearGradient id="linear-gradient-14" x1="141.01" y1="236.12" x2="224.57" y2="236.12" xlink:href="#linear-gradient"/><linearGradient id="linear-gradient-15" x1="145.51" y1="207.56" x2="220.98" y2="207.56" gradientUnits="userSpaceOnUse"><stop offset="0.01" stop-color="#fea7af"/><stop offset="0.05" stop-color="#fda1af"/><stop offset="0.32" stop-color="#f57aae"/><stop offset="0.58" stop-color="#ef5ead"/><stop offset="0.81" stop-color="#eb4dac"/><stop offset="0.97" stop-color="#ea47ac"/></linearGradient><linearGradient id="linear-gradient-16" x1="141.33" y1="260.45" x2="222.96" y2="260.45" gradientUnits="userSpaceOnUse"><stop offset="0.01" stop-color="#fea7af"/><stop offset="0.13" stop-color="#fa93ae"/><stop offset="0.36" stop-color="#f372ad"/><stop offset="0.59" stop-color="#ee5aad"/><stop offset="0.8" stop-color="#eb4cac"/><stop offset="0.97" stop-color="#ea47ac"/></linearGradient><linearGradient id="linear-gradient-17" x1="582.56" y1="178.9" x2="665.16" y2="178.9" gradientTransform="matrix(0.95, 0.32, -0.32, 0.95, 110.27, 82.03)" xlink:href="#radial-gradient"/><linearGradient id="linear-gradient-18" x1="586.82" y1="150.76" x2="661.43" y2="150.76" gradientTransform="matrix(0.95, 0.32, -0.32, 0.95, 110.27, 82.03)" gradientUnits="userSpaceOnUse"><stop offset="0.01" stop-color="#de3dbf"/><stop offset="0.12" stop-color="#ca38ba"/><stop offset="0.39" stop-color="#a02eae"/><stop offset="0.64" stop-color="#8127a5"/><stop offset="0.85" stop-color="#6e23a0"/><stop offset="1" stop-color="#67219e"/></linearGradient><linearGradient id="linear-gradient-19" x1="582.94" y1="202.55" x2="663.7" y2="202.55" gradientTransform="matrix(0.95, 0.32, -0.32, 0.95, 110.27, 82.03)" gradientUnits="userSpaceOnUse"><stop offset="0.01" stop-color="#de3dbf"/><stop offset="0.12" stop-color="#c337b8"/><stop offset="0.28" stop-color="#a22fae"/><stop offset="0.45" stop-color="#8829a7"/><stop offset="0.62" stop-color="#7624a2"/><stop offset="0.8" stop-color="#6b229f"/><stop offset="1" stop-color="#67219e"/></linearGradient><linearGradient id="linear-gradient-20" x1="245.31" y1="-264.92" x2="266.04" y2="-264.92" gradientTransform="translate(172 229.35) rotate(35.44)" gradientUnits="userSpaceOnUse"><stop offset="0.01" stop-color="#a02cc2"/><stop offset="0.01" stop-color="#9f2cc1"/><stop offset="0.33" stop-color="#7222a6"/><stop offset="0.61" stop-color="#521b92"/><stop offset="0.84" stop-color="#3e1786"/><stop offset="1" stop-color="#371582"/></linearGradient><linearGradient id="linear-gradient-21" x1="246.28" y1="-264.38" x2="262.39" y2="-264.38" xlink:href="#linear-gradient-20"/><radialGradient id="radial-gradient-3" cx="225.5" cy="-173.31" r="28.73" gradientTransform="matrix(1.05, 0.78, -0.75, 1.09, 254.36, 249.04)" gradientUnits="userSpaceOnUse"><stop offset="0.01" stop-color="#a02cc2"/><stop offset="1" stop-color="#371582"/></radialGradient><radialGradient id="radial-gradient-4" cx="225.98" cy="-173.45" r="25.58" xlink:href="#radial-gradient-3"/><radialGradient id="radial-gradient-5" cx="229.49" cy="-153.13" r="15.62" xlink:href="#radial-gradient-3"/><radialGradient id="radial-gradient-6" cx="18.2" cy="-540.87" r="15.62" gradientTransform="matrix(0.93, 0.69, -0.34, 0.49, 424.96, 496.25)" gradientUnits="userSpaceOnUse"><stop offset="0" stop-color="#371582"/><stop offset="0.99" stop-color="#a02cc2"/></radialGradient><linearGradient id="linear-gradient-22" x1="312.63" y1="-262.51" x2="333.36" y2="-262.51" xlink:href="#linear-gradient-20"/><linearGradient id="linear-gradient-23" x1="313.13" y1="-261.81" x2="329.25" y2="-261.81" xlink:href="#linear-gradient-20"/><radialGradient id="radial-gradient-7" cx="276.98" cy="-172.35" r="28.73" xlink:href="#radial-gradient-3"/><radialGradient id="radial-gradient-8" cx="278.45" cy="-172.32" r="24.73" xlink:href="#radial-gradient-3"/><radialGradient id="radial-gradient-9" cx="280.97" cy="-152.17" r="15.62" xlink:href="#radial-gradient-3"/><radialGradient id="radial-gradient-10" cx="76.49" cy="-538.73" r="15.62" xlink:href="#radial-gradient-6"/><linearGradient id="linear-gradient-24" x1="259.68" y1="-288.21" x2="317.77" y2="-288.21" gradientTransform="translate(172 229.35) rotate(35.44)" xlink:href="#radial-gradient-3"/><linearGradient id="linear-gradient-25" x1="260.13" y1="-286.93" x2="306.67" y2="-286.93" gradientTransform="translate(172 229.35) rotate(35.44)" xlink:href="#radial-gradient-3"/><clipPath id="clip-path-4" transform="translate(141.64 27.18)"><path class="cls-1" d="M646.82,75.31l.37-10.18a6.83,6.83,0,0,0-9.26-6.84l0,0L628.77,62a99.17,99.17,0,0,0-44.45,35.91l-3.9,5.68c.3-.87.6-1.73.88-2.6l2.48-7.83a2.69,2.69,0,0,0-3.59-3.36,2.5,2.5,0,0,0-.52.33l-6.32,5a96.21,96.21,0,0,0-19.66,21L483,219.05,467,232.2l9.38,6.91-6-4.4-.71,1,13.25,9.77-1.35,2,44.31,32.68.62-.92L540,289.14l.71-1-1.07-.79h0l5,3.68,6.73-20L622,168.13A99,99,0,0,0,634.75,142l2.48-7.83a2.68,2.68,0,0,0-3.58-3.36,2.32,2.32,0,0,0-.53.33l-6.32,5c-1.62,1.28-3.19,2.62-4.72,4l6.55-9.53A104.54,104.54,0,0,0,646.82,75.31Z"/></clipPath><linearGradient id="linear-gradient-26" x1="539.52" y1="147.18" x2="571.58" y2="217.57" gradientTransform="matrix(1, 0, 0, 1, 0, 0)" xlink:href="#radial-gradient"/><radialGradient id="radial-gradient-11" cx="-233.26" cy="-248.66" r="94.93" gradientTransform="matrix(0.81, 0.59, -0.75, 1.09, 676.51, 560.12)" gradientUnits="userSpaceOnUse"><stop offset="0" stop-color="#67219e"/><stop offset="0.99" stop-color="#de3dbf"/></radialGradient><radialGradient id="radial-gradient-12" cx="221.96" cy="-247.26" r="89.4" gradientTransform="matrix(1.05, 0.78, -0.75, 1.09, 254.36, 249.04)" xlink:href="#radial-gradient"/><radialGradient id="radial-gradient-13" cx="223.9" cy="-220" r="60.54" gradientTransform="matrix(1.05, 0.78, -0.75, 1.09, 254.36, 249.04)" xlink:href="#radial-gradient"/><radialGradient id="radial-gradient-14" cx="266.68" cy="-247.26" r="89.4" gradientTransform="matrix(1.05, 0.78, -0.75, 1.09, 254.36, 249.04)" xlink:href="#radial-gradient"/><radialGradient id="radial-gradient-15" cx="286.25" cy="-220.31" r="60.87" gradientTransform="matrix(1.05, 0.78, -0.75, 1.09, 254.36, 249.04)" xlink:href="#radial-gradient"/><linearGradient id="linear-gradient-27" x1="383.62" y1="-274.06" x2="311.48" y2="-270.14" gradientTransform="translate(172 229.35) rotate(35.44)" xlink:href="#radial-gradient"/><linearGradient id="linear-gradient-28" x1="272.48" y1="-268.59" x2="305.54" y2="-268.59" gradientTransform="translate(172 229.35) rotate(35.44)" xlink:href="#radial-gradient"/><linearGradient id="linear-gradient-29" x1="481.97" y1="256.18" x2="541.71" y2="256.18" gradientTransform="matrix(1, 0, 0, 1, 0, 0)" xlink:href="#radial-gradient"/><linearGradient id="linear-gradient-30" x1="280.2" y1="-328.25" x2="302.24" y2="-328.25" gradientTransform="translate(172 229.35) rotate(35.44)" xlink:href="#radial-gradient"/><linearGradient id="linear-gradient-31" x1="280.71" y1="-356.3" x2="306.12" y2="-358.02" gradientTransform="translate(172 229.35) rotate(35.44)" xlink:href="#radial-gradient"/><linearGradient id="linear-gradient-32" x1="294.19" y1="-223.36" x2="291.4" y2="-143.59" gradientTransform="translate(172 229.35) rotate(35.44)" xlink:href="#radial-gradient"/><radialGradient id="radial-gradient-16" cx="246.81" cy="387.08" r="7.1" gradientTransform="translate(-109.38 -85.04) scale(1.29 1.34)" gradientUnits="userSpaceOnUse"><stop offset="0.01" stop-color="#de3dbf"/><stop offset="0.1" stop-color="#b03097"/><stop offset="0.22" stop-color="#822470"/><stop offset="0.34" stop-color="#5a194d"/><stop offset="0.46" stop-color="#391031"/><stop offset="0.58" stop-color="#20091c"/><stop offset="0.71" stop-color="#0e040c"/><stop offset="0.84" stop-color="#030103"/><stop offset="1"/></radialGradient><radialGradient id="radial-gradient-17" cx="301.39" cy="258.94" r="7.1" xlink:href="#radial-gradient-16"/></defs><title>Asset 1</title><g class="cls-2"><g id="Layer_2" data-name="Layer 2"><g id="OBJECTS"><rect class="cls-3" x="141.64" y="27.18" width="749.83" height="500"/><g class="cls-4"><g class="cls-5"><g class="cls-6"><path class="cls-7" d="M28.55-25.48a1.66,1.66,0,0,1-1.64,1.69,1.66,1.66,0,0,1-1.63-1.69,1.67,1.67,0,0,1,1.63-1.7A1.67,1.67,0,0,1,28.55-25.48Z" transform="translate(141.64 27.18)"/><path class="cls-7" d="M98.07-25.48a1.67,1.67,0,0,1-1.64,1.69,1.67,1.67,0,0,1-1.64-1.69,1.67,1.67,0,0,1,1.64-1.7A1.67,1.67,0,0,1,98.07-25.48Z" transform="translate(141.64 27.18)"/><path class="cls-7" d="M167.58-25.48A1.66,1.66,0,0,1,166-23.79a1.66,1.66,0,0,1-1.64-1.69,1.67,1.67,0,0,1,1.64-1.7A1.67,1.67,0,0,1,167.58-25.48Z" transform="translate(141.64 27.18)"/><path class="cls-7" d="M237.1-25.48a1.67,1.67,0,0,1-1.64,1.69,1.66,1.66,0,0,1-1.63-1.69,1.67,1.67,0,0,1,1.63-1.7A1.67,1.67,0,0,1,237.1-25.48Z" transform="translate(141.64 27.18)"/><path class="cls-7" d="M306.61-25.48A1.66,1.66,0,0,1,305-23.79a1.66,1.66,0,0,1-1.64-1.69,1.67,1.67,0,0,1,1.64-1.7A1.67,1.67,0,0,1,306.61-25.48Z" transform="translate(141.64 27.18)"/><path class="cls-7" d="M376.13-25.48a1.66,1.66,0,0,1-1.64,1.69,1.66,1.66,0,0,1-1.63-1.69,1.67,1.67,0,0,1,1.63-1.7A1.67,1.67,0,0,1,376.13-25.48Z" transform="translate(141.64 27.18)"/><path class="cls-7" d="M445.64-25.48A1.66,1.66,0,0,1,444-23.79a1.66,1.66,0,0,1-1.64-1.69,1.67,1.67,0,0,1,1.64-1.7A1.67,1.67,0,0,1,445.64-25.48Z" transform="translate(141.64 27.18)"/><path class="cls-7" d="M515.16-25.48a1.66,1.66,0,0,1-1.64,1.69,1.66,1.66,0,0,1-1.63-1.69,1.67,1.67,0,0,1,1.63-1.7A1.67,1.67,0,0,1,515.16-25.48Z" transform="translate(141.64 27.18)"/><path class="cls-7" d="M584.67-25.48A1.66,1.66,0,0,1,583-23.79a1.67,1.67,0,0,1-1.64-1.69,1.67,1.67,0,0,1,1.64-1.7A1.67,1.67,0,0,1,584.67-25.48Z" transform="translate(141.64 27.18)"/><path class="cls-7" d="M654.19-25.48a1.66,1.66,0,0,1-1.64,1.69,1.66,1.66,0,0,1-1.63-1.69,1.67,1.67,0,0,1,1.63-1.7A1.67,1.67,0,0,1,654.19-25.48Z" transform="translate(141.64 27.18)"/><path class="cls-7" d="M723.71-25.48a1.67,1.67,0,0,1-1.64,1.69,1.67,1.67,0,0,1-1.64-1.69,1.67,1.67,0,0,1,1.64-1.7A1.67,1.67,0,0,1,723.71-25.48Z" transform="translate(141.64 27.18)"/><path class="cls-7" d="M28.55,43.5a1.64,1.64,0,1,1-1.64-1.69A1.67,1.67,0,0,1,28.55,43.5Z" transform="translate(141.64 27.18)"/><path class="cls-7" d="M98.07,43.5a1.64,1.64,0,1,1-1.64-1.69A1.67,1.67,0,0,1,98.07,43.5Z" transform="translate(141.64 27.18)"/><path class="cls-7" d="M167.58,43.5A1.64,1.64,0,1,1,166,41.81,1.67,1.67,0,0,1,167.58,43.5Z" transform="translate(141.64 27.18)"/><path class="cls-7" d="M237.1,43.5a1.64,1.64,0,1,1-1.64-1.69A1.67,1.67,0,0,1,237.1,43.5Z" transform="translate(141.64 27.18)"/><path class="cls-7" d="M306.61,43.5A1.64,1.64,0,1,1,305,41.81,1.67,1.67,0,0,1,306.61,43.5Z" transform="translate(141.64 27.18)"/><path class="cls-7" d="M376.13,43.5a1.64,1.64,0,1,1-1.64-1.69A1.67,1.67,0,0,1,376.13,43.5Z" transform="translate(141.64 27.18)"/><path class="cls-7" d="M445.64,43.5A1.64,1.64,0,1,1,444,41.81,1.67,1.67,0,0,1,445.64,43.5Z" transform="translate(141.64 27.18)"/><path class="cls-7" d="M515.16,43.5a1.64,1.64,0,1,1-1.64-1.69A1.67,1.67,0,0,1,515.16,43.5Z" transform="translate(141.64 27.18)"/><path class="cls-7" d="M584.67,43.5A1.64,1.64,0,1,1,583,41.81,1.67,1.67,0,0,1,584.67,43.5Z" transform="translate(141.64 27.18)"/><path class="cls-7" d="M654.19,43.5a1.64,1.64,0,1,1-1.64-1.69A1.67,1.67,0,0,1,654.19,43.5Z" transform="translate(141.64 27.18)"/><path class="cls-7" d="M723.71,43.5a1.64,1.64,0,1,1-1.64-1.69A1.67,1.67,0,0,1,723.71,43.5Z" transform="translate(141.64 27.18)"/><path class="cls-7" d="M28.55,112.49a1.64,1.64,0,1,1-1.64-1.69A1.67,1.67,0,0,1,28.55,112.49Z" transform="translate(141.64 27.18)"/><path class="cls-7" d="M98.07,112.49a1.64,1.64,0,1,1-1.64-1.69A1.67,1.67,0,0,1,98.07,112.49Z" transform="translate(141.64 27.18)"/><path class="cls-7" d="M167.58,112.49A1.64,1.64,0,1,1,166,110.8,1.67,1.67,0,0,1,167.58,112.49Z" transform="translate(141.64 27.18)"/><path class="cls-7" d="M237.1,112.49a1.64,1.64,0,1,1-3.27,0,1.64,1.64,0,1,1,3.27,0Z" transform="translate(141.64 27.18)"/><path class="cls-7" d="M306.61,112.49A1.64,1.64,0,1,1,305,110.8,1.67,1.67,0,0,1,306.61,112.49Z" transform="translate(141.64 27.18)"/><path class="cls-7" d="M376.13,112.49a1.64,1.64,0,1,1-1.64-1.69A1.67,1.67,0,0,1,376.13,112.49Z" transform="translate(141.64 27.18)"/><path class="cls-7" d="M445.64,112.49A1.64,1.64,0,1,1,444,110.8,1.67,1.67,0,0,1,445.64,112.49Z" transform="translate(141.64 27.18)"/><path class="cls-7" d="M515.16,112.49a1.64,1.64,0,1,1-1.64-1.69A1.67,1.67,0,0,1,515.16,112.49Z" transform="translate(141.64 27.18)"/><path class="cls-7" d="M584.67,112.49A1.64,1.64,0,1,1,583,110.8,1.67,1.67,0,0,1,584.67,112.49Z" transform="translate(141.64 27.18)"/><path class="cls-7" d="M654.19,112.49a1.64,1.64,0,1,1-1.64-1.69A1.67,1.67,0,0,1,654.19,112.49Z" transform="translate(141.64 27.18)"/><path class="cls-7" d="M723.71,112.49a1.64,1.64,0,1,1-1.64-1.69A1.67,1.67,0,0,1,723.71,112.49Z" transform="translate(141.64 27.18)"/><path class="cls-7" d="M28.55,181.48a1.64,1.64,0,1,1-1.64-1.7A1.66,1.66,0,0,1,28.55,181.48Z" transform="translate(141.64 27.18)"/><path class="cls-7" d="M98.07,181.48a1.64,1.64,0,1,1-1.64-1.7A1.67,1.67,0,0,1,98.07,181.48Z" transform="translate(141.64 27.18)"/><path class="cls-7" d="M167.58,181.48a1.64,1.64,0,1,1-1.63-1.7A1.66,1.66,0,0,1,167.58,181.48Z" transform="translate(141.64 27.18)"/><path class="cls-7" d="M237.1,181.48a1.64,1.64,0,1,1-1.64-1.7A1.67,1.67,0,0,1,237.1,181.48Z" transform="translate(141.64 27.18)"/><path class="cls-7" d="M306.61,181.48a1.64,1.64,0,1,1-1.63-1.7A1.66,1.66,0,0,1,306.61,181.48Z" transform="translate(141.64 27.18)"/><path class="cls-7" d="M376.13,181.48a1.64,1.64,0,1,1-1.64-1.7A1.66,1.66,0,0,1,376.13,181.48Z" transform="translate(141.64 27.18)"/><path class="cls-7" d="M445.64,181.48a1.64,1.64,0,1,1-1.63-1.7A1.66,1.66,0,0,1,445.64,181.48Z" transform="translate(141.64 27.18)"/><path class="cls-7" d="M515.16,181.48a1.64,1.64,0,1,1-1.64-1.7A1.66,1.66,0,0,1,515.16,181.48Z" transform="translate(141.64 27.18)"/><path class="cls-7" d="M584.67,181.48a1.64,1.64,0,1,1-1.63-1.7A1.66,1.66,0,0,1,584.67,181.48Z" transform="translate(141.64 27.18)"/><path class="cls-7" d="M654.19,181.48a1.64,1.64,0,1,1-1.64-1.7A1.66,1.66,0,0,1,654.19,181.48Z" transform="translate(141.64 27.18)"/><path class="cls-7" d="M723.71,181.48a1.64,1.64,0,1,1-1.64-1.7A1.67,1.67,0,0,1,723.71,181.48Z" transform="translate(141.64 27.18)"/><path class="cls-7" d="M28.55,250.46a1.64,1.64,0,1,1-1.64-1.69A1.67,1.67,0,0,1,28.55,250.46Z" transform="translate(141.64 27.18)"/><path class="cls-7" d="M98.07,250.46a1.64,1.64,0,1,1-1.64-1.69A1.67,1.67,0,0,1,98.07,250.46Z" transform="translate(141.64 27.18)"/><path class="cls-7" d="M167.58,250.46a1.64,1.64,0,1,1-1.63-1.69A1.67,1.67,0,0,1,167.58,250.46Z" transform="translate(141.64 27.18)"/><ellipse class="cls-7" cx="377.1" cy="277.64" rx="1.64" ry="1.69"/><path class="cls-7" d="M306.61,250.46a1.64,1.64,0,1,1-1.63-1.69A1.67,1.67,0,0,1,306.61,250.46Z" transform="translate(141.64 27.18)"/><path class="cls-7" d="M376.13,250.46a1.64,1.64,0,1,1-1.64-1.69A1.67,1.67,0,0,1,376.13,250.46Z" transform="translate(141.64 27.18)"/><path class="cls-7" d="M445.64,250.46a1.64,1.64,0,1,1-1.63-1.69A1.67,1.67,0,0,1,445.64,250.46Z" transform="translate(141.64 27.18)"/><path class="cls-7" d="M515.16,250.46a1.64,1.64,0,1,1-1.64-1.69A1.67,1.67,0,0,1,515.16,250.46Z" transform="translate(141.64 27.18)"/><path class="cls-7" d="M584.67,250.46a1.64,1.64,0,1,1-1.63-1.69A1.67,1.67,0,0,1,584.67,250.46Z" transform="translate(141.64 27.18)"/><path class="cls-7" d="M654.19,250.46a1.64,1.64,0,1,1-1.64-1.69A1.67,1.67,0,0,1,654.19,250.46Z" transform="translate(141.64 27.18)"/><path class="cls-7" d="M723.71,250.46a1.64,1.64,0,1,1-1.64-1.69A1.67,1.67,0,0,1,723.71,250.46Z" transform="translate(141.64 27.18)"/><path class="cls-7" d="M28.55,319.45a1.64,1.64,0,1,1-1.64-1.7A1.66,1.66,0,0,1,28.55,319.45Z" transform="translate(141.64 27.18)"/><path class="cls-7" d="M98.07,319.45a1.64,1.64,0,1,1-1.64-1.7A1.67,1.67,0,0,1,98.07,319.45Z" transform="translate(141.64 27.18)"/><path class="cls-7" d="M167.58,319.45a1.64,1.64,0,1,1-1.63-1.7A1.66,1.66,0,0,1,167.58,319.45Z" transform="translate(141.64 27.18)"/><path class="cls-7" d="M237.1,319.45a1.64,1.64,0,1,1-1.64-1.7A1.67,1.67,0,0,1,237.1,319.45Z" transform="translate(141.64 27.18)"/><path class="cls-7" d="M306.61,319.45a1.64,1.64,0,1,1-1.63-1.7A1.66,1.66,0,0,1,306.61,319.45Z" transform="translate(141.64 27.18)"/><path class="cls-7" d="M376.13,319.45a1.64,1.64,0,1,1-1.64-1.7A1.66,1.66,0,0,1,376.13,319.45Z" transform="translate(141.64 27.18)"/><path class="cls-7" d="M445.64,319.45a1.64,1.64,0,1,1-1.63-1.7A1.66,1.66,0,0,1,445.64,319.45Z" transform="translate(141.64 27.18)"/><path class="cls-7" d="M515.16,319.45a1.64,1.64,0,1,1-1.64-1.7A1.66,1.66,0,0,1,515.16,319.45Z" transform="translate(141.64 27.18)"/><path class="cls-7" d="M584.67,319.45a1.64,1.64,0,1,1-1.63-1.7A1.66,1.66,0,0,1,584.67,319.45Z" transform="translate(141.64 27.18)"/><path class="cls-7" d="M654.19,319.45a1.64,1.64,0,1,1-1.64-1.7A1.66,1.66,0,0,1,654.19,319.45Z" transform="translate(141.64 27.18)"/><path class="cls-7" d="M723.71,319.45a1.64,1.64,0,1,1-1.64-1.7A1.67,1.67,0,0,1,723.71,319.45Z" transform="translate(141.64 27.18)"/><path class="cls-7" d="M28.55,388.43a1.64,1.64,0,1,1-1.64-1.69A1.67,1.67,0,0,1,28.55,388.43Z" transform="translate(141.64 27.18)"/><path class="cls-7" d="M98.07,388.43a1.64,1.64,0,1,1-1.64-1.69A1.67,1.67,0,0,1,98.07,388.43Z" transform="translate(141.64 27.18)"/><path class="cls-7" d="M167.58,388.43a1.64,1.64,0,1,1-1.63-1.69A1.67,1.67,0,0,1,167.58,388.43Z" transform="translate(141.64 27.18)"/><path class="cls-7" d="M237.1,388.43a1.64,1.64,0,1,1-1.64-1.69A1.67,1.67,0,0,1,237.1,388.43Z" transform="translate(141.64 27.18)"/><path class="cls-7" d="M306.61,388.43a1.64,1.64,0,1,1-1.63-1.69A1.67,1.67,0,0,1,306.61,388.43Z" transform="translate(141.64 27.18)"/><path class="cls-7" d="M376.13,388.43a1.64,1.64,0,1,1-1.64-1.69A1.67,1.67,0,0,1,376.13,388.43Z" transform="translate(141.64 27.18)"/><path class="cls-7" d="M445.64,388.43a1.64,1.64,0,1,1-1.63-1.69A1.67,1.67,0,0,1,445.64,388.43Z" transform="translate(141.64 27.18)"/><path class="cls-7" d="M515.16,388.43a1.64,1.64,0,1,1-1.64-1.69A1.67,1.67,0,0,1,515.16,388.43Z" transform="translate(141.64 27.18)"/><path class="cls-7" d="M584.67,388.43a1.64,1.64,0,1,1-1.63-1.69A1.67,1.67,0,0,1,584.67,388.43Z" transform="translate(141.64 27.18)"/><path class="cls-7" d="M654.19,388.43a1.64,1.64,0,1,1-1.64-1.69A1.67,1.67,0,0,1,654.19,388.43Z" transform="translate(141.64 27.18)"/><path class="cls-7" d="M723.71,388.43a1.64,1.64,0,1,1-1.64-1.69A1.67,1.67,0,0,1,723.71,388.43Z" transform="translate(141.64 27.18)"/><path class="cls-7" d="M28.55,457.42a1.64,1.64,0,1,1-1.64-1.7A1.66,1.66,0,0,1,28.55,457.42Z" transform="translate(141.64 27.18)"/><path class="cls-7" d="M98.07,457.42a1.64,1.64,0,1,1-1.64-1.7A1.67,1.67,0,0,1,98.07,457.42Z" transform="translate(141.64 27.18)"/><path class="cls-7" d="M167.58,457.42a1.64,1.64,0,1,1-1.63-1.7A1.66,1.66,0,0,1,167.58,457.42Z" transform="translate(141.64 27.18)"/><path class="cls-7" d="M237.1,457.42a1.64,1.64,0,1,1-1.64-1.7A1.67,1.67,0,0,1,237.1,457.42Z" transform="translate(141.64 27.18)"/><path class="cls-7" d="M306.61,457.42a1.64,1.64,0,1,1-1.63-1.7A1.66,1.66,0,0,1,306.61,457.42Z" transform="translate(141.64 27.18)"/><path class="cls-7" d="M376.13,457.42a1.64,1.64,0,1,1-1.64-1.7A1.66,1.66,0,0,1,376.13,457.42Z" transform="translate(141.64 27.18)"/><path class="cls-7" d="M445.64,457.42a1.64,1.64,0,1,1-1.63-1.7A1.66,1.66,0,0,1,445.64,457.42Z" transform="translate(141.64 27.18)"/><path class="cls-7" d="M515.16,457.42a1.64,1.64,0,1,1-1.64-1.7A1.66,1.66,0,0,1,515.16,457.42Z" transform="translate(141.64 27.18)"/><path class="cls-7" d="M584.67,457.42a1.64,1.64,0,1,1-1.63-1.7A1.66,1.66,0,0,1,584.67,457.42Z" transform="translate(141.64 27.18)"/><path class="cls-7" d="M654.19,457.42a1.64,1.64,0,1,1-1.64-1.7A1.66,1.66,0,0,1,654.19,457.42Z" transform="translate(141.64 27.18)"/><path class="cls-7" d="M723.71,457.42a1.64,1.64,0,1,1-1.64-1.7A1.67,1.67,0,0,1,723.71,457.42Z" transform="translate(141.64 27.18)"/><path class="cls-7" d="M28.55,526.4a1.64,1.64,0,1,1-1.64-1.69A1.67,1.67,0,0,1,28.55,526.4Z" transform="translate(141.64 27.18)"/><path class="cls-7" d="M98.07,526.4a1.64,1.64,0,1,1-1.64-1.69A1.67,1.67,0,0,1,98.07,526.4Z" transform="translate(141.64 27.18)"/><path class="cls-7" d="M167.58,526.4a1.64,1.64,0,1,1-1.63-1.69A1.67,1.67,0,0,1,167.58,526.4Z" transform="translate(141.64 27.18)"/><path class="cls-7" d="M237.1,526.4a1.64,1.64,0,1,1-1.64-1.69A1.67,1.67,0,0,1,237.1,526.4Z" transform="translate(141.64 27.18)"/><path class="cls-7" d="M306.61,526.4a1.64,1.64,0,1,1-1.63-1.69A1.67,1.67,0,0,1,306.61,526.4Z" transform="translate(141.64 27.18)"/><path class="cls-7" d="M376.13,526.4a1.64,1.64,0,1,1-1.64-1.69A1.67,1.67,0,0,1,376.13,526.4Z" transform="translate(141.64 27.18)"/><path class="cls-7" d="M445.64,526.4a1.64,1.64,0,1,1-1.63-1.69A1.67,1.67,0,0,1,445.64,526.4Z" transform="translate(141.64 27.18)"/><path class="cls-7" d="M515.16,526.4a1.64,1.64,0,1,1-1.64-1.69A1.67,1.67,0,0,1,515.16,526.4Z" transform="translate(141.64 27.18)"/><path class="cls-7" d="M584.67,526.4a1.64,1.64,0,1,1-1.63-1.69A1.67,1.67,0,0,1,584.67,526.4Z" transform="translate(141.64 27.18)"/><path class="cls-7" d="M654.19,526.4a1.64,1.64,0,1,1-1.64-1.69A1.67,1.67,0,0,1,654.19,526.4Z" transform="translate(141.64 27.18)"/><path class="cls-7" d="M723.71,526.4a1.64,1.64,0,1,1-1.64-1.69A1.67,1.67,0,0,1,723.71,526.4Z" transform="translate(141.64 27.18)"/></g></g></g><g class="cls-5"><path class="cls-8" d="M553.23,207.65s-15,36-55,12.7-43.26-47.08-120-24.21-104.58,21.52-121-4.74S210,128.7,144.53,132.57,45.42,46.65-1.74,32.1-83.08,62.45-83.08,62.45V524.78H798.66s-22.56-70.68-73.14-92.17-43.33-36-48-72.06-101.82-60.33-95-113.25S553.23,207.65,553.23,207.65Z" transform="translate(141.64 27.18)"/><path class="cls-9" d="M-68.15,69.32c5.35-3.5,99-26.82,128.39,38.78s60.63,66.41,107.89,70.44,33,4.84,85.59,40,83.5,16.88,121.84,4.3,99.52,17.57,148.44-8.64S574.91,231,574.91,231s-13.62,37.52,26,63.78S621,351.31,632,399.35,750.17,518.54,750.17,518.54L-87.76,473.27Z" transform="translate(141.64 27.18)"/><path class="cls-10" d="M-72.12,55S-55.8,126.76,13,134.82s70.94,5.66,97.18,38.39,40.43,51.08,87.25,39.22,88-39.81,126.26-17.11,123.16,61.16,210.64-28.15,58.79,45.26,58.79,45.26-60.63,50,27.79,94.84c31.21,16.78,26.12,66.84,36.41,99.29s94.35,95.09,94.35,95.09S107.43,552.29,103.18,553s-244.82-124.9-244.82-124.9Z" transform="translate(141.64 27.18)"/></g><g class="cls-5"><ellipse class="cls-11" cx="673.85" cy="441.41" rx="14.03" ry="14.54"/><polygon class="cls-12" points="421.16 286.01 422.13 287.83 423.88 288.83 422.13 289.83 421.16 291.65 420.2 289.83 418.44 288.83 420.2 287.83 421.16 286.01"/><polygon class="cls-12" points="523.97 411.1 524.6 412.3 525.75 412.95 524.6 413.6 523.97 414.8 523.34 413.6 522.18 412.95 523.34 412.3 523.97 411.1"/><polygon class="cls-12" points="525.75 304.1 526.38 305.3 527.53 305.95 526.38 306.6 525.75 307.8 525.12 306.6 523.97 305.95 525.12 305.3 525.75 304.1"/><polygon class="cls-12" points="267.15 462.93 267.78 464.13 268.93 464.78 267.78 465.43 267.15 466.63 266.52 465.43 265.37 464.78 266.52 464.13 267.15 462.93"/><polygon class="cls-13" points="221.4 250.13 222.03 251.33 223.18 251.98 222.03 252.63 221.4 253.83 220.77 252.63 219.62 251.98 220.77 251.33 221.4 250.13"/><polygon class="cls-13" points="154.24 499.34 154.87 500.53 156.03 501.19 154.87 501.84 154.24 503.03 153.61 501.84 152.46 501.19 153.61 500.53 154.24 499.34"/><polygon class="cls-13" points="162.83 274.52 163.46 275.72 164.62 276.37 163.46 277.03 162.83 278.22 162.2 277.03 161.05 276.37 162.2 275.72 162.83 274.52"/><polygon class="cls-13" points="306.55 325.88 307.18 327.07 308.33 327.73 307.18 328.38 306.55 329.58 305.92 328.38 304.77 327.73 305.92 327.07 306.55 325.88"/><polygon class="cls-14" points="365.49 355.49 366.73 357.86 369.01 359.15 366.73 360.44 365.49 362.8 364.24 360.44 361.96 359.15 364.24 357.86 365.49 355.49"/><polygon class="cls-13" points="176.52 226.58 177.76 228.94 180.05 230.24 177.76 231.53 176.52 233.89 175.27 231.53 172.99 230.24 175.27 228.94 176.52 226.58"/><polygon class="cls-13" points="673.85 327.73 675.1 330.09 677.38 331.38 675.1 332.68 673.85 335.04 672.61 332.68 670.33 331.38 672.61 330.09 673.85 327.73"/><polygon class="cls-13" points="663.61 504.22 664.86 506.58 667.14 507.87 664.86 509.17 663.61 511.53 662.36 509.17 660.08 507.87 662.36 506.58 663.61 504.22"/><polygon class="cls-13" points="183.35 459.35 183.95 460.47 185.03 461.08 183.95 461.7 183.35 462.82 182.76 461.7 181.68 461.08 182.76 460.47 183.35 459.35"/><polygon class="cls-14" points="436.07 445.58 436.66 446.7 437.74 447.32 436.66 447.93 436.07 449.05 435.48 447.93 434.39 447.32 435.48 446.7 436.07 445.58"/><polygon class="cls-14" points="578.47 306.06 579.06 307.18 580.14 307.8 579.06 308.41 578.47 309.53 577.88 308.41 576.79 307.8 577.88 307.18 578.47 306.06"/><polygon class="cls-13" points="646.23 413.06 646.82 414.19 647.9 414.8 646.82 415.41 646.23 416.53 645.64 415.41 644.56 414.8 645.64 414.19 646.23 413.06"/><polygon class="cls-13" points="604.88 262.63 605.47 263.75 606.55 264.36 605.47 264.98 604.88 266.1 604.29 264.98 603.21 264.36 604.29 263.75 604.88 262.63"/><polygon class="cls-14" points="465.53 343.73 466.6 345.77 468.57 346.88 466.6 348 465.53 350.04 464.45 348 462.49 346.88 464.45 345.77 465.53 343.73"/><polygon class="cls-3" points="351.2 455.42 352.67 458.21 355.36 459.74 352.67 461.27 351.2 464.06 349.72 461.27 347.03 459.74 349.72 458.21 351.2 455.42"/><polygon class="cls-3" points="584.37 456.74 584.89 457.73 585.85 458.26 584.89 458.8 584.37 459.79 583.85 458.8 582.9 458.26 583.85 457.73 584.37 456.74"/><polygon class="cls-3" points="611.43 348.51 611.95 349.5 612.9 350.04 611.95 350.57 611.43 351.56 610.91 350.57 609.96 350.04 610.91 349.5 611.43 348.51"/><polygon class="cls-15" points="246.32 351 247.25 352.78 248.97 353.75 247.25 354.72 246.32 356.49 245.38 354.72 243.67 353.75 245.38 352.78 246.32 351"/><polygon class="cls-15" points="525.75 460.85 526.42 462.12 527.64 462.82 526.42 463.51 525.75 464.78 525.08 463.51 523.86 462.82 525.08 462.12 525.75 460.85"/><polygon class="cls-15" points="557.07 499.69 557.74 500.96 558.96 501.65 557.74 502.35 557.07 503.61 556.4 502.35 555.17 501.65 556.4 500.96 557.07 499.69"/><polygon class="cls-15" points="553.28 357.18 553.95 358.45 555.17 359.15 553.95 359.84 553.28 361.11 552.61 359.84 551.38 359.15 552.61 358.45 553.28 357.18"/><polygon class="cls-15" points="449.96 386.65 450.63 387.92 451.86 388.62 450.63 389.31 449.96 390.58 449.3 389.31 448.07 388.62 449.3 387.92 449.96 386.65"/><polygon class="cls-15" points="720.68 403.81 721.35 405.08 722.57 405.77 721.35 406.47 720.68 407.74 720.01 406.47 718.78 405.77 720.01 405.08 720.68 403.81"/><g class="cls-16"><path class="cls-17" d="M99.59,273.08A11.06,11.06,0,0,1,86,281.25a11.53,11.53,0,0,1-7.89-14A11.06,11.06,0,0,1,91.7,259,11.54,11.54,0,0,1,99.59,273.08Z" transform="translate(141.64 27.18)"/><path class="cls-18" d="M100.39,269.92s1.13.34,3.06,1.08c1,.37,2.13.85,3.45,1.47a15.38,15.38,0,0,1,4.18,2.68,2.25,2.25,0,0,1,.72,1.55,1.19,1.19,0,0,1,0,.32l-.07.17a1.66,1.66,0,0,1-.34.45,2.38,2.38,0,0,1-.75.45,10.11,10.11,0,0,1-3.06.54,38.19,38.19,0,0,1-6.42-.35A104.61,104.61,0,0,1,74.35,271a38.43,38.43,0,0,1-5.75-3,10.28,10.28,0,0,1-2.4-2,2.59,2.59,0,0,1-.44-.77,1.36,1.36,0,0,1,0-1.06,1.66,1.66,0,0,1,.66-.68,3.08,3.08,0,0,1,.71-.3,14.58,14.58,0,0,1,4.91-.19c1.44.13,2.68.32,3.7.49,2,.35,3.17.63,3.17.63s-1.17-.15-3.21-.33c-1-.09-2.26-.18-3.68-.2a16.42,16.42,0,0,0-4.64.44,3,3,0,0,0-.51.24.47.47,0,0,0-.16.13l-.05,0s0,.1-.08.14.05.47.32.79A9.08,9.08,0,0,0,69.17,267a49.75,49.75,0,0,0,5.67,2.71,108.44,108.44,0,0,0,13,4.31,106.82,106.82,0,0,0,13.39,2.93,49.82,49.82,0,0,0,6.23.56c1.81,0,4.48-.31,2.95-1.74a17,17,0,0,0-3.82-2.76c-1.24-.71-2.37-1.27-3.3-1.71C101.48,270.39,100.39,269.92,100.39,269.92Z" transform="translate(141.64 27.18)"/></g><path class="cls-19" d="M139.37,335.11l50.44,48a.73.73,0,0,1,.05,1h0a.67.67,0,0,1-1,.07l-52-46.17a2,2,0,0,1-.18-2.77h0A1.83,1.83,0,0,1,139.37,335.11Z" transform="translate(141.64 27.18)"/><path class="cls-20" d="M158.23,353.47l30.91,29.41a.46.46,0,0,1,0,.62h0a.42.42,0,0,1-.6.05l-31.87-28.3a1.21,1.21,0,0,1-.11-1.69h0A1.12,1.12,0,0,1,158.23,353.47Z" transform="translate(141.64 27.18)"/><g class="cls-21"><path class="cls-22" d="M408.77,279.3l24.22,23a.37.37,0,0,1,0,.49h0a.33.33,0,0,1-.47,0l-25-22.17a1,1,0,0,1-.09-1.33h0A.88.88,0,0,1,408.77,279.3Z" transform="translate(141.64 27.18)"/><path class="cls-23" d="M417.82,288.11l14.84,14.12a.23.23,0,0,1,0,.3h0a.2.2,0,0,1-.29,0L417.09,289a.59.59,0,0,1-.06-.82h0A.55.55,0,0,1,417.82,288.11Z" transform="translate(141.64 27.18)"/></g><g class="cls-24"><path class="cls-25" d="M37.41,317.23l67,63.73a1,1,0,0,1,.07,1.35h0a.91.91,0,0,1-1.3.09L34.1,321.1a2.66,2.66,0,0,1-.25-3.68h0A2.45,2.45,0,0,1,37.41,317.23Z" transform="translate(141.64 27.18)"/><path class="cls-26" d="M62.44,341.61l41,39.05a.61.61,0,0,1,0,.83h0a.56.56,0,0,1-.8.06L60.41,344a1.61,1.61,0,0,1-.15-2.25h0A1.5,1.5,0,0,1,62.44,341.61Z" transform="translate(141.64 27.18)"/><path class="cls-27" d="M14.53,324.14l30.73,29.24a.46.46,0,0,1,0,.62h0a.42.42,0,0,1-.6,0L13,325.91a1.2,1.2,0,0,1-.11-1.68h0A1.11,1.11,0,0,1,14.53,324.14Z" transform="translate(141.64 27.18)"/><path class="cls-28" d="M26,335.33l18.83,17.91a.27.27,0,0,1,0,.38h0a.25.25,0,0,1-.36,0L25.08,336.41a.74.74,0,0,1-.07-1h0A.68.68,0,0,1,26,335.33Z" transform="translate(141.64 27.18)"/></g><path class="cls-29" d="M511.67,326.35l30.72,29.24a.45.45,0,0,1,0,.62h0a.42.42,0,0,1-.6,0l-31.68-28.13a1.2,1.2,0,0,1-.11-1.68h0A1.11,1.11,0,0,1,511.67,326.35Z" transform="translate(141.64 27.18)"/><path class="cls-30" d="M523.15,337.54,542,355.45a.27.27,0,0,1,0,.38h0a.25.25,0,0,1-.36,0l-19.42-17.24a.74.74,0,0,1-.07-1h0A.68.68,0,0,1,523.15,337.54Z" transform="translate(141.64 27.18)"/><path class="cls-31" d="M224.57,236.12a45.25,45.25,0,0,1-1.61,12c-5,18.08-21.1,31.33-40.17,31.33-21.32,0-38.92-16.56-41.46-37.93a43.22,43.22,0,0,1-.32-5.36,44.21,44.21,0,0,1,4.5-19.56c6.89-14.08,21-23.74,37.28-23.74,17,0,31.69,10.56,38.19,25.72A44.54,44.54,0,0,1,224.57,236.12Z" transform="translate(141.64 27.18)"/><path class="cls-32" d="M221,218.54c-20.19-10.74-27.12-6.23-48.69,1.74-12.33,4.56-21.33.55-26.78-3.72,6.89-14.08,21-23.74,37.28-23.74C199.82,192.82,214.48,203.38,221,218.54Z" transform="translate(141.64 27.18)"/><path class="cls-33" d="M223,248.08c-5,18.08-21.1,31.33-40.17,31.33-21.32,0-38.92-16.56-41.46-37.93a36.09,36.09,0,0,0,27.61,10.32C190.9,250.46,207.78,234.38,223,248.08Z" transform="translate(141.64 27.18)"/><path class="cls-34" d="M682.93,465a43.68,43.68,0,0,1-5.14,10.64c-10.18,15.23-29.23,22.33-47,16.1-19.88-7-31.26-28.17-27.13-48.94a43.53,43.53,0,0,1,11.49-21.88,40.13,40.13,0,0,1,42-10c15.9,5.57,26.35,20.21,27.8,36.48A43.93,43.93,0,0,1,682.93,465Z" transform="translate(141.64 27.18)"/><path class="cls-35" d="M684.93,447.42c-15.57-16.62-23.4-14.68-45.95-14.3-12.89.22-20.07-6.46-23.85-12.22a40.13,40.13,0,0,1,42-10C673,416.51,683.48,431.15,684.93,447.42Z" transform="translate(141.64 27.18)"/><path class="cls-36" d="M677.79,475.62c-10.18,15.23-29.23,22.33-47,16.1-19.88-7-31.26-28.17-27.13-48.94a36.62,36.62,0,0,0,22.62,18.66C647.16,467.36,667.8,457.88,677.79,475.62Z" transform="translate(141.64 27.18)"/></g><path class="cls-37" d="M568.54,127.13,492.05,238.49l-14.85-11,76.49-111.36a96.21,96.21,0,0,1,19.66-21l6.32-5a2.5,2.5,0,0,1,.52-.33,2.69,2.69,0,0,1,3.59,3.36L581.3,101A99,99,0,0,1,568.54,127.13Z" transform="translate(141.64 27.18)"/><path class="cls-38" d="M564.83,124.39,488.34,235.75l-11.14-8.22,76.49-111.36a96.21,96.21,0,0,1,19.66-21l6.32-5a2.5,2.5,0,0,1,.52-.33,2.27,2.27,0,0,1-.12.62l-2.48,7.83A99.25,99.25,0,0,1,564.83,124.39Z" transform="translate(141.64 27.18)"/><path class="cls-39" d="M565.66,124.89l-76.5,111.36L478,228l76.5-111.36a96.41,96.41,0,0,1,19.65-21l6.33-5a2.27,2.27,0,0,1,.52-.33,2.82,2.82,0,0,1-.12.62l-2.49,7.83A99.22,99.22,0,0,1,565.66,124.89Z" transform="translate(141.64 27.18)"/><polygon class="cls-40" points="632.77 277.18 608.63 259.37 624.66 246.23 639.51 257.18 632.77 277.18"/><polygon class="cls-41" points="626.89 272.84 608.63 259.37 624.66 246.23 633.63 252.85 626.89 272.84"/><polygon class="cls-42" points="628.16 273.61 608.63 259.37 625.93 246.99 634.9 253.61 628.16 273.61"/><polygon class="cls-43" points="628.14 275.32 611.33 262.92 612.04 261.88 628.85 274.28 628.14 275.32"/><polygon class="cls-44" points="639.51 257.18 624.66 246.23 624.97 245.76 639.83 256.72 639.51 257.18"/><path class="cls-45" d="M622,168.13,545.5,279.48l-14.85-11,76.49-111.36a96,96,0,0,1,19.66-21l6.32-5a2.32,2.32,0,0,1,.53-.33,2.68,2.68,0,0,1,3.58,3.36L634.75,142A99,99,0,0,1,622,168.13Z" transform="translate(141.64 27.18)"/><path class="cls-46" d="M618.28,165.39,541.79,276.74l-11.14-8.21,76.49-111.36a96,96,0,0,1,19.66-21l6.32-5a2.32,2.32,0,0,1,.53-.33,2.86,2.86,0,0,1-.13.62L631,139.25A99.25,99.25,0,0,1,618.28,165.39Z" transform="translate(141.64 27.18)"/><path class="cls-47" d="M618.64,165.76l-76.5,111.35L531,268.9l76.49-111.36a96.47,96.47,0,0,1,19.66-21l6.33-5a2.61,2.61,0,0,1,.52-.32,2.82,2.82,0,0,1-.12.62l-2.49,7.83A99.38,99.38,0,0,1,618.64,165.76Z" transform="translate(141.64 27.18)"/><polygon class="cls-48" points="686.22 318.17 662.08 300.37 678.11 287.22 692.96 298.18 686.22 318.17"/><polygon class="cls-41" points="680.34 313.84 662.08 300.37 678.11 287.22 687.08 293.84 680.34 313.84"/><polygon class="cls-49" points="681.23 314.53 662.97 301.07 678.99 287.92 687.97 294.54 681.23 314.53"/><polygon class="cls-50" points="681.59 316.31 664.78 303.91 665.49 302.88 682.3 315.28 681.59 316.31"/><polygon class="cls-51" points="692.96 298.18 678.11 287.22 678.42 286.76 693.28 297.72 692.96 298.18"/><path class="cls-52" d="M628.63,130.59,525.9,280.15l-44.31-32.68L584.32,97.91A99.17,99.17,0,0,1,628.77,62l9.13-3.69,0,0a6.83,6.83,0,0,1,9.26,6.84l-.37,10.18A104.54,104.54,0,0,1,628.63,130.59Z" transform="translate(141.64 27.18)"/><path class="cls-41" d="M619.34,123.74,516.6,273.29l-35-25.82L584.32,97.91A99.17,99.17,0,0,1,628.77,62l9.13-3.69-.38,10.14A104.68,104.68,0,0,1,619.34,123.74Z" transform="translate(141.64 27.18)"/><path class="cls-53" d="M619.79,123.87,517.06,273.42l-35-25.82L584.78,98a99.12,99.12,0,0,1,44.45-35.91l9.13-3.69L638,68.58A104.6,104.6,0,0,1,619.79,123.87Z" transform="translate(141.64 27.18)"/><g class="cls-54"><path class="cls-55" d="M625.27,105.52c-.21-.15-.43-.29-.65-.42l-.22-.11c-.15-.08-.31-.16-.48-.23l-.26-.1a4.26,4.26,0,0,0-.47-.15l-.29-.08-.47-.09-.31,0a3.87,3.87,0,0,0-.48,0h-.32l-.47,0-.34,0-.45.1-.37.1-.08,0a6.93,6.93,0,0,0-.67.25q-4.59,2.07-9,4.59a104.9,104.9,0,0,0-34.16,31.64L542.9,189l-48.7,12.53-21.05,27.71.68.4-1.51,2,23.87,14.14,1.17.7-8.55,7.29a3,3,0,0,0,.16,4.71l1.78,1.32-1.34,2,13.33,9.83,1.35-2,4.14,3.06-5.57,8.49a1.73,1.73,0,0,0,.4,2.33,1.51,1.51,0,0,0,.26.12,2.5,2.5,0,0,0,.22.24,1.59,1.59,0,0,0,2.26-.37l5.92-8.24,3.32,2.45-1.34,2L527,289.47l1.35-2,2.15,1.59a2.83,2.83,0,0,0,4.35-1.39L538.72,277l.81.74,20.92,18.91,1.31-2.11.09.08,18.37-29.69L575.78,214l33.27-48.43a109,109,0,0,0,13-25.71,110.27,110.27,0,0,0,4.68-18.27q.84-5,1.22-10.11A6.71,6.71,0,0,0,625.27,105.52Z" transform="translate(141.64 27.18)"/></g><polygon class="cls-56" points="653.43 278.98 608.61 255.28 630.49 225.19 699.55 207.42 653.43 278.98"/><polygon class="cls-57" points="654.29 280.02 610.3 253.95 629.66 227.57 700.41 208.47 654.29 280.02"/><polygon class="cls-58" points="659.95 283.71 696.74 320.28 716.5 288.56 710.1 215.12 659.95 283.71"/><polygon class="cls-59" points="652.6 281.36 632.47 269.42 608.61 255.28 629.66 227.57 665.37 218.38 698.73 209.8 652.6 281.36"/><polygon class="cls-60" points="632.47 269.42 608.61 255.28 629.66 227.57 665.37 218.38 632.47 269.42"/><polygon class="cls-61" points="696.74 320.28 675.82 301.37 658.55 285.75 708.7 217.16 711.76 252.22 715.11 290.6 696.74 320.28"/><polygon class="cls-62" points="696.74 320.28 675.82 301.37 711.76 252.22 715.11 290.6 696.74 320.28"/><path class="cls-63" d="M603.7,162.07,530.49,268.64l-33.23-24.51,73.21-106.57a105,105,0,0,1,34.16-31.64q4.36-2.51,9-4.58a7.07,7.07,0,0,1,.67-.26,6.19,6.19,0,0,1,5.66,1,6.71,6.71,0,0,1,2.69,6q-.37,5.1-1.22,10.11a110.41,110.41,0,0,1-4.68,18.26A108.86,108.86,0,0,1,603.7,162.07Z" transform="translate(141.64 27.18)"/><path class="cls-58" d="M595.33,155.9l-73.2,106.57-24.87-18.34,73.21-106.57a105,105,0,0,1,34.16-31.64q4.36-2.51,9-4.58a7.07,7.07,0,0,1,.67-.26c0,.25,0,.49,0,.74-.26,3.4-.66,6.77-1.23,10.11a109.43,109.43,0,0,1-4.68,18.26A108.11,108.11,0,0,1,595.33,155.9Z" transform="translate(141.64 27.18)"/><path class="cls-64" d="M596.27,156.47,523.07,263,498.2,244.7l73.21-106.57a105,105,0,0,1,34.16-31.64c2.91-1.67,5.9-3.21,9-4.59a6.93,6.93,0,0,1,.67-.25c0,.24,0,.48,0,.73-.26,3.4-.66,6.77-1.23,10.11a109.74,109.74,0,0,1-17.69,44Z" transform="translate(141.64 27.18)"/><path class="cls-65" d="M525.18,285.6l-41.56-30.66a3,3,0,0,1-.16-4.71l28.95-24.67a11.21,11.21,0,0,1,14-.5l12,8.87a12.18,12.18,0,0,1,4.12,13.86l-13,36.42A2.83,2.83,0,0,1,525.18,285.6Z" transform="translate(141.64 27.18)"/><path class="cls-66" d="M541,249.59l-12.77,35.75a2.78,2.78,0,0,1-4.27,1.38l-18.69-13.79-3-2.19-19.14-14.13A3,3,0,0,1,483,252l28.42-24.23a11,11,0,0,1,13.73-.48l3.81,2.81,4.64,3.42L537,236A12,12,0,0,1,541,249.59Z" transform="translate(141.64 27.18)"/><polygon class="cls-67" points="637.64 296.15 624.3 286.32 625.65 284.35 638.99 294.19 637.64 296.15"/><polygon class="cls-67" points="661.93 314.07 648.59 304.23 649.94 302.27 663.28 312.11 661.93 314.07"/><path class="cls-68" d="M605.25,139.26a1.55,1.55,0,0,1-.62-1,11.79,11.79,0,0,0-13.5-9.95,1.53,1.53,0,0,1-1.76-1.3,1.57,1.57,0,0,1,1.26-1.82,14.84,14.84,0,0,1,17,12.55,1.57,1.57,0,0,1-1.25,1.82A1.43,1.43,0,0,1,605.25,139.26Z" transform="translate(141.64 27.18)"/><path class="cls-69" d="M621.39,118.1c-2.37-6.85-7.73-11-16.76-12.18q4.36-2.51,9-4.58a6.23,6.23,0,0,1,6.33.69,6.71,6.71,0,0,1,2.69,6Q622.24,113.09,621.39,118.1Z" transform="translate(141.64 27.18)"/><path class="cls-70" d="M534.79,231.86l-1.19,1.65-28.33,39.42-3-2.19L529,230.09l1.11-1.71C532.64,228.34,534,229.73,534.79,231.86Z" transform="translate(141.64 27.18)"/><path class="cls-71" d="M529.12,227.45c2.57,0,4,1.35,4.71,3.48L499,279.46a1.59,1.59,0,0,1-2.26.37h0a1.72,1.72,0,0,1-.4-2.33Z" transform="translate(141.64 27.18)"/><g class="cls-5"><path class="cls-72" d="M218.5,432.94a9.18,9.18,0,1,1-9.17-9.51A9.34,9.34,0,0,1,218.5,432.94Z" transform="translate(141.64 27.18)"/><path class="cls-73" d="M289,261.47a9.18,9.18,0,1,1-9.17-9.51A9.35,9.35,0,0,1,289,261.47Z" transform="translate(141.64 27.18)"/></g></g></g></g></svg>