<svg xmlns="http://www.w3.org/2000/svg" xmlns:xlink="http://www.w3.org/1999/xlink" viewBox="0 0 266.8 266.12"><defs><style>.cls-1{isolation:isolate;}.cls-2{fill:none;stroke:#8af7f5;stroke-linecap:round;stroke-linejoin:round;}.cls-3,.cls-39,.cls-8{fill:#fff;}.cls-3,.cls-39,.cls-7{opacity:0.2;}.cls-4{fill:#4de4e8;}.cls-5,.cls-7{fill:#3a3a3a;}.cls-5{opacity:0.3;}.cls-43,.cls-5,.cls-7{mix-blend-mode:multiply;}.cls-25,.cls-6{fill:#02f5d0;}.cls-9{fill:#f7b85c;}.cls-10{fill:#ffdc79;}.cls-11{fill:#ededed;}.cls-12{fill:#076d6d;opacity:0.5;}.cls-13{fill:#ffe6a6;}.cls-14{fill:#011a5f;}.cls-15{fill:#0c3184;}.cls-16{fill:#ffa15a;}.cls-17{fill:#e0f9fe;}.cls-18,.cls-28{fill:#ff9136;}.cls-19{fill:#fdefea;}.cls-20{fill:#5cebf2;}.cls-21{fill:#0b4656;}.cls-22{fill:#063444;}.cls-23{fill:#71606e;}.cls-24{fill:#564954;}.cls-25{font-size:15.47px;}.cls-25,.cls-28{font-family:Rubik-Regular, Rubik;}.cls-26{fill:#48d7e5;}.cls-27{fill:#6d3207;}.cls-28{font-size:17.38px;}.cls-29{fill:#514745;}.cls-30{fill:url(#linear-gradient);}.cls-31{fill:#a6a8ab;}.cls-32{fill:url(#linear-gradient-2);}.cls-33{fill:url(#linear-gradient-3);}.cls-34{fill:url(#linear-gradient-4);}.cls-35{fill:#524c7c;}.cls-36{fill:url(#linear-gradient-5);}.cls-37{fill:url(#linear-gradient-6);}.cls-38{fill:url(#linear-gradient-7);}.cls-39{mix-blend-mode:overlay;}.cls-40{fill:#6c7195;}.cls-40,.cls-41,.cls-42{opacity:0.4;}.cls-42{fill:#5c5c5c;}.cls-43{fill:#9faed4;opacity:0.6;}.cls-44{fill:url(#linear-gradient-13);}</style><linearGradient id="linear-gradient" x1="63.67" y1="112.82" x2="163.46" y2="112.82" gradientTransform="translate(2.46 -2.68) rotate(1)" gradientUnits="userSpaceOnUse"><stop offset="0" stop-color="#1ab1e5"/><stop offset="0.47" stop-color="#63b8ea"/><stop offset="0.7" stop-color="#89bcec"/></linearGradient><linearGradient id="linear-gradient-2" x1="1.15" y1="194.39" x2="160.72" y2="194.39" gradientTransform="translate(4.69 -4.08) rotate(2)" xlink:href="#linear-gradient"/><linearGradient id="linear-gradient-3" x1="89.99" y1="312.81" x2="45.75" y2="101.65" gradientTransform="translate(4.69 -4.08) rotate(2)" gradientUnits="userSpaceOnUse"><stop offset="0" stop-color="#1ae5ff"/><stop offset="0.26" stop-color="#64e8f9"/><stop offset="0.7" stop-color="#eaeeee"/></linearGradient><linearGradient id="linear-gradient-4" x1="138.88" y1="136.97" x2="43.83" y2="193.69" gradientTransform="translate(2.46 -2.68) rotate(1)" xlink:href="#linear-gradient-3"/><linearGradient id="linear-gradient-5" x1="62.43" y1="113.46" x2="161.87" y2="113.46" gradientTransform="translate(2.46 -2.68) rotate(1)" xlink:href="#linear-gradient-3"/><linearGradient id="linear-gradient-6" x1="112.15" y1="84.87" x2="112.15" y2="208.74" gradientTransform="translate(2.46 -2.68) rotate(1)" xlink:href="#linear-gradient-3"/><linearGradient id="linear-gradient-7" x1="145.54" y1="196.44" x2="90.35" y2="56.63" gradientTransform="translate(2.46 -2.68) rotate(1)" gradientUnits="userSpaceOnUse"><stop offset="0" stop-color="#00ebff"/><stop offset="0.13" stop-color="#25d0f8"/><stop offset="0.57" stop-color="#997ae0"/><stop offset="0.86" stop-color="#e244d2"/><stop offset="1" stop-color="#ff2fcc"/></linearGradient><linearGradient id="linear-gradient-13" x1="112.15" y1="84.87" x2="112.15" y2="208.74" gradientTransform="translate(2.46 -2.68) rotate(1)" gradientUnits="userSpaceOnUse"><stop offset="0" stop-color="#c7edff"/><stop offset="0.7" stop-color="#eaeeee"/></linearGradient></defs><title>Asset 3</title><g class="cls-1"><g id="Layer_2" data-name="Layer 2"><g id="OBJECTS"><path class="cls-2" d="M188.36,118.66v21.66a2.33,2.33,0,0,1-3.56,2l-28.32-17.46"/><path class="cls-2" d="M206.59,66.55V93.42c0,2.27-2.73,3.66-4.85,2.47l-59-33.16c-2.71-1.51-6.19.26-6.19,3.16V92.83"/><path class="cls-2" d="M241.74,135.06v62.19a2.34,2.34,0,0,1-3.57,2l-77.82-47.76"/><line class="cls-2" x1="129.43" y1="33.67" x2="129.43" y2="83.18"/><path class="cls-2" d="M38.37,76.83V98.09a7.06,7.06,0,0,0,3.4,6l30.74,18.72"/><path class="cls-2" d="M48.62,18.36V39.62a7.06,7.06,0,0,0,3.39,6L82.76,64.38"/><path class="cls-3" d="M12.07,35.24V63.36a2.33,2.33,0,0,0,1,1.91l.08,0L22.34,71l19,11.7a.87.87,0,0,0,1,0,.91.91,0,0,0,.42-.77V54.49a2.9,2.9,0,0,0-1.36-2.44L13.14,34.64a.68.68,0,0,0-.63-.06l-.13.07A.73.73,0,0,0,12.07,35.24Z"/><path class="cls-3" d="M101.63,2.83V25.71a1.9,1.9,0,0,0,.81,1.55l.07,0L110,31.91l15.45,9.52a.72.72,0,0,0,.81,0,.76.76,0,0,0,.34-.63V18.49a2.36,2.36,0,0,0-1.1-2l-23-14.16a.52.52,0,0,0-.51,0,.21.21,0,0,0-.1.06A.57.57,0,0,0,101.63,2.83Z"/><path class="cls-3" d="M184.1,57.08V73.79a1.34,1.34,0,0,0,.59,1.13l.05,0,5.46,3.37,11.28,7a.55.55,0,0,0,.59,0,.53.53,0,0,0,.25-.46V68.52a1.7,1.7,0,0,0-.8-1.45L184.73,56.72a.41.41,0,0,0-.37,0l-.08,0A.42.42,0,0,0,184.1,57.08Z"/><path class="cls-3" d="M188.59,98.57v23a1.89,1.89,0,0,0,.82,1.56l.06,0,7.52,4.64,15.53,9.57a.74.74,0,0,0,.82,0,.77.77,0,0,0,.34-.63V114.32a2.38,2.38,0,0,0-1.11-2L189.46,98.07a.55.55,0,0,0-.51,0,.3.3,0,0,0-.11.06A.59.59,0,0,0,188.59,98.57Z"/><path class="cls-3" d="M208.05,146v15.83a1.27,1.27,0,0,0,.56,1.07.09.09,0,0,0,0,0l5.17,3.19,10.69,6.59a.5.5,0,0,0,.55,0,.52.52,0,0,0,.24-.43V156.83a1.64,1.64,0,0,0-.76-1.38l-15.9-9.8a.42.42,0,0,0-.36,0l-.07,0A.4.4,0,0,0,208.05,146Z"/><path class="cls-3" d="M243.64,110.71V132a1.74,1.74,0,0,0,.75,1.44l.06,0,6.94,4.28,14.34,8.83a.66.66,0,0,0,.75,0,.68.68,0,0,0,.32-.58v-20.7a2.2,2.2,0,0,0-1-1.85l-21.34-13.15a.55.55,0,0,0-.48,0l-.09.05A.54.54,0,0,0,243.64,110.71Z"/><path class="cls-4" d="M234.09,115.66v17.23a1.42,1.42,0,0,0,.6,1.16s0,0,.06,0l5.63,3.48L252,144.72a.53.53,0,0,0,.6,0l2.28-1.4a.67.67,0,0,0,.33-.58V126.08a1.86,1.86,0,0,0-.89-1.59L237.24,114a.69.69,0,0,0-.72,0l-2.17,1.32-.08,0A.44.44,0,0,0,234.09,115.66Z"/><path class="cls-5" d="M234.09,115.66v17.23a1.42,1.42,0,0,0,.6,1.16s0,0,.06,0l5.63,3.48L252,144.72a.53.53,0,0,0,.6,0l2.28-1.4a.67.67,0,0,0,.33-.58V126.08a1.86,1.86,0,0,0-.89-1.59L237.24,114a.69.69,0,0,0-.72,0l-2.17,1.32-.08,0A.44.44,0,0,0,234.09,115.66Z"/><path class="cls-4" d="M234.09,115.66v17.23a1.42,1.42,0,0,0,.6,1.16s0,0,.06,0l5.63,3.48L252,144.72a.53.53,0,0,0,.6,0,.54.54,0,0,0,.26-.47V127.45A1.79,1.79,0,0,0,252,126l-17.3-10.66a.42.42,0,0,0-.39,0l-.08,0A.44.44,0,0,0,234.09,115.66Z"/><path class="cls-6" d="M197.71,57.74V75a1.42,1.42,0,0,0,.6,1.17l.06,0L204,79.63l11.63,7.17a.53.53,0,0,0,.6,0l2.28-1.41a.65.65,0,0,0,.33-.57V68.16a1.86,1.86,0,0,0-.89-1.59L200.86,56a.71.71,0,0,0-.72,0L198,57.34a.2.2,0,0,0-.08,0A.43.43,0,0,0,197.71,57.74Z"/><path class="cls-7" d="M197.71,57.74V75a1.42,1.42,0,0,0,.6,1.17l.06,0L204,79.63l11.63,7.17a.53.53,0,0,0,.6,0l2.28-1.41a.65.65,0,0,0,.33-.57V68.16a1.86,1.86,0,0,0-.89-1.59L200.86,56a.71.71,0,0,0-.72,0L198,57.34a.2.2,0,0,0-.08,0A.43.43,0,0,0,197.71,57.74Z"/><path class="cls-6" d="M197.71,57.74V75a1.42,1.42,0,0,0,.6,1.17l.06,0L204,79.63l11.63,7.17a.53.53,0,0,0,.6,0,.56.56,0,0,0,.26-.47V69.53a1.79,1.79,0,0,0-.83-1.5l-17.3-10.66a.39.39,0,0,0-.39,0,.2.2,0,0,0-.08,0A.43.43,0,0,0,197.71,57.74Z"/><path class="cls-8" d="M210.21,75.48a1.92,1.92,0,0,0,1.71,1.64,1.27,1.27,0,0,0,1.13-1.64,1.92,1.92,0,0,0-1.71-1.64A1.26,1.26,0,0,0,210.21,75.48Z"/><path class="cls-8" d="M205.17,72.65a1.92,1.92,0,0,0,1.71,1.64A1.27,1.27,0,0,0,208,72.65,1.92,1.92,0,0,0,206.3,71,1.26,1.26,0,0,0,205.17,72.65Z"/><path class="cls-8" d="M200.13,69.82a1.91,1.91,0,0,0,1.71,1.64A1.26,1.26,0,0,0,203,69.82a1.93,1.93,0,0,0-1.71-1.64A1.26,1.26,0,0,0,200.13,69.82Z"/><path class="cls-9" d="M179.38,104.36v17.23a1.4,1.4,0,0,0,.6,1.16l.06,0,5.63,3.47,11.63,7.16a.53.53,0,0,0,.6,0l2.28-1.4a.66.66,0,0,0,.33-.58V114.78a1.86,1.86,0,0,0-.89-1.59l-17.09-10.54a.69.69,0,0,0-.72,0L179.64,104l-.08,0A.44.44,0,0,0,179.38,104.36Z"/><path class="cls-10" d="M179.38,104.36v17.23a1.4,1.4,0,0,0,.6,1.16l.06,0,5.63,3.47,11.63,7.16a.53.53,0,0,0,.6,0,.54.54,0,0,0,.26-.47V116.15a1.81,1.81,0,0,0-.83-1.5L180,104a.45.45,0,0,0-.39,0l-.08,0A.44.44,0,0,0,179.38,104.36Z"/><polygon class="cls-8" points="182.73 111.22 182.73 112.42 188.32 118.97 193.91 119.4 193.91 118.21 182.73 111.22"/><polygon class="cls-8" points="188.32 119.67 182.73 113.12 182.73 119.23 193.91 126.21 193.91 120.09 188.32 119.67"/><path class="cls-9" d="M37.27,6.09V24.36a1.48,1.48,0,0,0,.64,1.23l.06,0L48.49,32l12.33,7.59a.57.57,0,0,0,.64,0l2.42-1.49a.72.72,0,0,0,.35-.61V19.86a2,2,0,0,0-1-1.69L40.61,4.27a.74.74,0,0,0-.76,0l-2.3,1.4a.12.12,0,0,0-.08,0A.46.46,0,0,0,37.27,6.09Z"/><path class="cls-10" d="M37.26,6.09V24.36a1.49,1.49,0,0,0,.65,1.23l.05,0,22.86,14a.57.57,0,0,0,.64,0,.62.62,0,0,0,.27-.5V21.31a1.89,1.89,0,0,0-.88-1.59L38,5.7a.43.43,0,0,0-.41,0l-.08,0A.46.46,0,0,0,37.26,6.09Z"/><path class="cls-11" d="M44.58,5.26V8.72A.29.29,0,0,0,44.7,9h0l7.4,4.58L54.45,15a.11.11,0,0,0,.12,0L55,14.7a.14.14,0,0,0,.06-.12V11.24a.37.37,0,0,0-.18-.33l-9.7-6a.14.14,0,0,0-.14,0l-.44.27h0A.07.07,0,0,0,44.58,5.26Z"/><path class="cls-8" d="M44.58,5.26V8.72A.29.29,0,0,0,44.7,9h0l9.74,6a.11.11,0,0,0,.17-.09V11.51a.34.34,0,0,0-.17-.3l-9.74-6a.08.08,0,0,0-.08,0h0A.07.07,0,0,0,44.58,5.26Z"/><path class="cls-11" d="M38.72,2.26h0L39.17,2a.16.16,0,0,1,.15,0L49,8a.37.37,0,0,1,.18.32v3.56l-.47.3V12l-.06,0a.09.09,0,0,1-.12,0l-2.34-1.44L38.81,6h0a.3.3,0,0,1-.12-.24V2.33A.08.08,0,0,1,38.72,2.26Z"/><path class="cls-9" d="M54.88,10l2.38-1.38h0a.6.6,0,0,1,.63,0L63.19,12a2.24,2.24,0,0,1,1,1.89v7L57,16.27V12.65l-.18.34s-.87.26-.94.26-1.37.82-1.37.82V10.9Z"/><path class="cls-10" d="M55.4,10l5.3,3.36a2.24,2.24,0,0,1,1,1.88v7l-7.25-4.6V10.55A.6.6,0,0,1,55.4,10Z"/><path class="cls-8" d="M38.72,2.26h0a.06.06,0,0,1,.07,0l9.75,6a.38.38,0,0,1,.17.3v3.59L38.68,6V2.33A.08.08,0,0,1,38.72,2.26Z"/><path class="cls-12" d="M231.71,232.67l4.58-1.57a.76.76,0,0,1,.9,1.12l-1.41,2.36a3.39,3.39,0,0,1-1.17,1.18L200.4,256.35a4.33,4.33,0,0,1-4.56,0h0a1.28,1.28,0,0,1,0-2.18L231.06,233A3.83,3.83,0,0,1,231.71,232.67Z"/><path class="cls-10" d="M232.33,229.42l.4.78,1.5,3,4.05-4.55a.14.14,0,0,0,0-.22.11.11,0,0,0-.11,0Z"/><path class="cls-13" d="M232.33,229.42l.4.78,1.28-.06,4.23-1.76a.11.11,0,0,0-.11,0Z"/><path class="cls-14" d="M196.31,251l.58,1.08,1.5,2.78,35.32-21.26h0a1.2,1.2,0,0,0,.27-.16,1.76,1.76,0,0,0,.53-.7,2.48,2.48,0,0,0-.08-1.9,2.27,2.27,0,0,0-.42-.65h0a2,2,0,0,0-1.63-.73,1.63,1.63,0,0,0-.48.13l-.08,0-.1.06,0,0,0,0Z"/><path class="cls-15" d="M196.31,251l.58,1.08,1.55-.45L234,230.15h0a2,2,0,0,0-1.63-.73,1.63,1.63,0,0,0-.48.13l-.08,0-.1.06,0,0,0,0Z"/><path class="cls-16" d="M195.59,253.72a2,2,0,0,0,2.53,1.26h0a1.75,1.75,0,0,0,.27-.16,1.65,1.65,0,0,0,.52-.7,2.43,2.43,0,0,0-.07-1.9,2.17,2.17,0,0,0-2.05-1.39,1.32,1.32,0,0,0-.48.13l-.08,0-.1.06,0,0A2.14,2.14,0,0,0,195.59,253.72Z"/><path class="cls-17" d="M202.32,247.35l-3,1.81,0,0a1.43,1.43,0,0,1,.45-.12,2,2,0,0,1,1.64.76,2.08,2.08,0,0,1,.41.63,2.45,2.45,0,0,1,.07,1.91,1.67,1.67,0,0,1-.35.55.75.75,0,0,1-.14.12l2.87-1.71.18-.11a1.74,1.74,0,0,0,.52-.7,2.43,2.43,0,0,0-.08-1.9,2.13,2.13,0,0,0-.41-.64,2,2,0,0,0-1.64-.75,1.72,1.72,0,0,0-.48.13Z"/><path class="cls-8" d="M199.24,249.2s0,0,.07,0h0Z"/><path class="cls-18" d="M196.28,251a1.31,1.31,0,0,1,.48-.12,1.91,1.91,0,0,1,1.63.74,2.66,2.66,0,0,1,.41.65,2.36,2.36,0,0,1,.08,1.89,1.71,1.71,0,0,1-.53.71l2.9-1.74a1.06,1.06,0,0,0,.18-.12.75.75,0,0,0,.14-.12,1.65,1.65,0,0,0,.39-.57,2.5,2.5,0,0,0-.08-1.91,2.77,2.77,0,0,0-.4-.64,2,2,0,0,0-1.65-.74,1.15,1.15,0,0,0-.48.13l0,0h0l0,0Z"/><path class="cls-12" d="M241.3,238.2l4.57-1.57a.77.77,0,0,1,.91,1.12l-1.41,2.37a3.51,3.51,0,0,1-1.18,1.18L210,261.88a4.33,4.33,0,0,1-4.57,0h0a1.28,1.28,0,0,1,.06-2.17l35.17-21.16A3,3,0,0,1,241.3,238.2Z"/><path class="cls-10" d="M241.92,235l.39.78,1.51,3,4-4.55a.14.14,0,0,0,0-.22.11.11,0,0,0-.11,0Z"/><path class="cls-13" d="M241.92,235l.39.78,1.29-.06,4.23-1.75a.11.11,0,0,0-.11,0Z"/><path class="cls-14" d="M205.9,256.49l.58,1.08,1.49,2.78,35.32-21.25h0a1,1,0,0,0,.26-.16,1.49,1.49,0,0,0,.53-.7,2.39,2.39,0,0,0-.08-1.9,2.87,2.87,0,0,0-.41-.65h0A2,2,0,0,0,242,235a1.31,1.31,0,0,0-.47.12l-.08,0-.1.06,0,0,0,0Z"/><path class="cls-15" d="M205.9,256.49l.58,1.08,1.55-.45,35.57-21.43h0A2,2,0,0,0,242,235a1.31,1.31,0,0,0-.47.12l-.08,0-.1.06,0,0,0,0Z"/><path class="cls-16" d="M205.18,259.25a2,2,0,0,0,2.52,1.26h0a1.2,1.2,0,0,0,.27-.16,1.6,1.6,0,0,0,.53-.7,2.43,2.43,0,0,0-.08-1.9,2.15,2.15,0,0,0-2-1.39,1.72,1.72,0,0,0-.48.13l-.07,0-.11.06,0,0A2.13,2.13,0,0,0,205.18,259.25Z"/><path class="cls-17" d="M211.9,252.88l-3,1.81,0,0a1.36,1.36,0,0,1,.44-.11,2,2,0,0,1,1.65.75,2.44,2.44,0,0,1,.41.63,2.5,2.5,0,0,1,.07,1.91,1.59,1.59,0,0,1-.36.55.58.58,0,0,1-.14.13l2.87-1.71.18-.12a1.62,1.62,0,0,0,.52-.69,2.41,2.41,0,0,0-.08-1.91,2.31,2.31,0,0,0-.4-.64,2,2,0,0,0-1.64-.75,1.39,1.39,0,0,0-.48.14S211.93,252.87,211.9,252.88Z"/><path class="cls-8" d="M208.83,254.73l.07,0,0,0Z"/><path class="cls-18" d="M205.86,256.52a1.19,1.19,0,0,1,.48-.13,1.93,1.93,0,0,1,1.63.74,2.56,2.56,0,0,1,.5,2.55,1.76,1.76,0,0,1-.53.7l2.89-1.74a.84.84,0,0,0,.18-.11.58.58,0,0,0,.14-.13,1.45,1.45,0,0,0,.39-.57,2.43,2.43,0,0,0-.08-1.9,2.57,2.57,0,0,0-.4-.64,2,2,0,0,0-1.64-.75,1.48,1.48,0,0,0-.48.13l0,0h0l0,0,0,0Z"/><path class="cls-8" d="M249.2,133.3a1.8,1.8,0,0,0-1.9,0,2.6,2.6,0,0,0,.24-1.14,7.66,7.66,0,0,0-3.67-5.85c-2-1.17-3.64-.52-3.7,1.44a3.25,3.25,0,0,0-1.55-1.89,1.48,1.48,0,0,0-2.32,1.27,4.18,4.18,0,0,0,2,3.71l10.41,6.08c1,.57,1.75.2,1.95-.74A3,3,0,0,0,249.2,133.3Z"/><path class="cls-19" d="M205.44,228.81a3.47,3.47,0,0,1-1.39,1.51L199.49,233h0l-.44.25,2.3-2h0Z"/><path class="cls-12" d="M224,226.53l-4.57,2.73h0l-34.55,20.47a7.23,7.23,0,0,1-1.55.66,6.92,6.92,0,0,1-5.81-.73l-46.94-29.53a3.45,3.45,0,0,1-1.43-4,3.49,3.49,0,0,1,1.59-2l32.66-19.82,6.19-3.69a6.16,6.16,0,0,1,6.31.05l48.32,29.9A3.5,3.5,0,0,1,224,226.53Z"/><path class="cls-20" d="M225.78,220.88v0a4.57,4.57,0,0,1-.43.65.74.74,0,0,1-.16.2,4.09,4.09,0,0,1-.78.62l-4.54,2.7,0,0-34.56,20.47a6.83,6.83,0,0,1-1.52.67v0h0a10.47,10.47,0,0,1-1.42.28h-.11a8,8,0,0,1-1.39,0h-.07a7.8,7.8,0,0,1-1.35-.32l-.24-.07a8,8,0,0,1-1.24-.62L131,216a3.37,3.37,0,0,1-.82-.72L130,215a3.36,3.36,0,0,1-.37-.67,1.72,1.72,0,0,1-.11-.29,3.8,3.8,0,0,1-.13-.81l0-1.26h0l.05-2,1.54.06a1.25,1.25,0,0,1,.12-.08l32.59-19.81,3.7-2.21.18-.09,2.31-1.4a6.11,6.11,0,0,1,6.31.06l13.44,8.38,2.17-1.3a2.25,2.25,0,0,1,2.38,0L210.91,204l1.37.85a1.28,1.28,0,0,1,.62.95v.32a1.38,1.38,0,0,1-.66,1l-1.52.91,2.15,1.34,8.65,5.12,3.1,1.94A3.46,3.46,0,0,1,225.78,220.88Z"/><path class="cls-21" d="M183.82,243.78l-.07,2.47h0a10.47,10.47,0,0,1-1.42.28h-.11a8,8,0,0,1-1.39,0h-.07a7.8,7.8,0,0,1-1.35-.32l-.24-.07a8,8,0,0,1-1.24-.62L131,216a3.37,3.37,0,0,1-.82-.72L130,215a3.36,3.36,0,0,1-.37-.67,1.72,1.72,0,0,1-.11-.29,3.8,3.8,0,0,1-.13-.81l0-1.26h0l0-1.42.7.23Z"/><path class="cls-6" d="M212.92,203.72l0,2.41a1.38,1.38,0,0,1-.66,1l-1.52.91,2.15,1.34.4,3.6s-3.68-6.27-3.68-6.52l0-2.25,1.3-.18Z"/><path class="cls-7" d="M212.92,203.72l0,2.41a1.38,1.38,0,0,1-.66,1l-1.52.91,2.15,1.34.4,3.6s-3.68-6.27-3.68-6.52l0-2.25,1.3-.18Z"/><path class="cls-21" d="M226.23,216.64l-2-.49-2.66-1.67-.2,1-9.11-2.18-19.36-.77c0,1.5-.1,3-.14,4.5l27.93,1.87-.75,3.76-.06,2.44,0,0,4.54-2.7a3.8,3.8,0,0,0,.78-.62,1.27,1.27,0,0,0,.16-.2,3.79,3.79,0,0,0,.42-.65v0a3.56,3.56,0,0,0,.37-1.62h0Z"/><path class="cls-6" d="M212.26,204.65l-1.69,1h0l-21-13.14,2.32-1.39a2.29,2.29,0,0,1,2.38,0l18.06,11.25A1.32,1.32,0,0,1,212.26,204.65Z"/><path class="cls-17" d="M224.47,219.92l-4.56,2.73h0l-34.56,20.46a7.2,7.2,0,0,1-7.35-.06L131,213.51c-1.43-.9-2.38-2.57-1.93-4a3.47,3.47,0,0,1,1.55-2l33.09-19.81,6.18-3.7a6.16,6.16,0,0,1,6.31.06L224.68,214A3.5,3.5,0,0,1,224.47,219.92Z"/><path class="cls-22" d="M183.79,243.78a7.11,7.11,0,0,1-5.89-.62L131,213.55a3.78,3.78,0,0,1-1.85-4.05c1.46,1,3.2,1.85,3.78,2.23l47,29.54C180.61,241.75,182.07,242.74,183.79,243.78Z"/><path class="cls-22" d="M224.47,219.92l-4.56,2.73h0l-56.14-34.94,3.7-2.21,1.08-.64,1.4-.84a6.13,6.13,0,0,1,6.31,0L224.67,214A3.5,3.5,0,0,1,224.47,219.92Z"/><circle class="cls-23" cx="166.29" cy="193.83" r="0.26"/><path class="cls-23" d="M207.35,219a.27.27,0,0,1-.27.26.26.26,0,0,1-.26-.26.28.28,0,0,1,.27-.26A.26.26,0,0,1,207.35,219Z"/><path class="cls-23" d="M141,209.14a.26.26,0,0,1-.52,0,.26.26,0,1,1,.52,0Z"/><ellipse class="cls-23" cx="181.29" cy="234.33" rx="0.26" ry="0.26" transform="translate(-112.43 195.54) rotate(-44.75)"/><polygon class="cls-24" points="174.29 188.52 173.6 188.93 167.81 185.31 168.5 184.9 174.29 188.52"/><polygon class="cls-17" points="174.28 188.51 173.59 188.93 171.21 187.44 171.9 187.02 174.28 188.51"/><polygon class="cls-24" points="217.11 217.28 217.8 216.87 223.53 220.48 222.83 220.89 217.11 217.28"/><polygon class="cls-17" points="217.11 217.28 217.81 216.86 220.17 218.35 219.47 218.78 217.11 217.28"/><path class="cls-6" d="M25.54,58.6V84.15a2.1,2.1,0,0,0,.9,1.73l.08.05,8.35,5.15,17.25,10.63a.8.8,0,0,0,.9,0l3.39-2.08a1,1,0,0,0,.48-.85V74.06a2.77,2.77,0,0,0-1.32-2.37L30.22,56.05a1.05,1.05,0,0,0-1.07,0l-3.22,2a.6.6,0,0,0-.11.06A.65.65,0,0,0,25.54,58.6Z"/><path class="cls-7" d="M25.54,58.6V84.15a2.1,2.1,0,0,0,.9,1.73l.08.05,8.35,5.15,17.25,10.63a.8.8,0,0,0,.9,0l3.39-2.08a1,1,0,0,0,.48-.85V74.06a2.77,2.77,0,0,0-1.32-2.37L30.22,56.05a1.05,1.05,0,0,0-1.07,0l-3.22,2a.6.6,0,0,0-.11.06A.65.65,0,0,0,25.54,58.6Z"/><path class="cls-6" d="M25.54,58.6V84.15a2.1,2.1,0,0,0,.9,1.73l.08.05,8.35,5.15,17.25,10.63a.8.8,0,0,0,.9,0,.82.82,0,0,0,.38-.69V76.09a2.67,2.67,0,0,0-1.23-2.23L26.5,58.05a.59.59,0,0,0-.57,0,.6.6,0,0,0-.11.06A.65.65,0,0,0,25.54,58.6Z"/><path class="cls-22" d="M27.62,84.26l0,0,0-21.68a.85.85,0,0,1,1.29-.72L51.12,75.57a.62.62,0,0,1,.29.52V97.4a.85.85,0,0,1-1.29.72Z"/><text class="cls-25" transform="matrix(0.99, 0.61, -0.02, 1, 29.12, 80.46)">PS</text><path class="cls-12" d="M150,242.33l-27.2-17.11a1.39,1.39,0,0,0-1.46,0l-.69.41-5-3a1.32,1.32,0,0,0-1.37,0l-7,4.17a.64.64,0,0,0,0,1.09l4.52,2.81-.94.57a.52.52,0,0,0,0,.89l27.62,17.31a1.22,1.22,0,0,0,1.29,0l10.13-6A.69.69,0,0,0,150,242.33Z"/><polygon class="cls-18" points="148.84 237.43 148.74 241.03 142.62 240.73 146.13 239.18 146.11 237.74 146.99 237.39 148.84 237.43"/><polygon class="cls-7" points="148.84 237.43 148.74 241.03 142.62 240.73 146.13 239.18 146.11 237.74 146.99 237.39 148.84 237.43"/><path class="cls-26" d="M110.91,225.73l6.41-3.67a1.17,1.17,0,0,1,1.21,0l18.07,11.37-7.61,4.5L110.9,226.69A.57.57,0,0,1,110.91,225.73Z"/><path class="cls-18" d="M114.05,230.79l9.18-5.36a1.22,1.22,0,0,1,1.29,0l23.94,15.06a.62.62,0,0,1,0,1.05l-8.93,5.28a1.09,1.09,0,0,1-1.13,0L114,231.57A.45.45,0,0,1,114.05,230.79Z"/><path class="cls-7" d="M114.05,230.79l9.18-5.36a1.22,1.22,0,0,1,1.29,0l23.94,15.06a.62.62,0,0,1,0,1.05l-8.93,5.28a1.09,1.09,0,0,1-1.13,0L114,231.57A.45.45,0,0,1,114.05,230.79Z"/><polygon class="cls-18" points="113.85 227.68 113.82 231.2 115.57 230.12 116.61 229.31 116.86 228.33 116.3 227.7 113.85 227.68"/><polygon class="cls-7" points="113.85 227.68 113.82 231.2 115.57 230.12 116.61 229.31 116.86 228.33 116.3 227.7 113.85 227.68"/><path class="cls-26" d="M110.66,223.78l0,2.4s2,.31,2.1.31.24-.21.24-.79a10.34,10.34,0,0,0-.22-1.67l-.41-.24Z"/><path class="cls-17" d="M110.93,223.3l6.46-3.67a1.15,1.15,0,0,1,1.2,0L136.66,231l-7.6,4.5-18.14-11.25A.57.57,0,0,1,110.93,223.3Z"/><polygon class="cls-18" points="115.63 224.06 114.81 224.56 113.63 223.81 114.45 223.32 115.63 224.06"/><polygon class="cls-18" points="119.25 222.02 118.42 222.51 117.25 221.77 118.08 221.28 119.25 222.02"/><path class="cls-18" d="M114.08,227.23l9.24-5.36a1.25,1.25,0,0,1,1.29,0l24,15.07a.61.61,0,0,1,0,1l-8.92,5.28a1.07,1.07,0,0,1-1.13,0L114.07,228A.46.46,0,0,1,114.08,227.23Z"/><path class="cls-18" d="M117.3,2.63v25a2,2,0,0,0,.89,1.69l.07.05,8.16,5,16.84,10.38a.78.78,0,0,0,.88,0l3.3-2a1,1,0,0,0,.47-.83V17.73a2.67,2.67,0,0,0-1.29-2.31L121.87.15a1,1,0,0,0-1,0l-3.14,1.91a.39.39,0,0,0-.11.06A.64.64,0,0,0,117.3,2.63Z"/><path class="cls-7" d="M117.3,2.63v25a2,2,0,0,0,.89,1.69l.07.05,8.16,5,16.84,10.38a.78.78,0,0,0,.88,0l3.3-2a1,1,0,0,0,.47-.83V17.73a2.67,2.67,0,0,0-1.29-2.31L121.87.15a1,1,0,0,0-1,0l-3.14,1.91a.39.39,0,0,0-.11.06A.64.64,0,0,0,117.3,2.63Z"/><path class="cls-18" d="M117.3,2.63v25a2,2,0,0,0,.89,1.69l.07.05,8.16,5,16.84,10.38a.78.78,0,0,0,.88,0,.8.8,0,0,0,.37-.68V19.71a2.58,2.58,0,0,0-1.2-2.17L118.25,2.1a.63.63,0,0,0-.56-.05.39.39,0,0,0-.11.06A.64.64,0,0,0,117.3,2.63Z"/><path class="cls-27" d="M120.2,26.64V8.23a.85.85,0,0,1,1.3-.73l19.71,12.15a.87.87,0,0,1,.41.72V38.79a.85.85,0,0,1-1.3.72L120.6,27.36A.83.83,0,0,1,120.2,26.64Z"/><text class="cls-28" transform="matrix(1, 0.62, 0, 1, 122.93, 24.63)">Ai</text><path class="cls-12" d="M175.35,260.08a.91.91,0,0,0-.48-.68l-10.07-6.33-5.07-3.23a1.26,1.26,0,0,0-1.22,0l-7.7,4.59a1.16,1.16,0,0,0-.62,1v0a1.12,1.12,0,0,0,.52,1l1.82,1.15,2.38,1.49,5,3.19,5.94,3.75a1.29,1.29,0,0,0,1.22,0l2.47-1.45,3.41-2.07,1.87-1.11a1,1,0,0,0,.52-.84v-.42Z"/><path class="cls-29" d="M173.76,255.1V255S173.79,255.07,173.76,255.1Z"/><path class="cls-4" d="M173.76,255V255l0-.05Z"/><path class="cls-4" d="M173.75,255.31l-.09,3.76h0a.89.89,0,0,1-.41.58l-6.67,4a1.09,1.09,0,0,1-1,0l-9.49-6c.05-.65.07-1.27.08-1.88l0-1.7,4.33,2.75,5.12,3.22a1.09,1.09,0,0,0,1,0l2.12-1.24,2.94-1.79,1.61-.95A.89.89,0,0,0,173.75,255.31Z"/><path class="cls-29" d="M173.73,255l-8.58-2.06-3.44-2.19-1.53-1a.94.94,0,0,0-1.05,0l-2.86,1.71-4.21-.54-.1,3.86H152a.82.82,0,0,0,.38.59l3.59,2.27,9.48,6a1,1,0,0,0,.79.11,1.48,1.48,0,0,0,.27-.1l6.67-4a1.39,1.39,0,0,0,.25-.23.71.71,0,0,0,.16-.35h0V259s0-.06,0-.08v-.22l.1-3.76Z"/><path class="cls-7" d="M173.73,255l-8.58-2.06-3.44-2.19-1.53-1a.94.94,0,0,0-1.05,0l-2.86,1.71-4.21-.54-.1,3.86H152a.82.82,0,0,0,.38.59l3.59,2.27,9.48,6a1,1,0,0,0,.79.11,1.48,1.48,0,0,0,.27-.1l6.67-4a1.39,1.39,0,0,0,.25-.23.71.71,0,0,0,.16-.35h0V259s0-.06,0-.08v-.22l.1-3.76Z"/><path class="cls-29" d="M164.64,248.91a4.86,4.86,0,0,1-.44.29l-2.5,1.5-2,1.17-2.13,1.28c-.14.07-.69.42-1.43.89l-2.06-1.28-1.56-1a1,1,0,0,1-.45-.84v0a1,1,0,0,1,.53-.82l6.63-4a1.12,1.12,0,0,1,1.05,0Z"/><path class="cls-29" d="M173.76,255v.36a.89.89,0,0,1-.45.73l-1.61.95-2.94,1.79L166.63,260a1.09,1.09,0,0,1-1,0l-5.12-3.22L156.13,254c.74-.47,1.29-.82,1.43-.89l2.13-1.28,2-1.17,2.5-1.5a4.86,4.86,0,0,0,.44-.29l8.67,5.46a.75.75,0,0,1,.41.58Z"/><path class="cls-30" d="M161.26,174l-.4-67.42c0-3.79-1.28-5.63-3.75-7.06L67.64,48.61a2.84,2.84,0,0,0-2.39-.44h0s1.5-.88,1.64-.93h0a2.85,2.85,0,0,1,2.36.45l89.47,50.94c2.47,1.43,3.72,3.27,3.74,7.06l.41,67.42c0,1.82-.49,2.84-1.27,3.2l-1.34.76C160.89,176.61,161.27,175.63,161.26,174Z"/><polygon class="cls-31" points="159.93 177.26 159.93 177.26 159.93 177.26 159.93 177.26"/><path class="cls-32" d="M159,182.79a1.29,1.29,0,0,0,0-.34l0-3.41h0a3.44,3.44,0,0,1-1.92,2.43L97.25,215.82c-2.38,1.34-6,1.45-8,.24L1.39,165A2.4,2.4,0,0,1,0,163.1H0l0,3.65H0a2.38,2.38,0,0,0,1.38,2l87.81,51.1c2,1.2,5.61,1.09,8-.24l59.84-34.36a3.48,3.48,0,0,0,1.93-2.41h0Z"/><path class="cls-33" d="M122.29,201.46h0l-96.62-55L1.94,160.35a5.93,5.93,0,0,0-.76.53h0c-1.61,1.34-1.58,3.06.22,4.08l87.88,51.1c2,1.21,5.6,1.1,8-.24l25.33-14.19Z"/><path class="cls-34" d="M122.58,201.63,157,181.47c2.35-1.38,2.6-3.45.54-4.61l-89.46-51c-2.06-1.17-5.63-1-8,.38L25.67,146.46Z"/><path class="cls-35" d="M39.53,185.87l14.59,8.31c.39.22.4.59,0,.81l-16-9.11A1.56,1.56,0,0,1,39.53,185.87Z"/><polygon class="cls-35" points="73.99 130.45 149.64 173.52 150.66 172.92 75.01 129.85 73.99 130.45"/><path class="cls-36" d="M68.11,125.91l89.46,51c2.06,1.16,3.71.48,3.69-2.83l-.4-67.42c0-3.79-1.28-5.63-3.75-7.06L67.64,48.61c-2-1.17-3.7-.64-3.68,2.82l.4,67.43C64.39,123.26,65.86,124.64,68.11,125.91Z"/><path class="cls-37" d="M67.4,49l90,51.22a6.63,6.63,0,0,1,3,5.16l.41,69.36c0,1.9-1.33,2.67-3,1.73l-90-51.23a6.61,6.61,0,0,1-3-5.15l-.42-69.36C64.4,48.83,65.74,48.06,67.4,49Z"/><path class="cls-38" d="M157.3,167.73l-.38-63.44a.62.62,0,0,0-.31-.54l-87.79-50a.63.63,0,0,0-.93.54l.38,63.44a.63.63,0,0,0,.31.54l87.8,50A.62.62,0,0,0,157.3,167.73Z"/><path class="cls-39" d="M136.54,92.32,96,69.22,68.82,53.76a.63.63,0,0,0-.93.54l.38,63.44a.63.63,0,0,0,.31.54l12,6.82Z"/><path class="cls-40" d="M41.59,174.26l12.27-7.18a3,3,0,0,1,2.67,0l29.92,17a.81.81,0,0,1,0,1.54L74.2,192.83Z"/><g class="cls-41"><path class="cls-42" d="M57.64,184l16,9.14L67.05,197a3,3,0,0,1-2.67,0l-14.7-8.38Z"/><path class="cls-42" d="M57.13,183.7l-8,4.66L34.46,180a.81.81,0,0,1,0-1.54l6.64-3.89Z"/></g><path class="cls-43" d="M86.45,184.77l-29.92-17a2.9,2.9,0,0,0-2.66,0l-11.7,6.84-.58-.33,12.27-7.18a3,3,0,0,1,2.67,0l29.92,17c.52.29.67.72.46,1.1A1.15,1.15,0,0,0,86.45,184.77Z"/><polygon class="cls-43" points="57.65 184.66 50.26 188.98 49.68 188.65 57.64 183.99 73.69 193.13 73.11 193.46 57.65 184.66"/><path class="cls-43" d="M41.09,175.23l-6.65,3.89a1.07,1.07,0,0,0-.44.43c-.21-.37-.07-.8.44-1.1l6.64-3.89,16.05,9.14-.58.33Z"/><path class="cls-35" d="M137.25,181.57l4.48,2.55a1.16,1.16,0,0,0,1.07-.05l4.26-2.49c.31-.18.34-.46.07-.62l-4.48-2.54a1.14,1.14,0,0,0-1.06.05L137.33,181C137,181.14,137,181.42,137.25,181.57Z"/><path class="cls-35" d="M131.2,178.12l4.47,2.55a1.16,1.16,0,0,0,1.07,0l4.26-2.49c.31-.18.34-.46.07-.61L136.59,175a1.14,1.14,0,0,0-1.06.05l-4.26,2.49C131,177.69,130.92,178,131.2,178.12Z"/><path class="cls-35" d="M125.14,174.68l4.48,2.55a1.18,1.18,0,0,0,1.06-.06l4.26-2.49c.31-.18.35-.46.07-.61l-4.47-2.55a1.16,1.16,0,0,0-1.07,0l-4.26,2.49C124.9,174.24,124.87,174.52,125.14,174.68Z"/><path class="cls-35" d="M119.08,171.23l4.48,2.55a1.21,1.21,0,0,0,1.06-.05l4.26-2.5c.32-.18.35-.46.08-.61l-4.48-2.55a1.14,1.14,0,0,0-1.06.05l-4.26,2.49C118.84,170.8,118.81,171.07,119.08,171.23Z"/><path class="cls-35" d="M113,167.78l4.47,2.55a1.23,1.23,0,0,0,1.07-.05l4.26-2.5c.31-.18.34-.46.07-.61l-4.48-2.55a1.17,1.17,0,0,0-1.06,0l-4.26,2.49C112.78,167.35,112.75,167.62,113,167.78Z"/><path class="cls-35" d="M107,164.33l4.47,2.55a1.23,1.23,0,0,0,1.07,0l4.26-2.5c.31-.18.34-.46.07-.61l-4.48-2.55a1.17,1.17,0,0,0-1.06.05L107,163.71C106.73,163.9,106.69,164.17,107,164.33Z"/><path class="cls-35" d="M100.91,160.88l4.48,2.55a1.21,1.21,0,0,0,1.06-.05l4.26-2.5c.31-.18.35-.45.07-.61l-4.47-2.55a1.19,1.19,0,0,0-1.07.05L101,160.26C100.67,160.45,100.64,160.72,100.91,160.88Z"/><path class="cls-35" d="M94.85,157.43,99.33,160a1.17,1.17,0,0,0,1.06,0l4.26-2.49c.32-.19.35-.46.08-.62l-4.48-2.55a1.21,1.21,0,0,0-1.06,0l-4.26,2.5C94.61,157,94.58,157.27,94.85,157.43Z"/><path class="cls-35" d="M88.8,154l4.47,2.55a1.19,1.19,0,0,0,1.07-.05L98.6,154c.31-.19.34-.46.07-.62l-4.48-2.55a1.21,1.21,0,0,0-1.06.05l-4.26,2.5C88.55,153.55,88.52,153.83,88.8,154Z"/><path class="cls-35" d="M82.74,150.53l4.47,2.55a1.19,1.19,0,0,0,1.07-.05l4.26-2.49c.31-.19.35-.46.07-.62l-4.48-2.55a1.21,1.21,0,0,0-1.06,0l-4.26,2.5C82.5,150.1,82.46,150.38,82.74,150.53Z"/><path class="cls-35" d="M76.68,147.08l4.48,2.55a1.17,1.17,0,0,0,1.06,0l4.26-2.49c.32-.19.35-.46.07-.62l-4.47-2.55A1.23,1.23,0,0,0,81,144l-4.26,2.5C76.44,146.65,76.41,146.93,76.68,147.08Z"/><path class="cls-35" d="M70.62,143.63l4.48,2.55a1.14,1.14,0,0,0,1.06-.05l4.26-2.49c.32-.18.35-.46.08-.62L76,140.47a1.18,1.18,0,0,0-1.06.06L70.7,143C70.38,143.2,70.35,143.48,70.62,143.63Z"/><path class="cls-35" d="M64.57,140.18,69,142.73a1.16,1.16,0,0,0,1.07,0l4.26-2.49c.31-.18.34-.46.07-.62L70,137a1.14,1.14,0,0,0-1.06.05l-4.26,2.49C64.32,139.75,64.29,140,64.57,140.18Z"/><path class="cls-35" d="M55.77,135.18l7.22,4.1a1.14,1.14,0,0,0,1.06-.05l4.26-2.49c.31-.18.35-.46.07-.61L61.17,132a1.16,1.16,0,0,0-1.07,0l-4.26,2.49C55.53,134.75,55.5,135,55.77,135.18Z"/><path class="cls-35" d="M59.67,138.07l-4.48-2.55a1.14,1.14,0,0,0-1.06,0l-4.26,2.49c-.32.18-.35.46-.08.62l4.48,2.55a1.18,1.18,0,0,0,1.06-.06l4.26-2.49C59.91,138.5,59.94,138.22,59.67,138.07Z"/><path class="cls-35" d="M65.72,141.52,61.25,139a1.16,1.16,0,0,0-1.07.05l-4.26,2.49c-.31.18-.34.46-.07.62l4.48,2.54a1.14,1.14,0,0,0,1.06,0l4.26-2.49C66,142,66,141.67,65.72,141.52Z"/><path class="cls-35" d="M71.78,145l-4.48-2.54a1.14,1.14,0,0,0-1.06.05L62,145c-.31.18-.35.46-.07.61l4.47,2.55a1.16,1.16,0,0,0,1.07-.05l4.26-2.49C72,145.4,72.06,145.12,71.78,145Z"/><path class="cls-35" d="M77.84,148.41l-4.48-2.55a1.21,1.21,0,0,0-1.06,0L68,148.41c-.32.18-.35.46-.07.61l4.47,2.55a1.16,1.16,0,0,0,1.07,0L77.77,149C78.08,148.84,78.11,148.57,77.84,148.41Z"/><path class="cls-35" d="M83.9,151.86l-4.48-2.55a1.21,1.21,0,0,0-1.06.05l-4.26,2.5c-.32.18-.35.46-.08.61L78.5,155a1.14,1.14,0,0,0,1.06-.05l4.26-2.49C84.14,152.29,84.17,152,83.9,151.86Z"/><path class="cls-35" d="M90,155.31l-4.47-2.55a1.23,1.23,0,0,0-1.07.05l-4.26,2.5c-.31.18-.34.46-.07.61l4.48,2.55a1.17,1.17,0,0,0,1.06-.05l4.26-2.49C90.19,155.74,90.23,155.47,90,155.31Z"/><path class="cls-35" d="M96,158.76l-4.48-2.55a1.21,1.21,0,0,0-1.06,0l-4.26,2.5c-.31.18-.35.45-.07.61l4.47,2.55a1.19,1.19,0,0,0,1.07,0l4.26-2.49C96.25,159.19,96.28,158.92,96,158.76Z"/><path class="cls-35" d="M102.07,162.21l-4.48-2.55a1.21,1.21,0,0,0-1.06.05l-4.26,2.5c-.32.18-.35.45-.07.61l4.47,2.55a1.19,1.19,0,0,0,1.07-.05l4.26-2.49C102.31,162.64,102.34,162.37,102.07,162.21Z"/><path class="cls-35" d="M108.13,165.66l-4.48-2.55a1.17,1.17,0,0,0-1.06,0l-4.26,2.49c-.32.19-.35.46-.08.62l4.48,2.55a1.21,1.21,0,0,0,1.06,0l4.26-2.5C108.37,166.09,108.4,165.82,108.13,165.66Z"/><path class="cls-35" d="M114.18,169.11l-4.47-2.55a1.19,1.19,0,0,0-1.07.05l-4.26,2.49c-.31.19-.34.46-.07.62l4.48,2.55a1.21,1.21,0,0,0,1.06-.05l4.26-2.5C114.42,169.54,114.46,169.26,114.18,169.11Z"/><path class="cls-35" d="M120.24,172.56,115.76,170a1.17,1.17,0,0,0-1.06.05l-4.26,2.49c-.31.19-.35.46-.07.62l4.47,2.55a1.23,1.23,0,0,0,1.07-.05l4.26-2.5C120.48,173,120.51,172.71,120.24,172.56Z"/><path class="cls-35" d="M126.3,176l-4.48-2.55a1.14,1.14,0,0,0-1.06,0L116.5,176c-.32.19-.35.46-.08.62l4.48,2.55a1.23,1.23,0,0,0,1.07,0l4.26-2.5C126.54,176.44,126.57,176.16,126.3,176Z"/><path class="cls-35" d="M132.36,179.46l-4.48-2.55a1.16,1.16,0,0,0-1.07.05l-4.25,2.49c-.32.18-.35.46-.08.62l4.48,2.54a1.14,1.14,0,0,0,1.06-.05l4.26-2.49C132.6,179.89,132.63,179.61,132.36,179.46Z"/><path class="cls-35" d="M141.15,184.46l-7.21-4.1a1.16,1.16,0,0,0-1.07,0l-4.26,2.49c-.31.18-.34.46-.07.61l7.21,4.11a1.16,1.16,0,0,0,1.07-.05l4.26-2.49C141.39,184.89,141.42,184.62,141.15,184.46Z"/><path class="cls-35" d="M58.06,144.06l-8.85-5a1.14,1.14,0,0,0-1.06,0l-4.26,2.49c-.32.18-.35.46-.08.62l8.85,5a1.16,1.16,0,0,0,1.07-.05L58,144.67C58.3,144.49,58.33,144.21,58.06,144.06Z"/><path class="cls-35" d="M135.12,187.93l-8.85-5a1.14,1.14,0,0,0-1.06,0L121,185.44c-.31.18-.35.46-.07.61l8.85,5a1.14,1.14,0,0,0,1.06-.05l4.26-2.49C135.36,188.37,135.4,188.09,135.12,187.93Z"/><path class="cls-35" d="M64.12,147.5,59.64,145a1.14,1.14,0,0,0-1.06,0l-4.26,2.49c-.32.18-.35.46-.08.61l4.48,2.55a1.16,1.16,0,0,0,1.07,0l4.26-2.49C64.36,147.94,64.39,147.66,64.12,147.5Z"/><path class="cls-35" d="M70.18,151,65.7,148.4a1.2,1.2,0,0,0-1.07.06L60.37,151c-.31.18-.34.46-.07.61l4.48,2.55a1.14,1.14,0,0,0,1.06-.05l4.26-2.49C70.42,151.38,70.45,151.11,70.18,151Z"/><path class="cls-35" d="M76.23,154.4l-4.47-2.55a1.23,1.23,0,0,0-1.07.05l-4.26,2.5c-.31.18-.34.46-.07.61l4.48,2.55a1.17,1.17,0,0,0,1.06-.05L76.16,155C76.47,154.83,76.51,154.56,76.23,154.4Z"/><path class="cls-35" d="M82.29,157.85l-4.48-2.55a1.21,1.21,0,0,0-1.06,0l-4.26,2.5c-.31.18-.35.46-.07.61L76.89,161A1.19,1.19,0,0,0,78,161l4.26-2.49C82.53,158.28,82.56,158,82.29,157.85Z"/><path class="cls-35" d="M88.35,161.3l-4.48-2.55a1.21,1.21,0,0,0-1.06.05l-4.26,2.5c-.32.18-.35.45-.08.61L83,164.46a1.19,1.19,0,0,0,1.07-.05l4.26-2.49C88.59,161.73,88.62,161.46,88.35,161.3Z"/><path class="cls-35" d="M94.41,164.75l-4.48-2.55a1.23,1.23,0,0,0-1.07.05l-4.26,2.49c-.31.19-.34.46-.07.62L89,167.91a1.21,1.21,0,0,0,1.06,0l4.26-2.5C94.65,165.18,94.68,164.91,94.41,164.75Z"/><path class="cls-35" d="M100.46,168.2,96,165.65a1.19,1.19,0,0,0-1.07,0l-4.26,2.49c-.31.19-.34.46-.07.62l4.48,2.55a1.21,1.21,0,0,0,1.06-.05l4.26-2.5C100.7,168.63,100.74,168.36,100.46,168.2Z"/><path class="cls-35" d="M106.52,171.65,102,169.1a1.17,1.17,0,0,0-1.06.05l-4.26,2.49c-.31.19-.35.46-.07.62l4.47,2.55a1.23,1.23,0,0,0,1.07-.05l4.26-2.5C106.76,172.08,106.79,171.8,106.52,171.65Z"/><path class="cls-35" d="M112.58,175.1l-4.48-2.55a1.17,1.17,0,0,0-1.06,0l-4.26,2.49c-.32.19-.35.46-.08.62l4.48,2.55a1.21,1.21,0,0,0,1.06,0l4.26-2.5C112.82,175.53,112.85,175.25,112.58,175.1Z"/><path class="cls-35" d="M118.64,178.55,114.16,176a1.16,1.16,0,0,0-1.07.05l-4.26,2.49c-.31.19-.34.46-.07.62l4.48,2.55a1.21,1.21,0,0,0,1.06-.05l4.26-2.5C118.88,179,118.91,178.7,118.64,178.55Z"/><path class="cls-35" d="M124.69,182l-4.47-2.55a1.16,1.16,0,0,0-1.07.05L114.89,182c-.31.18-.34.46-.07.62l4.48,2.54a1.14,1.14,0,0,0,1.06-.05l4.26-2.49C124.93,182.43,125,182.15,124.69,182Z"/><path class="cls-35" d="M55.09,149.27l-11.86-6.75a1.14,1.14,0,0,0-1.06,0l-4.26,2.49c-.31.18-.35.46-.07.61l11.85,6.76a1.23,1.23,0,0,0,1.07-.05l4.26-2.5C55.33,149.7,55.36,149.42,55.09,149.27Z"/><path class="cls-35" d="M61.15,152.72l-4.48-2.55a1.14,1.14,0,0,0-1.06.05l-4.26,2.49c-.32.18-.35.46-.08.62l4.48,2.54a1.14,1.14,0,0,0,1.06-.05l4.26-2.49C61.39,153.15,61.42,152.87,61.15,152.72Z"/><path class="cls-35" d="M67.2,156.17l-4.47-2.55a1.16,1.16,0,0,0-1.07,0l-4.26,2.49c-.31.18-.34.46-.07.61l4.48,2.55a1.14,1.14,0,0,0,1.06,0l4.26-2.49C67.45,156.6,67.48,156.32,67.2,156.17Z"/><path class="cls-35" d="M73.26,159.61l-4.47-2.54a1.16,1.16,0,0,0-1.07.05l-4.26,2.49c-.31.18-.35.46-.07.61l4.48,2.55a1.14,1.14,0,0,0,1.06-.05l4.26-2.49C73.5,160.05,73.54,159.77,73.26,159.61Z"/><path class="cls-35" d="M79.32,163.06l-4.48-2.55a1.21,1.21,0,0,0-1.06.05l-4.26,2.5c-.32.18-.35.46-.07.61l4.47,2.55a1.16,1.16,0,0,0,1.07-.05l4.26-2.49C79.56,163.49,79.59,163.22,79.32,163.06Z"/><path class="cls-35" d="M85.38,166.51,80.9,164a1.21,1.21,0,0,0-1.06,0l-4.26,2.5c-.32.18-.35.46-.08.61L80,169.67a1.17,1.17,0,0,0,1.06,0l4.26-2.49C85.62,166.94,85.65,166.67,85.38,166.51Z"/><path class="cls-35" d="M91.43,170,87,167.41a1.23,1.23,0,0,0-1.07.05L81.63,170c-.31.18-.34.46-.07.61L86,173.12a1.17,1.17,0,0,0,1.06-.05l4.26-2.49C91.68,170.39,91.71,170.12,91.43,170Z"/><path class="cls-35" d="M97.49,173.41,93,170.86a1.21,1.21,0,0,0-1.06,0l-4.26,2.5c-.31.18-.35.45-.07.61l4.48,2.55a1.17,1.17,0,0,0,1.06,0L97.42,174C97.73,173.84,97.77,173.57,97.49,173.41Z"/><path class="cls-35" d="M103.55,176.86l-4.48-2.55a1.21,1.21,0,0,0-1.06.05l-4.26,2.49c-.32.19-.35.46-.07.62L98.15,180a1.23,1.23,0,0,0,1.07-.05l4.26-2.5C103.79,177.29,103.82,177,103.55,176.86Z"/><path class="cls-35" d="M109.61,180.31l-4.48-2.55a1.17,1.17,0,0,0-1.06.05l-4.26,2.49c-.32.19-.35.46-.08.62l4.48,2.55a1.21,1.21,0,0,0,1.06-.05l4.26-2.5C109.85,180.74,109.88,180.47,109.61,180.31Z"/><path class="cls-35" d="M115.66,183.76l-4.47-2.55a1.19,1.19,0,0,0-1.07,0l-4.26,2.49c-.31.19-.34.46-.07.62l4.48,2.55a1.21,1.21,0,0,0,1.06,0l4.26-2.5C115.91,184.19,115.94,183.91,115.66,183.76Z"/><path class="cls-35" d="M129.14,191.43l-11.9-6.77a1.17,1.17,0,0,0-1.06.05l-4.26,2.49c-.31.19-.35.46-.07.62l11.9,6.77a1.14,1.14,0,0,0,1.06-.05l4.26-2.49C129.39,191.87,129.42,191.59,129.14,191.43Z"/><path class="cls-35" d="M97.57,180.36,68.86,164a1.21,1.21,0,0,0-1.06.05l-4.26,2.5c-.31.18-.35.46-.07.61l28.7,16.35a1.23,1.23,0,0,0,1.07-.05L97.5,181C97.81,180.79,97.84,180.52,97.57,180.36Z"/><path class="cls-35" d="M59.9,158.91l-4.47-2.55a1.23,1.23,0,0,0-1.07,0l-4.26,2.5c-.31.18-.34.46-.07.61l4.48,2.55a1.17,1.17,0,0,0,1.06,0l4.26-2.49C60.15,159.34,60.18,159.07,59.9,158.91Z"/><path class="cls-35" d="M67.28,163.11l-5.8-3.3a1.21,1.21,0,0,0-1.06.05l-4.26,2.5c-.31.18-.35.45-.07.61l5.8,3.3a1.14,1.14,0,0,0,1.06-.05l4.26-2.49C67.52,163.54,67.56,163.27,67.28,163.11Z"/><path class="cls-35" d="M106.53,185.46,111,188c.27.16.24.43-.07.62l-4.26,2.49a1.19,1.19,0,0,1-1.07,0l-4.48-2.55c-.27-.16-.24-.43.08-.61l4.26-2.5A1.21,1.21,0,0,1,106.53,185.46Z"/><path class="cls-35" d="M99.15,181.26l5.8,3.3c.27.16.24.43-.07.62l-4.26,2.49a1.19,1.19,0,0,1-1.07.05l-5.8-3.3c-.27-.16-.24-.43.08-.62l4.26-2.49A1.17,1.17,0,0,1,99.15,181.26Z"/><path class="cls-35" d="M41.73,148.56,37.26,146a1.16,1.16,0,0,0-1.07,0l-4.26,2.49c-.31.18-.35.46-.07.61l4.48,2.55a1.14,1.14,0,0,0,1.06-.05l4.26-2.49C42,149,42,148.72,41.73,148.56Z"/><path class="cls-35" d="M47.79,152l-4.48-2.55a1.21,1.21,0,0,0-1.06,0L38,152c-.32.18-.35.46-.07.61l4.47,2.55a1.16,1.16,0,0,0,1.07,0l4.26-2.49C48,152.44,48.06,152.17,47.79,152Z"/><path class="cls-35" d="M53.85,155.46l-4.48-2.55a1.21,1.21,0,0,0-1.06.05l-4.26,2.5c-.32.18-.35.46-.08.61l4.48,2.55a1.17,1.17,0,0,0,1.06-.05l4.26-2.49C54.09,155.89,54.12,155.62,53.85,155.46Z"/><path class="cls-35" d="M123.17,194.93l-10.58-6a1.19,1.19,0,0,0-1.07.05l-4.26,2.49c-.31.19-.34.46-.07.62l10.58,6a1.14,1.14,0,0,0,1.06-.05l4.26-2.49C123.41,195.36,123.44,195.09,123.17,194.93Z"/><path class="cls-35" d="M143.23,178.07l4.48,2.55a1.14,1.14,0,0,0,1.06-.05l2.12-1.24c.32-.18.35-.46.07-.61l-4.47-2.55a1.19,1.19,0,0,0-1.07.05l-2.11,1.24C143,177.64,143,177.92,143.23,178.07Z"/><path class="cls-35" d="M137.18,174.63l4.47,2.54a1.16,1.16,0,0,0,1.07,0l2.11-1.24c.32-.18.35-.45.08-.61l-4.48-2.55a1.17,1.17,0,0,0-1.06.05L137.25,174C136.93,174.19,136.9,174.47,137.18,174.63Z"/><path class="cls-35" d="M131.12,171.18l4.48,2.55a1.21,1.21,0,0,0,1.06,0l2.12-1.24c.31-.19.34-.46.07-.62l-4.48-2.55a1.21,1.21,0,0,0-1.06,0l-2.12,1.24C130.88,170.75,130.84,171,131.12,171.18Z"/><path class="cls-35" d="M125.06,167.73l4.48,2.55a1.21,1.21,0,0,0,1.06-.05l2.12-1.24c.31-.19.35-.46.07-.62l-4.47-2.55a1.23,1.23,0,0,0-1.07.05l-2.12,1.24C124.82,167.3,124.79,167.57,125.06,167.73Z"/><path class="cls-35" d="M119,164.28l4.48,2.55a1.21,1.21,0,0,0,1.06-.05l2.12-1.24c.32-.19.35-.46.08-.62l-4.48-2.55a1.23,1.23,0,0,0-1.07,0l-2.11,1.24C118.76,163.85,118.73,164.12,119,164.28Z"/><path class="cls-35" d="M113,160.83l4.47,2.55a1.23,1.23,0,0,0,1.07,0l2.11-1.24c.32-.19.35-.46.08-.62l-4.48-2.55a1.21,1.21,0,0,0-1.06.05L113,160.21C112.7,160.4,112.67,160.67,113,160.83Z"/><path class="cls-35" d="M106.89,157.38l4.48,2.55a1.21,1.21,0,0,0,1.06-.05l2.12-1.24c.31-.19.34-.46.07-.62l-4.48-2.55a1.18,1.18,0,0,0-1.06.06L107,156.77C106.65,157,106.61,157.22,106.89,157.38Z"/><path class="cls-35" d="M100.83,153.93l4.48,2.55a1.17,1.17,0,0,0,1.06,0l2.12-1.24c.31-.18.35-.46.07-.62L104.09,152a1.16,1.16,0,0,0-1.07.05l-2.12,1.24C100.59,153.5,100.56,153.77,100.83,153.93Z"/><path class="cls-35" d="M94.77,150.48,99.25,153a1.17,1.17,0,0,0,1.06-.05l2.12-1.24c.32-.18.35-.46.08-.61L98,148.58a1.16,1.16,0,0,0-1.07,0l-2.11,1.24C94.53,150.05,94.5,150.33,94.77,150.48Z"/><path class="cls-35" d="M88.72,147l4.47,2.55a1.16,1.16,0,0,0,1.07-.05l2.12-1.24c.31-.18.34-.46.07-.61L92,145.13a1.14,1.14,0,0,0-1.06.05l-2.12,1.24C88.48,146.6,88.44,146.88,88.72,147Z"/><path class="cls-35" d="M82.66,143.58l4.48,2.55a1.14,1.14,0,0,0,1.06,0l2.12-1.24c.31-.18.34-.46.07-.61l-4.48-2.55a1.14,1.14,0,0,0-1.06,0L82.73,143C82.42,143.15,82.39,143.43,82.66,143.58Z"/><path class="cls-35" d="M76.6,140.13l4.48,2.55a1.14,1.14,0,0,0,1.06-.05l2.12-1.24c.31-.18.35-.46.07-.61l-4.47-2.55a1.19,1.19,0,0,0-1.07.05l-2.12,1.24C76.36,139.7,76.33,140,76.6,140.13Z"/><path class="cls-35" d="M70.54,136.68,75,139.23a1.14,1.14,0,0,0,1.06,0l2.12-1.24c.32-.18.35-.46.08-.61l-4.48-2.55a1.19,1.19,0,0,0-1.07.05l-2.11,1.24C70.3,136.25,70.27,136.53,70.54,136.68Z"/><path class="cls-35" d="M61.75,131.68l7.21,4.1a1.16,1.16,0,0,0,1.07-.05l2.12-1.24c.31-.18.34-.45.07-.61L65,129.77a1.21,1.21,0,0,0-1.06,0l-2.12,1.24C61.51,131.25,61.48,131.52,61.75,131.68Z"/><path class="cls-30" d="M161.26,174l-.4-67.42c0-3.79-1.28-5.63-3.75-7.06L67.64,48.61a2.84,2.84,0,0,0-2.39-.44h0s1.5-.88,1.64-.93h0a2.85,2.85,0,0,1,2.36.45l89.47,50.94c2.47,1.43,3.72,3.27,3.74,7.06l.41,67.42c0,1.82-.49,2.84-1.27,3.2l-1.34.76C160.89,176.61,161.27,175.63,161.26,174Z"/><polygon class="cls-31" points="159.93 177.26 159.93 177.26 159.93 177.26 159.93 177.26"/><path class="cls-32" d="M159,182.79a1.29,1.29,0,0,0,0-.34l0-3.41h0a3.44,3.44,0,0,1-1.92,2.43L97.25,215.82c-2.38,1.34-6,1.45-8,.24L1.39,165A2.4,2.4,0,0,1,0,163.1H0l0,3.65H0a2.38,2.38,0,0,0,1.38,2l87.81,51.1c2,1.2,5.61,1.09,8-.24l59.84-34.36a3.48,3.48,0,0,0,1.93-2.41h0Z"/><path class="cls-33" d="M122.29,201.46h0l-96.62-55L1.94,160.35a5.93,5.93,0,0,0-.76.53h0c-1.61,1.34-1.58,3.06.22,4.08l87.88,51.1c2,1.21,5.6,1.1,8-.24l25.33-14.19Z"/><path class="cls-34" d="M122.58,201.63,157,181.47c2.35-1.38,2.6-3.45.54-4.61l-89.46-51c-2.06-1.17-5.63-1-8,.38L25.67,146.46Z"/><path class="cls-35" d="M39.53,185.87l14.59,8.31c.39.22.4.59,0,.81l-16-9.11A1.56,1.56,0,0,1,39.53,185.87Z"/><polygon class="cls-35" points="73.99 130.45 149.64 173.52 150.66 172.92 75.01 129.85 73.99 130.45"/><path class="cls-36" d="M68.11,125.91l89.46,51c2.06,1.16,3.71.48,3.69-2.83l-.4-67.42c0-3.79-1.28-5.63-3.75-7.06L67.64,48.61c-2-1.17-3.7-.64-3.68,2.82l.4,67.43C64.39,123.26,65.86,124.64,68.11,125.91Z"/><path class="cls-44" d="M67.4,49l90,51.22a6.63,6.63,0,0,1,3,5.16l.41,69.36c0,1.9-1.33,2.67-3,1.73l-90-51.23a6.61,6.61,0,0,1-3-5.15l-.42-69.36C64.4,48.83,65.74,48.06,67.4,49Z"/><path class="cls-38" d="M157.3,167.73l-.38-63.44a.62.62,0,0,0-.31-.54l-87.79-50a.63.63,0,0,0-.93.54l.38,63.44a.63.63,0,0,0,.31.54l87.8,50A.62.62,0,0,0,157.3,167.73Z"/><path class="cls-39" d="M136.54,92.32,96,69.22,68.82,53.76a.63.63,0,0,0-.93.54l.38,63.44a.63.63,0,0,0,.31.54l12,6.82Z"/><path class="cls-40" d="M41.59,174.26l12.27-7.18a3,3,0,0,1,2.67,0l29.92,17a.81.81,0,0,1,0,1.54L74.2,192.83Z"/><g class="cls-41"><path class="cls-42" d="M57.64,184l16,9.14L67.05,197a3,3,0,0,1-2.67,0l-14.7-8.38Z"/><path class="cls-42" d="M57.13,183.7l-8,4.66L34.46,180a.81.81,0,0,1,0-1.54l6.64-3.89Z"/></g><path class="cls-43" d="M86.45,184.77l-29.92-17a2.9,2.9,0,0,0-2.66,0l-11.7,6.84-.58-.33,12.27-7.18a3,3,0,0,1,2.67,0l29.92,17c.52.29.67.72.46,1.1A1.15,1.15,0,0,0,86.45,184.77Z"/><polygon class="cls-43" points="57.65 184.66 50.26 188.98 49.68 188.65 57.64 183.99 73.69 193.13 73.11 193.46 57.65 184.66"/><path class="cls-43" d="M41.09,175.23l-6.65,3.89a1.07,1.07,0,0,0-.44.43c-.21-.37-.07-.8.44-1.1l6.64-3.89,16.05,9.14-.58.33Z"/><path class="cls-35" d="M137.25,181.57l4.48,2.55a1.16,1.16,0,0,0,1.07-.05l4.26-2.49c.31-.18.34-.46.07-.62l-4.48-2.54a1.14,1.14,0,0,0-1.06.05L137.33,181C137,181.14,137,181.42,137.25,181.57Z"/><path class="cls-35" d="M131.2,178.12l4.47,2.55a1.16,1.16,0,0,0,1.07,0l4.26-2.49c.31-.18.34-.46.07-.61L136.59,175a1.14,1.14,0,0,0-1.06.05l-4.26,2.49C131,177.69,130.92,178,131.2,178.12Z"/><path class="cls-35" d="M125.14,174.68l4.48,2.55a1.18,1.18,0,0,0,1.06-.06l4.26-2.49c.31-.18.35-.46.07-.61l-4.47-2.55a1.16,1.16,0,0,0-1.07,0l-4.26,2.49C124.9,174.24,124.87,174.52,125.14,174.68Z"/><path class="cls-35" d="M119.08,171.23l4.48,2.55a1.21,1.21,0,0,0,1.06-.05l4.26-2.5c.32-.18.35-.46.08-.61l-4.48-2.55a1.14,1.14,0,0,0-1.06.05l-4.26,2.49C118.84,170.8,118.81,171.07,119.08,171.23Z"/><path class="cls-35" d="M113,167.78l4.47,2.55a1.23,1.23,0,0,0,1.07-.05l4.26-2.5c.31-.18.34-.46.07-.61l-4.48-2.55a1.17,1.17,0,0,0-1.06,0l-4.26,2.49C112.78,167.35,112.75,167.62,113,167.78Z"/><path class="cls-35" d="M107,164.33l4.47,2.55a1.23,1.23,0,0,0,1.07,0l4.26-2.5c.31-.18.34-.46.07-.61l-4.48-2.55a1.17,1.17,0,0,0-1.06.05L107,163.71C106.73,163.9,106.69,164.17,107,164.33Z"/><path class="cls-35" d="M100.91,160.88l4.48,2.55a1.21,1.21,0,0,0,1.06-.05l4.26-2.5c.31-.18.35-.45.07-.61l-4.47-2.55a1.19,1.19,0,0,0-1.07.05L101,160.26C100.67,160.45,100.64,160.72,100.91,160.88Z"/><path class="cls-35" d="M94.85,157.43,99.33,160a1.17,1.17,0,0,0,1.06,0l4.26-2.49c.32-.19.35-.46.08-.62l-4.48-2.55a1.21,1.21,0,0,0-1.06,0l-4.26,2.5C94.61,157,94.58,157.27,94.85,157.43Z"/><path class="cls-35" d="M88.8,154l4.47,2.55a1.19,1.19,0,0,0,1.07-.05L98.6,154c.31-.19.34-.46.07-.62l-4.48-2.55a1.21,1.21,0,0,0-1.06.05l-4.26,2.5C88.55,153.55,88.52,153.83,88.8,154Z"/><path class="cls-35" d="M82.74,150.53l4.47,2.55a1.19,1.19,0,0,0,1.07-.05l4.26-2.49c.31-.19.35-.46.07-.62l-4.48-2.55a1.21,1.21,0,0,0-1.06,0l-4.26,2.5C82.5,150.1,82.46,150.38,82.74,150.53Z"/><path class="cls-35" d="M76.68,147.08l4.48,2.55a1.17,1.17,0,0,0,1.06,0l4.26-2.49c.32-.19.35-.46.07-.62l-4.47-2.55A1.23,1.23,0,0,0,81,144l-4.26,2.5C76.44,146.65,76.41,146.93,76.68,147.08Z"/><path class="cls-35" d="M70.62,143.63l4.48,2.55a1.14,1.14,0,0,0,1.06-.05l4.26-2.49c.32-.18.35-.46.08-.62L76,140.47a1.18,1.18,0,0,0-1.06.06L70.7,143C70.38,143.2,70.35,143.48,70.62,143.63Z"/><path class="cls-35" d="M64.57,140.18,69,142.73a1.16,1.16,0,0,0,1.07,0l4.26-2.49c.31-.18.34-.46.07-.62L70,137a1.14,1.14,0,0,0-1.06.05l-4.26,2.49C64.32,139.75,64.29,140,64.57,140.18Z"/><path class="cls-35" d="M55.77,135.18l7.22,4.1a1.14,1.14,0,0,0,1.06-.05l4.26-2.49c.31-.18.35-.46.07-.61L61.17,132a1.16,1.16,0,0,0-1.07,0l-4.26,2.49C55.53,134.75,55.5,135,55.77,135.18Z"/><path class="cls-35" d="M59.67,138.07l-4.48-2.55a1.14,1.14,0,0,0-1.06,0l-4.26,2.49c-.32.18-.35.46-.08.62l4.48,2.55a1.18,1.18,0,0,0,1.06-.06l4.26-2.49C59.91,138.5,59.94,138.22,59.67,138.07Z"/><path class="cls-35" d="M65.72,141.52,61.25,139a1.16,1.16,0,0,0-1.07.05l-4.26,2.49c-.31.18-.34.46-.07.62l4.48,2.54a1.14,1.14,0,0,0,1.06,0l4.26-2.49C66,142,66,141.67,65.72,141.52Z"/><path class="cls-35" d="M71.78,145l-4.48-2.54a1.14,1.14,0,0,0-1.06.05L62,145c-.31.18-.35.46-.07.61l4.47,2.55a1.16,1.16,0,0,0,1.07-.05l4.26-2.49C72,145.4,72.06,145.12,71.78,145Z"/><path class="cls-35" d="M77.84,148.41l-4.48-2.55a1.21,1.21,0,0,0-1.06,0L68,148.41c-.32.18-.35.46-.07.61l4.47,2.55a1.16,1.16,0,0,0,1.07,0L77.77,149C78.08,148.84,78.11,148.57,77.84,148.41Z"/><path class="cls-35" d="M83.9,151.86l-4.48-2.55a1.21,1.21,0,0,0-1.06.05l-4.26,2.5c-.32.18-.35.46-.08.61L78.5,155a1.14,1.14,0,0,0,1.06-.05l4.26-2.49C84.14,152.29,84.17,152,83.9,151.86Z"/><path class="cls-35" d="M90,155.31l-4.47-2.55a1.23,1.23,0,0,0-1.07.05l-4.26,2.5c-.31.18-.34.46-.07.61l4.48,2.55a1.17,1.17,0,0,0,1.06-.05l4.26-2.49C90.19,155.74,90.23,155.47,90,155.31Z"/><path class="cls-35" d="M96,158.76l-4.48-2.55a1.21,1.21,0,0,0-1.06,0l-4.26,2.5c-.31.18-.35.45-.07.61l4.47,2.55a1.19,1.19,0,0,0,1.07,0l4.26-2.49C96.25,159.19,96.28,158.92,96,158.76Z"/><path class="cls-35" d="M102.07,162.21l-4.48-2.55a1.21,1.21,0,0,0-1.06.05l-4.26,2.5c-.32.18-.35.45-.07.61l4.47,2.55a1.19,1.19,0,0,0,1.07-.05l4.26-2.49C102.31,162.64,102.34,162.37,102.07,162.21Z"/><path class="cls-35" d="M108.13,165.66l-4.48-2.55a1.17,1.17,0,0,0-1.06,0l-4.26,2.49c-.32.19-.35.46-.08.62l4.48,2.55a1.21,1.21,0,0,0,1.06,0l4.26-2.5C108.37,166.09,108.4,165.82,108.13,165.66Z"/><path class="cls-35" d="M114.18,169.11l-4.47-2.55a1.19,1.19,0,0,0-1.07.05l-4.26,2.49c-.31.19-.34.46-.07.62l4.48,2.55a1.21,1.21,0,0,0,1.06-.05l4.26-2.5C114.42,169.54,114.46,169.26,114.18,169.11Z"/><path class="cls-35" d="M120.24,172.56,115.76,170a1.17,1.17,0,0,0-1.06.05l-4.26,2.49c-.31.19-.35.46-.07.62l4.47,2.55a1.23,1.23,0,0,0,1.07-.05l4.26-2.5C120.48,173,120.51,172.71,120.24,172.56Z"/><path class="cls-35" d="M126.3,176l-4.48-2.55a1.14,1.14,0,0,0-1.06,0L116.5,176c-.32.19-.35.46-.08.62l4.48,2.55a1.23,1.23,0,0,0,1.07,0l4.26-2.5C126.54,176.44,126.57,176.16,126.3,176Z"/><path class="cls-35" d="M132.36,179.46l-4.48-2.55a1.16,1.16,0,0,0-1.07.05l-4.25,2.49c-.32.18-.35.46-.08.62l4.48,2.54a1.14,1.14,0,0,0,1.06-.05l4.26-2.49C132.6,179.89,132.63,179.61,132.36,179.46Z"/><path class="cls-35" d="M141.15,184.46l-7.21-4.1a1.16,1.16,0,0,0-1.07,0l-4.26,2.49c-.31.18-.34.46-.07.61l7.21,4.11a1.16,1.16,0,0,0,1.07-.05l4.26-2.49C141.39,184.89,141.42,184.62,141.15,184.46Z"/><path class="cls-35" d="M58.06,144.06l-8.85-5a1.14,1.14,0,0,0-1.06,0l-4.26,2.49c-.32.18-.35.46-.08.62l8.85,5a1.16,1.16,0,0,0,1.07-.05L58,144.67C58.3,144.49,58.33,144.21,58.06,144.06Z"/><path class="cls-35" d="M135.12,187.93l-8.85-5a1.14,1.14,0,0,0-1.06,0L121,185.44c-.31.18-.35.46-.07.61l8.85,5a1.14,1.14,0,0,0,1.06-.05l4.26-2.49C135.36,188.37,135.4,188.09,135.12,187.93Z"/><path class="cls-35" d="M64.12,147.5,59.64,145a1.14,1.14,0,0,0-1.06,0l-4.26,2.49c-.32.18-.35.46-.08.61l4.48,2.55a1.16,1.16,0,0,0,1.07,0l4.26-2.49C64.36,147.94,64.39,147.66,64.12,147.5Z"/><path class="cls-35" d="M70.18,151,65.7,148.4a1.2,1.2,0,0,0-1.07.06L60.37,151c-.31.18-.34.46-.07.61l4.48,2.55a1.14,1.14,0,0,0,1.06-.05l4.26-2.49C70.42,151.38,70.45,151.11,70.18,151Z"/><path class="cls-35" d="M76.23,154.4l-4.47-2.55a1.23,1.23,0,0,0-1.07.05l-4.26,2.5c-.31.18-.34.46-.07.61l4.48,2.55a1.17,1.17,0,0,0,1.06-.05L76.16,155C76.47,154.83,76.51,154.56,76.23,154.4Z"/><path class="cls-35" d="M82.29,157.85l-4.48-2.55a1.21,1.21,0,0,0-1.06,0l-4.26,2.5c-.31.18-.35.46-.07.61L76.89,161A1.19,1.19,0,0,0,78,161l4.26-2.49C82.53,158.28,82.56,158,82.29,157.85Z"/><path class="cls-35" d="M88.35,161.3l-4.48-2.55a1.21,1.21,0,0,0-1.06.05l-4.26,2.5c-.32.18-.35.45-.08.61L83,164.46a1.19,1.19,0,0,0,1.07-.05l4.26-2.49C88.59,161.73,88.62,161.46,88.35,161.3Z"/><path class="cls-35" d="M94.41,164.75l-4.48-2.55a1.23,1.23,0,0,0-1.07.05l-4.26,2.49c-.31.19-.34.46-.07.62L89,167.91a1.21,1.21,0,0,0,1.06,0l4.26-2.5C94.65,165.18,94.68,164.91,94.41,164.75Z"/><path class="cls-35" d="M100.46,168.2,96,165.65a1.19,1.19,0,0,0-1.07,0l-4.26,2.49c-.31.19-.34.46-.07.62l4.48,2.55a1.21,1.21,0,0,0,1.06-.05l4.26-2.5C100.7,168.63,100.74,168.36,100.46,168.2Z"/><path class="cls-35" d="M106.52,171.65,102,169.1a1.17,1.17,0,0,0-1.06.05l-4.26,2.49c-.31.19-.35.46-.07.62l4.47,2.55a1.23,1.23,0,0,0,1.07-.05l4.26-2.5C106.76,172.08,106.79,171.8,106.52,171.65Z"/><path class="cls-35" d="M112.58,175.1l-4.48-2.55a1.17,1.17,0,0,0-1.06,0l-4.26,2.49c-.32.19-.35.46-.08.62l4.48,2.55a1.21,1.21,0,0,0,1.06,0l4.26-2.5C112.82,175.53,112.85,175.25,112.58,175.1Z"/><path class="cls-35" d="M118.64,178.55,114.16,176a1.16,1.16,0,0,0-1.07.05l-4.26,2.49c-.31.19-.34.46-.07.62l4.48,2.55a1.21,1.21,0,0,0,1.06-.05l4.26-2.5C118.88,179,118.91,178.7,118.64,178.55Z"/><path class="cls-35" d="M124.69,182l-4.47-2.55a1.16,1.16,0,0,0-1.07.05L114.89,182c-.31.18-.34.46-.07.62l4.48,2.54a1.14,1.14,0,0,0,1.06-.05l4.26-2.49C124.93,182.43,125,182.15,124.69,182Z"/><path class="cls-35" d="M55.09,149.27l-11.86-6.75a1.14,1.14,0,0,0-1.06,0l-4.26,2.49c-.31.18-.35.46-.07.61l11.85,6.76a1.23,1.23,0,0,0,1.07-.05l4.26-2.5C55.33,149.7,55.36,149.42,55.09,149.27Z"/><path class="cls-35" d="M61.15,152.72l-4.48-2.55a1.14,1.14,0,0,0-1.06.05l-4.26,2.49c-.32.18-.35.46-.08.62l4.48,2.54a1.14,1.14,0,0,0,1.06-.05l4.26-2.49C61.39,153.15,61.42,152.87,61.15,152.72Z"/><path class="cls-35" d="M67.2,156.17l-4.47-2.55a1.16,1.16,0,0,0-1.07,0l-4.26,2.49c-.31.18-.34.46-.07.61l4.48,2.55a1.14,1.14,0,0,0,1.06,0l4.26-2.49C67.45,156.6,67.48,156.32,67.2,156.17Z"/><path class="cls-35" d="M73.26,159.61l-4.47-2.54a1.16,1.16,0,0,0-1.07.05l-4.26,2.49c-.31.18-.35.46-.07.61l4.48,2.55a1.14,1.14,0,0,0,1.06-.05l4.26-2.49C73.5,160.05,73.54,159.77,73.26,159.61Z"/><path class="cls-35" d="M79.32,163.06l-4.48-2.55a1.21,1.21,0,0,0-1.06.05l-4.26,2.5c-.32.18-.35.46-.07.61l4.47,2.55a1.16,1.16,0,0,0,1.07-.05l4.26-2.49C79.56,163.49,79.59,163.22,79.32,163.06Z"/><path class="cls-35" d="M85.38,166.51,80.9,164a1.21,1.21,0,0,0-1.06,0l-4.26,2.5c-.32.18-.35.46-.08.61L80,169.67a1.17,1.17,0,0,0,1.06,0l4.26-2.49C85.62,166.94,85.65,166.67,85.38,166.51Z"/><path class="cls-35" d="M91.43,170,87,167.41a1.23,1.23,0,0,0-1.07.05L81.63,170c-.31.18-.34.46-.07.61L86,173.12a1.17,1.17,0,0,0,1.06-.05l4.26-2.49C91.68,170.39,91.71,170.12,91.43,170Z"/><path class="cls-35" d="M97.49,173.41,93,170.86a1.21,1.21,0,0,0-1.06,0l-4.26,2.5c-.31.18-.35.45-.07.61l4.48,2.55a1.17,1.17,0,0,0,1.06,0L97.42,174C97.73,173.84,97.77,173.57,97.49,173.41Z"/><path class="cls-35" d="M103.55,176.86l-4.48-2.55a1.21,1.21,0,0,0-1.06.05l-4.26,2.49c-.32.19-.35.46-.07.62L98.15,180a1.23,1.23,0,0,0,1.07-.05l4.26-2.5C103.79,177.29,103.82,177,103.55,176.86Z"/><path class="cls-35" d="M109.61,180.31l-4.48-2.55a1.17,1.17,0,0,0-1.06.05l-4.26,2.49c-.32.19-.35.46-.08.62l4.48,2.55a1.21,1.21,0,0,0,1.06-.05l4.26-2.5C109.85,180.74,109.88,180.47,109.61,180.31Z"/><path class="cls-35" d="M115.66,183.76l-4.47-2.55a1.19,1.19,0,0,0-1.07,0l-4.26,2.49c-.31.19-.34.46-.07.62l4.48,2.55a1.21,1.21,0,0,0,1.06,0l4.26-2.5C115.91,184.19,115.94,183.91,115.66,183.76Z"/><path class="cls-35" d="M129.14,191.43l-11.9-6.77a1.17,1.17,0,0,0-1.06.05l-4.26,2.49c-.31.19-.35.46-.07.62l11.9,6.77a1.14,1.14,0,0,0,1.06-.05l4.26-2.49C129.39,191.87,129.42,191.59,129.14,191.43Z"/><path class="cls-35" d="M97.57,180.36,68.86,164a1.21,1.21,0,0,0-1.06.05l-4.26,2.5c-.31.18-.35.46-.07.61l28.7,16.35a1.23,1.23,0,0,0,1.07-.05L97.5,181C97.81,180.79,97.84,180.52,97.57,180.36Z"/><path class="cls-35" d="M59.9,158.91l-4.47-2.55a1.23,1.23,0,0,0-1.07,0l-4.26,2.5c-.31.18-.34.46-.07.61l4.48,2.55a1.17,1.17,0,0,0,1.06,0l4.26-2.49C60.15,159.34,60.18,159.07,59.9,158.91Z"/><path class="cls-35" d="M67.28,163.11l-5.8-3.3a1.21,1.21,0,0,0-1.06.05l-4.26,2.5c-.31.18-.35.45-.07.61l5.8,3.3a1.14,1.14,0,0,0,1.06-.05l4.26-2.49C67.52,163.54,67.56,163.27,67.28,163.11Z"/><path class="cls-35" d="M106.53,185.46,111,188c.27.16.24.43-.07.62l-4.26,2.49a1.19,1.19,0,0,1-1.07,0l-4.48-2.55c-.27-.16-.24-.43.08-.61l4.26-2.5A1.21,1.21,0,0,1,106.53,185.46Z"/><path class="cls-35" d="M99.15,181.26l5.8,3.3c.27.16.24.43-.07.62l-4.26,2.49a1.19,1.19,0,0,1-1.07.05l-5.8-3.3c-.27-.16-.24-.43.08-.62l4.26-2.49A1.17,1.17,0,0,1,99.15,181.26Z"/><path class="cls-35" d="M41.73,148.56,37.26,146a1.16,1.16,0,0,0-1.07,0l-4.26,2.49c-.31.18-.35.46-.07.61l4.48,2.55a1.14,1.14,0,0,0,1.06-.05l4.26-2.49C42,149,42,148.72,41.73,148.56Z"/><path class="cls-35" d="M47.79,152l-4.48-2.55a1.21,1.21,0,0,0-1.06,0L38,152c-.32.18-.35.46-.07.61l4.47,2.55a1.16,1.16,0,0,0,1.07,0l4.26-2.49C48,152.44,48.06,152.17,47.79,152Z"/><path class="cls-35" d="M53.85,155.46l-4.48-2.55a1.21,1.21,0,0,0-1.06.05l-4.26,2.5c-.32.18-.35.46-.08.61l4.48,2.55a1.17,1.17,0,0,0,1.06-.05l4.26-2.49C54.09,155.89,54.12,155.62,53.85,155.46Z"/><path class="cls-35" d="M123.17,194.93l-10.58-6a1.19,1.19,0,0,0-1.07.05l-4.26,2.49c-.31.19-.34.46-.07.62l10.58,6a1.14,1.14,0,0,0,1.06-.05l4.26-2.49C123.41,195.36,123.44,195.09,123.17,194.93Z"/><path class="cls-35" d="M143.23,178.07l4.48,2.55a1.14,1.14,0,0,0,1.06-.05l2.12-1.24c.32-.18.35-.46.07-.61l-4.47-2.55a1.19,1.19,0,0,0-1.07.05l-2.11,1.24C143,177.64,143,177.92,143.23,178.07Z"/><path class="cls-35" d="M137.18,174.63l4.47,2.54a1.16,1.16,0,0,0,1.07,0l2.11-1.24c.32-.18.35-.45.08-.61l-4.48-2.55a1.17,1.17,0,0,0-1.06.05L137.25,174C136.93,174.19,136.9,174.47,137.18,174.63Z"/><path class="cls-35" d="M131.12,171.18l4.48,2.55a1.21,1.21,0,0,0,1.06,0l2.12-1.24c.31-.19.34-.46.07-.62l-4.48-2.55a1.21,1.21,0,0,0-1.06,0l-2.12,1.24C130.88,170.75,130.84,171,131.12,171.18Z"/><path class="cls-35" d="M125.06,167.73l4.48,2.55a1.21,1.21,0,0,0,1.06-.05l2.12-1.24c.31-.19.35-.46.07-.62l-4.47-2.55a1.23,1.23,0,0,0-1.07.05l-2.12,1.24C124.82,167.3,124.79,167.57,125.06,167.73Z"/><path class="cls-35" d="M119,164.28l4.48,2.55a1.21,1.21,0,0,0,1.06-.05l2.12-1.24c.32-.19.35-.46.08-.62l-4.48-2.55a1.23,1.23,0,0,0-1.07,0l-2.11,1.24C118.76,163.85,118.73,164.12,119,164.28Z"/><path class="cls-35" d="M113,160.83l4.47,2.55a1.23,1.23,0,0,0,1.07,0l2.11-1.24c.32-.19.35-.46.08-.62l-4.48-2.55a1.21,1.21,0,0,0-1.06.05L113,160.21C112.7,160.4,112.67,160.67,113,160.83Z"/><path class="cls-35" d="M106.89,157.38l4.48,2.55a1.21,1.21,0,0,0,1.06-.05l2.12-1.24c.31-.19.34-.46.07-.62l-4.48-2.55a1.18,1.18,0,0,0-1.06.06L107,156.77C106.65,157,106.61,157.22,106.89,157.38Z"/><path class="cls-35" d="M100.83,153.93l4.48,2.55a1.17,1.17,0,0,0,1.06,0l2.12-1.24c.31-.18.35-.46.07-.62L104.09,152a1.16,1.16,0,0,0-1.07.05l-2.12,1.24C100.59,153.5,100.56,153.77,100.83,153.93Z"/><path class="cls-35" d="M94.77,150.48,99.25,153a1.17,1.17,0,0,0,1.06-.05l2.12-1.24c.32-.18.35-.46.08-.61L98,148.58a1.16,1.16,0,0,0-1.07,0l-2.11,1.24C94.53,150.05,94.5,150.33,94.77,150.48Z"/><path class="cls-35" d="M88.72,147l4.47,2.55a1.16,1.16,0,0,0,1.07-.05l2.12-1.24c.31-.18.34-.46.07-.61L92,145.13a1.14,1.14,0,0,0-1.06.05l-2.12,1.24C88.48,146.6,88.44,146.88,88.72,147Z"/><path class="cls-35" d="M82.66,143.58l4.48,2.55a1.14,1.14,0,0,0,1.06,0l2.12-1.24c.31-.18.34-.46.07-.61l-4.48-2.55a1.14,1.14,0,0,0-1.06,0L82.73,143C82.42,143.15,82.39,143.43,82.66,143.58Z"/><path class="cls-35" d="M76.6,140.13l4.48,2.55a1.14,1.14,0,0,0,1.06-.05l2.12-1.24c.31-.18.35-.46.07-.61l-4.47-2.55a1.19,1.19,0,0,0-1.07.05l-2.12,1.24C76.36,139.7,76.33,140,76.6,140.13Z"/><path class="cls-35" d="M70.54,136.68,75,139.23a1.14,1.14,0,0,0,1.06,0l2.12-1.24c.32-.18.35-.46.08-.61l-4.48-2.55a1.19,1.19,0,0,0-1.07.05l-2.11,1.24C70.3,136.25,70.27,136.53,70.54,136.68Z"/><path class="cls-35" d="M61.75,131.68l7.21,4.1a1.16,1.16,0,0,0,1.07-.05l2.12-1.24c.31-.18.34-.45.07-.61L65,129.77a1.21,1.21,0,0,0-1.06,0l-2.12,1.24C61.51,131.25,61.48,131.52,61.75,131.68Z"/></g></g></g></svg>