<svg xmlns="http://www.w3.org/2000/svg" xmlns:xlink="http://www.w3.org/1999/xlink" viewBox="0 0 303.66 266.21"><defs><style>.cls-1{isolation:isolate;}.cls-2,.cls-35,.cls-36,.cls-37,.cls-38,.cls-39,.cls-40,.cls-41,.cls-42{fill:none;stroke-linecap:round;stroke-linejoin:round;}.cls-2{stroke:#8af7f5;}.cls-10,.cls-3{fill:#fff;}.cls-14,.cls-3{opacity:0.2;}.cls-4{fill:#076d6d;opacity:0.5;}.cls-5{fill:#48d7e5;}.cls-6{fill:#e0f9fe;}.cls-7{fill:#00399e;}.cls-8{fill:#c5eaef;}.cls-9{fill:#ededed;}.cls-11{fill:#4de4e8;}.cls-12,.cls-14{fill:#3a3a3a;mix-blend-mode:multiply;}.cls-12{opacity:0.3;}.cls-13,.cls-47{fill:#02f5d0;}.cls-15{fill:#f7b85c;}.cls-16{fill:#ffdc79;}.cls-17{fill:#ffe6a6;}.cls-18{fill:#011a5f;}.cls-19{fill:#0c3184;}.cls-20{fill:#ffa15a;}.cls-21,.cls-29{fill:#ff9136;}.cls-22{fill:#fdefea;}.cls-23{fill:#5cebf2;}.cls-24{fill:#0b4656;}.cls-25{fill:#063444;}.cls-26{fill:#71606e;}.cls-27{fill:#564954;}.cls-28{fill:#6d3207;}.cls-29{font-size:17.38px;}.cls-29,.cls-47{font-family:AvenirNext-Medium, Avenir Next;}.cls-30{letter-spacing:-0.02em;}.cls-31{fill:#b3e8f4;}.cls-32{fill:#77bdc9;}.cls-33{fill:#4d8e93;}.cls-34{fill:#514745;}.cls-35,.cls-36,.cls-37,.cls-38,.cls-39,.cls-40,.cls-41,.cls-42{stroke-width:0.5px;}.cls-35{stroke:url(#linear-gradient);}.cls-36,.cls-40{stroke-dasharray:0.99 1.97;}.cls-36{stroke:url(#linear-gradient-2);}.cls-37{stroke:url(#linear-gradient-3);}.cls-38,.cls-42{stroke-dasharray:0.97 1.95;}.cls-38{stroke:url(#linear-gradient-4);}.cls-39{stroke:url(#linear-gradient-5);}.cls-40{stroke:url(#linear-gradient-6);}.cls-41{stroke:url(#linear-gradient-7);}.cls-42{stroke:url(#linear-gradient-8);}.cls-43{fill:url(#linear-gradient-9);}.cls-44{fill:url(#linear-gradient-10);}.cls-45{fill:url(#linear-gradient-11);}.cls-46{fill:url(#linear-gradient-12);}.cls-47{font-size:15.47px;}.cls-48{fill:#cfd2e2;}.cls-49{fill:#8da7d6;}.cls-50{fill:#867ba7;}.cls-51{fill:#a5b5cf;}.cls-52{fill:#b4c0d9;}.cls-53{fill:#b6bcd5;}.cls-54{fill:#c3c9dc;}.cls-55{fill:#abb9d5;}.cls-56{fill:#5f5c94;}.cls-57{fill:#626591;}.cls-58{fill:#a7bae0;}.cls-59{fill:#d3d7e2;}.cls-60{fill:#585d80;}.cls-61{fill:#4a4c7b;}.cls-62{fill:#4d4d7f;}.cls-63{fill:#cecfdc;}.cls-64{fill:#adbce0;}.cls-65{fill:#c0becc;}.cls-66{fill:#d5d8e1;}.cls-67{fill:#cfceda;}.cls-68{fill:#484c78;}.cls-69{fill:#d9d2db;}.cls-70{fill:#869dc8;}.cls-71{fill:#a89cbc;}.cls-72{fill:#575e8c;}.cls-73{fill:#e7e2e8;}.cls-74{fill:#969bbc;}.cls-75{fill:#e8e3ea;}.cls-76{fill:#979dbf;}.cls-77{fill:#8e7fa7;}.cls-78{fill:#a98fb1;}.cls-79{fill:#c0cae2;}.cls-80{fill:#cfc6d9;}.cls-81{fill:#cdbdc8;}.cls-82{fill:#ceaaa8;}.cls-83{fill:#a589b1;}.cls-84{fill:#b5acc7;}.cls-85{fill:#c57f7c;}.cls-86{fill:#9f7f87;}.cls-87{fill:#c3b1cb;}.cls-88{fill:#977599;}.cls-89{fill:#9d8eb5;}.cls-90{fill:#d8c8d3;}.cls-91{fill:#584347;}.cls-92{fill:#fdf3f7;}.cls-93{fill:#bcb6aa;}.cls-94{fill:#955b71;}.cls-95{fill:#e7d0d2;}.cls-96{fill:#c0a5b3;}.cls-97{fill:#cbb1b4;}.cls-98{fill:#404041;}.cls-99{fill:#90566b;}.cls-100{fill:#ec1e27;}.cls-101{fill:#e6cfd1;}.cls-102{fill:#b58a9d;}.cls-103{fill:#c7b5b5;}.cls-104{fill:#cdc9c2;}.cls-105{fill:#bb8891;}.cls-106{fill:#e3d9da;}.cls-107{fill:#bda8b7;}.cls-108{fill:#b7a4a2;}.cls-109{fill:#795d62;}.cls-110{fill:#c2b0af;}</style><linearGradient id="linear-gradient" x1="171.35" y1="148.02" x2="123.06" y2="148.02" gradientUnits="userSpaceOnUse"><stop offset="0" stop-color="#11d6cc"/><stop offset="1" stop-color="#00a9ce"/></linearGradient><linearGradient id="linear-gradient-2" x1="171.35" y1="133.26" x2="123.06" y2="133.26" xlink:href="#linear-gradient"/><linearGradient id="linear-gradient-3" x1="171.35" y1="118.65" x2="123.06" y2="118.65" xlink:href="#linear-gradient"/><linearGradient id="linear-gradient-4" x1="171.35" y1="90.52" x2="123.06" y2="90.52" xlink:href="#linear-gradient"/><linearGradient id="linear-gradient-5" x1="171.35" y1="63.49" x2="123.06" y2="63.49" xlink:href="#linear-gradient"/><linearGradient id="linear-gradient-6" x1="171.35" y1="78.26" x2="123.06" y2="78.26" xlink:href="#linear-gradient"/><linearGradient id="linear-gradient-7" x1="171.35" y1="92.87" x2="123.06" y2="92.87" xlink:href="#linear-gradient"/><linearGradient id="linear-gradient-8" x1="171.35" y1="121" x2="123.06" y2="121" xlink:href="#linear-gradient"/><linearGradient id="linear-gradient-9" x1="672.62" y1="62.78" x2="675.83" y2="62.78" gradientTransform="matrix(-1, 0, 0, 1, 845.21, 0)" xlink:href="#linear-gradient"/><linearGradient id="linear-gradient-10" x1="720.3" y1="92.82" x2="723.5" y2="92.82" gradientTransform="matrix(-1, 0, 0, 1, 845.21, 0)" xlink:href="#linear-gradient"/><linearGradient id="linear-gradient-11" x1="720.3" y1="148.41" x2="723.5" y2="148.41" gradientTransform="matrix(-1, 0, 0, 1, 845.21, 0)" xlink:href="#linear-gradient"/><linearGradient id="linear-gradient-12" x1="672.59" y1="119.09" x2="675.79" y2="119.09" gradientTransform="matrix(-1, 0, 0, 1, 845.21, 0)" xlink:href="#linear-gradient"/></defs><title>Asset 5</title><g class="cls-1"><g id="Layer_2" data-name="Layer 2"><g id="OBJECTS"><path class="cls-2" d="M78.44,118.66v21.66a2.34,2.34,0,0,0,3.57,2l28.31-17.46"/><path class="cls-2" d="M60.21,65.7V87.36a2.34,2.34,0,0,0,3.57,2l43.38-26.73a3,3,0,0,1,4.55,2.54V86.89"/><path class="cls-2" d="M25.07,135.06v62.19a2.34,2.34,0,0,0,3.57,2l77.82-47.75"/><line class="cls-2" x1="137.37" y1="33.67" x2="137.37" y2="75.33"/><path class="cls-2" d="M228.43,76.83V98.09a7.07,7.07,0,0,1-3.4,6l-30.74,18.72"/><path class="cls-2" d="M218.18,18.36V39.62a7.07,7.07,0,0,1-3.4,6L184,64.38"/><path class="cls-3" d="M254.73,35.24V63.36a2.3,2.3,0,0,1-1,1.9l-.08.06L244.46,71l-19,11.7a.89.89,0,0,1-1,0,.92.92,0,0,1-.42-.77V54.49A2.91,2.91,0,0,1,225.42,52l28.25-17.41a.68.68,0,0,1,.63-.06l.13.07A.71.71,0,0,1,254.73,35.24Z"/><path class="cls-3" d="M165.17,2.83V25.71a1.88,1.88,0,0,1-.81,1.55l-.07,0-7.48,4.61-15.45,9.52a.72.72,0,0,1-.81,0,.75.75,0,0,1-.34-.63V18.49a2.36,2.36,0,0,1,1.1-2l23-14.16a.55.55,0,0,1,.51,0l.1.06A.58.58,0,0,1,165.17,2.83Z"/><path class="cls-3" d="M82.7,57.08V73.79a1.37,1.37,0,0,1-.59,1.13l0,0L76.6,78.33l-11.28,7a.53.53,0,0,1-.59,0,.55.55,0,0,1-.25-.46V68.52a1.73,1.73,0,0,1,.81-1.46L82.07,56.72a.4.4,0,0,1,.37,0l.07,0A.42.42,0,0,1,82.7,57.08Z"/><path class="cls-3" d="M78.21,98.57v23a1.89,1.89,0,0,1-.81,1.56l-.07,0-7.52,4.64-15.53,9.57a.72.72,0,0,1-.81,0,.75.75,0,0,1-.34-.63V114.32a2.38,2.38,0,0,1,1.11-2L77.34,98.07a.56.56,0,0,1,.51,0l.1.06A.58.58,0,0,1,78.21,98.57Z"/><path class="cls-3" d="M58.75,146v15.83a1.3,1.3,0,0,1-.56,1.07l0,0L53,166.11,42.29,172.7a.5.5,0,0,1-.56,0,.52.52,0,0,1-.24-.43V156.83a1.64,1.64,0,0,1,.76-1.38l15.9-9.8a.38.38,0,0,1,.35,0l.07,0A.4.4,0,0,1,58.75,146Z"/><path class="cls-3" d="M23.16,110.71v21.24a1.74,1.74,0,0,1-.75,1.44l-.06,0-6.94,4.28L1.07,146.54a.67.67,0,0,1-.75,0A.7.7,0,0,1,0,146v-20.7a2.2,2.2,0,0,1,1-1.85l21.34-13.15a.51.51,0,0,1,.48,0l.1.05A.54.54,0,0,1,23.16,110.71Z"/><path class="cls-4" d="M243.64,177l13.27-8.17a2.22,2.22,0,0,0,0-3.79l-68.19-42a4,4,0,0,0-4.2,0L98.84,175.83a2.19,2.19,0,0,0,0,3.74l68.22,42a4,4,0,0,0,4.22,0l14.32-8.82Z"/><path class="cls-5" d="M191.37,36l-2.73-1.74h0a1.91,1.91,0,0,0-2.1-.07L101.17,86.75a5.25,5.25,0,0,0-2.5,4.47v74.27a2.06,2.06,0,0,0,.92,1.72h0l.16.1h0l3,1.88a21,21,0,0,0,.33-2.57l-.08,0,84.76-52.19a3.67,3.67,0,0,0,1.74-3.12V36.4Z"/><path class="cls-6" d="M104.78,169.13l85.86-52.87a3.67,3.67,0,0,0,1.74-3.12V37.69A1.94,1.94,0,0,0,189.44,36L104.08,88.6a5.25,5.25,0,0,0-2.5,4.47v74.27A2.1,2.1,0,0,0,104.78,169.13Z"/><path class="cls-7" d="M106.62,164.76l82.21-50.62a3.51,3.51,0,0,0,1.67-3v-68a1.85,1.85,0,0,0-2.82-1.58L106,91.87a5,5,0,0,0-2.39,4.28V163A2,2,0,0,0,106.62,164.76Z"/><path class="cls-5" d="M257.93,160.68h0v-4h-4.86l-58.6-36a4,4,0,0,0-4.2,0l-80.35,49.47-6.36.91v4.09h0a2.17,2.17,0,0,0,1,2l62.44,38.35a4,4,0,0,0,4.22,0l85.62-52.72A2.2,2.2,0,0,0,257.93,160.68Z"/><path class="cls-6" d="M171.29,211.31l85.62-52.72a2.22,2.22,0,0,0,0-3.79l-62.42-38.34a4,4,0,0,0-4.2,0l-85.67,52.75a2.19,2.19,0,0,0,0,3.74l62.44,38.35A4,4,0,0,0,171.29,211.31Z"/><path class="cls-8" d="M155,192.85l71.89-44.28a2,2,0,0,0,0-3.37L191.1,122.85a3.57,3.57,0,0,0-3.74,0l-71.94,44.3a2,2,0,0,0,0,3.33l35.78,22.36A3.59,3.59,0,0,0,155,192.85Z"/><path class="cls-9" d="M197,192.94l29.95-18.44a.78.78,0,0,0,0-1.32l-17.34-10.85a1.4,1.4,0,0,0-1.47,0l-30,18.45a.77.77,0,0,0,0,1.31l17.35,10.86A1.41,1.41,0,0,0,197,192.94Z"/><path class="cls-5" d="M121.86,164.84a.42.42,0,0,0-.44,0l-3.74,2.3-.42-.14v.53h0a.23.23,0,0,0,.11.19l4.24,2.65a.42.42,0,0,0,.44,0l4-2.48a.23.23,0,0,0,.11-.2h0v-.52Z"/><path class="cls-5" d="M127.85,161.15a.42.42,0,0,0-.44,0l-3.74,2.3-.42-.14v.53h0a.23.23,0,0,0,.11.19l4.24,2.65a.42.42,0,0,0,.44,0l4-2.48a.23.23,0,0,0,.11-.2h0v-.52Z"/><path class="cls-5" d="M133.84,157.45a.42.42,0,0,0-.44,0l-3.74,2.3-.42-.14v.53h0a.23.23,0,0,0,.11.19l4.24,2.65a.42.42,0,0,0,.44,0l4-2.48a.23.23,0,0,0,.11-.2h0v-.52Z"/><path class="cls-5" d="M139.82,153.76a.42.42,0,0,0-.44,0l-3.74,2.3-.42-.14v.53h0a.23.23,0,0,0,.11.19l4.24,2.65a.42.42,0,0,0,.44,0l4-2.48a.23.23,0,0,0,.11-.2h0v-.52Z"/><path class="cls-5" d="M145.81,150.07a.42.42,0,0,0-.44,0l-3.74,2.3-.42-.14v.53h0a.23.23,0,0,0,.11.19l4.24,2.65a.42.42,0,0,0,.44,0l4-2.48a.23.23,0,0,0,.11-.2h0v-.52Z"/><path class="cls-5" d="M151.8,146.37a.42.42,0,0,0-.44,0l-3.74,2.3-.42-.14v.53h0a.23.23,0,0,0,.11.19l4.24,2.65a.42.42,0,0,0,.44,0l4-2.48a.23.23,0,0,0,.11-.2h0v-.52Z"/><path class="cls-5" d="M157.79,142.68a.42.42,0,0,0-.44,0l-3.74,2.3-.42-.14v.53h0a.23.23,0,0,0,.11.19l4.24,2.65a.42.42,0,0,0,.44,0l4-2.48a.23.23,0,0,0,.11-.2h0V145Z"/><path class="cls-10" d="M158,147.69l4-2.48a.23.23,0,0,0,0-.4l-4.23-2.65a.42.42,0,0,0-.44,0l-4,2.49a.23.23,0,0,0,0,.39l4.24,2.65A.42.42,0,0,0,158,147.69Z"/><path class="cls-5" d="M163.78,139a.42.42,0,0,0-.44,0l-3.74,2.3-.42-.14v.53h0a.23.23,0,0,0,.11.19l4.24,2.65a.42.42,0,0,0,.44,0l4-2.48a.23.23,0,0,0,.11-.2h0v-.52Z"/><path class="cls-5" d="M169.77,135.3a.42.42,0,0,0-.44,0l-3.74,2.3-.42-.14V138h0a.23.23,0,0,0,.11.19l4.24,2.65a.42.42,0,0,0,.44,0l4-2.48a.23.23,0,0,0,.11-.2h0v-.52Z"/><path class="cls-5" d="M175.76,131.6a.42.42,0,0,0-.44,0l-3.74,2.3-.42-.14v.53h0a.23.23,0,0,0,.11.19l4.24,2.65a.42.42,0,0,0,.44,0l4-2.48a.23.23,0,0,0,.11-.2h0v-.52Z"/><path class="cls-5" d="M181.75,127.91a.42.42,0,0,0-.44,0l-3.74,2.3-.42-.14v.53h0a.23.23,0,0,0,.11.19l4.24,2.65a.42.42,0,0,0,.44,0l4-2.48a.23.23,0,0,0,.11-.2h0v-.52Z"/><path class="cls-5" d="M187.74,124.22a.42.42,0,0,0-.44,0l-3.74,2.3-.42-.14v.53h0a.23.23,0,0,0,.11.19l4.24,2.65a.42.42,0,0,0,.44,0l4-2.48a.23.23,0,0,0,.11-.2h0v-.52Z"/><path class="cls-5" d="M128.53,169.06a.42.42,0,0,0-.44,0l-3.74,2.3-.42-.14v.53h0a.23.23,0,0,0,.11.19l4.24,2.65a.42.42,0,0,0,.44,0l4-2.48a.23.23,0,0,0,.11-.2h0v-.52Z"/><path class="cls-5" d="M134.52,165.36a.42.42,0,0,0-.44,0l-3.74,2.3-.42-.14v.53h0a.23.23,0,0,0,.11.19l4.24,2.65a.42.42,0,0,0,.44,0l4-2.48a.23.23,0,0,0,.11-.2h0v-.52Z"/><path class="cls-5" d="M140.51,161.67a.42.42,0,0,0-.44,0l-3.74,2.3-.42-.14v.53h0a.23.23,0,0,0,.11.19l4.24,2.65a.42.42,0,0,0,.44,0l4-2.48a.23.23,0,0,0,.11-.2h0V164Z"/><path class="cls-5" d="M146.5,158a.42.42,0,0,0-.44,0l-3.74,2.3-.42-.14v.53h0a.23.23,0,0,0,.11.19l4.24,2.65a.42.42,0,0,0,.44,0l4-2.48a.23.23,0,0,0,.11-.2h0v-.52Z"/><path class="cls-5" d="M152.49,154.28a.42.42,0,0,0-.44,0l-3.74,2.3-.42-.14V157h0a.23.23,0,0,0,.11.19l4.24,2.65a.42.42,0,0,0,.44,0l4-2.48a.23.23,0,0,0,.11-.2h0v-.52Z"/><path class="cls-5" d="M158.48,150.59a.42.42,0,0,0-.44,0l-3.74,2.3-.42-.14v.53h0a.23.23,0,0,0,.11.19l4.24,2.65a.42.42,0,0,0,.44,0l4-2.48a.23.23,0,0,0,.11-.2h0v-.52Z"/><path class="cls-5" d="M164.47,146.9a.42.42,0,0,0-.44,0l-3.74,2.3-.42-.14v.53h0a.23.23,0,0,0,.11.19l4.24,2.65a.42.42,0,0,0,.44,0l4-2.48a.23.23,0,0,0,.11-.2h0v-.52Z"/><path class="cls-5" d="M170.46,143.21a.42.42,0,0,0-.44,0l-3.74,2.3-.42-.14v.53h0a.23.23,0,0,0,.11.19l4.24,2.65a.42.42,0,0,0,.44,0l4-2.48a.23.23,0,0,0,.11-.2h0v-.52Z"/><path class="cls-5" d="M176.45,139.51a.42.42,0,0,0-.44,0l-3.74,2.3-.42-.14v.53h0a.23.23,0,0,0,.11.19l4.24,2.65a.42.42,0,0,0,.44,0l4-2.48a.23.23,0,0,0,.11-.2h0v-.52Z"/><path class="cls-5" d="M182.44,135.82a.42.42,0,0,0-.44,0l-3.74,2.3-.42-.14v.53h0a.23.23,0,0,0,.11.19l4.24,2.65a.42.42,0,0,0,.44,0l4-2.48a.23.23,0,0,0,.11-.2h0v-.52Z"/><path class="cls-5" d="M188.43,132.13a.42.42,0,0,0-.44,0l-3.74,2.3-.42-.14v.53h0a.23.23,0,0,0,.11.19l4.24,2.65a.42.42,0,0,0,.44,0l4-2.48a.23.23,0,0,0,.11-.2h0v-.52Z"/><path class="cls-5" d="M194.42,128.43a.42.42,0,0,0-.44,0l-3.74,2.3-.42-.14v.53h0a.23.23,0,0,0,.11.19l4.24,2.65a.42.42,0,0,0,.44,0l4-2.48a.23.23,0,0,0,.11-.2h0v-.52Z"/><path class="cls-5" d="M135.21,173.27a.42.42,0,0,0-.44,0l-3.74,2.3-.42-.14V176h0a.23.23,0,0,0,.11.19L135,178.8a.42.42,0,0,0,.44,0l4-2.48a.23.23,0,0,0,.11-.2h0v-.52Z"/><path class="cls-5" d="M141.2,169.58a.42.42,0,0,0-.44,0l-3.74,2.3-.42-.14v.53h0a.23.23,0,0,0,.11.19l4.24,2.65a.42.42,0,0,0,.44,0l4-2.48a.23.23,0,0,0,.11-.2h0v-.52Z"/><path class="cls-5" d="M147.19,165.89a.42.42,0,0,0-.44,0l-3.74,2.3-.42-.14v.53h0a.23.23,0,0,0,.11.19l4.24,2.65a.42.42,0,0,0,.44,0l4-2.48a.23.23,0,0,0,.11-.2h0v-.52Z"/><path class="cls-5" d="M153.18,162.19a.42.42,0,0,0-.44,0l-3.74,2.3-.42-.14v.53h0a.23.23,0,0,0,.11.19l4.24,2.65a.42.42,0,0,0,.44,0l4-2.48a.23.23,0,0,0,.11-.2h0v-.52Z"/><path class="cls-5" d="M159.17,158.5a.42.42,0,0,0-.44,0L155,160.8l-.42-.14v.53h0a.23.23,0,0,0,.11.19l4.24,2.65a.42.42,0,0,0,.44,0l4-2.48a.23.23,0,0,0,.11-.2h0v-.52Z"/><path class="cls-5" d="M165.16,154.81a.42.42,0,0,0-.44,0L161,157.1l-.42-.14v.53h0a.23.23,0,0,0,.11.19l4.24,2.65a.42.42,0,0,0,.44,0l4-2.48a.23.23,0,0,0,.11-.2h0v-.52Z"/><path class="cls-5" d="M171.14,151.11a.42.42,0,0,0-.44,0l-3.74,2.3-.42-.14v.53h0a.23.23,0,0,0,.11.19l4.24,2.65a.42.42,0,0,0,.44,0l4-2.48a.23.23,0,0,0,.11-.2h0v-.52Z"/><path class="cls-5" d="M177.13,147.42a.42.42,0,0,0-.44,0l-3.74,2.3-.42-.14v.53h0a.23.23,0,0,0,.11.19l4.24,2.65a.42.42,0,0,0,.44,0l4-2.48a.23.23,0,0,0,.11-.2h0v-.52Z"/><path class="cls-5" d="M183.12,143.73a.42.42,0,0,0-.44,0l-3.74,2.3-.42-.14v.53h0a.23.23,0,0,0,.11.19l4.24,2.65a.42.42,0,0,0,.44,0l4-2.48a.23.23,0,0,0,.11-.2h0v-.52Z"/><path class="cls-5" d="M189.11,140a.42.42,0,0,0-.44,0l-3.74,2.3-.42-.14v.53h0a.23.23,0,0,0,.11.19l4.24,2.65a.42.42,0,0,0,.44,0l4-2.48a.23.23,0,0,0,.11-.2h0v-.52Z"/><path class="cls-5" d="M195.1,136.34a.42.42,0,0,0-.44,0l-3.74,2.3-.42-.14V139h0a.23.23,0,0,0,.11.19l4.24,2.65a.42.42,0,0,0,.44,0l4-2.48a.23.23,0,0,0,.11-.2h0v-.52Z"/><path class="cls-5" d="M201.09,132.65a.42.42,0,0,0-.44,0l-3.74,2.3-.42-.14v.53h0a.23.23,0,0,0,.11.19l4.24,2.65a.42.42,0,0,0,.44,0l4-2.48a.23.23,0,0,0,.11-.2h0V135Z"/><path class="cls-5" d="M141.88,177.49a.42.42,0,0,0-.44,0l-3.74,2.3-.42-.14v.53h0a.23.23,0,0,0,.11.19l4.24,2.65a.42.42,0,0,0,.44,0l4-2.48a.23.23,0,0,0,.11-.2h0v-.52Z"/><path class="cls-5" d="M147.87,173.8a.42.42,0,0,0-.44,0l-3.74,2.3-.42-.14v.53h0a.23.23,0,0,0,.11.19l4.24,2.65a.42.42,0,0,0,.44,0l4-2.48a.23.23,0,0,0,.11-.2h0v-.52Z"/><path class="cls-5" d="M153.86,170.1a.42.42,0,0,0-.44,0l-3.74,2.3-.42-.14v.53h0a.23.23,0,0,0,.11.19l4.24,2.65a.42.42,0,0,0,.44,0l4-2.48a.23.23,0,0,0,.11-.2h0v-.52Z"/><path class="cls-5" d="M159.85,166.41a.42.42,0,0,0-.44,0l-3.74,2.3-.42-.14v.53h0a.23.23,0,0,0,.11.19l4.24,2.65a.42.42,0,0,0,.44,0l4-2.48a.23.23,0,0,0,.11-.2h0v-.52Z"/><path class="cls-5" d="M165.84,162.72a.42.42,0,0,0-.44,0l-3.74,2.3-.42-.14v.53h0a.23.23,0,0,0,.11.19l4.24,2.65a.42.42,0,0,0,.44,0l4-2.48a.23.23,0,0,0,.11-.2h0V165Z"/><path class="cls-5" d="M171.83,159a.42.42,0,0,0-.44,0l-3.74,2.3-.42-.14v.53h0a.23.23,0,0,0,.11.19l4.24,2.65a.42.42,0,0,0,.44,0l4-2.48a.23.23,0,0,0,.11-.2h0v-.52Z"/><path class="cls-5" d="M177.82,155.33a.42.42,0,0,0-.44,0l-3.74,2.3-.42-.14V158h0a.23.23,0,0,0,.11.19l4.24,2.65a.42.42,0,0,0,.44,0l4-2.48a.23.23,0,0,0,.11-.2h0v-.52Z"/><path class="cls-5" d="M183.81,151.64a.42.42,0,0,0-.44,0l-3.74,2.3-.42-.14v.53h0a.23.23,0,0,0,.11.19l4.24,2.65a.42.42,0,0,0,.44,0l4-2.48a.23.23,0,0,0,.11-.2h0V154Z"/><path class="cls-5" d="M189.8,147.95a.42.42,0,0,0-.44,0l-3.74,2.3-.42-.14v.53h0a.23.23,0,0,0,.11.19l4.24,2.65a.42.42,0,0,0,.44,0l4-2.48a.23.23,0,0,0,.11-.2h0v-.52Z"/><path class="cls-5" d="M195.79,144.25a.42.42,0,0,0-.44,0l-3.74,2.3-.42-.14v.53h0a.23.23,0,0,0,.11.19l4.24,2.65a.42.42,0,0,0,.44,0l4-2.48a.23.23,0,0,0,.11-.2h0v-.52Z"/><path class="cls-5" d="M201.78,140.56a.42.42,0,0,0-.44,0l-3.74,2.3-.42-.14v.53h0a.23.23,0,0,0,.11.19l4.24,2.65a.42.42,0,0,0,.44,0l4-2.48a.23.23,0,0,0,.11-.2h0v-.52Z"/><path class="cls-5" d="M207.77,136.87a.42.42,0,0,0-.44,0l-3.74,2.3-.42-.14v.53h0a.23.23,0,0,0,.11.19l4.24,2.65a.42.42,0,0,0,.44,0l4-2.48a.23.23,0,0,0,.11-.2h0v-.52Z"/><path class="cls-5" d="M148.56,181.71a.42.42,0,0,0-.44,0l-3.74,2.3-.42-.14v.53h0a.23.23,0,0,0,.11.19l4.24,2.65a.42.42,0,0,0,.44,0l4-2.48a.23.23,0,0,0,.11-.2h0V184Z"/><path class="cls-5" d="M154.55,178a.42.42,0,0,0-.44,0l-3.74,2.3-.42-.14v.53h0a.23.23,0,0,0,.11.19l4.24,2.65a.42.42,0,0,0,.44,0l4-2.48a.23.23,0,0,0,.11-.2h0v-.52Z"/><path class="cls-5" d="M160.54,174.32a.42.42,0,0,0-.44,0l-3.74,2.3-.42-.14V177h0a.23.23,0,0,0,.11.19l4.24,2.65a.42.42,0,0,0,.44,0l4-2.48a.23.23,0,0,0,.11-.2h0v-.52Z"/><path class="cls-5" d="M166.53,170.63a.42.42,0,0,0-.44,0l-3.74,2.3-.42-.14v.53h0a.23.23,0,0,0,.11.19l4.24,2.65a.42.42,0,0,0,.44,0l4-2.48a.23.23,0,0,0,.11-.2h0V173Z"/><path class="cls-5" d="M172.52,166.93a.42.42,0,0,0-.44,0l-3.74,2.3-.42-.14v.53h0a.23.23,0,0,0,.11.19l4.24,2.65a.42.42,0,0,0,.44,0l4-2.48a.23.23,0,0,0,.11-.2h0v-.52Z"/><path class="cls-5" d="M178.51,163.24a.42.42,0,0,0-.44,0l-3.74,2.3-.42-.14v.53h0a.23.23,0,0,0,.11.19l4.24,2.65a.42.42,0,0,0,.44,0l4-2.48a.23.23,0,0,0,.11-.2h0v-.52Z"/><path class="cls-5" d="M184.5,159.55a.42.42,0,0,0-.44,0l-3.74,2.3-.42-.14v.53h0a.23.23,0,0,0,.11.19l4.24,2.65a.42.42,0,0,0,.44,0l4-2.48a.23.23,0,0,0,.11-.2h0v-.52Z"/><path class="cls-5" d="M190.49,155.86a.42.42,0,0,0-.44,0l-3.74,2.3-.42-.14v.53h0a.23.23,0,0,0,.11.19l4.24,2.65a.42.42,0,0,0,.44,0l4-2.48a.23.23,0,0,0,.11-.2h0v-.52Z"/><path class="cls-5" d="M196.47,152.16a.42.42,0,0,0-.44,0l-3.74,2.3-.42-.14v.53h0a.23.23,0,0,0,.11.19l4.24,2.65a.42.42,0,0,0,.44,0l4-2.48a.23.23,0,0,0,.11-.2h0v-.52Z"/><path class="cls-5" d="M202.46,148.47a.42.42,0,0,0-.44,0l-3.74,2.3-.42-.14v.53h0a.23.23,0,0,0,.11.19l4.24,2.65a.42.42,0,0,0,.44,0l4-2.48a.23.23,0,0,0,.11-.2h0v-.52Z"/><path class="cls-5" d="M208.45,144.78a.42.42,0,0,0-.44,0l-3.74,2.3-.42-.14v.53h0a.23.23,0,0,0,.11.19l4.24,2.65a.42.42,0,0,0,.44,0l4-2.48a.23.23,0,0,0,.11-.2h0v-.52Z"/><path class="cls-5" d="M214.44,141.08a.42.42,0,0,0-.44,0l-3.74,2.3-.42-.14v.53h0a.23.23,0,0,0,.11.19l4.24,2.65a.42.42,0,0,0,.44,0l4-2.48a.23.23,0,0,0,.11-.2h0v-.52Z"/><path class="cls-5" d="M155.24,185.92a.42.42,0,0,0-.44,0l-3.74,2.3-.42-.14v.53h0a.23.23,0,0,0,.11.19l4.24,2.65a.42.42,0,0,0,.44,0l4-2.48a.23.23,0,0,0,.11-.2h0v-.52Z"/><path class="cls-5" d="M161.23,182.23a.42.42,0,0,0-.44,0l-3.74,2.3-.42-.14v.53h0a.23.23,0,0,0,.11.19l4.24,2.65a.42.42,0,0,0,.44,0l4-2.48a.23.23,0,0,0,.11-.2h0v-.52Z"/><path class="cls-5" d="M167.21,178.54a.42.42,0,0,0-.44,0l-3.74,2.3-.42-.14v.53h0a.23.23,0,0,0,.11.19l4.24,2.65a.42.42,0,0,0,.44,0l4-2.48a.23.23,0,0,0,.11-.2h0v-.52Z"/><path class="cls-5" d="M197.16,160.07a.42.42,0,0,0-.44,0l-3.74,2.3-.42-.14v.53h0a.23.23,0,0,0,.11.19l4.24,2.65a.42.42,0,0,0,.44,0l4-2.48a.23.23,0,0,0,.11-.2h0v-.52Z"/><path class="cls-5" d="M203.15,156.38a.42.42,0,0,0-.44,0l-3.74,2.3-.42-.14v.53h0a.23.23,0,0,0,.11.19l4.24,2.65a.42.42,0,0,0,.44,0l4-2.48a.23.23,0,0,0,.11-.2h0v-.52Z"/><path class="cls-5" d="M209.14,152.69a.42.42,0,0,0-.44,0L205,155l-.42-.14v.53h0a.23.23,0,0,0,.11.19l4.24,2.65a.42.42,0,0,0,.44,0l4-2.48a.23.23,0,0,0,.11-.2h0V155Z"/><path class="cls-5" d="M215.13,149a.42.42,0,0,0-.44,0l-3.74,2.3-.42-.14v.53h0a.23.23,0,0,0,.11.19l1.72,1.08a.42.42,0,0,0,.44,0l4-2.48a.23.23,0,0,0,.11-.2h0v-.52Z"/><path class="cls-5" d="M217.65,150.57a.42.42,0,0,0-.44,0l-3.74,2.3-.42-.14v.53h0a.23.23,0,0,0,.11.19l1.72,1.08a.42.42,0,0,0,.44,0l4-2.48a.23.23,0,0,0,.11-.2h0v-.52Z"/><path class="cls-5" d="M221.12,145.3a.42.42,0,0,0-.44,0l-3.74,2.3-.42-.14V148h0a.23.23,0,0,0,.11.19l4.24,2.65a.42.42,0,0,0,.44,0l4-2.48a.23.23,0,0,0,.11-.2h0v-.52Z"/><path class="cls-5" d="M191.17,163.77a.42.42,0,0,0-.44,0l-3.74,2.3-.42-.14v.53h0a.23.23,0,0,0,.11.19l2.05,1.28-12.83,8.36-2.7-1.45a.42.42,0,0,0-.44,0l-3.74,2.3-.42-.14v.53h0a.23.23,0,0,0,.11.19l4.24,2.65a.42.42,0,0,0,.44,0l4-2.48h0l16-9.88h0l1.95-1.2a.23.23,0,0,0,.11-.2h0v-.52Z"/><path class="cls-10" d="M122,169.84l4-2.48a.23.23,0,0,0,0-.4l-4.23-2.65a.42.42,0,0,0-.44,0l-4,2.49a.23.23,0,0,0,0,.39l4.24,2.65A.42.42,0,0,0,122,169.84Z"/><path class="cls-10" d="M128,166.15l4-2.48a.23.23,0,0,0,0-.4l-4.23-2.65a.42.42,0,0,0-.44,0l-4,2.49a.23.23,0,0,0,0,.39l4.24,2.65A.42.42,0,0,0,128,166.15Z"/><path class="cls-10" d="M134,162.46l4-2.48a.23.23,0,0,0,0-.4l-4.23-2.65a.42.42,0,0,0-.44,0l-4,2.49a.23.23,0,0,0,0,.39l4.24,2.65A.42.42,0,0,0,134,162.46Z"/><path class="cls-10" d="M140,158.77l4-2.48a.23.23,0,0,0,0-.4l-4.23-2.65a.42.42,0,0,0-.44,0l-4,2.49a.23.23,0,0,0,0,.39l4.24,2.65A.42.42,0,0,0,140,158.77Z"/><path class="cls-10" d="M146,155.07l4-2.48a.23.23,0,0,0,0-.4l-4.23-2.65a.42.42,0,0,0-.44,0l-4,2.49a.23.23,0,0,0,0,.39l4.24,2.65A.42.42,0,0,0,146,155.07Z"/><path class="cls-10" d="M152,151.38l4-2.48a.23.23,0,0,0,0-.4l-4.23-2.65a.42.42,0,0,0-.44,0l-4,2.49a.23.23,0,0,0,0,.39l4.24,2.65A.42.42,0,0,0,152,151.38Z"/><path class="cls-10" d="M164,144l4-2.48a.23.23,0,0,0,0-.4l-4.23-2.65a.42.42,0,0,0-.44,0l-4,2.49a.23.23,0,0,0,0,.39l4.24,2.65A.42.42,0,0,0,164,144Z"/><path class="cls-10" d="M170,140.3l4-2.48a.23.23,0,0,0,0-.4l-4.23-2.65a.42.42,0,0,0-.44,0l-4,2.49a.23.23,0,0,0,0,.39l4.24,2.65A.42.42,0,0,0,170,140.3Z"/><path class="cls-10" d="M176,136.61l4-2.48a.23.23,0,0,0,0-.4l-4.23-2.65a.42.42,0,0,0-.44,0l-4,2.49a.23.23,0,0,0,0,.39l4.24,2.65A.42.42,0,0,0,176,136.61Z"/><path class="cls-10" d="M181.94,132.91l4-2.48a.23.23,0,0,0,0-.4l-4.23-2.65a.42.42,0,0,0-.44,0l-4,2.49a.23.23,0,0,0,0,.39l4.24,2.65A.42.42,0,0,0,181.94,132.91Z"/><path class="cls-10" d="M187.93,129.22l4-2.48a.23.23,0,0,0,0-.4l-4.23-2.65a.42.42,0,0,0-.44,0l-4,2.49a.23.23,0,0,0,0,.39l4.24,2.65A.42.42,0,0,0,187.93,129.22Z"/><path class="cls-10" d="M128.73,174.06l4-2.48a.23.23,0,0,0,0-.4l-4.23-2.65a.42.42,0,0,0-.44,0L124,171a.23.23,0,0,0,0,.39l4.24,2.65A.42.42,0,0,0,128.73,174.06Z"/><path class="cls-10" d="M134.71,170.37l4-2.48a.23.23,0,0,0,0-.4l-4.23-2.65a.42.42,0,0,0-.44,0l-4,2.49a.23.23,0,0,0,0,.39l4.24,2.65A.42.42,0,0,0,134.71,170.37Z"/><path class="cls-10" d="M140.7,166.68l4-2.48a.23.23,0,0,0,0-.4l-4.23-2.65a.42.42,0,0,0-.44,0l-4,2.49a.23.23,0,0,0,0,.39l4.24,2.65A.42.42,0,0,0,140.7,166.68Z"/><path class="cls-10" d="M146.69,163l4-2.48a.23.23,0,0,0,0-.4l-4.23-2.65a.42.42,0,0,0-.44,0l-4,2.49a.23.23,0,0,0,0,.39l4.24,2.65A.42.42,0,0,0,146.69,163Z"/><path class="cls-10" d="M152.68,159.29l4-2.48a.23.23,0,0,0,0-.4l-4.23-2.65a.42.42,0,0,0-.44,0l-4,2.49a.23.23,0,0,0,0,.39l4.24,2.65A.42.42,0,0,0,152.68,159.29Z"/><path class="cls-10" d="M158.67,155.6l4-2.48a.23.23,0,0,0,0-.4l-4.23-2.65a.42.42,0,0,0-.44,0l-4,2.49a.23.23,0,0,0,0,.39l4.24,2.65A.42.42,0,0,0,158.67,155.6Z"/><path class="cls-10" d="M164.66,151.9l4-2.48a.23.23,0,0,0,0-.4l-4.23-2.65a.42.42,0,0,0-.44,0l-4,2.49a.23.23,0,0,0,0,.39l4.24,2.65A.42.42,0,0,0,164.66,151.9Z"/><path class="cls-10" d="M170.65,148.21l4-2.48a.23.23,0,0,0,0-.4l-4.23-2.65a.42.42,0,0,0-.44,0l-4,2.49a.23.23,0,0,0,0,.39l4.24,2.65A.42.42,0,0,0,170.65,148.21Z"/><path class="cls-10" d="M176.64,144.52l4-2.48a.23.23,0,0,0,0-.4L176.45,139a.42.42,0,0,0-.44,0l-4,2.49a.23.23,0,0,0,0,.39l4.24,2.65A.42.42,0,0,0,176.64,144.52Z"/><path class="cls-10" d="M182.63,140.82l4-2.48a.23.23,0,0,0,0-.4l-4.23-2.65a.42.42,0,0,0-.44,0l-4,2.49a.23.23,0,0,0,0,.39l4.24,2.65A.42.42,0,0,0,182.63,140.82Z"/><path class="cls-10" d="M188.62,137.13l4-2.48a.23.23,0,0,0,0-.4l-4.23-2.65a.42.42,0,0,0-.44,0l-4,2.49a.23.23,0,0,0,0,.39l4.24,2.65A.42.42,0,0,0,188.62,137.13Z"/><path class="cls-10" d="M194.61,133.44l4-2.48a.23.23,0,0,0,0-.4l-4.23-2.65a.42.42,0,0,0-.44,0l-4,2.49a.23.23,0,0,0,0,.39l4.24,2.65A.42.42,0,0,0,194.61,133.44Z"/><path class="cls-10" d="M135.4,178.28l4-2.48a.23.23,0,0,0,0-.4l-4.23-2.65a.42.42,0,0,0-.44,0l-4,2.49a.23.23,0,0,0,0,.39l4.24,2.65A.42.42,0,0,0,135.4,178.28Z"/><path class="cls-10" d="M141.39,174.58l4-2.48a.23.23,0,0,0,0-.4l-4.23-2.65a.42.42,0,0,0-.44,0l-4,2.49a.23.23,0,0,0,0,.39l4.24,2.65A.42.42,0,0,0,141.39,174.58Z"/><path class="cls-10" d="M147.38,170.89l4-2.48a.23.23,0,0,0,0-.4l-4.23-2.65a.42.42,0,0,0-.44,0l-4,2.49a.23.23,0,0,0,0,.39l4.24,2.65A.42.42,0,0,0,147.38,170.89Z"/><path class="cls-10" d="M153.37,167.2l4-2.48a.23.23,0,0,0,0-.4l-4.23-2.65a.42.42,0,0,0-.44,0l-4,2.49a.23.23,0,0,0,0,.39l4.24,2.65A.42.42,0,0,0,153.37,167.2Z"/><path class="cls-10" d="M159.36,163.51l4-2.48a.23.23,0,0,0,0-.4L159.17,158a.42.42,0,0,0-.44,0l-4,2.49a.23.23,0,0,0,0,.39l4.24,2.65A.42.42,0,0,0,159.36,163.51Z"/><path class="cls-10" d="M165.35,159.81l4-2.48a.23.23,0,0,0,0-.4l-4.23-2.65a.42.42,0,0,0-.44,0l-4,2.49a.23.23,0,0,0,0,.39l4.24,2.65A.42.42,0,0,0,165.35,159.81Z"/><path class="cls-10" d="M171.34,156.12l4-2.48a.23.23,0,0,0,0-.4l-4.23-2.65a.42.42,0,0,0-.44,0l-4,2.49a.23.23,0,0,0,0,.39l4.24,2.65A.42.42,0,0,0,171.34,156.12Z"/><path class="cls-10" d="M177.33,152.43l4-2.48a.23.23,0,0,0,0-.4l-4.23-2.65a.42.42,0,0,0-.44,0l-4,2.49a.23.23,0,0,0,0,.39l4.24,2.65A.42.42,0,0,0,177.33,152.43Z"/><path class="cls-10" d="M183.32,148.73l4-2.48a.23.23,0,0,0,0-.4l-4.23-2.65a.42.42,0,0,0-.44,0l-4,2.49a.23.23,0,0,0,0,.39l4.24,2.65A.42.42,0,0,0,183.32,148.73Z"/><path class="cls-10" d="M189.3,145l4-2.48a.23.23,0,0,0,0-.4l-4.23-2.65a.42.42,0,0,0-.44,0l-4,2.49a.23.23,0,0,0,0,.39l4.24,2.65A.42.42,0,0,0,189.3,145Z"/><path class="cls-10" d="M195.29,141.35l4-2.48a.23.23,0,0,0,0-.4l-4.23-2.65a.42.42,0,0,0-.44,0l-4,2.49a.23.23,0,0,0,0,.39l4.24,2.65A.42.42,0,0,0,195.29,141.35Z"/><path class="cls-10" d="M201.28,137.65l4-2.48a.23.23,0,0,0,0-.4l-4.23-2.65a.42.42,0,0,0-.44,0l-4,2.49a.23.23,0,0,0,0,.39l4.24,2.65A.42.42,0,0,0,201.28,137.65Z"/><path class="cls-10" d="M142.08,182.49l4-2.48a.23.23,0,0,0,0-.4L141.88,177a.42.42,0,0,0-.44,0l-4,2.49a.23.23,0,0,0,0,.39l4.24,2.65A.42.42,0,0,0,142.08,182.49Z"/><path class="cls-10" d="M148.07,178.8l4-2.48a.23.23,0,0,0,0-.4l-4.23-2.65a.42.42,0,0,0-.44,0l-4,2.49a.23.23,0,0,0,0,.39l4.24,2.65A.42.42,0,0,0,148.07,178.8Z"/><path class="cls-10" d="M154.06,175.11l4-2.48a.23.23,0,0,0,0-.4l-4.23-2.65a.42.42,0,0,0-.44,0l-4,2.49a.23.23,0,0,0,0,.39l4.24,2.65A.42.42,0,0,0,154.06,175.11Z"/><path class="cls-10" d="M160,171.42l4-2.48a.23.23,0,0,0,0-.4l-4.23-2.65a.42.42,0,0,0-.44,0l-4,2.49a.23.23,0,0,0,0,.39l4.24,2.65A.42.42,0,0,0,160,171.42Z"/><path class="cls-10" d="M166,167.72l4-2.48a.23.23,0,0,0,0-.4l-4.23-2.65a.42.42,0,0,0-.44,0l-4,2.49a.23.23,0,0,0,0,.39l4.24,2.65A.42.42,0,0,0,166,167.72Z"/><path class="cls-10" d="M172,164l4-2.48a.23.23,0,0,0,0-.4l-4.23-2.65a.42.42,0,0,0-.44,0l-4,2.49a.23.23,0,0,0,0,.39l4.24,2.65A.42.42,0,0,0,172,164Z"/><path class="cls-10" d="M178,160.34l4-2.48a.23.23,0,0,0,0-.4l-4.23-2.65a.42.42,0,0,0-.44,0l-4,2.49a.23.23,0,0,0,0,.39l4.24,2.65A.42.42,0,0,0,178,160.34Z"/><path class="cls-10" d="M184,156.64l4-2.48a.23.23,0,0,0,0-.4l-4.23-2.65a.42.42,0,0,0-.44,0l-4,2.49a.23.23,0,0,0,0,.39l4.24,2.65A.42.42,0,0,0,184,156.64Z"/><path class="cls-10" d="M190,153l4-2.48a.23.23,0,0,0,0-.4l-4.23-2.65a.42.42,0,0,0-.44,0l-4,2.49a.23.23,0,0,0,0,.39l4.24,2.65A.42.42,0,0,0,190,153Z"/><path class="cls-10" d="M196,149.26l4-2.48a.23.23,0,0,0,0-.4l-4.23-2.65a.42.42,0,0,0-.44,0l-4,2.49a.23.23,0,0,0,0,.39l4.24,2.65A.42.42,0,0,0,196,149.26Z"/><path class="cls-10" d="M202,145.56l4-2.48a.23.23,0,0,0,0-.4L201.78,140a.42.42,0,0,0-.44,0l-4,2.49a.23.23,0,0,0,0,.39l4.24,2.65A.42.42,0,0,0,202,145.56Z"/><path class="cls-10" d="M208,141.87l4-2.48a.23.23,0,0,0,0-.4l-4.23-2.65a.42.42,0,0,0-.44,0l-4,2.49a.23.23,0,0,0,0,.39l4.24,2.65A.42.42,0,0,0,208,141.87Z"/><path class="cls-10" d="M148.75,186.71l4-2.48a.23.23,0,0,0,0-.4l-4.23-2.65a.42.42,0,0,0-.44,0l-4,2.49a.23.23,0,0,0,0,.39l4.24,2.65A.42.42,0,0,0,148.75,186.71Z"/><path class="cls-10" d="M154.74,183l4-2.48a.23.23,0,0,0,0-.4l-4.23-2.65a.42.42,0,0,0-.44,0l-4,2.49a.23.23,0,0,0,0,.39L154.3,183A.42.42,0,0,0,154.74,183Z"/><path class="cls-10" d="M160.73,179.33l4-2.48a.23.23,0,0,0,0-.4l-4.23-2.65a.42.42,0,0,0-.44,0l-4,2.49a.23.23,0,0,0,0,.39l4.24,2.65A.42.42,0,0,0,160.73,179.33Z"/><path class="cls-10" d="M166.72,175.63l4-2.48a.23.23,0,0,0,0-.4l-4.23-2.65a.42.42,0,0,0-.44,0l-4,2.49a.23.23,0,0,0,0,.39l4.24,2.65A.42.42,0,0,0,166.72,175.63Z"/><path class="cls-10" d="M172.71,171.94l4-2.48a.23.23,0,0,0,0-.4l-4.23-2.65a.42.42,0,0,0-.44,0l-4,2.49a.23.23,0,0,0,0,.39l4.24,2.65A.42.42,0,0,0,172.71,171.94Z"/><path class="cls-10" d="M178.7,168.25l4-2.48a.23.23,0,0,0,0-.4l-4.23-2.65a.42.42,0,0,0-.44,0l-4,2.49a.23.23,0,0,0,0,.39l4.24,2.65A.42.42,0,0,0,178.7,168.25Z"/><path class="cls-10" d="M184.69,164.55l4-2.48a.23.23,0,0,0,0-.4L184.5,159a.42.42,0,0,0-.44,0l-4,2.49a.23.23,0,0,0,0,.39l4.24,2.65A.42.42,0,0,0,184.69,164.55Z"/><path class="cls-10" d="M190.68,160.86l4-2.48a.23.23,0,0,0,0-.4l-4.23-2.65a.42.42,0,0,0-.44,0l-4,2.49a.23.23,0,0,0,0,.39l4.24,2.65A.42.42,0,0,0,190.68,160.86Z"/><path class="cls-10" d="M196.67,157.17l4-2.48a.23.23,0,0,0,0-.4l-4.23-2.65a.42.42,0,0,0-.44,0l-4,2.49a.23.23,0,0,0,0,.39l4.24,2.65A.42.42,0,0,0,196.67,157.17Z"/><path class="cls-10" d="M202.66,153.47l4-2.48a.23.23,0,0,0,0-.4l-4.23-2.65a.42.42,0,0,0-.44,0l-4,2.49a.23.23,0,0,0,0,.39l4.24,2.65A.42.42,0,0,0,202.66,153.47Z"/><path class="cls-10" d="M208.65,149.78l4-2.48a.23.23,0,0,0,0-.4l-4.23-2.65a.42.42,0,0,0-.44,0l-4,2.49a.23.23,0,0,0,0,.39l4.24,2.65A.42.42,0,0,0,208.65,149.78Z"/><path class="cls-10" d="M214.64,146.09l4-2.48a.23.23,0,0,0,0-.4l-4.23-2.65a.42.42,0,0,0-.44,0L210,143a.23.23,0,0,0,0,.39l4.24,2.65A.42.42,0,0,0,214.64,146.09Z"/><path class="cls-10" d="M155.43,190.93l4-2.48a.23.23,0,0,0,0-.4l-4.23-2.65a.42.42,0,0,0-.44,0l-4,2.49a.23.23,0,0,0,0,.39l4.24,2.65A.42.42,0,0,0,155.43,190.93Z"/><path class="cls-10" d="M161.42,187.24l4-2.48a.23.23,0,0,0,0-.4l-4.23-2.65a.42.42,0,0,0-.44,0l-4,2.49a.23.23,0,0,0,0,.39l4.24,2.65A.42.42,0,0,0,161.42,187.24Z"/><path class="cls-10" d="M167.41,183.54l4-2.48a.23.23,0,0,0,0-.4L167.21,178a.42.42,0,0,0-.44,0l-4,2.49a.23.23,0,0,0,0,.39l4.24,2.65A.42.42,0,0,0,167.41,183.54Z"/><path class="cls-10" d="M197.35,165.08l4-2.48a.23.23,0,0,0,0-.4l-4.23-2.65a.42.42,0,0,0-.44,0l-4,2.49a.23.23,0,0,0,0,.39l4.24,2.65A.42.42,0,0,0,197.35,165.08Z"/><path class="cls-10" d="M203.34,161.38l4-2.48a.23.23,0,0,0,0-.4l-4.23-2.65a.42.42,0,0,0-.44,0l-4,2.49a.23.23,0,0,0,0,.39l4.24,2.65A.42.42,0,0,0,203.34,161.38Z"/><path class="cls-10" d="M209.33,157.69l4-2.48a.23.23,0,0,0,0-.4l-4.23-2.65a.42.42,0,0,0-.44,0l-4,2.49a.23.23,0,0,0,0,.39l4.24,2.65A.42.42,0,0,0,209.33,157.69Z"/><path class="cls-10" d="M212.81,152.43l4-2.48a.23.23,0,0,0,0-.4l-1.72-1.07a.42.42,0,0,0-.44,0l-4,2.49a.23.23,0,0,0,0,.39l1.72,1.08A.42.42,0,0,0,212.81,152.43Z"/><path class="cls-10" d="M215.33,154l4-2.48a.23.23,0,0,0,0-.4L217.65,150a.42.42,0,0,0-.44,0l-4,2.49a.23.23,0,0,0,0,.39l1.72,1.08A.42.42,0,0,0,215.33,154Z"/><path class="cls-10" d="M221.31,150.31l4-2.48a.23.23,0,0,0,0-.4l-4.23-2.65a.42.42,0,0,0-.44,0l-4,2.49a.23.23,0,0,0,0,.39l4.24,2.65A.42.42,0,0,0,221.31,150.31Z"/><path class="cls-10" d="M195.41,165.89l-4.23-2.65a.42.42,0,0,0-.44,0l-4,2.49h0l-14.83,9.15h0l-3.13,1.93a.23.23,0,0,0,0,.39l4.24,2.65a.42.42,0,0,0,.44,0l4-2.48h0l15.7-9.68h0l2.27-1.39A.23.23,0,0,0,195.41,165.89Z"/><path class="cls-11" d="M32.72,115.66v17.22a1.41,1.41,0,0,1-.61,1.17l-.05,0-5.63,3.47L14.8,144.72a.54.54,0,0,1-.61,0l-2.28-1.41a.67.67,0,0,1-.33-.57V126.08a1.85,1.85,0,0,1,.89-1.59l17.09-10.54a.7.7,0,0,1,.72,0l2.17,1.32.08,0A.43.43,0,0,1,32.72,115.66Z"/><path class="cls-12" d="M32.72,115.66v17.22a1.41,1.41,0,0,1-.61,1.17l-.05,0-5.63,3.47L14.8,144.72a.54.54,0,0,1-.61,0l-2.28-1.41a.67.67,0,0,1-.33-.57V126.08a1.85,1.85,0,0,1,.89-1.59l17.09-10.54a.7.7,0,0,1,.72,0l2.17,1.32.08,0A.43.43,0,0,1,32.72,115.66Z"/><path class="cls-11" d="M32.72,115.66v17.22a1.41,1.41,0,0,1-.61,1.17l-.05,0-5.63,3.47L14.8,144.72a.54.54,0,0,1-.61,0,.56.56,0,0,1-.26-.47V127.45a1.78,1.78,0,0,1,.83-1.5l17.3-10.66a.42.42,0,0,1,.39,0l.08,0A.43.43,0,0,1,32.72,115.66Z"/><path class="cls-13" d="M69.1,57.74V75a1.41,1.41,0,0,1-.61,1.17l-.05,0-5.63,3.47L51.18,86.8a.54.54,0,0,1-.61,0l-2.28-1.41a.67.67,0,0,1-.33-.57V68.16a1.85,1.85,0,0,1,.89-1.59L65.94,56a.7.7,0,0,1,.72,0l2.17,1.32.08,0A.43.43,0,0,1,69.1,57.74Z"/><path class="cls-14" d="M69.1,57.74V75a1.41,1.41,0,0,1-.61,1.17l-.05,0-5.63,3.47L51.18,86.8a.54.54,0,0,1-.61,0l-2.28-1.41a.67.67,0,0,1-.33-.57V68.16a1.85,1.85,0,0,1,.89-1.59L65.94,56a.7.7,0,0,1,.72,0l2.17,1.32.08,0A.43.43,0,0,1,69.1,57.74Z"/><path class="cls-13" d="M69.1,57.74V75a1.41,1.41,0,0,1-.61,1.17l-.05,0-5.63,3.47L51.18,86.8a.54.54,0,0,1-.61,0,.56.56,0,0,1-.26-.47V69.53a1.78,1.78,0,0,1,.83-1.5l17.3-10.66a.42.42,0,0,1,.39,0l.08,0A.43.43,0,0,1,69.1,57.74Z"/><path class="cls-10" d="M56.59,75.48a1.92,1.92,0,0,1-1.71,1.64,1.26,1.26,0,0,1-1.13-1.64,1.92,1.92,0,0,1,1.71-1.64A1.26,1.26,0,0,1,56.59,75.48Z"/><path class="cls-10" d="M61.63,72.65a1.92,1.92,0,0,1-1.71,1.64,1.26,1.26,0,0,1-1.13-1.64A1.92,1.92,0,0,1,60.5,71,1.26,1.26,0,0,1,61.63,72.65Z"/><path class="cls-10" d="M66.68,69.82A1.92,1.92,0,0,1,65,71.46a1.26,1.26,0,0,1-1.13-1.64,1.92,1.92,0,0,1,1.71-1.64A1.26,1.26,0,0,1,66.68,69.82Z"/><path class="cls-15" d="M87.43,104.36v17.22a1.41,1.41,0,0,1-.61,1.17l-.05,0-5.63,3.47-11.63,7.16a.54.54,0,0,1-.61,0L66.62,132a.66.66,0,0,1-.33-.57V114.78a1.85,1.85,0,0,1,.89-1.59l17.09-10.54a.7.7,0,0,1,.72,0L87.16,104l.08,0A.43.43,0,0,1,87.43,104.36Z"/><path class="cls-16" d="M87.43,104.36v17.22a1.41,1.41,0,0,1-.61,1.17l-.05,0-5.63,3.47-11.63,7.16a.54.54,0,0,1-.61,0,.56.56,0,0,1-.26-.47V116.15a1.78,1.78,0,0,1,.83-1.5L86.77,104a.42.42,0,0,1,.39,0l.08,0A.43.43,0,0,1,87.43,104.36Z"/><polygon class="cls-10" points="84.07 111.22 84.07 112.42 78.49 118.97 72.89 119.4 72.89 118.21 84.07 111.22"/><polygon class="cls-10" points="78.49 119.67 84.07 113.12 84.07 119.23 72.89 126.21 72.89 120.09 78.49 119.67"/><path class="cls-15" d="M229.54,6.09V24.36a1.5,1.5,0,0,1-.65,1.24l-.05,0L218.32,32,206,39.62a.57.57,0,0,1-.65,0l-2.42-1.49a.71.71,0,0,1-.35-.61V19.86a2,2,0,0,1,.95-1.69L226.19,4.27a.74.74,0,0,1,.76,0l2.3,1.4.08,0A.46.46,0,0,1,229.54,6.09Z"/><path class="cls-16" d="M229.54,6.09V24.36a1.5,1.5,0,0,1-.65,1.24l-.05,0L206,39.62a.57.57,0,0,1-.65,0,.6.6,0,0,1-.27-.5V21.31a1.89,1.89,0,0,1,.88-1.59l22.9-14a.44.44,0,0,1,.41,0l.08,0A.46.46,0,0,1,229.54,6.09Z"/><path class="cls-9" d="M222.22,5.26V8.72a.28.28,0,0,1-.12.23h0l-7.4,4.58L212.35,15a.11.11,0,0,1-.12,0l-.46-.28a.13.13,0,0,1-.07-.12V11.24a.37.37,0,0,1,.18-.32l9.7-6a.14.14,0,0,1,.14,0l.44.27h0A.09.09,0,0,1,222.22,5.26Z"/><path class="cls-10" d="M222.22,5.26V8.72a.28.28,0,0,1-.12.23h0l-9.74,6a.11.11,0,0,1-.12,0,.11.11,0,0,1-.05-.09V11.51a.36.36,0,0,1,.17-.3l9.75-6a.08.08,0,0,1,.08,0h0A.09.09,0,0,1,222.22,5.26Z"/><path class="cls-9" d="M228.08,2.26h0L227.63,2a.14.14,0,0,0-.14,0l-9.7,6a.37.37,0,0,0-.18.32v3.56l.47.3V12l.05,0a.11.11,0,0,0,.12,0l2.34-1.44L228,6h0a.28.28,0,0,0,.12-.23V2.33A.09.09,0,0,0,228.08,2.26Z"/><path class="cls-15" d="M211.92,10l-2.37-1.37h0a.59.59,0,0,0-.63,0L203.62,12a2.23,2.23,0,0,0-1,1.88v7l7.25-4.59V12.65L210,13s.87.26.94.26,1.37.82,1.37.82V10.9Z"/><path class="cls-16" d="M211.4,10l-5.3,3.36a2.23,2.23,0,0,0-1,1.88v7l7.25-4.59V10.55A.6.6,0,0,0,211.4,10Z"/><path class="cls-10" d="M228.08,2.26h0a.08.08,0,0,0-.08,0l-9.75,6a.36.36,0,0,0-.17.3v3.58l10-6.21V2.33A.09.09,0,0,0,228.08,2.26Z"/><path class="cls-4" d="M35.12,232.2l-4.54-1.61a.78.78,0,0,0-.93,1.11L31,234.08a3.34,3.34,0,0,0,1.14,1.19l33.67,20.88a4.33,4.33,0,0,0,4.56,0h0a1.28,1.28,0,0,0,0-2.17L35.76,232.51A3.34,3.34,0,0,0,35.12,232.2Z"/><path class="cls-16" d="M34.58,228.94l-.42.77-1.58,2.94-3.93-4.58a.14.14,0,0,1,0-.22.11.11,0,0,1,.11,0Z"/><path class="cls-17" d="M34.58,228.94l-.42.77-1.28-.07-4.18-1.79a.11.11,0,0,1,.11,0Z"/><path class="cls-18" d="M70,250.79l-.61,1.08-1.57,2.76L33.1,233.07h0a1.31,1.31,0,0,1-.26-.17,1.58,1.58,0,0,1-.51-.7,2.45,2.45,0,0,1,.13-1.9,2.71,2.71,0,0,1,.43-.65h0a2,2,0,0,1,1.65-.72,1.37,1.37,0,0,1,.47.13l.08,0,.1.06,0,0,0,0Z"/><path class="cls-19" d="M70,250.79l-.61,1.08-1.54-.46-35-21.74h0a2,2,0,0,1,1.65-.72,1.37,1.37,0,0,1,.47.13l.08,0,.1.06,0,0,0,0Z"/><path class="cls-20" d="M70.68,253.56a2,2,0,0,1-2.56,1.24h0a1.33,1.33,0,0,1-.27-.17,1.59,1.59,0,0,1-.51-.7,2.44,2.44,0,0,1,.13-1.9,2.2,2.2,0,0,1,2.09-1.37,1.39,1.39,0,0,1,.47.13l.08,0,.1.06,0,0A2.12,2.12,0,0,1,70.68,253.56Z"/><path class="cls-6" d="M64.13,247.13l3,1.84,0,0a1.37,1.37,0,0,0-.44-.12,2,2,0,0,0-1.67.74,2.34,2.34,0,0,0-.43.63,2.46,2.46,0,0,0-.12,1.9,1.59,1.59,0,0,0,.34.55.64.64,0,0,0,.14.13L62,251l-.18-.12a1.6,1.6,0,0,1-.5-.7,2.43,2.43,0,0,1,.13-1.9,2.39,2.39,0,0,1,.43-.64,2,2,0,0,1,1.66-.73,1.38,1.38,0,0,1,.48.14Z"/><path class="cls-10" d="M67.15,249l-.07,0,0,0Z"/><path class="cls-21" d="M70.07,250.82a1.17,1.17,0,0,0-.48-.13,2,2,0,0,0-1.65.72,2.68,2.68,0,0,0-.43.65,2.41,2.41,0,0,0-.13,1.9,1.65,1.65,0,0,0,.51.71L65,252.9a1,1,0,0,1-.18-.12.64.64,0,0,1-.14-.13,1.48,1.48,0,0,1-.37-.57,2.47,2.47,0,0,1,.13-1.9,2.85,2.85,0,0,1,.42-.64,2,2,0,0,1,1.67-.73,1.29,1.29,0,0,1,.48.14l0,0h0l0,0,0,0Z"/><path class="cls-4" d="M25.39,237.65,20.85,236a.78.78,0,0,0-.93,1.11l1.35,2.38a3.34,3.34,0,0,0,1.14,1.19l33.67,20.88a4.33,4.33,0,0,0,4.56,0h0a1.28,1.28,0,0,0,0-2.17L26,238A3.34,3.34,0,0,0,25.39,237.65Z"/><path class="cls-16" d="M24.85,234.39l-.42.77-1.58,2.94-3.93-4.58a.14.14,0,0,1,0-.22.11.11,0,0,1,.11,0Z"/><path class="cls-17" d="M24.85,234.39l-.42.77-1.28-.07L19,233.3a.11.11,0,0,1,.11,0Z"/><path class="cls-18" d="M60.31,256.24l-.61,1.08-1.57,2.76L23.37,238.52h0a1.32,1.32,0,0,1-.26-.17,1.58,1.58,0,0,1-.51-.7,2.45,2.45,0,0,1,.13-1.9,2.71,2.71,0,0,1,.43-.65h0a2,2,0,0,1,1.65-.72,1.37,1.37,0,0,1,.47.13l.08,0,.1.06,0,0,0,0Z"/><path class="cls-19" d="M60.31,256.24l-.61,1.08-1.54-.46-35-21.74h0a2,2,0,0,1,1.65-.72,1.37,1.37,0,0,1,.47.13l.08,0,.1.06,0,0,0,0Z"/><path class="cls-20" d="M61,259a2,2,0,0,1-2.56,1.24h0a1.33,1.33,0,0,1-.27-.17,1.59,1.59,0,0,1-.51-.7,2.44,2.44,0,0,1,.13-1.9,2.2,2.2,0,0,1,2.09-1.37,1.4,1.4,0,0,1,.47.13l.08,0,.1.06,0,0A2.12,2.12,0,0,1,61,259Z"/><path class="cls-6" d="M54.4,252.58l3,1.84,0,0a1.37,1.37,0,0,0-.44-.12,2,2,0,0,0-1.67.74,2.34,2.34,0,0,0-.43.63,2.46,2.46,0,0,0-.12,1.9,1.59,1.59,0,0,0,.34.55.64.64,0,0,0,.14.13l-2.82-1.73-.18-.12a1.6,1.6,0,0,1-.5-.7,2.43,2.43,0,0,1,.13-1.9,2.39,2.39,0,0,1,.43-.64,2,2,0,0,1,1.66-.73,1.38,1.38,0,0,1,.48.14Z"/><path class="cls-10" d="M57.42,254.46l-.07,0,0,0Z"/><path class="cls-21" d="M60.34,256.27a1.17,1.17,0,0,0-.48-.13,2,2,0,0,0-1.65.72,2.68,2.68,0,0,0-.43.65,2.41,2.41,0,0,0-.13,1.9,1.65,1.65,0,0,0,.51.71l-2.85-1.76a1,1,0,0,1-.18-.12.64.64,0,0,1-.14-.13,1.48,1.48,0,0,1-.37-.57,2.47,2.47,0,0,1,.13-1.9,2.85,2.85,0,0,1,.42-.64,2,2,0,0,1,1.67-.73,1.28,1.28,0,0,1,.48.14l0,0h0l0,0,0,0Z"/><path class="cls-10" d="M17.6,133.3a1.78,1.78,0,0,1,1.9,0,2.68,2.68,0,0,1-.24-1.14,7.67,7.67,0,0,1,3.67-5.85c2-1.17,3.64-.52,3.7,1.45a3.23,3.23,0,0,1,1.55-1.89,1.48,1.48,0,0,1,2.32,1.27,4.19,4.19,0,0,1-2,3.71l-10.41,6.08c-1,.56-1.75.2-2-.74A3.05,3.05,0,0,1,17.6,133.3Z"/><path class="cls-22" d="M61.49,228.56a3.38,3.38,0,0,0,1.35,1.53l4.49,2.76h0l.43.25L65.53,231h0Z"/><path class="cls-4" d="M43,226.13l4.49,2.77h0l34,20.76a7.23,7.23,0,0,0,7.36,0l47.71-29.12a3.48,3.48,0,0,0,1.53-4,3.41,3.41,0,0,0-1.53-2l-32.91-20.1-6.15-3.75a6.16,6.16,0,0,0-6.31,0L43,220.18A3.5,3.5,0,0,0,43,226.13Z"/><path class="cls-23" d="M41.36,220.46v0a4.43,4.43,0,0,0,.41.65.74.74,0,0,0,.16.2,3.4,3.4,0,0,0,.76.63l4.47,2.74,0,0,34,20.77a6.73,6.73,0,0,0,1.5.68v0h0a9.19,9.19,0,0,0,1.42.29h.11a8.06,8.06,0,0,0,1.39,0h.07a7.78,7.78,0,0,0,1.35-.31l.25-.07a7.21,7.21,0,0,0,1.25-.61l47.71-29.12a3.29,3.29,0,0,0,.84-.72c.06-.09.13-.18.17-.25a4,4,0,0,0,.39-.67,1.73,1.73,0,0,0,.11-.29,3.87,3.87,0,0,0,.16-.81v-1.26h0v-2l-1.54.05a1.25,1.25,0,0,0-.12-.08l-32.91-20.1L99.7,188l-.18-.09-2.29-1.42a6.11,6.11,0,0,0-6.31,0L77.4,194.79l-2.15-1.32a2.27,2.27,0,0,0-2.38,0L56.08,203.72l-1.38.84a1.26,1.26,0,0,0-.63.94v.32a1.37,1.37,0,0,0,.65,1l1.51.92-2.16,1.32-8.28,5L42.64,216A3.49,3.49,0,0,0,41.36,220.46Z"/><path class="cls-24" d="M82.72,243.72v2.47h0a9.19,9.19,0,0,0,1.42.29h.11a8.06,8.06,0,0,0,1.39,0h.07a7.78,7.78,0,0,0,1.35-.31l.25-.07a7.21,7.21,0,0,0,1.25-.61l47.71-29.12a3.29,3.29,0,0,0,.84-.72c.06-.09.13-.18.17-.25a4,4,0,0,0,.39-.67,1.73,1.73,0,0,0,.11-.29,3.87,3.87,0,0,0,.16-.81v-1.26h0V211l-.71.23Z"/><path class="cls-13" d="M54.07,203.41v2.41a1.37,1.37,0,0,0,.65,1l1.51.92-2.16,1.32v3.6s3.29-6.24,3.29-6.49v-2.25l-1.29-.19Z"/><path class="cls-14" d="M54.07,203.41v2.41a1.37,1.37,0,0,0,.65,1l1.51.92-2.16,1.32v3.6s3.29-6.24,3.29-6.49v-2.25l-1.29-.19Z"/><path class="cls-24" d="M41,216.22l2.06-.47,2.71-1.64.17,1,9.17-2.1,19.38-.6q0,2.25,0,4.51l-28,1.63.65,3.76v2.45l0,0L42.69,222a3.57,3.57,0,0,1-.76-.63,1.24,1.24,0,0,1-.16-.2,3.92,3.92,0,0,1-.4-.65v0a3.55,3.55,0,0,1-.32-1.62h0Z"/><path class="cls-13" d="M54.72,204.34l1.69,1h0l21.14-13L75.23,191a2.3,2.3,0,0,0-2.37,0L54.7,202.1A1.32,1.32,0,0,0,54.72,204.34Z"/><path class="cls-6" d="M42.69,219.51l4.49,2.77h0l34,20.76a7.23,7.23,0,0,0,7.36,0l47.71-29.12a3.48,3.48,0,0,0,1.53-4,3.41,3.41,0,0,0-1.53-2l-32.91-20.1-6.15-3.75a6.16,6.16,0,0,0-6.31,0L42.64,213.56A3.5,3.5,0,0,0,42.69,219.51Z"/><path class="cls-25" d="M82.75,243.72a7.13,7.13,0,0,0,5.9-.57L136.37,214a3.49,3.49,0,0,0,1.45-4c-1.46,1-2.75,1.83-3.34,2.2L86.76,241.25C86,241.72,84.49,242.7,82.75,243.72Z"/><path class="cls-25" d="M42.69,219.52l4.49,2.76h0l56.18-34.44-3.68-2.25-1.08-.65-1.39-.85a6.12,6.12,0,0,0-6.31,0L42.64,213.57A3.5,3.5,0,0,0,42.69,219.52Z"/><circle class="cls-26" cx="100.78" cy="193.93" r="0.26"/><circle class="cls-26" cx="60.1" cy="218.77" r="0.26"/><circle class="cls-26" cx="126.18" cy="209.46" r="0.26"/><circle class="cls-26" cx="85.5" cy="234.3" r="0.26"/><polygon class="cls-27" points="92.83 188.55 93.51 188.96 99.33 185.4 98.65 184.98 92.83 188.55"/><polygon class="cls-6" points="92.83 188.54 93.52 188.97 95.92 187.5 95.23 187.07 92.83 188.54"/><polygon class="cls-27" points="50.13 216.94 49.44 216.52 43.62 220.09 44.31 220.5 50.13 216.94"/><polygon class="cls-6" points="50.12 216.94 49.44 216.51 47.03 217.99 47.72 218.41 50.12 216.94"/><path class="cls-13" d="M241.26,58.6V84.15a2.09,2.09,0,0,1-.9,1.73l-.08.05-8.35,5.15-17.25,10.63a.8.8,0,0,1-.9,0l-3.38-2.09a1,1,0,0,1-.48-.85V74.06a2.75,2.75,0,0,1,1.32-2.36l25.35-15.64a1,1,0,0,1,1.07,0l3.22,2,.11.06A.64.64,0,0,1,241.26,58.6Z"/><path class="cls-14" d="M241.26,58.6V84.15a2.09,2.09,0,0,1-.9,1.73l-.08.05-8.35,5.15-17.25,10.63a.8.8,0,0,1-.9,0l-3.38-2.09a1,1,0,0,1-.48-.85V74.06a2.75,2.75,0,0,1,1.32-2.36l25.35-15.64a1,1,0,0,1,1.07,0l3.22,2,.11.06A.64.64,0,0,1,241.26,58.6Z"/><path class="cls-13" d="M241.26,58.6V84.15a2.09,2.09,0,0,1-.9,1.73l-.08.05-8.35,5.15-17.25,10.63a.8.8,0,0,1-.9,0,.84.84,0,0,1-.38-.7V76.09a2.64,2.64,0,0,1,1.23-2.22L240.3,58a.62.62,0,0,1,.57-.05l.11.06A.64.64,0,0,1,241.26,58.6Z"/><path class="cls-25" d="M239.18,84.26l0,0,0-21.67a.84.84,0,0,0-1.29-.72L215.68,75.57a.63.63,0,0,0-.28.52V97.4a.84.84,0,0,0,1.29.72Z"/><path class="cls-4" d="M116.56,242.57l27.64-16.87a1.4,1.4,0,0,1,1.46,0l.68.41,4.76-2.9a1.31,1.31,0,0,1,1.37,0l6.93,4.23a.64.64,0,0,1,0,1.09l-4.55,2.78.94.57a.52.52,0,0,1,0,.89l-28,17.07a1.23,1.23,0,0,1-1.28,0l-10-6.09A.69.69,0,0,1,116.56,242.57Z"/><polygon class="cls-21" points="117.86 237.68 117.86 241.28 123.99 241.03 120.53 239.45 120.59 238.01 119.71 237.66 117.86 237.68"/><polygon class="cls-14" points="117.86 237.68 117.86 241.28 123.99 241.03 120.53 239.45 120.59 238.01 119.71 237.66 117.86 237.68"/><path class="cls-5" d="M155.88,226.31l-6.1-3.72a1.16,1.16,0,0,0-1.2,0L130.2,233.8l7.49,4.57,18.18-11.1A.56.56,0,0,0,155.88,226.31Z"/><path class="cls-21" d="M152.7,231.34l-8.92-5.44a1.24,1.24,0,0,0-1.29,0l-24.34,14.85a.61.61,0,0,0,0,1l8.78,5.36a1.08,1.08,0,0,0,1.13,0l24.63-15A.46.46,0,0,0,152.7,231.34Z"/><path class="cls-14" d="M152.7,231.34l-8.92-5.44a1.24,1.24,0,0,0-1.29,0l-24.34,14.85a.61.61,0,0,0,0,1l8.78,5.36a1.08,1.08,0,0,0,1.13,0l24.63-15A.46.46,0,0,0,152.7,231.34Z"/><polygon class="cls-21" points="152.92 228.23 152.92 231.75 151.18 230.66 150.3 229.84 150.08 228.86 150.66 228.23 152.92 228.23"/><polygon class="cls-14" points="152.92 228.23 152.92 231.75 151.18 230.66 150.3 229.84 150.08 228.86 150.66 228.23 152.92 228.23"/><path class="cls-5" d="M156.15,224.36v2.4s-2,.29-2.1.29-.24-.22-.24-.79a10.73,10.73,0,0,1,.24-1.67l.41-.23Z"/><path class="cls-6" d="M155.88,223.88l-6.1-3.72a1.16,1.16,0,0,0-1.2,0L130.2,231.37l7.49,4.57,18.18-11.1A.56.56,0,0,0,155.88,223.88Z"/><polygon class="cls-21" points="151.18 224.6 151.99 225.1 153.18 224.37 152.37 223.87 151.18 224.6"/><polygon class="cls-21" points="147.85 222.53 148.67 223.03 149.86 222.3 149.04 221.8 147.85 222.53"/><path class="cls-21" d="M152.7,227.79l-8.92-5.44a1.24,1.24,0,0,0-1.29,0L118.16,237.2a.61.61,0,0,0,0,1l8.78,5.36a1.08,1.08,0,0,0,1.13,0l24.63-15A.46.46,0,0,0,152.7,227.79Z"/><path class="cls-21" d="M149.5,2.63V27.58a2,2,0,0,1-.88,1.69l-.07,0-8.16,5L123.54,44.73a.79.79,0,0,1-.88,0l-3.3-2a1,1,0,0,1-.47-.83V17.73a2.69,2.69,0,0,1,1.29-2.31L144.93.15a1,1,0,0,1,1,0L149.11,2l.11.06A.63.63,0,0,1,149.5,2.63Z"/><path class="cls-14" d="M149.5,2.63V27.58a2,2,0,0,1-.88,1.69l-.07,0-8.16,5L123.54,44.73a.79.79,0,0,1-.88,0l-3.3-2a1,1,0,0,1-.47-.83V17.73a2.69,2.69,0,0,1,1.29-2.31L144.93.15a1,1,0,0,1,1,0L149.11,2l.11.06A.63.63,0,0,1,149.5,2.63Z"/><path class="cls-21" d="M149.5,2.63V27.58a2,2,0,0,1-.88,1.69l-.07,0-8.16,5L123.54,44.73a.79.79,0,0,1-.88,0,.82.82,0,0,1-.37-.68V19.71a2.58,2.58,0,0,1,1.2-2.17L148.55,2.1a.6.6,0,0,1,.56,0l.11.06A.63.63,0,0,1,149.5,2.63Z"/><path class="cls-28" d="M146.6,26.64V8.23a.85.85,0,0,0-1.29-.72L125.59,19.65a.85.85,0,0,0-.4.72V38.79a.85.85,0,0,0,1.29.72L146.2,27.36A.85.85,0,0,0,146.6,26.64Z"/><text class="cls-29" transform="matrix(-1, 0.62, 0, 1, 143.88, 24.63)">i<tspan class="cls-30" x="4.5" y="0">A</tspan></text><path class="cls-4" d="M234.38,133.66a1.48,1.48,0,0,0,.72,1.28l37.13,22.67a1.45,1.45,0,0,0,1.56,0l6.25-3.81,1.87-1.14,18.95-11.55.91-.57,1.16-.71a1.43,1.43,0,0,0,.71-1.2,1.47,1.47,0,0,0-.71-1.35l-37-22.59a1.53,1.53,0,0,0-1.56,0l-2.48,1.51-.92.55-19,11.51-1.83,1.11-5,3A1.48,1.48,0,0,0,234.38,133.66Z"/><path class="cls-31" d="M300.58,133.35,266,112.24a1.4,1.4,0,0,0-1.46,0l-27.36,16.55a1.4,1.4,0,0,0,0,2.4l34.72,21.19a1.4,1.4,0,0,0,1.46,0l27.24-16.62A1.4,1.4,0,0,0,300.58,133.35Z"/><path class="cls-32" d="M238.82,129.71a.67.67,0,0,1,.28.5l25.42-15.38a1.4,1.4,0,0,1,1.46,0l33.27,20.3c.87-.24,2-.52,2-.52v2.67h0a1.36,1.36,0,0,1-.63,1L273.34,155a1.4,1.4,0,0,1-1.46,0l-34.72-21.19a1.34,1.34,0,0,1-.6-.91h-.07V130A8.05,8.05,0,0,1,238.82,129.71Z"/><path class="cls-9" d="M236.49,130v2.89h.07a1.32,1.32,0,0,0,.61.91L271.88,155a1.43,1.43,0,0,0,1.46,0l5.83-3.56,1.78-1.09,19.64-12a1.33,1.33,0,0,0,.62-1.05h0v-2.67s-1.14.29-2,.52L266,114.83a1.43,1.43,0,0,0-1.46,0L245.7,126.22l-1.71,1-4.88,3c-.05-.21-.12-.43-.29-.5A7.71,7.71,0,0,0,236.49,130Z"/><path class="cls-11" d="M236.49,130a1.39,1.39,0,0,0,.68,1.19l34.71,21.19a1.36,1.36,0,0,0,1.46,0l5.85-3.56,1.75-1.07,17.71-10.8.86-.53,1.09-.66a1.33,1.33,0,0,0,.66-1.12,1.37,1.37,0,0,0-.66-1.27L266,112.23a1.43,1.43,0,0,0-1.46,0l-2.32,1.41-.86.52-17.78,10.76-1.71,1-4.69,2.83A1.39,1.39,0,0,0,236.49,130Z"/><polygon class="cls-33" points="279.19 148.75 279.19 148.8 279.17 151.4 280.95 150.31 280.97 147.75 280.93 147.73 245.7 126.22 243.56 124.92 241.85 125.95 243.99 127.25 279.19 148.75"/><polygon class="cls-6" points="264.26 118.37 269.85 121.78 258.58 128.64 252.97 125.22 264.26 118.37"/><path class="cls-4" d="M90.76,260.09a.9.9,0,0,1,.5-.67l10.23-6.25,5.16-3.18a1.26,1.26,0,0,1,1.22,0l7.58,4.66a1.14,1.14,0,0,1,.59,1v0a1.15,1.15,0,0,1-.55,1l-1.85,1.14-2.43,1.46-5.12,3.15-6,3.69a1.26,1.26,0,0,1-1.22,0l-2.43-1.46-3.36-2.1-1.85-1.13a1,1,0,0,1-.5-.85v-.42Z"/><path class="cls-34" d="M92.48,255.13V255S92.45,255.1,92.48,255.13Z"/><path class="cls-11" d="M92.48,255V255l0-.05Z"/><path class="cls-11" d="M92.48,255.34v3.76h0a.83.83,0,0,0,.39.58l6.57,4a1.09,1.09,0,0,0,1.05,0l9.64-5.92c0-.65,0-1.27,0-1.88v-1.7l-4.41,2.71-5.2,3.18a1.09,1.09,0,0,1-1.05,0l-2.09-1.26L94.5,257l-1.59-1A.89.89,0,0,1,92.48,255.34Z"/><path class="cls-34" d="M92.52,255l8.63-2,3.5-2.17,1.55-.94a.92.92,0,0,1,1,0l2.82,1.73,4.22-.51V255h-.07a.82.82,0,0,1-.4.58l-3.65,2.24-9.64,5.92a1.08,1.08,0,0,1-.79.1,1.11,1.11,0,0,1-.26-.1l-6.57-4a1.12,1.12,0,0,1-.24-.23.73.73,0,0,1-.15-.35h0V259s0-.06,0-.09v-4Z"/><path class="cls-14" d="M92.52,255l8.63-2,3.5-2.17,1.55-.94a.92.92,0,0,1,1,0l2.82,1.73,4.22-.51V255h-.07a.82.82,0,0,1-.4.58l-3.65,2.24-9.64,5.92a1.08,1.08,0,0,1-.79.1,1.11,1.11,0,0,1-.26-.1l-6.57-4a1.12,1.12,0,0,1-.24-.23.73.73,0,0,1-.15-.35h0V259s0-.06,0-.09v-4Z"/><path class="cls-34" d="M101.76,249c.22.15.36.26.43.29l2.46,1.52,2,1.19,2.1,1.3c.14.07.68.43,1.41.9l2.09-1.26,1.59-1a1,1,0,0,0,.47-.83v0a1,1,0,0,0-.51-.83l-6.53-4a1.09,1.09,0,0,0-1,0Z"/><path class="cls-34" d="M92.48,255v.36a.89.89,0,0,0,.43.73l1.59,1,2.89,1.81,2.09,1.26a1.09,1.09,0,0,0,1.05,0l5.2-3.18,4.41-2.71c-.73-.47-1.27-.83-1.41-.9l-2.1-1.3-2-1.19-2.46-1.52c-.07,0-.21-.14-.43-.29L93,254.4a.78.78,0,0,0-.43.58Z"/><polyline class="cls-35" points="123.31 147.77 123.31 148.27 123.74 148.01"/><line class="cls-36" x1="125.41" y1="146.98" x2="169.83" y2="119.55"/><polyline class="cls-37" points="170.67 119.03 171.1 118.77 171.1 118.27"/><line class="cls-38" x1="171.1" y1="116.32" x2="171.1" y2="64.72"/><polyline class="cls-39" points="171.1 63.74 171.1 63.24 170.67 63.51"/><line class="cls-40" x1="169" y1="64.54" x2="124.58" y2="91.97"/><polyline class="cls-41" points="123.74 92.49 123.31 92.75 123.31 93.25"/><line class="cls-42" x1="123.31" y1="95.2" x2="123.31" y2="146.8"/><circle class="cls-43" cx="170.98" cy="62.78" r="1.6"/><circle class="cls-44" cx="123.31" cy="92.82" r="1.6"/><circle class="cls-45" cx="123.31" cy="148.41" r="1.6"/><circle class="cls-46" cx="171.02" cy="119.09" r="1.6"/><text class="cls-47" transform="matrix(1, -0.61, 0, 1, 218.79, 91.65)">PS</text><g id="_Group_" data-name="&lt;Group&gt;"><g id="_Group_2" data-name="&lt;Group&gt;"><polygon class="cls-48" points="165.41 93.34 168.24 96.31 166.36 96.33 164.23 93.91 165.41 93.34"/><polygon class="cls-49" points="164.23 93.91 166.36 96.33 165.1 97.53 163.39 95.19 164.23 93.91"/><polygon class="cls-50" points="166.36 96.33 164.32 103.64 165.1 97.53 166.36 96.33"/><polygon class="cls-51" points="164.32 103.64 166.14 107.99 163.83 106.77 164.32 103.64"/><polygon class="cls-52" points="163.83 106.77 166.14 107.99 164.87 109.63 163.83 106.77"/><polygon class="cls-53" points="166.14 107.99 164.71 115.28 164.32 115.76 164.59 112.7 164.87 109.63 166.14 107.99"/><polygon class="cls-48" points="163.39 95.19 165.1 97.53 161.21 96.73 163.39 95.19"/><polygon class="cls-54" points="165.1 97.53 164.32 103.64 161.21 100.09 165.1 97.53"/><polygon class="cls-54" points="165.1 97.53 161.21 100.09 158.9 98.83 165.1 97.53"/><polygon class="cls-55" points="165.1 97.53 158.9 98.83 161.21 96.73 165.1 97.53"/><polygon class="cls-56" points="163.83 106.77 164.87 109.63 163.63 110.97 163.83 106.77"/><polygon class="cls-52" points="164.87 109.63 164.59 112.7 163.14 119.56 163.49 114.59 164.87 109.63"/><polygon class="cls-49" points="164.87 109.63 163.49 114.59 163.63 110.97 163.63 110.97 164.87 109.63"/><polygon class="cls-57" points="164.71 115.28 164.46 118.8 163.83 119.17 164.32 115.76 164.71 115.28"/><polygon class="cls-58" points="164.59 112.7 164.32 115.76 163.83 119.17 163.14 119.56 164.59 112.7"/><polygon class="cls-50" points="161.21 100.09 164.32 103.64 162.65 104.7 158.48 101.47 158.9 98.83 161.21 100.09"/><polygon class="cls-57" points="164.32 103.64 163.83 106.77 161.33 107.76 162.65 104.7 164.32 103.64"/><polygon class="cls-59" points="164.23 93.91 163.39 95.19 160.87 94.67 164.23 93.91"/><polygon class="cls-57" points="163.83 106.77 163.63 110.97 163.63 110.97 163.57 112.28 162.84 110.9 163.83 106.77"/><polygon class="cls-50" points="163.83 106.77 162.84 110.9 161.33 107.76 163.83 106.77"/><polygon class="cls-60" points="162.84 110.9 163.57 112.28 162.1 116.04 161.72 116.2 162.84 110.9"/><polygon class="cls-61" points="163.49 114.59 163.14 119.56 162.25 120.07 163.49 114.59"/><polygon class="cls-51" points="163.39 95.19 161.21 96.73 160.87 94.67 163.39 95.19"/><polygon class="cls-62" points="161.33 107.76 162.84 110.9 161.61 111.51 160.46 108.93 159.19 108.09 161.33 107.76"/><polygon class="cls-63" points="162.84 110.9 161.72 116.2 161.29 116.27 161.61 111.51 162.84 110.9"/><polygon class="cls-64" points="158.48 101.47 162.65 104.7 158.76 106.61 158.48 101.47"/><polygon class="cls-65" points="162.65 104.7 161.33 107.76 159.19 108.09 158.76 106.61 162.65 104.7"/><polygon class="cls-58" points="162.1 116.04 161.45 120.54 160.56 121.06 161.72 116.2 162.1 116.04"/><polygon class="cls-56" points="161.72 116.2 160.56 121.06 159.19 121.84 161.29 116.27 161.72 116.2"/><polygon class="cls-66" points="160.87 94.67 161.21 96.73 157.31 96.53 160.87 94.67"/><polygon class="cls-67" points="161.21 96.73 158.9 98.83 157.31 96.53 161.21 96.73"/><polygon class="cls-68" points="158.76 106.61 159.19 108.09 154.42 112.83 158.76 106.61"/><polygon class="cls-48" points="157.31 96.53 158.9 98.83 152.92 99.75 157.31 96.53"/><polygon class="cls-65" points="158.9 98.83 158.48 101.47 152.67 102.64 158.9 98.83"/><polygon class="cls-69" points="158.9 98.83 152.67 102.64 152.92 99.75 158.9 98.83"/><polygon class="cls-70" points="158.48 101.47 158.76 106.61 152.67 102.64 158.48 101.47"/><polygon class="cls-64" points="152.67 102.64 158.76 106.61 152.51 105.98 152.67 102.64"/><polygon class="cls-57" points="158.76 106.61 154.42 112.83 155.52 109.25 158.76 106.61"/><polygon class="cls-71" points="158.76 106.61 155.52 109.25 152.51 105.98 158.76 106.61"/><polygon class="cls-56" points="152.51 105.98 155.52 109.25 153.39 110.93 152.51 105.98"/><polygon class="cls-72" points="155.52 109.25 154.42 112.83 153.39 110.93 155.52 109.25"/><polygon class="cls-70" points="153.39 110.93 154.42 112.83 150.07 112.54 153.39 110.93"/><polygon class="cls-68" points="154.42 112.83 146.38 116.72 150.07 112.54 154.42 112.83"/><polygon class="cls-50" points="152.51 105.98 153.39 110.93 150.07 112.54 152.51 105.98"/><polygon class="cls-54" points="147.19 105.59 147.19 105.59 152.92 99.75 152.67 102.64 147.19 105.59"/><polygon class="cls-73" points="152.92 99.75 147.19 105.59 147.38 103.11 152.92 99.75"/><polygon class="cls-74" points="152.67 102.64 152.51 105.98 148.29 109.93 152.67 102.64"/><polygon class="cls-75" points="152.67 102.64 148.29 109.93 147.68 107.53 147.19 105.59 152.67 102.64"/><polygon class="cls-76" points="152.51 105.98 150.07 112.54 148.29 109.93 152.51 105.98"/><polygon class="cls-77" points="148.29 109.93 150.07 112.54 144.4 113.82 146.32 111.89 148.28 109.94 148.28 109.93 148.29 109.93"/><polygon class="cls-57" points="150.07 112.54 146.38 116.72 145.14 117.66 144.4 113.82 150.07 112.54"/><polygon class="cls-78" points="148.01 125.08 149.47 127.2 148.78 127.6 147.6 125.41 148.01 125.08"/><polygon class="cls-61" points="147.6 125.41 148.78 127.6 147.74 128.2 147.01 125.95 147.6 125.41"/><polygon class="cls-70" points="148.28 109.93 148.28 109.94 146.32 111.89 148.28 109.93"/><polygon class="cls-79" points="147.68 107.53 148.28 109.93 146.32 111.89 144.4 113.81 145.47 110.65 147.19 105.6 147.68 107.53"/><polygon class="cls-78" points="147.19 122.04 148.01 125.08 147.6 125.41 146.16 122.76 147.19 122.04"/><polygon class="cls-80" points="146.16 122.76 147.6 125.41 147.01 125.95 145.56 123.19 146.16 122.76"/><polygon class="cls-69" points="147.38 103.11 147.19 105.59 145.73 103.54 147.38 103.11"/><polygon class="cls-75" points="147.19 105.59 147.19 105.6 147.19 105.59 147.19 105.59"/><polygon class="cls-81" points="145.73 103.54 147.19 105.59 142.39 107.99 145.73 103.54"/><polygon class="cls-74" points="146.38 116.72 147.19 122.04 145.14 117.66 146.38 116.72"/><polygon class="cls-56" points="145.14 117.66 147.19 122.04 146.16 122.76 145.14 117.66"/><polygon class="cls-69" points="147.18 105.6 145.47 110.65 144.4 113.81 144.4 113.81 144.4 113.82 142.39 107.99 147.18 105.6"/><polygon class="cls-80" points="145.14 117.66 146.16 122.76 145.56 123.19 145.14 117.66"/><polygon class="cls-82" points="145.73 103.54 142.39 107.99 141.41 106.16 141.63 106.03 145.73 103.54"/><polygon class="cls-68" points="145.14 117.66 145.56 123.19 144.84 123.6 145.14 117.66"/><polygon class="cls-83" points="145.14 127.95 145.56 129.72 144.79 130.16 144.36 125.08 144.81 124.29 145.14 127.95"/><polygon class="cls-69" points="145.47 110.65 144.4 113.81 144.4 113.81 145.47 110.65"/><polygon class="cls-68" points="144.4 113.82 145.14 117.66 144.06 117.73 144.4 113.82"/><polygon class="cls-84" points="145.14 117.66 144.84 123.6 144.81 124.29 144.36 125.08 144.06 124.72 144.06 117.73 145.14 117.66"/><polygon class="cls-85" points="144.6 92.58 144.82 95.5 143.98 95.74 144.13 92.86 144.6 92.58"/><polygon class="cls-86" points="144.82 95.5 142.57 98.91 143.98 95.74 144.82 95.5"/><polygon class="cls-87" points="144.36 125.08 144.79 130.16 143.87 130.69 143.87 128.75 143.3 125.17 144.06 124.72 144.36 125.08"/><polygon class="cls-75" points="142.39 107.99 144.4 113.82 138.43 114.66 142.39 107.99"/><polygon class="cls-88" points="144.4 113.82 144.06 117.73 141.37 115.84 138.43 114.66 144.4 113.82"/><polygon class="cls-89" points="144.06 117.73 144.06 124.72 143.3 125.17 142.04 119.98 144.06 117.73"/><polygon class="cls-71" points="141.37 115.84 144.06 117.73 138.66 117.41 141.37 115.84"/><polygon class="cls-90" points="144.06 117.73 142.04 119.98 138.66 117.41 144.06 117.73"/><path class="cls-91" d="M144,95.74l-1.41,3.17-2.9,3.54h-.19l1.66-3.14,0,0,1.6-1.56Z"/><polygon class="cls-92" points="142.48 91.73 142.62 94.71 142.03 92.07 142.48 91.73"/><polygon class="cls-93" points="142.03 92.07 142.62 94.71 140.16 99.2 141.93 94.97 142.03 92.07"/><polygon class="cls-85" points="142.62 94.71 141.8 98.07 140.16 99.2 142.62 94.71"/><polygon class="cls-94" points="141.41 106.16 142.39 107.99 140.44 107.01 140.96 106.42 141.41 106.16"/><polygon class="cls-95" points="140.44 107.01 142.39 107.99 137.32 107.57 139.29 106.44 140.44 107.01"/><polygon class="cls-96" points="142.39 107.99 138.43 114.66 135.85 111.04 142.39 107.99"/><polygon class="cls-94" points="142.39 107.99 135.85 111.04 137.32 107.57 142.39 107.99"/><polygon class="cls-85" points="141.8 104.36 141.89 105.06 141.55 105.55 141.8 104.36"/><polygon class="cls-97" points="141.89 105.06 141.63 106.03 141.41 106.16 141.55 105.55 141.89 105.06"/><polygon class="cls-98" points="141.8 104.36 141.55 105.55 140.96 105.89 140.72 104.86 141.8 104.36"/><path class="cls-86" d="M140.17,99.2l1.64-1.13-.64,1.2,0,0c-.69,1.28-1.66,3.1-1.66,3.14h-.56Z"/><polygon class="cls-97" points="141.8 104.36 140.72 104.86 139.07 104.19 140.03 103.63 141.8 104.36"/><polygon class="cls-99" points="141.65 100.13 140.96 102.53 140.03 103.63 141.65 100.13"/><polygon class="cls-100" points="141.65 100.13 140.03 103.63 140.7 102.19 141.65 100.13"/><polygon class="cls-101" points="141.65 100.13 140.7 102.19 140.03 103.63 139.66 102.45 141.65 100.13"/><polygon class="cls-85" points="141.55 105.55 141.41 106.16 140.96 106.42 140.96 105.89 141.55 105.55"/><polygon class="cls-102" points="141.37 115.84 138.66 117.41 135.85 116.91 138.43 114.66 141.37 115.84"/><polygon class="cls-97" points="140.96 105.89 140.96 106.42 140.44 107.01 139.29 106.44 140.33 105.73 140.96 105.89"/><polygon class="cls-85" points="140.72 104.86 140.96 105.89 140.33 105.73 140.72 104.86"/><polygon class="cls-101" points="140.72 104.86 140.33 105.73 139.29 106.44 140.72 104.86"/><polygon class="cls-101" points="140.72 104.86 139.29 106.44 138.09 104.75 139.07 104.19 140.72 104.86"/><polygon class="cls-93" points="140.16 96.41 140.16 99.2 139.07 100.92 139.66 97.11 139.66 94.36 139.65 94.19 139.37 89.93 139.85 89.65 140.16 96.41"/><polygon class="cls-103" points="140.16 99.2 138.92 102.45 138.27 102.78 139.07 100.92 140.16 99.2"/><polygon class="cls-85" points="139.66 102.45 140.03 103.63 138.92 102.45 139.48 102.45 139.66 102.45"/><polygon class="cls-82" points="138.92 102.45 140.03 103.63 139.07 104.19 138.62 103.86 138.92 102.45"/><polygon class="cls-100" points="139.66 94.36 139.66 97.11 139.65 94.19 139.66 94.36"/><polygon class="cls-91" points="139.65 94.19 139.66 97.11 138.75 93.76 138.92 90.19 139.37 89.93 139.65 94.19"/><polygon class="cls-104" points="138.75 93.76 139.66 97.11 137.91 93.62 138.75 93.76"/><polygon class="cls-92" points="137.91 93.62 139.66 97.11 137.51 95.07 137.91 93.62"/><polygon class="cls-105" points="137.51 95.07 139.66 97.11 139.29 97.32 138.58 96.81 138.58 96.76 138.54 96.78 137.18 95.79 137.51 95.07"/><polygon class="cls-106" points="139.66 97.11 139.07 100.92 139.07 99.75 139.29 97.32 139.66 97.11"/><polygon class="cls-107" points="138.09 104.75 139.29 106.44 137.32 107.57 137.32 104.39 138.09 104.75"/><polygon class="cls-108" points="139.07 99.75 139.07 100.92 138.27 102.78 137.78 103.04 139.07 99.75"/><polygon class="cls-98" points="138.62 103.86 139.07 104.19 138.09 104.75 137.32 104.39 138.62 103.86"/><polygon class="cls-101" points="138.92 102.45 138.62 103.86 137.32 104.39 137.32 103.27 137.78 103.04 138.27 102.78 138.92 102.45"/><polygon class="cls-100" points="138.58 96.76 138.58 96.81 138.54 96.78 138.58 96.76"/><polygon class="cls-92" points="138.54 96.78 138.58 96.81 138.27 99.5 137.78 99.64 138.31 96.92 138.54 96.78"/><polygon class="cls-96" points="135.85 111.04 138.43 114.66 134 113.75 135.85 111.04"/><polygon class="cls-94" points="138.43 114.66 135.85 116.91 134 113.75 138.43 114.66"/><polygon class="cls-91" points="138.31 96.92 137.78 99.64 137.38 99.8 137.95 97.12 138.31 96.92"/><polygon class="cls-85" points="138.27 99.5 137.38 101.45 136.57 103.06 135.09 102.64 137.06 101.5 137.78 99.64 138.27 99.5"/><polygon class="cls-93" points="137.78 99.64 137.06 101.5 135.09 102.64 136.51 101.52 137.38 99.81 137.78 99.64"/><polygon class="cls-100" points="137.78 99.64 137.38 99.81 137.38 99.8 137.78 99.64"/><polygon class="cls-101" points="137.32 104.39 137.32 107.57 135.38 106.32 135.38 105.26 137.32 104.39"/><polygon class="cls-103" points="137.32 103.27 137.32 104.39 136.03 104.26 136.27 104.08 137.32 103.27"/><polygon class="cls-107" points="135.38 106.32 137.32 107.57 135.85 111.04 135.38 106.32"/><polygon class="cls-109" points="137.32 103.27 136.27 104.08 135.09 102.64 137.32 103.27"/><polygon class="cls-82" points="137.32 104.39 135.38 105.26 135.7 104.77 136.03 104.26 137.32 104.39"/><polygon class="cls-108" points="135.09 102.64 136.27 104.08 136.03 104.26 134.1 103.03 134.46 102.89 135.09 102.64"/><polygon class="cls-107" points="134.1 103.03 136.03 104.26 135.7 104.77 134 103.85 134 103.56 133.99 103.41 134 103.26 134.1 103.03"/><polygon class="cls-90" points="135.38 106.32 135.85 111.04 134.1 109.85 134.79 106.91 135.38 106.32"/><polygon class="cls-97" points="134.1 109.85 135.85 111.04 134 113.75 134.1 109.85"/><polygon class="cls-91" points="134 103.85 135.7 104.77 135.38 105.26 134.44 104.58 134 103.85"/><path class="cls-92" d="M135.42,97.06l-.41,3.07s.07,2.46.08,2.51l-.52-2.47L135,97.3Z"/><polygon class="cls-107" points="135.38 105.26 135.38 106.32 135.05 106.36 134.34 105.09 135.38 105.26"/><polygon class="cls-85" points="134.44 104.58 135.38 105.26 134.34 105.09 133.26 105.46 132.78 105.62 132.45 105.22 134.44 104.58"/><polygon class="cls-96" points="135.38 106.32 134.79 106.91 134.81 106.65 135.05 106.36 135.38 106.32"/><polygon class="cls-91" points="134.57 100.17 135.09 102.64 134.46 102.89 134.57 100.17"/><polygon class="cls-101" points="134.34 105.09 135.05 106.36 134.81 106.65 133.81 106.3 133.26 105.46 134.34 105.09"/><polygon class="cls-99" points="134.81 106.65 134.79 106.91 133.41 106.94 132.78 105.62 133.26 105.46 133.81 106.3 134.81 106.65"/><polygon class="cls-85" points="134 103.85 134.44 104.58 131.46 104.4 131.55 103.99 134 103.85"/><polygon class="cls-106" points="134.1 103.03 134 103.26 131.63 103.12 131.92 102.81 134.1 103.03"/><polygon class="cls-91" points="134 103.56 134 103.85 131.55 103.99 131.55 103.66 134 103.56"/><polygon class="cls-104" points="134 103.26 133.99 103.41 131.55 103.38 131.63 103.12 134 103.26"/><polygon class="cls-108" points="133.99 103.41 134 103.56 131.55 103.66 131.55 103.38 133.99 103.41"/><polygon class="cls-110" points="131.92 102.81 131.63 103.12 129.7 102.29 128.76 100.65 129.11 100.45 129.92 102.01 131.92 102.81"/><polygon class="cls-105" points="129.7 102.29 131.63 103.12 131.55 103.38 129.49 102.57 128.5 100.97 128.76 100.65 129.7 102.29"/><polygon class="cls-105" points="131.55 103.66 131.55 103.99 129.31 103.3 129.31 102.87 131.55 103.66"/><polygon class="cls-91" points="131.55 103.38 131.55 103.66 129.31 102.87 129.49 102.57 131.55 103.38"/><polygon class="cls-91" points="131.55 103.99 131.46 104.4 129.11 103.75 129.31 103.3 131.55 103.99"/><polygon class="cls-92" points="129.58 93.5 129.11 97.3 128.33 97.76 129.31 93.42 129.58 93.5"/><polygon class="cls-108" points="128.5 100.97 129.49 102.57 129.31 102.87 128.5 100.97"/><polygon class="cls-85" points="129.31 102.87 129.31 103.3 128.09 101.59 127.89 98.24 128.5 100.97 129.31 102.87"/><polygon class="cls-93" points="129.31 93.42 128.33 97.76 127.97 97.96 128.76 93.56 129.31 93.42"/><polygon class="cls-104" points="128.09 101.59 129.31 103.3 129.11 103.75 127.71 102.06 128.09 101.59"/><polygon class="cls-93" points="129.11 97.3 129.11 100.45 128.76 100.65 128.33 97.76 129.11 97.3"/><polygon class="cls-85" points="128.33 97.76 128.76 100.65 128.5 100.97 127.89 98.24 127.97 97.96 128.33 97.76"/><polygon class="cls-91" points="127.89 98.24 128.09 101.59 127.71 102.06 126.74 98.78 127.89 98.24"/><polygon class="cls-93" points="127.97 97.96 127.89 98.24 127.05 98.18 126.34 96.78 126.8 96.31 127.34 97.91 127.97 97.96"/><polygon class="cls-85" points="127.89 98.24 126.74 98.78 125.73 97.96 126.34 96.78 127.05 98.18 127.89 98.24"/></g></g></g></g></g></svg>