<svg width="682" height="153" viewBox="0 0 682 153" fill="none" xmlns="http://www.w3.org/2000/svg">
<rect width="682" height="153" fill="white"/>
<rect width="466" height="15" fill="url(#paint0_linear)"/>
<path d="M0 58H224V73H0V58Z" fill="url(#paint1_linear)"/>
<path d="M2 111H224V126H2V111Z" fill="url(#paint2_linear)"/>
<path d="M7.91895 29.4512H9.28857V31.3853H7.91895V34H5.52002V31.3853H0.564453L0.456543 29.8745L5.49512 21.9141H7.91895V29.4512ZM2.84717 29.4512H5.52002V25.1846L5.3623 25.4585L2.84717 29.4512ZM24.562 29.9741C24.4679 31.2746 23.9865 32.2983 23.1177 33.0454C22.2544 33.7925 21.1144 34.166 19.6978 34.166C18.1483 34.166 16.9281 33.6458 16.0371 32.6055C15.1517 31.5596 14.709 30.1263 14.709 28.3057V27.5669C14.709 26.4048 14.9137 25.381 15.3232 24.4956C15.7327 23.6102 16.3166 22.9323 17.0747 22.4619C17.8384 21.986 18.7238 21.748 19.731 21.748C21.1255 21.748 22.2489 22.1216 23.1011 22.8687C23.9533 23.6157 24.4458 24.6644 24.5786 26.0146H22.0884C22.0275 25.2344 21.8089 24.6699 21.4326 24.3213C21.0618 23.9671 20.4946 23.79 19.731 23.79C18.9009 23.79 18.2783 24.0889 17.8633 24.6865C17.4538 25.2786 17.2435 26.2 17.2324 27.4507V28.3638C17.2324 29.6698 17.4289 30.6243 17.8218 31.2275C18.2202 31.8307 18.8455 32.1323 19.6978 32.1323C20.467 32.1323 21.0397 31.958 21.416 31.6094C21.7979 31.2552 22.0164 30.7101 22.0718 29.9741H24.562ZM28.6875 29.7417V34H26.1973V21.9141H30.9121C31.8197 21.9141 32.6165 22.0801 33.3027 22.4121C33.9945 22.7441 34.5257 23.2173 34.8965 23.8315C35.2673 24.4403 35.4526 25.1348 35.4526 25.915C35.4526 27.0993 35.0459 28.0345 34.2324 28.7207C33.4245 29.4014 32.3039 29.7417 30.8706 29.7417H28.6875ZM28.6875 27.7246H30.9121C31.5706 27.7246 32.0715 27.5697 32.4146 27.2598C32.7632 26.9499 32.9375 26.5072 32.9375 25.9316C32.9375 25.3395 32.7632 24.8608 32.4146 24.4956C32.0659 24.1304 31.5845 23.9422 30.9702 23.9312H28.6875V27.7246ZM46.3184 21.9141V29.8745C46.3184 31.1971 45.9033 32.243 45.0732 33.0122C44.2487 33.7814 43.1198 34.166 41.6865 34.166C40.2754 34.166 39.1548 33.7925 38.3247 33.0454C37.4946 32.2983 37.0713 31.2718 37.0547 29.9658V21.9141H39.5449V29.8911C39.5449 30.6825 39.7331 31.2607 40.1094 31.626C40.4912 31.9857 41.0169 32.1655 41.6865 32.1655C43.0866 32.1655 43.7977 31.4295 43.8198 29.9575V21.9141H46.3184ZM62.0815 29.9741C61.9875 31.2746 61.506 32.2983 60.6372 33.0454C59.7739 33.7925 58.634 34.166 57.2173 34.166C55.6678 34.166 54.4476 33.6458 53.5566 32.6055C52.6712 31.5596 52.2285 30.1263 52.2285 28.3057V27.5669C52.2285 26.4048 52.4333 25.381 52.8428 24.4956C53.2523 23.6102 53.8361 22.9323 54.5942 22.4619C55.3579 21.986 56.2433 21.748 57.2505 21.748C58.645 21.748 59.7684 22.1216 60.6206 22.8687C61.4728 23.6157 61.9653 24.6644 62.0981 26.0146H59.6079C59.547 25.2344 59.3285 24.6699 58.9521 24.3213C58.5814 23.9671 58.0142 23.79 57.2505 23.79C56.4204 23.79 55.7979 24.0889 55.3828 24.6865C54.9733 25.2786 54.763 26.2 54.752 27.4507V28.3638C54.752 29.6698 54.9484 30.6243 55.3413 31.2275C55.7397 31.8307 56.3651 32.1323 57.2173 32.1323C57.9865 32.1323 58.5592 31.958 58.9355 31.6094C59.3174 31.2552 59.536 30.7101 59.5913 29.9741H62.0815ZM63.1855 29.4263C63.1855 28.5353 63.3571 27.7412 63.7002 27.0439C64.0433 26.3467 64.5358 25.8071 65.1777 25.4253C65.8252 25.0435 66.575 24.8525 67.4272 24.8525C68.6392 24.8525 69.627 25.2233 70.3906 25.9648C71.1598 26.7064 71.5887 27.7135 71.6772 28.9863L71.6938 29.6006C71.6938 30.9785 71.3092 32.0853 70.54 32.9209C69.7708 33.751 68.7388 34.166 67.4438 34.166C66.1489 34.166 65.1141 33.751 64.3394 32.9209C63.5701 32.0908 63.1855 30.9619 63.1855 29.5342V29.4263ZM65.5845 29.6006C65.5845 30.4528 65.745 31.1058 66.0659 31.5596C66.3869 32.0078 66.8462 32.2319 67.4438 32.2319C68.0249 32.2319 68.4787 32.0106 68.8052 31.5679C69.1317 31.1196 69.2949 30.4058 69.2949 29.4263C69.2949 28.5907 69.1317 27.9432 68.8052 27.4839C68.4787 27.0246 68.0194 26.7949 67.4272 26.7949C66.8407 26.7949 66.3869 27.0246 66.0659 27.4839C65.745 27.9377 65.5845 28.6432 65.5845 29.6006ZM78.2183 27.2681C77.8918 27.2238 77.604 27.2017 77.355 27.2017C76.4474 27.2017 75.8525 27.5088 75.5703 28.123V34H73.1714V25.0186H75.4375L75.5039 26.0894C75.9854 25.2648 76.6522 24.8525 77.5044 24.8525C77.77 24.8525 78.019 24.8885 78.2515 24.9604L78.2183 27.2681ZM83.3481 34.166C82.0311 34.166 80.9575 33.762 80.1274 32.9541C79.3029 32.1462 78.8906 31.0698 78.8906 29.7251V29.4927C78.8906 28.5907 79.0649 27.7855 79.4136 27.0771C79.7622 26.3633 80.2547 25.8154 80.8911 25.4336C81.533 25.0462 82.2635 24.8525 83.0825 24.8525C84.311 24.8525 85.2767 25.2399 85.9795 26.0146C86.6878 26.7894 87.042 27.8879 87.042 29.3101V30.2896H81.3228C81.4002 30.8761 81.6326 31.3465 82.02 31.7007C82.4129 32.0549 82.9082 32.2319 83.5059 32.2319C84.43 32.2319 85.1522 31.8971 85.6724 31.2275L86.8511 32.5474C86.4914 33.0565 86.0044 33.4549 85.3901 33.7427C84.7759 34.0249 84.0952 34.166 83.3481 34.166ZM83.0742 26.7949C82.5983 26.7949 82.2109 26.9554 81.9121 27.2764C81.6188 27.5973 81.4307 28.0566 81.3477 28.6543H84.6846V28.4634C84.6735 27.9321 84.5296 27.5226 84.2529 27.2349C83.9762 26.9416 83.5833 26.7949 83.0742 26.7949ZM93.2759 31.5181C93.2759 31.2248 93.1292 30.9951 92.8359 30.8291C92.5482 30.6576 92.0833 30.5054 91.4414 30.3726C89.3053 29.9243 88.2373 29.0168 88.2373 27.6499C88.2373 26.853 88.5666 26.189 89.2251 25.6577C89.8892 25.1209 90.7552 24.8525 91.8232 24.8525C92.9632 24.8525 93.8735 25.1209 94.5542 25.6577C95.2404 26.1945 95.5835 26.8918 95.5835 27.7495H93.1846C93.1846 27.4064 93.0739 27.1242 92.8525 26.9028C92.6312 26.6759 92.2853 26.5625 91.8149 26.5625C91.411 26.5625 91.0983 26.6538 90.877 26.8364C90.6556 27.019 90.5449 27.2515 90.5449 27.5337C90.5449 27.7993 90.6694 28.0151 90.9185 28.1812C91.173 28.3416 91.5991 28.4827 92.1968 28.6045C92.7944 28.7207 93.298 28.8535 93.7075 29.0029C94.9748 29.4678 95.6084 30.2729 95.6084 31.4185C95.6084 32.2375 95.257 32.9015 94.5542 33.4106C93.8514 33.9142 92.9438 34.166 91.8315 34.166C91.0789 34.166 90.4093 34.0332 89.8228 33.7676C89.2417 33.4964 88.7852 33.1284 88.4531 32.6636C88.1211 32.1932 87.9551 31.6868 87.9551 31.1445H90.2295C90.2516 31.5706 90.4093 31.8971 90.7026 32.124C90.9959 32.3509 91.3888 32.4644 91.8813 32.4644C92.3407 32.4644 92.6865 32.3786 92.9189 32.207C93.1569 32.0299 93.2759 31.8003 93.2759 31.5181ZM101.577 29.0942C101.577 27.8436 101.743 26.6427 102.075 25.4917C102.412 24.3407 102.913 23.2948 103.577 22.354C104.241 21.4132 104.93 20.7492 105.644 20.3618L105.959 21.3745C105.152 21.9943 104.487 22.9406 103.967 24.2134C103.453 25.4862 103.17 26.9111 103.121 28.4883L103.112 29.1938C103.112 31.3299 103.502 33.1838 104.283 34.7554C104.753 35.6961 105.312 36.4321 105.959 36.9634L105.644 37.9014C104.908 37.4919 104.205 36.8057 103.536 35.8428C102.23 33.9613 101.577 31.7118 101.577 29.0942ZM115.207 34H107.288V32.896L111.471 28.2476C112.091 27.5448 112.517 26.9748 112.75 26.5376C112.987 26.0949 113.106 25.6383 113.106 25.168C113.106 24.5371 112.916 24.0197 112.534 23.6157C112.152 23.2118 111.643 23.0098 111.006 23.0098C110.243 23.0098 109.648 23.2284 109.222 23.6655C108.801 24.0972 108.591 24.7004 108.591 25.4751H107.055C107.055 24.3628 107.412 23.4635 108.126 22.7773C108.845 22.0911 109.806 21.748 111.006 21.748C112.13 21.748 113.018 22.0441 113.671 22.6362C114.324 23.2228 114.65 24.0059 114.65 24.9854C114.65 26.1751 113.892 27.5918 112.376 29.2354L109.139 32.7466H115.207V34ZM117.024 33.1948C117.024 32.9292 117.102 32.7078 117.257 32.5308C117.417 32.3537 117.655 32.2651 117.971 32.2651C118.286 32.2651 118.524 32.3537 118.685 32.5308C118.851 32.7078 118.934 32.9292 118.934 33.1948C118.934 33.4494 118.851 33.6624 118.685 33.834C118.524 34.0055 118.286 34.0913 117.971 34.0913C117.655 34.0913 117.417 34.0055 117.257 33.834C117.102 33.6624 117.024 33.4494 117.024 33.1948ZM127.201 28.6875C126.88 29.0693 126.496 29.3765 126.047 29.6089C125.605 29.8413 125.118 29.9575 124.586 29.9575C123.889 29.9575 123.28 29.786 122.76 29.4429C122.246 29.0998 121.847 28.6183 121.565 27.9985C121.283 27.3732 121.142 26.6842 121.142 25.9316C121.142 25.1237 121.294 24.396 121.598 23.7485C121.908 23.1011 122.345 22.6058 122.91 22.2627C123.474 21.9196 124.133 21.748 124.885 21.748C126.081 21.748 127.021 22.1963 127.708 23.0928C128.399 23.9837 128.745 25.2012 128.745 26.7451V27.1934C128.745 29.5452 128.28 31.2635 127.351 32.3481C126.421 33.4272 125.018 33.9806 123.142 34.0083H122.843V32.7134H123.167C124.434 32.6912 125.408 32.362 126.089 31.7256C126.77 31.0837 127.14 30.071 127.201 28.6875ZM124.835 28.6875C125.35 28.6875 125.823 28.5298 126.255 28.2144C126.692 27.8989 127.01 27.5088 127.209 27.0439V26.4297C127.209 25.4225 126.991 24.6035 126.554 23.9727C126.117 23.3418 125.563 23.0264 124.894 23.0264C124.218 23.0264 123.676 23.2865 123.267 23.8066C122.857 24.3213 122.652 25.002 122.652 25.8486C122.652 26.6732 122.849 27.3538 123.242 27.8906C123.64 28.4219 124.171 28.6875 124.835 28.6875ZM144.4 32.4146C143.991 33.0011 143.418 33.4411 142.682 33.7344C141.952 34.0221 141.099 34.166 140.125 34.166C139.14 34.166 138.266 33.9364 137.502 33.4771C136.739 33.0122 136.147 32.3537 135.726 31.5015C135.311 30.6493 135.098 29.6615 135.087 28.5381V27.4839C135.087 25.6632 135.51 24.2521 136.357 23.2505C137.209 22.2489 138.404 21.748 139.943 21.748C141.205 21.748 142.22 22.0718 142.989 22.7192C143.758 23.3612 144.229 24.2743 144.4 25.4585H142.807C142.508 23.8592 141.556 23.0596 139.951 23.0596C138.883 23.0596 138.072 23.4359 137.519 24.1885C136.971 24.9355 136.694 26.0202 136.689 27.4424V28.4302C136.689 29.786 136.999 30.8651 137.619 31.6675C138.238 32.4644 139.077 32.8628 140.134 32.8628C140.731 32.8628 141.254 32.7964 141.703 32.6636C142.151 32.5308 142.522 32.3066 142.815 31.9912V29.2769H140.018V27.9819H144.4V32.4146ZM156.354 34H154.751V28.4136H148.659V34H147.065V21.9141H148.659V27.1104H154.751V21.9141H156.354V34ZM160.388 32.7466H165.642V34H158.512V32.8711L163.467 26.2886H158.586V25.0186H165.393V26.106L160.388 32.7466ZM167.327 36.4072L166.456 35.8096C166.976 35.0846 167.247 34.3376 167.269 33.5684V32.1821H168.771V33.3857C168.771 33.9447 168.633 34.5036 168.356 35.0625C168.085 35.6214 167.742 36.0697 167.327 36.4072ZM183.19 23.2256H179.305V34H177.72V23.2256H173.843V21.9141H183.19V23.2256ZM189.49 33.1118C188.893 33.8146 188.015 34.166 186.859 34.166C185.902 34.166 185.171 33.8893 184.667 33.3359C184.169 32.777 183.918 31.9525 183.912 30.8623V25.0186H185.448V30.8208C185.448 32.1821 186.001 32.8628 187.108 32.8628C188.281 32.8628 189.061 32.4256 189.449 31.5513V25.0186H190.984V34H189.523L189.49 33.1118ZM197.667 26.3965C197.434 26.3577 197.182 26.3384 196.911 26.3384C195.904 26.3384 195.221 26.7673 194.861 27.625V34H193.325V25.0186H194.819L194.844 26.0562C195.348 25.2537 196.062 24.8525 196.986 24.8525C197.285 24.8525 197.512 24.8913 197.667 24.9688V26.3965ZM206.689 29.6089C206.689 30.9813 206.374 32.0853 205.743 32.9209C205.112 33.751 204.266 34.166 203.203 34.166C202.069 34.166 201.192 33.7648 200.572 32.9624L200.497 34H199.086V21.25H200.622V26.0063C201.241 25.2371 202.096 24.8525 203.187 24.8525C204.277 24.8525 205.132 25.2648 205.751 26.0894C206.377 26.9139 206.689 28.0428 206.689 29.4761V29.6089ZM205.154 29.4346C205.154 28.3887 204.952 27.5807 204.548 27.0107C204.144 26.4408 203.563 26.1558 202.805 26.1558C201.792 26.1558 201.064 26.6261 200.622 27.5669V31.4517C201.092 32.3924 201.825 32.8628 202.821 32.8628C203.557 32.8628 204.13 32.5778 204.54 32.0078C204.949 31.4378 205.154 30.5801 205.154 29.4346ZM208.225 29.4263C208.225 28.5464 208.397 27.755 208.74 27.0522C209.088 26.3494 209.57 25.8071 210.184 25.4253C210.804 25.0435 211.509 24.8525 212.301 24.8525C213.524 24.8525 214.512 25.2759 215.264 26.1226C216.022 26.9692 216.401 28.0954 216.401 29.501V29.6089C216.401 30.4832 216.233 31.269 215.895 31.9663C215.563 32.658 215.084 33.1976 214.459 33.585C213.839 33.9723 213.125 34.166 212.317 34.166C211.1 34.166 210.112 33.7427 209.354 32.896C208.601 32.0493 208.225 30.9287 208.225 29.5342V29.4263ZM209.769 29.6089C209.769 30.605 209.999 31.4046 210.458 32.0078C210.923 32.611 211.543 32.9126 212.317 32.9126C213.098 32.9126 213.717 32.6082 214.177 31.9995C214.636 31.3853 214.866 30.5275 214.866 29.4263C214.866 28.4412 214.631 27.6444 214.16 27.0356C213.695 26.4214 213.076 26.1143 212.301 26.1143C211.543 26.1143 210.931 26.4159 210.466 27.019C210.001 27.6222 209.769 28.4855 209.769 29.6089ZM222.785 34V21.9141H226.736C228.047 21.9141 229.032 22.1852 229.691 22.7275C230.355 23.2699 230.687 24.0723 230.687 25.1348C230.687 25.6992 230.527 26.2 230.206 26.6372C229.885 27.0688 229.447 27.4036 228.894 27.6416C229.547 27.8242 230.062 28.1729 230.438 28.6875C230.82 29.1966 231.011 29.8053 231.011 30.5137C231.011 31.5983 230.659 32.4505 229.957 33.0703C229.254 33.6901 228.26 34 226.977 34H222.785ZM224.378 28.3472V32.6968H227.01C227.751 32.6968 228.335 32.5059 228.761 32.124C229.193 31.7367 229.409 31.2054 229.409 30.5303C229.409 29.0749 228.617 28.3472 227.035 28.3472H224.378ZM224.378 27.0688H226.786C227.483 27.0688 228.039 26.8945 228.454 26.5459C228.875 26.1973 229.085 25.7241 229.085 25.1265C229.085 24.4624 228.891 23.981 228.504 23.6821C228.117 23.3778 227.527 23.2256 226.736 23.2256H224.378V27.0688ZM232.729 29.4263C232.729 28.5464 232.901 27.755 233.244 27.0522C233.592 26.3494 234.074 25.8071 234.688 25.4253C235.308 25.0435 236.013 24.8525 236.805 24.8525C238.028 24.8525 239.015 25.2759 239.768 26.1226C240.526 26.9692 240.905 28.0954 240.905 29.501V29.6089C240.905 30.4832 240.736 31.269 240.399 31.9663C240.067 32.658 239.588 33.1976 238.963 33.585C238.343 33.9723 237.629 34.166 236.821 34.166C235.604 34.166 234.616 33.7427 233.858 32.896C233.105 32.0493 232.729 30.9287 232.729 29.5342V29.4263ZM234.273 29.6089C234.273 30.605 234.503 31.4046 234.962 32.0078C235.427 32.611 236.047 32.9126 236.821 32.9126C237.602 32.9126 238.221 32.6082 238.681 31.9995C239.14 31.3853 239.37 30.5275 239.37 29.4263C239.37 28.4412 239.134 27.6444 238.664 27.0356C238.199 26.4214 237.579 26.1143 236.805 26.1143C236.047 26.1143 235.435 26.4159 234.97 27.019C234.505 27.6222 234.273 28.4855 234.273 29.6089ZM242.424 29.4263C242.424 28.5464 242.596 27.755 242.939 27.0522C243.288 26.3494 243.769 25.8071 244.383 25.4253C245.003 25.0435 245.709 24.8525 246.5 24.8525C247.723 24.8525 248.711 25.2759 249.463 26.1226C250.222 26.9692 250.601 28.0954 250.601 29.501V29.6089C250.601 30.4832 250.432 31.269 250.094 31.9663C249.762 32.658 249.284 33.1976 248.658 33.585C248.038 33.9723 247.325 34.166 246.517 34.166C245.299 34.166 244.311 33.7427 243.553 32.896C242.801 32.0493 242.424 30.9287 242.424 29.5342V29.4263ZM243.968 29.6089C243.968 30.605 244.198 31.4046 244.657 32.0078C245.122 32.611 245.742 32.9126 246.517 32.9126C247.297 32.9126 247.917 32.6082 248.376 31.9995C248.835 31.3853 249.065 30.5275 249.065 29.4263C249.065 28.4412 248.83 27.6444 248.359 27.0356C247.895 26.4214 247.275 26.1143 246.5 26.1143C245.742 26.1143 245.13 26.4159 244.666 27.019C244.201 27.6222 243.968 28.4855 243.968 29.6089ZM257.756 31.6177C257.756 31.2026 257.598 30.8817 257.283 30.6548C256.973 30.4224 256.428 30.2231 255.647 30.0571C254.873 29.8911 254.256 29.6919 253.796 29.4595C253.343 29.2271 253.005 28.9504 252.784 28.6294C252.568 28.3084 252.46 27.9266 252.46 27.4839C252.46 26.7479 252.77 26.1253 253.39 25.6162C254.015 25.1071 254.812 24.8525 255.78 24.8525C256.799 24.8525 257.623 25.1154 258.254 25.6411C258.89 26.1668 259.208 26.8392 259.208 27.6582H257.665C257.665 27.2376 257.485 26.8752 257.125 26.5708C256.771 26.2664 256.323 26.1143 255.78 26.1143C255.221 26.1143 254.784 26.236 254.469 26.4795C254.153 26.723 253.996 27.0412 253.996 27.4341C253.996 27.8049 254.142 28.0843 254.436 28.2725C254.729 28.4606 255.257 28.6405 256.021 28.812C256.79 28.9836 257.413 29.1883 257.889 29.4263C258.365 29.6642 258.716 29.952 258.943 30.2896C259.175 30.6216 259.292 31.0283 259.292 31.5098C259.292 32.3122 258.971 32.9569 258.329 33.4438C257.687 33.9253 256.854 34.166 255.83 34.166C255.111 34.166 254.474 34.0387 253.921 33.7842C253.368 33.5296 252.933 33.1755 252.618 32.7217C252.308 32.2624 252.153 31.7671 252.153 31.2358H253.688C253.716 31.7505 253.921 32.16 254.303 32.4644C254.69 32.7632 255.199 32.9126 255.83 32.9126C256.411 32.9126 256.876 32.7964 257.225 32.564C257.579 32.326 257.756 32.0106 257.756 31.6177ZM263.375 22.8438V25.0186H265.052V26.2056H263.375V31.7754C263.375 32.1351 263.45 32.4062 263.6 32.5889C263.749 32.766 264.004 32.8545 264.363 32.8545C264.54 32.8545 264.784 32.8213 265.094 32.7549V34C264.69 34.1107 264.297 34.166 263.915 34.166C263.229 34.166 262.711 33.9585 262.363 33.5435C262.014 33.1284 261.84 32.5391 261.84 31.7754V26.2056H260.205V25.0186H261.84V22.8438H263.375ZM276.615 33.1118C276.018 33.8146 275.14 34.166 273.984 34.166C273.027 34.166 272.296 33.8893 271.792 33.3359C271.294 32.777 271.043 31.9525 271.037 30.8623V25.0186H272.573V30.8208C272.573 32.1821 273.126 32.8628 274.233 32.8628C275.406 32.8628 276.186 32.4256 276.574 31.5513V25.0186H278.109V34H276.648L276.615 33.1118ZM288.037 29.6089C288.037 30.9757 287.724 32.077 287.099 32.9126C286.474 33.7482 285.627 34.166 284.559 34.166C283.469 34.166 282.611 33.8201 281.986 33.1284V37.4531H280.45V25.0186H281.853L281.928 26.0146C282.553 25.2399 283.422 24.8525 284.534 24.8525C285.613 24.8525 286.465 25.2593 287.091 26.0728C287.722 26.8862 288.037 28.0179 288.037 29.4678V29.6089ZM286.501 29.4346C286.501 28.4219 286.286 27.6222 285.854 27.0356C285.422 26.4491 284.83 26.1558 284.078 26.1558C283.148 26.1558 282.451 26.568 281.986 27.3926V31.6841C282.445 32.5031 283.148 32.9126 284.094 32.9126C284.83 32.9126 285.414 32.6221 285.846 32.041C286.283 31.4544 286.501 30.5856 286.501 29.4346ZM296.296 22.8438V25.0186H297.973V26.2056H296.296V31.7754C296.296 32.1351 296.371 32.4062 296.521 32.5889C296.67 32.766 296.924 32.8545 297.284 32.8545C297.461 32.8545 297.705 32.8213 298.015 32.7549V34C297.611 34.1107 297.218 34.166 296.836 34.166C296.15 34.166 295.632 33.9585 295.284 33.5435C294.935 33.1284 294.761 32.5391 294.761 31.7754V26.2056H293.125V25.0186H294.761V22.8438H296.296ZM299.202 29.4263C299.202 28.5464 299.373 27.755 299.716 27.0522C300.065 26.3494 300.546 25.8071 301.161 25.4253C301.78 25.0435 302.486 24.8525 303.277 24.8525C304.5 24.8525 305.488 25.2759 306.241 26.1226C306.999 26.9692 307.378 28.0954 307.378 29.501V29.6089C307.378 30.4832 307.209 31.269 306.872 31.9663C306.54 32.658 306.061 33.1976 305.436 33.585C304.816 33.9723 304.102 34.166 303.294 34.166C302.076 34.166 301.089 33.7427 300.331 32.896C299.578 32.0493 299.202 30.9287 299.202 29.5342V29.4263ZM300.746 29.6089C300.746 30.605 300.975 31.4046 301.435 32.0078C301.899 32.611 302.519 32.9126 303.294 32.9126C304.074 32.9126 304.694 32.6082 305.153 31.9995C305.613 31.3853 305.842 30.5275 305.842 29.4263C305.842 28.4412 305.607 27.6444 305.137 27.0356C304.672 26.4214 304.052 26.1143 303.277 26.1143C302.519 26.1143 301.908 26.4159 301.443 27.019C300.978 27.6222 300.746 28.4855 300.746 29.6089ZM315.596 27.21H316.75C317.474 27.1989 318.044 27.008 318.459 26.6372C318.875 26.2664 319.082 25.7656 319.082 25.1348C319.082 23.7181 318.376 23.0098 316.965 23.0098C316.301 23.0098 315.77 23.2007 315.372 23.5825C314.979 23.9588 314.782 24.4596 314.782 25.085H313.247C313.247 24.1276 313.595 23.3335 314.292 22.7026C314.995 22.0662 315.886 21.748 316.965 21.748C318.105 21.748 318.999 22.0496 319.646 22.6528C320.294 23.256 320.618 24.0944 320.618 25.168C320.618 25.6937 320.446 26.2028 320.103 26.6953C319.765 27.1878 319.303 27.5558 318.717 27.7993C319.381 28.0096 319.893 28.3582 320.252 28.8452C320.618 29.3322 320.8 29.9271 320.8 30.6299C320.8 31.7145 320.446 32.575 319.738 33.2114C319.029 33.8478 318.108 34.166 316.974 34.166C315.839 34.166 314.915 33.8589 314.201 33.2446C313.493 32.6304 313.139 31.8197 313.139 30.8125H314.683C314.683 31.4489 314.89 31.958 315.305 32.3398C315.72 32.7217 316.276 32.9126 316.974 32.9126C317.715 32.9126 318.282 32.7189 318.675 32.3315C319.068 31.9442 319.265 31.388 319.265 30.6631C319.265 29.9603 319.049 29.4207 318.617 29.0444C318.186 28.6681 317.563 28.4744 316.75 28.4634H315.596V27.21ZM323.1 33.1948C323.1 32.9292 323.177 32.7078 323.332 32.5308C323.493 32.3537 323.73 32.2651 324.046 32.2651C324.361 32.2651 324.599 32.3537 324.76 32.5308C324.926 32.7078 325.009 32.9292 325.009 33.1948C325.009 33.4494 324.926 33.6624 324.76 33.834C324.599 34.0055 324.361 34.0913 324.046 34.0913C323.73 34.0913 323.493 34.0055 323.332 33.834C323.177 33.6624 323.1 33.4494 323.1 33.1948ZM328.097 27.9404L328.711 21.9141H334.903V23.3335H330.014L329.649 26.6289C330.241 26.2803 330.913 26.106 331.666 26.106C332.767 26.106 333.642 26.4712 334.289 27.2017C334.937 27.9266 335.26 28.9089 335.26 30.1484C335.26 31.3936 334.923 32.3758 334.248 33.0952C333.578 33.8091 332.64 34.166 331.434 34.166C330.366 34.166 329.494 33.87 328.819 33.2778C328.144 32.6857 327.759 31.8667 327.665 30.8208H329.118C329.212 31.5125 329.458 32.0355 329.856 32.3896C330.255 32.7383 330.781 32.9126 331.434 32.9126C332.147 32.9126 332.706 32.6691 333.11 32.1821C333.52 31.6951 333.725 31.0228 333.725 30.165C333.725 29.3571 333.503 28.7096 333.061 28.2227C332.623 27.7301 332.04 27.4839 331.309 27.4839C330.639 27.4839 330.114 27.6305 329.732 27.9238L329.325 28.2559L328.097 27.9404ZM350.476 32.4146C350.066 33.0011 349.493 33.4411 348.757 33.7344C348.027 34.0221 347.175 34.166 346.201 34.166C345.216 34.166 344.341 33.9364 343.578 33.4771C342.814 33.0122 342.222 32.3537 341.801 31.5015C341.386 30.6493 341.173 29.6615 341.162 28.5381V27.4839C341.162 25.6632 341.585 24.2521 342.432 23.2505C343.284 22.2489 344.48 21.748 346.018 21.748C347.28 21.748 348.295 22.0718 349.064 22.7192C349.834 23.3612 350.304 24.2743 350.476 25.4585H348.882C348.583 23.8592 347.631 23.0596 346.026 23.0596C344.958 23.0596 344.148 23.4359 343.594 24.1885C343.046 24.9355 342.77 26.0202 342.764 27.4424V28.4302C342.764 29.786 343.074 30.8651 343.694 31.6675C344.314 32.4644 345.152 32.8628 346.209 32.8628C346.807 32.8628 347.33 32.7964 347.778 32.6636C348.226 32.5308 348.597 32.3066 348.89 31.9912V29.2769H346.093V27.9819H350.476V32.4146ZM362.429 34H360.827V28.4136H354.734V34H353.14V21.9141H354.734V27.1104H360.827V21.9141H362.429V34ZM366.463 32.7466H371.717V34H364.587V32.8711L369.542 26.2886H364.662V25.0186H371.468V26.106L366.463 32.7466ZM376.997 29.1772C376.997 30.4113 376.833 31.5955 376.507 32.73C376.186 33.8589 375.691 34.902 375.021 35.8594C374.357 36.8167 373.66 37.4974 372.929 37.9014L372.605 36.9634C373.458 36.3104 374.141 35.2977 374.656 33.9253C375.176 32.5474 375.442 31.02 375.453 29.3433V29.0776C375.453 27.9155 375.331 26.8364 375.087 25.8403C374.844 24.8387 374.504 23.9422 374.066 23.1509C373.635 22.3595 373.148 21.7425 372.605 21.2998L372.929 20.3618C373.66 20.7658 374.354 21.4409 375.013 22.3872C375.677 23.3335 376.172 24.3766 376.499 25.5166C376.831 26.6566 376.997 27.8768 376.997 29.1772Z" fill="#555555"/>
<path d="M9.10596 146H0.821777V144.356L4.73145 140.189C5.26823 139.603 5.6639 139.091 5.91846 138.654C6.17855 138.217 6.30859 137.802 6.30859 137.409C6.30859 136.872 6.17301 136.451 5.90186 136.147C5.6307 135.837 5.24333 135.682 4.73975 135.682C4.19743 135.682 3.76855 135.87 3.45312 136.247C3.14323 136.617 2.98828 137.107 2.98828 137.716H0.581055C0.581055 136.98 0.755371 136.307 1.104 135.699C1.45817 135.09 1.95622 134.614 2.59814 134.271C3.24007 133.922 3.96777 133.748 4.78125 133.748C6.02637 133.748 6.99202 134.047 7.67822 134.645C8.36995 135.242 8.71582 136.086 8.71582 137.176C8.71582 137.774 8.56087 138.383 8.25098 139.002C7.94108 139.622 7.40983 140.344 6.65723 141.169L3.90967 144.066H9.10596V146ZM10.9404 140.057L11.6377 133.914H18.4111V135.915H13.605L13.3062 138.513C13.8761 138.208 14.4821 138.056 15.124 138.056C16.2751 138.056 17.1771 138.413 17.8301 139.127C18.4831 139.841 18.8096 140.84 18.8096 142.124C18.8096 142.904 18.6436 143.604 18.3115 144.224C17.985 144.838 17.5146 145.317 16.9004 145.66C16.2861 145.997 15.5612 146.166 14.7256 146.166C13.9951 146.166 13.3172 146.019 12.6919 145.726C12.0666 145.427 11.5713 145.009 11.2061 144.473C10.8464 143.936 10.6554 143.324 10.6333 142.638H13.0073C13.0571 143.142 13.2314 143.535 13.5303 143.817C13.8346 144.094 14.2303 144.232 14.7173 144.232C15.2596 144.232 15.6774 144.038 15.9707 143.651C16.264 143.258 16.4106 142.705 16.4106 141.991C16.4106 141.305 16.2419 140.779 15.9043 140.414C15.5667 140.048 15.0881 139.866 14.4683 139.866C13.8983 139.866 13.4362 140.015 13.082 140.314L12.8496 140.53L10.9404 140.057ZM26.853 133.79V135.765H26.6206C25.536 135.782 24.6616 136.064 23.9976 136.612C23.339 137.16 22.9434 137.921 22.8105 138.895C23.4525 138.242 24.2632 137.915 25.2427 137.915C26.2941 137.915 27.1297 138.291 27.7495 139.044C28.3693 139.797 28.6792 140.787 28.6792 142.016C28.6792 142.801 28.5076 143.513 28.1646 144.149C27.827 144.785 27.3455 145.281 26.7202 145.635C26.1004 145.989 25.3976 146.166 24.6118 146.166C23.339 146.166 22.3097 145.723 21.5239 144.838C20.7437 143.952 20.3535 142.771 20.3535 141.293V140.43C20.3535 139.119 20.5998 137.962 21.0923 136.96C21.5903 135.953 22.3014 135.176 23.2256 134.628C24.1553 134.075 25.2316 133.795 26.4546 133.79H26.853ZM24.5122 139.841C24.1248 139.841 23.7734 139.943 23.458 140.148C23.1426 140.347 22.9102 140.613 22.7607 140.945V141.675C22.7607 142.478 22.9185 143.106 23.2339 143.56C23.5493 144.008 23.992 144.232 24.562 144.232C25.0767 144.232 25.4917 144.03 25.8071 143.626C26.1281 143.216 26.2886 142.688 26.2886 142.041C26.2886 141.382 26.1281 140.851 25.8071 140.447C25.4862 140.043 25.0545 139.841 24.5122 139.841ZM44.1602 144.473C43.7119 145.009 43.0783 145.427 42.2593 145.726C41.4403 146.019 40.5327 146.166 39.5366 146.166C38.4907 146.166 37.5721 145.939 36.7808 145.485C35.995 145.026 35.3862 144.362 34.9546 143.493C34.5285 142.624 34.3099 141.603 34.2988 140.43V139.608C34.2988 138.402 34.5008 137.359 34.9048 136.479C35.3143 135.594 35.9009 134.918 36.6646 134.454C37.4338 133.983 38.333 133.748 39.3623 133.748C40.7956 133.748 41.9162 134.091 42.7241 134.777C43.5321 135.458 44.0107 136.451 44.1602 137.757H41.7363C41.6257 137.066 41.3794 136.559 40.9976 136.238C40.6213 135.917 40.1011 135.757 39.437 135.757C38.5903 135.757 37.9456 136.075 37.5029 136.711C37.0602 137.348 36.8361 138.294 36.8306 139.55V140.322C36.8306 141.59 37.0713 142.547 37.5527 143.194C38.0342 143.842 38.7397 144.166 39.6694 144.166C40.6047 144.166 41.2715 143.966 41.6699 143.568V141.484H39.4038V139.65H44.1602V144.473ZM46.1855 146V133.914H50.4189C51.8854 133.914 52.9977 134.196 53.7559 134.761C54.514 135.32 54.8931 136.141 54.8931 137.226C54.8931 137.818 54.7409 138.341 54.4365 138.795C54.1322 139.243 53.7088 139.572 53.1665 139.783C53.7863 139.938 54.2733 140.25 54.6274 140.721C54.9871 141.191 55.167 141.767 55.167 142.447C55.167 143.609 54.7962 144.489 54.0547 145.087C53.3132 145.685 52.2562 145.989 50.8838 146H46.1855ZM48.6758 140.737V144H50.8091C51.3957 144 51.8522 143.861 52.1787 143.584C52.5107 143.302 52.6768 142.915 52.6768 142.422C52.6768 141.316 52.104 140.754 50.9585 140.737H48.6758ZM48.6758 138.978H50.5186C51.7747 138.955 52.4028 138.455 52.4028 137.475C52.4028 136.927 52.2424 136.534 51.9214 136.296C51.606 136.053 51.1051 135.931 50.4189 135.931H48.6758V138.978ZM67.5435 142.829C67.5435 142.359 67.3774 141.999 67.0454 141.75C66.7134 141.495 66.1157 141.23 65.2524 140.953C64.3892 140.671 63.7057 140.394 63.2021 140.123C61.8298 139.382 61.1436 138.383 61.1436 137.126C61.1436 136.473 61.3262 135.892 61.6914 135.383C62.0622 134.869 62.5907 134.467 63.2769 134.18C63.9686 133.892 64.7433 133.748 65.6011 133.748C66.4644 133.748 67.2336 133.906 67.9087 134.221C68.5838 134.531 69.1068 134.971 69.4775 135.541C69.8538 136.111 70.042 136.758 70.042 137.483H67.5518C67.5518 136.93 67.3774 136.501 67.0288 136.197C66.6802 135.887 66.1904 135.732 65.5596 135.732C64.9508 135.732 64.4777 135.862 64.1401 136.122C63.8026 136.377 63.6338 136.714 63.6338 137.135C63.6338 137.528 63.8302 137.857 64.2231 138.123C64.6216 138.388 65.2054 138.637 65.9746 138.87C67.3913 139.296 68.4233 139.824 69.0708 140.455C69.7183 141.086 70.042 141.872 70.042 142.812C70.042 143.858 69.6463 144.68 68.855 145.278C68.0636 145.87 66.9984 146.166 65.6592 146.166C64.7295 146.166 63.8828 145.997 63.1191 145.66C62.3555 145.317 61.7716 144.849 61.3677 144.257C60.9692 143.665 60.77 142.979 60.77 142.198H63.2686C63.2686 143.532 64.0654 144.199 65.6592 144.199C66.2513 144.199 66.7134 144.08 67.0454 143.842C67.3774 143.598 67.5435 143.261 67.5435 142.829ZM78.0024 142.829C78.0024 142.359 77.8364 141.999 77.5044 141.75C77.1724 141.495 76.5747 141.23 75.7114 140.953C74.8481 140.671 74.1647 140.394 73.6611 140.123C72.2887 139.382 71.6025 138.383 71.6025 137.126C71.6025 136.473 71.7852 135.892 72.1504 135.383C72.5212 134.869 73.0496 134.467 73.7358 134.18C74.4276 133.892 75.2023 133.748 76.0601 133.748C76.9233 133.748 77.6925 133.906 78.3677 134.221C79.0428 134.531 79.5658 134.971 79.9365 135.541C80.3128 136.111 80.501 136.758 80.501 137.483H78.0107C78.0107 136.93 77.8364 136.501 77.4878 136.197C77.1392 135.887 76.6494 135.732 76.0186 135.732C75.4098 135.732 74.9367 135.862 74.5991 136.122C74.2616 136.377 74.0928 136.714 74.0928 137.135C74.0928 137.528 74.2892 137.857 74.6821 138.123C75.0806 138.388 75.6644 138.637 76.4336 138.87C77.8503 139.296 78.8823 139.824 79.5298 140.455C80.1772 141.086 80.501 141.872 80.501 142.812C80.501 143.858 80.1053 144.68 79.314 145.278C78.5226 145.87 77.4574 146.166 76.1182 146.166C75.1885 146.166 74.3418 145.997 73.5781 145.66C72.8145 145.317 72.2306 144.849 71.8267 144.257C71.4282 143.665 71.229 142.979 71.229 142.198H73.7275C73.7275 143.532 74.5244 144.199 76.1182 144.199C76.7103 144.199 77.1724 144.08 77.5044 143.842C77.8364 143.598 78.0024 143.261 78.0024 142.829ZM82.1943 146V133.914H85.9131C86.9756 133.914 87.9246 134.155 88.7603 134.636C89.6014 135.112 90.2572 135.793 90.7275 136.678C91.1979 137.558 91.4331 138.56 91.4331 139.683V140.239C91.4331 141.363 91.2007 142.361 90.7358 143.236C90.2765 144.11 89.6263 144.788 88.7852 145.27C87.944 145.751 86.995 145.994 85.938 146H82.1943ZM84.6846 135.931V144H85.8882C86.8621 144 87.6064 143.681 88.1211 143.045C88.6357 142.409 88.8986 141.498 88.9097 140.314V139.675C88.9097 138.446 88.6551 137.517 88.146 136.886C87.6369 136.249 86.8926 135.931 85.9131 135.931H84.6846ZM97.4927 141.094C97.4927 139.844 97.6587 138.643 97.9907 137.492C98.3283 136.341 98.8291 135.295 99.4932 134.354C100.157 133.413 100.846 132.749 101.56 132.362L101.875 133.375C101.068 133.994 100.403 134.941 99.8833 136.213C99.3687 137.486 99.0864 138.911 99.0366 140.488L99.0283 141.194C99.0283 143.33 99.4185 145.184 100.199 146.755C100.669 147.696 101.228 148.432 101.875 148.963L101.56 149.901C100.824 149.492 100.121 148.806 99.4517 147.843C98.1457 145.961 97.4927 143.712 97.4927 141.094ZM105.661 133.914L109.612 143.775L113.563 133.914H115.63V146H114.036V141.293L114.186 136.213L110.218 146H108.998L105.038 136.238L105.196 141.293V146H103.602V133.914H105.661ZM118.236 145.195C118.236 144.929 118.314 144.708 118.469 144.531C118.629 144.354 118.867 144.265 119.183 144.265C119.498 144.265 119.736 144.354 119.896 144.531C120.062 144.708 120.146 144.929 120.146 145.195C120.146 145.449 120.062 145.662 119.896 145.834C119.736 146.006 119.498 146.091 119.183 146.091C118.867 146.091 118.629 146.006 118.469 145.834C118.314 145.662 118.236 145.449 118.236 145.195ZM130.447 146H122.528V144.896L126.711 140.248C127.331 139.545 127.757 138.975 127.99 138.538C128.228 138.095 128.347 137.638 128.347 137.168C128.347 136.537 128.156 136.02 127.774 135.616C127.392 135.212 126.883 135.01 126.247 135.01C125.483 135.01 124.888 135.228 124.462 135.666C124.041 136.097 123.831 136.7 123.831 137.475H122.295C122.295 136.363 122.652 135.464 123.366 134.777C124.086 134.091 125.046 133.748 126.247 133.748C127.37 133.748 128.258 134.044 128.911 134.636C129.564 135.223 129.891 136.006 129.891 136.985C129.891 138.175 129.132 139.592 127.616 141.235L124.379 144.747H130.447V146ZM138.283 141.269V146H136.689V133.914H141.146C142.469 133.914 143.504 134.252 144.251 134.927C145.004 135.602 145.38 136.496 145.38 137.608C145.38 138.781 145.012 139.686 144.276 140.322C143.545 140.953 142.497 141.269 141.13 141.269H138.283ZM138.283 139.965H141.146C141.999 139.965 142.652 139.766 143.105 139.368C143.559 138.964 143.786 138.383 143.786 137.625C143.786 136.905 143.559 136.33 143.105 135.898C142.652 135.466 142.029 135.242 141.238 135.226H138.283V139.965ZM156.304 142.165C156.154 143.443 155.681 144.431 154.884 145.128C154.093 145.82 153.039 146.166 151.722 146.166C150.294 146.166 149.148 145.654 148.285 144.63C147.427 143.607 146.999 142.237 146.999 140.521V139.359C146.999 138.236 147.198 137.248 147.596 136.396C148 135.544 148.57 134.891 149.306 134.437C150.042 133.978 150.894 133.748 151.863 133.748C153.147 133.748 154.176 134.108 154.951 134.827C155.725 135.541 156.176 136.532 156.304 137.799H154.702C154.563 136.836 154.262 136.139 153.797 135.707C153.338 135.275 152.693 135.06 151.863 135.06C150.845 135.06 150.045 135.436 149.464 136.188C148.888 136.941 148.601 138.012 148.601 139.401V140.571C148.601 141.883 148.875 142.926 149.422 143.701C149.97 144.475 150.737 144.863 151.722 144.863C152.607 144.863 153.285 144.664 153.755 144.265C154.231 143.861 154.547 143.161 154.702 142.165H156.304ZM160.197 146H158.603V133.914H160.197V146ZM166.605 146.166C165.388 146.166 164.397 145.768 163.633 144.971C162.87 144.168 162.488 143.097 162.488 141.758V141.476C162.488 140.585 162.657 139.791 162.994 139.094C163.337 138.391 163.813 137.843 164.422 137.45C165.036 137.052 165.7 136.853 166.414 136.853C167.582 136.853 168.489 137.237 169.137 138.006C169.784 138.776 170.108 139.877 170.108 141.31V141.949H164.023C164.046 142.835 164.303 143.551 164.795 144.099C165.293 144.641 165.924 144.913 166.688 144.913C167.23 144.913 167.69 144.802 168.066 144.581C168.442 144.359 168.771 144.066 169.054 143.701L169.992 144.431C169.239 145.588 168.11 146.166 166.605 146.166ZM166.414 138.114C165.794 138.114 165.274 138.341 164.854 138.795C164.433 139.243 164.173 139.874 164.073 140.688H168.572V140.571C168.528 139.791 168.318 139.188 167.941 138.762C167.565 138.33 167.056 138.114 166.414 138.114ZM175.437 141.177C175.437 142.411 175.274 143.596 174.947 144.73C174.626 145.859 174.131 146.902 173.461 147.859C172.797 148.817 172.1 149.497 171.37 149.901L171.046 148.963C171.898 148.31 172.582 147.298 173.096 145.925C173.616 144.547 173.882 143.02 173.893 141.343V141.078C173.893 139.916 173.771 138.836 173.528 137.84C173.284 136.839 172.944 135.942 172.507 135.151C172.075 134.36 171.588 133.743 171.046 133.3L171.37 132.362C172.1 132.766 172.795 133.441 173.453 134.387C174.117 135.333 174.612 136.377 174.939 137.517C175.271 138.657 175.437 139.877 175.437 141.177Z" fill="#555555"/>
<path d="M8.69922 83.1265C8.69922 83.7131 8.55257 84.2332 8.25928 84.687C7.96598 85.1408 7.56201 85.5033 7.04736 85.7744C7.63395 86.0566 8.0988 86.4468 8.44189 86.9448C8.78499 87.4373 8.95654 88.0184 8.95654 88.688C8.95654 89.7616 8.59131 90.611 7.86084 91.2363C7.13037 91.8561 6.13704 92.166 4.88086 92.166C3.62467 92.166 2.62858 91.8534 1.89258 91.228C1.15658 90.6027 0.788574 89.756 0.788574 88.688C0.788574 88.0184 0.960124 87.4346 1.30322 86.9365C1.64632 86.4385 2.1084 86.0511 2.68945 85.7744C2.1748 85.5033 1.77083 85.1408 1.47754 84.687C1.18978 84.2332 1.0459 83.7131 1.0459 83.1265C1.0459 82.0972 1.389 81.2782 2.0752 80.6694C2.76139 80.0552 3.69385 79.748 4.87256 79.748C6.04574 79.748 6.97542 80.0524 7.66162 80.6611C8.35335 81.2643 8.69922 82.0861 8.69922 83.1265ZM6.54932 88.5137C6.54932 87.988 6.39714 87.5674 6.09277 87.252C5.78841 86.9365 5.37891 86.7788 4.86426 86.7788C4.35514 86.7788 3.9484 86.9365 3.64404 87.252C3.33968 87.5618 3.1875 87.9824 3.1875 88.5137C3.1875 89.0283 3.33691 89.4434 3.63574 89.7588C3.93457 90.0742 4.34961 90.2319 4.88086 90.2319C5.40104 90.2319 5.80778 90.0798 6.10107 89.7754C6.3999 89.471 6.54932 89.0505 6.54932 88.5137ZM6.30029 83.2427C6.30029 82.7723 6.17578 82.396 5.92676 82.1138C5.67773 81.826 5.32633 81.6821 4.87256 81.6821C4.42432 81.6821 4.07568 81.8205 3.82666 82.0972C3.57764 82.3739 3.45312 82.7557 3.45312 83.2427C3.45312 83.7241 3.57764 84.1115 3.82666 84.4048C4.07568 84.6981 4.42708 84.8447 4.88086 84.8447C5.33464 84.8447 5.68327 84.6981 5.92676 84.4048C6.17578 84.1115 6.30029 83.7241 6.30029 83.2427ZM24.6367 90.4727C24.1885 91.0094 23.5549 91.4272 22.7358 91.7261C21.9168 92.0194 21.0093 92.166 20.0132 92.166C18.9673 92.166 18.0487 91.9391 17.2573 91.4854C16.4715 91.026 15.8628 90.362 15.4312 89.4932C15.005 88.6243 14.7865 87.6034 14.7754 86.4302V85.6084C14.7754 84.402 14.9774 83.3589 15.3813 82.479C15.7909 81.5936 16.3774 80.9185 17.1411 80.4536C17.9103 79.9832 18.8096 79.748 19.8389 79.748C21.2721 79.748 22.3927 80.0911 23.2007 80.7773C24.0086 81.458 24.4873 82.4513 24.6367 83.7573H22.2129C22.1022 83.0656 21.856 82.5592 21.4741 82.2383C21.0978 81.9173 20.5776 81.7568 19.9136 81.7568C19.0669 81.7568 18.4222 82.075 17.9795 82.7114C17.5368 83.3478 17.3127 84.2941 17.3071 85.5503V86.3223C17.3071 87.5895 17.5479 88.5469 18.0293 89.1943C18.5107 89.8418 19.2163 90.1655 20.146 90.1655C21.0812 90.1655 21.748 89.9663 22.1465 89.5679V87.4844H19.8804V85.6499H24.6367V90.4727ZM26.6621 92V79.9141H30.8955C32.362 79.9141 33.4743 80.1963 34.2324 80.7607C34.9906 81.3197 35.3696 82.1414 35.3696 83.2261C35.3696 83.8182 35.2174 84.3411 34.9131 84.7949C34.6087 85.2432 34.1854 85.5724 33.6431 85.7827C34.2629 85.9377 34.7498 86.2503 35.104 86.7207C35.4637 87.1911 35.6436 87.7666 35.6436 88.4473C35.6436 89.6094 35.2728 90.4893 34.5312 91.0869C33.7897 91.6846 32.7327 91.9889 31.3604 92H26.6621ZM29.1523 86.7373V89.9995H31.2856C31.8722 89.9995 32.3288 89.8612 32.6553 89.5845C32.9873 89.3022 33.1533 88.9149 33.1533 88.4224C33.1533 87.3156 32.5806 86.7539 31.4351 86.7373H29.1523ZM29.1523 84.9775H30.9951C32.2513 84.9554 32.8794 84.4546 32.8794 83.4751C32.8794 82.9272 32.7189 82.5343 32.3979 82.2964C32.0825 82.0529 31.5817 81.9312 30.8955 81.9312H29.1523V84.9775ZM46.2271 87.5757H44.2432V92H41.7529V79.9141H46.2437C47.6714 79.9141 48.7726 80.2323 49.5474 80.8687C50.3221 81.505 50.7095 82.4043 50.7095 83.5664C50.7095 84.391 50.5296 85.0799 50.1699 85.6333C49.8158 86.1812 49.2762 86.6183 48.5513 86.9448L51.166 91.8838V92H48.4932L46.2271 87.5757ZM44.2432 85.5586H46.252C46.8773 85.5586 47.3615 85.4009 47.7046 85.0854C48.0477 84.7645 48.2192 84.3245 48.2192 83.7656C48.2192 83.1956 48.056 82.7474 47.7295 82.4209C47.4085 82.0944 46.9132 81.9312 46.2437 81.9312H44.2432V85.5586ZM59.4336 89.5098H55.0674L54.2373 92H51.5894L56.0884 79.9141H58.396L62.9199 92H60.272L59.4336 89.5098ZM55.7397 87.4927H58.7612L57.2422 82.9688L55.7397 87.4927ZM67.3027 79.9141L70.4072 88.6797L73.4951 79.9141H76.7656V92H74.2671V88.6963L74.5161 82.9937L71.2539 92H69.5439L66.29 83.002L66.5391 88.6963V92H64.0488V79.9141H67.3027ZM83.1987 87.0942C83.1987 85.8436 83.3647 84.6427 83.6968 83.4917C84.0343 82.3407 84.5352 81.2948 85.1992 80.354C85.8633 79.4132 86.5522 78.7492 87.2661 78.3618L87.5815 79.3745C86.7736 79.9943 86.1095 80.9406 85.5894 82.2134C85.0747 83.4862 84.7925 84.9111 84.7427 86.4883L84.7344 87.1938C84.7344 89.3299 85.1245 91.1838 85.9048 92.7554C86.3752 93.6961 86.9341 94.4321 87.5815 94.9634L87.2661 95.9014C86.5301 95.4919 85.8273 94.8057 85.1577 93.8428C83.8517 91.9613 83.1987 89.7118 83.1987 87.0942ZM96.8286 92H88.9097V90.896L93.0933 86.2476C93.7131 85.5448 94.1392 84.9748 94.3716 84.5376C94.6095 84.0949 94.7285 83.6383 94.7285 83.168C94.7285 82.5371 94.5376 82.0197 94.1558 81.6157C93.7739 81.2118 93.2648 81.0098 92.6284 81.0098C91.8647 81.0098 91.2699 81.2284 90.8438 81.6655C90.4232 82.0972 90.2129 82.7004 90.2129 83.4751H88.6772C88.6772 82.3628 89.0342 81.4635 89.748 80.7773C90.4674 80.0911 91.4276 79.748 92.6284 79.748C93.7518 79.748 94.64 80.0441 95.293 80.6362C95.946 81.2228 96.2725 82.0059 96.2725 82.9854C96.2725 84.1751 95.5143 85.5918 93.998 87.2354L90.7607 90.7466H96.8286V92ZM104.482 79.9058V81.209H104.2C103.004 81.2311 102.053 81.5853 101.344 82.2715C100.636 82.9577 100.226 83.9233 100.116 85.1685C100.752 84.438 101.621 84.0728 102.722 84.0728C103.774 84.0728 104.612 84.4435 105.237 85.1851C105.868 85.9266 106.184 86.884 106.184 88.0571C106.184 89.3022 105.843 90.2983 105.163 91.0454C104.487 91.7925 103.58 92.166 102.44 92.166C101.283 92.166 100.345 91.7233 99.626 90.8379C98.9066 89.9469 98.5469 88.8014 98.5469 87.4014V86.812C98.5469 84.5874 99.02 82.8885 99.9663 81.7153C100.918 80.5366 102.332 79.9334 104.208 79.9058H104.482ZM102.465 85.3511C101.939 85.3511 101.455 85.5088 101.012 85.8242C100.569 86.1396 100.262 86.5353 100.091 87.0112V87.5757C100.091 88.5718 100.315 89.3742 100.763 89.9829C101.211 90.5916 101.77 90.896 102.44 90.896C103.132 90.896 103.674 90.6414 104.067 90.1323C104.465 89.6232 104.665 88.9564 104.665 88.1318C104.665 87.3018 104.463 86.6322 104.059 86.123C103.66 85.6084 103.129 85.3511 102.465 85.3511ZM114.028 79.9058V81.209H113.746C112.55 81.2311 111.598 81.5853 110.89 82.2715C110.182 82.9577 109.772 83.9233 109.662 85.1685C110.298 84.438 111.167 84.0728 112.268 84.0728C113.319 84.0728 114.158 84.4435 114.783 85.1851C115.414 85.9266 115.729 86.884 115.729 88.0571C115.729 89.3022 115.389 90.2983 114.708 91.0454C114.033 91.7925 113.126 92.166 111.986 92.166C110.829 92.166 109.891 91.7233 109.172 90.8379C108.452 89.9469 108.093 88.8014 108.093 87.4014V86.812C108.093 84.5874 108.566 82.8885 109.512 81.7153C110.464 80.5366 111.878 79.9334 113.754 79.9058H114.028ZM112.011 85.3511C111.485 85.3511 111.001 85.5088 110.558 85.8242C110.115 86.1396 109.808 86.5353 109.637 87.0112V87.5757C109.637 88.5718 109.861 89.3742 110.309 89.9829C110.757 90.5916 111.316 90.896 111.986 90.896C112.678 90.896 113.22 90.6414 113.613 90.1323C114.011 89.6232 114.21 88.9564 114.21 88.1318C114.21 87.3018 114.008 86.6322 113.604 86.123C113.206 85.6084 112.675 85.3511 112.011 85.3511ZM123.574 79.9058V81.209H123.292C122.096 81.2311 121.144 81.5853 120.436 82.2715C119.728 82.9577 119.318 83.9233 119.208 85.1685C119.844 84.438 120.713 84.0728 121.814 84.0728C122.865 84.0728 123.704 84.4435 124.329 85.1851C124.96 85.9266 125.275 86.884 125.275 88.0571C125.275 89.3022 124.935 90.2983 124.254 91.0454C123.579 91.7925 122.672 92.166 121.532 92.166C120.375 92.166 119.437 91.7233 118.718 90.8379C117.998 89.9469 117.639 88.8014 117.639 87.4014V86.812C117.639 84.5874 118.112 82.8885 119.058 81.7153C120.01 80.5366 121.424 79.9334 123.3 79.9058H123.574ZM121.557 85.3511C121.031 85.3511 120.547 85.5088 120.104 85.8242C119.661 86.1396 119.354 86.5353 119.183 87.0112V87.5757C119.183 88.5718 119.407 89.3742 119.855 89.9829C120.303 90.5916 120.862 90.896 121.532 90.896C122.223 90.896 122.766 90.6414 123.159 90.1323C123.557 89.6232 123.756 88.9564 123.756 88.1318C123.756 87.3018 123.554 86.6322 123.15 86.123C122.752 85.6084 122.221 85.3511 121.557 85.3511ZM133.767 79.9141L137.718 89.7754L141.669 79.9141H143.736V92H142.143V87.2935L142.292 82.2134L138.324 92H137.104L133.145 82.2383L133.302 87.2935V92H131.708V79.9141H133.767ZM155.839 92H154.237V86.4136H148.144V92H146.55V79.9141H148.144V85.1104H154.237V79.9141H155.839V92ZM159.873 90.7466H165.127V92H157.997V90.8711L162.953 84.2886H158.072V83.0186H164.878V84.106L159.873 90.7466ZM171.32 92V79.9141H174.731C175.783 79.9141 176.713 80.1465 177.521 80.6113C178.328 81.0762 178.951 81.7375 179.388 82.5952C179.831 83.453 180.055 84.438 180.061 85.5503V86.3223C180.061 87.4622 179.839 88.4611 179.396 89.3188C178.959 90.1766 178.331 90.8351 177.512 91.2944C176.699 91.7537 175.75 91.9889 174.665 92H171.32ZM172.914 81.2256V90.6968H174.59C175.819 90.6968 176.773 90.3149 177.454 89.5513C178.14 88.7876 178.483 87.7002 178.483 86.2891V85.5835C178.483 84.2111 178.16 83.1458 177.512 82.3877C176.87 81.624 175.957 81.2367 174.773 81.2256H172.914ZM182.476 92V79.9141H185.888C186.939 79.9141 187.869 80.1465 188.677 80.6113C189.485 81.0762 190.107 81.7375 190.544 82.5952C190.987 83.453 191.211 84.438 191.217 85.5503V86.3223C191.217 87.4622 190.995 88.4611 190.553 89.3188C190.116 90.1766 189.487 90.8351 188.668 91.2944C187.855 91.7537 186.906 91.9889 185.821 92H182.476ZM184.07 81.2256V90.6968H185.747C186.975 90.6968 187.93 90.3149 188.61 89.5513C189.297 88.7876 189.64 87.7002 189.64 86.2891V85.5835C189.64 84.2111 189.316 83.1458 188.668 82.3877C188.027 81.624 187.113 81.2367 185.929 81.2256H184.07ZM198.065 87.1108H195.226V92H193.624V79.9141H197.625C198.986 79.9141 200.032 80.224 200.763 80.8438C201.499 81.4635 201.867 82.3656 201.867 83.5498C201.867 84.3024 201.662 84.9582 201.252 85.5171C200.848 86.076 200.284 86.4938 199.559 86.7705L202.398 91.9004V92H200.688L198.065 87.1108ZM195.226 85.8076H197.675C198.466 85.8076 199.094 85.6029 199.559 85.1934C200.029 84.7839 200.265 84.236 200.265 83.5498C200.265 82.8027 200.041 82.23 199.592 81.8315C199.15 81.4331 198.508 81.2311 197.667 81.2256H195.226V85.8076ZM210.192 87.9409H211.869V89.1943H210.192V92H208.648V89.1943H203.145V88.2896L208.557 79.9141H210.192V87.9409ZM204.888 87.9409H208.648V82.0142L208.466 82.3462L204.888 87.9409ZM216.958 87.1772C216.958 88.4113 216.794 89.5955 216.468 90.73C216.147 91.8589 215.652 92.902 214.982 93.8594C214.318 94.8167 213.621 95.4974 212.89 95.9014L212.566 94.9634C213.419 94.3104 214.102 93.2977 214.617 91.9253C215.137 90.5474 215.403 89.02 215.414 87.3433V87.0776C215.414 85.9155 215.292 84.8364 215.048 83.8403C214.805 82.8387 214.465 81.9422 214.027 81.1509C213.596 80.3595 213.109 79.7425 212.566 79.2998L212.89 78.3618C213.621 78.7658 214.315 79.4409 214.974 80.3872C215.638 81.3335 216.133 82.3766 216.459 83.5166C216.792 84.6566 216.958 85.8768 216.958 87.1772Z" fill="#555555"/>
<path d="M0 58H378V73H0V58Z" fill="url(#paint3_linear)"/>
<path d="M2 111H378V126H2V111Z" fill="url(#paint4_linear)"/>
<defs>
<linearGradient id="paint0_linear" x1="0" y1="15.0002" x2="488.025" y2="15.0003" gradientUnits="userSpaceOnUse">
<stop stop-color="#C4C4C4"/>
<stop offset="0.0001" stop-color="#7633CC"/>
<stop offset="1" stop-color="#BA1DAA"/>
</linearGradient>
<linearGradient id="paint1_linear" x1="0" y1="88.0005" x2="234.587" y2="88.0005" gradientUnits="userSpaceOnUse">
<stop stop-color="#C4C4C4"/>
<stop offset="0.0001" stop-color="#10B9D0"/>
<stop offset="1" stop-color="#2B28C2"/>
</linearGradient>
<linearGradient id="paint2_linear" x1="2" y1="126" x2="349.05" y2="126" gradientUnits="userSpaceOnUse">
<stop stop-color="#D71E1E"/>
<stop offset="0.0001" stop-color="#E4713F"/>
<stop offset="1" stop-color="#D11722"/>
</linearGradient>
<linearGradient id="paint3_linear" x1="0" y1="88.0005" x2="395.866" y2="88.0005" gradientUnits="userSpaceOnUse">
<stop stop-color="#C4C4C4"/>
<stop offset="0.0001" stop-color="#10B9D0"/>
<stop offset="1" stop-color="#2B28C2"/>
</linearGradient>
<linearGradient id="paint4_linear" x1="2" y1="126" x2="589.796" y2="126" gradientUnits="userSpaceOnUse">
<stop stop-color="#D71E1E"/>
<stop offset="0.0001" stop-color="#E4713F"/>
<stop offset="1" stop-color="#D11722"/>
</linearGradient>
</defs>
</svg>
