<svg width="525" height="577" viewBox="0 0 525 577" fill="none" xmlns="http://www.w3.org/2000/svg">
<path d="M311.106 253.645C311.106 243.146 290.544 217.695 274.063 217.695C261.406 217.695 261.201 225.044 248.868 225.044C229.854 225.044 215.744 190.145 179.178 190.145C140.219 190.145 89.3113 230.289 89.3113 261.777C89.3113 306.867 311.106 317.674 311.106 253.645Z" fill="#E2E2E2"/>
<path d="M409.286 408.1C409.723 359.11 410.423 280.413 410.423 268.765C410.423 251.676 387.306 200.491 346.868 200.491C302.566 200.491 280.674 256.306 251.676 256.306C225.098 256.306 223.003 241.532 190.103 241.532C168.665 241.532 124.556 271.695 124.556 302.53L153.917 408.076L409.286 408.1Z" fill="#F3F3F3"/>
<path d="M265.926 326.706C266.063 323.598 265.146 321.024 263.879 320.957C262.612 320.89 261.474 323.355 261.338 326.463C261.201 329.571 262.118 332.144 263.385 332.212C264.652 332.279 265.79 329.813 265.926 326.706Z" fill="#D37C59"/>
<path d="M258.208 355.267C258.121 354.335 260.098 334.984 261.673 328.851C262.611 328.472 263.612 328.318 264.609 328.399L264.46 347.467L262.272 356.434L258.208 355.267Z" fill="#D37C59"/>
<path d="M271.556 328.322L257.801 329.571L257.364 326.584L270.603 321.987L271.556 328.322Z" fill="black"/>
<path d="M244.156 479.933H238.131V485.529H244.156V479.933Z" fill="#DE8E68"/>
<path d="M262.793 480.808H256.769V486.403H262.793V480.808Z" fill="#DE8E68"/>
<path d="M237.506 386.64V480.241H244.562L252.674 430.165C252.674 430.165 253.789 403.076 237.506 386.64Z" fill="#56CAD8"/>
<path d="M260.75 384.796C260.947 387.495 263.401 436.611 263.401 436.611V481.331L256.161 482.181L251.506 434.632L237.506 386.64C239.623 385.363 255.133 382.956 260.75 384.796Z" fill="#74D5DE"/>
<path d="M247.848 343.639C261.756 343.639 262.417 382.462 260.763 384.796C259.109 387.13 239.326 388.72 237.506 386.636C235.686 384.551 230.519 343.639 247.848 343.639Z" fill="#FED385"/>
<path d="M268.229 326.704C268.366 323.596 267.449 321.022 266.182 320.955C264.915 320.888 263.777 323.353 263.641 326.461C263.504 329.569 264.421 332.143 265.688 332.21C266.955 332.277 268.093 329.812 268.229 326.704Z" fill="#DE8E68"/>
<path d="M256.204 485.529V491.124H270.528V489.088L263.077 485.529H256.204Z" fill="black"/>
<path d="M237.943 484.645V490.241H252.267V488.204L244.816 484.645H237.943Z" fill="black"/>
<path d="M257.712 327.131L256.044 327.418L256.306 329.249L257.974 328.962L257.712 327.131Z" fill="black"/>
<path d="M248.868 347.016C248.868 348.298 243.438 348.457 243.438 347.016V334.288H248.868V347.016Z" fill="#D37C59"/>
<path d="M248.701 340.152C251.85 340.152 254.402 335.875 254.402 330.599C254.402 325.323 251.85 321.046 248.701 321.046C245.553 321.046 243.001 325.323 243.001 330.599C243.001 335.875 245.553 340.152 248.701 340.152Z" fill="#DC8E6C"/>
<path d="M238.774 326.661C238.774 323.716 239.943 321.858 240.892 321.267C242.725 320.114 243.491 320.628 245.337 319.73C247.336 318.769 249.051 315.964 251.392 315.964C253.579 315.964 253.382 317.328 254.866 317.732C255.741 317.967 260.711 316.714 260.711 320.244C260.711 325.681 255.211 326.123 253.938 326.819C253.747 326.193 253.525 325.579 253.273 324.98C252.271 326.113 248.644 326.901 248.058 327.155C246.702 327.77 246.054 330.1 246.054 331.622C246.054 333.145 244.799 333.149 244.484 333.149C241.583 333.149 238.774 331.108 238.774 326.661Z" fill="#FB836D"/>
<path d="M243.543 334.288C244.589 334.288 245.437 333.357 245.437 332.208C245.437 331.06 244.589 330.128 243.543 330.128C242.497 330.128 241.649 331.06 241.649 332.208C241.649 333.357 242.497 334.288 243.543 334.288Z" fill="#DC8E6C"/>
<path d="M235.353 351.055C235.353 347.721 232.891 345.018 229.854 345.018C226.817 345.018 224.354 347.721 224.354 351.055V379.618C224.354 382.953 226.817 385.656 229.854 385.656C232.891 385.656 235.353 382.953 235.353 379.618V351.055Z" fill="#D3D3D3"/>
<path d="M238.389 376.616C245.73 376.616 251.681 369.544 251.681 360.819C251.681 352.095 245.73 345.022 238.389 345.022C231.049 345.022 225.098 352.095 225.098 360.819C225.098 369.544 231.049 376.616 238.389 376.616Z" stroke="#D3D3D3" stroke-width="3.69" stroke-miterlimit="10"/>
<path d="M252.368 353.898C253.474 353.898 259.057 354.153 261.328 355.051C261.503 353.836 262.491 336.43 264.176 330.599C264.819 329.821 267.435 329.912 267.435 330.599C267.435 331.286 271.158 359.84 267.435 363.226C263.712 366.612 251.086 362.073 250.565 361.626C250.044 361.18 252.368 353.898 252.368 353.898Z" fill="#DE8E68"/>
<path d="M240.476 352.87C241.71 347.357 252.884 351.943 253.894 353.202C255.106 354.71 252.941 363.211 251.269 363.605C248.544 364.254 238.875 360.022 240.476 352.87Z" fill="#FED892"/>
<path d="M116.541 164.094L62.405 408.1H170.682L116.541 164.094Z" fill="#FED892"/>
<path d="M74.2087 164.094L20.0681 429.339H128.345L74.2087 164.094Z" fill="#56CAD8"/>
<path d="M74.5018 428.157V189.891" stroke="#FED385" stroke-width="3.84" stroke-linecap="round" stroke-linejoin="round"/>
<path d="M74.5018 268.463L86.2662 254.424" stroke="#FED385" stroke-width="3.84" stroke-linecap="round" stroke-linejoin="round"/>
<path d="M74.5018 335.7L92.1812 314.605" stroke="#FED385" stroke-width="3.84" stroke-linecap="round" stroke-linejoin="round"/>
<path d="M74.5018 405.842L101.999 373.029" stroke="#FED385" stroke-width="3.84" stroke-linecap="round" stroke-linejoin="round"/>
<path d="M74.5019 268.463L62.7375 254.424" stroke="#FED385" stroke-width="3.84" stroke-linecap="round" stroke-linejoin="round"/>
<path d="M74.5019 335.7L56.8269 314.605" stroke="#FED385" stroke-width="3.84" stroke-linecap="round" stroke-linejoin="round"/>
<path d="M74.5019 405.842L47.005 373.029" stroke="#FED385" stroke-width="3.84" stroke-linecap="round" stroke-linejoin="round"/>
<path d="M112.962 352.702H112.958C96.6026 352.702 83.3438 367.258 83.3438 385.214V414.887C83.3438 432.842 96.6026 447.398 112.958 447.398H112.962C129.318 447.398 142.577 432.842 142.577 414.887V385.214C142.577 367.258 129.318 352.702 112.962 352.702Z" fill="#74D5DE"/>
<path d="M112.958 472.105V382.245" stroke="#FED385" stroke-width="3.69" stroke-linecap="round" stroke-linejoin="round"/>
<path d="M112.958 420.458C129.146 420.458 129.146 409.757 129.146 393.561" stroke="#FED385" stroke-width="3.69" stroke-linecap="round" stroke-linejoin="round"/>
<path d="M112.958 404.09C101.736 404.09 101.736 396.659 101.736 385.435" stroke="#FED385" stroke-width="3.69" stroke-linecap="round" stroke-linejoin="round"/>
<path d="M504.162 408.1V320.633C504.134 310.289 500.379 300.377 493.716 293.062C487.053 285.747 478.024 281.625 468.602 281.594C466.686 281.595 464.774 281.766 462.884 282.103V181.447C462.884 174.36 460.32 167.564 455.756 162.552C451.191 157.541 445.001 154.725 438.546 154.723C432.09 154.723 425.898 157.539 421.333 162.551C416.768 167.562 414.203 174.36 414.203 181.447V202.993C410.541 201.623 406.698 200.924 402.828 200.923C393.405 200.954 384.375 205.077 377.712 212.393C371.05 219.708 367.295 229.622 367.268 239.967V311.714H351.785C345.348 311.735 339.18 314.552 334.628 319.549C330.076 324.546 327.51 331.318 327.491 338.385V400.502C327.491 403.075 327.833 405.635 328.506 408.1H504.162Z" fill="#FED385"/>
<path d="M437.57 355.829C477.649 355.829 477.65 336.137 477.65 306.358" stroke="#74D5DE" stroke-width="3.69" stroke-linecap="round" stroke-linejoin="round"/>
<path d="M437.609 382.068C415.559 382.068 415.559 371.232 415.559 354.849" stroke="#74D5DE" stroke-width="3.69" stroke-linecap="round" stroke-linejoin="round"/>
<path d="M437.57 408.1V174.91" stroke="#74D5DE" stroke-width="3.69" stroke-linecap="round" stroke-linejoin="round"/>
<path d="M437.57 306.358L415.599 282.233" stroke="#74D5DE" stroke-width="3.69" stroke-linecap="round" stroke-linejoin="round"/>
<path d="M437.57 256.58L450.866 241.989" stroke="#74D5DE" stroke-width="3.69" stroke-linecap="round" stroke-linejoin="round"/>
<path d="M328.339 164.094C329.514 158.83 328.93 153.277 326.695 148.445C324.46 143.612 320.721 139.819 316.156 137.753C311.592 135.688 306.504 135.487 301.816 137.187C297.128 138.887 293.151 142.376 290.605 147.019C288.111 145.783 285.375 145.252 282.646 145.475C279.917 145.698 277.283 146.669 274.984 148.297C272.685 149.926 270.794 152.162 269.484 154.8C268.175 157.437 267.488 160.393 267.488 163.398C267.488 163.633 267.488 163.878 267.488 164.094H328.339Z" fill="#F3F3F3"/>
<path d="M127.711 128.855C126.536 123.59 127.12 118.038 129.355 113.205C131.59 108.372 135.329 104.579 139.894 102.514C144.458 100.449 149.546 100.248 154.234 101.948C158.922 103.648 162.899 107.136 165.445 111.78C167.938 110.539 170.676 110.005 173.406 110.227C176.136 110.448 178.772 111.418 181.072 113.048C183.373 114.677 185.264 116.915 186.572 119.555C187.881 122.194 188.565 125.153 188.562 128.158C188.562 128.389 188.562 128.638 188.562 128.855H127.711Z" fill="#F3F3F3"/>
<path d="M404.394 449.588C382.397 449.588 364.582 459.9 364.582 472.643H444.229C444.216 459.9 426.388 449.588 404.394 449.588Z" fill="#74D5DE"/>
<path d="M219.957 483.627C214.467 483.627 210.013 487.834 210.013 493.026H229.906C229.906 487.834 225.452 483.627 219.957 483.627Z" fill="#FB836D"/>
<path d="M364.569 433.44C359.074 433.44 354.624 439.684 354.624 447.398H374.5C374.5 439.689 370.059 433.44 364.569 433.44Z" fill="#FB836D"/>
<path d="M52.8807 468.084C44.1307 468.084 37.0607 471.211 37.0607 475.063H68.6876C68.6876 471.211 61.6176 468.084 52.8807 468.084Z" fill="#FB836D"/>
<path d="M450.866 468.084C442.116 468.084 435.046 471.211 435.046 475.063H466.681C466.681 471.211 459.602 468.084 450.866 468.084Z" fill="#FB836D"/>
<path d="M385.901 358.567H385.897C375.306 358.567 366.721 367.992 366.721 379.618V398.83C366.721 410.457 375.306 419.882 385.897 419.882H385.901C396.492 419.882 405.077 410.457 405.077 398.83V379.618C405.077 367.992 396.492 358.567 385.901 358.567Z" fill="#74D5DE"/>
<path d="M385.901 435.885V377.697" stroke="#FED385" stroke-width="2.39" stroke-linecap="round" stroke-linejoin="round"/>
<path d="M385.901 402.442C396.375 402.442 396.375 395.511 396.375 385.026" stroke="#FED385" stroke-width="2.39" stroke-linecap="round" stroke-linejoin="round"/>
<path d="M385.901 391.842C378.634 391.842 378.634 387.039 378.634 379.758" stroke="#FED385" stroke-width="2.39" stroke-linecap="round" stroke-linejoin="round"/>
<path d="M145.123 455.155H180.578" stroke="#FED385" stroke-width="3.69" stroke-linecap="round" stroke-linejoin="round"/>
<path d="M292.425 429.339H315.936" stroke="#FED385" stroke-width="3.69" stroke-linecap="round" stroke-linejoin="round"/>
<path d="M274.693 435.885H298.209" stroke="#FED385" stroke-width="3.69" stroke-linecap="round" stroke-linejoin="round"/>
<path d="M51.135 441.221H74.6506" stroke="#FED385" stroke-width="3.69" stroke-linecap="round" stroke-linejoin="round"/>
<path d="M327.491 479.933H360.544" stroke="#FED385" stroke-width="3.69" stroke-linecap="round" stroke-linejoin="round"/>
</svg>
