<svg width="375" height="525" viewBox="0 0 375 525" fill="none" xmlns="http://www.w3.org/2000/svg">
<path d="M56.5838 178.118C8.63874 173.004 1.78943 135.627 10.9218 109.045C20.0543 85.1213 42.8853 45.2481 79.4149 26.6406C120.511 8.0331 157.04 37.2734 154.757 87.7606C154.757 136.196 104.529 183.232 56.5838 178.118Z" fill="white"/>
<path d="M144.767 87.3088L144.757 87.5346V87.7606C144.757 108.59 133.851 129.948 116.856 145.682C99.857 161.42 78.0561 170.351 57.6444 168.174C36.457 165.914 26.1072 156.919 21.3169 147.208C16.2501 136.937 16.4336 123.893 20.3259 112.45C29.1115 89.5258 50.6374 52.6299 83.747 35.6568C101.172 27.8419 116.399 30.4504 127.07 39.0694C138.035 47.9259 145.8 64.4705 144.767 87.3088Z" stroke="#C0C0C0" stroke-opacity="0.2" stroke-width="20"/>
<path d="M49.5 201C-21.6411 201 -79 144.417 -79 75C-79 5.58306 -21.6411 -51 49.5 -51C120.641 -51 178 5.58306 178 75C178 144.417 120.641 201 49.5 201Z" stroke="#C0C0C0" stroke-opacity="0.2" stroke-width="20"/>
<path d="M460.942 504.839C455.489 553.304 415.64 560.227 387.298 550.996C361.791 541.765 319.279 518.686 299.44 481.761C279.602 440.22 310.777 403.295 364.605 405.603C416.245 405.603 466.394 456.375 460.942 504.839Z" fill="white"/>
<path d="M364.177 415.594L364.391 415.603H364.605C387.231 415.603 410.218 426.819 427.029 444.033C443.877 461.287 453.305 483.27 451.004 503.721C448.617 524.939 439.116 535.515 428.467 540.495C417.203 545.763 402.954 545.542 390.546 541.536C365.94 532.6 326.482 510.748 308.363 477.239C300.091 459.749 302.82 444.511 312.01 433.724C321.554 422.52 339.476 414.535 364.177 415.594Z" stroke="#4BC6ED" stroke-opacity="0.2" stroke-width="20"/>
<path d="M486 512C486 583.469 425.892 642 351 642C276.108 642 216 583.469 216 512C216 440.531 276.108 382 351 382C425.892 382 486 440.531 486 512Z" stroke="#4BC6ED" stroke-opacity="0.2" stroke-width="20"/>
</svg>
