<svg width="1325" height="529" viewBox="0 0 1325 529" fill="none" xmlns="http://www.w3.org/2000/svg">
<path d="M1311.58 426.167C1300.93 526.558 1223.16 540.899 1167.84 521.777C1118.06 502.655 1035.09 454.85 996.37 378.362C957.65 292.313 1018.5 215.825 1123.55 220.606C1224.34 220.606 1322.22 325.777 1311.58 426.167Z" fill="white"/>
<path d="M1123.1 230.595L1123.33 230.606H1123.55C1170.54 230.606 1217.69 255.226 1251.99 292.511C1286.3 329.796 1306.58 378.454 1301.63 425.113C1296.6 472.55 1276.1 497.876 1252.02 509.832C1227.38 522.062 1197.07 521.261 1171.27 512.381C1122.49 493.611 1042.49 447.117 1005.4 374.051C987.506 334.126 992.997 297.652 1013.84 271.683C1034.92 245.43 1073 228.316 1123.1 230.595Z" stroke="#4BC6ED" stroke-opacity="0.2" stroke-width="20"/>
<path d="M1370 441C1370 595.871 1247.54 721 1097 721C946.455 721 824 595.871 824 441C824 286.129 946.455 161 1097 161C1247.54 161 1370 286.129 1370 441Z" stroke="#4BC6ED" stroke-opacity="0.2" stroke-width="20"/>
<path d="M89.0248 233.424C21.1747 226.336 11.4818 174.531 24.4057 137.688C37.3295 104.528 69.6391 49.263 121.334 23.4724C179.492 -2.31808 231.187 38.2098 227.956 108.187C227.956 175.319 156.875 240.512 89.0248 233.424Z" fill="white"/>
<path d="M217.967 107.725L217.956 107.956V108.187C217.956 138.286 201.909 168.84 177.217 191.23C152.534 213.611 120.51 226.659 90.0638 223.478C58.836 220.216 42.8257 207.046 35.3561 192.216C27.6187 176.854 28.0244 157.698 33.7864 141.157C46.3425 109.032 77.3182 56.7113 125.594 32.5227C151.613 21.0582 174.97 24.7133 191.462 37.7595C208.202 51.0024 219.468 75.2208 217.967 107.725Z" stroke="#C0C0C0" stroke-opacity="0.2" stroke-width="20"/>
<path d="M79 269C-24.0963 269 -107 188.719 -107 90.5C-107 -7.71868 -24.0963 -88 79 -88C182.096 -88 265 -7.71868 265 90.5C265 188.719 182.096 269 79 269Z" stroke="#C0C0C0" stroke-opacity="0.2" stroke-width="20"/>
</svg>
