<svg width="622" height="608" viewBox="0 0 622 608" fill="none" xmlns="http://www.w3.org/2000/svg">
<g filter="url(#filter0_d)">
<rect x="50" y="46" width="522" height="508" rx="5" fill="white"/>
</g>
<rect x="130" y="428" width="363" height="63" rx="5" fill="#E7590A"/>
<path d="M218.307 458.062H223.595V461.885H218.307V467.861H214.278V461.885H208.976V458.062H214.278V452.334H218.307V458.062ZM251.236 470H246.842L238.287 455.967V470H233.893V448.672H238.287L246.856 462.734V448.672H251.236V470ZM262.091 470.293C259.767 470.293 257.872 469.58 256.407 468.154C254.952 466.729 254.225 464.829 254.225 462.456V462.046C254.225 460.454 254.532 459.033 255.147 457.783C255.763 456.523 256.632 455.557 257.755 454.883C258.888 454.199 260.177 453.857 261.622 453.857C263.79 453.857 265.494 454.541 266.734 455.908C267.984 457.275 268.609 459.214 268.609 461.724V463.452H258.517C258.653 464.487 259.063 465.317 259.747 465.942C260.44 466.567 261.314 466.88 262.369 466.88C264 466.88 265.274 466.289 266.192 465.107L268.272 467.437C267.638 468.335 266.778 469.038 265.694 469.546C264.61 470.044 263.409 470.293 262.091 470.293ZM261.607 457.285C260.768 457.285 260.084 457.568 259.557 458.135C259.039 458.701 258.707 459.512 258.561 460.566H264.449V460.229C264.43 459.292 264.176 458.569 263.688 458.062C263.199 457.544 262.506 457.285 261.607 457.285ZM284.811 464.243L286.891 454.15H290.978L286.935 470H283.39L280.387 460.024L277.384 470H273.854L269.811 454.15H273.897L275.963 464.229L278.863 454.15H281.925L284.811 464.243ZM305.509 470H301.114V448.672H305.509V470ZM313.214 454.15L313.346 455.981C314.479 454.565 315.997 453.857 317.901 453.857C319.581 453.857 320.831 454.351 321.651 455.337C322.472 456.323 322.892 457.798 322.911 459.761V470H318.678V459.863C318.678 458.965 318.482 458.315 318.092 457.915C317.701 457.505 317.052 457.3 316.144 457.3C314.952 457.3 314.059 457.808 313.463 458.823V470H309.229V454.15H313.214ZM334.718 465.62C334.718 465.103 334.459 464.697 333.941 464.404C333.434 464.102 332.613 463.833 331.48 463.599C327.711 462.808 325.826 461.206 325.826 458.794C325.826 457.388 326.407 456.216 327.569 455.278C328.741 454.331 330.27 453.857 332.154 453.857C334.166 453.857 335.772 454.331 336.974 455.278C338.185 456.226 338.79 457.456 338.79 458.97H334.557C334.557 458.364 334.361 457.866 333.971 457.476C333.58 457.075 332.97 456.875 332.14 456.875C331.427 456.875 330.875 457.036 330.484 457.358C330.094 457.681 329.898 458.091 329.898 458.589C329.898 459.058 330.118 459.438 330.558 459.731C331.007 460.015 331.759 460.264 332.813 460.479C333.868 460.684 334.757 460.918 335.479 461.182C337.716 462.002 338.834 463.423 338.834 465.444C338.834 466.89 338.214 468.062 336.974 468.96C335.733 469.849 334.132 470.293 332.169 470.293C330.841 470.293 329.659 470.059 328.624 469.59C327.599 469.111 326.793 468.462 326.207 467.642C325.621 466.812 325.328 465.918 325.328 464.961H329.342C329.381 465.713 329.659 466.289 330.177 466.689C330.694 467.09 331.388 467.29 332.257 467.29C333.067 467.29 333.678 467.139 334.088 466.836C334.508 466.523 334.718 466.118 334.718 465.62ZM346.642 450.254V454.15H349.352V457.256H346.642V465.166C346.642 465.752 346.754 466.172 346.979 466.426C347.203 466.68 347.633 466.807 348.268 466.807C348.736 466.807 349.151 466.772 349.513 466.704V469.912C348.683 470.166 347.828 470.293 346.949 470.293C343.98 470.293 342.467 468.794 342.408 465.796V457.256H340.094V454.15H342.408V450.254H346.642ZM360.895 470C360.699 469.619 360.558 469.146 360.47 468.579C359.444 469.722 358.111 470.293 356.471 470.293C354.918 470.293 353.629 469.844 352.604 468.945C351.588 468.047 351.08 466.914 351.08 465.547C351.08 463.867 351.7 462.578 352.94 461.68C354.19 460.781 355.992 460.327 358.346 460.317H360.294V459.409C360.294 458.677 360.104 458.091 359.723 457.651C359.352 457.212 358.761 456.992 357.95 456.992C357.237 456.992 356.676 457.163 356.266 457.505C355.865 457.847 355.665 458.315 355.665 458.911H351.432C351.432 457.993 351.715 457.144 352.281 456.362C352.848 455.581 353.648 454.971 354.684 454.531C355.719 454.082 356.881 453.857 358.17 453.857C360.123 453.857 361.671 454.351 362.813 455.337C363.966 456.313 364.542 457.69 364.542 459.468V466.338C364.552 467.842 364.762 468.979 365.172 469.751V470H360.895ZM357.394 467.056C358.019 467.056 358.595 466.919 359.122 466.646C359.649 466.362 360.04 465.986 360.294 465.518V462.793H358.712C356.593 462.793 355.465 463.525 355.328 464.99L355.313 465.239C355.313 465.767 355.499 466.201 355.87 466.543C356.241 466.885 356.749 467.056 357.394 467.056ZM371.69 454.15L371.822 455.981C372.955 454.565 374.474 453.857 376.378 453.857C378.058 453.857 379.308 454.351 380.128 455.337C380.948 456.323 381.368 457.798 381.388 459.761V470H377.154V459.863C377.154 458.965 376.959 458.315 376.568 457.915C376.178 457.505 375.528 457.3 374.62 457.3C373.429 457.3 372.535 457.808 371.939 458.823V470H367.706V454.15H371.69ZM391.202 466.88C391.983 466.88 392.618 466.665 393.106 466.235C393.595 465.806 393.849 465.234 393.868 464.521H397.838C397.828 465.596 397.535 466.582 396.959 467.48C396.383 468.369 395.592 469.062 394.586 469.561C393.59 470.049 392.486 470.293 391.275 470.293C389.01 470.293 387.223 469.575 385.914 468.14C384.605 466.694 383.951 464.702 383.951 462.163V461.885C383.951 459.443 384.601 457.495 385.899 456.04C387.198 454.585 388.98 453.857 391.246 453.857C393.229 453.857 394.815 454.424 396.007 455.557C397.208 456.68 397.818 458.179 397.838 460.054H393.868C393.849 459.233 393.595 458.569 393.106 458.062C392.618 457.544 391.974 457.285 391.173 457.285C390.187 457.285 389.439 457.646 388.932 458.369C388.434 459.082 388.185 460.244 388.185 461.855V462.295C388.185 463.926 388.434 465.098 388.932 465.811C389.43 466.523 390.187 466.88 391.202 466.88ZM407.55 470.293C405.226 470.293 403.331 469.58 401.866 468.154C400.411 466.729 399.684 464.829 399.684 462.456V462.046C399.684 460.454 399.991 459.033 400.606 457.783C401.222 456.523 402.091 455.557 403.214 454.883C404.347 454.199 405.636 453.857 407.081 453.857C409.249 453.857 410.953 454.541 412.193 455.908C413.443 457.275 414.068 459.214 414.068 461.724V463.452H403.976C404.112 464.487 404.522 465.317 405.206 465.942C405.899 466.567 406.773 466.88 407.828 466.88C409.459 466.88 410.733 466.289 411.651 465.107L413.731 467.437C413.097 468.335 412.237 469.038 411.153 469.546C410.069 470.044 408.868 470.293 407.55 470.293ZM407.066 457.285C406.227 457.285 405.543 457.568 405.016 458.135C404.498 458.701 404.166 459.512 404.02 460.566H409.908V460.229C409.889 459.292 409.635 458.569 409.146 458.062C408.658 457.544 407.965 457.285 407.066 457.285Z" fill="white"/>
<path d="M477.927 474.525L521.297 495.898L498.893 499.848L491.443 520.948L477.927 474.525Z" fill="#222222"/>
<path d="M144.102 123.422L150.759 109.008H157.966L147.463 129.398V141H140.762V129.398L130.259 109.008H137.488L144.102 123.422ZM158.032 128.893C158.032 126.535 158.486 124.433 159.395 122.587C160.303 120.741 161.606 119.313 163.306 118.302C165.02 117.292 167.004 116.786 169.26 116.786C172.468 116.786 175.083 117.768 177.104 119.73C179.141 121.693 180.276 124.359 180.51 127.729L180.554 129.354C180.554 133.002 179.536 135.932 177.5 138.144C175.464 140.341 172.732 141.439 169.304 141.439C165.876 141.439 163.137 140.341 161.086 138.144C159.05 135.946 158.032 132.958 158.032 129.179V128.893ZM164.382 129.354C164.382 131.61 164.807 133.339 165.657 134.54C166.506 135.727 167.722 136.32 169.304 136.32C170.842 136.32 172.043 135.734 172.908 134.562C173.772 133.375 174.204 131.486 174.204 128.893C174.204 126.681 173.772 124.967 172.908 123.751C172.043 122.536 170.828 121.928 169.26 121.928C167.708 121.928 166.506 122.536 165.657 123.751C164.807 124.953 164.382 126.82 164.382 129.354ZM198.704 138.583C197.136 140.487 194.968 141.439 192.2 141.439C189.651 141.439 187.703 140.707 186.355 139.242C185.022 137.777 184.341 135.631 184.312 132.804V117.226H190.662V132.584C190.662 135.06 191.79 136.298 194.045 136.298C196.199 136.298 197.678 135.551 198.484 134.057V117.226H204.856V141H198.879L198.704 138.583ZM223.005 123.18C222.141 123.063 221.379 123.004 220.72 123.004C218.318 123.004 216.743 123.817 215.996 125.443V141H209.646V117.226H215.645L215.82 120.06C217.095 117.877 218.86 116.786 221.116 116.786C221.819 116.786 222.478 116.881 223.093 117.072L223.005 123.18ZM244.714 141H238.123V109.008H244.714V141ZM256.272 117.226L256.47 119.972C258.169 117.848 260.447 116.786 263.303 116.786C265.823 116.786 267.698 117.526 268.928 119.005C270.159 120.485 270.789 122.697 270.818 125.641V141H264.468V125.795C264.468 124.447 264.175 123.473 263.589 122.873C263.003 122.257 262.029 121.95 260.667 121.95C258.879 121.95 257.539 122.711 256.646 124.235V141H250.295V117.226H256.272ZM277.388 141V121.884H273.85V117.226H277.388V115.204C277.388 112.538 278.149 110.473 279.673 109.008C281.211 107.528 283.357 106.789 286.111 106.789C286.99 106.789 288.066 106.935 289.341 107.228L289.275 112.15C288.748 112.018 288.103 111.952 287.341 111.952C284.954 111.952 283.76 113.073 283.76 115.314V117.226H288.484V121.884H283.76V141H277.388ZM290.791 128.893C290.791 126.535 291.245 124.433 292.153 122.587C293.062 120.741 294.365 119.313 296.064 118.302C297.778 117.292 299.763 116.786 302.019 116.786C305.227 116.786 307.842 117.768 309.863 119.73C311.899 121.693 313.035 124.359 313.269 127.729L313.313 129.354C313.313 133.002 312.295 135.932 310.259 138.144C308.223 140.341 305.491 141.439 302.063 141.439C298.635 141.439 295.896 140.341 293.845 138.144C291.809 135.946 290.791 132.958 290.791 129.179V128.893ZM297.141 129.354C297.141 131.61 297.566 133.339 298.416 134.54C299.265 135.727 300.481 136.32 302.063 136.32C303.601 136.32 304.802 135.734 305.667 134.562C306.531 133.375 306.963 131.486 306.963 128.893C306.963 126.681 306.531 124.967 305.667 123.751C304.802 122.536 303.586 121.928 302.019 121.928C300.466 121.928 299.265 122.536 298.416 123.751C297.566 124.953 297.141 126.82 297.141 129.354Z" fill="#333333"/>
<rect x="130" y="264" width="361" height="20" rx="10" fill="#E3E3E3"/>
<rect x="130" y="223" width="234" height="20" rx="10" fill="#E3E3E3"/>
<rect x="257" y="305" width="234" height="20" rx="10" fill="#E3E3E3"/>
<rect x="387" y="223" width="104" height="20" rx="10" fill="#94A8ED"/>
<rect x="130" y="305" width="104" height="20" rx="10" fill="#94A8ED"/>
<defs>
<filter id="filter0_d" x="0" y="0" width="622" height="608" filterUnits="userSpaceOnUse" color-interpolation-filters="sRGB">
<feFlood flood-opacity="0" result="BackgroundImageFix"/>
<feColorMatrix in="SourceAlpha" type="matrix" values="0 0 0 0 0 0 0 0 0 0 0 0 0 0 0 0 0 0 127 0"/>
<feOffset dy="4"/>
<feGaussianBlur stdDeviation="25"/>
<feColorMatrix type="matrix" values="0 0 0 0 0 0 0 0 0 0 0 0 0 0 0 0 0 0 0.2 0"/>
<feBlend mode="normal" in2="BackgroundImageFix" result="effect1_dropShadow"/>
<feBlend mode="normal" in="SourceGraphic" in2="effect1_dropShadow" result="shape"/>
</filter>
</defs>
</svg>
