<svg width="234" height="407" viewBox="0 0 234 407" fill="none" xmlns="http://www.w3.org/2000/svg">
<line x1="201" y1="406" x2="201" y2="1" stroke="#2F5DA3" stroke-width="2" stroke-dasharray="2 8"/>
<line x1="191" y1="406" x2="191" y2="1" stroke="#2F5DA3" stroke-width="2" stroke-dasharray="2 8"/>
<line x1="181" y1="406" x2="181" y2="1" stroke="#2F5DA3" stroke-width="2" stroke-dasharray="2 8"/>
<line x1="170" y1="406" x2="170" y2="1" stroke="#2F5DA3" stroke-width="2" stroke-dasharray="2 8"/>
<line x1="159" y1="406" x2="159" y2="1" stroke="#2F5DA3" stroke-width="2" stroke-dasharray="2 8"/>
<line x1="148" y1="406" x2="148" y2="1" stroke="#2F5DA3" stroke-width="2" stroke-dasharray="2 8"/>
<line x1="138" y1="406" x2="138" y2="1" stroke="#2F5DA3" stroke-width="2" stroke-dasharray="2 8"/>
<line x1="128" y1="406" x2="128" y2="1" stroke="#2F5DA3" stroke-width="2" stroke-dasharray="2 8"/>
<line x1="117" y1="406" x2="117" y2="1" stroke="#2F5DA3" stroke-width="2" stroke-dasharray="2 8"/>
<line x1="106" y1="406" x2="106" y2="1" stroke="#2F5DA3" stroke-width="2" stroke-dasharray="2 8"/>
<line x1="96" y1="406" x2="96" y2="1" stroke="#2F5DA3" stroke-width="2" stroke-dasharray="2 8"/>
<line x1="86" y1="406" x2="86" y2="1" stroke="#2F5DA3" stroke-width="2" stroke-dasharray="2 8"/>
<line x1="76" y1="406" x2="76" y2="1" stroke="#2F5DA3" stroke-width="2" stroke-dasharray="2 8"/>
<line x1="65" y1="406" x2="65" y2="1" stroke="#2F5DA3" stroke-width="2" stroke-dasharray="2 8"/>
<line x1="54" y1="406" x2="54" y2="1" stroke="#2F5DA3" stroke-width="2" stroke-dasharray="2 8"/>
<line x1="43" y1="406" x2="43" y2="1" stroke="#2F5DA3" stroke-opacity="0.8" stroke-width="2" stroke-dasharray="2 8"/>
<line x1="33" y1="406" x2="33" y2="1" stroke="#2F5DA3" stroke-opacity="0.6" stroke-width="2" stroke-dasharray="2 8"/>
<line x1="23" y1="406" x2="23" y2="1" stroke="#2F5DA3" stroke-opacity="0.5" stroke-width="2" stroke-dasharray="2 8"/>
<line x1="12" y1="406" x2="12" y2="1" stroke="#2F5DA3" stroke-opacity="0.3" stroke-width="2" stroke-dasharray="2 8"/>
<line x1="1" y1="406" x2="1" y2="1" stroke="#2F5DA3" stroke-opacity="0.1" stroke-width="2" stroke-dasharray="2 8"/>
<line x1="232.116" y1="406.002" x2="232.116" y2="0.996948" stroke="#2F5DA3" stroke-width="2"/>
</svg>
