<svg width="402" height="94" viewBox="0 0 402 94" fill="none" xmlns="http://www.w3.org/2000/svg">
<path d="M10.4188 10C10.4188 5.58172 14.0005 2 18.4188 2H32.9658C37.3841 2 40.9658 5.58172 40.9658 10V72H10.4188V10Z" stroke="#BCBCBC" stroke-width="4"/>
<path d="M0.786377 74L50.3975 74" stroke="#BCBCBC" stroke-width="6"/>
<rect x="22.4786" y="62.9178" width="6.82906" height="9.65218" fill="#BCBCBC"/>
<rect x="23.2821" y="6.7923" width="5.22222" height="4.64734" fill="#BCBCBC"/>
<rect x="30.5128" y="6.7923" width="5.22222" height="4.64734" fill="#BCBCBC"/>
<rect x="16.0513" y="6.7923" width="5.22222" height="4.64734" fill="#BCBCBC"/>
<rect x="23.2821" y="19.6619" width="5.22222" height="4.64734" fill="#BCBCBC"/>
<rect x="30.5128" y="19.6619" width="5.22222" height="4.64734" fill="#BCBCBC"/>
<rect x="16.0513" y="19.6619" width="5.22222" height="4.64734" fill="#BCBCBC"/>
<rect x="23.2821" y="26.0966" width="5.22222" height="4.64734" fill="#BCBCBC"/>
<rect x="30.5128" y="26.0966" width="5.22222" height="4.64734" fill="#DFDFDF"/>
<rect x="16.0513" y="26.0966" width="5.22222" height="4.64734" fill="#BCBCBC"/>
<rect x="23.2821" y="32.5314" width="5.22222" height="4.64734" fill="#DFDFDF"/>
<rect x="16.0513" y="32.5314" width="5.22222" height="4.64734" fill="#BCBCBC"/>
<rect x="23.2821" y="13.2271" width="5.22222" height="4.64734" fill="#BCBCBC"/>
<rect x="30.5128" y="13.2271" width="5.22222" height="4.64734" fill="#5A2EFF"/>
<rect x="16.0513" y="13.2271" width="5.22222" height="4.64734" fill="#BCBCBC"/>
<rect x="16.0513" y="38.9662" width="5.22222" height="4.64734" fill="#DFDFDF"/>
<path d="M166.558 47.0963C166.163 47.0963 165.713 47.0406 165.209 46.9294C164.723 46.8181 164.247 46.679 163.779 46.5121C163.311 46.3451 162.898 46.1689 162.538 45.9835L163.212 45.288V52.7436H161.269V35.3286C161.269 34.7537 161.44 34.29 161.782 33.9376C162.142 33.5853 162.601 33.3163 163.158 33.1309C163.716 32.9268 164.31 32.7877 164.939 32.7136C165.569 32.6208 166.163 32.5745 166.72 32.5745C167.799 32.5745 168.816 32.8063 169.769 33.27C170.723 33.7336 171.496 34.5218 172.09 35.6346C172.684 36.7289 172.98 38.2218 172.98 40.1136C172.98 41.5417 172.729 42.7842 172.225 43.8414C171.739 44.88 171.02 45.6868 170.066 46.2617C169.113 46.8181 167.944 47.0963 166.558 47.0963ZM166.558 45.2602C167.548 45.2602 168.357 45.0469 168.987 44.6203C169.634 44.1752 170.12 43.5632 170.444 42.7842C170.768 42.0053 170.93 41.1151 170.93 40.1136C170.93 39.1121 170.822 38.1755 170.606 37.3038C170.39 36.4321 169.977 35.7366 169.365 35.2173C168.753 34.6795 167.863 34.4106 166.693 34.4106C165.758 34.4106 164.939 34.5218 164.238 34.7444C163.554 34.9669 163.212 35.2823 163.212 35.6903V44.2865C163.77 44.6203 164.328 44.8707 164.885 45.0376C165.443 45.186 166.001 45.2602 166.558 45.2602ZM183.972 47.1241C183.378 47.1241 182.776 47.0592 182.164 46.9294C181.571 46.7995 181.013 46.577 180.491 46.2617C179.988 45.9464 179.574 45.5198 179.25 44.982C178.944 44.4256 178.791 43.7301 178.791 42.8955C178.791 41.7456 178.998 40.8276 179.412 40.1414C179.844 39.4366 180.429 38.9358 181.166 38.6391C181.921 38.3238 182.785 38.1662 183.756 38.1662C184.494 38.1662 185.132 38.2125 185.672 38.3053C186.212 38.398 186.689 38.5371 187.102 38.7226C187.534 38.8895 187.921 39.0842 188.263 39.3068L188.64 41.1429C188.227 40.8276 187.624 40.5587 186.832 40.3361C186.059 40.095 185.205 39.9745 184.269 39.9745C183.136 39.9745 182.263 40.197 181.651 40.6421C181.04 41.0872 180.734 41.7364 180.734 42.5895C180.734 43.2757 180.914 43.8229 181.274 44.2309C181.651 44.6389 182.119 44.9263 182.677 45.0933C183.253 45.2602 183.837 45.3436 184.431 45.3436C185.6 45.3436 186.482 45.2602 187.075 45.0933C187.687 44.9078 187.993 44.4998 187.993 43.8692V37.4985C187.993 36.4229 187.687 35.6346 187.075 35.1339C186.464 34.6331 185.591 34.3827 184.458 34.3827C183.738 34.3827 182.974 34.494 182.164 34.7166C181.373 34.9206 180.689 35.2544 180.113 35.7181V33.7151C180.671 33.3441 181.418 33.0659 182.353 32.8805C183.289 32.6764 184.197 32.5745 185.078 32.5745C185.672 32.5745 186.221 32.6394 186.724 32.7692C187.229 32.8805 187.678 33.0567 188.074 33.2978C188.47 33.5203 188.802 33.8171 189.072 34.188C189.36 34.5404 189.576 34.9577 189.72 35.4399C189.882 35.9035 189.963 36.4321 189.963 37.0256V43.7579C189.963 44.7409 189.675 45.4734 189.099 45.9557C188.542 46.4379 187.804 46.7531 186.886 46.9015C185.987 47.0499 185.016 47.1241 183.972 47.1241ZM196.971 46.7068V33.9376C197.187 33.8449 197.6 33.6872 198.212 33.4647C198.841 33.2421 199.588 33.0381 200.452 32.8527C201.333 32.6672 202.241 32.5745 203.177 32.5745C203.321 32.5745 203.465 32.593 203.609 32.6301C203.753 32.6672 203.897 32.7043 204.041 32.7414V34.5218C203.573 34.4662 203.114 34.4384 202.665 34.4384C202.233 34.4384 201.81 34.4662 201.396 34.5218C200.982 34.5589 200.568 34.6146 200.155 34.6887C199.741 34.7629 199.327 34.8371 198.914 34.9113V46.7068H196.971ZM214.077 46.9294C213.124 46.9294 212.323 46.6326 211.676 46.0391C211.028 45.4271 210.704 44.5276 210.704 43.3406V34.6609H208.357V32.8248H210.704V28.9023H212.647V32.8248H216.128V34.6609H212.647V42.7008C212.647 43.4797 212.764 44.0639 212.998 44.4534C213.232 44.8429 213.709 45.0376 214.428 45.0376C214.752 45.0376 215.067 45.0098 215.372 44.9542C215.678 44.88 215.93 44.7965 216.128 44.7038V46.5955C215.877 46.6883 215.553 46.7624 215.157 46.8181C214.779 46.8922 214.419 46.9294 214.077 46.9294ZM233.378 37.6654V46.7068H231.436V37.6654C231.436 37.3316 231.391 36.9792 231.301 36.6083C231.229 36.2374 231.076 35.885 230.842 35.5512C230.608 35.1988 230.248 34.9206 229.763 34.7166C229.277 34.494 228.629 34.3827 227.82 34.3827C227.262 34.3827 226.686 34.4291 226.093 34.5218C225.499 34.6146 224.897 34.7537 224.285 34.9391V46.7068H222.342V33.9376C222.774 33.7151 223.215 33.5203 223.664 33.3534C224.132 33.168 224.6 33.0196 225.067 32.9083C225.553 32.797 226.039 32.7136 226.524 32.6579C227.029 32.6023 227.532 32.5745 228.036 32.5745C229.349 32.5745 230.392 32.7785 231.166 33.1865C231.94 33.576 232.497 34.1509 232.839 34.9113C233.199 35.6717 233.378 36.5898 233.378 37.6654ZM230.815 34.494C231.409 34.0304 232.011 33.6594 232.623 33.3812C233.235 33.103 233.864 32.899 234.512 32.7692C235.178 32.6394 235.843 32.5745 236.509 32.5745C237.822 32.5745 238.865 32.7785 239.639 33.1865C240.413 33.576 240.97 34.1509 241.312 34.9113C241.672 35.6717 241.851 36.5898 241.851 37.6654V46.7068H239.909V37.6654C239.909 37.3316 239.864 36.9792 239.774 36.6083C239.702 36.2374 239.549 35.885 239.315 35.5512C239.081 35.1988 238.721 34.9206 238.236 34.7166C237.75 34.494 237.102 34.3827 236.293 34.3827C235.735 34.3827 235.159 34.4662 234.566 34.6331C233.972 34.8 233.37 35.0875 232.758 35.4955L230.815 34.494ZM254.421 47.1241C253.144 47.1241 252.037 46.8552 251.102 46.3173C250.167 45.7609 249.447 44.9356 248.943 43.8414C248.44 42.7471 248.188 41.384 248.188 39.7519C248.188 37.3594 248.71 35.5697 249.753 34.3827C250.814 33.1772 252.262 32.5745 254.097 32.5745C255.537 32.5745 256.688 32.9083 257.551 33.576C258.433 34.2436 259.062 35.1432 259.44 36.2745C259.818 37.4058 259.998 38.6855 259.98 40.1136H249.159L249.294 38.2775H258.712L257.956 38.5557C257.902 37.1647 257.561 36.1261 256.931 35.4399C256.319 34.7537 255.375 34.4106 254.097 34.4106C253.216 34.4106 252.478 34.5775 251.885 34.9113C251.309 35.2451 250.877 35.8294 250.589 36.6639C250.302 37.48 250.158 38.6298 250.158 40.1136C250.158 41.8013 250.535 43.0903 251.291 43.9805C252.064 44.8522 253.144 45.288 254.529 45.288C255.195 45.288 255.807 45.2417 256.364 45.1489C256.922 45.0376 257.434 44.8892 257.902 44.7038C258.37 44.5183 258.783 44.3143 259.143 44.0918V46.1504C258.496 46.4657 257.776 46.7068 256.985 46.8737C256.211 47.0406 255.356 47.1241 254.421 47.1241ZM266.318 33.9376C266.75 33.7151 267.191 33.5203 267.64 33.3534C268.108 33.168 268.575 33.0196 269.043 32.9083C269.529 32.797 270.015 32.7136 270.5 32.6579C271.004 32.6023 271.508 32.5745 272.012 32.5745C273.325 32.5745 274.368 32.7785 275.142 33.1865C275.915 33.576 276.473 34.1509 276.815 34.9113C277.175 35.6717 277.354 36.5898 277.354 37.6654V46.7068H275.412V37.6654C275.412 37.3316 275.367 36.9792 275.277 36.6083C275.205 36.2374 275.052 35.885 274.818 35.5512C274.584 35.1988 274.224 34.9206 273.739 34.7166C273.253 34.494 272.605 34.3827 271.796 34.3827C271.238 34.3827 270.662 34.4291 270.069 34.5218C269.475 34.6146 268.872 34.7537 268.261 34.9391V46.7068H266.318V33.9376ZM288.616 46.9294C287.662 46.9294 286.862 46.6326 286.214 46.0391C285.567 45.4271 285.243 44.5276 285.243 43.3406V34.6609H282.895V32.8248H285.243V28.9023H287.186V32.8248H290.667V34.6609H287.186V42.7008C287.186 43.4797 287.302 44.0639 287.537 44.4534C287.77 44.8429 288.247 45.0376 288.967 45.0376C289.291 45.0376 289.605 45.0098 289.911 44.9542C290.217 44.88 290.469 44.7965 290.667 44.7038V46.5955C290.415 46.6883 290.091 46.7624 289.695 46.8181C289.318 46.8922 288.958 46.9294 288.616 46.9294Z" fill="#5A2EFF"/>
<path d="M311.319 30.1618L311.319 30.1618L311.315 30.1638C310.253 30.7631 309.472 31.6902 308.967 32.9121L308.967 32.9121L308.966 32.9155C308.483 34.109 308.255 35.6164 308.255 37.415C308.255 39.2142 308.483 40.7295 308.965 41.9397L308.965 41.9398L308.968 41.9485C309.474 43.1526 310.255 44.0684 311.315 44.6664L311.319 44.6683C312.386 45.2593 313.718 45.5376 315.285 45.5376C316.243 45.5376 317.184 45.4213 318.106 45.1886L318.106 45.1886C318.769 45.0212 319.416 44.7892 320.047 44.4932V45.2765C319.579 45.4901 319.099 45.6789 318.608 45.843L318.608 45.843L318.603 45.8444C318.039 46.0383 317.457 46.1794 316.858 46.2678L316.85 46.269L316.842 46.2705C316.259 46.3763 315.669 46.4293 315.069 46.4293C312.396 46.4293 310.466 45.6635 309.185 44.2077C307.91 42.7393 307.231 40.5042 307.231 37.415C307.231 34.3259 307.911 32.0907 309.185 30.6223C310.467 29.1665 312.396 28.4008 315.069 28.4008C315.979 28.4008 316.873 28.5159 317.748 28.746C318.535 28.9526 319.301 29.2299 320.047 29.5784V30.3647C319.417 30.0694 318.772 29.8378 318.111 29.6706C317.187 29.4186 316.245 29.2925 315.285 29.2925C313.718 29.2925 312.386 29.5708 311.319 30.1618ZM336.36 41.6158V33.3248H337.303V41.1707C337.303 42.6353 337.609 43.8193 338.319 44.6187L338.324 44.6242L338.329 44.6295C339.069 45.4143 340.16 45.7602 341.499 45.7602C342.838 45.7602 343.925 45.4148 344.648 44.6239C345.381 43.8243 345.696 42.6379 345.696 41.1707V33.3248H346.639V41.6158C346.639 43.282 346.174 44.501 345.306 45.347C344.455 46.1754 343.212 46.6241 341.499 46.6241C340.371 46.6241 339.436 46.4214 338.675 46.0378C337.92 45.6565 337.348 45.1071 336.947 44.3826C336.564 43.6569 336.36 42.7419 336.36 41.6158ZM357.522 46.49L357.522 46.4899L357.509 46.4884C356.921 46.4191 356.402 46.291 355.949 46.1085C355.526 45.913 355.208 45.6705 354.978 45.3891L354.978 45.3887C354.778 45.1445 354.659 44.8101 354.659 44.3421V33.6412L355.068 34.0632L355.743 34.7587L355.918 34.9397C355.894 34.954 355.869 34.9684 355.845 34.9831L355.602 35.1287V35.412V43.8692C355.602 44.4476 355.86 44.9195 356.358 45.2167L356.358 45.2168L356.368 45.2221C356.789 45.4613 357.272 45.6171 357.807 45.6988L357.817 45.7004L357.828 45.7015C358.346 45.7588 358.833 45.788 359.286 45.788C360.622 45.788 361.719 45.5084 362.493 44.8659C363.225 44.2579 363.711 43.4701 363.952 42.5209C364.198 41.6037 364.319 40.6243 364.319 39.585C364.319 38.522 364.169 37.5716 363.857 36.7439C363.559 35.8853 363.072 35.1958 362.388 34.7029C361.684 34.1764 360.777 33.9384 359.718 33.9384C359.112 33.9384 358.469 34.0286 357.791 34.2029C357.379 34.2979 356.982 34.4281 356.602 34.5936V34.4105V33.7568C356.69 33.725 356.782 33.6933 356.877 33.6619C357.381 33.5008 357.894 33.3664 358.415 33.2589C358.934 33.152 359.366 33.1023 359.718 33.1023C361.7 33.1023 363.082 33.6968 363.968 34.8061L363.97 34.8088C364.884 35.9359 365.37 37.5088 365.37 39.585C365.37 41.1416 365.167 42.3679 364.788 43.2873C364.397 44.2145 363.909 44.9014 363.338 45.3758C362.762 45.8511 362.144 46.1672 361.484 46.3332L361.484 46.333L361.473 46.3361C360.774 46.5296 360.108 46.6241 359.475 46.6241C358.795 46.6241 358.144 46.5792 357.522 46.49ZM355.198 33.2707L354.659 33.5488V27.4549H355.602V33.0784C355.46 33.1409 355.325 33.205 355.198 33.2707ZM328.333 46.2068H327.39V28.0391H328.333V46.2068Z" fill="#DFDFDF" stroke="#BCBCBC"/>
<path d="M148.622 27.2427L146.732 27.25L153.825 46.7119L155.984 46.7036L148.622 27.2427Z" fill="#5A2EFF"/>
<path d="M146.46 27.2331H148.349L141.333 46.7068H139.175L146.46 27.2331Z" fill="#5A2EFF"/>
<path d="M78.1038 47V29.03H71.0238V26.99H87.3138V29.03H80.2638V47H78.1038ZM93.3141 47V25.4H95.4741V33.71L95.2341 33.14C95.9941 32.72 96.7941 32.39 97.6341 32.15C98.4741 31.89 99.2641 31.76 100.004 31.76C101.244 31.76 102.284 31.99 103.124 32.45C103.984 32.91 104.634 33.61 105.074 34.55C105.534 35.47 105.764 36.66 105.764 38.12V47H103.604V38.12C103.604 36.72 103.284 35.64 102.644 34.88C102.004 34.12 101.044 33.74 99.7641 33.74C99.0641 33.74 98.3541 33.84 97.6341 34.04C96.9341 34.24 96.2141 34.54 95.4741 34.94V47H93.3141ZM119.75 47.45C118.33 47.45 117.1 47.16 116.06 46.58C115.02 45.98 114.22 45.09 113.66 43.91C113.1 42.73 112.82 41.26 112.82 39.5C112.82 36.92 113.4 34.99 114.56 33.71C115.74 32.41 117.35 31.76 119.39 31.76C120.99 31.76 122.27 32.12 123.23 32.84C124.21 33.56 124.91 34.53 125.33 35.75C125.75 36.97 125.95 38.35 125.93 39.89H113.9L114.05 37.91H124.52L123.68 38.21C123.62 36.71 123.24 35.59 122.54 34.85C121.86 34.11 120.81 33.74 119.39 33.74C118.41 33.74 117.59 33.92 116.93 34.28C116.29 34.64 115.81 35.27 115.49 36.17C115.17 37.05 115.01 38.29 115.01 39.89C115.01 41.71 115.43 43.1 116.27 44.06C117.13 45 118.33 45.47 119.87 45.47C120.61 45.47 121.29 45.42 121.91 45.32C122.53 45.2 123.1 45.04 123.62 44.84C124.14 44.64 124.6 44.42 125 44.18V46.4C124.28 46.74 123.48 47 122.6 47.18C121.74 47.36 120.79 47.45 119.75 47.45Z" fill="#BCBCBC"/>
</svg>
