<svg width="353" height="90" viewBox="0 0 353 90" fill="none" xmlns="http://www.w3.org/2000/svg">
<rect y="4" width="59" height="10" fill="url(#paint0_linear)"/>
<rect y="57" width="220" height="10" fill="#5A5A5A"/>
<path d="M318.943 11.6338C318.943 11.1533 318.809 10.7725 318.539 10.4912C318.275 10.2041 317.824 9.94043 317.186 9.7002C316.547 9.45996 315.996 9.22266 315.533 8.98828C315.07 8.74805 314.672 8.47559 314.338 8.1709C314.01 7.86035 313.752 7.49707 313.564 7.08105C313.383 6.66504 313.292 6.16992 313.292 5.5957C313.292 4.60547 313.608 3.79395 314.241 3.16113C314.874 2.52832 315.715 2.15918 316.764 2.05371V0.172852H318.17V2.08008C319.207 2.22656 320.019 2.66016 320.604 3.38086C321.19 4.0957 321.483 5.02441 321.483 6.16699H318.943C318.943 5.46387 318.797 4.93945 318.504 4.59375C318.217 4.24219 317.83 4.06641 317.344 4.06641C316.863 4.06641 316.491 4.2041 316.228 4.47949C315.964 4.74902 315.832 5.12402 315.832 5.60449C315.832 6.0498 315.961 6.40723 316.219 6.67676C316.477 6.94629 316.954 7.22168 317.651 7.50293C318.354 7.78418 318.932 8.05078 319.383 8.30273C319.834 8.54883 320.215 8.83008 320.525 9.14648C320.836 9.45703 321.073 9.81445 321.237 10.2188C321.401 10.6172 321.483 11.083 321.483 11.6162C321.483 12.6123 321.173 13.4209 320.552 14.042C319.931 14.6631 319.075 15.0293 317.985 15.1406V16.8896H316.588V15.1494C315.387 15.0205 314.455 14.5957 313.793 13.875C313.137 13.1484 312.809 12.1846 312.809 10.9834H315.349C315.349 11.6807 315.513 12.2168 315.841 12.5918C316.175 12.9609 316.652 13.1455 317.273 13.1455C317.789 13.1455 318.196 13.0107 318.495 12.7412C318.794 12.4658 318.943 12.0967 318.943 11.6338ZM331.907 3.62695L326.959 15H324.278L329.235 4.25977H322.872V2.20312H331.907V3.62695ZM342.313 15H333.542V13.2598L337.682 8.84766C338.25 8.22656 338.669 7.68457 338.938 7.22168C339.214 6.75879 339.352 6.31934 339.352 5.90332C339.352 5.33496 339.208 4.88965 338.921 4.56738C338.634 4.23926 338.224 4.0752 337.69 4.0752C337.116 4.0752 336.662 4.27441 336.328 4.67285C336 5.06543 335.836 5.58398 335.836 6.22852H333.287C333.287 5.44922 333.472 4.7373 333.841 4.09277C334.216 3.44824 334.743 2.94434 335.423 2.58105C336.103 2.21191 336.873 2.02734 337.734 2.02734C339.053 2.02734 340.075 2.34375 340.802 2.97656C341.534 3.60938 341.9 4.50293 341.9 5.65723C341.9 6.29004 341.736 6.93457 341.408 7.59082C341.08 8.24707 340.518 9.01172 339.721 9.88477L336.812 12.9521H342.313V15ZM352.491 9.70898C352.491 11.4785 352.125 12.832 351.393 13.7695C350.66 14.707 349.588 15.1758 348.176 15.1758C346.781 15.1758 345.715 14.7158 344.977 13.7959C344.238 12.876 343.86 11.5576 343.843 9.84082V7.48535C343.843 5.69824 344.212 4.3418 344.95 3.41602C345.694 2.49023 346.764 2.02734 348.158 2.02734C349.553 2.02734 350.619 2.4873 351.357 3.40723C352.096 4.32129 352.474 5.63672 352.491 7.35352V9.70898ZM349.951 7.125C349.951 6.06445 349.805 5.29395 349.512 4.81348C349.225 4.32715 348.773 4.08398 348.158 4.08398C347.561 4.08398 347.118 4.31543 346.831 4.77832C346.55 5.23535 346.4 5.95312 346.383 6.93164V10.043C346.383 11.0859 346.523 11.8623 346.805 12.3721C347.092 12.876 347.549 13.1279 348.176 13.1279C348.797 13.1279 349.245 12.8848 349.521 12.3984C349.796 11.9121 349.939 11.168 349.951 10.166V7.125Z" fill="white"/>
<path d="M308.943 64.6338C308.943 64.1533 308.809 63.7725 308.539 63.4912C308.275 63.2041 307.824 62.9404 307.186 62.7002C306.547 62.46 305.996 62.2227 305.533 61.9883C305.07 61.748 304.672 61.4756 304.338 61.1709C304.01 60.8604 303.752 60.4971 303.564 60.0811C303.383 59.665 303.292 59.1699 303.292 58.5957C303.292 57.6055 303.608 56.7939 304.241 56.1611C304.874 55.5283 305.715 55.1592 306.764 55.0537V53.1729H308.17V55.0801C309.207 55.2266 310.019 55.6602 310.604 56.3809C311.19 57.0957 311.483 58.0244 311.483 59.167H308.943C308.943 58.4639 308.797 57.9395 308.504 57.5938C308.217 57.2422 307.83 57.0664 307.344 57.0664C306.863 57.0664 306.491 57.2041 306.228 57.4795C305.964 57.749 305.832 58.124 305.832 58.6045C305.832 59.0498 305.961 59.4072 306.219 59.6768C306.477 59.9463 306.954 60.2217 307.651 60.5029C308.354 60.7842 308.932 61.0508 309.383 61.3027C309.834 61.5488 310.215 61.8301 310.525 62.1465C310.836 62.457 311.073 62.8145 311.237 63.2188C311.401 63.6172 311.483 64.083 311.483 64.6162C311.483 65.6123 311.173 66.4209 310.552 67.042C309.931 67.6631 309.075 68.0293 307.985 68.1406V69.8896H306.588V68.1494C305.387 68.0205 304.455 67.5957 303.793 66.875C303.137 66.1484 302.809 65.1846 302.809 63.9834H305.349C305.349 64.6807 305.513 65.2168 305.841 65.5918C306.175 65.9609 306.652 66.1455 307.273 66.1455C307.789 66.1455 308.196 66.0107 308.495 65.7412C308.794 65.4658 308.943 65.0967 308.943 64.6338ZM315.79 60.4766H317.144C317.788 60.4766 318.266 60.3154 318.576 59.9932C318.887 59.6709 319.042 59.2432 319.042 58.71C319.042 58.1943 318.887 57.793 318.576 57.5059C318.271 57.2188 317.85 57.0752 317.311 57.0752C316.824 57.0752 316.417 57.21 316.089 57.4795C315.761 57.7432 315.597 58.0889 315.597 58.5166H313.057C313.057 57.8486 313.235 57.251 313.593 56.7236C313.956 56.1904 314.46 55.7744 315.104 55.4756C315.755 55.1768 316.47 55.0273 317.249 55.0273C318.603 55.0273 319.663 55.3525 320.431 56.0029C321.198 56.6475 321.582 57.5381 321.582 58.6748C321.582 59.2607 321.403 59.7998 321.046 60.292C320.688 60.7842 320.22 61.1621 319.64 61.4258C320.36 61.6836 320.896 62.0703 321.248 62.5859C321.605 63.1016 321.784 63.7109 321.784 64.4141C321.784 65.5508 321.368 66.4619 320.536 67.1475C319.71 67.833 318.614 68.1758 317.249 68.1758C315.972 68.1758 314.926 67.8389 314.111 67.165C313.303 66.4912 312.898 65.6006 312.898 64.4932H315.438C315.438 64.9736 315.617 65.3662 315.975 65.6709C316.338 65.9756 316.783 66.1279 317.311 66.1279C317.914 66.1279 318.386 65.9697 318.726 65.6533C319.071 65.3311 319.244 64.9062 319.244 64.3789C319.244 63.1016 318.541 62.4629 317.135 62.4629H315.79V60.4766ZM323.92 61.707L324.658 55.2031H331.83V57.3213H326.741L326.425 60.0723C327.028 59.75 327.67 59.5889 328.35 59.5889C329.568 59.5889 330.523 59.9668 331.215 60.7227C331.906 61.4785 332.252 62.5361 332.252 63.8955C332.252 64.7217 332.076 65.4629 331.725 66.1191C331.379 66.7695 330.881 67.2764 330.23 67.6396C329.58 67.9971 328.812 68.1758 327.928 68.1758C327.154 68.1758 326.437 68.0205 325.774 67.71C325.112 67.3936 324.588 66.9512 324.201 66.3828C323.82 65.8145 323.618 65.167 323.595 64.4404H326.108C326.161 64.9736 326.346 65.3896 326.662 65.6885C326.984 65.9814 327.403 66.1279 327.919 66.1279C328.493 66.1279 328.936 65.9229 329.246 65.5127C329.557 65.0967 329.712 64.5107 329.712 63.7549C329.712 63.0283 329.533 62.4717 329.176 62.085C328.818 61.6982 328.312 61.5049 327.655 61.5049C327.052 61.5049 326.562 61.6631 326.188 61.9795L325.941 62.208L323.92 61.707ZM342.491 62.709C342.491 64.4785 342.125 65.832 341.393 66.7695C340.66 67.707 339.588 68.1758 338.176 68.1758C336.781 68.1758 335.715 67.7158 334.977 66.7959C334.238 65.876 333.86 64.5576 333.843 62.8408V60.4854C333.843 58.6982 334.212 57.3418 334.95 56.416C335.694 55.4902 336.764 55.0273 338.158 55.0273C339.553 55.0273 340.619 55.4873 341.357 56.4072C342.096 57.3213 342.474 58.6367 342.491 60.3535V62.709ZM339.951 60.125C339.951 59.0645 339.805 58.2939 339.512 57.8135C339.225 57.3271 338.773 57.084 338.158 57.084C337.561 57.084 337.118 57.3154 336.831 57.7783C336.55 58.2354 336.4 58.9531 336.383 59.9316V63.043C336.383 64.0859 336.523 64.8623 336.805 65.3721C337.092 65.876 337.549 66.1279 338.176 66.1279C338.797 66.1279 339.245 65.8848 339.521 65.3984C339.796 64.9121 339.939 64.168 339.951 63.166V60.125ZM352.827 62.709C352.827 64.4785 352.461 65.832 351.729 66.7695C350.996 67.707 349.924 68.1758 348.512 68.1758C347.117 68.1758 346.051 67.7158 345.312 66.7959C344.574 65.876 344.196 64.5576 344.179 62.8408V60.4854C344.179 58.6982 344.548 57.3418 345.286 56.416C346.03 55.4902 347.1 55.0273 348.494 55.0273C349.889 55.0273 350.955 55.4873 351.693 56.4072C352.432 57.3213 352.81 58.6367 352.827 60.3535V62.709ZM350.287 60.125C350.287 59.0645 350.141 58.2939 349.848 57.8135C349.561 57.3271 349.109 57.084 348.494 57.084C347.896 57.084 347.454 57.3154 347.167 57.7783C346.886 58.2354 346.736 58.9531 346.719 59.9316V63.043C346.719 64.0859 346.859 64.8623 347.141 65.3721C347.428 65.876 347.885 66.1279 348.512 66.1279C349.133 66.1279 349.581 65.8848 349.856 65.3984C350.132 64.9121 350.275 64.168 350.287 63.166V60.125Z" fill="white"/>
<path d="M5.98145 31.4365C5.98145 31.0173 5.83333 30.6641 5.53711 30.377C5.24544 30.0898 4.75098 29.8301 4.05371 29.5977C3.08301 29.3014 2.37435 28.9163 1.92773 28.4424C1.48568 27.9639 1.26465 27.3577 1.26465 26.624C1.26465 25.8766 1.48112 25.2637 1.91406 24.7852C2.35156 24.3066 2.95085 24.0218 3.71191 23.9307V22.4336H4.73047V23.9375C5.49609 24.0423 6.09082 24.3636 6.51465 24.9014C6.94303 25.4391 7.15723 26.1751 7.15723 27.1094H5.89941C5.89941 26.4668 5.74674 25.9564 5.44141 25.5781C5.13607 25.1999 4.72363 25.0107 4.2041 25.0107C3.66178 25.0107 3.24707 25.152 2.95996 25.4346C2.67285 25.7126 2.5293 26.1022 2.5293 26.6035C2.5293 27.0684 2.67969 27.4398 2.98047 27.7178C3.28581 27.9912 3.78483 28.2419 4.47754 28.4697C5.1748 28.693 5.71712 28.9414 6.10449 29.2148C6.49642 29.4837 6.78353 29.7982 6.96582 30.1582C7.15267 30.5182 7.24609 30.9398 7.24609 31.4229C7.24609 32.193 7.01367 32.8128 6.54883 33.2822C6.08854 33.7516 5.44141 34.0296 4.60742 34.1162V35.4219H3.5957V34.1162C2.74805 34.0387 2.08268 33.738 1.59961 33.2139C1.12109 32.6852 0.881836 31.9697 0.881836 31.0674H2.14648C2.14648 31.7008 2.31283 32.1885 2.64551 32.5303C2.97819 32.8721 3.44987 33.043 4.06055 33.043C4.65755 33.043 5.12695 32.8994 5.46875 32.6123C5.81055 32.3252 5.98145 31.9333 5.98145 31.4365ZM15.3398 34H8.81836V33.0908L12.2637 29.2627C12.7741 28.6839 13.125 28.2145 13.3164 27.8545C13.5124 27.4899 13.6104 27.1139 13.6104 26.7266C13.6104 26.207 13.4531 25.7809 13.1387 25.4482C12.8242 25.1156 12.4049 24.9492 11.8809 24.9492C11.252 24.9492 10.762 25.1292 10.4111 25.4893C10.0648 25.8447 9.8916 26.3415 9.8916 26.9795H8.62695C8.62695 26.0635 8.9209 25.3229 9.50879 24.7578C10.1012 24.1927 10.8919 23.9102 11.8809 23.9102C12.806 23.9102 13.5374 24.154 14.0752 24.6416C14.613 25.1247 14.8818 25.7695 14.8818 26.5762C14.8818 27.556 14.2575 28.7227 13.0088 30.0762L10.3428 32.9678H15.3398V34ZM22.9209 29.7549C22.9209 31.236 22.668 32.3366 22.1621 33.0566C21.6562 33.7767 20.8656 34.1367 19.79 34.1367C18.7282 34.1367 17.9421 33.7858 17.4316 33.084C16.9212 32.3776 16.6569 31.3249 16.6387 29.9258V28.2373C16.6387 26.7744 16.8916 25.6875 17.3975 24.9766C17.9033 24.2656 18.6963 23.9102 19.7764 23.9102C20.8473 23.9102 21.6357 24.2542 22.1416 24.9424C22.6475 25.626 22.9072 26.6833 22.9209 28.1143V29.7549ZM21.6562 28.0254C21.6562 26.9544 21.5059 26.1751 21.2051 25.6875C20.9043 25.1953 20.4281 24.9492 19.7764 24.9492C19.1292 24.9492 18.6576 25.193 18.3613 25.6807C18.0651 26.1683 17.9124 26.918 17.9033 27.9297V29.9531C17.9033 31.0286 18.0583 31.8239 18.3682 32.3389C18.6826 32.8493 19.1566 33.1045 19.79 33.1045C20.4144 33.1045 20.877 32.863 21.1777 32.3799C21.4831 31.8968 21.6426 31.1357 21.6562 30.0967V28.0254ZM28.3965 34.8545H27.3096L31.4658 24.0469H32.5459L28.3965 34.8545ZM38.5752 26.6035L38.6094 27.4238C39.1517 26.7858 39.8831 26.4668 40.8037 26.4668C41.8382 26.4668 42.5423 26.8633 42.916 27.6562C43.1621 27.3008 43.4811 27.0137 43.873 26.7949C44.2695 26.5762 44.7367 26.4668 45.2744 26.4668C46.8968 26.4668 47.7217 27.3258 47.749 29.0439V34H46.4844V29.1191C46.4844 28.5905 46.3636 28.1963 46.1221 27.9365C45.8805 27.6722 45.4749 27.54 44.9053 27.54C44.4359 27.54 44.0462 27.6813 43.7363 27.9639C43.4264 28.2419 43.2464 28.6178 43.1963 29.0918V34H41.9248V29.1533C41.9248 28.0778 41.3984 27.54 40.3457 27.54C39.5163 27.54 38.9489 27.8932 38.6436 28.5996V34H37.3789V26.6035H38.5752ZM49.3281 30.2334C49.3281 29.5088 49.4694 28.8571 49.752 28.2783C50.0391 27.6995 50.4355 27.2529 50.9414 26.9385C51.4518 26.624 52.0329 26.4668 52.6846 26.4668C53.6917 26.4668 54.5052 26.8154 55.125 27.5127C55.7493 28.21 56.0615 29.1374 56.0615 30.2949V30.3838C56.0615 31.1038 55.9225 31.751 55.6445 32.3252C55.3711 32.8949 54.9769 33.3392 54.4619 33.6582C53.9515 33.9772 53.3636 34.1367 52.6982 34.1367C51.6956 34.1367 50.8822 33.7881 50.2578 33.0908C49.638 32.3936 49.3281 31.4707 49.3281 30.3223V30.2334ZM50.5996 30.3838C50.5996 31.2041 50.7887 31.8626 51.167 32.3594C51.5498 32.8561 52.0602 33.1045 52.6982 33.1045C53.3408 33.1045 53.8512 32.8538 54.2295 32.3525C54.6077 31.8467 54.7969 31.1403 54.7969 30.2334C54.7969 29.4222 54.6032 28.766 54.2158 28.2646C53.833 27.7588 53.3226 27.5059 52.6846 27.5059C52.0602 27.5059 51.5566 27.7542 51.1738 28.251C50.791 28.7477 50.5996 29.4587 50.5996 30.3838ZM60.7852 30.2334C60.7852 29.5088 60.9264 28.8571 61.209 28.2783C61.4961 27.6995 61.8926 27.2529 62.3984 26.9385C62.9089 26.624 63.4899 26.4668 64.1416 26.4668C65.1488 26.4668 65.9622 26.8154 66.582 27.5127C67.2064 28.21 67.5186 29.1374 67.5186 30.2949V30.3838C67.5186 31.1038 67.3796 31.751 67.1016 32.3252C66.8281 32.8949 66.4339 33.3392 65.9189 33.6582C65.4085 33.9772 64.8206 34.1367 64.1553 34.1367C63.1527 34.1367 62.3392 33.7881 61.7148 33.0908C61.0951 32.3936 60.7852 31.4707 60.7852 30.3223V30.2334ZM62.0566 30.3838C62.0566 31.2041 62.2458 31.8626 62.624 32.3594C63.0068 32.8561 63.5173 33.1045 64.1553 33.1045C64.7979 33.1045 65.3083 32.8538 65.6865 32.3525C66.0648 31.8467 66.2539 31.1403 66.2539 30.2334C66.2539 29.4222 66.0602 28.766 65.6729 28.2646C65.29 27.7588 64.7796 27.5059 64.1416 27.5059C63.5173 27.5059 63.0137 27.7542 62.6309 28.251C62.248 28.7477 62.0566 29.4587 62.0566 30.3838ZM71.4355 32.2842L73.2676 26.6035H74.5596L71.9072 34H70.9434L68.2637 26.6035H69.5557L71.4355 32.2842ZM78.75 34.1367C77.7474 34.1367 76.9316 33.8086 76.3027 33.1523C75.6738 32.4915 75.3594 31.6097 75.3594 30.5068V30.2744C75.3594 29.5407 75.4984 28.8867 75.7764 28.3125C76.0589 27.7337 76.4508 27.2826 76.9521 26.959C77.458 26.6309 78.0049 26.4668 78.5928 26.4668C79.5544 26.4668 80.3018 26.7835 80.835 27.417C81.3682 28.0505 81.6348 28.9574 81.6348 30.1377V30.6641H76.624C76.6423 31.3932 76.8542 31.9834 77.2598 32.4346C77.6699 32.8812 78.1895 33.1045 78.8184 33.1045C79.265 33.1045 79.6432 33.0133 79.9531 32.8311C80.263 32.6488 80.5342 32.4072 80.7666 32.1064L81.5391 32.708C80.9193 33.6605 79.9896 34.1367 78.75 34.1367ZM78.5928 27.5059C78.0824 27.5059 77.654 27.6927 77.3076 28.0664C76.9613 28.4355 76.7471 28.9551 76.665 29.625H80.3701V29.5293C80.3337 28.8867 80.1605 28.39 79.8506 28.0391C79.5407 27.6836 79.1214 27.5059 78.5928 27.5059ZM86.6797 27.7383C86.4883 27.7064 86.2809 27.6904 86.0576 27.6904C85.2282 27.6904 84.6654 28.0436 84.3691 28.75V34H83.1045V26.6035H84.335L84.3555 27.458C84.7702 26.7972 85.3581 26.4668 86.1191 26.4668C86.3652 26.4668 86.5521 26.4987 86.6797 26.5625V27.7383Z" fill="white"/>
<path d="M93.4883 24.7852V26.6035H94.7529V28.0527H93.4883V31.7441C93.4883 32.0176 93.5407 32.2135 93.6455 32.332C93.7503 32.4505 93.9508 32.5098 94.2471 32.5098C94.4658 32.5098 94.6595 32.4938 94.8281 32.4619V33.959C94.4408 34.0775 94.042 34.1367 93.6318 34.1367C92.2464 34.1367 91.54 33.4372 91.5127 32.0381V28.0527H90.4326V26.6035H91.5127V24.7852H93.4883ZM97.7812 27.4102C98.3053 26.7812 98.9639 26.4668 99.7568 26.4668C101.361 26.4668 102.174 27.3988 102.197 29.2627V34H100.222V29.3174C100.222 28.8936 100.131 28.5814 99.9482 28.3809C99.766 28.1758 99.4629 28.0732 99.0391 28.0732C98.4603 28.0732 98.041 28.2965 97.7812 28.7432V34H95.8057V23.5H97.7812V27.4102ZM107.844 28.4561C107.575 28.4196 107.338 28.4014 107.133 28.4014C106.385 28.4014 105.896 28.6543 105.663 29.1602V34H103.688V26.6035H105.554L105.608 27.4854C106.005 26.8063 106.554 26.4668 107.256 26.4668C107.475 26.4668 107.68 26.4964 107.871 26.5557L107.844 28.4561ZM112.068 34.1367C110.984 34.1367 110.1 33.804 109.416 33.1387C108.737 32.4733 108.397 31.5869 108.397 30.4795V30.2881C108.397 29.5452 108.541 28.8822 108.828 28.2988C109.115 27.7109 109.521 27.2598 110.045 26.9453C110.574 26.6263 111.175 26.4668 111.85 26.4668C112.861 26.4668 113.657 26.7858 114.235 27.4238C114.819 28.0618 115.11 28.9665 115.11 30.1377V30.9443H110.4C110.464 31.4274 110.656 31.8148 110.975 32.1064C111.298 32.3981 111.706 32.5439 112.198 32.5439C112.959 32.5439 113.554 32.2682 113.982 31.7168L114.953 32.8037C114.657 33.223 114.256 33.5511 113.75 33.7881C113.244 34.0205 112.684 34.1367 112.068 34.1367ZM111.843 28.0664C111.451 28.0664 111.132 28.1986 110.886 28.4629C110.644 28.7272 110.489 29.1055 110.421 29.5977H113.169V29.4404C113.16 29.0029 113.041 28.6657 112.813 28.4287C112.586 28.1872 112.262 28.0664 111.843 28.0664ZM119.643 34.1367C118.558 34.1367 117.674 33.804 116.99 33.1387C116.311 32.4733 115.972 31.5869 115.972 30.4795V30.2881C115.972 29.5452 116.115 28.8822 116.402 28.2988C116.689 27.7109 117.095 27.2598 117.619 26.9453C118.148 26.6263 118.749 26.4668 119.424 26.4668C120.436 26.4668 121.231 26.7858 121.81 27.4238C122.393 28.0618 122.685 28.9665 122.685 30.1377V30.9443H117.975C118.038 31.4274 118.23 31.8148 118.549 32.1064C118.872 32.3981 119.28 32.5439 119.772 32.5439C120.534 32.5439 121.128 32.2682 121.557 31.7168L122.527 32.8037C122.231 33.223 121.83 33.5511 121.324 33.7881C120.818 34.0205 120.258 34.1367 119.643 34.1367ZM119.417 28.0664C119.025 28.0664 118.706 28.1986 118.46 28.4629C118.218 28.7272 118.063 29.1055 117.995 29.5977H120.743V29.4404C120.734 29.0029 120.616 28.6657 120.388 28.4287C120.16 28.1872 119.836 28.0664 119.417 28.0664ZM130.061 31.2041L131.428 26.6035H133.547L130.573 35.1484L130.409 35.5381C129.967 36.5042 129.238 36.9873 128.222 36.9873C127.935 36.9873 127.643 36.944 127.347 36.8574V35.3604L127.647 35.3672C128.021 35.3672 128.299 35.3102 128.481 35.1963C128.668 35.0824 128.814 34.8932 128.919 34.6289L129.151 34.0205L126.561 26.6035H128.687L130.061 31.2041ZM137.635 34.1367C136.55 34.1367 135.666 33.804 134.982 33.1387C134.303 32.4733 133.964 31.5869 133.964 30.4795V30.2881C133.964 29.5452 134.107 28.8822 134.395 28.2988C134.682 27.7109 135.087 27.2598 135.611 26.9453C136.14 26.6263 136.742 26.4668 137.416 26.4668C138.428 26.4668 139.223 26.7858 139.802 27.4238C140.385 28.0618 140.677 28.9665 140.677 30.1377V30.9443H135.967C136.031 31.4274 136.222 31.8148 136.541 32.1064C136.865 32.3981 137.272 32.5439 137.765 32.5439C138.526 32.5439 139.12 32.2682 139.549 31.7168L140.52 32.8037C140.223 33.223 139.822 33.5511 139.316 33.7881C138.811 34.0205 138.25 34.1367 137.635 34.1367ZM137.409 28.0664C137.017 28.0664 136.698 28.1986 136.452 28.4629C136.211 28.7272 136.056 29.1055 135.987 29.5977H138.735V29.4404C138.726 29.0029 138.608 28.6657 138.38 28.4287C138.152 28.1872 137.828 28.0664 137.409 28.0664ZM146.091 34C146 33.8223 145.934 33.6012 145.893 33.3369C145.414 33.8701 144.792 34.1367 144.026 34.1367C143.302 34.1367 142.7 33.9271 142.222 33.5078C141.748 33.0885 141.511 32.5599 141.511 31.9219C141.511 31.138 141.8 30.5365 142.379 30.1172C142.962 29.6979 143.803 29.486 144.901 29.4814H145.811V29.0576C145.811 28.7158 145.722 28.4424 145.544 28.2373C145.371 28.0322 145.095 27.9297 144.717 27.9297C144.384 27.9297 144.122 28.0094 143.931 28.1689C143.744 28.3285 143.65 28.5472 143.65 28.8252H141.675C141.675 28.3968 141.807 28.0003 142.071 27.6357C142.336 27.2712 142.709 26.9863 143.192 26.7812C143.675 26.5716 144.218 26.4668 144.819 26.4668C145.731 26.4668 146.453 26.6969 146.986 27.1572C147.524 27.613 147.793 28.2555 147.793 29.085V32.291C147.798 32.9928 147.896 33.5238 148.087 33.8838V34H146.091ZM144.457 32.626C144.749 32.626 145.018 32.5622 145.264 32.4346C145.51 32.3024 145.692 32.127 145.811 31.9082V30.6367H145.072C144.083 30.6367 143.557 30.9785 143.493 31.6621L143.486 31.7783C143.486 32.0244 143.573 32.2272 143.746 32.3867C143.919 32.5462 144.156 32.626 144.457 32.626ZM153.467 28.4561C153.198 28.4196 152.961 28.4014 152.756 28.4014C152.008 28.4014 151.519 28.6543 151.286 29.1602V34H149.311V26.6035H151.177L151.231 27.4854C151.628 26.8063 152.177 26.4668 152.879 26.4668C153.098 26.4668 153.303 26.4964 153.494 26.5557L153.467 28.4561ZM158.43 31.9561C158.43 31.7145 158.309 31.5254 158.067 31.3887C157.83 31.2474 157.448 31.1221 156.919 31.0127C155.16 30.6436 154.28 29.8962 154.28 28.7705C154.28 28.1143 154.551 27.5674 155.094 27.1299C155.641 26.6878 156.354 26.4668 157.233 26.4668C158.172 26.4668 158.922 26.6878 159.482 27.1299C160.048 27.5719 160.33 28.1462 160.33 28.8525H158.354C158.354 28.57 158.263 28.3376 158.081 28.1553C157.899 27.9684 157.614 27.875 157.227 27.875C156.894 27.875 156.636 27.9502 156.454 28.1006C156.272 28.251 156.181 28.4424 156.181 28.6748C156.181 28.8936 156.283 29.0713 156.488 29.208C156.698 29.3402 157.049 29.4564 157.541 29.5566C158.033 29.6523 158.448 29.7617 158.785 29.8848C159.829 30.2676 160.351 30.9307 160.351 31.874C160.351 32.5485 160.061 33.0954 159.482 33.5146C158.904 33.9294 158.156 34.1367 157.24 34.1367C156.62 34.1367 156.069 34.0273 155.586 33.8086C155.107 33.5853 154.731 33.2822 154.458 32.8994C154.185 32.512 154.048 32.0951 154.048 31.6484H155.921C155.939 31.9993 156.069 32.2682 156.311 32.4551C156.552 32.6419 156.876 32.7354 157.281 32.7354C157.66 32.7354 157.944 32.6647 158.136 32.5234C158.332 32.3776 158.43 32.1885 158.43 31.9561Z" fill="#C9C9C9"/>
<path d="M7.0752 82.3994H2.76172V85.9268H7.77246V87H1.44922V77.0469H7.7041V78.127H2.76172V81.3262H7.0752V82.3994ZM8.76367 83.2402C8.76367 82.0781 9.03027 81.1598 9.56348 80.4854C10.0967 79.8063 10.8122 79.4668 11.71 79.4668C12.585 79.4668 13.2754 79.7607 13.7812 80.3486L13.8359 79.6035H14.998V89.8438H13.7334V86.3164C13.223 86.8633 12.5439 87.1367 11.6963 87.1367C10.8031 87.1367 10.0898 86.7904 9.55664 86.0977C9.02799 85.4004 8.76367 84.4775 8.76367 83.3291V83.2402ZM10.0283 83.3838C10.0283 84.2314 10.2061 84.8968 10.5615 85.3799C10.9215 85.863 11.4046 86.1045 12.0107 86.1045C12.7627 86.1045 13.3369 85.7718 13.7334 85.1064V81.4834C13.3324 80.8317 12.7627 80.5059 12.0244 80.5059C11.4137 80.5059 10.9284 80.7497 10.5684 81.2373C10.2083 81.7204 10.0283 82.4359 10.0283 83.3838ZM21.5947 86.2686C21.1025 86.8473 20.3802 87.1367 19.4277 87.1367C18.6393 87.1367 18.0378 86.9089 17.623 86.4531C17.2129 85.9928 17.0055 85.3138 17.001 84.416V79.6035H18.2656V84.3818C18.2656 85.5029 18.7214 86.0635 19.6328 86.0635C20.599 86.0635 21.2415 85.7035 21.5605 84.9834V79.6035H22.8252V87H21.6221L21.5947 86.2686ZM26.127 87H24.8623V79.6035H26.127V87ZM24.7598 77.6416C24.7598 77.4365 24.8213 77.2633 24.9443 77.1221C25.0719 76.9808 25.2588 76.9102 25.5049 76.9102C25.751 76.9102 25.9378 76.9808 26.0654 77.1221C26.193 77.2633 26.2568 77.4365 26.2568 77.6416C26.2568 77.8467 26.193 78.0176 26.0654 78.1543C25.9378 78.291 25.751 78.3594 25.5049 78.3594C25.2588 78.3594 25.0719 78.291 24.9443 78.1543C24.8213 78.0176 24.7598 77.8467 24.7598 77.6416ZM30.5977 85.2842L32.4297 79.6035H33.7217L31.0693 87H30.1055L27.4258 79.6035H28.7178L30.5977 85.2842ZM39.3955 87C39.3226 86.8542 39.2633 86.5944 39.2178 86.2207C38.6299 86.8314 37.9281 87.1367 37.1123 87.1367C36.3831 87.1367 35.7839 86.9316 35.3145 86.5215C34.8496 86.1068 34.6172 85.5827 34.6172 84.9492C34.6172 84.179 34.9089 83.582 35.4922 83.1582C36.0801 82.7298 36.9049 82.5156 37.9668 82.5156H39.1973V81.9346C39.1973 81.4925 39.0651 81.1416 38.8008 80.8818C38.5365 80.6175 38.1468 80.4854 37.6318 80.4854C37.1807 80.4854 36.8024 80.5993 36.4971 80.8271C36.1917 81.055 36.0391 81.3307 36.0391 81.6543H34.7676C34.7676 81.2852 34.8975 80.9297 35.1572 80.5879C35.4215 80.2415 35.777 79.9681 36.2236 79.7676C36.6748 79.5671 37.1693 79.4668 37.707 79.4668C38.5592 79.4668 39.2269 79.681 39.71 80.1094C40.193 80.5332 40.4437 81.1188 40.4619 81.8662V85.2705C40.4619 85.9495 40.5485 86.4896 40.7217 86.8906V87H39.3955ZM37.2969 86.0361C37.6934 86.0361 38.0693 85.9336 38.4248 85.7285C38.7803 85.5234 39.0378 85.2568 39.1973 84.9287V83.4111H38.2061C36.6566 83.4111 35.8818 83.8646 35.8818 84.7715C35.8818 85.168 36.014 85.4779 36.2783 85.7012C36.5426 85.9245 36.8822 86.0361 37.2969 86.0361ZM43.8184 87H42.5537V76.5H43.8184V87ZM48.918 87.1367C47.9154 87.1367 47.0996 86.8086 46.4707 86.1523C45.8418 85.4915 45.5273 84.6097 45.5273 83.5068V83.2744C45.5273 82.5407 45.6663 81.8867 45.9443 81.3125C46.2269 80.7337 46.6188 80.2826 47.1201 79.959C47.626 79.6309 48.1729 79.4668 48.7607 79.4668C49.7223 79.4668 50.4697 79.7835 51.0029 80.417C51.5361 81.0505 51.8027 81.9574 51.8027 83.1377V83.6641H46.792C46.8102 84.3932 47.0221 84.9834 47.4277 85.4346C47.8379 85.8812 48.3574 86.1045 48.9863 86.1045C49.4329 86.1045 49.8112 86.0133 50.1211 85.8311C50.431 85.6488 50.7021 85.4072 50.9346 85.1064L51.707 85.708C51.0872 86.6605 50.1576 87.1367 48.918 87.1367ZM48.7607 80.5059C48.2503 80.5059 47.8219 80.6927 47.4756 81.0664C47.1292 81.4355 46.915 81.9551 46.833 82.625H50.5381V82.5293C50.5016 81.8867 50.3285 81.39 50.0186 81.0391C49.7087 80.6836 49.2894 80.5059 48.7607 80.5059ZM54.4688 79.6035L54.5098 80.5332C55.0749 79.8223 55.8132 79.4668 56.7246 79.4668C58.2878 79.4668 59.0762 80.3486 59.0898 82.1123V87H57.8252V82.1055C57.8206 81.5723 57.6976 81.1781 57.4561 80.9229C57.2191 80.6676 56.8477 80.54 56.3418 80.54C55.9316 80.54 55.5716 80.6494 55.2617 80.8682C54.9518 81.0869 54.7103 81.374 54.5371 81.7295V87H53.2725V79.6035H54.4688ZM62.7129 77.8125V79.6035H64.0938V80.5811H62.7129V85.168C62.7129 85.4642 62.7744 85.6875 62.8975 85.8379C63.0205 85.9837 63.2301 86.0566 63.5264 86.0566C63.6722 86.0566 63.8727 86.0293 64.1279 85.9746V87C63.7952 87.0911 63.4717 87.1367 63.1572 87.1367C62.5921 87.1367 62.166 86.9658 61.8789 86.624C61.5918 86.2822 61.4482 85.7969 61.4482 85.168V80.5811H60.1016V79.6035H61.4482V77.8125H62.7129ZM71.3945 83.8623L71.5859 85.1748L71.8662 83.9922L73.835 77.0469H74.9424L76.8633 83.9922L77.1367 85.1953L77.3486 83.8555L78.8936 77.0469H80.2129L77.7998 87H76.6035L74.5527 79.7471L74.3955 78.9883L74.2383 79.7471L72.1123 87H70.916L68.5098 77.0469H69.8223L71.3945 83.8623ZM82.8516 87H81.5869V79.6035H82.8516V87ZM81.4844 77.6416C81.4844 77.4365 81.5459 77.2633 81.6689 77.1221C81.7965 76.9808 81.9834 76.9102 82.2295 76.9102C82.4756 76.9102 82.6624 76.9808 82.79 77.1221C82.9176 77.2633 82.9814 77.4365 82.9814 77.6416C82.9814 77.8467 82.9176 78.0176 82.79 78.1543C82.6624 78.291 82.4756 78.3594 82.2295 78.3594C81.9834 78.3594 81.7965 78.291 81.6689 78.1543C81.5459 78.0176 81.4844 77.8467 81.4844 77.6416ZM86.0781 79.6035L86.1191 80.5332C86.6842 79.8223 87.4225 79.4668 88.334 79.4668C89.8971 79.4668 90.6855 80.3486 90.6992 82.1123V87H89.4346V82.1055C89.43 81.5723 89.307 81.1781 89.0654 80.9229C88.8285 80.6676 88.457 80.54 87.9512 80.54C87.541 80.54 87.181 80.6494 86.8711 80.8682C86.5612 81.0869 86.3197 81.374 86.1465 81.7295V87H84.8818V79.6035H86.0781ZM92.2988 83.2402C92.2988 82.1055 92.5677 81.194 93.1055 80.5059C93.6432 79.8132 94.3473 79.4668 95.2178 79.4668C96.0837 79.4668 96.7695 79.763 97.2754 80.3555V76.5H98.54V87H97.3779L97.3164 86.207C96.8105 86.8268 96.1064 87.1367 95.2041 87.1367C94.3473 87.1367 93.6478 86.7858 93.1055 86.084C92.5677 85.3822 92.2988 84.4661 92.2988 83.3359V83.2402ZM93.5635 83.3838C93.5635 84.2223 93.7367 84.8786 94.083 85.3525C94.4294 85.8265 94.9079 86.0635 95.5186 86.0635C96.3206 86.0635 96.9062 85.7035 97.2754 84.9834V81.5859C96.8971 80.8887 96.3161 80.54 95.5322 80.54C94.9124 80.54 94.4294 80.7793 94.083 81.2578C93.7367 81.7363 93.5635 82.445 93.5635 83.3838ZM100.174 83.2334C100.174 82.5088 100.315 81.8571 100.598 81.2783C100.885 80.6995 101.281 80.2529 101.787 79.9385C102.298 79.624 102.879 79.4668 103.53 79.4668C104.537 79.4668 105.351 79.8154 105.971 80.5127C106.595 81.21 106.907 82.1374 106.907 83.2949V83.3838C106.907 84.1038 106.768 84.751 106.49 85.3252C106.217 85.8949 105.823 86.3392 105.308 86.6582C104.797 86.9772 104.209 87.1367 103.544 87.1367C102.541 87.1367 101.728 86.7881 101.104 86.0908C100.484 85.3936 100.174 84.4707 100.174 83.3223V83.2334ZM101.445 83.3838C101.445 84.2041 101.634 84.8626 102.013 85.3594C102.396 85.8561 102.906 86.1045 103.544 86.1045C104.187 86.1045 104.697 85.8538 105.075 85.3525C105.453 84.8467 105.643 84.1403 105.643 83.2334C105.643 82.4222 105.449 81.766 105.062 81.2646C104.679 80.7588 104.168 80.5059 103.53 80.5059C102.906 80.5059 102.402 80.7542 102.02 81.251C101.637 81.7477 101.445 82.4587 101.445 83.3838ZM115.042 85.2568L116.464 79.6035H117.729L115.575 87H114.55L112.752 81.3945L111.002 87H109.977L107.83 79.6035H109.088L110.544 85.1406L112.267 79.6035H113.285L115.042 85.2568ZM123.327 85.0381C123.327 84.6963 123.197 84.432 122.938 84.2451C122.682 84.0537 122.233 83.8896 121.591 83.7529C120.953 83.6162 120.445 83.4521 120.066 83.2607C119.693 83.0693 119.415 82.8415 119.232 82.5771C119.055 82.3128 118.966 81.9984 118.966 81.6338C118.966 81.0277 119.221 80.515 119.731 80.0957C120.246 79.6764 120.903 79.4668 121.7 79.4668C122.539 79.4668 123.218 79.6833 123.737 80.1162C124.261 80.5492 124.523 81.1029 124.523 81.7773H123.252C123.252 81.431 123.104 81.1325 122.808 80.8818C122.516 80.6312 122.147 80.5059 121.7 80.5059C121.24 80.5059 120.88 80.6061 120.62 80.8066C120.36 81.0072 120.23 81.2692 120.23 81.5928C120.23 81.8981 120.351 82.1283 120.593 82.2832C120.834 82.4382 121.27 82.5863 121.898 82.7275C122.532 82.8688 123.045 83.0374 123.437 83.2334C123.828 83.4294 124.118 83.6663 124.305 83.9443C124.496 84.2178 124.592 84.5527 124.592 84.9492C124.592 85.61 124.327 86.141 123.799 86.542C123.27 86.9385 122.584 87.1367 121.741 87.1367C121.149 87.1367 120.625 87.0319 120.169 86.8223C119.713 86.6126 119.355 86.321 119.096 85.9473C118.84 85.569 118.713 85.1611 118.713 84.7236H119.978C120 85.1475 120.169 85.4847 120.483 85.7354C120.802 85.9814 121.222 86.1045 121.741 86.1045C122.22 86.1045 122.603 86.0088 122.89 85.8174C123.181 85.6214 123.327 85.3617 123.327 85.0381ZM131.223 83.1035V87H129.91V77.0469H133.581C134.67 77.0469 135.522 77.3249 136.138 77.8809C136.757 78.4368 137.067 79.1729 137.067 80.0889C137.067 81.055 136.764 81.8001 136.158 82.3242C135.557 82.8438 134.693 83.1035 133.567 83.1035H131.223ZM131.223 82.0303H133.581C134.283 82.0303 134.821 81.8662 135.194 81.5381C135.568 81.2054 135.755 80.7269 135.755 80.1025C135.755 79.5101 135.568 79.0361 135.194 78.6807C134.821 78.3252 134.308 78.1406 133.656 78.127H131.223V82.0303ZM146.063 83.8418C145.94 84.8945 145.551 85.708 144.895 86.2822C144.243 86.8519 143.375 87.1367 142.29 87.1367C141.114 87.1367 140.171 86.7152 139.46 85.8721C138.754 85.029 138.4 83.901 138.4 82.4883V81.5312C138.4 80.6061 138.564 79.7926 138.893 79.0908C139.225 78.389 139.695 77.8512 140.301 77.4775C140.907 77.0993 141.609 76.9102 142.406 76.9102C143.464 76.9102 144.311 77.2064 144.949 77.7988C145.587 78.3867 145.959 79.2025 146.063 80.2461H144.744C144.63 79.4531 144.382 78.8789 143.999 78.5234C143.621 78.168 143.09 77.9902 142.406 77.9902C141.568 77.9902 140.909 78.3001 140.431 78.9199C139.957 79.5397 139.72 80.4215 139.72 81.5654V82.5293C139.72 83.6094 139.945 84.4684 140.396 85.1064C140.848 85.7445 141.479 86.0635 142.29 86.0635C143.019 86.0635 143.577 85.8994 143.965 85.5713C144.357 85.2386 144.617 84.6621 144.744 83.8418H146.063Z" fill="white"/>
<defs>
<linearGradient id="paint0_linear" x1="0" y1="4" x2="59.3133" y2="11.5331" gradientUnits="userSpaceOnUse">
<stop stop-color="#EA3117"/>
<stop offset="1" stop-color="#FBAD16"/>
</linearGradient>
</defs>
</svg>
