<svg width="1182" height="198" viewBox="0 0 1182 198" fill="none" xmlns="http://www.w3.org/2000/svg">
<path d="M1125.57 19.3896C1125.57 18.5889 1125.35 17.9541 1124.9 17.4854C1124.46 17.0068 1123.71 16.5674 1122.64 16.167C1121.58 15.7666 1120.66 15.3711 1119.89 14.9805C1119.12 14.5801 1118.45 14.126 1117.9 13.6182C1117.35 13.1006 1116.92 12.4951 1116.61 11.8018C1116.3 11.1084 1116.15 10.2832 1116.15 9.32617C1116.15 7.67578 1116.68 6.32324 1117.74 5.26855C1118.79 4.21387 1120.19 3.59863 1121.94 3.42285V0.288086H1124.28V3.4668C1126.01 3.71094 1127.36 4.43359 1128.34 5.63477C1129.32 6.82617 1129.81 8.37402 1129.81 10.2783H1125.57C1125.57 9.10645 1125.33 8.23242 1124.84 7.65625C1124.36 7.07031 1123.72 6.77734 1122.91 6.77734C1122.11 6.77734 1121.49 7.00684 1121.05 7.46582C1120.61 7.91504 1120.39 8.54004 1120.39 9.34082C1120.39 10.083 1120.6 10.6787 1121.03 11.1279C1121.46 11.5771 1122.26 12.0361 1123.42 12.5049C1124.59 12.9736 1125.55 13.418 1126.3 13.8379C1127.06 14.248 1127.69 14.7168 1128.21 15.2441C1128.73 15.7617 1129.12 16.3574 1129.4 17.0312C1129.67 17.6953 1129.81 18.4717 1129.81 19.3604C1129.81 21.0205 1129.29 22.3682 1128.25 23.4033C1127.22 24.4385 1125.79 25.0488 1123.98 25.2344V28.1494H1121.65V25.249C1119.64 25.0342 1118.09 24.3262 1116.99 23.125C1115.89 21.9141 1115.35 20.3076 1115.35 18.3057H1119.58C1119.58 19.4678 1119.85 20.3613 1120.4 20.9863C1120.96 21.6016 1121.75 21.9092 1122.79 21.9092C1123.65 21.9092 1124.33 21.6846 1124.83 21.2354C1125.32 20.7764 1125.57 20.1611 1125.57 19.3896ZM1147.18 6.04492L1138.93 25H1134.46L1142.73 7.09961H1132.12V3.67188H1147.18V6.04492ZM1164.52 25H1149.9V22.0996L1156.8 14.7461C1157.75 13.7109 1158.45 12.8076 1158.9 12.0361C1159.36 11.2646 1159.59 10.5322 1159.59 9.83887C1159.59 8.8916 1159.35 8.14941 1158.87 7.6123C1158.39 7.06543 1157.71 6.79199 1156.82 6.79199C1155.86 6.79199 1155.1 7.12402 1154.55 7.78809C1154 8.44238 1153.73 9.30664 1153.73 10.3809H1149.48C1149.48 9.08203 1149.79 7.89551 1150.4 6.82129C1151.03 5.74707 1151.91 4.90723 1153.04 4.30176C1154.17 3.68652 1155.46 3.37891 1156.89 3.37891C1159.09 3.37891 1160.79 3.90625 1162 4.96094C1163.22 6.01562 1163.83 7.50488 1163.83 9.42871C1163.83 10.4834 1163.56 11.5576 1163.01 12.6514C1162.47 13.7451 1161.53 15.0195 1160.2 16.4746L1155.35 21.5869H1164.52V25ZM1181.49 16.1816C1181.49 19.1309 1180.88 21.3867 1179.65 22.9492C1178.43 24.5117 1176.65 25.293 1174.29 25.293C1171.97 25.293 1170.19 24.5264 1168.96 22.9932C1167.73 21.46 1167.1 19.2627 1167.07 16.4014V12.4756C1167.07 9.49707 1167.69 7.23633 1168.92 5.69336C1170.16 4.15039 1171.94 3.37891 1174.26 3.37891C1176.59 3.37891 1178.37 4.14551 1179.6 5.67871C1180.83 7.20215 1181.46 9.39453 1181.49 12.2559V16.1816ZM1177.25 11.875C1177.25 10.1074 1177.01 8.82324 1176.52 8.02246C1176.04 7.21191 1175.29 6.80664 1174.26 6.80664C1173.27 6.80664 1172.53 7.19238 1172.05 7.96387C1171.58 8.72559 1171.33 9.92188 1171.3 11.5527V16.7383C1171.3 18.4766 1171.54 19.7705 1172.01 20.6201C1172.49 21.46 1173.25 21.8799 1174.29 21.8799C1175.33 21.8799 1176.08 21.4746 1176.53 20.6641C1176.99 19.8535 1177.23 18.6133 1177.25 16.9434V11.875Z" fill="white"/>
<path d="M1108.57 137.39C1108.57 136.589 1108.35 135.954 1107.9 135.485C1107.46 135.007 1106.71 134.567 1105.64 134.167C1104.58 133.767 1103.66 133.371 1102.89 132.98C1102.12 132.58 1101.45 132.126 1100.9 131.618C1100.35 131.101 1099.92 130.495 1099.61 129.802C1099.3 129.108 1099.15 128.283 1099.15 127.326C1099.15 125.676 1099.68 124.323 1100.74 123.269C1101.79 122.214 1103.19 121.599 1104.94 121.423V118.288H1107.28V121.467C1109.01 121.711 1110.36 122.434 1111.34 123.635C1112.32 124.826 1112.81 126.374 1112.81 128.278H1108.57C1108.57 127.106 1108.33 126.232 1107.84 125.656C1107.36 125.07 1106.72 124.777 1105.91 124.777C1105.11 124.777 1104.49 125.007 1104.05 125.466C1103.61 125.915 1103.39 126.54 1103.39 127.341C1103.39 128.083 1103.6 128.679 1104.03 129.128C1104.46 129.577 1105.26 130.036 1106.42 130.505C1107.59 130.974 1108.55 131.418 1109.3 131.838C1110.06 132.248 1110.69 132.717 1111.21 133.244C1111.73 133.762 1112.12 134.357 1112.4 135.031C1112.67 135.695 1112.81 136.472 1112.81 137.36C1112.81 139.021 1112.29 140.368 1111.25 141.403C1110.22 142.438 1108.79 143.049 1106.98 143.234V146.149H1104.65V143.249C1102.64 143.034 1101.09 142.326 1099.99 141.125C1098.89 139.914 1098.35 138.308 1098.35 136.306H1102.58C1102.58 137.468 1102.85 138.361 1103.4 138.986C1103.96 139.602 1104.75 139.909 1105.79 139.909C1106.65 139.909 1107.33 139.685 1107.83 139.235C1108.32 138.776 1108.57 138.161 1108.57 137.39ZM1119.98 130.461H1122.24C1123.31 130.461 1124.11 130.192 1124.63 129.655C1125.14 129.118 1125.4 128.405 1125.4 127.517C1125.4 126.657 1125.14 125.988 1124.63 125.51C1124.12 125.031 1123.42 124.792 1122.52 124.792C1121.71 124.792 1121.03 125.017 1120.48 125.466C1119.93 125.905 1119.66 126.481 1119.66 127.194H1115.43C1115.43 126.081 1115.73 125.085 1116.32 124.206C1116.93 123.317 1117.77 122.624 1118.84 122.126C1119.92 121.628 1121.12 121.379 1122.42 121.379C1124.67 121.379 1126.44 121.921 1127.72 123.005C1129 124.079 1129.64 125.563 1129.64 127.458C1129.64 128.435 1129.34 129.333 1128.74 130.153C1128.15 130.974 1127.37 131.604 1126.4 132.043C1127.6 132.473 1128.49 133.117 1129.08 133.977C1129.68 134.836 1129.97 135.852 1129.97 137.023C1129.97 138.918 1129.28 140.437 1127.89 141.579C1126.52 142.722 1124.69 143.293 1122.42 143.293C1120.29 143.293 1118.54 142.731 1117.19 141.608C1115.84 140.485 1115.16 139.001 1115.16 137.155H1119.4C1119.4 137.956 1119.7 138.61 1120.29 139.118C1120.9 139.626 1121.64 139.88 1122.52 139.88C1123.52 139.88 1124.31 139.616 1124.88 139.089C1125.45 138.552 1125.74 137.844 1125.74 136.965C1125.74 134.836 1124.57 133.771 1122.22 133.771H1119.98V130.461ZM1133.53 132.512L1134.76 121.672H1146.72V125.202H1138.24L1137.71 129.787C1138.71 129.25 1139.78 128.981 1140.92 128.981C1142.95 128.981 1144.54 129.611 1145.69 130.871C1146.84 132.131 1147.42 133.894 1147.42 136.159C1147.42 137.536 1147.13 138.771 1146.54 139.865C1145.96 140.949 1145.13 141.794 1144.05 142.399C1142.97 142.995 1141.69 143.293 1140.21 143.293C1138.92 143.293 1137.73 143.034 1136.62 142.517C1135.52 141.989 1134.65 141.252 1134 140.305C1133.37 139.357 1133.03 138.278 1132.99 137.067H1137.18C1137.27 137.956 1137.58 138.649 1138.1 139.147C1138.64 139.636 1139.34 139.88 1140.2 139.88C1141.16 139.88 1141.89 139.538 1142.41 138.854C1142.93 138.161 1143.19 137.185 1143.19 135.925C1143.19 134.714 1142.89 133.786 1142.29 133.142C1141.7 132.497 1140.85 132.175 1139.76 132.175C1138.75 132.175 1137.94 132.438 1137.31 132.966L1136.9 133.347L1133.53 132.512ZM1164.49 134.182C1164.49 137.131 1163.88 139.387 1162.65 140.949C1161.43 142.512 1159.65 143.293 1157.29 143.293C1154.97 143.293 1153.19 142.526 1151.96 140.993C1150.73 139.46 1150.1 137.263 1150.07 134.401V130.476C1150.07 127.497 1150.69 125.236 1151.92 123.693C1153.16 122.15 1154.94 121.379 1157.26 121.379C1159.59 121.379 1161.37 122.146 1162.6 123.679C1163.83 125.202 1164.46 127.395 1164.49 130.256V134.182ZM1160.25 129.875C1160.25 128.107 1160.01 126.823 1159.52 126.022C1159.04 125.212 1158.29 124.807 1157.26 124.807C1156.27 124.807 1155.53 125.192 1155.05 125.964C1154.58 126.726 1154.33 127.922 1154.3 129.553V134.738C1154.3 136.477 1154.54 137.771 1155.01 138.62C1155.49 139.46 1156.25 139.88 1157.29 139.88C1158.33 139.88 1159.08 139.475 1159.53 138.664C1159.99 137.854 1160.23 136.613 1160.25 134.943V129.875ZM1181.71 134.182C1181.71 137.131 1181.1 139.387 1179.88 140.949C1178.66 142.512 1176.87 143.293 1174.52 143.293C1172.2 143.293 1170.42 142.526 1169.19 140.993C1167.96 139.46 1167.33 137.263 1167.3 134.401V130.476C1167.3 127.497 1167.91 125.236 1169.14 123.693C1170.38 122.15 1172.17 121.379 1174.49 121.379C1176.81 121.379 1178.59 122.146 1179.82 123.679C1181.05 125.202 1181.68 127.395 1181.71 130.256V134.182ZM1177.48 129.875C1177.48 128.107 1177.23 126.823 1176.75 126.022C1176.27 125.212 1175.52 124.807 1174.49 124.807C1173.49 124.807 1172.76 125.192 1172.28 125.964C1171.81 126.726 1171.56 127.922 1171.53 129.553V134.738C1171.53 136.477 1171.77 137.771 1172.23 138.62C1172.71 139.46 1173.47 139.88 1174.52 139.88C1175.55 139.88 1176.3 139.475 1176.76 138.664C1177.22 137.854 1177.46 136.613 1177.48 134.943V129.875Z" fill="white"/>
<path d="M11.2803 61.1509H3.82178V69H1.47803V51.2266H12.4888V53.1553H3.82178V59.2344H11.2803V61.1509ZM21.0093 57.8184C20.6675 57.7614 20.2972 57.7329 19.8984 57.7329C18.4173 57.7329 17.4123 58.3636 16.8833 59.625V69H14.625V55.792H16.8223L16.8589 57.3179C17.5994 56.1379 18.6493 55.5479 20.0083 55.5479C20.4478 55.5479 20.7814 55.6048 21.0093 55.7188V57.8184ZM30.7627 69C30.6325 68.7396 30.5267 68.2757 30.4453 67.6084C29.3955 68.6989 28.1423 69.2441 26.6855 69.2441C25.3835 69.2441 24.3133 68.8779 23.4751 68.1455C22.645 67.4049 22.23 66.4691 22.23 65.3379C22.23 63.9626 22.7508 62.8965 23.7925 62.1396C24.8423 61.3747 26.3153 60.9922 28.2114 60.9922H30.4087V59.9546C30.4087 59.1652 30.1727 58.5386 29.7007 58.0747C29.2287 57.6027 28.5329 57.3667 27.6133 57.3667C26.8076 57.3667 26.1322 57.5701 25.5869 57.9771C25.0417 58.384 24.769 58.8763 24.769 59.4541H22.4985C22.4985 58.7949 22.7305 58.1602 23.1943 57.5498C23.6663 56.9313 24.3011 56.443 25.0986 56.085C25.9043 55.7269 26.7873 55.5479 27.7476 55.5479C29.2694 55.5479 30.4616 55.9303 31.3242 56.6953C32.1868 57.4521 32.6344 58.4979 32.667 59.8325V65.9116C32.667 67.1242 32.8216 68.0885 33.1309 68.8047V69H30.7627ZM27.0151 67.2788C27.7231 67.2788 28.3945 67.0957 29.0293 66.7295C29.6641 66.3633 30.1239 65.8872 30.4087 65.3013V62.5913H28.6387C25.8717 62.5913 24.4883 63.401 24.4883 65.0205C24.4883 65.7285 24.7243 66.2819 25.1963 66.6807C25.6683 67.0794 26.2746 67.2788 27.0151 67.2788ZM41.5049 67.4009C42.3105 67.4009 43.0145 67.1567 43.6167 66.6685C44.2189 66.1802 44.5526 65.5698 44.6177 64.8374H46.7539C46.7132 65.5942 46.4528 66.3145 45.9727 66.998C45.4925 67.6816 44.8496 68.2269 44.0439 68.6338C43.2464 69.0407 42.4001 69.2441 41.5049 69.2441C39.7064 69.2441 38.2741 68.646 37.208 67.4497C36.1501 66.2453 35.6211 64.6014 35.6211 62.5181V62.1396C35.6211 60.8538 35.8571 59.7104 36.3291 58.7095C36.8011 57.7085 37.4766 56.9313 38.3555 56.3779C39.2425 55.8245 40.2882 55.5479 41.4927 55.5479C42.9738 55.5479 44.2026 55.9914 45.1792 56.8784C46.1639 57.7655 46.6888 58.917 46.7539 60.333H44.6177C44.5526 59.4785 44.2271 58.7786 43.6411 58.2334C43.0633 57.68 42.3472 57.4033 41.4927 57.4033C40.3452 57.4033 39.4541 57.8184 38.8193 58.6484C38.1927 59.4704 37.8794 60.6626 37.8794 62.2251V62.6523C37.8794 64.1742 38.1927 65.346 38.8193 66.168C39.446 66.9899 40.3411 67.4009 41.5049 67.4009ZM52.3569 52.5938V55.792H54.8228V57.5376H52.3569V65.7285C52.3569 66.2575 52.4668 66.6562 52.6865 66.9248C52.9062 67.1852 53.2806 67.3154 53.8096 67.3154C54.07 67.3154 54.4281 67.2666 54.8838 67.1689V69C54.2897 69.1628 53.7119 69.2441 53.1504 69.2441C52.1413 69.2441 51.3804 68.939 50.8677 68.3286C50.355 67.7183 50.0986 66.8516 50.0986 65.7285V57.5376H47.6938V55.792H50.0986V52.5938H52.3569ZM65.626 69C65.4958 68.7396 65.39 68.2757 65.3086 67.6084C64.2588 68.6989 63.0055 69.2441 61.5488 69.2441C60.2467 69.2441 59.1766 68.8779 58.3384 68.1455C57.5083 67.4049 57.0933 66.4691 57.0933 65.3379C57.0933 63.9626 57.6141 62.8965 58.6558 62.1396C59.7056 61.3747 61.1785 60.9922 63.0747 60.9922H65.272V59.9546C65.272 59.1652 65.036 58.5386 64.564 58.0747C64.092 57.6027 63.3962 57.3667 62.4766 57.3667C61.6709 57.3667 60.9954 57.5701 60.4502 57.9771C59.9049 58.384 59.6323 58.8763 59.6323 59.4541H57.3618C57.3618 58.7949 57.5938 58.1602 58.0576 57.5498C58.5296 56.9313 59.1644 56.443 59.9619 56.085C60.7676 55.7269 61.6506 55.5479 62.6108 55.5479C64.1326 55.5479 65.3249 55.9303 66.1875 56.6953C67.0501 57.4521 67.4977 58.4979 67.5303 59.8325V65.9116C67.5303 67.1242 67.6849 68.0885 67.9941 68.8047V69H65.626ZM61.8784 67.2788C62.5864 67.2788 63.2578 67.0957 63.8926 66.7295C64.5273 66.3633 64.9871 65.8872 65.272 65.3013V62.5913H63.502C60.735 62.5913 59.3516 63.401 59.3516 65.0205C59.3516 65.7285 59.5876 66.2819 60.0596 66.6807C60.5316 67.0794 61.1379 67.2788 61.8784 67.2788ZM73.5239 69H71.2656V50.25H73.5239V69ZM77.0762 72.54L75.7944 71.6611C76.5594 70.5951 76.9582 69.4964 76.9907 68.3652V66.3267H79.2002V68.0967C79.2002 68.9186 78.9967 69.7406 78.5898 70.5625C78.1911 71.3844 77.6865 72.0436 77.0762 72.54ZM96.998 64.4224C96.998 63.6737 96.7336 63.043 96.2046 62.5303C95.6838 62.0176 94.8008 61.5537 93.5557 61.1387C91.8223 60.6097 90.5568 59.922 89.7593 59.0757C88.9699 58.2212 88.5752 57.1388 88.5752 55.8286C88.5752 54.494 88.9618 53.3994 89.7349 52.5449C90.5161 51.6904 91.5863 51.1818 92.9453 51.019V48.3457H94.7642V51.0312C96.1313 51.2184 97.1934 51.7922 97.9502 52.7524C98.7152 53.7127 99.0977 55.027 99.0977 56.6953H96.8516C96.8516 55.5479 96.5789 54.6364 96.0337 53.9609C95.4884 53.2855 94.752 52.9478 93.8242 52.9478C92.8558 52.9478 92.1152 53.2 91.6025 53.7046C91.0898 54.201 90.8335 54.8968 90.8335 55.792C90.8335 56.6221 91.1021 57.2853 91.6392 57.7817C92.1844 58.27 93.0755 58.7176 94.3125 59.1245C95.5576 59.5233 96.526 59.9668 97.2178 60.4551C97.9176 60.9352 98.4303 61.4967 98.7559 62.1396C99.0895 62.7826 99.2563 63.5353 99.2563 64.3979C99.2563 65.7733 98.8413 66.88 98.0112 67.7183C97.1893 68.5565 96.0337 69.0529 94.5444 69.2075V71.5391H92.7378V69.2075C91.2241 69.0692 90.036 68.5321 89.1733 67.5962C88.3188 66.6522 87.8916 65.3745 87.8916 63.7632H90.1499C90.1499 64.8944 90.4469 65.7651 91.041 66.3755C91.6351 66.9858 92.4774 67.291 93.5679 67.291C94.634 67.291 95.4722 67.0347 96.0825 66.522C96.6929 66.0093 96.998 65.3094 96.998 64.4224ZM113.709 69H102.064V67.3765L108.216 60.5405C109.128 59.507 109.754 58.6688 110.096 58.0259C110.446 57.3748 110.621 56.7035 110.621 56.0117C110.621 55.084 110.34 54.3231 109.779 53.729C109.217 53.1349 108.469 52.8379 107.533 52.8379C106.41 52.8379 105.535 53.1593 104.908 53.8022C104.29 54.437 103.98 55.3241 103.98 56.4634H101.722C101.722 54.8276 102.247 53.5052 103.297 52.4961C104.355 51.487 105.767 50.9824 107.533 50.9824C109.185 50.9824 110.491 51.4178 111.451 52.2886C112.411 53.1512 112.892 54.3027 112.892 55.7432C112.892 57.4928 111.777 59.5762 109.547 61.9932L104.786 67.1567H113.709V69ZM127.247 61.4194C127.247 64.0643 126.795 66.0296 125.892 67.3154C124.989 68.6012 123.577 69.2441 121.656 69.2441C119.76 69.2441 118.356 68.6175 117.445 67.3643C116.533 66.1029 116.061 64.223 116.029 61.7246V58.7095C116.029 56.0972 116.48 54.1562 117.384 52.8867C118.287 51.6172 119.703 50.9824 121.632 50.9824C123.544 50.9824 124.952 51.5968 125.855 52.8257C126.759 54.0464 127.223 55.9344 127.247 58.4897V61.4194ZM124.989 58.3311C124.989 56.4186 124.72 55.027 124.183 54.1562C123.646 53.2773 122.796 52.8379 121.632 52.8379C120.476 52.8379 119.634 53.2733 119.105 54.144C118.576 55.0148 118.303 56.3535 118.287 58.1602V61.7734C118.287 63.694 118.564 65.1141 119.117 66.0337C119.679 66.9451 120.525 67.4009 121.656 67.4009C122.771 67.4009 123.597 66.9696 124.134 66.1069C124.68 65.2443 124.964 63.8853 124.989 62.0298V58.3311ZM137.025 70.5259H135.084L142.506 51.2266H144.435L137.025 70.5259ZM155.201 55.792L155.262 57.2568C156.231 56.1175 157.537 55.5479 159.181 55.5479C161.028 55.5479 162.285 56.2559 162.953 57.6719C163.392 57.0371 163.962 56.5244 164.662 56.1338C165.37 55.7432 166.204 55.5479 167.164 55.5479C170.061 55.5479 171.534 57.0819 171.583 60.1499V69H169.325V60.2842C169.325 59.3402 169.109 58.6362 168.678 58.1724C168.246 57.7004 167.522 57.4644 166.505 57.4644C165.667 57.4644 164.971 57.7166 164.417 58.2212C163.864 58.7176 163.543 59.389 163.453 60.2354V69H161.183V60.3452C161.183 58.4246 160.243 57.4644 158.363 57.4644C156.882 57.4644 155.868 58.0951 155.323 59.3564V69H153.065V55.792H155.201ZM174.403 62.2739C174.403 60.98 174.655 59.8162 175.16 58.7827C175.672 57.7492 176.38 56.9517 177.284 56.3901C178.195 55.8286 179.233 55.5479 180.396 55.5479C182.195 55.5479 183.648 56.1704 184.754 57.4155C185.869 58.6606 186.427 60.3167 186.427 62.3838V62.5425C186.427 63.8283 186.179 64.9839 185.682 66.0093C185.194 67.0265 184.49 67.82 183.57 68.3896C182.659 68.9593 181.609 69.2441 180.421 69.2441C178.631 69.2441 177.178 68.6216 176.063 67.3765C174.956 66.1313 174.403 64.4834 174.403 62.4326V62.2739ZM176.673 62.5425C176.673 64.0073 177.011 65.1833 177.687 66.0703C178.37 66.9574 179.282 67.4009 180.421 67.4009C181.568 67.4009 182.48 66.9533 183.155 66.0581C183.831 65.1548 184.168 63.8934 184.168 62.2739C184.168 60.8254 183.823 59.6535 183.131 58.7583C182.447 57.855 181.536 57.4033 180.396 57.4033C179.282 57.4033 178.382 57.8468 177.699 58.7339C177.015 59.6209 176.673 60.8905 176.673 62.5425ZM194.862 62.2739C194.862 60.98 195.114 59.8162 195.619 58.7827C196.131 57.7492 196.839 56.9517 197.743 56.3901C198.654 55.8286 199.692 55.5479 200.855 55.5479C202.654 55.5479 204.107 56.1704 205.213 57.4155C206.328 58.6606 206.886 60.3167 206.886 62.3838V62.5425C206.886 63.8283 206.638 64.9839 206.141 66.0093C205.653 67.0265 204.949 67.82 204.029 68.3896C203.118 68.9593 202.068 69.2441 200.88 69.2441C199.09 69.2441 197.637 68.6216 196.522 67.3765C195.415 66.1313 194.862 64.4834 194.862 62.4326V62.2739ZM197.132 62.5425C197.132 64.0073 197.47 65.1833 198.146 66.0703C198.829 66.9574 199.741 67.4009 200.88 67.4009C202.027 67.4009 202.939 66.9533 203.614 66.0581C204.29 65.1548 204.627 63.8934 204.627 62.2739C204.627 60.8254 204.282 59.6535 203.59 58.7583C202.906 57.855 201.995 57.4033 200.855 57.4033C199.741 57.4033 198.841 57.8468 198.158 58.7339C197.474 59.6209 197.132 60.8905 197.132 62.5425ZM213.88 65.936L217.152 55.792H219.459L214.723 69H213.001L208.216 55.792H210.523L213.88 65.936ZM226.942 69.2441C225.152 69.2441 223.695 68.6582 222.572 67.4863C221.449 66.3063 220.887 64.7316 220.887 62.7622V62.3472C220.887 61.0369 221.135 59.8691 221.632 58.8438C222.136 57.8102 222.836 57.0046 223.731 56.4268C224.635 55.8408 225.611 55.5479 226.661 55.5479C228.378 55.5479 229.713 56.1134 230.665 57.2446C231.617 58.3758 232.093 59.9953 232.093 62.103V63.043H223.146C223.178 64.3451 223.556 65.3989 224.281 66.2046C225.013 67.0021 225.941 67.4009 227.064 67.4009C227.861 67.4009 228.537 67.2381 229.09 66.9126C229.644 66.5871 230.128 66.1558 230.543 65.6187L231.922 66.6929C230.816 68.3937 229.155 69.2441 226.942 69.2441ZM226.661 57.4033C225.75 57.4033 224.985 57.737 224.366 58.4043C223.748 59.0635 223.365 59.9912 223.219 61.1875H229.835V61.0166C229.77 59.8691 229.461 58.9821 228.907 58.3555C228.354 57.7207 227.605 57.4033 226.661 57.4033ZM241.102 57.8184C240.76 57.7614 240.39 57.7329 239.991 57.7329C238.51 57.7329 237.505 58.3636 236.976 59.625V69H234.718V55.792H236.915L236.952 57.3179C237.692 56.1379 238.742 55.5479 240.101 55.5479C240.541 55.5479 240.874 55.6048 241.102 55.7188V57.8184ZM253.26 52.5449V55.792H255.519V58.3799H253.26V64.9717C253.26 65.46 253.354 65.8099 253.541 66.0215C253.728 66.2331 254.086 66.3389 254.615 66.3389C255.006 66.3389 255.352 66.3104 255.653 66.2534V68.9268C254.961 69.1383 254.249 69.2441 253.517 69.2441C251.043 69.2441 249.781 67.995 249.732 65.4966V58.3799H247.804V55.792H249.732V52.5449H253.26ZM260.926 57.2324C261.862 56.1094 263.038 55.5479 264.454 55.5479C267.319 55.5479 268.771 57.2121 268.812 60.5405V69H265.284V60.6382C265.284 59.8813 265.121 59.3239 264.796 58.9658C264.47 58.5996 263.929 58.4165 263.172 58.4165C262.139 58.4165 261.39 58.8153 260.926 59.6128V69H257.398V50.25H260.926V57.2324ZM278.895 59.1001C278.415 59.035 277.992 59.0024 277.625 59.0024C276.291 59.0024 275.416 59.4541 275.001 60.3574V69H271.473V55.792H274.806L274.903 57.3667C275.611 56.1541 276.592 55.5479 277.845 55.5479C278.236 55.5479 278.602 55.6007 278.944 55.7065L278.895 59.1001ZM286.439 69.2441C284.502 69.2441 282.923 68.6501 281.703 67.4619C280.49 66.2738 279.884 64.6909 279.884 62.7134V62.3716C279.884 61.0451 280.14 59.861 280.653 58.8193C281.166 57.7695 281.89 56.9639 282.826 56.4023C283.77 55.8327 284.844 55.5479 286.048 55.5479C287.855 55.5479 289.275 56.1175 290.309 57.2568C291.35 58.3962 291.871 60.0116 291.871 62.103V63.5435H283.46C283.574 64.4061 283.916 65.0978 284.486 65.6187C285.064 66.1395 285.792 66.3999 286.671 66.3999C288.03 66.3999 289.092 65.9076 289.857 64.9229L291.59 66.8638C291.061 67.6125 290.345 68.1984 289.442 68.6216C288.539 69.0366 287.538 69.2441 286.439 69.2441ZM286.036 58.4043C285.336 58.4043 284.767 58.6403 284.327 59.1123C283.896 59.5843 283.619 60.2598 283.497 61.1387H288.404V60.8579C288.388 60.0767 288.176 59.4744 287.77 59.0513C287.363 58.62 286.785 58.4043 286.036 58.4043ZM299.964 69.2441C298.028 69.2441 296.449 68.6501 295.228 67.4619C294.015 66.2738 293.409 64.6909 293.409 62.7134V62.3716C293.409 61.0451 293.666 59.861 294.178 58.8193C294.691 57.7695 295.415 56.9639 296.351 56.4023C297.295 55.8327 298.369 55.5479 299.574 55.5479C301.38 55.5479 302.8 56.1175 303.834 57.2568C304.876 58.3962 305.396 60.0116 305.396 62.103V63.5435H296.986C297.1 64.4061 297.442 65.0978 298.011 65.6187C298.589 66.1395 299.317 66.3999 300.196 66.3999C301.555 66.3999 302.617 65.9076 303.382 64.9229L305.116 66.8638C304.587 67.6125 303.871 68.1984 302.967 68.6216C302.064 69.0366 301.063 69.2441 299.964 69.2441ZM299.562 58.4043C298.862 58.4043 298.292 58.6403 297.853 59.1123C297.421 59.5843 297.145 60.2598 297.022 61.1387H301.93V60.8579C301.913 60.0767 301.702 59.4744 301.295 59.0513C300.888 58.62 300.31 58.4043 299.562 58.4043ZM318.568 64.0073L321.009 55.792H324.793L319.483 71.0508L319.19 71.7466C318.401 73.4718 317.099 74.3345 315.284 74.3345C314.771 74.3345 314.251 74.2572 313.722 74.1025V71.4292L314.259 71.4414C314.926 71.4414 315.423 71.3397 315.748 71.1362C316.082 70.9328 316.342 70.5951 316.529 70.123L316.944 69.0366L312.318 55.792H316.114L318.568 64.0073ZM332.093 69.2441C330.156 69.2441 328.578 68.6501 327.357 67.4619C326.144 66.2738 325.538 64.6909 325.538 62.7134V62.3716C325.538 61.0451 325.794 59.861 326.307 58.8193C326.82 57.7695 327.544 56.9639 328.48 56.4023C329.424 55.8327 330.498 55.5479 331.703 55.5479C333.509 55.5479 334.929 56.1175 335.963 57.2568C337.005 58.3962 337.525 60.0116 337.525 62.103V63.5435H329.115C329.229 64.4061 329.57 65.0978 330.14 65.6187C330.718 66.1395 331.446 66.3999 332.325 66.3999C333.684 66.3999 334.746 65.9076 335.511 64.9229L337.245 66.8638C336.716 67.6125 336 68.1984 335.096 68.6216C334.193 69.0366 333.192 69.2441 332.093 69.2441ZM331.69 58.4043C330.991 58.4043 330.421 58.6403 329.981 59.1123C329.55 59.5843 329.273 60.2598 329.151 61.1387H334.059V60.8579C334.042 60.0767 333.831 59.4744 333.424 59.0513C333.017 58.62 332.439 58.4043 331.69 58.4043ZM347.193 69C347.031 68.6826 346.913 68.2879 346.839 67.8159C345.985 68.7681 344.874 69.2441 343.507 69.2441C342.213 69.2441 341.139 68.8698 340.284 68.1211C339.438 67.3724 339.015 66.4284 339.015 65.2891C339.015 63.8893 339.531 62.8151 340.565 62.0664C341.607 61.3177 343.108 60.9393 345.069 60.9312H346.693V60.1743C346.693 59.564 346.534 59.0757 346.217 58.7095C345.908 58.3433 345.415 58.1602 344.74 58.1602C344.146 58.1602 343.678 58.3026 343.336 58.5874C343.002 58.8722 342.835 59.2629 342.835 59.7593H339.308C339.308 58.9943 339.544 58.2863 340.016 57.6353C340.488 56.9842 341.155 56.4756 342.018 56.1094C342.88 55.735 343.849 55.5479 344.923 55.5479C346.55 55.5479 347.84 55.9588 348.792 56.7808C349.753 57.5946 350.233 58.742 350.233 60.2231V65.9482C350.241 67.2015 350.416 68.1496 350.758 68.7925V69H347.193ZM344.276 66.5464C344.797 66.5464 345.277 66.4325 345.716 66.2046C346.156 65.9686 346.481 65.6553 346.693 65.2646V62.9941H345.375C343.609 62.9941 342.669 63.6045 342.555 64.8252L342.542 65.0327C342.542 65.4722 342.697 65.8343 343.006 66.1191C343.316 66.404 343.739 66.5464 344.276 66.5464ZM360.365 59.1001C359.885 59.035 359.461 59.0024 359.095 59.0024C357.761 59.0024 356.886 59.4541 356.471 60.3574V69H352.943V55.792H356.275L356.373 57.3667C357.081 56.1541 358.062 55.5479 359.315 55.5479C359.706 55.5479 360.072 55.6007 360.414 55.7065L360.365 59.1001ZM369.227 65.3501C369.227 64.9188 369.011 64.5811 368.58 64.3369C368.157 64.0846 367.473 63.8608 366.529 63.6655C363.388 63.0063 361.817 61.6717 361.817 59.6616C361.817 58.4897 362.302 57.5132 363.27 56.7319C364.247 55.9425 365.52 55.5479 367.091 55.5479C368.767 55.5479 370.106 55.9425 371.107 56.7319C372.116 57.5213 372.621 58.5467 372.621 59.8081H369.093C369.093 59.3035 368.93 58.8885 368.604 58.563C368.279 58.2293 367.77 58.0625 367.079 58.0625C366.485 58.0625 366.025 58.1968 365.699 58.4653C365.374 58.7339 365.211 59.0757 365.211 59.4907C365.211 59.8813 365.394 60.1987 365.76 60.4429C366.135 60.6789 366.761 60.8864 367.64 61.0654C368.519 61.2363 369.26 61.4316 369.862 61.6514C371.725 62.335 372.657 63.519 372.657 65.2036C372.657 66.408 372.14 67.3846 371.107 68.1333C370.073 68.8739 368.739 69.2441 367.103 69.2441C365.996 69.2441 365.012 69.0488 364.149 68.6582C363.294 68.2594 362.623 67.7183 362.135 67.0347C361.646 66.3429 361.402 65.5983 361.402 64.8008H364.747C364.78 65.4274 365.012 65.9076 365.443 66.2412C365.874 66.5749 366.452 66.7417 367.176 66.7417C367.852 66.7417 368.36 66.6156 368.702 66.3633C369.052 66.1029 369.227 65.7651 369.227 65.3501Z" fill="white"/>
<path d="M12.1094 183.785H4.40674V190.083H13.3545V192H2.06299V174.227H13.2324V176.155H4.40674V181.868H12.1094V183.785ZM15.1245 185.286C15.1245 183.211 15.6006 181.571 16.5527 180.367C17.5049 179.154 18.7826 178.548 20.3857 178.548C21.9482 178.548 23.1812 179.073 24.0845 180.123L24.1821 178.792H26.2573V197.078H23.999V190.779C23.0876 191.756 21.875 192.244 20.3613 192.244C18.7663 192.244 17.4927 191.626 16.5405 190.389C15.5965 189.144 15.1245 187.496 15.1245 185.445V185.286ZM17.3828 185.542C17.3828 187.056 17.7002 188.244 18.335 189.107C18.9779 189.97 19.8405 190.401 20.9229 190.401C22.2656 190.401 23.291 189.807 23.999 188.619V182.149C23.2829 180.985 22.2656 180.403 20.9473 180.403C19.8568 180.403 18.9901 180.839 18.3472 181.709C17.7043 182.572 17.3828 183.85 17.3828 185.542ZM38.0371 190.694C37.1582 191.727 35.8683 192.244 34.1675 192.244C32.7596 192.244 31.6854 191.837 30.9448 191.023C30.2124 190.201 29.8421 188.989 29.834 187.386V178.792H32.0923V187.325C32.0923 189.327 32.9061 190.328 34.5337 190.328C36.259 190.328 37.4064 189.685 37.9761 188.399V178.792H40.2344V192H38.0859L38.0371 190.694ZM46.1304 192H43.8721V178.792H46.1304V192ZM43.689 175.289C43.689 174.922 43.7988 174.613 44.0186 174.361C44.2464 174.109 44.5801 173.982 45.0195 173.982C45.459 173.982 45.7926 174.109 46.0205 174.361C46.2484 174.613 46.3623 174.922 46.3623 175.289C46.3623 175.655 46.2484 175.96 46.0205 176.204C45.7926 176.448 45.459 176.57 45.0195 176.57C44.5801 176.57 44.2464 176.448 44.0186 176.204C43.7988 175.96 43.689 175.655 43.689 175.289ZM54.1138 188.936L57.3853 178.792H59.6924L54.9561 192H53.2349L48.4497 178.792H50.7568L54.1138 188.936ZM69.8242 192C69.694 191.74 69.5882 191.276 69.5068 190.608C68.457 191.699 67.2038 192.244 65.7471 192.244C64.445 192.244 63.3748 191.878 62.5366 191.146C61.7065 190.405 61.2915 189.469 61.2915 188.338C61.2915 186.963 61.8123 185.896 62.854 185.14C63.9038 184.375 65.3768 183.992 67.2729 183.992H69.4702V182.955C69.4702 182.165 69.2342 181.539 68.7622 181.075C68.2902 180.603 67.5944 180.367 66.6748 180.367C65.8691 180.367 65.1937 180.57 64.6484 180.977C64.1032 181.384 63.8306 181.876 63.8306 182.454H61.5601C61.5601 181.795 61.792 181.16 62.2559 180.55C62.7279 179.931 63.3626 179.443 64.1602 179.085C64.9658 178.727 65.8488 178.548 66.8091 178.548C68.3309 178.548 69.5231 178.93 70.3857 179.695C71.2484 180.452 71.696 181.498 71.7285 182.833V188.912C71.7285 190.124 71.8831 191.089 72.1924 191.805V192H69.8242ZM66.0767 190.279C66.7847 190.279 67.4561 190.096 68.0908 189.729C68.7256 189.363 69.1854 188.887 69.4702 188.301V185.591H67.7002C64.9333 185.591 63.5498 186.401 63.5498 188.021C63.5498 188.729 63.7858 189.282 64.2578 189.681C64.7298 190.079 65.3361 190.279 66.0767 190.279ZM77.7222 192H75.4639V173.25H77.7222V192ZM86.8286 192.244C85.0382 192.244 83.5815 191.658 82.4585 190.486C81.3354 189.306 80.7739 187.732 80.7739 185.762V185.347C80.7739 184.037 81.0221 182.869 81.5186 181.844C82.0231 180.81 82.723 180.005 83.6182 179.427C84.5215 178.841 85.498 178.548 86.5479 178.548C88.265 178.548 89.5996 179.113 90.5518 180.245C91.5039 181.376 91.98 182.995 91.98 185.103V186.043H83.0322C83.0648 187.345 83.4432 188.399 84.1675 189.205C84.8999 190.002 85.8276 190.401 86.9507 190.401C87.7482 190.401 88.4237 190.238 88.9771 189.913C89.5304 189.587 90.0146 189.156 90.4297 188.619L91.8091 189.693C90.7023 191.394 89.0422 192.244 86.8286 192.244ZM86.5479 180.403C85.6364 180.403 84.8714 180.737 84.2529 181.404C83.6344 182.063 83.252 182.991 83.1055 184.188H89.7217V184.017C89.6566 182.869 89.3473 181.982 88.7939 181.355C88.2406 180.721 87.4919 180.403 86.5479 180.403ZM96.7407 178.792L96.814 180.452C97.8231 179.183 99.1414 178.548 100.769 178.548C103.56 178.548 104.968 180.123 104.993 183.272V192H102.734V183.26C102.726 182.308 102.507 181.604 102.075 181.148C101.652 180.692 100.989 180.464 100.085 180.464C99.353 180.464 98.7101 180.66 98.1567 181.05C97.6034 181.441 97.172 181.954 96.8628 182.588V192H94.6045V178.792H96.7407ZM111.462 175.594V178.792H113.928V180.538H111.462V188.729C111.462 189.257 111.572 189.656 111.792 189.925C112.012 190.185 112.386 190.315 112.915 190.315C113.175 190.315 113.534 190.267 113.989 190.169V192C113.395 192.163 112.817 192.244 112.256 192.244C111.247 192.244 110.486 191.939 109.973 191.329C109.46 190.718 109.204 189.852 109.204 188.729V180.538H106.799V178.792H109.204V175.594H111.462ZM126.965 186.397L127.307 188.741L127.808 186.629L131.323 174.227H133.301L136.731 186.629L137.219 188.777L137.598 186.385L140.356 174.227H142.712L138.403 192H136.267L132.605 179.048L132.324 177.693L132.043 179.048L128.247 192H126.111L121.814 174.227H124.158L126.965 186.397ZM147.424 192H145.166V178.792H147.424V192ZM144.983 175.289C144.983 174.922 145.093 174.613 145.312 174.361C145.54 174.109 145.874 173.982 146.313 173.982C146.753 173.982 147.087 174.109 147.314 174.361C147.542 174.613 147.656 174.922 147.656 175.289C147.656 175.655 147.542 175.96 147.314 176.204C147.087 176.448 146.753 176.57 146.313 176.57C145.874 176.57 145.54 176.448 145.312 176.204C145.093 175.96 144.983 175.655 144.983 175.289ZM153.186 178.792L153.259 180.452C154.268 179.183 155.587 178.548 157.214 178.548C160.006 178.548 161.414 180.123 161.438 183.272V192H159.18V183.26C159.172 182.308 158.952 181.604 158.521 181.148C158.097 180.692 157.434 180.464 156.531 180.464C155.798 180.464 155.155 180.66 154.602 181.05C154.049 181.441 153.617 181.954 153.308 182.588V192H151.05V178.792H153.186ZM164.294 185.286C164.294 183.26 164.775 181.632 165.735 180.403C166.695 179.166 167.952 178.548 169.507 178.548C171.053 178.548 172.278 179.077 173.181 180.135V173.25H175.439V192H173.364L173.254 190.584C172.351 191.691 171.094 192.244 169.482 192.244C167.952 192.244 166.703 191.618 165.735 190.364C164.775 189.111 164.294 187.475 164.294 185.457V185.286ZM166.553 185.542C166.553 187.04 166.862 188.212 167.48 189.058C168.099 189.904 168.953 190.328 170.044 190.328C171.476 190.328 172.522 189.685 173.181 188.399V182.332C172.506 181.087 171.468 180.464 170.068 180.464C168.962 180.464 168.099 180.892 167.48 181.746C166.862 182.601 166.553 183.866 166.553 185.542ZM178.357 185.274C178.357 183.98 178.609 182.816 179.114 181.783C179.626 180.749 180.334 179.952 181.238 179.39C182.149 178.829 183.187 178.548 184.351 178.548C186.149 178.548 187.602 179.17 188.708 180.416C189.823 181.661 190.381 183.317 190.381 185.384V185.542C190.381 186.828 190.133 187.984 189.636 189.009C189.148 190.027 188.444 190.82 187.524 191.39C186.613 191.959 185.563 192.244 184.375 192.244C182.585 192.244 181.132 191.622 180.017 190.376C178.91 189.131 178.357 187.483 178.357 185.433V185.274ZM180.627 185.542C180.627 187.007 180.965 188.183 181.641 189.07C182.324 189.957 183.236 190.401 184.375 190.401C185.522 190.401 186.434 189.953 187.109 189.058C187.785 188.155 188.123 186.893 188.123 185.274C188.123 183.825 187.777 182.653 187.085 181.758C186.401 180.855 185.49 180.403 184.351 180.403C183.236 180.403 182.336 180.847 181.653 181.734C180.969 182.621 180.627 183.89 180.627 185.542ZM204.907 188.887L207.446 178.792H209.705L205.859 192H204.028L200.818 181.99L197.693 192H195.862L192.029 178.792H194.275L196.875 188.68L199.951 178.792H201.77L204.907 188.887ZM219.702 188.497C219.702 187.886 219.47 187.414 219.006 187.081C218.551 186.739 217.749 186.446 216.602 186.202C215.462 185.958 214.555 185.665 213.879 185.323C213.212 184.981 212.716 184.574 212.39 184.102C212.073 183.63 211.914 183.069 211.914 182.417C211.914 181.335 212.37 180.42 213.281 179.671C214.201 178.922 215.373 178.548 216.797 178.548C218.294 178.548 219.507 178.934 220.435 179.708C221.37 180.481 221.838 181.469 221.838 182.674H219.568C219.568 182.055 219.303 181.522 218.774 181.075C218.254 180.627 217.594 180.403 216.797 180.403C215.975 180.403 215.332 180.582 214.868 180.94C214.404 181.299 214.172 181.766 214.172 182.344C214.172 182.889 214.388 183.3 214.819 183.577C215.251 183.854 216.028 184.118 217.151 184.371C218.282 184.623 219.198 184.924 219.897 185.274C220.597 185.624 221.114 186.047 221.448 186.543C221.79 187.032 221.96 187.63 221.96 188.338C221.96 189.518 221.488 190.466 220.544 191.182C219.6 191.89 218.376 192.244 216.87 192.244C215.812 192.244 214.876 192.057 214.062 191.683C213.249 191.308 212.61 190.787 212.146 190.12C211.69 189.445 211.462 188.716 211.462 187.935H213.721C213.761 188.692 214.062 189.294 214.624 189.742C215.194 190.181 215.942 190.401 216.87 190.401C217.725 190.401 218.408 190.23 218.921 189.888C219.442 189.538 219.702 189.074 219.702 188.497ZM231.458 192V174.227H236.475C238.021 174.227 239.388 174.568 240.576 175.252C241.764 175.936 242.68 176.908 243.323 178.169C243.974 179.431 244.303 180.879 244.312 182.515V183.65C244.312 185.327 243.986 186.796 243.335 188.057C242.692 189.319 241.768 190.287 240.564 190.962C239.368 191.638 237.972 191.984 236.377 192H231.458ZM233.801 176.155V190.083H236.267C238.074 190.083 239.478 189.522 240.479 188.399C241.488 187.276 241.992 185.677 241.992 183.602V182.564C241.992 180.546 241.516 178.979 240.564 177.864C239.62 176.741 238.277 176.172 236.536 176.155H233.801ZM252.991 192.244C251.2 192.244 249.744 191.658 248.621 190.486C247.498 189.306 246.936 187.732 246.936 185.762V185.347C246.936 184.037 247.184 182.869 247.681 181.844C248.185 180.81 248.885 180.005 249.78 179.427C250.684 178.841 251.66 178.548 252.71 178.548C254.427 178.548 255.762 179.113 256.714 180.245C257.666 181.376 258.142 182.995 258.142 185.103V186.043H249.194C249.227 187.345 249.605 188.399 250.33 189.205C251.062 190.002 251.99 190.401 253.113 190.401C253.91 190.401 254.586 190.238 255.139 189.913C255.693 189.587 256.177 189.156 256.592 188.619L257.971 189.693C256.864 191.394 255.204 192.244 252.991 192.244ZM252.71 180.403C251.799 180.403 251.034 180.737 250.415 181.404C249.797 182.063 249.414 182.991 249.268 184.188H255.884V184.017C255.819 182.869 255.509 181.982 254.956 181.355C254.403 180.721 253.654 180.403 252.71 180.403ZM268.457 188.497C268.457 187.886 268.225 187.414 267.761 187.081C267.306 186.739 266.504 186.446 265.356 186.202C264.217 185.958 263.31 185.665 262.634 185.323C261.967 184.981 261.471 184.574 261.145 184.102C260.828 183.63 260.669 183.069 260.669 182.417C260.669 181.335 261.125 180.42 262.036 179.671C262.956 178.922 264.128 178.548 265.552 178.548C267.049 178.548 268.262 178.934 269.189 179.708C270.125 180.481 270.593 181.469 270.593 182.674H268.323C268.323 182.055 268.058 181.522 267.529 181.075C267.008 180.627 266.349 180.403 265.552 180.403C264.73 180.403 264.087 180.582 263.623 180.94C263.159 181.299 262.927 181.766 262.927 182.344C262.927 182.889 263.143 183.3 263.574 183.577C264.006 183.854 264.783 184.118 265.906 184.371C267.037 184.623 267.952 184.924 268.652 185.274C269.352 185.624 269.869 186.047 270.203 186.543C270.544 187.032 270.715 187.63 270.715 188.338C270.715 189.518 270.243 190.466 269.299 191.182C268.355 191.89 267.131 192.244 265.625 192.244C264.567 192.244 263.631 192.057 262.817 191.683C262.004 191.308 261.365 190.787 260.901 190.12C260.445 189.445 260.217 188.716 260.217 187.935H262.476C262.516 188.692 262.817 189.294 263.379 189.742C263.949 190.181 264.697 190.401 265.625 190.401C266.479 190.401 267.163 190.23 267.676 189.888C268.197 189.538 268.457 189.074 268.457 188.497ZM277.344 185.884L275.928 187.361V192H273.669V173.25H275.928V184.59L277.136 183.138L281.25 178.792H283.997L278.857 184.31L284.595 192H281.946L277.344 185.884ZM289.392 175.594V178.792H291.858V180.538H289.392V188.729C289.392 189.257 289.502 189.656 289.722 189.925C289.941 190.185 290.316 190.315 290.845 190.315C291.105 190.315 291.463 190.267 291.919 190.169V192C291.325 192.163 290.747 192.244 290.186 192.244C289.176 192.244 288.416 191.939 287.903 191.329C287.39 190.718 287.134 189.852 287.134 188.729V180.538H284.729V178.792H287.134V175.594H289.392ZM293.665 185.274C293.665 183.98 293.917 182.816 294.421 181.783C294.934 180.749 295.642 179.952 296.545 179.39C297.457 178.829 298.494 178.548 299.658 178.548C301.457 178.548 302.909 179.17 304.016 180.416C305.131 181.661 305.688 183.317 305.688 185.384V185.542C305.688 186.828 305.44 187.984 304.944 189.009C304.456 190.027 303.752 190.82 302.832 191.39C301.921 191.959 300.871 192.244 299.683 192.244C297.892 192.244 296.44 191.622 295.325 190.376C294.218 189.131 293.665 187.483 293.665 185.433V185.274ZM295.935 185.542C295.935 187.007 296.273 188.183 296.948 189.07C297.632 189.957 298.543 190.401 299.683 190.401C300.83 190.401 301.742 189.953 302.417 189.058C303.092 188.155 303.43 186.893 303.43 185.274C303.43 183.825 303.084 182.653 302.393 181.758C301.709 180.855 300.798 180.403 299.658 180.403C298.543 180.403 297.644 180.847 296.96 181.734C296.277 182.621 295.935 183.89 295.935 185.542ZM319.678 185.542C319.678 187.553 319.218 189.172 318.298 190.401C317.379 191.63 316.134 192.244 314.563 192.244C312.96 192.244 311.698 191.736 310.779 190.718V197.078H308.521V178.792H310.583L310.693 180.257C311.613 179.118 312.891 178.548 314.526 178.548C316.113 178.548 317.367 179.146 318.286 180.342C319.214 181.539 319.678 183.203 319.678 185.335V185.542ZM317.419 185.286C317.419 183.797 317.102 182.621 316.467 181.758C315.833 180.896 314.962 180.464 313.855 180.464C312.488 180.464 311.462 181.071 310.779 182.283V188.594C311.454 189.799 312.488 190.401 313.879 190.401C314.962 190.401 315.82 189.974 316.455 189.119C317.098 188.257 317.419 186.979 317.419 185.286ZM340.454 188.887L342.993 178.792H345.251L341.406 192H339.575L336.365 181.99L333.24 192H331.409L327.576 178.792H329.822L332.422 188.68L335.498 178.792H337.317L340.454 188.887ZM350.012 192H347.754V178.792H350.012V192ZM347.571 175.289C347.571 174.922 347.681 174.613 347.9 174.361C348.128 174.109 348.462 173.982 348.901 173.982C349.341 173.982 349.674 174.109 349.902 174.361C350.13 174.613 350.244 174.922 350.244 175.289C350.244 175.655 350.13 175.96 349.902 176.204C349.674 176.448 349.341 176.57 348.901 176.57C348.462 176.57 348.128 176.448 347.9 176.204C347.681 175.96 347.571 175.655 347.571 175.289ZM356.702 175.594V178.792H359.167V180.538H356.702V188.729C356.702 189.257 356.812 189.656 357.031 189.925C357.251 190.185 357.625 190.315 358.154 190.315C358.415 190.315 358.773 190.267 359.229 190.169V192C358.634 192.163 358.057 192.244 357.495 192.244C356.486 192.244 355.725 191.939 355.212 191.329C354.7 190.718 354.443 189.852 354.443 188.729V180.538H352.039V178.792H354.443V175.594H356.702ZM364.075 180.391C365.076 179.162 366.378 178.548 367.981 178.548C370.772 178.548 372.18 180.123 372.205 183.272V192H369.946V183.26C369.938 182.308 369.718 181.604 369.287 181.148C368.864 180.692 368.201 180.464 367.297 180.464C366.565 180.464 365.922 180.66 365.369 181.05C364.815 181.441 364.384 181.954 364.075 182.588V192H361.816V173.25H364.075V180.391ZM395.801 192H393.445L384.497 178.304V192H382.141V174.227H384.497L393.469 187.984V174.227H395.801V192ZM405.847 188.887L410.925 174.227H413.489L406.897 192H404.822L398.242 174.227H400.793L405.847 188.887ZM418.396 192H416.052V174.227H418.396V192ZM422.693 192V174.227H427.71C429.256 174.227 430.623 174.568 431.812 175.252C433 175.936 433.915 176.908 434.558 178.169C435.209 179.431 435.539 180.879 435.547 182.515V183.65C435.547 185.327 435.221 186.796 434.57 188.057C433.927 189.319 433.004 190.287 431.799 190.962C430.603 191.638 429.207 191.984 427.612 192H422.693ZM425.037 176.155V190.083H427.502C429.309 190.083 430.713 189.522 431.714 188.399C432.723 187.276 433.228 185.677 433.228 183.602V182.564C433.228 180.546 432.751 178.979 431.799 177.864C430.855 176.741 429.513 176.172 427.771 176.155H425.037ZM441.614 192H439.27V174.227H441.614V192ZM455.945 187.361H448.499L446.826 192H444.409L451.196 174.227H453.247L460.046 192H457.642L455.945 187.361ZM449.207 185.433H455.249L452.222 177.12L449.207 185.433ZM480.432 176.155H474.719V192H472.388V176.155H466.687V174.227H480.432V176.155ZM492.017 186.031H494.482V187.874H492.017V192H489.746V187.874H481.653V186.543L489.612 174.227H492.017V186.031ZM484.216 186.031H489.746V177.315L489.478 177.803L484.216 186.031ZM516.431 189.668C515.828 190.531 514.986 191.178 513.904 191.609C512.83 192.033 511.576 192.244 510.144 192.244C508.695 192.244 507.41 191.906 506.287 191.231C505.164 190.547 504.293 189.579 503.674 188.326C503.064 187.072 502.751 185.62 502.734 183.968V182.417C502.734 179.74 503.357 177.665 504.602 176.192C505.855 174.719 507.613 173.982 509.875 173.982C511.731 173.982 513.224 174.458 514.355 175.411C515.487 176.355 516.178 177.697 516.431 179.439H514.087C513.647 177.087 512.248 175.911 509.888 175.911C508.317 175.911 507.125 176.465 506.311 177.571C505.505 178.67 505.098 180.265 505.09 182.356V183.809C505.09 185.803 505.546 187.39 506.458 188.57C507.369 189.742 508.602 190.328 510.156 190.328C511.035 190.328 511.804 190.23 512.463 190.035C513.123 189.839 513.668 189.51 514.099 189.046V185.054H509.985V183.15H516.431V189.668ZM522.693 185.042V192H520.349V174.227H526.904C528.849 174.227 530.371 174.723 531.47 175.716C532.576 176.709 533.13 178.023 533.13 179.659C533.13 181.384 532.589 182.715 531.506 183.65C530.432 184.578 528.89 185.042 526.88 185.042H522.693ZM522.693 183.125H526.904C528.158 183.125 529.118 182.833 529.785 182.247C530.452 181.653 530.786 180.798 530.786 179.683C530.786 178.625 530.452 177.779 529.785 177.144C529.118 176.509 528.202 176.18 527.039 176.155H522.693V183.125ZM548.633 174.227V186.312C548.625 187.988 548.096 189.359 547.046 190.425C546.004 191.491 544.588 192.09 542.798 192.22L542.175 192.244C540.23 192.244 538.68 191.719 537.524 190.669C536.369 189.62 535.783 188.175 535.767 186.336V174.227H538.086V186.263C538.086 187.549 538.44 188.549 539.148 189.266C539.856 189.974 540.865 190.328 542.175 190.328C543.502 190.328 544.515 189.974 545.215 189.266C545.923 188.558 546.277 187.561 546.277 186.275V174.227H548.633Z" fill="white"/>
<rect y="5" width="181" height="20" fill="url(#paint0_linear)"/>
<rect y="128" width="1005" height="20" fill="#5A5A5A"/>
<defs>
<linearGradient id="paint0_linear" x1="0" y1="5" x2="178.136" y2="39.703" gradientUnits="userSpaceOnUse">
<stop stop-color="#D217E3"/>
<stop offset="1" stop-color="#7E14C9"/>
</linearGradient>
</defs>
</svg>
