<svg width="349" height="93" viewBox="0 0 349 93" fill="none" xmlns="http://www.w3.org/2000/svg">
<rect y="4" width="59" height="10" fill="url(#paint0_linear)"/>
<path d="M309.172 11.0078C309.172 10.5807 309.052 10.2422 308.812 9.99219C308.578 9.73698 308.177 9.5026 307.609 9.28906C307.042 9.07552 306.552 8.86458 306.141 8.65625C305.729 8.44271 305.375 8.20052 305.078 7.92969C304.786 7.65365 304.557 7.33073 304.391 6.96094C304.229 6.59115 304.148 6.15104 304.148 5.64062C304.148 4.76042 304.43 4.03906 304.992 3.47656C305.555 2.91406 306.302 2.58594 307.234 2.49219V0.820312H308.484V2.51562C309.406 2.64583 310.128 3.03125 310.648 3.67188C311.169 4.30729 311.43 5.13281 311.43 6.14844H309.172C309.172 5.52344 309.042 5.05729 308.781 4.75C308.526 4.4375 308.182 4.28125 307.75 4.28125C307.323 4.28125 306.992 4.40365 306.758 4.64844C306.523 4.88802 306.406 5.22135 306.406 5.64844C306.406 6.04427 306.521 6.36198 306.75 6.60156C306.979 6.84115 307.404 7.08594 308.023 7.33594C308.648 7.58594 309.161 7.82292 309.562 8.04688C309.964 8.26562 310.302 8.51562 310.578 8.79688C310.854 9.07292 311.065 9.39062 311.211 9.75C311.357 10.1042 311.43 10.5182 311.43 10.9922C311.43 11.8776 311.154 12.5964 310.602 13.1484C310.049 13.7005 309.289 14.026 308.32 14.125V15.6797H307.078V14.1328C306.01 14.0182 305.182 13.6406 304.594 13C304.01 12.3542 303.719 11.4974 303.719 10.4297H305.977C305.977 11.0495 306.122 11.526 306.414 11.8594C306.711 12.1875 307.135 12.3516 307.688 12.3516C308.146 12.3516 308.508 12.2318 308.773 11.9922C309.039 11.7474 309.172 11.4193 309.172 11.0078ZM318.445 14H316.188V5.29688L313.492 6.13281V4.29688L318.203 2.60938H318.445V14ZM329.945 14H322.148V12.4531L325.828 8.53125C326.333 7.97917 326.706 7.4974 326.945 7.08594C327.19 6.67448 327.312 6.28385 327.312 5.91406C327.312 5.40885 327.185 5.01302 326.93 4.72656C326.674 4.4349 326.31 4.28906 325.836 4.28906C325.326 4.28906 324.922 4.46615 324.625 4.82031C324.333 5.16927 324.188 5.63021 324.188 6.20312H321.922C321.922 5.51042 322.086 4.8776 322.414 4.30469C322.747 3.73177 323.216 3.28385 323.82 2.96094C324.424 2.63281 325.109 2.46875 325.875 2.46875C327.047 2.46875 327.956 2.75 328.602 3.3125C329.253 3.875 329.578 4.66927 329.578 5.69531C329.578 6.25781 329.432 6.83073 329.141 7.41406C328.849 7.9974 328.349 8.67708 327.641 9.45312L325.055 12.1797H329.945V14ZM337.461 2.50781V4.36719H337.242C336.221 4.38281 335.398 4.64844 334.773 5.16406C334.154 5.67969 333.781 6.39583 333.656 7.3125C334.26 6.69792 335.023 6.39062 335.945 6.39062C336.935 6.39062 337.721 6.74479 338.305 7.45312C338.888 8.16146 339.18 9.09375 339.18 10.25C339.18 10.9896 339.018 11.6589 338.695 12.2578C338.378 12.8568 337.924 13.3229 337.336 13.6562C336.753 13.9896 336.091 14.1562 335.352 14.1562C334.154 14.1562 333.185 13.7396 332.445 12.9062C331.711 12.0729 331.344 10.9609 331.344 9.57031V8.75781C331.344 7.52344 331.576 6.4349 332.039 5.49219C332.508 4.54427 333.177 3.8125 334.047 3.29688C334.922 2.77604 335.935 2.51302 337.086 2.50781H337.461ZM335.258 8.20312C334.893 8.20312 334.562 8.29948 334.266 8.49219C333.969 8.67969 333.75 8.92969 333.609 9.24219V9.92969C333.609 10.6849 333.758 11.276 334.055 11.7031C334.352 12.125 334.768 12.3359 335.305 12.3359C335.789 12.3359 336.18 12.1458 336.477 11.7656C336.779 11.3802 336.93 10.8828 336.93 10.2734C336.93 9.65365 336.779 9.15365 336.477 8.77344C336.174 8.39323 335.768 8.20312 335.258 8.20312ZM348.18 9.29688C348.18 10.8698 347.854 12.0729 347.203 12.9062C346.552 13.7396 345.599 14.1562 344.344 14.1562C343.104 14.1562 342.156 13.7474 341.5 12.9297C340.844 12.112 340.508 10.9401 340.492 9.41406V7.32031C340.492 5.73177 340.82 4.52604 341.477 3.70312C342.138 2.88021 343.089 2.46875 344.328 2.46875C345.568 2.46875 346.516 2.8776 347.172 3.69531C347.828 4.50781 348.164 5.67708 348.18 7.20312V9.29688ZM345.922 7C345.922 6.05729 345.792 5.3724 345.531 4.94531C345.276 4.51302 344.875 4.29688 344.328 4.29688C343.797 4.29688 343.404 4.5026 343.148 4.91406C342.898 5.32031 342.766 5.95833 342.75 6.82812V9.59375C342.75 10.5208 342.875 11.2109 343.125 11.6641C343.38 12.112 343.786 12.3359 344.344 12.3359C344.896 12.3359 345.294 12.1198 345.539 11.6875C345.784 11.2552 345.911 10.5938 345.922 9.70312V7Z" fill="white"/>
<path d="M309.172 67.0078C309.172 66.5807 309.052 66.2422 308.812 65.9922C308.578 65.737 308.177 65.5026 307.609 65.2891C307.042 65.0755 306.552 64.8646 306.141 64.6562C305.729 64.4427 305.375 64.2005 305.078 63.9297C304.786 63.6536 304.557 63.3307 304.391 62.9609C304.229 62.5911 304.148 62.151 304.148 61.6406C304.148 60.7604 304.43 60.0391 304.992 59.4766C305.555 58.9141 306.302 58.5859 307.234 58.4922V56.8203H308.484V58.5156C309.406 58.6458 310.128 59.0312 310.648 59.6719C311.169 60.3073 311.43 61.1328 311.43 62.1484H309.172C309.172 61.5234 309.042 61.0573 308.781 60.75C308.526 60.4375 308.182 60.2812 307.75 60.2812C307.323 60.2812 306.992 60.4036 306.758 60.6484C306.523 60.888 306.406 61.2214 306.406 61.6484C306.406 62.0443 306.521 62.362 306.75 62.6016C306.979 62.8411 307.404 63.0859 308.023 63.3359C308.648 63.5859 309.161 63.8229 309.562 64.0469C309.964 64.2656 310.302 64.5156 310.578 64.7969C310.854 65.0729 311.065 65.3906 311.211 65.75C311.357 66.1042 311.43 66.5182 311.43 66.9922C311.43 67.8776 311.154 68.5964 310.602 69.1484C310.049 69.7005 309.289 70.026 308.32 70.125V71.6797H307.078V70.1328C306.01 70.0182 305.182 69.6406 304.594 69C304.01 68.3542 303.719 67.4974 303.719 66.4297H305.977C305.977 67.0495 306.122 67.526 306.414 67.8594C306.711 68.1875 307.135 68.3516 307.688 68.3516C308.146 68.3516 308.508 68.2318 308.773 67.9922C309.039 67.7474 309.172 67.4193 309.172 67.0078ZM315.258 63.3125H316.461C317.034 63.3125 317.458 63.1693 317.734 62.8828C318.01 62.5964 318.148 62.2161 318.148 61.7422C318.148 61.2839 318.01 60.9271 317.734 60.6719C317.464 60.4167 317.089 60.2891 316.609 60.2891C316.177 60.2891 315.815 60.4089 315.523 60.6484C315.232 60.8828 315.086 61.1901 315.086 61.5703H312.828C312.828 60.9766 312.987 60.4453 313.305 59.9766C313.628 59.5026 314.076 59.1328 314.648 58.8672C315.227 58.6016 315.862 58.4688 316.555 58.4688C317.758 58.4688 318.701 58.7578 319.383 59.3359C320.065 59.9089 320.406 60.7005 320.406 61.7109C320.406 62.2318 320.247 62.7109 319.93 63.1484C319.612 63.5859 319.195 63.9219 318.68 64.1562C319.32 64.3854 319.797 64.7292 320.109 65.1875C320.427 65.6458 320.586 66.1875 320.586 66.8125C320.586 67.8229 320.216 68.6328 319.477 69.2422C318.742 69.8516 317.768 70.1562 316.555 70.1562C315.419 70.1562 314.49 69.8568 313.766 69.2578C313.047 68.6589 312.688 67.8672 312.688 66.8828H314.945C314.945 67.3099 315.104 67.6589 315.422 67.9297C315.745 68.2005 316.141 68.3359 316.609 68.3359C317.146 68.3359 317.565 68.1953 317.867 67.9141C318.174 67.6276 318.328 67.25 318.328 66.7812C318.328 65.6458 317.703 65.0781 316.453 65.0781H315.258V63.3125ZM322.484 64.4062L323.141 58.625H329.516V60.5078H324.992L324.711 62.9531C325.247 62.6667 325.818 62.5234 326.422 62.5234C327.505 62.5234 328.354 62.8594 328.969 63.5312C329.583 64.2031 329.891 65.1432 329.891 66.3516C329.891 67.0859 329.734 67.7448 329.422 68.3281C329.115 68.9062 328.672 69.3568 328.094 69.6797C327.516 69.9974 326.833 70.1562 326.047 70.1562C325.359 70.1562 324.721 70.0182 324.133 69.7422C323.544 69.4609 323.078 69.0677 322.734 68.5625C322.396 68.0573 322.216 67.4818 322.195 66.8359H324.43C324.477 67.3099 324.641 67.6797 324.922 67.9453C325.208 68.2057 325.581 68.3359 326.039 68.3359C326.549 68.3359 326.943 68.1536 327.219 67.7891C327.495 67.4193 327.633 66.8984 327.633 66.2266C327.633 65.5807 327.474 65.0859 327.156 64.7422C326.839 64.3984 326.388 64.2266 325.805 64.2266C325.268 64.2266 324.833 64.3672 324.5 64.6484L324.281 64.8516L322.484 64.4062ZM338.992 65.2969C338.992 66.8698 338.667 68.0729 338.016 68.9062C337.365 69.7396 336.411 70.1562 335.156 70.1562C333.917 70.1562 332.969 69.7474 332.312 68.9297C331.656 68.112 331.32 66.9401 331.305 65.4141V63.3203C331.305 61.7318 331.633 60.526 332.289 59.7031C332.951 58.8802 333.901 58.4688 335.141 58.4688C336.38 58.4688 337.328 58.8776 337.984 59.6953C338.641 60.5078 338.977 61.6771 338.992 63.2031V65.2969ZM336.734 63C336.734 62.0573 336.604 61.3724 336.344 60.9453C336.089 60.513 335.688 60.2969 335.141 60.2969C334.609 60.2969 334.216 60.5026 333.961 60.9141C333.711 61.3203 333.578 61.9583 333.562 62.8281V65.5938C333.562 66.5208 333.688 67.2109 333.938 67.6641C334.193 68.112 334.599 68.3359 335.156 68.3359C335.708 68.3359 336.107 68.1198 336.352 67.6875C336.596 67.2552 336.724 66.5938 336.734 65.7031V63ZM348.18 65.2969C348.18 66.8698 347.854 68.0729 347.203 68.9062C346.552 69.7396 345.599 70.1562 344.344 70.1562C343.104 70.1562 342.156 69.7474 341.5 68.9297C340.844 68.112 340.508 66.9401 340.492 65.4141V63.3203C340.492 61.7318 340.82 60.526 341.477 59.7031C342.138 58.8802 343.089 58.4688 344.328 58.4688C345.568 58.4688 346.516 58.8776 347.172 59.6953C347.828 60.5078 348.164 61.6771 348.18 63.2031V65.2969ZM345.922 63C345.922 62.0573 345.792 61.3724 345.531 60.9453C345.276 60.513 344.875 60.2969 344.328 60.2969C343.797 60.2969 343.404 60.5026 343.148 60.9141C342.898 61.3203 342.766 61.9583 342.75 62.8281V65.5938C342.75 66.5208 342.875 67.2109 343.125 67.6641C343.38 68.112 343.786 68.3359 344.344 68.3359C344.896 68.3359 345.294 68.1198 345.539 67.6875C345.784 67.2552 345.911 66.5938 345.922 65.7031V63Z" fill="white"/>
<path d="M5.98145 31.4365C5.98145 31.0173 5.83333 30.6641 5.53711 30.377C5.24544 30.0898 4.75098 29.8301 4.05371 29.5977C3.08301 29.3014 2.37435 28.9163 1.92773 28.4424C1.48568 27.9639 1.26465 27.3577 1.26465 26.624C1.26465 25.8766 1.48112 25.2637 1.91406 24.7852C2.35156 24.3066 2.95085 24.0218 3.71191 23.9307V22.4336H4.73047V23.9375C5.49609 24.0423 6.09082 24.3636 6.51465 24.9014C6.94303 25.4391 7.15723 26.1751 7.15723 27.1094H5.89941C5.89941 26.4668 5.74674 25.9564 5.44141 25.5781C5.13607 25.1999 4.72363 25.0107 4.2041 25.0107C3.66178 25.0107 3.24707 25.152 2.95996 25.4346C2.67285 25.7126 2.5293 26.1022 2.5293 26.6035C2.5293 27.0684 2.67969 27.4398 2.98047 27.7178C3.28581 27.9912 3.78483 28.2419 4.47754 28.4697C5.1748 28.693 5.71712 28.9414 6.10449 29.2148C6.49642 29.4837 6.78353 29.7982 6.96582 30.1582C7.15267 30.5182 7.24609 30.9398 7.24609 31.4229C7.24609 32.193 7.01367 32.8128 6.54883 33.2822C6.08854 33.7516 5.44141 34.0296 4.60742 34.1162V35.4219H3.5957V34.1162C2.74805 34.0387 2.08268 33.738 1.59961 33.2139C1.12109 32.6852 0.881836 31.9697 0.881836 31.0674H2.14648C2.14648 31.7008 2.31283 32.1885 2.64551 32.5303C2.97819 32.8721 3.44987 33.043 4.06055 33.043C4.65755 33.043 5.12695 32.8994 5.46875 32.6123C5.81055 32.3252 5.98145 31.9333 5.98145 31.4365ZM10.6572 28.4082H11.6074C12.2044 28.3991 12.6738 28.2419 13.0156 27.9365C13.3574 27.6312 13.5283 27.2188 13.5283 26.6992C13.5283 25.5326 12.9473 24.9492 11.7852 24.9492C11.2383 24.9492 10.8008 25.1064 10.4727 25.4209C10.1491 25.7308 9.9873 26.1432 9.9873 26.6582H8.72266C8.72266 25.8698 9.00977 25.2158 9.58398 24.6963C10.1628 24.1722 10.8965 23.9102 11.7852 23.9102C12.724 23.9102 13.46 24.1585 13.9932 24.6553C14.5264 25.152 14.793 25.8424 14.793 26.7266C14.793 27.1595 14.6517 27.5788 14.3691 27.9844C14.0911 28.39 13.7106 28.693 13.2275 28.8936C13.7744 29.0667 14.196 29.3538 14.4922 29.7549C14.793 30.1559 14.9434 30.6458 14.9434 31.2246C14.9434 32.1178 14.6517 32.8265 14.0684 33.3506C13.485 33.8747 12.7262 34.1367 11.792 34.1367C10.8577 34.1367 10.0967 33.8838 9.50879 33.3779C8.92546 32.8721 8.63379 32.2044 8.63379 31.375H9.90527C9.90527 31.8991 10.0762 32.3184 10.418 32.6328C10.7598 32.9473 11.2178 33.1045 11.792 33.1045C12.4027 33.1045 12.8698 32.945 13.1934 32.626C13.5169 32.307 13.6787 31.849 13.6787 31.252C13.6787 30.6732 13.501 30.2288 13.1455 29.9189C12.79 29.609 12.2773 29.4495 11.6074 29.4404H10.6572V28.4082ZM17.2607 29.0098L17.7666 24.0469H22.8662V25.2158H18.8398L18.5391 27.9297C19.0267 27.6426 19.5804 27.499 20.2002 27.499C21.1071 27.499 21.8271 27.7998 22.3604 28.4014C22.8936 28.9984 23.1602 29.8073 23.1602 30.8281C23.1602 31.8535 22.8822 32.6624 22.3262 33.2549C21.7747 33.8428 21.0023 34.1367 20.0088 34.1367C19.1292 34.1367 18.4115 33.8929 17.8555 33.4053C17.2995 32.9176 16.9827 32.2432 16.9053 31.3818H18.1016C18.179 31.9515 18.3818 32.3822 18.71 32.6738C19.0381 32.9609 19.471 33.1045 20.0088 33.1045C20.5967 33.1045 21.057 32.904 21.3896 32.5029C21.7269 32.1019 21.8955 31.5482 21.8955 30.8418C21.8955 30.1764 21.7132 29.6432 21.3486 29.2422C20.9886 28.8366 20.5078 28.6338 19.9062 28.6338C19.3548 28.6338 18.9219 28.7546 18.6074 28.9961L18.2725 29.2695L17.2607 29.0098ZM28.3965 34.8545H27.3096L31.4658 24.0469H32.5459L28.3965 34.8545ZM38.5752 26.6035L38.6094 27.4238C39.1517 26.7858 39.8831 26.4668 40.8037 26.4668C41.8382 26.4668 42.5423 26.8633 42.916 27.6562C43.1621 27.3008 43.4811 27.0137 43.873 26.7949C44.2695 26.5762 44.7367 26.4668 45.2744 26.4668C46.8968 26.4668 47.7217 27.3258 47.749 29.0439V34H46.4844V29.1191C46.4844 28.5905 46.3636 28.1963 46.1221 27.9365C45.8805 27.6722 45.4749 27.54 44.9053 27.54C44.4359 27.54 44.0462 27.6813 43.7363 27.9639C43.4264 28.2419 43.2464 28.6178 43.1963 29.0918V34H41.9248V29.1533C41.9248 28.0778 41.3984 27.54 40.3457 27.54C39.5163 27.54 38.9489 27.8932 38.6436 28.5996V34H37.3789V26.6035H38.5752ZM49.3281 30.2334C49.3281 29.5088 49.4694 28.8571 49.752 28.2783C50.0391 27.6995 50.4355 27.2529 50.9414 26.9385C51.4518 26.624 52.0329 26.4668 52.6846 26.4668C53.6917 26.4668 54.5052 26.8154 55.125 27.5127C55.7493 28.21 56.0615 29.1374 56.0615 30.2949V30.3838C56.0615 31.1038 55.9225 31.751 55.6445 32.3252C55.3711 32.8949 54.9769 33.3392 54.4619 33.6582C53.9515 33.9772 53.3636 34.1367 52.6982 34.1367C51.6956 34.1367 50.8822 33.7881 50.2578 33.0908C49.638 32.3936 49.3281 31.4707 49.3281 30.3223V30.2334ZM50.5996 30.3838C50.5996 31.2041 50.7887 31.8626 51.167 32.3594C51.5498 32.8561 52.0602 33.1045 52.6982 33.1045C53.3408 33.1045 53.8512 32.8538 54.2295 32.3525C54.6077 31.8467 54.7969 31.1403 54.7969 30.2334C54.7969 29.4222 54.6032 28.766 54.2158 28.2646C53.833 27.7588 53.3226 27.5059 52.6846 27.5059C52.0602 27.5059 51.5566 27.7542 51.1738 28.251C50.791 28.7477 50.5996 29.4587 50.5996 30.3838ZM60.7852 30.2334C60.7852 29.5088 60.9264 28.8571 61.209 28.2783C61.4961 27.6995 61.8926 27.2529 62.3984 26.9385C62.9089 26.624 63.4899 26.4668 64.1416 26.4668C65.1488 26.4668 65.9622 26.8154 66.582 27.5127C67.2064 28.21 67.5186 29.1374 67.5186 30.2949V30.3838C67.5186 31.1038 67.3796 31.751 67.1016 32.3252C66.8281 32.8949 66.4339 33.3392 65.9189 33.6582C65.4085 33.9772 64.8206 34.1367 64.1553 34.1367C63.1527 34.1367 62.3392 33.7881 61.7148 33.0908C61.0951 32.3936 60.7852 31.4707 60.7852 30.3223V30.2334ZM62.0566 30.3838C62.0566 31.2041 62.2458 31.8626 62.624 32.3594C63.0068 32.8561 63.5173 33.1045 64.1553 33.1045C64.7979 33.1045 65.3083 32.8538 65.6865 32.3525C66.0648 31.8467 66.2539 31.1403 66.2539 30.2334C66.2539 29.4222 66.0602 28.766 65.6729 28.2646C65.29 27.7588 64.7796 27.5059 64.1416 27.5059C63.5173 27.5059 63.0137 27.7542 62.6309 28.251C62.248 28.7477 62.0566 29.4587 62.0566 30.3838ZM71.4355 32.2842L73.2676 26.6035H74.5596L71.9072 34H70.9434L68.2637 26.6035H69.5557L71.4355 32.2842ZM78.75 34.1367C77.7474 34.1367 76.9316 33.8086 76.3027 33.1523C75.6738 32.4915 75.3594 31.6097 75.3594 30.5068V30.2744C75.3594 29.5407 75.4984 28.8867 75.7764 28.3125C76.0589 27.7337 76.4508 27.2826 76.9521 26.959C77.458 26.6309 78.0049 26.4668 78.5928 26.4668C79.5544 26.4668 80.3018 26.7835 80.835 27.417C81.3682 28.0505 81.6348 28.9574 81.6348 30.1377V30.6641H76.624C76.6423 31.3932 76.8542 31.9834 77.2598 32.4346C77.6699 32.8812 78.1895 33.1045 78.8184 33.1045C79.265 33.1045 79.6432 33.0133 79.9531 32.8311C80.263 32.6488 80.5342 32.4072 80.7666 32.1064L81.5391 32.708C80.9193 33.6605 79.9896 34.1367 78.75 34.1367ZM78.5928 27.5059C78.0824 27.5059 77.654 27.6927 77.3076 28.0664C76.9613 28.4355 76.7471 28.9551 76.665 29.625H80.3701V29.5293C80.3337 28.8867 80.1605 28.39 79.8506 28.0391C79.5407 27.6836 79.1214 27.5059 78.5928 27.5059ZM86.6797 27.7383C86.4883 27.7064 86.2809 27.6904 86.0576 27.6904C85.2282 27.6904 84.6654 28.0436 84.3691 28.75V34H83.1045V26.6035H84.335L84.3555 27.458C84.7702 26.7972 85.3581 26.4668 86.1191 26.4668C86.3652 26.4668 86.5521 26.4987 86.6797 26.5625V27.7383Z" fill="white"/>
<path d="M93.4883 24.7852V26.6035H94.7529V28.0527H93.4883V31.7441C93.4883 32.0176 93.5407 32.2135 93.6455 32.332C93.7503 32.4505 93.9508 32.5098 94.2471 32.5098C94.4658 32.5098 94.6595 32.4938 94.8281 32.4619V33.959C94.4408 34.0775 94.042 34.1367 93.6318 34.1367C92.2464 34.1367 91.54 33.4372 91.5127 32.0381V28.0527H90.4326V26.6035H91.5127V24.7852H93.4883ZM97.7812 27.4102C98.3053 26.7812 98.9639 26.4668 99.7568 26.4668C101.361 26.4668 102.174 27.3988 102.197 29.2627V34H100.222V29.3174C100.222 28.8936 100.131 28.5814 99.9482 28.3809C99.766 28.1758 99.4629 28.0732 99.0391 28.0732C98.4603 28.0732 98.041 28.2965 97.7812 28.7432V34H95.8057V23.5H97.7812V27.4102ZM107.844 28.4561C107.575 28.4196 107.338 28.4014 107.133 28.4014C106.385 28.4014 105.896 28.6543 105.663 29.1602V34H103.688V26.6035H105.554L105.608 27.4854C106.005 26.8063 106.554 26.4668 107.256 26.4668C107.475 26.4668 107.68 26.4964 107.871 26.5557L107.844 28.4561ZM112.068 34.1367C110.984 34.1367 110.1 33.804 109.416 33.1387C108.737 32.4733 108.397 31.5869 108.397 30.4795V30.2881C108.397 29.5452 108.541 28.8822 108.828 28.2988C109.115 27.7109 109.521 27.2598 110.045 26.9453C110.574 26.6263 111.175 26.4668 111.85 26.4668C112.861 26.4668 113.657 26.7858 114.235 27.4238C114.819 28.0618 115.11 28.9665 115.11 30.1377V30.9443H110.4C110.464 31.4274 110.656 31.8148 110.975 32.1064C111.298 32.3981 111.706 32.5439 112.198 32.5439C112.959 32.5439 113.554 32.2682 113.982 31.7168L114.953 32.8037C114.657 33.223 114.256 33.5511 113.75 33.7881C113.244 34.0205 112.684 34.1367 112.068 34.1367ZM111.843 28.0664C111.451 28.0664 111.132 28.1986 110.886 28.4629C110.644 28.7272 110.489 29.1055 110.421 29.5977H113.169V29.4404C113.16 29.0029 113.041 28.6657 112.813 28.4287C112.586 28.1872 112.262 28.0664 111.843 28.0664ZM119.643 34.1367C118.558 34.1367 117.674 33.804 116.99 33.1387C116.311 32.4733 115.972 31.5869 115.972 30.4795V30.2881C115.972 29.5452 116.115 28.8822 116.402 28.2988C116.689 27.7109 117.095 27.2598 117.619 26.9453C118.148 26.6263 118.749 26.4668 119.424 26.4668C120.436 26.4668 121.231 26.7858 121.81 27.4238C122.393 28.0618 122.685 28.9665 122.685 30.1377V30.9443H117.975C118.038 31.4274 118.23 31.8148 118.549 32.1064C118.872 32.3981 119.28 32.5439 119.772 32.5439C120.534 32.5439 121.128 32.2682 121.557 31.7168L122.527 32.8037C122.231 33.223 121.83 33.5511 121.324 33.7881C120.818 34.0205 120.258 34.1367 119.643 34.1367ZM119.417 28.0664C119.025 28.0664 118.706 28.1986 118.46 28.4629C118.218 28.7272 118.063 29.1055 117.995 29.5977H120.743V29.4404C120.734 29.0029 120.616 28.6657 120.388 28.4287C120.16 28.1872 119.836 28.0664 119.417 28.0664ZM130.061 31.2041L131.428 26.6035H133.547L130.573 35.1484L130.409 35.5381C129.967 36.5042 129.238 36.9873 128.222 36.9873C127.935 36.9873 127.643 36.944 127.347 36.8574V35.3604L127.647 35.3672C128.021 35.3672 128.299 35.3102 128.481 35.1963C128.668 35.0824 128.814 34.8932 128.919 34.6289L129.151 34.0205L126.561 26.6035H128.687L130.061 31.2041ZM137.635 34.1367C136.55 34.1367 135.666 33.804 134.982 33.1387C134.303 32.4733 133.964 31.5869 133.964 30.4795V30.2881C133.964 29.5452 134.107 28.8822 134.395 28.2988C134.682 27.7109 135.087 27.2598 135.611 26.9453C136.14 26.6263 136.742 26.4668 137.416 26.4668C138.428 26.4668 139.223 26.7858 139.802 27.4238C140.385 28.0618 140.677 28.9665 140.677 30.1377V30.9443H135.967C136.031 31.4274 136.222 31.8148 136.541 32.1064C136.865 32.3981 137.272 32.5439 137.765 32.5439C138.526 32.5439 139.12 32.2682 139.549 31.7168L140.52 32.8037C140.223 33.223 139.822 33.5511 139.316 33.7881C138.811 34.0205 138.25 34.1367 137.635 34.1367ZM137.409 28.0664C137.017 28.0664 136.698 28.1986 136.452 28.4629C136.211 28.7272 136.056 29.1055 135.987 29.5977H138.735V29.4404C138.726 29.0029 138.608 28.6657 138.38 28.4287C138.152 28.1872 137.828 28.0664 137.409 28.0664ZM146.091 34C146 33.8223 145.934 33.6012 145.893 33.3369C145.414 33.8701 144.792 34.1367 144.026 34.1367C143.302 34.1367 142.7 33.9271 142.222 33.5078C141.748 33.0885 141.511 32.5599 141.511 31.9219C141.511 31.138 141.8 30.5365 142.379 30.1172C142.962 29.6979 143.803 29.486 144.901 29.4814H145.811V29.0576C145.811 28.7158 145.722 28.4424 145.544 28.2373C145.371 28.0322 145.095 27.9297 144.717 27.9297C144.384 27.9297 144.122 28.0094 143.931 28.1689C143.744 28.3285 143.65 28.5472 143.65 28.8252H141.675C141.675 28.3968 141.807 28.0003 142.071 27.6357C142.336 27.2712 142.709 26.9863 143.192 26.7812C143.675 26.5716 144.218 26.4668 144.819 26.4668C145.731 26.4668 146.453 26.6969 146.986 27.1572C147.524 27.613 147.793 28.2555 147.793 29.085V32.291C147.798 32.9928 147.896 33.5238 148.087 33.8838V34H146.091ZM144.457 32.626C144.749 32.626 145.018 32.5622 145.264 32.4346C145.51 32.3024 145.692 32.127 145.811 31.9082V30.6367H145.072C144.083 30.6367 143.557 30.9785 143.493 31.6621L143.486 31.7783C143.486 32.0244 143.573 32.2272 143.746 32.3867C143.919 32.5462 144.156 32.626 144.457 32.626ZM153.467 28.4561C153.198 28.4196 152.961 28.4014 152.756 28.4014C152.008 28.4014 151.519 28.6543 151.286 29.1602V34H149.311V26.6035H151.177L151.231 27.4854C151.628 26.8063 152.177 26.4668 152.879 26.4668C153.098 26.4668 153.303 26.4964 153.494 26.5557L153.467 28.4561ZM158.43 31.9561C158.43 31.7145 158.309 31.5254 158.067 31.3887C157.83 31.2474 157.448 31.1221 156.919 31.0127C155.16 30.6436 154.28 29.8962 154.28 28.7705C154.28 28.1143 154.551 27.5674 155.094 27.1299C155.641 26.6878 156.354 26.4668 157.233 26.4668C158.172 26.4668 158.922 26.6878 159.482 27.1299C160.048 27.5719 160.33 28.1462 160.33 28.8525H158.354C158.354 28.57 158.263 28.3376 158.081 28.1553C157.899 27.9684 157.614 27.875 157.227 27.875C156.894 27.875 156.636 27.9502 156.454 28.1006C156.272 28.251 156.181 28.4424 156.181 28.6748C156.181 28.8936 156.283 29.0713 156.488 29.208C156.698 29.3402 157.049 29.4564 157.541 29.5566C158.033 29.6523 158.448 29.7617 158.785 29.8848C159.829 30.2676 160.351 30.9307 160.351 31.874C160.351 32.5485 160.061 33.0954 159.482 33.5146C158.904 33.9294 158.156 34.1367 157.24 34.1367C156.62 34.1367 156.069 34.0273 155.586 33.8086C155.107 33.5853 154.731 33.2822 154.458 32.8994C154.185 32.512 154.048 32.0951 154.048 31.6484H155.921C155.939 31.9993 156.069 32.2682 156.311 32.4551C156.552 32.6419 156.876 32.7354 157.281 32.7354C157.66 32.7354 157.944 32.6647 158.136 32.5234C158.332 32.3776 158.43 32.1885 158.43 31.9561Z" fill="#C9C9C9"/>
<path d="M7.0752 85.3994H2.76172V88.9268H7.77246V90H1.44922V80.0469H7.7041V81.127H2.76172V84.3262H7.0752V85.3994ZM8.76367 86.2402C8.76367 85.0781 9.03027 84.1598 9.56348 83.4854C10.0967 82.8063 10.8122 82.4668 11.71 82.4668C12.585 82.4668 13.2754 82.7607 13.7812 83.3486L13.8359 82.6035H14.998V92.8438H13.7334V89.3164C13.223 89.8633 12.5439 90.1367 11.6963 90.1367C10.8031 90.1367 10.0898 89.7904 9.55664 89.0977C9.02799 88.4004 8.76367 87.4775 8.76367 86.3291V86.2402ZM10.0283 86.3838C10.0283 87.2314 10.2061 87.8968 10.5615 88.3799C10.9215 88.863 11.4046 89.1045 12.0107 89.1045C12.7627 89.1045 13.3369 88.7718 13.7334 88.1064V84.4834C13.3324 83.8317 12.7627 83.5059 12.0244 83.5059C11.4137 83.5059 10.9284 83.7497 10.5684 84.2373C10.2083 84.7204 10.0283 85.4359 10.0283 86.3838ZM21.5947 89.2686C21.1025 89.8473 20.3802 90.1367 19.4277 90.1367C18.6393 90.1367 18.0378 89.9089 17.623 89.4531C17.2129 88.9928 17.0055 88.3138 17.001 87.416V82.6035H18.2656V87.3818C18.2656 88.5029 18.7214 89.0635 19.6328 89.0635C20.599 89.0635 21.2415 88.7035 21.5605 87.9834V82.6035H22.8252V90H21.6221L21.5947 89.2686ZM26.127 90H24.8623V82.6035H26.127V90ZM24.7598 80.6416C24.7598 80.4365 24.8213 80.2633 24.9443 80.1221C25.0719 79.9808 25.2588 79.9102 25.5049 79.9102C25.751 79.9102 25.9378 79.9808 26.0654 80.1221C26.193 80.2633 26.2568 80.4365 26.2568 80.6416C26.2568 80.8467 26.193 81.0176 26.0654 81.1543C25.9378 81.291 25.751 81.3594 25.5049 81.3594C25.2588 81.3594 25.0719 81.291 24.9443 81.1543C24.8213 81.0176 24.7598 80.8467 24.7598 80.6416ZM30.5977 88.2842L32.4297 82.6035H33.7217L31.0693 90H30.1055L27.4258 82.6035H28.7178L30.5977 88.2842ZM39.3955 90C39.3226 89.8542 39.2633 89.5944 39.2178 89.2207C38.6299 89.8314 37.9281 90.1367 37.1123 90.1367C36.3831 90.1367 35.7839 89.9316 35.3145 89.5215C34.8496 89.1068 34.6172 88.5827 34.6172 87.9492C34.6172 87.179 34.9089 86.582 35.4922 86.1582C36.0801 85.7298 36.9049 85.5156 37.9668 85.5156H39.1973V84.9346C39.1973 84.4925 39.0651 84.1416 38.8008 83.8818C38.5365 83.6175 38.1468 83.4854 37.6318 83.4854C37.1807 83.4854 36.8024 83.5993 36.4971 83.8271C36.1917 84.055 36.0391 84.3307 36.0391 84.6543H34.7676C34.7676 84.2852 34.8975 83.9297 35.1572 83.5879C35.4215 83.2415 35.777 82.9681 36.2236 82.7676C36.6748 82.5671 37.1693 82.4668 37.707 82.4668C38.5592 82.4668 39.2269 82.681 39.71 83.1094C40.193 83.5332 40.4437 84.1188 40.4619 84.8662V88.2705C40.4619 88.9495 40.5485 89.4896 40.7217 89.8906V90H39.3955ZM37.2969 89.0361C37.6934 89.0361 38.0693 88.9336 38.4248 88.7285C38.7803 88.5234 39.0378 88.2568 39.1973 87.9287V86.4111H38.2061C36.6566 86.4111 35.8818 86.8646 35.8818 87.7715C35.8818 88.168 36.014 88.4779 36.2783 88.7012C36.5426 88.9245 36.8822 89.0361 37.2969 89.0361ZM43.8184 90H42.5537V79.5H43.8184V90ZM48.918 90.1367C47.9154 90.1367 47.0996 89.8086 46.4707 89.1523C45.8418 88.4915 45.5273 87.6097 45.5273 86.5068V86.2744C45.5273 85.5407 45.6663 84.8867 45.9443 84.3125C46.2269 83.7337 46.6188 83.2826 47.1201 82.959C47.626 82.6309 48.1729 82.4668 48.7607 82.4668C49.7223 82.4668 50.4697 82.7835 51.0029 83.417C51.5361 84.0505 51.8027 84.9574 51.8027 86.1377V86.6641H46.792C46.8102 87.3932 47.0221 87.9834 47.4277 88.4346C47.8379 88.8812 48.3574 89.1045 48.9863 89.1045C49.4329 89.1045 49.8112 89.0133 50.1211 88.8311C50.431 88.6488 50.7021 88.4072 50.9346 88.1064L51.707 88.708C51.0872 89.6605 50.1576 90.1367 48.918 90.1367ZM48.7607 83.5059C48.2503 83.5059 47.8219 83.6927 47.4756 84.0664C47.1292 84.4355 46.915 84.9551 46.833 85.625H50.5381V85.5293C50.5016 84.8867 50.3285 84.39 50.0186 84.0391C49.7087 83.6836 49.2894 83.5059 48.7607 83.5059ZM54.4688 82.6035L54.5098 83.5332C55.0749 82.8223 55.8132 82.4668 56.7246 82.4668C58.2878 82.4668 59.0762 83.3486 59.0898 85.1123V90H57.8252V85.1055C57.8206 84.5723 57.6976 84.1781 57.4561 83.9229C57.2191 83.6676 56.8477 83.54 56.3418 83.54C55.9316 83.54 55.5716 83.6494 55.2617 83.8682C54.9518 84.0869 54.7103 84.374 54.5371 84.7295V90H53.2725V82.6035H54.4688ZM62.7129 80.8125V82.6035H64.0938V83.5811H62.7129V88.168C62.7129 88.4642 62.7744 88.6875 62.8975 88.8379C63.0205 88.9837 63.2301 89.0566 63.5264 89.0566C63.6722 89.0566 63.8727 89.0293 64.1279 88.9746V90C63.7952 90.0911 63.4717 90.1367 63.1572 90.1367C62.5921 90.1367 62.166 89.9658 61.8789 89.624C61.5918 89.2822 61.4482 88.7969 61.4482 88.168V83.5811H60.1016V82.6035H61.4482V80.8125H62.7129ZM71.3945 86.8623L71.5859 88.1748L71.8662 86.9922L73.835 80.0469H74.9424L76.8633 86.9922L77.1367 88.1953L77.3486 86.8555L78.8936 80.0469H80.2129L77.7998 90H76.6035L74.5527 82.7471L74.3955 81.9883L74.2383 82.7471L72.1123 90H70.916L68.5098 80.0469H69.8223L71.3945 86.8623ZM82.8516 90H81.5869V82.6035H82.8516V90ZM81.4844 80.6416C81.4844 80.4365 81.5459 80.2633 81.6689 80.1221C81.7965 79.9808 81.9834 79.9102 82.2295 79.9102C82.4756 79.9102 82.6624 79.9808 82.79 80.1221C82.9176 80.2633 82.9814 80.4365 82.9814 80.6416C82.9814 80.8467 82.9176 81.0176 82.79 81.1543C82.6624 81.291 82.4756 81.3594 82.2295 81.3594C81.9834 81.3594 81.7965 81.291 81.6689 81.1543C81.5459 81.0176 81.4844 80.8467 81.4844 80.6416ZM86.0781 82.6035L86.1191 83.5332C86.6842 82.8223 87.4225 82.4668 88.334 82.4668C89.8971 82.4668 90.6855 83.3486 90.6992 85.1123V90H89.4346V85.1055C89.43 84.5723 89.307 84.1781 89.0654 83.9229C88.8285 83.6676 88.457 83.54 87.9512 83.54C87.541 83.54 87.181 83.6494 86.8711 83.8682C86.5612 84.0869 86.3197 84.374 86.1465 84.7295V90H84.8818V82.6035H86.0781ZM92.2988 86.2402C92.2988 85.1055 92.5677 84.194 93.1055 83.5059C93.6432 82.8132 94.3473 82.4668 95.2178 82.4668C96.0837 82.4668 96.7695 82.763 97.2754 83.3555V79.5H98.54V90H97.3779L97.3164 89.207C96.8105 89.8268 96.1064 90.1367 95.2041 90.1367C94.3473 90.1367 93.6478 89.7858 93.1055 89.084C92.5677 88.3822 92.2988 87.4661 92.2988 86.3359V86.2402ZM93.5635 86.3838C93.5635 87.2223 93.7367 87.8786 94.083 88.3525C94.4294 88.8265 94.9079 89.0635 95.5186 89.0635C96.3206 89.0635 96.9062 88.7035 97.2754 87.9834V84.5859C96.8971 83.8887 96.3161 83.54 95.5322 83.54C94.9124 83.54 94.4294 83.7793 94.083 84.2578C93.7367 84.7363 93.5635 85.445 93.5635 86.3838ZM100.174 86.2334C100.174 85.5088 100.315 84.8571 100.598 84.2783C100.885 83.6995 101.281 83.2529 101.787 82.9385C102.298 82.624 102.879 82.4668 103.53 82.4668C104.537 82.4668 105.351 82.8154 105.971 83.5127C106.595 84.21 106.907 85.1374 106.907 86.2949V86.3838C106.907 87.1038 106.768 87.751 106.49 88.3252C106.217 88.8949 105.823 89.3392 105.308 89.6582C104.797 89.9772 104.209 90.1367 103.544 90.1367C102.541 90.1367 101.728 89.7881 101.104 89.0908C100.484 88.3936 100.174 87.4707 100.174 86.3223V86.2334ZM101.445 86.3838C101.445 87.2041 101.634 87.8626 102.013 88.3594C102.396 88.8561 102.906 89.1045 103.544 89.1045C104.187 89.1045 104.697 88.8538 105.075 88.3525C105.453 87.8467 105.643 87.1403 105.643 86.2334C105.643 85.4222 105.449 84.766 105.062 84.2646C104.679 83.7588 104.168 83.5059 103.53 83.5059C102.906 83.5059 102.402 83.7542 102.02 84.251C101.637 84.7477 101.445 85.4587 101.445 86.3838ZM115.042 88.2568L116.464 82.6035H117.729L115.575 90H114.55L112.752 84.3945L111.002 90H109.977L107.83 82.6035H109.088L110.544 88.1406L112.267 82.6035H113.285L115.042 88.2568ZM123.327 88.0381C123.327 87.6963 123.197 87.432 122.938 87.2451C122.682 87.0537 122.233 86.8896 121.591 86.7529C120.953 86.6162 120.445 86.4521 120.066 86.2607C119.693 86.0693 119.415 85.8415 119.232 85.5771C119.055 85.3128 118.966 84.9984 118.966 84.6338C118.966 84.0277 119.221 83.515 119.731 83.0957C120.246 82.6764 120.903 82.4668 121.7 82.4668C122.539 82.4668 123.218 82.6833 123.737 83.1162C124.261 83.5492 124.523 84.1029 124.523 84.7773H123.252C123.252 84.431 123.104 84.1325 122.808 83.8818C122.516 83.6312 122.147 83.5059 121.7 83.5059C121.24 83.5059 120.88 83.6061 120.62 83.8066C120.36 84.0072 120.23 84.2692 120.23 84.5928C120.23 84.8981 120.351 85.1283 120.593 85.2832C120.834 85.4382 121.27 85.5863 121.898 85.7275C122.532 85.8688 123.045 86.0374 123.437 86.2334C123.828 86.4294 124.118 86.6663 124.305 86.9443C124.496 87.2178 124.592 87.5527 124.592 87.9492C124.592 88.61 124.327 89.141 123.799 89.542C123.27 89.9385 122.584 90.1367 121.741 90.1367C121.149 90.1367 120.625 90.0319 120.169 89.8223C119.713 89.6126 119.355 89.321 119.096 88.9473C118.84 88.569 118.713 88.1611 118.713 87.7236H119.978C120 88.1475 120.169 88.4847 120.483 88.7354C120.802 88.9814 121.222 89.1045 121.741 89.1045C122.22 89.1045 122.603 89.0088 122.89 88.8174C123.181 88.6214 123.327 88.3617 123.327 88.0381ZM131.223 86.1035V90H129.91V80.0469H133.581C134.67 80.0469 135.522 80.3249 136.138 80.8809C136.757 81.4368 137.067 82.1729 137.067 83.0889C137.067 84.055 136.764 84.8001 136.158 85.3242C135.557 85.8438 134.693 86.1035 133.567 86.1035H131.223ZM131.223 85.0303H133.581C134.283 85.0303 134.821 84.8662 135.194 84.5381C135.568 84.2054 135.755 83.7269 135.755 83.1025C135.755 82.5101 135.568 82.0361 135.194 81.6807C134.821 81.3252 134.308 81.1406 133.656 81.127H131.223V85.0303ZM146.063 86.8418C145.94 87.8945 145.551 88.708 144.895 89.2822C144.243 89.8519 143.375 90.1367 142.29 90.1367C141.114 90.1367 140.171 89.7152 139.46 88.8721C138.754 88.029 138.4 86.901 138.4 85.4883V84.5312C138.4 83.6061 138.564 82.7926 138.893 82.0908C139.225 81.389 139.695 80.8512 140.301 80.4775C140.907 80.0993 141.609 79.9102 142.406 79.9102C143.464 79.9102 144.311 80.2064 144.949 80.7988C145.587 81.3867 145.959 82.2025 146.063 83.2461H144.744C144.63 82.4531 144.382 81.8789 143.999 81.5234C143.621 81.168 143.09 80.9902 142.406 80.9902C141.568 80.9902 140.909 81.3001 140.431 81.9199C139.957 82.5397 139.72 83.4215 139.72 84.5654V85.5293C139.72 86.6094 139.945 87.4684 140.396 88.1064C140.848 88.7445 141.479 89.0635 142.29 89.0635C143.019 89.0635 143.577 88.8994 143.965 88.5713C144.357 88.2386 144.617 87.6621 144.744 86.8418H146.063Z" fill="white"/>
<rect x="2" y="60" width="273" height="10" fill="url(#paint1_linear)"/>
<defs>
<linearGradient id="paint0_linear" x1="0" y1="4" x2="59.3133" y2="11.5331" gradientUnits="userSpaceOnUse">
<stop stop-color="#4B89E5"/>
<stop offset="1" stop-color="#AB38E1"/>
</linearGradient>
<linearGradient id="paint1_linear" x1="5.2597" y1="65.0003" x2="275" y2="65.0003" gradientUnits="userSpaceOnUse">
<stop stop-color="#5EC3EB"/>
<stop offset="1" stop-color="#3197F4"/>
</linearGradient>
</defs>
</svg>
