<svg width="1161" height="180" viewBox="0 0 1161 180" fill="none" xmlns="http://www.w3.org/2000/svg">
<path d="M1106.49 19.8857C1106.49 19.2985 1106.32 18.833 1105.99 18.4893C1105.67 18.1383 1105.12 17.8161 1104.34 17.5225C1103.56 17.2288 1102.88 16.9388 1102.32 16.6523C1101.75 16.3587 1101.27 16.0257 1100.86 15.6533C1100.46 15.2738 1100.14 14.8298 1099.91 14.3213C1099.69 13.8128 1099.58 13.2077 1099.58 12.5059C1099.58 11.2956 1099.97 10.3037 1100.74 9.53027C1101.51 8.75684 1102.54 8.30566 1103.82 8.17676V5.87793H1105.54V8.20898C1106.81 8.38802 1107.8 8.91797 1108.52 9.79883C1109.23 10.6725 1109.59 11.8076 1109.59 13.2041H1106.49C1106.49 12.3447 1106.31 11.7038 1105.95 11.2812C1105.6 10.8516 1105.13 10.6367 1104.53 10.6367C1103.94 10.6367 1103.49 10.805 1103.17 11.1416C1102.84 11.471 1102.68 11.9294 1102.68 12.5166C1102.68 13.0609 1102.84 13.4977 1103.16 13.8271C1103.47 14.1566 1104.06 14.4932 1104.91 14.8369C1105.77 15.1807 1106.47 15.5065 1107.02 15.8145C1107.57 16.1152 1108.04 16.459 1108.42 16.8457C1108.8 17.2253 1109.09 17.6621 1109.29 18.1562C1109.49 18.6432 1109.59 19.2126 1109.59 19.8643C1109.59 21.0817 1109.21 22.07 1108.45 22.8291C1107.69 23.5882 1106.65 24.0358 1105.32 24.1719V26.3096H1103.61V24.1826C1102.14 24.0251 1101 23.5059 1100.19 22.625C1099.39 21.737 1098.99 20.5589 1098.99 19.0908H1102.09C1102.09 19.943 1102.29 20.5983 1102.69 21.0566C1103.1 21.5078 1103.69 21.7334 1104.45 21.7334C1105.08 21.7334 1105.57 21.5687 1105.94 21.2393C1106.3 20.9027 1106.49 20.4515 1106.49 19.8857ZM1119.24 24H1116.13V12.0332L1112.43 13.1826V10.6582L1118.9 8.33789H1119.24V24ZM1135.05 24H1124.33V21.873L1129.39 16.4805C1130.08 15.7214 1130.6 15.0589 1130.92 14.4932C1131.26 13.9274 1131.43 13.3903 1131.43 12.8818C1131.43 12.1872 1131.25 11.6429 1130.9 11.249C1130.55 10.848 1130.05 10.6475 1129.4 10.6475C1128.7 10.6475 1128.14 10.891 1127.73 11.3779C1127.33 11.8577 1127.13 12.4915 1127.13 13.2793H1124.02C1124.02 12.3268 1124.24 11.4567 1124.69 10.6689C1125.15 9.88118 1125.8 9.2653 1126.63 8.82129C1127.46 8.37012 1128.4 8.14453 1129.45 8.14453C1131.06 8.14453 1132.31 8.53125 1133.2 9.30469C1134.1 10.0781 1134.54 11.1702 1134.54 12.5811C1134.54 13.3545 1134.34 14.1423 1133.94 14.9443C1133.54 15.7464 1132.85 16.681 1131.88 17.748L1128.33 21.4971H1135.05V24ZM1145.38 8.19824V10.7549H1145.08C1143.68 10.7764 1142.55 11.1416 1141.69 11.8506C1140.84 12.5596 1140.32 13.5443 1140.15 14.8047C1140.98 13.9596 1142.03 13.5371 1143.3 13.5371C1144.66 13.5371 1145.74 14.0241 1146.54 14.998C1147.35 15.972 1147.75 17.2539 1147.75 18.8438C1147.75 19.8607 1147.53 20.7809 1147.08 21.6045C1146.64 22.4281 1146.02 23.069 1145.21 23.5273C1144.41 23.9857 1143.5 24.2148 1142.48 24.2148C1140.84 24.2148 1139.5 23.6419 1138.49 22.4961C1137.48 21.3503 1136.97 19.8213 1136.97 17.9092V16.792C1136.97 15.0947 1137.29 13.598 1137.93 12.3018C1138.57 10.9984 1139.49 9.99219 1140.69 9.2832C1141.89 8.56706 1143.29 8.2054 1144.87 8.19824H1145.38ZM1142.35 16.0293C1141.85 16.0293 1141.4 16.1618 1140.99 16.4268C1140.58 16.6846 1140.28 17.0283 1140.09 17.458V18.4033C1140.09 19.4417 1140.29 20.2546 1140.7 20.8418C1141.11 21.4219 1141.68 21.7119 1142.42 21.7119C1143.08 21.7119 1143.62 21.4505 1144.03 20.9277C1144.45 20.3978 1144.65 19.7139 1144.65 18.876C1144.65 18.0238 1144.45 17.3363 1144.03 16.8135C1143.61 16.2907 1143.06 16.0293 1142.35 16.0293ZM1160.12 17.5332C1160.12 19.696 1159.67 21.3503 1158.78 22.4961C1157.88 23.6419 1156.57 24.2148 1154.85 24.2148C1153.14 24.2148 1151.84 23.6527 1150.94 22.5283C1150.04 21.404 1149.57 19.7926 1149.55 17.6943V14.8154C1149.55 12.6312 1150 10.9733 1150.91 9.8418C1151.81 8.71029 1153.12 8.14453 1154.83 8.14453C1156.53 8.14453 1157.83 8.70671 1158.74 9.83105C1159.64 10.9482 1160.1 12.556 1160.12 14.6543V17.5332ZM1157.02 14.375C1157.02 13.0788 1156.84 12.137 1156.48 11.5498C1156.13 10.9554 1155.58 10.6582 1154.83 10.6582C1154.1 10.6582 1153.56 10.9411 1153.2 11.5068C1152.86 12.0654 1152.68 12.9427 1152.66 14.1387V17.9414C1152.66 19.2161 1152.83 20.165 1153.17 20.7881C1153.52 21.404 1154.08 21.7119 1154.85 21.7119C1155.61 21.7119 1156.15 21.4147 1156.49 20.8203C1156.83 20.2259 1157 19.3164 1157.02 18.0918V14.375Z" fill="white"/>
<path d="M1106.49 142.886C1106.49 142.299 1106.32 141.833 1105.99 141.489C1105.67 141.138 1105.12 140.816 1104.34 140.522C1103.56 140.229 1102.88 139.939 1102.32 139.652C1101.75 139.359 1101.27 139.026 1100.86 138.653C1100.46 138.274 1100.14 137.83 1099.91 137.321C1099.69 136.813 1099.58 136.208 1099.58 135.506C1099.58 134.296 1099.97 133.304 1100.74 132.53C1101.51 131.757 1102.54 131.306 1103.82 131.177V128.878H1105.54V131.209C1106.81 131.388 1107.8 131.918 1108.52 132.799C1109.23 133.673 1109.59 134.808 1109.59 136.204H1106.49C1106.49 135.345 1106.31 134.704 1105.95 134.281C1105.6 133.852 1105.13 133.637 1104.53 133.637C1103.94 133.637 1103.49 133.805 1103.17 134.142C1102.84 134.471 1102.68 134.929 1102.68 135.517C1102.68 136.061 1102.84 136.498 1103.16 136.827C1103.47 137.157 1104.06 137.493 1104.91 137.837C1105.77 138.181 1106.47 138.507 1107.02 138.814C1107.57 139.115 1108.04 139.459 1108.42 139.846C1108.8 140.225 1109.09 140.662 1109.29 141.156C1109.49 141.643 1109.59 142.213 1109.59 142.864C1109.59 144.082 1109.21 145.07 1108.45 145.829C1107.69 146.588 1106.65 147.036 1105.32 147.172V149.31H1103.61V147.183C1102.14 147.025 1101 146.506 1100.19 145.625C1099.39 144.737 1098.99 143.559 1098.99 142.091H1102.09C1102.09 142.943 1102.29 143.598 1102.69 144.057C1103.1 144.508 1103.69 144.733 1104.45 144.733C1105.08 144.733 1105.57 144.569 1105.94 144.239C1106.3 143.903 1106.49 143.451 1106.49 142.886ZM1114.85 137.805H1116.51C1117.3 137.805 1117.88 137.608 1118.26 137.214C1118.64 136.82 1118.83 136.297 1118.83 135.646C1118.83 135.015 1118.64 134.525 1118.26 134.174C1117.89 133.823 1117.37 133.647 1116.71 133.647C1116.12 133.647 1115.62 133.812 1115.22 134.142C1114.82 134.464 1114.62 134.886 1114.62 135.409H1111.51C1111.51 134.593 1111.73 133.862 1112.17 133.218C1112.61 132.566 1113.23 132.058 1114.02 131.692C1114.81 131.327 1115.69 131.145 1116.64 131.145C1118.29 131.145 1119.59 131.542 1120.53 132.337C1121.46 133.125 1121.93 134.213 1121.93 135.603C1121.93 136.319 1121.72 136.978 1121.28 137.579C1120.84 138.181 1120.27 138.643 1119.56 138.965C1120.44 139.28 1121.1 139.753 1121.53 140.383C1121.96 141.013 1122.18 141.758 1122.18 142.617C1122.18 144.007 1121.67 145.12 1120.66 145.958C1119.65 146.796 1118.31 147.215 1116.64 147.215C1115.08 147.215 1113.8 146.803 1112.8 145.979C1111.81 145.156 1111.32 144.067 1111.32 142.714H1114.42C1114.42 143.301 1114.64 143.781 1115.08 144.153C1115.52 144.526 1116.07 144.712 1116.71 144.712C1117.45 144.712 1118.03 144.519 1118.44 144.132C1118.86 143.738 1119.08 143.219 1119.08 142.574C1119.08 141.013 1118.22 140.232 1116.5 140.232H1114.85V137.805ZM1124.79 139.309L1125.69 131.359H1134.46V133.948H1128.24L1127.85 137.311C1128.59 136.917 1129.37 136.72 1130.21 136.72C1131.69 136.72 1132.86 137.182 1133.71 138.105C1134.55 139.029 1134.97 140.322 1134.97 141.983C1134.97 142.993 1134.76 143.899 1134.33 144.701C1133.91 145.496 1133.3 146.116 1132.5 146.56C1131.71 146.996 1130.77 147.215 1129.69 147.215C1128.74 147.215 1127.87 147.025 1127.06 146.646C1126.25 146.259 1125.61 145.718 1125.13 145.023C1124.67 144.329 1124.42 143.537 1124.39 142.649H1127.47C1127.53 143.301 1127.76 143.81 1128.14 144.175C1128.54 144.533 1129.05 144.712 1129.68 144.712C1130.38 144.712 1130.92 144.461 1131.3 143.96C1131.68 143.451 1131.87 142.735 1131.87 141.812C1131.87 140.924 1131.65 140.243 1131.21 139.771C1130.78 139.298 1130.16 139.062 1129.36 139.062C1128.62 139.062 1128.02 139.255 1127.56 139.642L1127.26 139.921L1124.79 139.309ZM1147.49 140.533C1147.49 142.696 1147.04 144.35 1146.15 145.496C1145.25 146.642 1143.94 147.215 1142.21 147.215C1140.51 147.215 1139.21 146.653 1138.3 145.528C1137.4 144.404 1136.94 142.793 1136.92 140.694V137.815C1136.92 135.631 1137.37 133.973 1138.27 132.842C1139.18 131.71 1140.49 131.145 1142.19 131.145C1143.9 131.145 1145.2 131.707 1146.1 132.831C1147.01 133.948 1147.47 135.556 1147.49 137.654V140.533ZM1144.38 137.375C1144.38 136.079 1144.21 135.137 1143.85 134.55C1143.5 133.955 1142.95 133.658 1142.19 133.658C1141.46 133.658 1140.92 133.941 1140.57 134.507C1140.23 135.065 1140.04 135.943 1140.02 137.139V140.941C1140.02 142.216 1140.2 143.165 1140.54 143.788C1140.89 144.404 1141.45 144.712 1142.21 144.712C1142.97 144.712 1143.52 144.415 1143.86 143.82C1144.19 143.226 1144.37 142.316 1144.38 141.092V137.375ZM1160.12 140.533C1160.12 142.696 1159.67 144.35 1158.78 145.496C1157.88 146.642 1156.57 147.215 1154.85 147.215C1153.14 147.215 1151.84 146.653 1150.94 145.528C1150.04 144.404 1149.57 142.793 1149.55 140.694V137.815C1149.55 135.631 1150 133.973 1150.91 132.842C1151.81 131.71 1153.12 131.145 1154.83 131.145C1156.53 131.145 1157.83 131.707 1158.74 132.831C1159.64 133.948 1160.1 135.556 1160.12 137.654V140.533ZM1157.02 137.375C1157.02 136.079 1156.84 135.137 1156.48 134.55C1156.13 133.955 1155.58 133.658 1154.83 133.658C1154.1 133.658 1153.56 133.941 1153.2 134.507C1152.86 135.065 1152.68 135.943 1152.66 137.139V140.941C1152.66 142.216 1152.83 143.165 1153.17 143.788C1153.52 144.404 1154.08 144.712 1154.85 144.712C1155.61 144.712 1156.15 144.415 1156.49 143.82C1156.83 143.226 1157 142.316 1157.02 141.092V137.375Z" fill="white"/>
<path d="M10.8066 45.0928H4.24316V52H2.18066V36.3594H11.8701V38.0566H4.24316V43.4062H10.8066V45.0928ZM19.3682 42.1602C19.0674 42.11 18.7415 42.085 18.3906 42.085C17.0872 42.085 16.2028 42.64 15.7373 43.75V52H13.75V40.377H15.6836L15.7158 41.7197C16.3675 40.6813 17.2913 40.1621 18.4873 40.1621C18.874 40.1621 19.1676 40.2122 19.3682 40.3125V42.1602ZM27.9512 52C27.8366 51.7708 27.7435 51.3626 27.6719 50.7754C26.748 51.735 25.6452 52.2148 24.3633 52.2148C23.2174 52.2148 22.2757 51.8926 21.5381 51.248C20.8076 50.5964 20.4424 49.7728 20.4424 48.7773C20.4424 47.5671 20.9007 46.6289 21.8174 45.9629C22.7412 45.2897 24.0374 44.9531 25.7061 44.9531H27.6396V44.04C27.6396 43.3454 27.432 42.7939 27.0166 42.3857C26.6012 41.9704 25.9889 41.7627 25.1797 41.7627C24.4707 41.7627 23.8763 41.9417 23.3965 42.2998C22.9167 42.6579 22.6768 43.0911 22.6768 43.5996H20.6787C20.6787 43.0195 20.8828 42.4609 21.291 41.9238C21.7064 41.3796 22.265 40.9499 22.9668 40.6348C23.6758 40.3197 24.4528 40.1621 25.2979 40.1621C26.637 40.1621 27.6862 40.4987 28.4453 41.1719C29.2044 41.8379 29.5983 42.7581 29.627 43.9326V49.2822C29.627 50.3493 29.763 51.1979 30.0352 51.8281V52H27.9512ZM24.6533 50.4854C25.2764 50.4854 25.8672 50.3242 26.4258 50.002C26.9844 49.6797 27.389 49.2607 27.6396 48.7451V46.3604H26.082C23.6471 46.3604 22.4297 47.0729 22.4297 48.498C22.4297 49.1211 22.6374 49.6081 23.0527 49.959C23.4681 50.3099 24.0016 50.4854 24.6533 50.4854ZM37.4043 50.5928C38.1133 50.5928 38.7327 50.3779 39.2627 49.9482C39.7926 49.5186 40.0863 48.9814 40.1436 48.3369H42.0234C41.9876 49.0029 41.7585 49.6367 41.3359 50.2383C40.9134 50.8398 40.3477 51.3197 39.6387 51.6777C38.9368 52.0358 38.1921 52.2148 37.4043 52.2148C35.8216 52.2148 34.5612 51.6885 33.623 50.6357C32.6921 49.5758 32.2266 48.1292 32.2266 46.2959V45.9629C32.2266 44.8314 32.4342 43.8252 32.8496 42.9443C33.265 42.0635 33.8594 41.3796 34.6328 40.8926C35.4134 40.4056 36.3337 40.1621 37.3936 40.1621C38.6969 40.1621 39.7783 40.5524 40.6377 41.333C41.5042 42.1136 41.9661 43.127 42.0234 44.373H40.1436C40.0863 43.6211 39.7998 43.0052 39.2842 42.5254C38.7757 42.0384 38.1455 41.7949 37.3936 41.7949C36.3838 41.7949 35.5996 42.1602 35.041 42.8906C34.4896 43.6139 34.2139 44.6631 34.2139 46.0381V46.4141C34.2139 47.7533 34.4896 48.7845 35.041 49.5078C35.5924 50.2311 36.3802 50.5928 37.4043 50.5928ZM46.9541 37.5625V40.377H49.124V41.9131H46.9541V49.1211C46.9541 49.5866 47.0508 49.9375 47.2441 50.1738C47.4375 50.403 47.7669 50.5176 48.2324 50.5176C48.4616 50.5176 48.7767 50.4746 49.1777 50.3887V52C48.6549 52.1432 48.1465 52.2148 47.6523 52.2148C46.7643 52.2148 46.0947 51.9463 45.6436 51.4092C45.1924 50.8721 44.9668 50.1094 44.9668 49.1211V41.9131H42.8506V40.377H44.9668V37.5625H46.9541ZM58.6309 52C58.5163 51.7708 58.4232 51.3626 58.3516 50.7754C57.4277 51.735 56.3249 52.2148 55.043 52.2148C53.8971 52.2148 52.9554 51.8926 52.2178 51.248C51.4873 50.5964 51.1221 49.7728 51.1221 48.7773C51.1221 47.5671 51.5804 46.6289 52.4971 45.9629C53.4209 45.2897 54.7171 44.9531 56.3857 44.9531H58.3193V44.04C58.3193 43.3454 58.1117 42.7939 57.6963 42.3857C57.2809 41.9704 56.6686 41.7627 55.8594 41.7627C55.1504 41.7627 54.556 41.9417 54.0762 42.2998C53.5964 42.6579 53.3564 43.0911 53.3564 43.5996H51.3584C51.3584 43.0195 51.5625 42.4609 51.9707 41.9238C52.3861 41.3796 52.9447 40.9499 53.6465 40.6348C54.3555 40.3197 55.1325 40.1621 55.9775 40.1621C57.3167 40.1621 58.3659 40.4987 59.125 41.1719C59.8841 41.8379 60.278 42.7581 60.3066 43.9326V49.2822C60.3066 50.3493 60.4427 51.1979 60.7148 51.8281V52H58.6309ZM55.333 50.4854C55.9561 50.4854 56.5469 50.3242 57.1055 50.002C57.6641 49.6797 58.0687 49.2607 58.3193 48.7451V46.3604H56.7617C54.3268 46.3604 53.1094 47.0729 53.1094 48.498C53.1094 49.1211 53.3171 49.6081 53.7324 49.959C54.1478 50.3099 54.6813 50.4854 55.333 50.4854ZM65.5811 52H63.5938V35.5H65.5811V52ZM68.707 55.1152L67.5791 54.3418C68.2523 53.4036 68.6032 52.4368 68.6318 51.4414V49.6475H70.5762V51.2051C70.5762 51.9284 70.3971 52.6517 70.0391 53.375C69.6882 54.0983 69.2441 54.6784 68.707 55.1152ZM86.2383 47.9717C86.2383 47.3128 86.0055 46.7578 85.54 46.3066C85.0817 45.8555 84.3047 45.4473 83.209 45.082C81.6836 44.6165 80.57 44.0114 79.8682 43.2666C79.1735 42.5146 78.8262 41.5622 78.8262 40.4092C78.8262 39.2347 79.1663 38.2715 79.8467 37.5195C80.5342 36.7676 81.4759 36.32 82.6719 36.1768V33.8242H84.2725V36.1875C85.4756 36.3522 86.4102 36.8571 87.0762 37.7021C87.7493 38.5472 88.0859 39.7038 88.0859 41.1719H86.1094C86.1094 40.1621 85.8695 39.36 85.3896 38.7656C84.9098 38.1712 84.2617 37.874 83.4453 37.874C82.5931 37.874 81.9414 38.096 81.4902 38.54C81.0391 38.9769 80.8135 39.5892 80.8135 40.377C80.8135 41.1074 81.0498 41.6911 81.5225 42.1279C82.0023 42.5576 82.7865 42.9515 83.875 43.3096C84.9707 43.6605 85.8229 44.0508 86.4316 44.4805C87.0475 44.903 87.4987 45.3971 87.7852 45.9629C88.0788 46.5286 88.2256 47.1911 88.2256 47.9502C88.2256 49.1605 87.8604 50.1344 87.1299 50.8721C86.4066 51.6097 85.3896 52.0465 84.0791 52.1826V54.2344H82.4893V52.1826C81.1572 52.0609 80.1117 51.5882 79.3525 50.7646C78.6006 49.9339 78.2246 48.8096 78.2246 47.3916H80.2119C80.2119 48.387 80.4733 49.1533 80.9961 49.6904C81.5189 50.2275 82.2601 50.4961 83.2197 50.4961C84.1579 50.4961 84.8955 50.2705 85.4326 49.8193C85.9697 49.3682 86.2383 48.7523 86.2383 47.9717ZM93.5859 43.2129H95.0791C96.0173 43.1986 96.7549 42.9515 97.292 42.4717C97.8291 41.9919 98.0977 41.3438 98.0977 40.5273C98.0977 38.694 97.1846 37.7773 95.3584 37.7773C94.499 37.7773 93.8115 38.0244 93.2959 38.5186C92.7874 39.0055 92.5332 39.6536 92.5332 40.4629H90.5459C90.5459 39.224 90.9971 38.1963 91.8994 37.3799C92.8089 36.5563 93.9619 36.1445 95.3584 36.1445C96.8337 36.1445 97.9902 36.5348 98.8281 37.3154C99.666 38.096 100.085 39.181 100.085 40.5703C100.085 41.2507 99.863 41.9095 99.4189 42.5469C98.9821 43.1842 98.3841 43.6605 97.625 43.9756C98.4844 44.2477 99.1468 44.6989 99.6123 45.3291C100.085 45.9593 100.321 46.7292 100.321 47.6387C100.321 49.0423 99.863 50.1559 98.9463 50.9795C98.0296 51.8031 96.8372 52.2148 95.3691 52.2148C93.901 52.2148 92.7051 51.8174 91.7812 51.0225C90.8646 50.2275 90.4062 49.1784 90.4062 47.875H92.4043C92.4043 48.6986 92.6729 49.3574 93.21 49.8516C93.7471 50.3457 94.4668 50.5928 95.3691 50.5928C96.3288 50.5928 97.0628 50.3421 97.5713 49.8408C98.0798 49.3395 98.334 48.6198 98.334 47.6816C98.334 46.7721 98.0547 46.0739 97.4961 45.5869C96.9375 45.0999 96.1318 44.8493 95.0791 44.835H93.5859V43.2129ZM103.963 44.1582L104.758 36.3594H112.771V38.1963H106.444L105.972 42.4609C106.738 42.0098 107.608 41.7842 108.582 41.7842C110.007 41.7842 111.139 42.2568 111.977 43.2021C112.814 44.1403 113.233 45.4115 113.233 47.0156C113.233 48.627 112.797 49.8981 111.923 50.8291C111.056 51.7529 109.842 52.2148 108.281 52.2148C106.899 52.2148 105.771 51.8317 104.897 51.0654C104.024 50.2992 103.526 49.2393 103.404 47.8857H105.284C105.406 48.7809 105.725 49.4577 106.24 49.916C106.756 50.3672 107.436 50.5928 108.281 50.5928C109.205 50.5928 109.928 50.2777 110.451 49.6475C110.981 49.0173 111.246 48.1471 111.246 47.0371C111.246 45.9915 110.96 45.1536 110.387 44.5234C109.821 43.8861 109.065 43.5674 108.12 43.5674C107.254 43.5674 106.573 43.7572 106.079 44.1367L105.553 44.5664L103.963 44.1582ZM121.462 53.3428H119.754L126.285 36.3594H127.982L121.462 53.3428ZM137.457 40.377L137.511 41.666C138.363 40.6634 139.512 40.1621 140.959 40.1621C142.585 40.1621 143.691 40.7852 144.278 42.0312C144.665 41.4727 145.166 41.0215 145.782 40.6777C146.405 40.334 147.139 40.1621 147.984 40.1621C150.534 40.1621 151.83 41.512 151.873 44.2119V52H149.886V44.3301C149.886 43.4993 149.696 42.8799 149.316 42.4717C148.937 42.0563 148.299 41.8486 147.404 41.8486C146.667 41.8486 146.054 42.0706 145.567 42.5146C145.08 42.9515 144.798 43.5423 144.719 44.2871V52H142.721V44.3838C142.721 42.6937 141.894 41.8486 140.239 41.8486C138.936 41.8486 138.044 42.4036 137.564 43.5137V52H135.577V40.377H137.457ZM154.354 46.0811C154.354 44.9424 154.576 43.9183 155.021 43.0088C155.472 42.0993 156.095 41.3975 156.89 40.9033C157.692 40.4092 158.605 40.1621 159.629 40.1621C161.212 40.1621 162.49 40.71 163.464 41.8057C164.445 42.9014 164.936 44.3587 164.936 46.1777V46.3174C164.936 47.4489 164.717 48.4658 164.28 49.3682C163.851 50.2633 163.231 50.9616 162.422 51.4629C161.62 51.9642 160.696 52.2148 159.65 52.2148C158.075 52.2148 156.797 51.667 155.815 50.5713C154.841 49.4756 154.354 48.0254 154.354 46.2207V46.0811ZM156.353 46.3174C156.353 47.6064 156.65 48.6413 157.244 49.4219C157.846 50.2025 158.648 50.5928 159.65 50.5928C160.66 50.5928 161.462 50.1989 162.057 49.4111C162.651 48.6162 162.948 47.5062 162.948 46.0811C162.948 44.8063 162.644 43.7751 162.035 42.9873C161.434 42.1924 160.632 41.7949 159.629 41.7949C158.648 41.7949 157.856 42.1852 157.255 42.9658C156.653 43.7464 156.353 44.8636 156.353 46.3174ZM172.358 46.0811C172.358 44.9424 172.58 43.9183 173.024 43.0088C173.476 42.0993 174.099 41.3975 174.894 40.9033C175.696 40.4092 176.609 40.1621 177.633 40.1621C179.215 40.1621 180.494 40.71 181.468 41.8057C182.449 42.9014 182.939 44.3587 182.939 46.1777V46.3174C182.939 47.4489 182.721 48.4658 182.284 49.3682C181.854 50.2633 181.235 50.9616 180.426 51.4629C179.624 51.9642 178.7 52.2148 177.654 52.2148C176.079 52.2148 174.8 51.667 173.819 50.5713C172.845 49.4756 172.358 48.0254 172.358 46.2207V46.0811ZM174.356 46.3174C174.356 47.6064 174.654 48.6413 175.248 49.4219C175.85 50.2025 176.652 50.5928 177.654 50.5928C178.664 50.5928 179.466 50.1989 180.061 49.4111C180.655 48.6162 180.952 47.5062 180.952 46.0811C180.952 44.8063 180.648 43.7751 180.039 42.9873C179.438 42.1924 178.635 41.7949 177.633 41.7949C176.652 41.7949 175.86 42.1852 175.259 42.9658C174.657 43.7464 174.356 44.8636 174.356 46.3174ZM189.095 49.3037L191.974 40.377H194.004L189.836 52H188.321L184.11 40.377H186.141L189.095 49.3037ZM200.589 52.2148C199.013 52.2148 197.731 51.6992 196.743 50.668C195.755 49.6296 195.261 48.2438 195.261 46.5107V46.1455C195.261 44.9925 195.479 43.9648 195.916 43.0625C196.36 42.153 196.976 41.444 197.764 40.9355C198.559 40.4199 199.418 40.1621 200.342 40.1621C201.853 40.1621 203.027 40.6598 203.865 41.6553C204.703 42.6507 205.122 44.0758 205.122 45.9307V46.7578H197.248C197.277 47.9036 197.61 48.8311 198.247 49.54C198.892 50.2419 199.708 50.5928 200.696 50.5928C201.398 50.5928 201.993 50.4495 202.479 50.1631C202.966 49.8766 203.393 49.4971 203.758 49.0244L204.972 49.9697C203.998 51.4665 202.537 52.2148 200.589 52.2148ZM200.342 41.7949C199.54 41.7949 198.867 42.0885 198.322 42.6758C197.778 43.2559 197.441 44.0723 197.312 45.125H203.135V44.9746C203.077 43.9648 202.805 43.1842 202.318 42.6328C201.831 42.0742 201.173 41.7949 200.342 41.7949ZM213.05 42.1602C212.749 42.11 212.423 42.085 212.072 42.085C210.769 42.085 209.884 42.64 209.419 43.75V52H207.432V40.377H209.365L209.397 41.7197C210.049 40.6813 210.973 40.1621 212.169 40.1621C212.556 40.1621 212.849 40.2122 213.05 40.3125V42.1602ZM223.749 37.5195V40.377H225.736V42.6543H223.749V48.4551C223.749 48.8848 223.831 49.1927 223.996 49.3789C224.161 49.5651 224.476 49.6582 224.941 49.6582C225.285 49.6582 225.59 49.6331 225.854 49.583V51.9355C225.246 52.1217 224.619 52.2148 223.975 52.2148C221.798 52.2148 220.688 51.1156 220.645 48.917V42.6543H218.947V40.377H220.645V37.5195H223.749ZM230.495 41.6445C231.319 40.6562 232.354 40.1621 233.6 40.1621C236.12 40.1621 237.399 41.6266 237.435 44.5557V52H234.33V44.6416C234.33 43.9756 234.187 43.485 233.9 43.1699C233.614 42.8477 233.138 42.6865 232.472 42.6865C231.562 42.6865 230.903 43.0374 230.495 43.7393V52H227.391V35.5H230.495V41.6445ZM246.308 43.2881C245.885 43.2308 245.513 43.2021 245.19 43.2021C244.016 43.2021 243.246 43.5996 242.881 44.3945V52H239.776V40.377H242.709L242.795 41.7627C243.418 40.6956 244.281 40.1621 245.384 40.1621C245.728 40.1621 246.05 40.2087 246.351 40.3018L246.308 43.2881ZM252.946 52.2148C251.242 52.2148 249.853 51.6921 248.778 50.6465C247.711 49.6009 247.178 48.208 247.178 46.4678V46.167C247.178 44.9997 247.403 43.9577 247.854 43.041C248.306 42.1172 248.943 41.4082 249.767 40.9141C250.597 40.4128 251.543 40.1621 252.603 40.1621C254.192 40.1621 255.442 40.6634 256.352 41.666C257.268 42.6686 257.727 44.0902 257.727 45.9307V47.1982H250.325C250.425 47.9574 250.726 48.5661 251.228 49.0244C251.736 49.4827 252.377 49.7119 253.15 49.7119C254.346 49.7119 255.281 49.2786 255.954 48.4121L257.479 50.1201C257.014 50.779 256.384 51.2946 255.589 51.667C254.794 52.0322 253.913 52.2148 252.946 52.2148ZM252.592 42.6758C251.976 42.6758 251.475 42.8835 251.088 43.2988C250.708 43.7142 250.465 44.3086 250.357 45.082H254.676V44.835C254.661 44.1475 254.475 43.6175 254.117 43.2451C253.759 42.8656 253.251 42.6758 252.592 42.6758ZM264.849 52.2148C263.144 52.2148 261.755 51.6921 260.681 50.6465C259.614 49.6009 259.08 48.208 259.08 46.4678V46.167C259.08 44.9997 259.306 43.9577 259.757 43.041C260.208 42.1172 260.845 41.4082 261.669 40.9141C262.5 40.4128 263.445 40.1621 264.505 40.1621C266.095 40.1621 267.344 40.6634 268.254 41.666C269.171 42.6686 269.629 44.0902 269.629 45.9307V47.1982H262.228C262.328 47.9574 262.629 48.5661 263.13 49.0244C263.638 49.4827 264.279 49.7119 265.053 49.7119C266.249 49.7119 267.183 49.2786 267.856 48.4121L269.382 50.1201C268.916 50.779 268.286 51.2946 267.491 51.667C266.696 52.0322 265.815 52.2148 264.849 52.2148ZM264.494 42.6758C263.878 42.6758 263.377 42.8835 262.99 43.2988C262.611 43.7142 262.367 44.3086 262.26 45.082H266.578V44.835C266.564 44.1475 266.378 43.6175 266.02 43.2451C265.661 42.8656 265.153 42.6758 264.494 42.6758ZM281.22 47.6064L283.368 40.377H286.698L282.025 53.8047L281.768 54.417C281.073 55.9352 279.927 56.6943 278.33 56.6943C277.879 56.6943 277.421 56.6263 276.955 56.4902V54.1377L277.428 54.1484C278.015 54.1484 278.452 54.0589 278.738 53.8799C279.032 53.7008 279.261 53.4036 279.426 52.9883L279.791 52.0322L275.72 40.377H279.061L281.22 47.6064ZM293.122 52.2148C291.418 52.2148 290.028 51.6921 288.954 50.6465C287.887 49.6009 287.354 48.208 287.354 46.4678V46.167C287.354 44.9997 287.579 43.9577 288.03 43.041C288.481 42.1172 289.119 41.4082 289.942 40.9141C290.773 40.4128 291.718 40.1621 292.778 40.1621C294.368 40.1621 295.618 40.6634 296.527 41.666C297.444 42.6686 297.902 44.0902 297.902 45.9307V47.1982H290.501C290.601 47.9574 290.902 48.5661 291.403 49.0244C291.912 49.4827 292.553 49.7119 293.326 49.7119C294.522 49.7119 295.457 49.2786 296.13 48.4121L297.655 50.1201C297.19 50.779 296.56 51.2946 295.765 51.667C294.97 52.0322 294.089 52.2148 293.122 52.2148ZM292.768 42.6758C292.152 42.6758 291.65 42.8835 291.264 43.2988C290.884 43.7142 290.641 44.3086 290.533 45.082H294.852V44.835C294.837 44.1475 294.651 43.6175 294.293 43.2451C293.935 42.8656 293.426 42.6758 292.768 42.6758ZM306.41 52C306.267 51.7207 306.163 51.3734 306.099 50.958C305.347 51.7959 304.369 52.2148 303.166 52.2148C302.027 52.2148 301.082 51.8854 300.33 51.2266C299.585 50.5677 299.213 49.737 299.213 48.7344C299.213 47.5026 299.668 46.5573 300.577 45.8984C301.494 45.2396 302.815 44.9066 304.541 44.8994H305.97V44.2334C305.97 43.6963 305.83 43.2666 305.551 42.9443C305.279 42.6221 304.845 42.4609 304.251 42.4609C303.728 42.4609 303.316 42.5863 303.016 42.8369C302.722 43.0876 302.575 43.4313 302.575 43.8682H299.471C299.471 43.195 299.678 42.5719 300.094 41.999C300.509 41.4261 301.096 40.9785 301.855 40.6562C302.615 40.3268 303.467 40.1621 304.412 40.1621C305.844 40.1621 306.979 40.5238 307.817 41.2471C308.662 41.9632 309.085 42.973 309.085 44.2764V49.3145C309.092 50.4173 309.246 51.2516 309.547 51.8174V52H306.41ZM303.843 49.8408C304.301 49.8408 304.724 49.7406 305.11 49.54C305.497 49.3324 305.784 49.0566 305.97 48.7129V46.7148H304.81C303.256 46.7148 302.428 47.252 302.328 48.3262L302.317 48.5088C302.317 48.8955 302.453 49.2142 302.726 49.4648C302.998 49.7155 303.37 49.8408 303.843 49.8408ZM318.001 43.2881C317.578 43.2308 317.206 43.2021 316.884 43.2021C315.709 43.2021 314.939 43.5996 314.574 44.3945V52H311.47V40.377H314.402L314.488 41.7627C315.111 40.6956 315.974 40.1621 317.077 40.1621C317.421 40.1621 317.743 40.2087 318.044 40.3018L318.001 43.2881ZM325.8 48.7881C325.8 48.4085 325.61 48.1113 325.23 47.8965C324.858 47.6745 324.257 47.4775 323.426 47.3057C320.661 46.7256 319.279 45.5511 319.279 43.7822C319.279 42.751 319.705 41.8916 320.558 41.2041C321.417 40.5094 322.538 40.1621 323.92 40.1621C325.395 40.1621 326.573 40.5094 327.454 41.2041C328.342 41.8988 328.786 42.8011 328.786 43.9111H325.682C325.682 43.4671 325.538 43.1019 325.252 42.8154C324.965 42.5218 324.518 42.375 323.909 42.375C323.386 42.375 322.982 42.4932 322.695 42.7295C322.409 42.9658 322.266 43.2666 322.266 43.6318C322.266 43.9756 322.427 44.2549 322.749 44.4697C323.078 44.6774 323.63 44.86 324.403 45.0176C325.177 45.168 325.828 45.3398 326.358 45.5332C327.998 46.1348 328.818 47.1768 328.818 48.6592C328.818 49.7191 328.364 50.5785 327.454 51.2373C326.545 51.889 325.37 52.2148 323.931 52.2148C322.957 52.2148 322.09 52.043 321.331 51.6992C320.579 51.3483 319.988 50.8721 319.559 50.2705C319.129 49.6618 318.914 49.0065 318.914 48.3047H321.857C321.886 48.8561 322.09 49.2786 322.47 49.5723C322.849 49.8659 323.358 50.0127 323.995 50.0127C324.59 50.0127 325.037 49.9017 325.338 49.6797C325.646 49.4505 325.8 49.1533 325.8 48.7881Z" fill="white"/>
<path d="M10.6562 167.771H3.87793V173.313H11.752V175H1.81543V159.359H11.6445V161.057H3.87793V166.084H10.6562V167.771ZM13.3096 169.092C13.3096 167.266 13.7285 165.823 14.5664 164.763C15.4043 163.696 16.5286 163.162 17.9395 163.162C19.3145 163.162 20.3994 163.624 21.1943 164.548L21.2803 163.377H23.1064V179.469H21.1191V173.926C20.3171 174.785 19.25 175.215 17.918 175.215C16.5143 175.215 15.3936 174.671 14.5557 173.582C13.7249 172.486 13.3096 171.036 13.3096 169.231V169.092ZM15.2969 169.317C15.2969 170.649 15.5762 171.695 16.1348 172.454C16.7005 173.213 17.4596 173.593 18.4121 173.593C19.5938 173.593 20.4961 173.07 21.1191 172.024V166.331C20.4889 165.307 19.5938 164.795 18.4336 164.795C17.474 164.795 16.7113 165.178 16.1455 165.944C15.5798 166.703 15.2969 167.828 15.2969 169.317ZM33.4727 173.851C32.6992 174.76 31.5641 175.215 30.0674 175.215C28.8285 175.215 27.8831 174.857 27.2314 174.141C26.5869 173.417 26.2611 172.35 26.2539 170.939V163.377H28.2412V170.886C28.2412 172.647 28.9574 173.528 30.3896 173.528C31.9079 173.528 32.9176 172.963 33.4189 171.831V163.377H35.4062V175H33.5156L33.4727 173.851ZM40.5947 175H38.6074V163.377H40.5947V175ZM38.4463 160.294C38.4463 159.972 38.543 159.7 38.7363 159.478C38.9368 159.256 39.2305 159.145 39.6172 159.145C40.0039 159.145 40.2975 159.256 40.498 159.478C40.6986 159.7 40.7988 159.972 40.7988 160.294C40.7988 160.616 40.6986 160.885 40.498 161.1C40.2975 161.314 40.0039 161.422 39.6172 161.422C39.2305 161.422 38.9368 161.314 38.7363 161.1C38.543 160.885 38.4463 160.616 38.4463 160.294ZM47.6201 172.304L50.499 163.377H52.5293L48.3613 175H46.8467L42.6357 163.377H44.666L47.6201 172.304ZM61.4453 175C61.3307 174.771 61.2376 174.363 61.166 173.775C60.2422 174.735 59.1393 175.215 57.8574 175.215C56.7116 175.215 55.7699 174.893 55.0322 174.248C54.3018 173.596 53.9365 172.773 53.9365 171.777C53.9365 170.567 54.3949 169.629 55.3115 168.963C56.2354 168.29 57.5316 167.953 59.2002 167.953H61.1338V167.04C61.1338 166.345 60.9261 165.794 60.5107 165.386C60.0954 164.97 59.4831 164.763 58.6738 164.763C57.9648 164.763 57.3704 164.942 56.8906 165.3C56.4108 165.658 56.1709 166.091 56.1709 166.6H54.1729C54.1729 166.02 54.377 165.461 54.7852 164.924C55.2005 164.38 55.7591 163.95 56.4609 163.635C57.1699 163.32 57.9469 163.162 58.792 163.162C60.1312 163.162 61.1803 163.499 61.9395 164.172C62.6986 164.838 63.0924 165.758 63.1211 166.933V172.282C63.1211 173.349 63.2572 174.198 63.5293 174.828V175H61.4453ZM58.1475 173.485C58.7705 173.485 59.3613 173.324 59.9199 173.002C60.4785 172.68 60.8831 172.261 61.1338 171.745V169.36H59.5762C57.1413 169.36 55.9238 170.073 55.9238 171.498C55.9238 172.121 56.1315 172.608 56.5469 172.959C56.9622 173.31 57.4958 173.485 58.1475 173.485ZM68.3955 175H66.4082V158.5H68.3955V175ZM76.4092 175.215C74.8337 175.215 73.5518 174.699 72.5635 173.668C71.5752 172.63 71.0811 171.244 71.0811 169.511V169.146C71.0811 167.993 71.2995 166.965 71.7363 166.062C72.1803 165.153 72.7962 164.444 73.584 163.936C74.3789 163.42 75.2383 163.162 76.1621 163.162C77.6732 163.162 78.8477 163.66 79.6855 164.655C80.5234 165.651 80.9424 167.076 80.9424 168.931V169.758H73.0684C73.097 170.904 73.43 171.831 74.0674 172.54C74.7119 173.242 75.5283 173.593 76.5166 173.593C77.2184 173.593 77.8128 173.45 78.2998 173.163C78.7868 172.877 79.2129 172.497 79.5781 172.024L80.792 172.97C79.818 174.466 78.3571 175.215 76.4092 175.215ZM76.1621 164.795C75.36 164.795 74.6868 165.089 74.1426 165.676C73.5983 166.256 73.2617 167.072 73.1328 168.125H78.9551V167.975C78.8978 166.965 78.6257 166.184 78.1387 165.633C77.6517 165.074 76.9928 164.795 76.1621 164.795ZM85.1318 163.377L85.1963 164.838C86.0843 163.721 87.2445 163.162 88.6768 163.162C91.1331 163.162 92.3721 164.548 92.3936 167.319V175H90.4062V167.309C90.3991 166.471 90.2057 165.851 89.8262 165.45C89.4538 165.049 88.8701 164.849 88.0752 164.849C87.4307 164.849 86.8649 165.021 86.3779 165.364C85.891 165.708 85.5114 166.159 85.2393 166.718V175H83.252V163.377H85.1318ZM98.0869 160.562V163.377H100.257V164.913H98.0869V172.121C98.0869 172.587 98.1836 172.938 98.377 173.174C98.5703 173.403 98.8997 173.518 99.3652 173.518C99.5944 173.518 99.9095 173.475 100.311 173.389V175C99.7878 175.143 99.2793 175.215 98.7852 175.215C97.8971 175.215 97.2275 174.946 96.7764 174.409C96.3252 173.872 96.0996 173.109 96.0996 172.121V164.913H93.9834V163.377H96.0996V160.562H98.0869ZM111.729 170.069L112.03 172.132L112.471 170.273L115.564 159.359H117.305L120.323 170.273L120.753 172.164L121.086 170.059L123.514 159.359H125.587L121.795 175H119.915L116.692 163.603L116.445 162.41L116.198 163.603L112.857 175H110.978L107.196 159.359H109.259L111.729 170.069ZM129.733 175H127.746V163.377H129.733V175ZM127.585 160.294C127.585 159.972 127.682 159.7 127.875 159.478C128.076 159.256 128.369 159.145 128.756 159.145C129.143 159.145 129.436 159.256 129.637 159.478C129.837 159.7 129.938 159.972 129.938 160.294C129.938 160.616 129.837 160.885 129.637 161.1C129.436 161.314 129.143 161.422 128.756 161.422C128.369 161.422 128.076 161.314 127.875 161.1C127.682 160.885 127.585 160.616 127.585 160.294ZM134.804 163.377L134.868 164.838C135.756 163.721 136.916 163.162 138.349 163.162C140.805 163.162 142.044 164.548 142.065 167.319V175H140.078V167.309C140.071 166.471 139.878 165.851 139.498 165.45C139.126 165.049 138.542 164.849 137.747 164.849C137.103 164.849 136.537 165.021 136.05 165.364C135.563 165.708 135.183 166.159 134.911 166.718V175H132.924V163.377H134.804ZM144.579 169.092C144.579 167.309 145.002 165.876 145.847 164.795C146.692 163.706 147.798 163.162 149.166 163.162C150.527 163.162 151.604 163.628 152.399 164.559V158.5H154.387V175H152.561L152.464 173.754C151.669 174.728 150.562 175.215 149.145 175.215C147.798 175.215 146.699 174.663 145.847 173.561C145.002 172.458 144.579 171.018 144.579 169.242V169.092ZM146.566 169.317C146.566 170.635 146.839 171.666 147.383 172.411C147.927 173.156 148.679 173.528 149.639 173.528C150.899 173.528 151.819 172.963 152.399 171.831V166.492C151.805 165.396 150.892 164.849 149.66 164.849C148.686 164.849 147.927 165.225 147.383 165.977C146.839 166.729 146.566 167.842 146.566 169.317ZM156.954 169.081C156.954 167.942 157.176 166.918 157.62 166.009C158.071 165.099 158.694 164.397 159.489 163.903C160.291 163.409 161.204 163.162 162.229 163.162C163.811 163.162 165.09 163.71 166.063 164.806C167.045 165.901 167.535 167.359 167.535 169.178V169.317C167.535 170.449 167.317 171.466 166.88 172.368C166.45 173.263 165.831 173.962 165.021 174.463C164.219 174.964 163.296 175.215 162.25 175.215C160.674 175.215 159.396 174.667 158.415 173.571C157.441 172.476 156.954 171.025 156.954 169.221V169.081ZM158.952 169.317C158.952 170.606 159.249 171.641 159.844 172.422C160.445 173.202 161.247 173.593 162.25 173.593C163.26 173.593 164.062 173.199 164.656 172.411C165.251 171.616 165.548 170.506 165.548 169.081C165.548 167.806 165.243 166.775 164.635 165.987C164.033 165.192 163.231 164.795 162.229 164.795C161.247 164.795 160.456 165.185 159.854 165.966C159.253 166.746 158.952 167.864 158.952 169.317ZM180.318 172.261L182.553 163.377H184.54L181.156 175H179.545L176.72 166.191L173.97 175H172.358L168.985 163.377H170.962L173.25 172.078L175.957 163.377H177.558L180.318 172.261ZM193.338 171.917C193.338 171.38 193.134 170.965 192.726 170.671C192.325 170.37 191.619 170.112 190.609 169.897C189.607 169.683 188.808 169.425 188.214 169.124C187.627 168.823 187.19 168.465 186.903 168.05C186.624 167.634 186.484 167.14 186.484 166.567C186.484 165.615 186.885 164.809 187.688 164.15C188.497 163.492 189.528 163.162 190.781 163.162C192.099 163.162 193.166 163.502 193.982 164.183C194.806 164.863 195.218 165.733 195.218 166.793H193.22C193.22 166.249 192.987 165.78 192.521 165.386C192.063 164.992 191.483 164.795 190.781 164.795C190.058 164.795 189.492 164.952 189.084 165.268C188.676 165.583 188.472 165.994 188.472 166.503C188.472 166.983 188.661 167.344 189.041 167.588C189.421 167.831 190.104 168.064 191.093 168.286C192.088 168.508 192.894 168.773 193.51 169.081C194.126 169.389 194.58 169.761 194.874 170.198C195.175 170.628 195.325 171.154 195.325 171.777C195.325 172.816 194.91 173.65 194.079 174.28C193.248 174.903 192.171 175.215 190.846 175.215C189.915 175.215 189.091 175.05 188.375 174.721C187.659 174.391 187.097 173.933 186.688 173.346C186.287 172.751 186.087 172.11 186.087 171.423H188.074C188.11 172.089 188.375 172.619 188.869 173.013C189.37 173.399 190.029 173.593 190.846 173.593C191.598 173.593 192.199 173.442 192.65 173.142C193.109 172.834 193.338 172.425 193.338 171.917ZM203.683 175V159.359H208.098C209.458 159.359 210.661 159.66 211.707 160.262C212.753 160.863 213.558 161.719 214.124 162.829C214.697 163.939 214.987 165.214 214.994 166.653V167.652C214.994 169.128 214.708 170.42 214.135 171.53C213.569 172.64 212.756 173.493 211.696 174.087C210.644 174.681 209.415 174.986 208.012 175H203.683ZM205.745 161.057V173.313H207.915C209.505 173.313 210.74 172.819 211.621 171.831C212.509 170.843 212.953 169.436 212.953 167.609V166.696C212.953 164.92 212.534 163.542 211.696 162.561C210.866 161.572 209.684 161.071 208.151 161.057H205.745ZM222.632 175.215C221.056 175.215 219.774 174.699 218.786 173.668C217.798 172.63 217.304 171.244 217.304 169.511V169.146C217.304 167.993 217.522 166.965 217.959 166.062C218.403 165.153 219.019 164.444 219.807 163.936C220.602 163.42 221.461 163.162 222.385 163.162C223.896 163.162 225.07 163.66 225.908 164.655C226.746 165.651 227.165 167.076 227.165 168.931V169.758H219.291C219.32 170.904 219.653 171.831 220.29 172.54C220.935 173.242 221.751 173.593 222.739 173.593C223.441 173.593 224.035 173.45 224.522 173.163C225.009 172.877 225.436 172.497 225.801 172.024L227.015 172.97C226.041 174.466 224.58 175.215 222.632 175.215ZM222.385 164.795C221.583 164.795 220.91 165.089 220.365 165.676C219.821 166.256 219.484 167.072 219.355 168.125H225.178V167.975C225.12 166.965 224.848 166.184 224.361 165.633C223.874 165.074 223.215 164.795 222.385 164.795ZM236.242 171.917C236.242 171.38 236.038 170.965 235.63 170.671C235.229 170.37 234.523 170.112 233.514 169.897C232.511 169.683 231.713 169.425 231.118 169.124C230.531 168.823 230.094 168.465 229.808 168.05C229.528 167.634 229.389 167.14 229.389 166.567C229.389 165.615 229.79 164.809 230.592 164.15C231.401 163.492 232.432 163.162 233.686 163.162C235.003 163.162 236.07 163.502 236.887 164.183C237.71 164.863 238.122 165.733 238.122 166.793H236.124C236.124 166.249 235.891 165.78 235.426 165.386C234.967 164.992 234.387 164.795 233.686 164.795C232.962 164.795 232.396 164.952 231.988 165.268C231.58 165.583 231.376 165.994 231.376 166.503C231.376 166.983 231.566 167.344 231.945 167.588C232.325 167.831 233.009 168.064 233.997 168.286C234.993 168.508 235.798 168.773 236.414 169.081C237.03 169.389 237.485 169.761 237.778 170.198C238.079 170.628 238.229 171.154 238.229 171.777C238.229 172.816 237.814 173.65 236.983 174.28C236.153 174.903 235.075 175.215 233.75 175.215C232.819 175.215 231.995 175.05 231.279 174.721C230.563 174.391 230.001 173.933 229.593 173.346C229.192 172.751 228.991 172.11 228.991 171.423H230.979C231.014 172.089 231.279 172.619 231.773 173.013C232.275 173.399 232.934 173.593 233.75 173.593C234.502 173.593 235.104 173.442 235.555 173.142C236.013 172.834 236.242 172.425 236.242 171.917ZM244.062 169.618L242.816 170.918V175H240.829V158.5H242.816V168.479L243.88 167.201L247.5 163.377H249.917L245.395 168.232L250.443 175H248.112L244.062 169.618ZM254.665 160.562V163.377H256.835V164.913H254.665V172.121C254.665 172.587 254.762 172.938 254.955 173.174C255.148 173.403 255.478 173.518 255.943 173.518C256.173 173.518 256.488 173.475 256.889 173.389V175C256.366 175.143 255.857 175.215 255.363 175.215C254.475 175.215 253.806 174.946 253.354 174.409C252.903 173.872 252.678 173.109 252.678 172.121V164.913H250.562V163.377H252.678V160.562H254.665ZM258.425 169.081C258.425 167.942 258.647 166.918 259.091 166.009C259.542 165.099 260.165 164.397 260.96 163.903C261.762 163.409 262.675 163.162 263.699 163.162C265.282 163.162 266.56 163.71 267.534 164.806C268.515 165.901 269.006 167.359 269.006 169.178V169.317C269.006 170.449 268.787 171.466 268.351 172.368C267.921 173.263 267.301 173.962 266.492 174.463C265.69 174.964 264.766 175.215 263.721 175.215C262.145 175.215 260.867 174.667 259.886 173.571C258.912 172.476 258.425 171.025 258.425 169.221V169.081ZM260.423 169.317C260.423 170.606 260.72 171.641 261.314 172.422C261.916 173.202 262.718 173.593 263.721 173.593C264.73 173.593 265.533 173.199 266.127 172.411C266.721 171.616 267.019 170.506 267.019 169.081C267.019 167.806 266.714 166.775 266.105 165.987C265.504 165.192 264.702 164.795 263.699 164.795C262.718 164.795 261.927 165.185 261.325 165.966C260.724 166.746 260.423 167.864 260.423 169.317ZM281.316 169.317C281.316 171.086 280.912 172.511 280.103 173.593C279.293 174.674 278.198 175.215 276.815 175.215C275.405 175.215 274.295 174.767 273.485 173.872V179.469H271.498V163.377H273.313L273.41 164.666C274.219 163.663 275.344 163.162 276.783 163.162C278.18 163.162 279.283 163.688 280.092 164.741C280.908 165.794 281.316 167.258 281.316 169.135V169.317ZM279.329 169.092C279.329 167.781 279.05 166.746 278.491 165.987C277.933 165.228 277.166 164.849 276.192 164.849C274.989 164.849 274.087 165.382 273.485 166.449V172.003C274.08 173.063 274.989 173.593 276.214 173.593C277.166 173.593 277.922 173.217 278.48 172.465C279.046 171.706 279.329 170.581 279.329 169.092ZM299.6 172.261L301.834 163.377H303.821L300.438 175H298.826L296.001 166.191L293.251 175H291.64L288.267 163.377H290.243L292.531 172.078L295.238 163.377H296.839L299.6 172.261ZM308.011 175H306.023V163.377H308.011V175ZM305.862 160.294C305.862 159.972 305.959 159.7 306.152 159.478C306.353 159.256 306.646 159.145 307.033 159.145C307.42 159.145 307.714 159.256 307.914 159.478C308.115 159.7 308.215 159.972 308.215 160.294C308.215 160.616 308.115 160.885 307.914 161.1C307.714 161.314 307.42 161.422 307.033 161.422C306.646 161.422 306.353 161.314 306.152 161.1C305.959 160.885 305.862 160.616 305.862 160.294ZM313.897 160.562V163.377H316.067V164.913H313.897V172.121C313.897 172.587 313.994 172.938 314.188 173.174C314.381 173.403 314.71 173.518 315.176 173.518C315.405 173.518 315.72 173.475 316.121 173.389V175C315.598 175.143 315.09 175.215 314.596 175.215C313.708 175.215 313.038 174.946 312.587 174.409C312.136 173.872 311.91 173.109 311.91 172.121V164.913H309.794V163.377H311.91V160.562H313.897ZM320.386 164.784C321.267 163.703 322.412 163.162 323.823 163.162C326.28 163.162 327.519 164.548 327.54 167.319V175H325.553V167.309C325.546 166.471 325.352 165.851 324.973 165.45C324.6 165.049 324.017 164.849 323.222 164.849C322.577 164.849 322.011 165.021 321.524 165.364C321.037 165.708 320.658 166.159 320.386 166.718V175H318.398V158.5H320.386V164.784ZM348.305 175H346.231L338.357 162.947V175H336.284V159.359H338.357L346.253 171.466V159.359H348.305V175ZM357.146 172.261L361.614 159.359H363.87L358.069 175H356.243L350.453 159.359H352.698L357.146 172.261ZM368.188 175H366.126V159.359H368.188V175ZM371.97 175V159.359H376.385C377.745 159.359 378.949 159.66 379.994 160.262C381.04 160.863 381.845 161.719 382.411 162.829C382.984 163.939 383.274 165.214 383.281 166.653V167.652C383.281 169.128 382.995 170.42 382.422 171.53C381.856 172.64 381.043 173.493 379.983 174.087C378.931 174.681 377.702 174.986 376.299 175H371.97ZM374.032 161.057V173.313H376.202C377.792 173.313 379.027 172.819 379.908 171.831C380.796 170.843 381.24 169.436 381.24 167.609V166.696C381.24 164.92 380.821 163.542 379.983 162.561C379.153 161.572 377.971 161.071 376.438 161.057H374.032ZM388.62 175H386.558V159.359H388.62V175ZM401.231 170.918H394.679L393.207 175H391.08L397.053 159.359H398.857L404.841 175H402.725L401.231 170.918ZM395.302 169.221H400.619L397.955 161.905L395.302 169.221ZM415.067 159.359L420.181 172.121L425.294 159.359H427.969V175H425.906V168.909L426.1 162.335L420.965 175H419.386L414.262 162.367L414.466 168.909V175H412.403V159.359H415.067ZM438.894 159.349V161.035H438.528C436.981 161.064 435.75 161.522 434.833 162.41C433.916 163.298 433.386 164.548 433.243 166.159C434.067 165.214 435.191 164.741 436.616 164.741C437.977 164.741 439.062 165.221 439.871 166.181C440.688 167.14 441.096 168.379 441.096 169.897C441.096 171.509 440.655 172.798 439.774 173.765C438.901 174.731 437.726 175.215 436.251 175.215C434.754 175.215 433.54 174.642 432.609 173.496C431.678 172.343 431.213 170.861 431.213 169.049V168.286C431.213 165.407 431.825 163.209 433.05 161.69C434.282 160.165 436.111 159.384 438.539 159.349H438.894ZM436.283 166.396C435.603 166.396 434.976 166.6 434.403 167.008C433.83 167.416 433.433 167.928 433.211 168.544V169.274C433.211 170.563 433.501 171.602 434.081 172.39C434.661 173.177 435.384 173.571 436.251 173.571C437.146 173.571 437.848 173.242 438.356 172.583C438.872 171.924 439.13 171.061 439.13 169.994C439.13 168.92 438.868 168.053 438.346 167.395C437.83 166.729 437.143 166.396 436.283 166.396ZM453.256 168.329C453.256 170.657 452.858 172.386 452.063 173.518C451.269 174.649 450.026 175.215 448.336 175.215C446.667 175.215 445.432 174.663 444.63 173.561C443.828 172.451 443.412 170.796 443.384 168.598V165.944C443.384 163.646 443.781 161.938 444.576 160.82C445.371 159.703 446.617 159.145 448.314 159.145C449.997 159.145 451.236 159.685 452.031 160.767C452.826 161.841 453.234 163.502 453.256 165.751V168.329ZM451.269 165.611C451.269 163.928 451.032 162.704 450.56 161.938C450.087 161.164 449.339 160.777 448.314 160.777C447.298 160.777 446.556 161.16 446.091 161.927C445.625 162.693 445.385 163.871 445.371 165.461V168.641C445.371 170.331 445.615 171.58 446.102 172.39C446.596 173.192 447.34 173.593 448.336 173.593C449.317 173.593 450.044 173.213 450.517 172.454C450.996 171.695 451.247 170.499 451.269 168.866V165.611ZM473.322 172.948C472.792 173.707 472.051 174.277 471.099 174.656C470.153 175.029 469.05 175.215 467.79 175.215C466.515 175.215 465.384 174.918 464.396 174.323C463.407 173.722 462.641 172.869 462.097 171.767C461.56 170.664 461.284 169.385 461.27 167.932V166.567C461.27 164.211 461.817 162.385 462.913 161.089C464.016 159.793 465.563 159.145 467.554 159.145C469.187 159.145 470.501 159.563 471.496 160.401C472.492 161.232 473.1 162.414 473.322 163.946H471.26C470.873 161.877 469.641 160.842 467.564 160.842C466.182 160.842 465.133 161.329 464.417 162.303C463.708 163.27 463.35 164.673 463.343 166.514V167.792C463.343 169.547 463.744 170.943 464.546 171.981C465.348 173.013 466.433 173.528 467.801 173.528C468.574 173.528 469.251 173.442 469.831 173.271C470.411 173.099 470.891 172.809 471.271 172.4V168.888H467.65V167.212H473.322V172.948ZM478.833 168.877V175H476.771V159.359H482.539C484.251 159.359 485.59 159.796 486.557 160.67C487.531 161.544 488.018 162.7 488.018 164.14C488.018 165.658 487.541 166.829 486.589 167.652C485.644 168.469 484.286 168.877 482.518 168.877H478.833ZM478.833 167.19H482.539C483.642 167.19 484.487 166.933 485.074 166.417C485.661 165.894 485.955 165.142 485.955 164.161C485.955 163.23 485.661 162.485 485.074 161.927C484.487 161.368 483.681 161.078 482.657 161.057H478.833V167.19ZM501.66 159.359V169.994C501.653 171.469 501.188 172.676 500.264 173.614C499.347 174.552 498.101 175.079 496.525 175.193L495.978 175.215C494.266 175.215 492.902 174.753 491.885 173.829C490.868 172.905 490.352 171.634 490.338 170.016V159.359H492.379V169.951C492.379 171.083 492.69 171.964 493.313 172.594C493.937 173.217 494.825 173.528 495.978 173.528C497.145 173.528 498.036 173.217 498.652 172.594C499.275 171.971 499.587 171.093 499.587 169.962V159.359H501.66Z" fill="white"/>
<rect width="181" height="20" fill="url(#paint0_linear)"/>
<rect y="123" width="1005" height="20" fill="url(#paint1_linear)"/>
<defs>
<linearGradient id="paint0_linear" x1="0" y1="0" x2="178.136" y2="34.703" gradientUnits="userSpaceOnUse">
<stop stop-color="#D217E3"/>
<stop offset="1" stop-color="#B532F2"/>
</linearGradient>
<linearGradient id="paint1_linear" x1="12" y1="133.001" x2="1005" y2="133" gradientUnits="userSpaceOnUse">
<stop stop-color="#5EC3EB"/>
<stop offset="1" stop-color="#3197F4"/>
</linearGradient>
</defs>
</svg>
