<svg width="627" height="648" viewBox="0 0 627 648" fill="none" xmlns="http://www.w3.org/2000/svg">
<line y1="-2.5" x2="84.8028" y2="-2.5" transform="matrix(0.751164 -0.660116 -0.848689 -0.528892 6.82513 600.859)" stroke="#ECECEC" stroke-width="5"/>
<line y1="-2.5" x2="125.611" y2="-2.5" transform="matrix(-0.624854 -0.780742 -0.915887 0.401437 149.014 642.949)" stroke="#ECECEC" stroke-width="5"/>
<line y1="-2.5" x2="258.097" y2="-2.5" transform="matrix(0.376826 -0.926284 -0.976069 -0.21746 149.014 642.949)" stroke="#ECECEC" stroke-width="5"/>
<line y1="-2.5" x2="199.688" y2="-2.5" transform="matrix(-0.954157 -0.299306 -0.497026 0.867736 436.805 463.646)" stroke="#ECECEC" stroke-width="5"/>
<path d="M574.16 416.926L508.594 363.113L438.069 464.129M574.16 416.926L508.594 363.113" stroke="#ECECEC" stroke-width="5"/>
<ellipse rx="7.29681" ry="5.0672" transform="matrix(1 0 0 -1 149.064 642.933)" fill="#ECECEC"/>
<ellipse rx="6.77562" ry="5.06721" transform="matrix(1 0 0 -1 70.3622 544.707)" fill="#ECECEC"/>
<ellipse rx="6.77562" ry="5.0672" transform="matrix(1 0 0 -1 6.77562 600.836)" fill="#ECECEC"/>
<path d="M256.431 402.024C256.431 399.237 253.375 396.978 249.605 396.978C245.835 396.978 242.778 399.237 242.778 402.024C242.778 404.811 245.835 407.07 249.605 407.07C253.375 407.07 256.431 404.811 256.431 402.024Z" fill="#ECECEC"/>
<path d="M77.2393 544.729C77.2393 541.942 74.183 539.683 70.4129 539.683C66.6428 539.683 63.5865 541.942 63.5865 544.729C63.5865 547.515 66.6428 549.774 70.4129 549.774C74.183 549.774 77.2393 547.515 77.2393 544.729Z" fill="#ECECEC"/>
<path d="M445.106 463.632C445.106 460.833 442.072 458.565 438.33 458.565C434.588 458.565 431.555 460.833 431.555 463.632C431.555 466.43 434.588 468.699 438.33 468.699C442.072 468.699 445.106 466.43 445.106 463.632Z" fill="#ECECEC"/>
<path d="M582.703 418.417C582.703 415.618 579.67 413.349 575.928 413.349C572.186 413.349 569.152 415.618 569.152 418.417C569.152 421.215 572.186 423.484 575.928 423.484C579.67 423.484 582.703 421.215 582.703 418.417Z" fill="#ECECEC"/>
<path d="M513.905 363.067C513.905 360.269 510.871 358 507.129 358C503.387 358 500.353 360.269 500.353 363.067C500.353 365.866 503.387 368.134 507.129 368.134C510.871 368.134 513.905 365.866 513.905 363.067Z" fill="#ECECEC"/>
<g filter="url(#filter0_d)">
<rect x="98" y="115" width="318" height="94" rx="30" fill="#7AD5D5"/>
<path d="M136 250.5L178.435 209H136L136 250.5Z" fill="#7AD4D4"/>
<path d="M150.848 145.835C153.578 145.835 155.643 146.92 157.043 149.09C158.443 151.26 159.143 153.99 159.143 157.28C159.143 160.57 158.326 163.568 156.693 166.275C155.083 168.958 153.216 170.3 151.093 170.3C149.6 170.3 148.503 169.46 147.803 167.78C147.103 166.1 146.648 163.708 146.438 160.605C145.458 161.982 144.338 163.545 143.078 165.295C140.651 168.655 138.948 170.335 137.968 170.335C137.595 170.335 137.163 170.032 136.673 169.425C136.183 168.818 135.938 168.06 135.938 167.15C135.938 166.217 136.253 163.335 136.883 158.505C137.513 153.652 137.828 149.872 137.828 147.165C137.828 146.302 138.085 145.87 138.598 145.87C139.111 145.87 139.706 146.173 140.383 146.78C141.083 147.387 141.433 147.947 141.433 148.46C141.433 148.95 141.036 151.412 140.243 155.845C139.473 160.278 138.995 163.755 138.808 166.275C140.231 163.872 141.83 161.655 143.603 159.625C145.4 157.572 146.683 156.545 147.453 156.545C148.246 156.545 148.795 158.295 149.098 161.795C149.215 163.102 149.436 164.303 149.763 165.4C150.113 166.497 150.58 167.045 151.163 167.045C152.47 167.045 153.601 165.995 154.558 163.895C155.538 161.772 156.028 159.427 156.028 156.86C156.028 154.013 155.398 151.82 154.138 150.28C153.485 149.463 152.761 149.055 151.968 149.055C151.198 149.055 150.533 148.787 149.973 148.25C149.436 147.713 149.168 147.247 149.168 146.85C149.168 146.173 149.728 145.835 150.848 145.835ZM179.346 158.925C179.346 160.162 178.669 161.177 177.316 161.97C175.986 162.74 174.469 163.125 172.766 163.125C171.086 163.125 169.558 162.938 168.181 162.565C167.854 163.592 167.691 164.513 167.691 165.33C167.691 166.123 167.936 166.742 168.426 167.185C168.939 167.628 169.768 167.85 170.911 167.85C172.078 167.85 173.268 167.652 174.481 167.255C175.718 166.835 176.394 166.625 176.511 166.625C177.118 166.625 177.421 166.858 177.421 167.325C177.421 167.955 176.709 168.643 175.286 169.39C173.863 170.113 172.474 170.475 171.121 170.475C169.301 170.475 167.819 169.938 166.676 168.865C165.533 167.768 164.961 166.392 164.961 164.735C164.961 163.078 165.404 161.352 166.291 159.555C167.178 157.735 168.321 156.207 169.721 154.97C171.121 153.733 172.509 153.115 173.886 153.115C175.263 153.115 176.511 153.768 177.631 155.075C178.774 156.382 179.346 157.665 179.346 158.925ZM174.061 155.88C173.198 155.88 172.299 156.335 171.366 157.245C170.433 158.132 169.639 159.24 168.986 160.57C169.919 160.78 170.981 160.885 172.171 160.885C173.361 160.885 174.399 160.698 175.286 160.325C176.173 159.928 176.616 159.415 176.616 158.785C176.616 158.155 176.324 157.513 175.741 156.86C175.181 156.207 174.621 155.88 174.061 155.88ZM191.533 146.255C191.533 150.642 190.623 156.335 188.803 163.335C187.636 168.095 186.819 170.475 186.353 170.475C186.026 170.475 185.641 170.218 185.198 169.705C184.778 169.192 184.568 168.795 184.568 168.515C184.568 168.235 184.906 166.788 185.583 164.175C186.259 161.562 186.936 158.353 187.613 154.55C188.289 150.723 188.628 147.282 188.628 144.225C188.628 143.898 188.674 143.665 188.768 143.525C188.861 143.385 189.059 143.315 189.363 143.315C189.666 143.315 190.098 143.653 190.658 144.33C191.241 144.983 191.533 145.625 191.533 146.255ZM203.612 146.255C203.612 150.642 202.702 156.335 200.882 163.335C199.715 168.095 198.899 170.475 198.432 170.475C198.105 170.475 197.72 170.218 197.277 169.705C196.857 169.192 196.647 168.795 196.647 168.515C196.647 168.235 196.985 166.788 197.662 164.175C198.339 161.562 199.015 158.353 199.692 154.55C200.369 150.723 200.707 147.282 200.707 144.225C200.707 143.898 200.754 143.665 200.847 143.525C200.94 143.385 201.139 143.315 201.442 143.315C201.745 143.315 202.177 143.653 202.737 144.33C203.32 144.983 203.612 145.625 203.612 146.255ZM240.309 158.925C240.309 160.162 239.632 161.177 238.279 161.97C236.949 162.74 235.432 163.125 233.729 163.125C232.049 163.125 230.52 162.938 229.144 162.565C228.817 163.592 228.654 164.513 228.654 165.33C228.654 166.123 228.899 166.742 229.389 167.185C229.902 167.628 230.73 167.85 231.874 167.85C233.04 167.85 234.23 167.652 235.444 167.255C236.68 166.835 237.357 166.625 237.474 166.625C238.08 166.625 238.384 166.858 238.384 167.325C238.384 167.955 237.672 168.643 236.249 169.39C234.825 170.113 233.437 170.475 232.084 170.475C230.264 170.475 228.782 169.938 227.639 168.865C226.495 167.768 225.924 166.392 225.924 164.735C225.924 163.078 226.367 161.352 227.254 159.555C228.14 157.735 229.284 156.207 230.684 154.97C232.084 153.733 233.472 153.115 234.849 153.115C236.225 153.115 237.474 153.768 238.594 155.075C239.737 156.382 240.309 157.665 240.309 158.925ZM235.024 155.88C234.16 155.88 233.262 156.335 232.329 157.245C231.395 158.132 230.602 159.24 229.949 160.57C230.882 160.78 231.944 160.885 233.134 160.885C234.324 160.885 235.362 160.698 236.249 160.325C237.135 159.928 237.579 159.415 237.579 158.785C237.579 158.155 237.287 157.513 236.704 156.86C236.144 156.207 235.584 155.88 235.024 155.88ZM260.581 143.315C260.954 143.315 261.409 143.665 261.946 144.365C262.506 145.042 262.786 145.683 262.786 146.29C262.786 146.897 262.494 148.623 261.911 151.47C261.327 154.293 260.651 157.222 259.881 160.255C258.201 167.068 257.092 170.475 256.556 170.475C256.229 170.475 255.867 170.277 255.471 169.88C255.097 169.46 254.911 169.098 254.911 168.795C254.911 168.492 254.992 167.885 255.156 166.975C252.869 169.308 250.874 170.475 249.171 170.475C248.144 170.475 247.211 170.008 246.371 169.075C245.554 168.142 245.146 167.173 245.146 166.17C245.146 164.723 245.531 163.008 246.301 161.025C247.094 159.018 248.226 157.198 249.696 155.565C251.166 153.932 252.729 153.115 254.386 153.115C256.042 153.115 257.197 154.107 257.851 156.09C259.041 151.143 259.694 147.235 259.811 144.365C259.811 143.665 260.067 143.315 260.581 143.315ZM256.731 160.5C256.731 159.24 256.509 158.178 256.066 157.315C255.646 156.452 255.132 156.02 254.526 156.02C253.522 156.02 252.496 156.638 251.446 157.875C250.396 159.112 249.556 160.535 248.926 162.145C248.319 163.732 248.016 165.108 248.016 166.275C248.016 166.695 248.167 167.033 248.471 167.29C248.774 167.547 249.136 167.675 249.556 167.675C250.466 167.675 251.691 167.022 253.231 165.715C254.794 164.408 255.926 162.868 256.626 161.095L256.731 160.675V160.5ZM278.956 154.095C279.05 153.722 279.143 153.465 279.236 153.325C279.33 153.185 279.528 153.115 279.831 153.115C280.158 153.115 280.543 153.418 280.986 154.025C281.453 154.632 281.686 155.215 281.686 155.775C281.686 156.078 281.173 157.875 280.146 161.165C279.12 164.455 278.326 167.068 277.766 169.005C277.486 169.985 277.09 170.475 276.576 170.475C276.273 170.475 276.016 170.347 275.806 170.09C275.596 169.833 275.491 169.367 275.491 168.69C275.491 168.013 275.76 166.788 276.296 165.015C275.316 166.602 274.255 167.908 273.111 168.935C271.968 169.962 270.918 170.475 269.961 170.475C269.028 170.475 268.141 170.032 267.301 169.145C266.461 168.258 266.041 167.348 266.041 166.415C266.041 164.198 266.683 161.433 267.966 158.12C269.273 154.783 270.358 153.115 271.221 153.115C271.641 153.115 272.003 153.313 272.306 153.71C272.633 154.083 272.796 154.515 272.796 155.005C272.796 155.215 272.481 155.973 271.851 157.28C271.221 158.563 270.591 160.08 269.961 161.83C269.331 163.557 269.016 165.073 269.016 166.38C269.016 166.753 269.133 167.068 269.366 167.325C269.6 167.558 269.88 167.675 270.206 167.675C271.093 167.675 272.143 166.893 273.356 165.33C274.593 163.767 275.713 161.947 276.716 159.87C277.72 157.793 278.466 155.868 278.956 154.095ZM292.552 170.475C291.199 170.475 289.927 169.95 288.737 168.9C287.547 167.827 286.952 166.567 286.952 165.12C286.952 163.65 287.442 161.958 288.422 160.045C289.402 158.132 290.662 156.498 292.202 155.145C293.765 153.792 295.282 153.115 296.752 153.115C297.709 153.115 298.549 153.547 299.272 154.41C299.995 155.273 300.357 156.032 300.357 156.685C300.357 156.872 300.299 157.035 300.182 157.175C300.065 157.292 299.89 157.35 299.657 157.35C299.447 157.35 299.062 157.14 298.502 156.72C297.942 156.3 297.44 156.09 296.997 156.09C295.737 156.09 294.267 157.198 292.587 159.415C290.907 161.632 290.067 163.568 290.067 165.225C290.067 165.948 290.289 166.52 290.732 166.94C291.199 167.36 291.934 167.57 292.937 167.57C293.964 167.57 294.897 167.453 295.737 167.22C296.6 166.963 297.265 166.718 297.732 166.485C298.199 166.228 298.56 166.1 298.817 166.1C299.26 166.1 299.482 166.322 299.482 166.765C299.482 167.442 298.665 168.235 297.032 169.145C295.422 170.032 293.929 170.475 292.552 170.475ZM315.313 153.115C316.363 153.115 317.331 153.652 318.218 154.725C319.105 155.775 319.548 156.732 319.548 157.595C319.548 158.435 319.256 159.298 318.673 160.185C318.953 160.535 319.093 160.838 319.093 161.095C319.093 161.748 318.941 162.868 318.638 164.455C318.358 166.042 318.183 167.08 318.113 167.57C318.066 168.06 318.02 168.457 317.973 168.76C317.926 169.04 317.868 169.32 317.798 169.6C317.705 170.183 317.495 170.475 317.168 170.475C316.748 170.475 316.398 170.113 316.118 169.39C315.861 168.643 315.71 167.687 315.663 166.52C313.586 169.157 311.661 170.475 309.888 170.475C308.815 170.475 307.753 170.02 306.703 169.11C305.676 168.177 305.163 167.22 305.163 166.24C305.163 164.84 305.676 163.113 306.703 161.06C307.73 158.983 309.06 157.14 310.693 155.53C312.326 153.92 313.866 153.115 315.313 153.115ZM316.923 159.275C316.923 157.105 316.491 156.02 315.628 156.02C314.718 156.02 313.656 156.673 312.443 157.98C311.23 159.263 310.203 160.722 309.363 162.355C308.523 163.988 308.103 165.283 308.103 166.24C308.103 166.637 308.266 166.963 308.593 167.22C308.92 167.453 309.305 167.57 309.748 167.57C310.845 167.57 312.081 166.835 313.458 165.365C314.835 163.872 315.791 162.063 316.328 159.94C316.398 159.59 316.596 159.38 316.923 159.31V159.275ZM329.829 166.975C329.829 167.418 330.086 167.64 330.599 167.64C331.486 167.64 332.559 167.395 333.819 166.905C335.103 166.392 335.814 166.135 335.954 166.135C336.374 166.135 336.584 166.357 336.584 166.8C336.584 167.477 335.884 168.258 334.484 169.145C333.108 170.032 331.848 170.475 330.704 170.475C329.584 170.475 328.651 170.172 327.904 169.565C327.158 168.935 326.784 168.293 326.784 167.64C326.784 166.987 326.924 166.158 327.204 165.155C327.484 164.128 327.881 162.787 328.394 161.13C328.931 159.45 329.351 158.062 329.654 156.965C328.558 157.222 327.823 157.35 327.449 157.35C327.076 157.35 326.703 157.163 326.329 156.79C325.979 156.393 325.804 156.02 325.804 155.67C325.804 155.11 327.321 154.573 330.354 154.06C330.774 152.123 330.984 150.408 330.984 148.915C330.984 148.215 331.218 147.865 331.684 147.865C332.081 147.865 332.571 148.122 333.154 148.635C333.738 149.125 334.029 149.685 334.029 150.315C334.029 150.945 333.831 152.053 333.434 153.64C334.764 153.523 335.826 153.465 336.619 153.465C338.019 153.465 338.719 153.768 338.719 154.375C338.719 154.725 338.334 155.017 337.564 155.25C336.818 155.483 335.231 155.845 332.804 156.335C332.314 158.178 331.696 160.29 330.949 162.67C330.203 165.027 329.829 166.462 329.829 166.975ZM356.909 158.925C356.909 160.162 356.233 161.177 354.879 161.97C353.549 162.74 352.033 163.125 350.329 163.125C348.649 163.125 347.121 162.938 345.744 162.565C345.418 163.592 345.254 164.513 345.254 165.33C345.254 166.123 345.499 166.742 345.989 167.185C346.503 167.628 347.331 167.85 348.474 167.85C349.641 167.85 350.831 167.652 352.044 167.255C353.281 166.835 353.958 166.625 354.074 166.625C354.681 166.625 354.984 166.858 354.984 167.325C354.984 167.955 354.273 168.643 352.849 169.39C351.426 170.113 350.038 170.475 348.684 170.475C346.864 170.475 345.383 169.938 344.239 168.865C343.096 167.768 342.524 166.392 342.524 164.735C342.524 163.078 342.968 161.352 343.854 159.555C344.741 157.735 345.884 156.207 347.284 154.97C348.684 153.733 350.073 153.115 351.449 153.115C352.826 153.115 354.074 153.768 355.194 155.075C356.338 156.382 356.909 157.665 356.909 158.925ZM351.624 155.88C350.761 155.88 349.863 156.335 348.929 157.245C347.996 158.132 347.203 159.24 346.549 160.57C347.483 160.78 348.544 160.885 349.734 160.885C350.924 160.885 351.963 160.698 352.849 160.325C353.736 159.928 354.179 159.415 354.179 158.785C354.179 158.155 353.888 157.513 353.304 156.86C352.744 156.207 352.184 155.88 351.624 155.88ZM377.181 143.315C377.555 143.315 378.01 143.665 378.546 144.365C379.106 145.042 379.386 145.683 379.386 146.29C379.386 146.897 379.095 148.623 378.511 151.47C377.928 154.293 377.251 157.222 376.481 160.255C374.801 167.068 373.693 170.475 373.156 170.475C372.83 170.475 372.468 170.277 372.071 169.88C371.698 169.46 371.511 169.098 371.511 168.795C371.511 168.492 371.593 167.885 371.756 166.975C369.47 169.308 367.475 170.475 365.771 170.475C364.745 170.475 363.811 170.008 362.971 169.075C362.155 168.142 361.746 167.173 361.746 166.17C361.746 164.723 362.131 163.008 362.901 161.025C363.695 159.018 364.826 157.198 366.296 155.565C367.766 153.932 369.33 153.115 370.986 153.115C372.643 153.115 373.798 154.107 374.451 156.09C375.641 151.143 376.295 147.235 376.411 144.365C376.411 143.665 376.668 143.315 377.181 143.315ZM373.331 160.5C373.331 159.24 373.11 158.178 372.666 157.315C372.246 156.452 371.733 156.02 371.126 156.02C370.123 156.02 369.096 156.638 368.046 157.875C366.996 159.112 366.156 160.535 365.526 162.145C364.92 163.732 364.616 165.108 364.616 166.275C364.616 166.695 364.768 167.033 365.071 167.29C365.375 167.547 365.736 167.675 366.156 167.675C367.066 167.675 368.291 167.022 369.831 165.715C371.395 164.408 372.526 162.868 373.226 161.095L373.331 160.675V160.5Z" fill="white"/>
</g>
<g filter="url(#filter1_d)">
<rect x="100" y="450" width="318" height="94" rx="30" fill="#3AA959"/>
</g>
<g filter="url(#filter2_d)">
<path d="M193.627 505.44C193.277 505.44 192.88 505.183 192.437 504.67C191.994 504.157 191.772 503.643 191.772 503.13C191.772 502.593 192.414 500.062 193.697 495.535C194.98 491.008 195.715 487.567 195.902 485.21C195.599 485.023 195.33 484.732 195.097 484.335C194.864 483.938 194.747 483.588 194.747 483.285C194.747 482.748 195.54 482.2 197.127 481.64C198.714 481.057 200.464 480.765 202.377 480.765C204.314 480.765 205.982 481.232 207.382 482.165C208.805 483.075 209.517 484.37 209.517 486.05C209.517 487.193 209.19 488.267 208.537 489.27C207.907 490.25 207.125 491.055 206.192 491.685C205.282 492.315 204.372 492.875 203.462 493.365C202.552 493.855 201.77 494.263 201.117 494.59C200.487 494.893 200.172 495.115 200.172 495.255C200.172 495.768 200.569 496.433 201.362 497.25C202.179 498.067 202.75 498.627 203.077 498.93C203.404 499.233 203.835 499.642 204.372 500.155C204.909 500.645 205.41 501.088 205.877 501.485C206.367 501.882 206.752 502.208 207.032 502.465C207.335 502.722 207.639 502.99 207.942 503.27C208.525 503.807 208.817 504.238 208.817 504.565C208.817 505.125 208.432 505.405 207.662 505.405C206.262 505.405 204.267 504.192 201.677 501.765C199.087 499.315 197.5 497.238 196.917 495.535C195.82 499.175 195.19 501.287 195.027 501.87C194.864 502.43 194.677 503.013 194.467 503.62C194.094 504.833 193.814 505.44 193.627 505.44ZM198.912 486.155C198.912 487.672 198.422 490.18 197.442 493.68C197.839 493.377 198.597 492.933 199.717 492.35C200.837 491.743 201.84 491.195 202.727 490.705C203.637 490.192 204.465 489.515 205.212 488.675C205.959 487.835 206.332 486.96 206.332 486.05C206.332 484.603 205.072 483.88 202.552 483.88C201.409 483.88 200.079 484.172 198.562 484.755C198.795 485.268 198.912 485.735 198.912 486.155ZM229.116 493.925C229.116 495.162 228.44 496.177 227.086 496.97C225.756 497.74 224.24 498.125 222.536 498.125C220.856 498.125 219.328 497.938 217.951 497.565C217.625 498.592 217.461 499.513 217.461 500.33C217.461 501.123 217.706 501.742 218.196 502.185C218.71 502.628 219.538 502.85 220.681 502.85C221.848 502.85 223.038 502.652 224.251 502.255C225.488 501.835 226.165 501.625 226.281 501.625C226.888 501.625 227.191 501.858 227.191 502.325C227.191 502.955 226.48 503.643 225.056 504.39C223.633 505.113 222.245 505.475 220.891 505.475C219.071 505.475 217.59 504.938 216.446 503.865C215.303 502.768 214.731 501.392 214.731 499.735C214.731 498.078 215.175 496.352 216.061 494.555C216.948 492.735 218.091 491.207 219.491 489.97C220.891 488.733 222.28 488.115 223.656 488.115C225.033 488.115 226.281 488.768 227.401 490.075C228.545 491.382 229.116 492.665 229.116 493.925ZM223.831 490.88C222.968 490.88 222.07 491.335 221.136 492.245C220.203 493.132 219.41 494.24 218.756 495.57C219.69 495.78 220.751 495.885 221.941 495.885C223.131 495.885 224.17 495.698 225.056 495.325C225.943 494.928 226.386 494.415 226.386 493.785C226.386 493.155 226.095 492.513 225.511 491.86C224.951 491.207 224.391 490.88 223.831 490.88ZM241.303 481.255C241.303 485.642 240.393 491.335 238.573 498.335C237.407 503.095 236.59 505.475 236.123 505.475C235.797 505.475 235.412 505.218 234.968 504.705C234.548 504.192 234.338 503.795 234.338 503.515C234.338 503.235 234.677 501.788 235.353 499.175C236.03 496.562 236.707 493.353 237.383 489.55C238.06 485.723 238.398 482.282 238.398 479.225C238.398 478.898 238.445 478.665 238.538 478.525C238.632 478.385 238.83 478.315 239.133 478.315C239.437 478.315 239.868 478.653 240.428 479.33C241.012 479.983 241.303 480.625 241.303 481.255ZM250.967 483.145C250.967 482.678 251.154 482.235 251.527 481.815C251.901 481.395 252.274 481.185 252.647 481.185C253.044 481.185 253.511 481.663 254.047 482.62C254.584 483.553 254.852 484.335 254.852 484.965C254.852 485.198 254.747 485.408 254.537 485.595C254.327 485.782 254.106 485.875 253.872 485.875C253.312 485.875 252.682 485.537 251.982 484.86C251.306 484.183 250.967 483.612 250.967 483.145ZM250.792 488.115C251.236 488.115 251.656 488.383 252.052 488.92C252.449 489.457 252.647 489.982 252.647 490.495C252.647 491.008 252.309 492.548 251.632 495.115C250.956 497.658 250.104 500.517 249.077 503.69C248.681 504.857 248.179 505.44 247.572 505.44C247.246 505.44 246.966 505.312 246.732 505.055C246.499 504.775 246.382 504.472 246.382 504.145C246.382 503.795 246.464 503.258 246.627 502.535C246.814 501.788 247.071 500.808 247.397 499.595C247.747 498.358 248.016 497.355 248.202 496.585C248.412 495.815 248.622 494.952 248.832 493.995C249.042 493.015 249.206 492.233 249.322 491.65C249.462 491.043 249.614 490.437 249.777 489.83C250.104 488.687 250.442 488.115 250.792 488.115ZM267.637 488.115C268.687 488.115 269.656 488.652 270.542 489.725C271.429 490.775 271.872 491.732 271.872 492.595C271.872 493.435 271.581 494.298 270.997 495.185C271.277 495.535 271.417 495.838 271.417 496.095C271.417 496.748 271.266 497.868 270.962 499.455C270.682 501.042 270.507 502.08 270.437 502.57C270.391 503.06 270.344 503.457 270.297 503.76C270.251 504.04 270.192 504.32 270.122 504.6C270.029 505.183 269.819 505.475 269.492 505.475C269.072 505.475 268.722 505.113 268.442 504.39C268.186 503.643 268.034 502.687 267.987 501.52C265.911 504.157 263.986 505.475 262.212 505.475C261.139 505.475 260.077 505.02 259.027 504.11C258.001 503.177 257.487 502.22 257.487 501.24C257.487 499.84 258.001 498.113 259.027 496.06C260.054 493.983 261.384 492.14 263.017 490.53C264.651 488.92 266.191 488.115 267.637 488.115ZM269.247 494.275C269.247 492.105 268.816 491.02 267.952 491.02C267.042 491.02 265.981 491.673 264.767 492.98C263.554 494.263 262.527 495.722 261.687 497.355C260.847 498.988 260.427 500.283 260.427 501.24C260.427 501.637 260.591 501.963 260.917 502.22C261.244 502.453 261.629 502.57 262.072 502.57C263.169 502.57 264.406 501.835 265.782 500.365C267.159 498.872 268.116 497.063 268.652 494.94C268.722 494.59 268.921 494.38 269.247 494.31V494.275ZM279.738 505.475C279.412 505.475 279.027 505.23 278.583 504.74C278.14 504.227 277.918 503.748 277.918 503.305C277.918 502.862 278.28 501.345 279.003 498.755C279.75 496.165 280.485 493.05 281.208 489.41C281.955 485.747 282.328 482.398 282.328 479.365C282.328 478.665 282.585 478.315 283.098 478.315C283.472 478.315 283.927 478.665 284.463 479.365C285 480.042 285.268 480.707 285.268 481.36C285.268 484.23 284.638 488.325 283.378 493.645C286.155 489.888 288.675 488.01 290.938 488.01C292.035 488.01 292.957 488.547 293.703 489.62C294.473 490.693 294.858 491.977 294.858 493.47C294.858 494.94 294.427 496.632 293.563 498.545C292.723 500.458 291.58 502.103 290.133 503.48C288.687 504.833 287.17 505.51 285.583 505.51C283.997 505.51 282.433 504.705 280.893 503.095L280.858 503.13C280.345 504.693 279.972 505.475 279.738 505.475ZM285.303 502.78C286.82 502.78 288.302 501.753 289.748 499.7C291.218 497.623 291.953 495.442 291.953 493.155C291.953 491.778 291.533 491.09 290.693 491.09C289.34 491.09 287.823 492.035 286.143 493.925C284.487 495.815 283.052 498.067 281.838 500.68C282.935 502.08 284.09 502.78 285.303 502.78ZM307.017 481.255C307.017 485.642 306.107 491.335 304.287 498.335C303.12 503.095 302.304 505.475 301.837 505.475C301.51 505.475 301.125 505.218 300.682 504.705C300.262 504.192 300.052 503.795 300.052 503.515C300.052 503.235 300.39 501.788 301.067 499.175C301.744 496.562 302.42 493.353 303.097 489.55C303.774 485.723 304.112 482.282 304.112 479.225C304.112 478.898 304.159 478.665 304.252 478.525C304.345 478.385 304.544 478.315 304.847 478.315C305.15 478.315 305.582 478.653 306.142 479.33C306.725 479.983 307.017 480.625 307.017 481.255ZM326.166 493.925C326.166 495.162 325.49 496.177 324.136 496.97C322.806 497.74 321.29 498.125 319.586 498.125C317.906 498.125 316.378 497.938 315.001 497.565C314.675 498.592 314.511 499.513 314.511 500.33C314.511 501.123 314.756 501.742 315.246 502.185C315.76 502.628 316.588 502.85 317.731 502.85C318.898 502.85 320.088 502.652 321.301 502.255C322.538 501.835 323.215 501.625 323.331 501.625C323.938 501.625 324.241 501.858 324.241 502.325C324.241 502.955 323.53 503.643 322.106 504.39C320.683 505.113 319.295 505.475 317.941 505.475C316.121 505.475 314.64 504.938 313.496 503.865C312.353 502.768 311.781 501.392 311.781 499.735C311.781 498.078 312.225 496.352 313.111 494.555C313.998 492.735 315.141 491.207 316.541 489.97C317.941 488.733 319.33 488.115 320.706 488.115C322.083 488.115 323.331 488.768 324.451 490.075C325.595 491.382 326.166 492.665 326.166 493.925ZM320.881 490.88C320.018 490.88 319.12 491.335 318.186 492.245C317.253 493.132 316.46 494.24 315.806 495.57C316.74 495.78 317.801 495.885 318.991 495.885C320.181 495.885 321.22 495.698 322.106 495.325C322.993 494.928 323.436 494.415 323.436 493.785C323.436 493.155 323.145 492.513 322.561 491.86C322.001 491.207 321.441 490.88 320.881 490.88Z" fill="white"/>
</g>
<g filter="url(#filter3_d)">
<rect x="179" y="284" width="318" height="99" rx="30" fill="#E03D3D"/>
<path d="M451 425L398 383H451L451 425Z" fill="#E03D3D"/>
<path d="M247.306 325.645C247.306 328.165 246.093 330.3 243.666 332.05C241.263 333.8 238.078 335.06 234.111 335.83C232.408 341.593 231.393 344.475 231.066 344.475C230.74 344.475 230.355 344.218 229.911 343.705C229.468 343.168 229.246 342.643 229.246 342.13C229.246 341.593 229.585 340.193 230.261 337.93C232.361 330.953 233.458 326.088 233.551 323.335C232.991 322.822 232.711 322.355 232.711 321.935C232.711 321.352 233.505 320.792 235.091 320.255C236.678 319.718 238.195 319.45 239.641 319.45C241.881 319.45 243.713 320.022 245.136 321.165C246.583 322.308 247.306 323.802 247.306 325.645ZM244.226 325.855C244.226 324.828 243.83 323.988 243.036 323.335C242.266 322.658 241.333 322.32 240.236 322.32C239.14 322.32 237.81 322.67 236.246 323.37C236.48 323.883 236.596 324.362 236.596 324.805C236.596 326.112 236.025 328.877 234.881 333.1C237.681 332.353 239.933 331.327 241.636 330.02C243.363 328.69 244.226 327.302 244.226 325.855ZM253.43 331.385L253.325 328.76C253.325 327.663 253.582 327.115 254.095 327.115C254.538 327.115 254.958 327.407 255.355 327.99C255.775 328.55 255.985 329.227 255.985 330.02C255.985 330.79 255.962 331.373 255.915 331.77C257.945 328.69 259.87 327.15 261.69 327.15C262.833 327.15 263.405 327.43 263.405 327.99C263.405 328.27 263.277 328.527 263.02 328.76C262.763 328.993 262.355 329.262 261.795 329.565C260.558 330.102 259.508 330.93 258.645 332.05C257.805 333.147 257.117 334.395 256.58 335.795C256.043 337.195 255.612 338.373 255.285 339.33C254.982 340.287 254.748 341.033 254.585 341.57C254.422 342.107 254.235 342.632 254.025 343.145C253.652 344.078 253.22 344.545 252.73 344.545C252.333 344.545 252.007 344.323 251.75 343.88C251.517 343.413 251.4 342.97 251.4 342.55C251.4 342.107 251.598 341.243 251.995 339.96C252.952 337.02 253.43 334.162 253.43 331.385ZM276.987 333.065C276.987 332.272 276.859 331.525 276.602 330.825C276.345 330.102 275.972 329.577 275.482 329.25C273.872 329.693 272.484 330.942 271.317 332.995C270.174 335.025 269.602 336.938 269.602 338.735C269.602 340.532 270.045 341.652 270.932 342.095C272.612 341.768 274.035 340.625 275.202 338.665C276.392 336.682 276.987 334.815 276.987 333.065ZM267.782 333.38C268.599 331.56 269.66 330.067 270.967 328.9C272.297 327.71 273.65 327.115 275.027 327.115C276.427 327.115 277.594 327.71 278.527 328.9C279.46 330.067 279.927 331.502 279.927 333.205C279.927 334.885 279.519 336.612 278.702 338.385C277.885 340.135 276.754 341.593 275.307 342.76C273.884 343.903 272.367 344.475 270.757 344.475C269.567 344.475 268.575 343.927 267.782 342.83C266.989 341.733 266.592 340.345 266.592 338.665C266.592 336.962 266.989 335.2 267.782 333.38ZM288.296 344.545C287.993 344.545 287.666 344.323 287.316 343.88C286.966 343.437 286.791 343.075 286.791 342.795C286.791 342.515 286.908 341.967 287.141 341.15C288.308 336.95 289.101 333.952 289.521 332.155C288.518 332.388 287.83 332.505 287.456 332.505C287.083 332.505 286.71 332.342 286.336 332.015C285.963 331.688 285.776 331.327 285.776 330.93C285.776 330.533 286.301 330.183 287.351 329.88C288.705 329.553 289.638 329.343 290.151 329.25C290.385 328.13 290.56 327.267 290.676 326.66C291.236 323.44 291.995 321.118 292.951 319.695C293.908 318.272 295.203 317.56 296.836 317.56C298.003 317.56 298.96 318.027 299.706 318.96C300.453 319.87 300.826 320.955 300.826 322.215C300.826 323.452 300.5 324.07 299.846 324.07C299.286 324.07 298.831 323.44 298.481 322.18C298.365 321.713 298.166 321.282 297.886 320.885C297.606 320.488 297.268 320.29 296.871 320.29C296.475 320.29 296.113 320.477 295.786 320.85C295.46 321.2 295.168 321.713 294.911 322.39C294.235 324.28 293.768 326.007 293.511 327.57L293.231 328.795C294.095 328.678 294.946 328.62 295.786 328.62C296.65 328.62 297.268 328.713 297.641 328.9C298.038 329.087 298.236 329.32 298.236 329.6C298.236 330.043 297.851 330.382 297.081 330.615C296.311 330.848 294.806 331.152 292.566 331.525C290.91 338.245 289.778 342.247 289.171 343.53C288.845 344.207 288.553 344.545 288.296 344.545ZM316.401 332.925C316.401 334.162 315.724 335.177 314.371 335.97C313.041 336.74 311.524 337.125 309.821 337.125C308.141 337.125 306.612 336.938 305.236 336.565C304.909 337.592 304.746 338.513 304.746 339.33C304.746 340.123 304.991 340.742 305.481 341.185C305.994 341.628 306.822 341.85 307.966 341.85C309.132 341.85 310.322 341.652 311.536 341.255C312.772 340.835 313.449 340.625 313.566 340.625C314.172 340.625 314.476 340.858 314.476 341.325C314.476 341.955 313.764 342.643 312.341 343.39C310.917 344.113 309.529 344.475 308.176 344.475C306.356 344.475 304.874 343.938 303.731 342.865C302.587 341.768 302.016 340.392 302.016 338.735C302.016 337.078 302.459 335.352 303.346 333.555C304.232 331.735 305.376 330.207 306.776 328.97C308.176 327.733 309.564 327.115 310.941 327.115C312.317 327.115 313.566 327.768 314.686 329.075C315.829 330.382 316.401 331.665 316.401 332.925ZM311.116 329.88C310.252 329.88 309.354 330.335 308.421 331.245C307.487 332.132 306.694 333.24 306.041 334.57C306.974 334.78 308.036 334.885 309.226 334.885C310.416 334.885 311.454 334.698 312.341 334.325C313.227 333.928 313.671 333.415 313.671 332.785C313.671 332.155 313.379 331.513 312.796 330.86C312.236 330.207 311.676 329.88 311.116 329.88ZM331.702 327.115C332.496 327.115 333.242 327.558 333.942 328.445C334.642 329.308 334.992 330.067 334.992 330.72C334.992 331.117 334.806 331.315 334.432 331.315C334.176 331.315 333.779 331.117 333.242 330.72C332.706 330.3 332.157 330.09 331.597 330.09C331.037 330.09 330.151 330.417 328.937 331.07C327.747 331.723 327.152 332.412 327.152 333.135C327.152 333.672 328.226 334.593 330.372 335.9C331.189 336.413 331.924 337.078 332.577 337.895C333.254 338.688 333.592 339.552 333.592 340.485C333.592 341.395 332.951 342.293 331.667 343.18C330.407 344.043 328.926 344.475 327.222 344.475C325.542 344.475 324.049 344.067 322.742 343.25C321.459 342.433 320.817 341.663 320.817 340.94C320.817 340.637 320.887 340.403 321.027 340.24C321.191 340.053 321.389 339.96 321.622 339.96C321.856 339.96 322.182 340.112 322.602 340.415C323.862 341.325 325.169 341.78 326.522 341.78C327.899 341.78 328.891 341.628 329.497 341.325C330.104 340.998 330.407 340.578 330.407 340.065C330.407 339.528 330.069 338.968 329.392 338.385C328.716 337.778 327.969 337.242 327.152 336.775C326.359 336.308 325.624 335.737 324.947 335.06C324.271 334.383 323.932 333.695 323.932 332.995C323.932 331.758 324.901 330.475 326.837 329.145C328.797 327.792 330.419 327.115 331.702 327.115ZM350.105 327.115C350.898 327.115 351.645 327.558 352.345 328.445C353.045 329.308 353.395 330.067 353.395 330.72C353.395 331.117 353.208 331.315 352.835 331.315C352.578 331.315 352.181 331.117 351.645 330.72C351.108 330.3 350.56 330.09 350 330.09C349.44 330.09 348.553 330.417 347.34 331.07C346.15 331.723 345.555 332.412 345.555 333.135C345.555 333.672 346.628 334.593 348.775 335.9C349.591 336.413 350.326 337.078 350.98 337.895C351.656 338.688 351.995 339.552 351.995 340.485C351.995 341.395 351.353 342.293 350.07 343.18C348.81 344.043 347.328 344.475 345.625 344.475C343.945 344.475 342.451 344.067 341.145 343.25C339.861 342.433 339.22 341.663 339.22 340.94C339.22 340.637 339.29 340.403 339.43 340.24C339.593 340.053 339.791 339.96 340.025 339.96C340.258 339.96 340.585 340.112 341.005 340.415C342.265 341.325 343.571 341.78 344.925 341.78C346.301 341.78 347.293 341.628 347.9 341.325C348.506 340.998 348.81 340.578 348.81 340.065C348.81 339.528 348.471 338.968 347.795 338.385C347.118 337.778 346.371 337.242 345.555 336.775C344.761 336.308 344.026 335.737 343.35 335.06C342.673 334.383 342.335 333.695 342.335 332.995C342.335 331.758 343.303 330.475 345.24 329.145C347.2 327.792 348.821 327.115 350.105 327.115ZM362.977 322.145C362.977 321.678 363.164 321.235 363.537 320.815C363.91 320.395 364.284 320.185 364.657 320.185C365.054 320.185 365.52 320.663 366.057 321.62C366.594 322.553 366.862 323.335 366.862 323.965C366.862 324.198 366.757 324.408 366.547 324.595C366.337 324.782 366.115 324.875 365.882 324.875C365.322 324.875 364.692 324.537 363.992 323.86C363.315 323.183 362.977 322.612 362.977 322.145ZM362.802 327.115C363.245 327.115 363.665 327.383 364.062 327.92C364.459 328.457 364.657 328.982 364.657 329.495C364.657 330.008 364.319 331.548 363.642 334.115C362.965 336.658 362.114 339.517 361.087 342.69C360.69 343.857 360.189 344.44 359.582 344.44C359.255 344.44 358.975 344.312 358.742 344.055C358.509 343.775 358.392 343.472 358.392 343.145C358.392 342.795 358.474 342.258 358.637 341.535C358.824 340.788 359.08 339.808 359.407 338.595C359.757 337.358 360.025 336.355 360.212 335.585C360.422 334.815 360.632 333.952 360.842 332.995C361.052 332.015 361.215 331.233 361.332 330.65C361.472 330.043 361.624 329.437 361.787 328.83C362.114 327.687 362.452 327.115 362.802 327.115ZM380.907 333.065C380.907 332.272 380.779 331.525 380.522 330.825C380.265 330.102 379.892 329.577 379.402 329.25C377.792 329.693 376.404 330.942 375.237 332.995C374.094 335.025 373.522 336.938 373.522 338.735C373.522 340.532 373.965 341.652 374.852 342.095C376.532 341.768 377.955 340.625 379.122 338.665C380.312 336.682 380.907 334.815 380.907 333.065ZM371.702 333.38C372.519 331.56 373.58 330.067 374.887 328.9C376.217 327.71 377.57 327.115 378.947 327.115C380.347 327.115 381.514 327.71 382.447 328.9C383.38 330.067 383.847 331.502 383.847 333.205C383.847 334.885 383.439 336.612 382.622 338.385C381.805 340.135 380.674 341.593 379.227 342.76C377.804 343.903 376.287 344.475 374.677 344.475C373.487 344.475 372.495 343.927 371.702 342.83C370.909 341.733 370.512 340.345 370.512 338.665C370.512 336.962 370.909 335.2 371.702 333.38ZM393.126 338.385C395.366 334.582 397.186 331.758 398.586 329.915C400.01 328.048 401.165 327.115 402.051 327.115C402.961 327.115 403.813 327.593 404.606 328.55C405.423 329.507 405.831 330.522 405.831 331.595C405.831 333.275 405.446 335.328 404.676 337.755C403.276 342.235 402.016 344.475 400.896 344.475C400.383 344.475 400.126 344.125 400.126 343.425C400.126 342.935 400.371 341.943 400.861 340.45C401.375 338.933 401.841 337.452 402.261 336.005C402.705 334.535 402.926 333.438 402.926 332.715C402.926 331.968 402.81 331.42 402.576 331.07C402.366 330.72 402.145 330.545 401.911 330.545C401.701 330.545 401.48 330.615 401.246 330.755C401.013 330.895 400.745 331.128 400.441 331.455C400.161 331.782 399.893 332.108 399.636 332.435C399.38 332.738 399.053 333.182 398.656 333.765C398.283 334.348 397.968 334.85 397.711 335.27C397.455 335.667 397.081 336.25 396.591 337.02C396.101 337.79 395.728 338.373 395.471 338.77C395.215 339.167 394.876 339.703 394.456 340.38C394.036 341.057 393.698 341.582 393.441 341.955C393.208 342.328 392.94 342.737 392.636 343.18C392.053 344.043 391.586 344.475 391.236 344.475C390.91 344.475 390.525 344.218 390.081 343.705C389.638 343.168 389.416 342.702 389.416 342.305C389.416 342.188 389.498 341.873 389.661 341.36C390.105 340.007 390.595 338.338 391.131 336.355C391.668 334.348 391.96 332.073 392.006 329.53C392.076 327.827 392.321 326.975 392.741 326.975C393.255 326.975 393.768 327.243 394.281 327.78C394.795 328.317 395.051 328.912 395.051 329.565C395.051 330.195 394.853 331.432 394.456 333.275C394.083 335.095 393.64 336.798 393.126 338.385ZM421.168 327.115C422.218 327.115 423.187 327.652 424.073 328.725C424.96 329.775 425.403 330.732 425.403 331.595C425.403 332.435 425.112 333.298 424.528 334.185C424.808 334.535 424.948 334.838 424.948 335.095C424.948 335.748 424.797 336.868 424.493 338.455C424.213 340.042 424.038 341.08 423.968 341.57C423.922 342.06 423.875 342.457 423.828 342.76C423.782 343.04 423.723 343.32 423.653 343.6C423.56 344.183 423.35 344.475 423.023 344.475C422.603 344.475 422.253 344.113 421.973 343.39C421.717 342.643 421.565 341.687 421.518 340.52C419.442 343.157 417.517 344.475 415.743 344.475C414.67 344.475 413.608 344.02 412.558 343.11C411.532 342.177 411.018 341.22 411.018 340.24C411.018 338.84 411.532 337.113 412.558 335.06C413.585 332.983 414.915 331.14 416.548 329.53C418.182 327.92 419.722 327.115 421.168 327.115ZM422.778 333.275C422.778 331.105 422.347 330.02 421.483 330.02C420.573 330.02 419.512 330.673 418.298 331.98C417.085 333.263 416.058 334.722 415.218 336.355C414.378 337.988 413.958 339.283 413.958 340.24C413.958 340.637 414.122 340.963 414.448 341.22C414.775 341.453 415.16 341.57 415.603 341.57C416.7 341.57 417.937 340.835 419.313 339.365C420.69 337.872 421.647 336.063 422.183 333.94C422.253 333.59 422.452 333.38 422.778 333.31V333.275ZM438.66 320.255C438.66 324.642 437.75 330.335 435.93 337.335C434.763 342.095 433.946 344.475 433.48 344.475C433.153 344.475 432.768 344.218 432.325 343.705C431.905 343.192 431.695 342.795 431.695 342.515C431.695 342.235 432.033 340.788 432.71 338.175C433.386 335.562 434.063 332.353 434.74 328.55C435.416 324.723 435.755 321.282 435.755 318.225C435.755 317.898 435.801 317.665 435.895 317.525C435.988 317.385 436.186 317.315 436.49 317.315C436.793 317.315 437.225 317.653 437.785 318.33C438.368 318.983 438.66 319.625 438.66 320.255Z" fill="white"/>
</g>
<path d="M103.361 39.05C102.961 39.05 102.428 38.65 101.761 37.85C101.128 37.05 100.811 36.3167 100.811 35.65C100.811 34.9833 101.794 30.3333 103.761 21.7C105.761 13.0333 106.778 7.66666 106.811 5.6C106.811 5.03333 106.878 4.65 107.011 4.45C107.178 4.21666 107.494 4.1 107.961 4.1C108.461 4.1 109.094 4.61666 109.861 5.65C110.661 6.68333 111.061 7.8 111.061 9C111.061 10.1667 109.861 15.6333 107.461 25.4C107.228 26.3 106.911 27.6 106.511 29.3C106.111 30.9667 105.794 32.25 105.561 33.15C105.328 34.05 105.078 35.0333 104.811 36.1C104.244 38.0667 103.761 39.05 103.361 39.05ZM154.608 19.75L154.258 29.15C154.258 31.75 154.375 33.6333 154.608 34.8C156.041 33.3 157.275 31.55 158.308 29.55C159.375 27.5167 160.158 25.6333 160.658 23.9C161.191 22.1667 161.641 20.55 162.008 19.05C162.408 17.5167 162.775 16.3 163.108 15.4C163.441 14.5 163.825 14.05 164.258 14.05C164.891 14.05 165.458 14.3167 165.958 14.85C166.458 15.35 166.708 15.9333 166.708 16.6C166.708 18.3 165.941 21.1 164.408 25C163.108 28.6 161.408 31.9 159.308 34.9C157.208 37.8667 155.575 39.35 154.408 39.35C153.241 39.35 152.358 38.7 151.758 37.4C151.191 36.1 150.875 33.6167 150.808 29.95C150.741 26.25 150.791 23.05 150.958 20.35C148.658 26.6167 146.625 31.35 144.858 34.55C143.091 37.75 141.691 39.35 140.658 39.35C140.191 39.35 139.691 39.1333 139.158 38.7C138.658 38.2667 138.258 37.7 137.958 37C137.225 35.2333 136.591 31.8667 136.058 26.9C135.558 21.9 135.308 18.3333 135.308 16.2C135.308 14.8333 135.725 14.15 136.558 14.15C137.291 14.15 137.958 14.5667 138.558 15.4C139.191 16.2333 139.558 17.0667 139.658 17.9C139.758 18.7 139.841 20.9667 139.908 24.7C140.008 28.4 140.325 31.7 140.858 34.6C142.225 32.2333 143.591 29.2667 144.958 25.7C146.358 22.1333 147.491 19.3333 148.358 17.3C149.258 15.2667 150.075 14.25 150.808 14.25C151.908 14.25 152.808 14.7667 153.508 15.8C154.241 16.8 154.608 18.1167 154.608 19.75ZM181.451 14.45C182.951 14.45 184.334 15.2167 185.601 16.75C186.867 18.25 187.501 19.6167 187.501 20.85C187.501 22.05 187.084 23.2833 186.251 24.55C186.651 25.05 186.851 25.4833 186.851 25.85C186.851 26.7833 186.634 28.3833 186.201 30.65C185.801 32.9167 185.551 34.4 185.451 35.1C185.384 35.8 185.317 36.3667 185.251 36.8C185.184 37.2 185.101 37.6 185.001 38C184.867 38.8333 184.567 39.25 184.101 39.25C183.501 39.25 183.001 38.7333 182.601 37.7C182.234 36.6333 182.017 35.2667 181.951 33.6C178.984 37.3667 176.234 39.25 173.701 39.25C172.167 39.25 170.651 38.6 169.151 37.3C167.684 35.9667 166.951 34.6 166.951 33.2C166.951 31.2 167.684 28.7333 169.151 25.8C170.617 22.8333 172.517 20.2 174.851 17.9C177.184 15.6 179.384 14.45 181.451 14.45ZM183.751 23.25C183.751 20.15 183.134 18.6 181.901 18.6C180.601 18.6 179.084 19.5333 177.351 21.4C175.617 23.2333 174.151 25.3167 172.951 27.65C171.751 29.9833 171.151 31.8333 171.151 33.2C171.151 33.7667 171.384 34.2333 171.851 34.6C172.317 34.9333 172.867 35.1 173.501 35.1C175.067 35.1 176.834 34.05 178.801 31.95C180.767 29.8167 182.134 27.2333 182.901 24.2C183.001 23.7 183.284 23.4 183.751 23.3V23.25ZM196.488 30.55C199.688 25.1167 202.288 21.0833 204.288 18.45C206.321 15.7833 207.971 14.45 209.238 14.45C210.538 14.45 211.755 15.1333 212.888 16.5C214.055 17.8667 214.638 19.3167 214.638 20.85C214.638 23.25 214.088 26.1833 212.988 29.65C210.988 36.05 209.188 39.25 207.588 39.25C206.855 39.25 206.488 38.75 206.488 37.75C206.488 37.05 206.838 35.6333 207.538 33.5C208.271 31.3333 208.938 29.2167 209.538 27.15C210.171 25.05 210.488 23.4833 210.488 22.45C210.488 21.3833 210.321 20.6 209.988 20.1C209.688 19.6 209.371 19.35 209.038 19.35C208.738 19.35 208.421 19.45 208.088 19.65C207.755 19.85 207.371 20.1833 206.938 20.65C206.538 21.1167 206.155 21.5833 205.788 22.05C205.421 22.4833 204.955 23.1167 204.388 23.95C203.855 24.7833 203.405 25.5 203.038 26.1C202.671 26.6667 202.138 27.5 201.438 28.6C200.738 29.7 200.205 30.5333 199.838 31.1C199.471 31.6667 198.988 32.4333 198.388 33.4C197.788 34.3667 197.305 35.1167 196.938 35.65C196.605 36.1833 196.221 36.7667 195.788 37.4C194.955 38.6333 194.288 39.25 193.788 39.25C193.321 39.25 192.771 38.8833 192.138 38.15C191.505 37.3833 191.188 36.7167 191.188 36.15C191.188 35.9833 191.305 35.5333 191.538 34.8C192.171 32.8667 192.871 30.4833 193.638 27.65C194.405 24.7833 194.821 21.5333 194.888 17.9C194.988 15.4667 195.338 14.25 195.938 14.25C196.671 14.25 197.405 14.6333 198.138 15.4C198.871 16.1667 199.238 17.0167 199.238 17.95C199.238 18.85 198.955 20.6167 198.388 23.25C197.855 25.85 197.221 28.2833 196.488 30.55ZM223.848 34.25C223.848 34.8833 224.215 35.2 224.948 35.2C226.215 35.2 227.748 34.85 229.548 34.15C231.382 33.4167 232.398 33.05 232.598 33.05C233.198 33.05 233.498 33.3667 233.498 34C233.498 34.9667 232.498 36.0833 230.498 37.35C228.532 38.6167 226.732 39.25 225.098 39.25C223.498 39.25 222.165 38.8167 221.098 37.95C220.032 37.05 219.498 36.1333 219.498 35.2C219.498 34.2667 219.698 33.0833 220.098 31.65C220.498 30.1833 221.065 28.2667 221.798 25.9C222.565 23.5 223.165 21.5167 223.598 19.95C222.032 20.3167 220.982 20.5 220.448 20.5C219.915 20.5 219.382 20.2333 218.848 19.7C218.348 19.1333 218.098 18.6 218.098 18.1C218.098 17.3 220.265 16.5333 224.598 15.8C225.198 13.0333 225.498 10.5833 225.498 8.45C225.498 7.45 225.832 6.95 226.498 6.95C227.065 6.95 227.765 7.31667 228.598 8.05C229.432 8.75 229.848 9.55 229.848 10.45C229.848 11.35 229.565 12.9333 228.998 15.2C230.898 15.0333 232.415 14.95 233.548 14.95C235.548 14.95 236.548 15.3833 236.548 16.25C236.548 16.75 235.998 17.1667 234.898 17.5C233.832 17.8333 231.565 18.35 228.098 19.05C227.398 21.6833 226.515 24.7 225.448 28.1C224.382 31.4667 223.848 33.5167 223.848 34.25ZM270.953 14.45C272.453 14.45 273.836 15.2167 275.103 16.75C276.369 18.25 277.003 19.6167 277.003 20.85C277.003 22.05 276.586 23.2833 275.753 24.55C276.153 25.05 276.353 25.4833 276.353 25.85C276.353 26.7833 276.136 28.3833 275.703 30.65C275.303 32.9167 275.053 34.4 274.953 35.1C274.886 35.8 274.819 36.3667 274.753 36.8C274.686 37.2 274.603 37.6 274.503 38C274.369 38.8333 274.069 39.25 273.603 39.25C273.003 39.25 272.503 38.7333 272.103 37.7C271.736 36.6333 271.519 35.2667 271.453 33.6C268.486 37.3667 265.736 39.25 263.203 39.25C261.669 39.25 260.153 38.6 258.653 37.3C257.186 35.9667 256.453 34.6 256.453 33.2C256.453 31.2 257.186 28.7333 258.653 25.8C260.119 22.8333 262.019 20.2 264.353 17.9C266.686 15.6 268.886 14.45 270.953 14.45ZM273.253 23.25C273.253 20.15 272.636 18.6 271.403 18.6C270.103 18.6 268.586 19.5333 266.853 21.4C265.119 23.2333 263.653 25.3167 262.453 27.65C261.253 29.9833 260.653 31.8333 260.653 33.2C260.653 33.7667 260.886 34.2333 261.353 34.6C261.819 34.9333 262.369 35.1 263.003 35.1C264.569 35.1 266.336 34.05 268.303 31.95C270.269 29.8167 271.636 27.2333 272.403 24.2C272.503 23.7 272.786 23.4 273.253 23.3V23.25ZM306.758 34.25C306.758 34.8833 307.125 35.2 307.858 35.2C309.125 35.2 310.658 34.85 312.458 34.15C314.292 33.4167 315.308 33.05 315.508 33.05C316.108 33.05 316.408 33.3667 316.408 34C316.408 34.9667 315.408 36.0833 313.408 37.35C311.442 38.6167 309.642 39.25 308.008 39.25C306.408 39.25 305.075 38.8167 304.008 37.95C302.942 37.05 302.408 36.1333 302.408 35.2C302.408 34.2667 302.608 33.0833 303.008 31.65C303.408 30.1833 303.975 28.2667 304.708 25.9C305.475 23.5 306.075 21.5167 306.508 19.95C304.942 20.3167 303.892 20.5 303.358 20.5C302.825 20.5 302.292 20.2333 301.758 19.7C301.258 19.1333 301.008 18.6 301.008 18.1C301.008 17.3 303.175 16.5333 307.508 15.8C308.108 13.0333 308.408 10.5833 308.408 8.45C308.408 7.45 308.742 6.95 309.408 6.95C309.975 6.95 310.675 7.31667 311.508 8.05C312.342 8.75 312.758 9.55 312.758 10.45C312.758 11.35 312.475 12.9333 311.908 15.2C313.808 15.0333 315.325 14.95 316.458 14.95C318.458 14.95 319.458 15.3833 319.458 16.25C319.458 16.75 318.908 17.1667 317.808 17.5C316.742 17.8333 314.475 18.35 311.008 19.05C310.308 21.6833 309.425 24.7 308.358 28.1C307.292 31.4667 306.758 33.5167 306.758 34.25ZM340.444 22.75C340.444 24.5167 339.478 25.9667 337.544 27.1C335.644 28.2 333.478 28.75 331.044 28.75C328.644 28.75 326.461 28.4833 324.494 27.95C324.028 29.4167 323.794 30.7333 323.794 31.9C323.794 33.0333 324.144 33.9167 324.844 34.55C325.578 35.1833 326.761 35.5 328.394 35.5C330.061 35.5 331.761 35.2167 333.494 34.65C335.261 34.05 336.228 33.75 336.394 33.75C337.261 33.75 337.694 34.0833 337.694 34.75C337.694 35.65 336.678 36.6333 334.644 37.7C332.611 38.7333 330.628 39.25 328.694 39.25C326.094 39.25 323.978 38.4833 322.344 36.95C320.711 35.3833 319.894 33.4167 319.894 31.05C319.894 28.6833 320.528 26.2167 321.794 23.65C323.061 21.05 324.694 18.8667 326.694 17.1C328.694 15.3333 330.678 14.45 332.644 14.45C334.611 14.45 336.394 15.3833 337.994 17.25C339.628 19.1167 340.444 20.95 340.444 22.75ZM332.894 18.4C331.661 18.4 330.378 19.05 329.044 20.35C327.711 21.6167 326.578 23.2 325.644 25.1C326.978 25.4 328.494 25.55 330.194 25.55C331.894 25.55 333.378 25.2833 334.644 24.75C335.911 24.1833 336.544 23.45 336.544 22.55C336.544 21.65 336.128 20.7333 335.294 19.8C334.494 18.8667 333.694 18.4 332.894 18.4ZM347.904 30.55C351.104 25.1167 353.704 21.0833 355.704 18.45C357.737 15.7833 359.387 14.45 360.654 14.45C361.954 14.45 363.171 15.1333 364.304 16.5C365.471 17.8667 366.054 19.3167 366.054 20.85C366.054 23.25 365.504 26.1833 364.404 29.65C362.404 36.05 360.604 39.25 359.004 39.25C358.271 39.25 357.904 38.75 357.904 37.75C357.904 37.05 358.254 35.6333 358.954 33.5C359.687 31.3333 360.354 29.2167 360.954 27.15C361.587 25.05 361.904 23.4833 361.904 22.45C361.904 21.3833 361.737 20.6 361.404 20.1C361.104 19.6 360.787 19.35 360.454 19.35C360.154 19.35 359.837 19.45 359.504 19.65C359.171 19.85 358.787 20.1833 358.354 20.65C357.954 21.1167 357.571 21.5833 357.204 22.05C356.837 22.4833 356.371 23.1167 355.804 23.95C355.271 24.7833 354.821 25.5 354.454 26.1C354.087 26.6667 353.554 27.5 352.854 28.6C352.154 29.7 351.621 30.5333 351.254 31.1C350.887 31.6667 350.404 32.4333 349.804 33.4C349.204 34.3667 348.721 35.1167 348.354 35.65C348.021 36.1833 347.637 36.7667 347.204 37.4C346.371 38.6333 345.704 39.25 345.204 39.25C344.737 39.25 344.187 38.8833 343.554 38.15C342.921 37.3833 342.604 36.7167 342.604 36.15C342.604 35.9833 342.721 35.5333 342.954 34.8C343.587 32.8667 344.287 30.4833 345.054 27.65C345.821 24.7833 346.237 21.5333 346.304 17.9C346.404 15.4667 346.754 14.25 347.354 14.25C348.087 14.25 348.821 14.6333 349.554 15.4C350.287 16.1667 350.654 17.0167 350.654 17.95C350.654 18.85 350.371 20.6167 349.804 23.25C349.271 25.85 348.637 28.2833 347.904 30.55ZM382.964 14.45C384.464 14.45 385.848 15.2167 387.114 16.75C388.381 18.25 389.014 19.6167 389.014 20.85C389.014 22.05 388.598 23.2833 387.764 24.55C388.164 25.05 388.364 25.4833 388.364 25.85C388.364 26.7833 388.148 28.3833 387.714 30.65C387.314 32.9167 387.064 34.4 386.964 35.1C386.898 35.8 386.831 36.3667 386.764 36.8C386.698 37.2 386.614 37.6 386.514 38C386.381 38.8333 386.081 39.25 385.614 39.25C385.014 39.25 384.514 38.7333 384.114 37.7C383.748 36.6333 383.531 35.2667 383.464 33.6C380.498 37.3667 377.748 39.25 375.214 39.25C373.681 39.25 372.164 38.6 370.664 37.3C369.198 35.9667 368.464 34.6 368.464 33.2C368.464 31.2 369.198 28.7333 370.664 25.8C372.131 22.8333 374.031 20.2 376.364 17.9C378.698 15.6 380.898 14.45 382.964 14.45ZM385.264 23.25C385.264 20.15 384.648 18.6 383.414 18.6C382.114 18.6 380.598 19.5333 378.864 21.4C377.131 23.2333 375.664 25.3167 374.464 27.65C373.264 29.9833 372.664 31.8333 372.664 33.2C372.664 33.7667 372.898 34.2333 373.364 34.6C373.831 34.9333 374.381 35.1 375.014 35.1C376.581 35.1 378.348 34.05 380.314 31.95C382.281 29.8167 383.648 27.2333 384.414 24.2C384.514 23.7 384.798 23.4 385.264 23.3V23.25ZM398.002 30.55C401.202 25.1167 403.802 21.0833 405.802 18.45C407.835 15.7833 409.485 14.45 410.752 14.45C412.052 14.45 413.268 15.1333 414.402 16.5C415.568 17.8667 416.152 19.3167 416.152 20.85C416.152 23.25 415.602 26.1833 414.502 29.65C412.502 36.05 410.702 39.25 409.102 39.25C408.368 39.25 408.002 38.75 408.002 37.75C408.002 37.05 408.352 35.6333 409.052 33.5C409.785 31.3333 410.452 29.2167 411.052 27.15C411.685 25.05 412.002 23.4833 412.002 22.45C412.002 21.3833 411.835 20.6 411.502 20.1C411.202 19.6 410.885 19.35 410.552 19.35C410.252 19.35 409.935 19.45 409.602 19.65C409.268 19.85 408.885 20.1833 408.452 20.65C408.052 21.1167 407.668 21.5833 407.302 22.05C406.935 22.4833 406.468 23.1167 405.902 23.95C405.368 24.7833 404.918 25.5 404.552 26.1C404.185 26.6667 403.652 27.5 402.952 28.6C402.252 29.7 401.718 30.5333 401.352 31.1C400.985 31.6667 400.502 32.4333 399.902 33.4C399.302 34.3667 398.818 35.1167 398.452 35.65C398.118 36.1833 397.735 36.7667 397.302 37.4C396.468 38.6333 395.802 39.25 395.302 39.25C394.835 39.25 394.285 38.8833 393.652 38.15C393.018 37.3833 392.702 36.7167 392.702 36.15C392.702 35.9833 392.818 35.5333 393.052 34.8C393.685 32.8667 394.385 30.4833 395.152 27.65C395.918 24.7833 396.335 21.5333 396.402 17.9C396.502 15.4667 396.852 14.25 397.452 14.25C398.185 14.25 398.918 14.6333 399.652 15.4C400.385 16.1667 400.752 17.0167 400.752 17.95C400.752 18.85 400.468 20.6167 399.902 23.25C399.368 25.85 398.735 28.2833 398.002 30.55ZM425.362 34.25C425.362 34.8833 425.729 35.2 426.462 35.2C427.729 35.2 429.262 34.85 431.062 34.15C432.895 33.4167 433.912 33.05 434.112 33.05C434.712 33.05 435.012 33.3667 435.012 34C435.012 34.9667 434.012 36.0833 432.012 37.35C430.045 38.6167 428.245 39.25 426.612 39.25C425.012 39.25 423.679 38.8167 422.612 37.95C421.545 37.05 421.012 36.1333 421.012 35.2C421.012 34.2667 421.212 33.0833 421.612 31.65C422.012 30.1833 422.579 28.2667 423.312 25.9C424.079 23.5 424.679 21.5167 425.112 19.95C423.545 20.3167 422.495 20.5 421.962 20.5C421.429 20.5 420.895 20.2333 420.362 19.7C419.862 19.1333 419.612 18.6 419.612 18.1C419.612 17.3 421.779 16.5333 426.112 15.8C426.712 13.0333 427.012 10.5833 427.012 8.45C427.012 7.45 427.345 6.95 428.012 6.95C428.579 6.95 429.279 7.31667 430.112 8.05C430.945 8.75 431.362 9.55 431.362 10.45C431.362 11.35 431.079 12.9333 430.512 15.2C432.412 15.0333 433.929 14.95 435.062 14.95C437.062 14.95 438.062 15.3833 438.062 16.25C438.062 16.75 437.512 17.1667 436.412 17.5C435.345 17.8333 433.079 18.35 429.612 19.05C428.912 21.6833 428.029 24.7 426.962 28.1C425.895 31.4667 425.362 33.5167 425.362 34.25ZM479.266 19.75L478.916 29.15C478.916 31.75 479.033 33.6333 479.266 34.8C480.7 33.3 481.933 31.55 482.966 29.55C484.033 27.5167 484.816 25.6333 485.316 23.9C485.85 22.1667 486.3 20.55 486.666 19.05C487.066 17.5167 487.433 16.3 487.766 15.4C488.1 14.5 488.483 14.05 488.916 14.05C489.55 14.05 490.116 14.3167 490.616 14.85C491.116 15.35 491.366 15.9333 491.366 16.6C491.366 18.3 490.6 21.1 489.066 25C487.766 28.6 486.066 31.9 483.966 34.9C481.866 37.8667 480.233 39.35 479.066 39.35C477.9 39.35 477.016 38.7 476.416 37.4C475.85 36.1 475.533 33.6167 475.466 29.95C475.4 26.25 475.45 23.05 475.616 20.35C473.316 26.6167 471.283 31.35 469.516 34.55C467.75 37.75 466.35 39.35 465.316 39.35C464.85 39.35 464.35 39.1333 463.816 38.7C463.316 38.2667 462.916 37.7 462.616 37C461.883 35.2333 461.25 31.8667 460.716 26.9C460.216 21.9 459.966 18.3333 459.966 16.2C459.966 14.8333 460.383 14.15 461.216 14.15C461.95 14.15 462.616 14.5667 463.216 15.4C463.85 16.2333 464.216 17.0667 464.316 17.9C464.416 18.7 464.5 20.9667 464.566 24.7C464.666 28.4 464.983 31.7 465.516 34.6C466.883 32.2333 468.25 29.2667 469.616 25.7C471.016 22.1333 472.15 19.3333 473.016 17.3C473.916 15.2667 474.733 14.25 475.466 14.25C476.566 14.25 477.466 14.7667 478.166 15.8C478.9 16.8 479.266 18.1167 479.266 19.75ZM498.709 2.4C498.709 1.1 499.109 0.45 499.909 0.45C500.542 0.45 501.209 0.949999 501.909 1.95C502.642 2.95 503.009 3.91667 503.009 4.85C503.009 7.01667 502.459 10.7167 501.359 15.95C500.292 21.15 498.892 26.35 497.159 31.55C500.492 25.5167 503.275 21.1667 505.509 18.5C507.775 15.8 509.709 14.45 511.309 14.45C512.175 14.45 513.175 15.2 514.309 16.7C515.475 18.2 516.059 19.7 516.059 21.2C516.059 22.7 515.642 24.95 514.809 27.95C512.742 35.4833 510.792 39.25 508.959 39.25C508.225 39.25 507.859 38.75 507.859 37.75C507.859 36.75 508.259 35.0667 509.059 32.7C510.825 27.5333 511.709 24.05 511.709 22.25C511.709 21.65 511.559 21.15 511.259 20.75C510.959 20.35 510.592 20.15 510.159 20.15C509.725 20.15 509.192 20.3833 508.559 20.85C507.925 21.3167 507.159 22.1333 506.259 23.3C505.125 24.8 503.942 26.4833 502.709 28.35C501.509 30.2167 500.775 31.35 500.509 31.75C500.275 32.1167 499.842 32.8 499.209 33.8C498.609 34.8 498.159 35.55 497.859 36.05C497.559 36.5167 497.192 37.0333 496.759 37.6C495.992 38.7 495.409 39.25 495.009 39.25C494.609 39.25 494.075 38.8833 493.409 38.15C492.742 37.3833 492.409 36.75 492.409 36.25C492.409 35.7167 492.592 34.7333 492.959 33.3C494.625 26.9 495.675 22.5167 496.109 20.15C497.842 11.4833 498.709 5.56667 498.709 2.4ZM534.715 22.95C534.715 21.8167 534.532 20.75 534.165 19.75C533.799 18.7167 533.265 17.9667 532.565 17.5C530.265 18.1333 528.282 19.9167 526.615 22.85C524.982 25.75 524.165 28.4833 524.165 31.05C524.165 33.6167 524.799 35.2167 526.065 35.85C528.465 35.3833 530.499 33.75 532.165 30.95C533.865 28.1167 534.715 25.45 534.715 22.95ZM521.565 23.4C522.732 20.8 524.249 18.6667 526.115 17C528.015 15.3 529.949 14.45 531.915 14.45C533.915 14.45 535.582 15.3 536.915 17C538.249 18.6667 538.915 20.7167 538.915 23.15C538.915 25.55 538.332 28.0167 537.165 30.55C535.999 33.05 534.382 35.1333 532.315 36.8C530.282 38.4333 528.115 39.25 525.815 39.25C524.115 39.25 522.699 38.4667 521.565 36.9C520.432 35.3333 519.865 33.35 519.865 30.95C519.865 28.5167 520.432 26 521.565 23.4ZM568.74 7.35C568.74 6.68333 569.007 6.05 569.54 5.45C570.073 4.85 570.607 4.55 571.14 4.55C571.707 4.55 572.373 5.23333 573.14 6.6C573.907 7.93333 574.29 9.05 574.29 9.95C574.29 10.2833 574.14 10.5833 573.84 10.85C573.54 11.1167 573.223 11.25 572.89 11.25C572.09 11.25 571.19 10.7667 570.19 9.8C569.223 8.83333 568.74 8.01667 568.74 7.35ZM568.49 14.45C569.123 14.45 569.723 14.8333 570.29 15.6C570.857 16.3667 571.14 17.1167 571.14 17.85C571.14 18.5833 570.657 20.7833 569.69 24.45C568.723 28.0833 567.507 32.1667 566.04 36.7C565.473 38.3667 564.757 39.2 563.89 39.2C563.423 39.2 563.023 39.0167 562.69 38.65C562.357 38.25 562.19 37.8167 562.19 37.35C562.19 36.85 562.307 36.0833 562.54 35.05C562.807 33.9833 563.173 32.5833 563.64 30.85C564.14 29.0833 564.523 27.65 564.79 26.55C565.09 25.45 565.39 24.2167 565.69 22.85C565.99 21.45 566.223 20.3333 566.39 19.5C566.59 18.6333 566.807 17.7667 567.04 16.9C567.507 15.2667 567.99 14.45 568.49 14.45ZM588.554 14.45C589.687 14.45 590.754 15.0833 591.754 16.35C592.754 17.5833 593.254 18.6667 593.254 19.6C593.254 20.1667 592.987 20.45 592.454 20.45C592.087 20.45 591.521 20.1667 590.754 19.6C589.987 19 589.204 18.7 588.404 18.7C587.604 18.7 586.337 19.1667 584.604 20.1C582.904 21.0333 582.054 22.0167 582.054 23.05C582.054 23.8167 583.587 25.1333 586.654 27C587.821 27.7333 588.871 28.6833 589.804 29.85C590.771 30.9833 591.254 32.2167 591.254 33.55C591.254 34.85 590.337 36.1333 588.504 37.4C586.704 38.6333 584.587 39.25 582.154 39.25C579.754 39.25 577.621 38.6667 575.754 37.5C573.921 36.3333 573.004 35.2333 573.004 34.2C573.004 33.7667 573.104 33.4333 573.304 33.2C573.537 32.9333 573.821 32.8 574.154 32.8C574.487 32.8 574.954 33.0167 575.554 33.45C577.354 34.75 579.221 35.4 581.154 35.4C583.121 35.4 584.537 35.1833 585.404 34.75C586.271 34.2833 586.704 33.6833 586.704 32.95C586.704 32.1833 586.221 31.3833 585.254 30.55C584.287 29.6833 583.221 28.9167 582.054 28.25C580.921 27.5833 579.871 26.7667 578.904 25.8C577.937 24.8333 577.454 23.85 577.454 22.85C577.454 21.0833 578.837 19.25 581.604 17.35C584.404 15.4167 586.721 14.45 588.554 14.45ZM601.243 40.3C600.41 40.3 599.46 39.7667 598.393 38.7C597.326 37.6 596.793 36.7 596.793 36C596.793 35.2667 597.076 34.55 597.643 33.85C598.243 33.1167 598.843 32.75 599.443 32.75C600.076 32.75 600.793 33.5667 601.593 35.2C602.426 36.8333 602.843 38.0667 602.843 38.9C602.843 39.1667 602.66 39.4667 602.293 39.8C601.926 40.1333 601.576 40.3 601.243 40.3ZM613.108 40.3C612.275 40.3 611.325 39.7667 610.258 38.7C609.192 37.6 608.658 36.7 608.658 36C608.658 35.2667 608.942 34.55 609.508 33.85C610.108 33.1167 610.708 32.75 611.308 32.75C611.942 32.75 612.658 33.5667 613.458 35.2C614.292 36.8333 614.708 38.0667 614.708 38.9C614.708 39.1667 614.525 39.4667 614.158 39.8C613.792 40.1333 613.442 40.3 613.108 40.3ZM624.974 40.3C624.14 40.3 623.19 39.7667 622.124 38.7C621.057 37.6 620.524 36.7 620.524 36C620.524 35.2667 620.807 34.55 621.374 33.85C621.974 33.1167 622.574 32.75 623.174 32.75C623.807 32.75 624.524 33.5667 625.324 35.2C626.157 36.8333 626.574 38.0667 626.574 38.9C626.574 39.1667 626.39 39.4667 626.024 39.8C625.657 40.1333 625.307 40.3 624.974 40.3Z" fill="#E3E3E3"/>
<defs>
<filter id="filter0_d" x="94" y="115" width="326" height="143.5" filterUnits="userSpaceOnUse" color-interpolation-filters="sRGB">
<feFlood flood-opacity="0" result="BackgroundImageFix"/>
<feColorMatrix in="SourceAlpha" type="matrix" values="0 0 0 0 0 0 0 0 0 0 0 0 0 0 0 0 0 0 127 0"/>
<feOffset dy="4"/>
<feGaussianBlur stdDeviation="2"/>
<feColorMatrix type="matrix" values="0 0 0 0 0 0 0 0 0 0 0 0 0 0 0 0 0 0 0.25 0"/>
<feBlend mode="normal" in2="BackgroundImageFix" result="effect1_dropShadow"/>
<feBlend mode="normal" in="SourceGraphic" in2="effect1_dropShadow" result="shape"/>
</filter>
<filter id="filter1_d" x="96" y="450" width="326" height="102" filterUnits="userSpaceOnUse" color-interpolation-filters="sRGB">
<feFlood flood-opacity="0" result="BackgroundImageFix"/>
<feColorMatrix in="SourceAlpha" type="matrix" values="0 0 0 0 0 0 0 0 0 0 0 0 0 0 0 0 0 0 127 0"/>
<feOffset dy="4"/>
<feGaussianBlur stdDeviation="2"/>
<feColorMatrix type="matrix" values="0 0 0 0 0 0 0 0 0 0 0 0 0 0 0 0 0 0 0.25 0"/>
<feBlend mode="normal" in2="BackgroundImageFix" result="effect1_dropShadow"/>
<feBlend mode="normal" in="SourceGraphic" in2="effect1_dropShadow" result="shape"/>
</filter>
<filter id="filter2_d" x="187.772" y="478.315" width="142.394" height="35.195" filterUnits="userSpaceOnUse" color-interpolation-filters="sRGB">
<feFlood flood-opacity="0" result="BackgroundImageFix"/>
<feColorMatrix in="SourceAlpha" type="matrix" values="0 0 0 0 0 0 0 0 0 0 0 0 0 0 0 0 0 0 127 0"/>
<feOffset dy="4"/>
<feGaussianBlur stdDeviation="2"/>
<feColorMatrix type="matrix" values="0 0 0 0 0 0 0 0 0 0 0 0 0 0 0 0 0 0 0.25 0"/>
<feBlend mode="normal" in2="BackgroundImageFix" result="effect1_dropShadow"/>
<feBlend mode="normal" in="SourceGraphic" in2="effect1_dropShadow" result="shape"/>
</filter>
<filter id="filter3_d" x="174" y="284" width="327" height="149" filterUnits="userSpaceOnUse" color-interpolation-filters="sRGB">
<feFlood flood-opacity="0" result="BackgroundImageFix"/>
<feColorMatrix in="SourceAlpha" type="matrix" values="0 0 0 0 0 0 0 0 0 0 0 0 0 0 0 0 0 0 127 0"/>
<feOffset dy="4"/>
<feGaussianBlur stdDeviation="2"/>
<feColorMatrix type="matrix" values="0 0 0 0 0 0 0 0 0 0 0 0 0 0 0 0 0 0 0.25 0"/>
<feBlend mode="normal" in2="BackgroundImageFix" result="effect1_dropShadow"/>
<feBlend mode="normal" in="SourceGraphic" in2="effect1_dropShadow" result="shape"/>
</filter>
</defs>
</svg>
