<svg width="160" height="92" viewBox="0 0 160 92" fill="none" xmlns="http://www.w3.org/2000/svg">
<rect x="3" y="67" width="154" height="22" stroke="#94A8ED" stroke-width="6"/>
<line x1="126" y1="60" x2="126" y2="64" stroke="#94A8ED" stroke-width="6"/>
<line x1="131" y1="60" x2="131" y2="64" stroke="#94A8ED" stroke-width="6"/>
<line x1="136" y1="60" x2="136" y2="64" stroke="#94A8ED" stroke-width="6"/>
<line x1="141" y1="60" x2="141" y2="64" stroke="#94A8ED" stroke-width="6"/>
<line x1="24" y1="28" x2="24" y2="32" stroke="#94A8ED" stroke-width="6"/>
<line x1="29" y1="28" x2="29" y2="32" stroke="#94A8ED" stroke-width="6"/>
<line x1="34" y1="28" x2="34" y2="32" stroke="#94A8ED" stroke-width="6"/>
<line x1="39" y1="28" x2="39" y2="32" stroke="#94A8ED" stroke-width="6"/>
<line x1="10" y1="77" x2="91" y2="77" stroke="#94A8ED" stroke-width="6"/>
<line x1="101" y1="77" x2="134" y2="77" stroke="#94A8ED" stroke-width="6"/>
<line x1="143" y1="77" x2="149" y2="77" stroke="#94A8ED" stroke-width="6"/>
<rect x="3" y="35" width="154" height="22" stroke="#94A8ED" stroke-width="6"/>
<line x1="10" y1="45" x2="91" y2="45" stroke="#94A8ED" stroke-width="6"/>
<line x1="101" y1="45" x2="134" y2="45" stroke="#94A8ED" stroke-width="6"/>
<line x1="143" y1="45" x2="149" y2="45" stroke="#94A8ED" stroke-width="6"/>
<rect x="3" y="3" width="154" height="22" stroke="#94A8ED" stroke-width="6"/>
<line x1="10" y1="13" x2="91" y2="13" stroke="#94A8ED" stroke-width="6"/>
<line x1="101" y1="13" x2="134" y2="13" stroke="#94A8ED" stroke-width="6"/>
<line x1="143" y1="13" x2="149" y2="13" stroke="#94A8ED" stroke-width="6"/>
</svg>
