<svg width="160" height="125" viewBox="0 0 160 125" fill="none" xmlns="http://www.w3.org/2000/svg">
<line x1="20" y1="60" x2="20" y2="65" stroke="#94A8ED" stroke-width="6"/>
<line x1="25" y1="60" x2="25" y2="65" stroke="#94A8ED" stroke-width="6"/>
<line x1="30" y1="60" x2="30" y2="65" stroke="#94A8ED" stroke-width="6"/>
<line x1="35" y1="60" x2="35" y2="65" stroke="#94A8ED" stroke-width="6"/>
<line x1="20" y1="28" x2="20" y2="32" stroke="#94A8ED" stroke-width="6"/>
<line x1="25" y1="28" x2="25" y2="32" stroke="#94A8ED" stroke-width="6"/>
<line x1="30" y1="28" x2="30" y2="32" stroke="#94A8ED" stroke-width="6"/>
<line x1="35" y1="28" x2="35" y2="32" stroke="#94A8ED" stroke-width="6"/>
<rect x="3" y="100" width="154" height="22" stroke="#94A8ED" stroke-width="6"/>
<line x1="126" y1="93" x2="126" y2="97" stroke="#94A8ED" stroke-width="6"/>
<line x1="131" y1="93" x2="131" y2="97" stroke="#94A8ED" stroke-width="6"/>
<line x1="136" y1="93" x2="136" y2="97" stroke="#94A8ED" stroke-width="6"/>
<line x1="141" y1="93" x2="141" y2="97" stroke="#94A8ED" stroke-width="6"/>
<line x1="10" y1="110" x2="91" y2="110" stroke="#94A8ED" stroke-width="6"/>
<line x1="101" y1="110" x2="134" y2="110" stroke="#94A8ED" stroke-width="6"/>
<line x1="143" y1="110" x2="149" y2="110" stroke="#94A8ED" stroke-width="6"/>
<rect x="3" y="68" width="154" height="22" stroke="#94A8ED" stroke-width="6"/>
<line x1="10" y1="78" x2="91" y2="78" stroke="#94A8ED" stroke-width="6"/>
<line x1="101" y1="78" x2="134" y2="78" stroke="#94A8ED" stroke-width="6"/>
<line x1="143" y1="78" x2="149" y2="78" stroke="#94A8ED" stroke-width="6"/>
<rect x="3" y="35" width="154" height="22" stroke="#94A8ED" stroke-width="6"/>
<line x1="126" y1="28" x2="126" y2="32" stroke="#94A8ED" stroke-width="6"/>
<line x1="131" y1="28" x2="131" y2="32" stroke="#94A8ED" stroke-width="6"/>
<line x1="136" y1="28" x2="136" y2="32" stroke="#94A8ED" stroke-width="6"/>
<line x1="141" y1="28" x2="141" y2="32" stroke="#94A8ED" stroke-width="6"/>
<line x1="10" y1="45" x2="91" y2="45" stroke="#94A8ED" stroke-width="6"/>
<line x1="101" y1="45" x2="134" y2="45" stroke="#94A8ED" stroke-width="6"/>
<line x1="143" y1="45" x2="149" y2="45" stroke="#94A8ED" stroke-width="6"/>
<rect x="3" y="3" width="154" height="22" stroke="#94A8ED" stroke-width="6"/>
<line x1="10" y1="13" x2="91" y2="13" stroke="#94A8ED" stroke-width="6"/>
<line x1="101" y1="13" x2="134" y2="13" stroke="#94A8ED" stroke-width="6"/>
<line x1="143" y1="13" x2="149" y2="13" stroke="#94A8ED" stroke-width="6"/>
</svg>
