<?xml version="1.0" encoding="utf-8"?>
<!-- Generator: Adobe Illustrator 24.0.1, SVG Export Plug-In . SVG Version: 6.00 Build 0)  -->
<svg version="1.1" xmlns="http://www.w3.org/2000/svg" xmlns:xlink="http://www.w3.org/1999/xlink" x="0px" y="0px"
	 viewBox="0 0 750 500" style="enable-background:new 0 0 750 500;" xml:space="preserve">
<style type="text/css">
	.st0{fill:#FFFFFF;}
	.st1{opacity:0.32;}
	.st2{opacity:0.11;clip-path:url(#XMLID_3_);}
	.st3{fill:#A630B0;}
	.st4{opacity:0.25;clip-path:url(#XMLID_4_);fill:#71D3EA;}
	.st5{opacity:0.25;clip-path:url(#XMLID_4_);fill:#163191;}
	.st6{clip-path:url(#XMLID_4_);fill:#20254A;}
	.st7{clip-path:url(#XMLID_5_);fill:url(#XMLID_6_);}
	.st8{clip-path:url(#XMLID_5_);fill:#FEA7AF;}
	.st9{opacity:0.29;clip-path:url(#XMLID_5_);fill:#FFFFFF;}
	.st10{opacity:0.29;clip-path:url(#XMLID_5_);fill:#FEA7AF;}
	.st11{clip-path:url(#XMLID_5_);fill:#FFFFFF;}
	.st12{opacity:0.33;clip-path:url(#XMLID_5_);fill:#FEA7AF;}
	.st13{opacity:0.22;clip-path:url(#XMLID_5_);}
	.st14{fill:url(#XMLID_14_);}
	.st15{fill:url(#XMLID_22_);}
	.st16{clip-path:url(#XMLID_5_);}
	.st17{fill:url(#XMLID_24_);}
	.st18{fill:url(#XMLID_26_);}
	.st19{opacity:0.33;clip-path:url(#XMLID_5_);}
	.st20{fill:url(#XMLID_29_);}
	.st21{fill:url(#XMLID_32_);}
	.st22{opacity:0.35;clip-path:url(#XMLID_5_);}
	.st23{fill:url(#XMLID_33_);}
	.st24{fill:url(#XMLID_34_);}
	.st25{fill:url(#XMLID_35_);}
	.st26{fill:url(#XMLID_36_);}
	.st27{fill:url(#XMLID_37_);}
	.st28{fill:url(#XMLID_38_);}
	.st29{fill:url(#XMLID_39_);}
	.st30{fill:url(#XMLID_40_);}
	.st31{fill:url(#XMLID_41_);}
	.st32{fill:url(#XMLID_42_);}
	.st33{fill:#FFECFF;}
	.st34{fill:url(#XMLID_43_);}
	.st35{fill:url(#XMLID_44_);}
	.st36{fill:#CC7DFF;}
	.st37{fill:url(#XMLID_45_);}
	.st38{fill:url(#XMLID_46_);}
	.st39{fill:url(#XMLID_47_);}
	.st40{fill:url(#XMLID_48_);}
	.st41{fill:#DDA9FF;}
	.st42{fill:url(#XMLID_49_);}
	.st43{fill:url(#XMLID_50_);}
	.st44{fill:url(#XMLID_51_);}
	.st45{fill:url(#XMLID_52_);}
	.st46{fill:url(#XMLID_53_);}
	.st47{fill:url(#XMLID_54_);}
	.st48{fill:url(#XMLID_55_);}
	.st49{clip-path:url(#XMLID_56_);fill:url(#XMLID_57_);}
	.st50{fill:#FFDCFF;}
	.st51{fill:url(#XMLID_58_);}
	.st52{fill:#FFE4FF;}
	.st53{fill:url(#XMLID_59_);}
	.st54{fill:url(#XMLID_60_);}
	.st55{fill:url(#XMLID_61_);}
	.st56{fill:url(#XMLID_62_);}
	.st57{fill:url(#XMLID_63_);}
	.st58{fill:url(#XMLID_64_);}
	.st59{fill:#FFE7FF;}
	.st60{fill:url(#XMLID_65_);}
	.st61{fill:#7C26A4;}
	.st62{fill:url(#XMLID_66_);}
	.st63{fill:url(#XMLID_67_);}
	.st64{opacity:0.42;fill:#552C84;}
	.st65{fill:url(#XMLID_68_);}
</style>
<g id="BACKGROUND">
</g>
<g id="OBJECTS">
	<g>
		<g>
			<rect id="XMLID_533_" class="st0" width="750" height="500"/>
			<g id="XMLID_313_" class="st1">
				<defs>
					<rect id="XMLID_367_" class="st1" width="750" height="500"/>
				</defs>
				<clipPath id="XMLID_3_">
					<use xlink:href="#XMLID_367_"  style="overflow:visible;"/>
				</clipPath>
				<g id="XMLID_368_" class="st2">
					<g id="XMLID_513_">
						<path id="XMLID_532_" class="st3" d="M28.2-26.5c0,0.9-0.7,1.7-1.6,1.7c-0.9,0-1.6-0.8-1.6-1.7c0-0.9,0.7-1.7,1.6-1.7
							C27.5-28.2,28.2-27.4,28.2-26.5z"/>
						<path id="XMLID_531_" class="st3" d="M97.8-26.5c0,0.9-0.7,1.7-1.6,1.7c-0.9,0-1.6-0.8-1.6-1.7c0-0.9,0.7-1.7,1.6-1.7
							C97-28.2,97.8-27.4,97.8-26.5z"/>
						<path id="XMLID_530_" class="st3" d="M167.3-26.5c0,0.9-0.7,1.7-1.6,1.7c-0.9,0-1.6-0.8-1.6-1.7c0-0.9,0.7-1.7,1.6-1.7
							C166.6-28.2,167.3-27.4,167.3-26.5z"/>
						<path id="XMLID_529_" class="st3" d="M236.8-26.5c0,0.9-0.7,1.7-1.6,1.7c-0.9,0-1.6-0.8-1.6-1.7c0-0.9,0.7-1.7,1.6-1.7
							C236.1-28.2,236.8-27.4,236.8-26.5z"/>
						<path id="XMLID_528_" class="st3" d="M306.3-26.5c0,0.9-0.7,1.7-1.6,1.7c-0.9,0-1.6-0.8-1.6-1.7c0-0.9,0.7-1.7,1.6-1.7
							C305.6-28.2,306.3-27.4,306.3-26.5z"/>
						<path id="XMLID_527_" class="st3" d="M375.9-26.5c0,0.9-0.7,1.7-1.6,1.7c-0.9,0-1.6-0.8-1.6-1.7c0-0.9,0.7-1.7,1.6-1.7
							C375.1-28.2,375.9-27.4,375.9-26.5z"/>
						<path id="XMLID_526_" class="st3" d="M445.4-26.5c0,0.9-0.7,1.7-1.6,1.7c-0.9,0-1.6-0.8-1.6-1.7c0-0.9,0.7-1.7,1.6-1.7
							C444.7-28.2,445.4-27.4,445.4-26.5z"/>
						<path id="XMLID_525_" class="st3" d="M514.9-26.5c0,0.9-0.7,1.7-1.6,1.7c-0.9,0-1.6-0.8-1.6-1.7c0-0.9,0.7-1.7,1.6-1.7
							C514.2-28.2,514.9-27.4,514.9-26.5z"/>
						<path id="XMLID_521_" class="st3" d="M584.5-26.5c0,0.9-0.7,1.7-1.6,1.7c-0.9,0-1.6-0.8-1.6-1.7c0-0.9,0.7-1.7,1.6-1.7
							C583.7-28.2,584.5-27.4,584.5-26.5z"/>
						<path id="XMLID_517_" class="st3" d="M654-26.5c0,0.9-0.7,1.7-1.6,1.7c-0.9,0-1.6-0.8-1.6-1.7c0-0.9,0.7-1.7,1.6-1.7
							C653.3-28.2,654-27.4,654-26.5z"/>
						<path id="XMLID_516_" class="st3" d="M723.5-26.5c0,0.9-0.7,1.7-1.6,1.7c-0.9,0-1.6-0.8-1.6-1.7c0-0.9,0.7-1.7,1.6-1.7
							C722.8-28.2,723.5-27.4,723.5-26.5z"/>
					</g>
					<g id="XMLID_496_">
						<path id="XMLID_512_" class="st3" d="M28.2,42.6c0,0.9-0.7,1.7-1.6,1.7c-0.9,0-1.6-0.8-1.6-1.7c0-0.9,0.7-1.7,1.6-1.7
							C27.5,40.9,28.2,41.7,28.2,42.6z"/>
						<path id="XMLID_508_" class="st3" d="M97.8,42.6c0,0.9-0.7,1.7-1.6,1.7c-0.9,0-1.6-0.8-1.6-1.7c0-0.9,0.7-1.7,1.6-1.7
							C97,40.9,97.8,41.7,97.8,42.6z"/>
						<path id="XMLID_507_" class="st3" d="M167.3,42.6c0,0.9-0.7,1.7-1.6,1.7c-0.9,0-1.6-0.8-1.6-1.7c0-0.9,0.7-1.7,1.6-1.7
							C166.6,40.9,167.3,41.7,167.3,42.6z"/>
						<path id="XMLID_506_" class="st3" d="M236.8,42.6c0,0.9-0.7,1.7-1.6,1.7c-0.9,0-1.6-0.8-1.6-1.7c0-0.9,0.7-1.7,1.6-1.7
							C236.1,40.9,236.8,41.7,236.8,42.6z"/>
						<path id="XMLID_505_" class="st3" d="M306.3,42.6c0,0.9-0.7,1.7-1.6,1.7c-0.9,0-1.6-0.8-1.6-1.7c0-0.9,0.7-1.7,1.6-1.7
							C305.6,40.9,306.3,41.7,306.3,42.6z"/>
						<path id="XMLID_502_" class="st3" d="M375.9,42.6c0,0.9-0.7,1.7-1.6,1.7c-0.9,0-1.6-0.8-1.6-1.7c0-0.9,0.7-1.7,1.6-1.7
							C375.1,40.9,375.9,41.7,375.9,42.6z"/>
						<path id="XMLID_501_" class="st3" d="M445.4,42.6c0,0.9-0.7,1.7-1.6,1.7c-0.9,0-1.6-0.8-1.6-1.7c0-0.9,0.7-1.7,1.6-1.7
							C444.7,40.9,445.4,41.7,445.4,42.6z"/>
						<path id="XMLID_500_" class="st3" d="M514.9,42.6c0,0.9-0.7,1.7-1.6,1.7c-0.9,0-1.6-0.8-1.6-1.7c0-0.9,0.7-1.7,1.6-1.7
							C514.2,40.9,514.9,41.7,514.9,42.6z"/>
						<path id="XMLID_499_" class="st3" d="M584.5,42.6c0,0.9-0.7,1.7-1.6,1.7c-0.9,0-1.6-0.8-1.6-1.7c0-0.9,0.7-1.7,1.6-1.7
							C583.7,40.9,584.5,41.7,584.5,42.6z"/>
						<path id="XMLID_498_" class="st3" d="M654,42.6c0,0.9-0.7,1.7-1.6,1.7c-0.9,0-1.6-0.8-1.6-1.7c0-0.9,0.7-1.7,1.6-1.7
							C653.3,40.9,654,41.7,654,42.6z"/>
						<path id="XMLID_497_" class="st3" d="M723.5,42.6c0,0.9-0.7,1.7-1.6,1.7c-0.9,0-1.6-0.8-1.6-1.7c0-0.9,0.7-1.7,1.6-1.7
							C722.8,40.9,723.5,41.7,723.5,42.6z"/>
					</g>
					<g id="XMLID_484_">
						<path id="XMLID_495_" class="st3" d="M28.2,111.8c0,0.9-0.7,1.7-1.6,1.7c-0.9,0-1.6-0.8-1.6-1.7c0-0.9,0.7-1.7,1.6-1.7
							C27.5,110.1,28.2,110.8,28.2,111.8z"/>
						<path id="XMLID_494_" class="st3" d="M97.8,111.8c0,0.9-0.7,1.7-1.6,1.7c-0.9,0-1.6-0.8-1.6-1.7c0-0.9,0.7-1.7,1.6-1.7
							C97,110.1,97.8,110.8,97.8,111.8z"/>
						<path id="XMLID_493_" class="st3" d="M167.3,111.8c0,0.9-0.7,1.7-1.6,1.7c-0.9,0-1.6-0.8-1.6-1.7c0-0.9,0.7-1.7,1.6-1.7
							C166.6,110.1,167.3,110.8,167.3,111.8z"/>
						<path id="XMLID_492_" class="st3" d="M236.8,111.8c0,0.9-0.7,1.7-1.6,1.7c-0.9,0-1.6-0.8-1.6-1.7c0-0.9,0.7-1.7,1.6-1.7
							C236.1,110.1,236.8,110.8,236.8,111.8z"/>
						<path id="XMLID_491_" class="st3" d="M306.3,111.8c0,0.9-0.7,1.7-1.6,1.7c-0.9,0-1.6-0.8-1.6-1.7c0-0.9,0.7-1.7,1.6-1.7
							C305.6,110.1,306.3,110.8,306.3,111.8z"/>
						<path id="XMLID_490_" class="st3" d="M375.9,111.8c0,0.9-0.7,1.7-1.6,1.7c-0.9,0-1.6-0.8-1.6-1.7c0-0.9,0.7-1.7,1.6-1.7
							C375.1,110.1,375.9,110.8,375.9,111.8z"/>
						<path id="XMLID_489_" class="st3" d="M445.4,111.8c0,0.9-0.7,1.7-1.6,1.7c-0.9,0-1.6-0.8-1.6-1.7c0-0.9,0.7-1.7,1.6-1.7
							C444.7,110.1,445.4,110.8,445.4,111.8z"/>
						<path id="XMLID_488_" class="st3" d="M514.9,111.8c0,0.9-0.7,1.7-1.6,1.7c-0.9,0-1.6-0.8-1.6-1.7c0-0.9,0.7-1.7,1.6-1.7
							C514.2,110.1,514.9,110.8,514.9,111.8z"/>
						<path id="XMLID_487_" class="st3" d="M584.5,111.8c0,0.9-0.7,1.7-1.6,1.7c-0.9,0-1.6-0.8-1.6-1.7c0-0.9,0.7-1.7,1.6-1.7
							C583.7,110.1,584.5,110.8,584.5,111.8z"/>
						<path id="XMLID_486_" class="st3" d="M654,111.8c0,0.9-0.7,1.7-1.6,1.7c-0.9,0-1.6-0.8-1.6-1.7c0-0.9,0.7-1.7,1.6-1.7
							C653.3,110.1,654,110.8,654,111.8z"/>
						<path id="XMLID_485_" class="st3" d="M723.5,111.8c0,0.9-0.7,1.7-1.6,1.7c-0.9,0-1.6-0.8-1.6-1.7c0-0.9,0.7-1.7,1.6-1.7
							C722.8,110.1,723.5,110.8,723.5,111.8z"/>
					</g>
					<g id="XMLID_472_">
						<path id="XMLID_483_" class="st3" d="M28.2,180.9c0,0.9-0.7,1.7-1.6,1.7c-0.9,0-1.6-0.8-1.6-1.7c0-0.9,0.7-1.7,1.6-1.7
							C27.5,179.2,28.2,179.9,28.2,180.9z"/>
						<path id="XMLID_482_" class="st3" d="M97.8,180.9c0,0.9-0.7,1.7-1.6,1.7c-0.9,0-1.6-0.8-1.6-1.7c0-0.9,0.7-1.7,1.6-1.7
							C97,179.2,97.8,179.9,97.8,180.9z"/>
						<path id="XMLID_481_" class="st3" d="M167.3,180.9c0,0.9-0.7,1.7-1.6,1.7c-0.9,0-1.6-0.8-1.6-1.7c0-0.9,0.7-1.7,1.6-1.7
							C166.6,179.2,167.3,179.9,167.3,180.9z"/>
						<path id="XMLID_480_" class="st3" d="M236.8,180.9c0,0.9-0.7,1.7-1.6,1.7c-0.9,0-1.6-0.8-1.6-1.7c0-0.9,0.7-1.7,1.6-1.7
							C236.1,179.2,236.8,179.9,236.8,180.9z"/>
						<path id="XMLID_479_" class="st3" d="M306.3,180.9c0,0.9-0.7,1.7-1.6,1.7c-0.9,0-1.6-0.8-1.6-1.7c0-0.9,0.7-1.7,1.6-1.7
							C305.6,179.2,306.3,179.9,306.3,180.9z"/>
						<path id="XMLID_478_" class="st3" d="M375.9,180.9c0,0.9-0.7,1.7-1.6,1.7c-0.9,0-1.6-0.8-1.6-1.7c0-0.9,0.7-1.7,1.6-1.7
							C375.1,179.2,375.9,179.9,375.9,180.9z"/>
						<path id="XMLID_477_" class="st3" d="M445.4,180.9c0,0.9-0.7,1.7-1.6,1.7c-0.9,0-1.6-0.8-1.6-1.7c0-0.9,0.7-1.7,1.6-1.7
							C444.7,179.2,445.4,179.9,445.4,180.9z"/>
						<path id="XMLID_476_" class="st3" d="M514.9,180.9c0,0.9-0.7,1.7-1.6,1.7c-0.9,0-1.6-0.8-1.6-1.7c0-0.9,0.7-1.7,1.6-1.7
							C514.2,179.2,514.9,179.9,514.9,180.9z"/>
						<path id="XMLID_475_" class="st3" d="M584.5,180.9c0,0.9-0.7,1.7-1.6,1.7c-0.9,0-1.6-0.8-1.6-1.7c0-0.9,0.7-1.7,1.6-1.7
							C583.7,179.2,584.5,179.9,584.5,180.9z"/>
						<path id="XMLID_474_" class="st3" d="M654,180.9c0,0.9-0.7,1.7-1.6,1.7c-0.9,0-1.6-0.8-1.6-1.7c0-0.9,0.7-1.7,1.6-1.7
							C653.3,179.2,654,179.9,654,180.9z"/>
						<path id="XMLID_473_" class="st3" d="M723.5,180.9c0,0.9-0.7,1.7-1.6,1.7c-0.9,0-1.6-0.8-1.6-1.7c0-0.9,0.7-1.7,1.6-1.7
							C722.8,179.2,723.5,179.9,723.5,180.9z"/>
					</g>
					<g id="XMLID_460_">
						<path id="XMLID_471_" class="st3" d="M28.2,250c0,0.9-0.7,1.7-1.6,1.7c-0.9,0-1.6-0.8-1.6-1.7s0.7-1.7,1.6-1.7
							C27.5,248.3,28.2,249.1,28.2,250z"/>
						<path id="XMLID_470_" class="st3" d="M97.8,250c0,0.9-0.7,1.7-1.6,1.7c-0.9,0-1.6-0.8-1.6-1.7s0.7-1.7,1.6-1.7
							C97,248.3,97.8,249.1,97.8,250z"/>
						<path id="XMLID_469_" class="st3" d="M167.3,250c0,0.9-0.7,1.7-1.6,1.7c-0.9,0-1.6-0.8-1.6-1.7s0.7-1.7,1.6-1.7
							C166.6,248.3,167.3,249.1,167.3,250z"/>
						<path id="XMLID_468_" class="st3" d="M236.8,250c0,0.9-0.7,1.7-1.6,1.7c-0.9,0-1.6-0.8-1.6-1.7s0.7-1.7,1.6-1.7
							C236.1,248.3,236.8,249.1,236.8,250z"/>
						<path id="XMLID_467_" class="st3" d="M306.3,250c0,0.9-0.7,1.7-1.6,1.7c-0.9,0-1.6-0.8-1.6-1.7s0.7-1.7,1.6-1.7
							C305.6,248.3,306.3,249.1,306.3,250z"/>
						<path id="XMLID_466_" class="st3" d="M375.9,250c0,0.9-0.7,1.7-1.6,1.7c-0.9,0-1.6-0.8-1.6-1.7s0.7-1.7,1.6-1.7
							C375.1,248.3,375.9,249.1,375.9,250z"/>
						<path id="XMLID_465_" class="st3" d="M445.4,250c0,0.9-0.7,1.7-1.6,1.7c-0.9,0-1.6-0.8-1.6-1.7s0.7-1.7,1.6-1.7
							C444.7,248.3,445.4,249.1,445.4,250z"/>
						<path id="XMLID_464_" class="st3" d="M514.9,250c0,0.9-0.7,1.7-1.6,1.7c-0.9,0-1.6-0.8-1.6-1.7s0.7-1.7,1.6-1.7
							C514.2,248.3,514.9,249.1,514.9,250z"/>
						<path id="XMLID_463_" class="st3" d="M584.5,250c0,0.9-0.7,1.7-1.6,1.7c-0.9,0-1.6-0.8-1.6-1.7s0.7-1.7,1.6-1.7
							C583.7,248.3,584.5,249.1,584.5,250z"/>
						<path id="XMLID_462_" class="st3" d="M654,250c0,0.9-0.7,1.7-1.6,1.7c-0.9,0-1.6-0.8-1.6-1.7s0.7-1.7,1.6-1.7
							C653.3,248.3,654,249.1,654,250z"/>
						<path id="XMLID_461_" class="st3" d="M723.5,250c0,0.9-0.7,1.7-1.6,1.7c-0.9,0-1.6-0.8-1.6-1.7s0.7-1.7,1.6-1.7
							C722.8,248.3,723.5,249.1,723.5,250z"/>
					</g>
					<g id="XMLID_448_">
						<path id="XMLID_459_" class="st3" d="M28.2,319.1c0,0.9-0.7,1.7-1.6,1.7c-0.9,0-1.6-0.8-1.6-1.7c0-0.9,0.7-1.7,1.6-1.7
							C27.5,317.4,28.2,318.2,28.2,319.1z"/>
						<path id="XMLID_458_" class="st3" d="M97.8,319.1c0,0.9-0.7,1.7-1.6,1.7c-0.9,0-1.6-0.8-1.6-1.7c0-0.9,0.7-1.7,1.6-1.7
							C97,317.4,97.8,318.2,97.8,319.1z"/>
						<path id="XMLID_457_" class="st3" d="M167.3,319.1c0,0.9-0.7,1.7-1.6,1.7c-0.9,0-1.6-0.8-1.6-1.7c0-0.9,0.7-1.7,1.6-1.7
							C166.6,317.4,167.3,318.2,167.3,319.1z"/>
						<path id="XMLID_456_" class="st3" d="M236.8,319.1c0,0.9-0.7,1.7-1.6,1.7c-0.9,0-1.6-0.8-1.6-1.7c0-0.9,0.7-1.7,1.6-1.7
							C236.1,317.4,236.8,318.2,236.8,319.1z"/>
						<path id="XMLID_455_" class="st3" d="M306.3,319.1c0,0.9-0.7,1.7-1.6,1.7c-0.9,0-1.6-0.8-1.6-1.7c0-0.9,0.7-1.7,1.6-1.7
							C305.6,317.4,306.3,318.2,306.3,319.1z"/>
						<path id="XMLID_454_" class="st3" d="M375.9,319.1c0,0.9-0.7,1.7-1.6,1.7c-0.9,0-1.6-0.8-1.6-1.7c0-0.9,0.7-1.7,1.6-1.7
							C375.1,317.4,375.9,318.2,375.9,319.1z"/>
						<path id="XMLID_453_" class="st3" d="M445.4,319.1c0,0.9-0.7,1.7-1.6,1.7c-0.9,0-1.6-0.8-1.6-1.7c0-0.9,0.7-1.7,1.6-1.7
							C444.7,317.4,445.4,318.2,445.4,319.1z"/>
						<path id="XMLID_452_" class="st3" d="M514.9,319.1c0,0.9-0.7,1.7-1.6,1.7c-0.9,0-1.6-0.8-1.6-1.7c0-0.9,0.7-1.7,1.6-1.7
							C514.2,317.4,514.9,318.2,514.9,319.1z"/>
						<path id="XMLID_451_" class="st3" d="M584.5,319.1c0,0.9-0.7,1.7-1.6,1.7c-0.9,0-1.6-0.8-1.6-1.7c0-0.9,0.7-1.7,1.6-1.7
							C583.7,317.4,584.5,318.2,584.5,319.1z"/>
						<path id="XMLID_450_" class="st3" d="M654,319.1c0,0.9-0.7,1.7-1.6,1.7c-0.9,0-1.6-0.8-1.6-1.7c0-0.9,0.7-1.7,1.6-1.7
							C653.3,317.4,654,318.2,654,319.1z"/>
						<path id="XMLID_449_" class="st3" d="M723.5,319.1c0,0.9-0.7,1.7-1.6,1.7c-0.9,0-1.6-0.8-1.6-1.7c0-0.9,0.7-1.7,1.6-1.7
							C722.8,317.4,723.5,318.2,723.5,319.1z"/>
					</g>
					<g id="XMLID_436_">
						<path id="XMLID_447_" class="st3" d="M28.2,388.2c0,0.9-0.7,1.7-1.6,1.7c-0.9,0-1.6-0.8-1.6-1.7c0-0.9,0.7-1.7,1.6-1.7
							C27.5,386.5,28.2,387.3,28.2,388.2z"/>
						<path id="XMLID_446_" class="st3" d="M97.8,388.2c0,0.9-0.7,1.7-1.6,1.7c-0.9,0-1.6-0.8-1.6-1.7c0-0.9,0.7-1.7,1.6-1.7
							C97,386.5,97.8,387.3,97.8,388.2z"/>
						<path id="XMLID_445_" class="st3" d="M167.3,388.2c0,0.9-0.7,1.7-1.6,1.7c-0.9,0-1.6-0.8-1.6-1.7c0-0.9,0.7-1.7,1.6-1.7
							C166.6,386.5,167.3,387.3,167.3,388.2z"/>
						<path id="XMLID_444_" class="st3" d="M236.8,388.2c0,0.9-0.7,1.7-1.6,1.7c-0.9,0-1.6-0.8-1.6-1.7c0-0.9,0.7-1.7,1.6-1.7
							C236.1,386.5,236.8,387.3,236.8,388.2z"/>
						<path id="XMLID_443_" class="st3" d="M306.3,388.2c0,0.9-0.7,1.7-1.6,1.7c-0.9,0-1.6-0.8-1.6-1.7c0-0.9,0.7-1.7,1.6-1.7
							C305.6,386.5,306.3,387.3,306.3,388.2z"/>
						<path id="XMLID_442_" class="st3" d="M375.9,388.2c0,0.9-0.7,1.7-1.6,1.7c-0.9,0-1.6-0.8-1.6-1.7c0-0.9,0.7-1.7,1.6-1.7
							C375.1,386.5,375.9,387.3,375.9,388.2z"/>
						<path id="XMLID_441_" class="st3" d="M445.4,388.2c0,0.9-0.7,1.7-1.6,1.7c-0.9,0-1.6-0.8-1.6-1.7c0-0.9,0.7-1.7,1.6-1.7
							C444.7,386.5,445.4,387.3,445.4,388.2z"/>
						<path id="XMLID_440_" class="st3" d="M514.9,388.2c0,0.9-0.7,1.7-1.6,1.7c-0.9,0-1.6-0.8-1.6-1.7c0-0.9,0.7-1.7,1.6-1.7
							C514.2,386.5,514.9,387.3,514.9,388.2z"/>
						<path id="XMLID_439_" class="st3" d="M584.5,388.2c0,0.9-0.7,1.7-1.6,1.7c-0.9,0-1.6-0.8-1.6-1.7c0-0.9,0.7-1.7,1.6-1.7
							C583.7,386.5,584.5,387.3,584.5,388.2z"/>
						<path id="XMLID_438_" class="st3" d="M654,388.2c0,0.9-0.7,1.7-1.6,1.7c-0.9,0-1.6-0.8-1.6-1.7c0-0.9,0.7-1.7,1.6-1.7
							C653.3,386.5,654,387.3,654,388.2z"/>
						<path id="XMLID_437_" class="st3" d="M723.5,388.2c0,0.9-0.7,1.7-1.6,1.7c-0.9,0-1.6-0.8-1.6-1.7c0-0.9,0.7-1.7,1.6-1.7
							C722.8,386.5,723.5,387.3,723.5,388.2z"/>
					</g>
					<g id="XMLID_421_">
						<path id="XMLID_435_" class="st3" d="M28.2,457.4c0,0.9-0.7,1.7-1.6,1.7c-0.9,0-1.6-0.8-1.6-1.7c0-0.9,0.7-1.7,1.6-1.7
							C27.5,455.7,28.2,456.4,28.2,457.4z"/>
						<path id="XMLID_434_" class="st3" d="M97.8,457.4c0,0.9-0.7,1.7-1.6,1.7c-0.9,0-1.6-0.8-1.6-1.7c0-0.9,0.7-1.7,1.6-1.7
							C97,455.7,97.8,456.4,97.8,457.4z"/>
						<path id="XMLID_433_" class="st3" d="M167.3,457.4c0,0.9-0.7,1.7-1.6,1.7c-0.9,0-1.6-0.8-1.6-1.7c0-0.9,0.7-1.7,1.6-1.7
							C166.6,455.7,167.3,456.4,167.3,457.4z"/>
						<path id="XMLID_432_" class="st3" d="M236.8,457.4c0,0.9-0.7,1.7-1.6,1.7c-0.9,0-1.6-0.8-1.6-1.7c0-0.9,0.7-1.7,1.6-1.7
							C236.1,455.7,236.8,456.4,236.8,457.4z"/>
						<path id="XMLID_431_" class="st3" d="M306.3,457.4c0,0.9-0.7,1.7-1.6,1.7c-0.9,0-1.6-0.8-1.6-1.7c0-0.9,0.7-1.7,1.6-1.7
							C305.6,455.7,306.3,456.4,306.3,457.4z"/>
						<path id="XMLID_430_" class="st3" d="M375.9,457.4c0,0.9-0.7,1.7-1.6,1.7c-0.9,0-1.6-0.8-1.6-1.7c0-0.9,0.7-1.7,1.6-1.7
							C375.1,455.7,375.9,456.4,375.9,457.4z"/>
						<path id="XMLID_429_" class="st3" d="M445.4,457.4c0,0.9-0.7,1.7-1.6,1.7c-0.9,0-1.6-0.8-1.6-1.7c0-0.9,0.7-1.7,1.6-1.7
							C444.7,455.7,445.4,456.4,445.4,457.4z"/>
						<path id="XMLID_427_" class="st3" d="M514.9,457.4c0,0.9-0.7,1.7-1.6,1.7c-0.9,0-1.6-0.8-1.6-1.7c0-0.9,0.7-1.7,1.6-1.7
							C514.2,455.7,514.9,456.4,514.9,457.4z"/>
						<path id="XMLID_426_" class="st3" d="M584.5,457.4c0,0.9-0.7,1.7-1.6,1.7c-0.9,0-1.6-0.8-1.6-1.7c0-0.9,0.7-1.7,1.6-1.7
							C583.7,455.7,584.5,456.4,584.5,457.4z"/>
						<path id="XMLID_425_" class="st3" d="M654,457.4c0,0.9-0.7,1.7-1.6,1.7c-0.9,0-1.6-0.8-1.6-1.7c0-0.9,0.7-1.7,1.6-1.7
							C653.3,455.7,654,456.4,654,457.4z"/>
						<path id="XMLID_422_" class="st3" d="M723.5,457.4c0,0.9-0.7,1.7-1.6,1.7c-0.9,0-1.6-0.8-1.6-1.7c0-0.9,0.7-1.7,1.6-1.7
							C722.8,455.7,723.5,456.4,723.5,457.4z"/>
					</g>
					<g id="XMLID_371_">
						<path id="XMLID_420_" class="st3" d="M28.2,526.5c0,0.9-0.7,1.7-1.6,1.7c-0.9,0-1.6-0.8-1.6-1.7c0-0.9,0.7-1.7,1.6-1.7
							C27.5,524.8,28.2,525.6,28.2,526.5z"/>
						<path id="XMLID_419_" class="st3" d="M97.8,526.5c0,0.9-0.7,1.7-1.6,1.7c-0.9,0-1.6-0.8-1.6-1.7c0-0.9,0.7-1.7,1.6-1.7
							C97,524.8,97.8,525.6,97.8,526.5z"/>
						<path id="XMLID_417_" class="st3" d="M167.3,526.5c0,0.9-0.7,1.7-1.6,1.7c-0.9,0-1.6-0.8-1.6-1.7c0-0.9,0.7-1.7,1.6-1.7
							C166.6,524.8,167.3,525.6,167.3,526.5z"/>
						<path id="XMLID_415_" class="st3" d="M236.8,526.5c0,0.9-0.7,1.7-1.6,1.7c-0.9,0-1.6-0.8-1.6-1.7c0-0.9,0.7-1.7,1.6-1.7
							C236.1,524.8,236.8,525.6,236.8,526.5z"/>
						<path id="XMLID_414_" class="st3" d="M306.3,526.5c0,0.9-0.7,1.7-1.6,1.7c-0.9,0-1.6-0.8-1.6-1.7c0-0.9,0.7-1.7,1.6-1.7
							C305.6,524.8,306.3,525.6,306.3,526.5z"/>
						<path id="XMLID_413_" class="st3" d="M375.9,526.5c0,0.9-0.7,1.7-1.6,1.7c-0.9,0-1.6-0.8-1.6-1.7c0-0.9,0.7-1.7,1.6-1.7
							C375.1,524.8,375.9,525.6,375.9,526.5z"/>
						<path id="XMLID_412_" class="st3" d="M445.4,526.5c0,0.9-0.7,1.7-1.6,1.7c-0.9,0-1.6-0.8-1.6-1.7c0-0.9,0.7-1.7,1.6-1.7
							C444.7,524.8,445.4,525.6,445.4,526.5z"/>
						<path id="XMLID_385_" class="st3" d="M514.9,526.5c0,0.9-0.7,1.7-1.6,1.7c-0.9,0-1.6-0.8-1.6-1.7c0-0.9,0.7-1.7,1.6-1.7
							C514.2,524.8,514.9,525.6,514.9,526.5z"/>
						<path id="XMLID_374_" class="st3" d="M584.5,526.5c0,0.9-0.7,1.7-1.6,1.7c-0.9,0-1.6-0.8-1.6-1.7c0-0.9,0.7-1.7,1.6-1.7
							C583.7,524.8,584.5,525.6,584.5,526.5z"/>
						<path id="XMLID_373_" class="st3" d="M654,526.5c0,0.9-0.7,1.7-1.6,1.7c-0.9,0-1.6-0.8-1.6-1.7c0-0.9,0.7-1.7,1.6-1.7
							C653.3,524.8,654,525.6,654,526.5z"/>
						<path id="XMLID_372_" class="st3" d="M723.5,526.5c0,0.9-0.7,1.7-1.6,1.7c-0.9,0-1.6-0.8-1.6-1.7c0-0.9,0.7-1.7,1.6-1.7
							C722.8,524.8,723.5,525.6,723.5,526.5z"/>
					</g>
				</g>
			</g>
			<g id="XMLID_267_">
				<defs>
					<rect id="XMLID_268_" width="750" height="500"/>
				</defs>
				<clipPath id="XMLID_4_">
					<use xlink:href="#XMLID_268_"  style="overflow:visible;"/>
				</clipPath>
				<path id="XMLID_299_" class="st4" d="M539.2,207.1c0,0-14.7,36.1-53.8,12.7c-39.1-23.4-42.3-47.2-117.4-24.3
					c-75.1,22.9-102.3,21.6-118.4-4.8c-16.1-26.3-46.3-62.8-110.4-58.9c-64,3.9-97-86.1-143.1-100.7C-50,16.6-83.4,61.6-83.4,61.6
					v463.2h862.8c0,0-22.1-70.8-71.6-92.3c-49.5-21.5-42.4-36.1-47-72.2c-4.5-36.1-99.6-60.4-93-113.5
					C574.5,193.8,539.2,207.1,539.2,207.1z"/>
				<path id="XMLID_275_" class="st5" d="M-68.5,68.5c5.4-3.5,99-26.9,128.4,38.9c29.4,65.7,60.6,66.5,107.9,70.6
					c47.3,4,33,4.8,85.6,40.1s83.5,16.9,121.9,4.3c38.3-12.6,99.5,17.6,148.5-8.7c48.9-26.3,50.9,16.8,50.9,16.8s-13.6,37.6,26,63.9
					c39.6,26.3,20.2,56.6,31.2,104.8c11,48.1,118.2,119.4,118.2,119.4l-838.1-45.4L-68.5,68.5z"/>
				<path id="XMLID_270_" class="st6" d="M-144.1,66.3c0,0,18.1,71.5,94.2,79.6c76.2,8,78.5,5.6,107.6,38.3
					c29,32.6,44.8,50.9,96.6,39.1c51.8-11.8,97.4-39.7,139.8-17.1c42.4,22.6,136.3,60.9,233.1-28c96.8-89,65.1,45.1,65.1,45.1
					s-67.1,49.8,30.8,94.5c34.5,16.7,28.9,66.6,40.3,98.9c11.4,32.3,104.4,94.8,104.4,94.8S54.7,561.9,50,562.6
					c-4.7,0.7-271-124.5-271-124.5L-144.1,66.3z"/>
			</g>
			<g id="XMLID_150_">
				<defs>
					<rect id="XMLID_151_" width="750" height="500"/>
				</defs>
				<clipPath id="XMLID_5_">
					<use xlink:href="#XMLID_151_"  style="overflow:visible;"/>
				</clipPath>
				<linearGradient id="XMLID_6_" gradientUnits="userSpaceOnUse" x1="525.3496" y1="402.4441" x2="538.7688" y2="425.9563">
					<stop  offset="5.376340e-03" style="stop-color:#FEA7AF"/>
					<stop  offset="0.9731" style="stop-color:#EA47AC"/>
				</linearGradient>
				<ellipse id="XMLID_266_" class="st7" cx="532" cy="414.1" rx="14" ry="14.6"/>
				<polygon id="XMLID_364_" class="st8" points="279.3,258.4 280.2,260.2 282,261.2 280.2,262.2 279.3,264 278.3,262.2 
					276.5,261.2 278.3,260.2 				"/>
				<polygon id="XMLID_363_" class="st8" points="382.1,383.7 382.7,384.9 383.9,385.6 382.7,386.2 382.1,387.4 381.5,386.2 
					380.3,385.6 381.5,384.9 				"/>
				<polygon id="XMLID_362_" class="st8" points="383.9,276.5 384.5,277.7 385.7,278.4 384.5,279 383.9,280.2 383.2,279 
					382.1,278.4 383.2,277.7 				"/>
				<polygon id="XMLID_264_" class="st8" points="125.2,435.7 125.8,436.9 127,437.5 125.8,438.2 125.2,439.4 124.6,438.2 
					123.4,437.5 124.6,436.9 				"/>
				<polygon id="XMLID_263_" class="st9" points="79.4,222.4 80.1,223.6 81.2,224.3 80.1,224.9 79.4,226.1 78.8,224.9 77.7,224.3 
					78.8,223.6 				"/>
				<polygon id="XMLID_262_" class="st9" points="12.3,472.1 12.9,473.3 14.1,474 12.9,474.7 12.3,475.8 11.6,474.7 10.5,474 
					11.6,473.3 				"/>
				<polygon id="XMLID_261_" class="st9" points="20.9,246.9 21.5,248.1 22.7,248.7 21.5,249.4 20.9,250.6 20.2,249.4 19.1,248.7 
					20.2,248.1 				"/>
				<polygon id="XMLID_260_" class="st9" points="164.6,298.3 165.2,299.5 166.4,300.2 165.2,300.8 164.6,302 164,300.8 
					162.8,300.2 164,299.5 				"/>
				<polygon id="XMLID_357_" class="st10" points="223.6,328 224.8,330.4 227.1,331.7 224.8,333 223.6,335.3 222.3,333 220,331.7 
					222.3,330.4 				"/>
				<polygon id="XMLID_356_" class="st9" points="34.6,198.8 35.8,201.2 38.1,202.5 35.8,203.8 34.6,206.2 33.3,203.8 31,202.5 
					33.3,201.2 				"/>
				<polygon id="XMLID_259_" class="st9" points="532,300.2 533.3,302.6 535.5,303.9 533.3,305.2 532,307.5 530.8,305.2 
					528.5,303.9 530.8,302.6 				"/>
				<polygon id="XMLID_258_" class="st9" points="521.8,477 523,479.4 525.3,480.7 523,482 521.8,484.4 520.5,482 518.2,480.7 
					520.5,479.4 				"/>
				<polygon id="XMLID_257_" class="st9" points="41.4,432.1 42,433.2 43.1,433.8 42,434.4 41.4,435.5 40.8,434.4 39.7,433.8 
					40.8,433.2 				"/>
				<polygon id="XMLID_256_" class="st10" points="294.2,418.3 294.8,419.4 295.8,420 294.8,420.6 294.2,421.8 293.6,420.6 
					292.5,420 293.6,419.4 				"/>
				<polygon id="XMLID_255_" class="st10" points="308.1,469.6 308.7,470.7 309.7,471.3 308.7,471.9 308.1,473 307.5,471.9 
					306.4,471.3 307.5,470.7 				"/>
				<polygon id="XMLID_254_" class="st10" points="436.6,278.5 437.2,279.6 438.3,280.2 437.2,280.8 436.6,282 436,280.8 
					434.9,280.2 436,279.6 				"/>
				<polygon id="XMLID_253_" class="st9" points="504.4,385.7 505,386.8 506,387.4 505,388 504.4,389.2 503.8,388 502.7,387.4 
					503.8,386.8 				"/>
				<polygon id="XMLID_252_" class="st9" points="463,235 463.6,236.1 464.7,236.7 463.6,237.3 463,238.4 462.4,237.3 461.3,236.7 
					462.4,236.1 				"/>
				<polygon id="XMLID_251_" class="st10" points="323.6,316.2 324.7,318.3 326.7,319.4 324.7,320.5 323.6,322.5 322.6,320.5 
					320.6,319.4 322.6,318.3 				"/>
				<polygon id="XMLID_250_" class="st11" points="209.3,428.1 210.7,430.9 213.4,432.5 210.7,434 209.3,436.8 207.8,434 
					205.1,432.5 207.8,430.9 				"/>
				<polygon id="XMLID_249_" class="st11" points="442.5,429.5 443,430.4 444,431 443,431.5 442.5,432.5 442,431.5 441,431 
					442,430.4 				"/>
				<polygon id="XMLID_248_" class="st11" points="469.6,321 470.1,322 471,322.5 470.1,323.1 469.6,324.1 469,323.1 468.1,322.5 
					469,322 				"/>
				<polygon id="XMLID_247_" class="st12" points="104.4,323.5 105.3,325.3 107,326.3 105.3,327.2 104.4,329 103.4,327.2 
					101.7,326.3 103.4,325.3 				"/>
				<polygon id="XMLID_246_" class="st12" points="383.9,433.6 384.5,434.9 385.8,435.5 384.5,436.2 383.9,437.5 383.2,436.2 
					382,435.5 383.2,434.9 				"/>
				<polygon id="XMLID_245_" class="st12" points="415.2,472.5 415.9,473.8 417.1,474.5 415.9,475.2 415.2,476.4 414.5,475.2 
					413.3,474.5 414.5,473.8 				"/>
				<polygon id="XMLID_208_" class="st12" points="411.4,329.7 412.1,331 413.3,331.7 412.1,332.4 411.4,333.6 410.7,332.4 
					409.5,331.7 410.7,331 				"/>
				<polygon id="XMLID_207_" class="st12" points="308.1,359.2 308.7,360.5 310,361.2 308.7,361.9 308.1,363.2 307.4,361.9 
					306.2,361.2 307.4,360.5 				"/>
				<polygon id="XMLID_206_" class="st12" points="578.8,376.4 579.5,377.7 580.7,378.4 579.5,379.1 578.8,380.4 578.2,379.1 
					576.9,378.4 578.2,377.7 				"/>
				<g id="XMLID_203_" class="st13">
					
						<linearGradient id="XMLID_14_" gradientUnits="userSpaceOnUse" x1="44.5429" y1="507.7729" x2="66.8183" y2="507.7729" gradientTransform="matrix(0.9394 -0.3429 0.3429 0.9394 -137.8656 -188.1822)">
						<stop  offset="5.376340e-03" style="stop-color:#FEA7AF"/>
						<stop  offset="0.9731" style="stop-color:#EA47AC"/>
					</linearGradient>
					<path id="XMLID_205_" class="st14" d="M99.3,272.7c-1.6,6.1-7.6,9.8-13.6,8.2s-9.4-7.9-7.9-14.1c1.6-6.1,7.6-9.8,13.6-8.2
						C97.3,260.2,100.8,266.5,99.3,272.7z"/>
					
						<linearGradient id="XMLID_22_" gradientUnits="userSpaceOnUse" x1="30.127" y1="242.3807" x2="77.8936" y2="242.3807" gradientTransform="matrix(0.9668 0.2556 -0.2556 0.9668 98.0178 22.6361)">
						<stop  offset="5.376340e-03" style="stop-color:#FEA7AF"/>
						<stop  offset="0.9731" style="stop-color:#EA47AC"/>
					</linearGradient>
					<path id="XMLID_204_" class="st15" d="M100.1,269.5c0,0,1.1,0.3,3.1,1.1c1,0.4,2.1,0.8,3.4,1.5c1.3,0.7,2.8,1.3,4.2,2.7
						c0.3,0.4,0.7,0.8,0.7,1.6c0,0.1,0,0.1-0.1,0.3l-0.1,0.2c-0.1,0.2-0.2,0.4-0.3,0.5c-0.2,0.2-0.5,0.3-0.7,0.5
						c-1,0.4-2,0.5-3.1,0.5c-2.1,0.1-4.2-0.1-6.4-0.3c-4.4-0.6-9-1.6-13.6-2.8c-4.5-1.3-9-2.8-13.2-4.6c-2.1-0.9-4-1.9-5.8-3
						c-0.9-0.6-1.7-1.2-2.4-2c-0.2-0.2-0.3-0.5-0.4-0.8c-0.1-0.3-0.1-0.7,0-1.1c0-0.2,0.5-0.6,0.7-0.7c0.2-0.2,0.5-0.2,0.7-0.3
						c1.8-0.5,3.5-0.3,4.9-0.2c1.4,0.1,2.7,0.3,3.7,0.5c2,0.3,3.2,0.6,3.2,0.6s-1.2-0.1-3.2-0.3c-1-0.1-2.3-0.2-3.7-0.2
						c-1.4,0-3.1,0-4.6,0.4c-0.2,0.1-0.4,0.1-0.5,0.2c-0.1,0-0.2,0.1-0.2,0.1c0,0,0,0-0.1,0c0,0,0,0.1-0.1,0.1
						c-0.1,0.1,0,0.5,0.3,0.8c0.6,0.6,1.4,1.2,2.2,1.7c1.7,1,3.7,1.9,5.7,2.7c4.1,1.7,8.5,3.1,13.1,4.3c4.5,1.3,9.1,2.3,13.4,2.9
						c2.2,0.3,4.3,0.6,6.2,0.6c1.8,0,4.5-0.3,3-1.7c-1.1-1.2-2.6-2-3.8-2.8c-1.2-0.7-2.4-1.3-3.3-1.7
						C101.2,270,100.1,269.5,100.1,269.5z"/>
				</g>
				<g id="XMLID_200_" class="st16">
					
						<linearGradient id="XMLID_24_" gradientUnits="userSpaceOnUse" x1="-999.7468" y1="762.6996" x2="-927.4647" y2="762.6996" gradientTransform="matrix(-0.7476 -0.6641 0.6641 -0.7476 -1063.5243 289.264)">
						<stop  offset="5.376340e-03" style="stop-color:#FEA7AF"/>
						<stop  offset="0.9946" style="stop-color:#EA47AC;stop-opacity:0"/>
					</linearGradient>
					<path id="XMLID_202_" class="st17" d="M139.1,334.8l50.5,48.1c0.3,0.3,0.3,0.7,0.1,1l0,0c-0.3,0.3-0.7,0.3-1,0.1l-52-46.3
						c-0.8-0.7-0.9-2-0.2-2.8l0,0C137.1,334.1,138.3,334.1,139.1,334.8z"/>
					
						<linearGradient id="XMLID_26_" gradientUnits="userSpaceOnUse" x1="-998.816" y1="762.2184" x2="-954.5214" y2="762.2184" gradientTransform="matrix(-0.7476 -0.6641 0.6641 -0.7476 -1063.5243 289.264)">
						<stop  offset="5.376340e-03" style="stop-color:#FEA7AF"/>
						<stop  offset="0.9946" style="stop-color:#EA47AC;stop-opacity:0"/>
					</linearGradient>
					<path id="XMLID_201_" class="st18" d="M157.9,353.2l30.9,29.5c0.2,0.2,0.2,0.4,0,0.6l0,0c-0.2,0.2-0.4,0.2-0.6,0L156.4,355
						c-0.5-0.4-0.5-1.2-0.1-1.7l0,0C156.7,352.8,157.5,352.8,157.9,353.2z"/>
				</g>
				<g id="XMLID_197_" class="st19">
					
						<linearGradient id="XMLID_29_" gradientUnits="userSpaceOnUse" x1="-1127.4774" y1="984.4764" x2="-1092.7733" y2="984.4764" gradientTransform="matrix(-0.7476 -0.6641 0.6641 -0.7476 -1063.5243 289.264)">
						<stop  offset="5.376340e-03" style="stop-color:#FEA7AF"/>
						<stop  offset="0.9946" style="stop-color:#EA47AC;stop-opacity:0"/>
					</linearGradient>
					<path id="XMLID_199_" class="st20" d="M408.5,278.9l24.2,23.1c0.1,0.1,0.1,0.3,0,0.5l0,0c-0.1,0.1-0.3,0.2-0.5,0l-25-22.2
						c-0.4-0.3-0.4-0.9-0.1-1.3l0,0C407.6,278.6,408.2,278.5,408.5,278.9z"/>
					
						<linearGradient id="XMLID_32_" gradientUnits="userSpaceOnUse" x1="-1127.0306" y1="984.2454" x2="-1105.7638" y2="984.2454" gradientTransform="matrix(-0.7476 -0.6641 0.6641 -0.7476 -1063.5243 289.264)">
						<stop  offset="5.376340e-03" style="stop-color:#FEA7AF"/>
						<stop  offset="0.9946" style="stop-color:#EA47AC;stop-opacity:0"/>
					</linearGradient>
					<path id="XMLID_198_" class="st21" d="M417.6,287.7l14.8,14.1c0.1,0.1,0.1,0.2,0,0.3l0,0c-0.1,0.1-0.2,0.1-0.3,0l-15.3-13.6
						c-0.2-0.2-0.3-0.6-0.1-0.8l0,0C417,287.5,417.4,287.5,417.6,287.7z"/>
				</g>
				<g id="XMLID_190_" class="st22">
					<g id="XMLID_194_">
						
							<linearGradient id="XMLID_33_" gradientUnits="userSpaceOnUse" x1="-934.6642" y1="707.7199" x2="-838.6923" y2="707.7199" gradientTransform="matrix(-0.7476 -0.6641 0.6641 -0.7476 -1063.5243 289.264)">
							<stop  offset="5.376340e-03" style="stop-color:#FEA7AF"/>
							<stop  offset="0.9946" style="stop-color:#EA47AC;stop-opacity:0"/>
						</linearGradient>
						<path id="XMLID_196_" class="st23" d="M37.1,316.9l67,63.9c0.4,0.4,0.4,1,0.1,1.4l0,0c-0.3,0.4-0.9,0.4-1.3,0.1l-69.1-61.4
							c-1.1-0.9-1.2-2.6-0.2-3.7l0,0C34.5,316,36.1,315.9,37.1,316.9z"/>
						
							<linearGradient id="XMLID_34_" gradientUnits="userSpaceOnUse" x1="-933.4283" y1="707.081" x2="-874.6166" y2="707.081" gradientTransform="matrix(-0.7476 -0.6641 0.6641 -0.7476 -1063.5243 289.264)">
							<stop  offset="5.376340e-03" style="stop-color:#FEA7AF"/>
							<stop  offset="0.9946" style="stop-color:#EA47AC;stop-opacity:0"/>
						</linearGradient>
						<path id="XMLID_195_" class="st24" d="M62.1,341.3l41.1,39.1c0.2,0.2,0.2,0.6,0,0.8l0,0c-0.2,0.2-0.6,0.3-0.8,0.1l-42.3-37.6
							c-0.6-0.6-0.7-1.6-0.1-2.3l0,0C60.5,340.8,61.5,340.7,62.1,341.3z"/>
					</g>
					<g id="XMLID_191_">
						
							<linearGradient id="XMLID_35_" gradientUnits="userSpaceOnUse" x1="-871.5829" y1="688.7407" x2="-827.5491" y2="688.7407" gradientTransform="matrix(-0.7476 -0.6641 0.6641 -0.7476 -1063.5243 289.264)">
							<stop  offset="5.376340e-03" style="stop-color:#FEA7AF"/>
							<stop  offset="0.9946" style="stop-color:#EA47AC;stop-opacity:0"/>
						</linearGradient>
						<path id="XMLID_193_" class="st25" d="M14.2,323.8l30.7,29.3c0.2,0.2,0.2,0.4,0,0.6l0,0c-0.2,0.2-0.4,0.2-0.6,0l-31.7-28.2
							c-0.5-0.4-0.5-1.2-0.1-1.7l0,0C13,323.4,13.7,323.4,14.2,323.8z"/>
						
							<linearGradient id="XMLID_36_" gradientUnits="userSpaceOnUse" x1="-871.016" y1="688.4475" x2="-844.0319" y2="688.4475" gradientTransform="matrix(-0.7476 -0.6641 0.6641 -0.7476 -1063.5243 289.264)">
							<stop  offset="5.376340e-03" style="stop-color:#FEA7AF"/>
							<stop  offset="0.9946" style="stop-color:#EA47AC;stop-opacity:0"/>
						</linearGradient>
						<path id="XMLID_192_" class="st26" d="M25.7,335l18.8,18c0.1,0.1,0.1,0.3,0,0.4l0,0c-0.1,0.1-0.3,0.1-0.4,0l-19.4-17.3
							c-0.3-0.3-0.3-0.7-0.1-1l0,0C24.9,334.8,25.4,334.8,25.7,335z"/>
					</g>
				</g>
				<g id="XMLID_167_" class="st16">
					
						<linearGradient id="XMLID_37_" gradientUnits="userSpaceOnUse" x1="-1244.8215" y1="1017.33" x2="-1200.7876" y2="1017.33" gradientTransform="matrix(-0.7476 -0.6641 0.6641 -0.7476 -1063.5243 289.264)">
						<stop  offset="5.376340e-03" style="stop-color:#FEA7AF"/>
						<stop  offset="0.9946" style="stop-color:#EA47AC;stop-opacity:0"/>
					</linearGradient>
					<path id="XMLID_189_" class="st27" d="M511.4,326l30.7,29.3c0.2,0.2,0.2,0.4,0,0.6l0,0c-0.2,0.2-0.4,0.2-0.6,0l-31.7-28.2
						c-0.5-0.4-0.5-1.2-0.1-1.7l0,0C510.2,325.6,511,325.6,511.4,326z"/>
					
						<linearGradient id="XMLID_38_" gradientUnits="userSpaceOnUse" x1="-1244.2545" y1="1017.0368" x2="-1217.2704" y2="1017.0368" gradientTransform="matrix(-0.7476 -0.6641 0.6641 -0.7476 -1063.5243 289.264)">
						<stop  offset="5.376340e-03" style="stop-color:#FEA7AF"/>
						<stop  offset="0.9946" style="stop-color:#EA47AC;stop-opacity:0"/>
					</linearGradient>
					<path id="XMLID_188_" class="st28" d="M522.9,337.2l18.8,18c0.1,0.1,0.1,0.3,0,0.4l0,0c-0.1,0.1-0.3,0.1-0.4,0L522,338.3
						c-0.3-0.3-0.3-0.7-0.1-1l0,0C522.2,337,522.6,337,522.9,337.2z"/>
				</g>
				<g id="XMLID_152_" class="st16">
					<g id="XMLID_153_">
						
							<linearGradient id="XMLID_39_" gradientUnits="userSpaceOnUse" x1="582.3388" y1="178.8509" x2="664.9722" y2="178.8509" gradientTransform="matrix(0.9473 0.3203 -0.3203 0.9473 110.2588 82.0863)">
							<stop  offset="5.376340e-03" style="stop-color:#DE3DBF"/>
							<stop  offset="1" style="stop-color:#67219E"/>
						</linearGradient>
						<path id="XMLID_157_" class="st29" d="M682.7,465c-1.3,3.9-3,7.4-5.1,10.7c-10.2,15.3-29.2,22.4-47,16.1
							c-19.9-7-31.3-28.2-27.1-49c0.3-1.7,0.8-3.4,1.3-5.1c2.1-6.6,5.7-12.3,10.2-16.8c10.7-10.9,26.8-15.3,42-10
							c15.9,5.6,26.4,20.3,27.8,36.6C685.3,453.1,684.7,459.1,682.7,465z"/>
						
							<linearGradient id="XMLID_40_" gradientUnits="userSpaceOnUse" x1="586.5839" y1="150.6565" x2="661.2325" y2="150.6565" gradientTransform="matrix(0.9473 0.3203 -0.3203 0.9473 110.2588 82.0863)">
							<stop  offset="5.376340e-03" style="stop-color:#DE3DBF"/>
							<stop  offset="0.1175" style="stop-color:#CA38BA"/>
							<stop  offset="0.3936" style="stop-color:#A02EAE"/>
							<stop  offset="0.6424" style="stop-color:#8127A5"/>
							<stop  offset="0.853" style="stop-color:#6E23A0"/>
							<stop  offset="1" style="stop-color:#67219E"/>
						</linearGradient>
						<path id="XMLID_155_" class="st30" d="M684.8,447.4c-15.6-16.7-23.4-14.7-46-14.3c-12.9,0.2-20.1-6.5-23.9-12.2
							c10.7-10.9,26.8-15.3,42-10C672.8,416.4,683.3,431.1,684.8,447.4z"/>
						
							<linearGradient id="XMLID_41_" gradientUnits="userSpaceOnUse" x1="582.718" y1="202.5319" x2="663.5137" y2="202.5319" gradientTransform="matrix(0.9473 0.3203 -0.3203 0.9473 110.2588 82.0863)">
							<stop  offset="5.376340e-03" style="stop-color:#DE3DBF"/>
							<stop  offset="0.1162" style="stop-color:#C337B8"/>
							<stop  offset="0.2799" style="stop-color:#A22FAE"/>
							<stop  offset="0.4483" style="stop-color:#8829A7"/>
							<stop  offset="0.6212" style="stop-color:#7624A2"/>
							<stop  offset="0.8012" style="stop-color:#6B229F"/>
							<stop  offset="1" style="stop-color:#67219E"/>
						</linearGradient>
						<path id="XMLID_154_" class="st31" d="M677.6,475.6c-10.2,15.3-29.2,22.4-47,16.1c-19.9-7-31.3-28.2-27.1-49
							c3.6,6.8,10.4,15.2,22.6,18.7C647,467.3,667.6,457.8,677.6,475.6z"/>
					</g>
				</g>
			</g>
			<g id="XMLID_7_">
				<g id="XMLID_8_">
					<g id="XMLID_120_">
						
							<linearGradient id="XMLID_42_" gradientUnits="userSpaceOnUse" x1="244.6857" y1="-265.4049" x2="265.5443" y2="-265.4049" gradientTransform="matrix(0.8147 0.5799 -0.5799 0.8147 171.9699 229.4433)">
							<stop  offset="5.376340e-03" style="stop-color:#A02CC2"/>
							<stop  offset="1.480437e-02" style="stop-color:#9F2CC1"/>
							<stop  offset="0.3274" style="stop-color:#7222A6"/>
							<stop  offset="0.607" style="stop-color:#521B92"/>
							<stop  offset="0.8407" style="stop-color:#3E1786"/>
							<stop  offset="1" style="stop-color:#371582"/>
						</linearGradient>
						<path id="XMLID_140_" class="st32" d="M568.3,126.4L491.8,238L477,227l76.5-111.6c5.5-8,12.1-15.1,19.7-21.1l6.3-5
							c0.2-0.1,0.3-0.2,0.5-0.3c2-1,4.3,1,3.6,3.4l-2.5,7.8C578.1,109.6,573.8,118.4,568.3,126.4z"/>
						<path id="XMLID_138_" class="st33" d="M564.6,123.7l-76.5,111.6L477,227l76.5-111.6c5.5-8,12.1-15.1,19.7-21.1l6.3-5
							c0.2-0.1,0.3-0.2,0.5-0.3c0,0.2-0.1,0.4-0.1,0.6l-2.5,7.8C574.4,106.8,570.1,115.7,564.6,123.7z"/>
						
							<linearGradient id="XMLID_43_" gradientUnits="userSpaceOnUse" x1="245.6488" y1="-264.8719" x2="261.8898" y2="-264.8719" gradientTransform="matrix(0.8147 0.5799 -0.5799 0.8147 171.9699 229.4433)">
							<stop  offset="5.376340e-03" style="stop-color:#A02CC2"/>
							<stop  offset="1.480437e-02" style="stop-color:#9F2CC1"/>
							<stop  offset="0.3274" style="stop-color:#7222A6"/>
							<stop  offset="0.607" style="stop-color:#521B92"/>
							<stop  offset="0.8407" style="stop-color:#3E1786"/>
							<stop  offset="1" style="stop-color:#371582"/>
						</linearGradient>
						<path id="XMLID_130_" class="st34" d="M565.4,124.2l-76.5,111.6l-11.1-8.2l76.5-111.6c5.5-8,12.1-15.1,19.7-21.1l6.3-5
							c0.2-0.1,0.3-0.2,0.5-0.3c0,0.2-0.1,0.4-0.1,0.6l-2.5,7.8C575.2,107.3,570.9,116.2,565.4,124.2z"/>
						
							<radialGradient id="XMLID_44_" cx="225.1506" cy="-173.041" r="28.7298" gradientTransform="matrix(1.0523 0.7775 -0.749 1.0924 112.9814 221.3347)" gradientUnits="userSpaceOnUse">
							<stop  offset="5.376340e-03" style="stop-color:#A02CC2"/>
							<stop  offset="1" style="stop-color:#371582"/>
						</radialGradient>
						<polygon id="XMLID_129_" class="st35" points="490.9,249.5 466.8,231.7 482.8,218.5 497.7,229.5 						"/>
						<polygon id="XMLID_128_" class="st36" points="485,245.2 466.8,231.7 482.8,218.5 491.8,225.2 						"/>
						
							<radialGradient id="XMLID_45_" cx="225.6331" cy="-173.1812" r="25.5835" gradientTransform="matrix(1.0523 0.7775 -0.749 1.0924 112.9814 221.3347)" gradientUnits="userSpaceOnUse">
							<stop  offset="5.376340e-03" style="stop-color:#A02CC2"/>
							<stop  offset="1" style="stop-color:#371582"/>
						</radialGradient>
						<polygon id="XMLID_123_" class="st37" points="486.3,246 466.8,231.7 484.1,219.3 493,225.9 						"/>
						
							<radialGradient id="XMLID_46_" cx="229.1403" cy="-152.8619" r="15.6176" gradientTransform="matrix(1.0523 0.7775 -0.749 1.0924 112.9814 221.3347)" gradientUnits="userSpaceOnUse">
							<stop  offset="5.376340e-03" style="stop-color:#A02CC2"/>
							<stop  offset="1" style="stop-color:#371582"/>
						</radialGradient>
						<polygon id="XMLID_122_" class="st38" points="486.3,247.7 469.5,235.2 470.2,234.2 487,246.6 						"/>
						
							<radialGradient id="XMLID_47_" cx="17.6103" cy="-540.5851" r="15.6177" gradientTransform="matrix(0.9296 0.6869 -0.3358 0.4897 283.7158 469.3387)" gradientUnits="userSpaceOnUse">
							<stop  offset="0" style="stop-color:#371582"/>
							<stop  offset="0.9946" style="stop-color:#A02CC2"/>
						</radialGradient>
						<polygon id="XMLID_121_" class="st39" points="497.7,229.5 482.8,218.5 483.1,218.1 498,229 						"/>
					</g>
					<g id="XMLID_97_">
						
							<linearGradient id="XMLID_48_" gradientUnits="userSpaceOnUse" x1="312.0619" y1="-262.9401" x2="332.9205" y2="-262.9401" gradientTransform="matrix(0.8147 0.5799 -0.5799 0.8147 171.9699 229.4433)">
							<stop  offset="5.376340e-03" style="stop-color:#A02CC2"/>
							<stop  offset="1.480437e-02" style="stop-color:#9F2CC1"/>
							<stop  offset="0.3274" style="stop-color:#7222A6"/>
							<stop  offset="0.607" style="stop-color:#521B92"/>
							<stop  offset="0.8407" style="stop-color:#3E1786"/>
							<stop  offset="1" style="stop-color:#371582"/>
						</linearGradient>
						<path id="XMLID_119_" class="st40" d="M621.8,167.5l-76.5,111.6l-14.9-11l76.5-111.6c5.5-8,12.1-15.1,19.7-21.1l6.3-5
							c0.2-0.1,0.3-0.2,0.5-0.3c2-1,4.3,1,3.6,3.4l-2.5,7.8C631.6,150.7,627.3,159.5,621.8,167.5z"/>
						<path id="XMLID_118_" class="st41" d="M618.1,164.8l-76.5,111.6l-11.1-8.2l76.5-111.6c5.5-8,12.1-15.1,19.7-21.1l6.3-5
							c0.2-0.1,0.3-0.2,0.5-0.3c0,0.2-0.1,0.4-0.1,0.6l-2.5,7.8C627.9,147.9,623.6,156.7,618.1,164.8z"/>
						
							<linearGradient id="XMLID_49_" gradientUnits="userSpaceOnUse" x1="312.5653" y1="-262.2401" x2="328.8063" y2="-262.2401" gradientTransform="matrix(0.8147 0.5799 -0.5799 0.8147 171.9699 229.4433)">
							<stop  offset="5.376340e-03" style="stop-color:#A02CC2"/>
							<stop  offset="1.480437e-02" style="stop-color:#9F2CC1"/>
							<stop  offset="0.3274" style="stop-color:#7222A6"/>
							<stop  offset="0.607" style="stop-color:#521B92"/>
							<stop  offset="0.8407" style="stop-color:#3E1786"/>
							<stop  offset="1" style="stop-color:#371582"/>
						</linearGradient>
						<path id="XMLID_103_" class="st42" d="M618.4,165.1l-76.5,111.6l-11.1-8.2l76.5-111.6c5.5-8,12.1-15.1,19.7-21.1l6.3-5
							c0.2-0.1,0.3-0.2,0.5-0.3c0,0.2-0.1,0.4-0.1,0.6l-2.5,7.8C628.2,148.3,623.9,157.1,618.4,165.1z"/>
						
							<radialGradient id="XMLID_50_" cx="276.6384" cy="-172.0817" r="28.7297" gradientTransform="matrix(1.0523 0.7775 -0.749 1.0924 112.9814 221.3347)" gradientUnits="userSpaceOnUse">
							<stop  offset="5.376340e-03" style="stop-color:#A02CC2"/>
							<stop  offset="1" style="stop-color:#371582"/>
						</radialGradient>
						<polygon id="XMLID_102_" class="st43" points="544.4,290.6 520.2,272.8 536.3,259.6 551.1,270.6 						"/>
						<polygon id="XMLID_101_" class="st36" points="538.5,286.3 520.2,272.8 536.3,259.6 545.2,266.2 						"/>
						
							<radialGradient id="XMLID_51_" cx="278.1059" cy="-172.0547" r="24.7273" gradientTransform="matrix(1.0523 0.7775 -0.749 1.0924 112.9814 221.3347)" gradientUnits="userSpaceOnUse">
							<stop  offset="5.376340e-03" style="stop-color:#A02CC2"/>
							<stop  offset="1" style="stop-color:#371582"/>
						</radialGradient>
						<polygon id="XMLID_100_" class="st44" points="539.4,287 521.1,273.5 537.1,260.3 546.1,266.9 						"/>
						
							<radialGradient id="XMLID_52_" cx="280.6281" cy="-151.9026" r="15.6175" gradientTransform="matrix(1.0523 0.7775 -0.749 1.0924 112.9814 221.3347)" gradientUnits="userSpaceOnUse">
							<stop  offset="5.376340e-03" style="stop-color:#A02CC2"/>
							<stop  offset="1" style="stop-color:#371582"/>
						</radialGradient>
						<polygon id="XMLID_99_" class="st45" points="539.7,288.8 522.9,276.3 523.6,275.3 540.5,287.7 						"/>
						
							<radialGradient id="XMLID_53_" cx="75.8924" cy="-538.4498" r="15.6177" gradientTransform="matrix(0.9296 0.6869 -0.3358 0.4897 283.7158 469.3387)" gradientUnits="userSpaceOnUse">
							<stop  offset="0" style="stop-color:#371582"/>
							<stop  offset="0.9946" style="stop-color:#A02CC2"/>
						</radialGradient>
						<polygon id="XMLID_98_" class="st46" points="551.1,270.6 536.3,259.6 536.6,259.1 551.4,270.1 						"/>
					</g>
					<g id="XMLID_95_">
						
							<linearGradient id="XMLID_54_" gradientUnits="userSpaceOnUse" x1="259.0362" y1="-288.7005" x2="317.3306" y2="-288.7005" gradientTransform="matrix(0.8147 0.5799 -0.5799 0.8147 171.9699 229.4433)">
							<stop  offset="5.376340e-03" style="stop-color:#A02CC2"/>
							<stop  offset="1" style="stop-color:#371582"/>
						</linearGradient>
						<path id="XMLID_96_" class="st47" d="M628.4,129.9L525.7,279.7L481.4,247L584.1,97.1c11.1-16.2,26.6-28.7,44.5-36l9.1-3.7l0,0
							c4.6-1.9,9.5,1.8,9.3,6.8l-0.4,10.2C645.9,94.4,639.6,113.7,628.4,129.9z"/>
						<path id="XMLID_105_" class="st36" d="M619.1,123L516.4,272.9l-35-25.9L584.1,97.1c11.1-16.2,26.6-28.7,44.5-36l9.1-3.7
							l-0.4,10.2C636.6,87.5,630.3,106.8,619.1,123z"/>
						
							<linearGradient id="XMLID_55_" gradientUnits="userSpaceOnUse" x1="259.4844" y1="-287.4211" x2="306.2242" y2="-287.4211" gradientTransform="matrix(0.8147 0.5799 -0.5799 0.8147 171.9699 229.4433)">
							<stop  offset="5.376340e-03" style="stop-color:#A02CC2"/>
							<stop  offset="1" style="stop-color:#371582"/>
						</linearGradient>
						<path id="XMLID_104_" class="st48" d="M619.6,123.2L516.8,273l-35-25.9L584.6,97.3c11.1-16.2,26.6-28.7,44.5-36l9.1-3.7
							l-0.4,10.2C637,87.7,630.7,106.9,619.6,123.2z"/>
					</g>
					<g id="XMLID_92_">
						<defs>
							<path id="XMLID_93_" d="M646.6,74.5l0.4-10.2c0.2-5.1-4.7-8.7-9.3-6.8l0,0l-9.1,3.7c-17.9,7.2-33.3,19.8-44.5,36l-3.9,5.7
								c0.3-0.9,0.6-1.7,0.9-2.6l2.5-7.8c0.7-2.4-1.6-4.3-3.6-3.4c-0.2,0.1-0.4,0.2-0.5,0.3l-6.3,5c-7.5,6-14.2,13.1-19.7,21.1
								l-70.7,103.1l-16,13.2l9.4,6.9l-6-4.4l-0.7,1l13.2,9.8l-1.3,2l44.3,32.7l0.6-0.9l13.4,9.9l0.7-1l-1.1-0.8l0,0l5,3.7l6.7-20
								l70.7-103.1c5.5-8,9.8-16.8,12.8-26.2l2.5-7.8c0.7-2.4-1.6-4.3-3.6-3.4c-0.2,0.1-0.4,0.2-0.5,0.3l-6.3,5
								c-1.6,1.3-3.2,2.6-4.7,4l6.5-9.5C639.6,113.7,645.9,94.4,646.6,74.5z"/>
						</defs>
						<clipPath id="XMLID_56_">
							<use xlink:href="#XMLID_93_"  style="overflow:visible;"/>
						</clipPath>
						<linearGradient id="XMLID_57_" gradientUnits="userSpaceOnUse" x1="539.2684" y1="146.469" x2="571.4011" y2="217.0213">
							<stop  offset="5.376340e-03" style="stop-color:#DE3DBF"/>
							<stop  offset="1" style="stop-color:#67219E"/>
						</linearGradient>
						<path id="XMLID_94_" class="st49" d="M625.1,104.8c-0.2-0.2-0.4-0.3-0.7-0.4c-0.1,0-0.1-0.1-0.2-0.1c-0.2-0.1-0.3-0.2-0.5-0.2
							c-0.1,0-0.2-0.1-0.3-0.1c-0.2-0.1-0.3-0.1-0.5-0.2c-0.1,0-0.2,0-0.3-0.1c-0.2,0-0.3-0.1-0.5-0.1c-0.1,0-0.2,0-0.3,0
							c-0.2,0-0.3,0-0.5,0c-0.1,0-0.2,0-0.3,0c-0.2,0-0.3,0-0.5,0c-0.1,0-0.2,0-0.3,0c-0.1,0-0.3,0.1-0.4,0.1
							c-0.1,0-0.3,0.1-0.4,0.1c0,0,0,0-0.1,0c-0.2,0.1-0.4,0.2-0.7,0.3c-3.1,1.4-6.1,2.9-9,4.6c-13.5,7.8-25.2,18.6-34.2,31.7
							l-32.9,48L494,201l-21.1,27.8l0.7,0.4l-1.5,2l23.9,14.2l1.2,0.7l-8.6,7.3c-1.5,1.2-1.4,3.6,0.2,4.7l1.8,1.3l-1.3,2l13.3,9.9
							l1.3-2l4.1,3.1l-5.6,8.5c-0.5,0.8-0.3,1.8,0.4,2.3c0.1,0.1,0.2,0.1,0.3,0.1c0.1,0.1,0.1,0.2,0.2,0.2c0.7,0.5,1.7,0.4,2.3-0.4
							l5.9-8.3l3.3,2.5l-1.3,2l13.3,9.9l1.3-2l2.2,1.6c1.5,1.1,3.7,0.4,4.3-1.4l3.8-10.8l0.8,0.7l20.9,19l1.3-2.1l0.1,0.1l18.4-29.7
							l-4.4-51l33.3-48.5c5.5-8,9.8-16.6,13-25.8c2.1-5.9,3.6-12.1,4.7-18.3c0.6-3.3,1-6.7,1.2-10.1
							C628,108.2,626.8,106.1,625.1,104.8z"/>
					</g>
					<g id="XMLID_9_">
						<g id="XMLID_30_">
							<polygon id="XMLID_91_" class="st50" points="511.6,251.3 466.7,227.6 488.6,197.5 557.7,179.6 							"/>
							
								<radialGradient id="XMLID_58_" cx="-233.7674" cy="-248.6927" r="94.9265" gradientTransform="matrix(0.8061 0.5956 -0.749 1.0924 535.0425 533.3981)" gradientUnits="userSpaceOnUse">
								<stop  offset="0" style="stop-color:#67219E"/>
								<stop  offset="0.9946" style="stop-color:#DE3DBF"/>
							</radialGradient>
							<polygon id="XMLID_89_" class="st51" points="512.4,252.4 468.4,226.3 487.8,199.8 558.6,180.7 							"/>
							<polygon id="XMLID_31_" class="st52" points="518.1,256.1 554.9,292.7 574.7,260.9 568.3,187.4 							"/>
						</g>
						<g id="XMLID_21_">
							
								<radialGradient id="XMLID_59_" cx="221.6182" cy="-246.99" r="89.393" gradientTransform="matrix(1.0523 0.7775 -0.749 1.0924 112.9814 221.3347)" gradientUnits="userSpaceOnUse">
								<stop  offset="5.376340e-03" style="stop-color:#DE3DBF"/>
								<stop  offset="1" style="stop-color:#67219E"/>
							</radialGradient>
							<polygon id="XMLID_28_" class="st53" points="510.7,253.7 490.6,241.8 466.7,227.6 487.8,199.8 523.5,190.6 556.9,182 
															"/>
							
								<radialGradient id="XMLID_60_" cx="223.5538" cy="-219.7256" r="60.5381" gradientTransform="matrix(1.0523 0.7775 -0.749 1.0924 112.9814 221.3347)" gradientUnits="userSpaceOnUse">
								<stop  offset="5.376340e-03" style="stop-color:#DE3DBF"/>
								<stop  offset="1" style="stop-color:#67219E"/>
							</radialGradient>
							<polygon id="XMLID_27_" class="st54" points="490.6,241.8 466.7,227.6 487.8,199.8 523.5,190.6 							"/>
							
								<radialGradient id="XMLID_61_" cx="266.3312" cy="-246.9908" r="89.3965" gradientTransform="matrix(1.0523 0.7775 -0.749 1.0924 112.9814 221.3347)" gradientUnits="userSpaceOnUse">
								<stop  offset="5.376340e-03" style="stop-color:#DE3DBF"/>
								<stop  offset="1" style="stop-color:#67219E"/>
							</radialGradient>
							<polygon id="XMLID_25_" class="st55" points="554.9,292.7 534,273.8 516.7,258.1 566.9,189.4 569.9,224.5 573.3,263 							
								"/>
							
								<radialGradient id="XMLID_62_" cx="285.9041" cy="-220.0384" r="60.8699" gradientTransform="matrix(1.0523 0.7775 -0.749 1.0924 112.9814 221.3347)" gradientUnits="userSpaceOnUse">
								<stop  offset="5.376340e-03" style="stop-color:#DE3DBF"/>
								<stop  offset="1" style="stop-color:#67219E"/>
							</radialGradient>
							<polygon id="XMLID_23_" class="st56" points="554.9,292.7 534,273.8 569.9,224.5 573.3,263 							"/>
						</g>
						
							<linearGradient id="XMLID_63_" gradientUnits="userSpaceOnUse" x1="382.9462" y1="-274.5136" x2="310.9201" y2="-270.6016" gradientTransform="matrix(0.8147 0.5799 -0.5799 0.8147 171.9699 229.4433)">
							<stop  offset="5.376340e-03" style="stop-color:#DE3DBF"/>
							<stop  offset="1" style="stop-color:#67219E"/>
						</linearGradient>
						<path id="XMLID_20_" class="st57" d="M603.5,161.4l-73.2,106.8L497,243.7l73.2-106.8c9-13.1,20.7-23.9,34.2-31.7
							c2.9-1.7,5.9-3.2,9-4.6c0.2-0.1,0.4-0.2,0.7-0.3c2-0.7,4.1-0.2,5.7,0.9c1.7,1.3,2.9,3.5,2.7,6c-0.3,3.4-0.7,6.8-1.2,10.1
							c-1,6.2-2.6,12.4-4.7,18.3C613.3,144.8,609,153.5,603.5,161.4z"/>
						<path id="XMLID_19_" class="st52" d="M595.1,155.3L521.9,262L497,243.7l73.2-106.8c9-13.1,20.7-23.9,34.2-31.7
							c2.9-1.7,5.9-3.2,9-4.6c0.2-0.1,0.4-0.2,0.7-0.3c0,0.2,0,0.5,0,0.7c-0.3,3.4-0.7,6.8-1.2,10.1c-1,6.2-2.6,12.4-4.7,18.3
							C605,138.6,600.6,147.3,595.1,155.3z"/>
						
							<linearGradient id="XMLID_64_" gradientUnits="userSpaceOnUse" x1="271.8792" y1="-269.0508" x2="305.0835" y2="-269.0508" gradientTransform="matrix(0.8147 0.5799 -0.5799 0.8147 171.9699 229.4433)">
							<stop  offset="5.376340e-03" style="stop-color:#DE3DBF"/>
							<stop  offset="1" style="stop-color:#67219E"/>
						</linearGradient>
						<path id="XMLID_18_" class="st58" d="M596.1,155.8l-73.2,106.8L498,244.2l73.2-106.8c9-13.1,20.7-23.9,34.2-31.7
							c2.9-1.7,5.9-3.2,9-4.6c0.2-0.1,0.4-0.2,0.7-0.3c0,0.2,0,0.5,0,0.7c-0.3,3.4-0.7,6.8-1.2,10.1c-1,6.2-2.6,12.4-4.7,18.3
							C605.9,139.2,601.5,147.8,596.1,155.8z"/>
						<path id="XMLID_17_" class="st59" d="M525,285.2l-41.6-30.7c-1.5-1.1-1.6-3.5-0.2-4.7l29-24.7c4-3.4,9.8-3.6,14-0.5l12,8.9
							c4.2,3.1,5.9,8.8,4.1,13.9l-13,36.5C528.7,285.7,526.5,286.3,525,285.2z"/>
						<linearGradient id="XMLID_65_" gradientUnits="userSpaceOnUse" x1="481.7446" y1="255.7266" x2="541.4924" y2="255.7266">
							<stop  offset="5.376340e-03" style="stop-color:#DE3DBF"/>
							<stop  offset="1" style="stop-color:#67219E"/>
						</linearGradient>
						<path id="XMLID_418_" class="st60" d="M540.8,249.1L528,285c-0.6,1.8-2.8,2.5-4.3,1.4L505,272.5l-3-2.2l-19.1-14.2
							c-1.5-1.1-1.6-3.4-0.1-4.6l28.4-24.3c3.9-3.4,9.6-3.6,13.7-0.5l3.8,2.8l4.6,3.4l3.3,2.5C540.9,238.6,542.6,244.2,540.8,249.1z
							"/>
						<polygon id="XMLID_16_" class="st61" points="495.8,268.6 482.4,258.7 483.8,256.7 497.1,266.6 						"/>
						<polygon id="XMLID_15_" class="st61" points="520.1,286.5 506.7,276.7 508.1,274.7 521.4,284.5 						"/>
						<g id="XMLID_12_">
							
								<linearGradient id="XMLID_66_" gradientUnits="userSpaceOnUse" x1="279.5876" y1="-328.8019" x2="301.6509" y2="-328.8019" gradientTransform="matrix(0.8147 0.5799 -0.5799 0.8147 171.9699 229.4433)">
								<stop  offset="5.376340e-03" style="stop-color:#DE3DBF"/>
								<stop  offset="1" style="stop-color:#67219E"/>
							</linearGradient>
							<path id="XMLID_13_" class="st62" d="M605,138.6c-0.3-0.2-0.6-0.6-0.6-1c-1.1-6.6-7.1-11.1-13.5-10c-0.8,0.1-1.6-0.4-1.8-1.3
								c-0.1-0.9,0.4-1.7,1.3-1.8c8-1.4,15.7,4.2,17,12.6c0.1,0.9-0.4,1.7-1.3,1.8C605.8,138.9,605.4,138.8,605,138.6z"/>
						</g>
						
							<linearGradient id="XMLID_67_" gradientUnits="userSpaceOnUse" x1="280.0852" y1="-356.8917" x2="305.5132" y2="-358.611" gradientTransform="matrix(0.8147 0.5799 -0.5799 0.8147 171.9699 229.4433)">
							<stop  offset="5.376340e-03" style="stop-color:#DE3DBF"/>
							<stop  offset="1" style="stop-color:#67219E"/>
						</linearGradient>
						<path id="XMLID_11_" class="st63" d="M621.2,117.4c-2.4-6.9-7.7-11-16.8-12.2c2.9-1.7,5.9-3.2,9-4.6c2.2-1,4.6-0.6,6.3,0.7
							c1.7,1.3,2.9,3.5,2.7,6C622.2,110.6,621.8,114,621.2,117.4z"/>
						<path id="XMLID_416_" class="st64" d="M534.6,231.4l-1.2,1.7L505,272.5l-3-2.2l26.7-40.7l1.1-1.7
							C532.4,227.8,533.8,229.2,534.6,231.4z"/>
						
							<linearGradient id="XMLID_68_" gradientUnits="userSpaceOnUse" x1="293.7221" y1="-223.7593" x2="290.9293" y2="-143.8843" gradientTransform="matrix(0.8147 0.5799 -0.5799 0.8147 171.9699 229.4433)">
							<stop  offset="5.376340e-03" style="stop-color:#DE3DBF"/>
							<stop  offset="1" style="stop-color:#67219E"/>
						</linearGradient>
						<path id="XMLID_10_" class="st65" d="M528.9,226.9c2.6,0,3.9,1.4,4.7,3.5l-34.9,48.6c-0.5,0.7-1.5,0.9-2.3,0.4l0,0
							c-0.7-0.5-0.9-1.6-0.4-2.3L528.9,226.9z"/>
					</g>
				</g>
			</g>
			<g id="XMLID_1_">
				<defs>
					<rect id="XMLID_161_" width="750" height="500"/>
				</defs>
				<clipPath id="XMLID_69_">
					<use xlink:href="#XMLID_161_"  style="overflow:visible;"/>
				</clipPath>
			</g>
		</g>
	</g>
</g>
<g id="DESIGNED_BY_FREEPIK">
</g>
</svg>
