<?xml version="1.0" encoding="utf-8"?>
<!-- Generator: Adobe Illustrator 24.0.1, SVG Export Plug-In . SVG Version: 6.00 Build 0)  -->
<svg version="1.1" xmlns="http://www.w3.org/2000/svg" xmlns:xlink="http://www.w3.org/1999/xlink" x="0px" y="0px"
	 viewBox="0 0 750 500" style="enable-background:new 0 0 750 500;" xml:space="preserve">
<style type="text/css">
	.st0{opacity:0;fill:#FFFFFF;}
	.st1{opacity:0.32;}
	.st2{opacity:0.11;clip-path:url(#XMLID_3_);}
	.st3{fill:#A630B0;}
	.st4{opacity:0.25;clip-path:url(#XMLID_4_);fill:url(#XMLID_5_);}
	.st5{opacity:0.25;clip-path:url(#XMLID_4_);fill:url(#XMLID_6_);}
	.st6{clip-path:url(#XMLID_4_);fill:#261843;}
	.st7{clip-path:url(#XMLID_14_);fill:url(#XMLID_22_);}
	.st8{clip-path:url(#XMLID_14_);fill:#FEA7AF;}
	.st9{opacity:0.29;clip-path:url(#XMLID_14_);fill:#FFFFFF;}
	.st10{opacity:0.29;clip-path:url(#XMLID_14_);fill:#FEA7AF;}
	.st11{clip-path:url(#XMLID_14_);fill:#FFFFFF;}
	.st12{opacity:0.33;clip-path:url(#XMLID_14_);fill:#FEA7AF;}
	.st13{opacity:0.22;clip-path:url(#XMLID_14_);}
	.st14{fill:url(#XMLID_24_);}
	.st15{fill:url(#XMLID_26_);}
	.st16{clip-path:url(#XMLID_14_);}
	.st17{fill:url(#XMLID_29_);}
	.st18{fill:url(#XMLID_32_);}
	.st19{opacity:0.33;clip-path:url(#XMLID_14_);}
	.st20{fill:url(#XMLID_33_);}
	.st21{fill:url(#XMLID_34_);}
	.st22{opacity:0.35;clip-path:url(#XMLID_14_);}
	.st23{fill:url(#XMLID_35_);}
	.st24{fill:url(#XMLID_36_);}
	.st25{fill:url(#XMLID_37_);}
	.st26{fill:url(#XMLID_38_);}
	.st27{fill:url(#XMLID_39_);}
	.st28{fill:url(#XMLID_40_);}
	.st29{fill:url(#XMLID_41_);}
	.st30{fill:url(#XMLID_42_);}
	.st31{fill:url(#XMLID_43_);}
	.st32{fill:url(#XMLID_44_);}
	.st33{fill:url(#XMLID_45_);}
	.st34{fill:url(#XMLID_46_);}
	.st35{fill:url(#XMLID_47_);}
	.st36{fill:#FFECFF;}
	.st37{fill:url(#XMLID_48_);}
	.st38{fill:url(#XMLID_49_);}
	.st39{fill:#CC7DFF;}
	.st40{fill:url(#XMLID_50_);}
	.st41{fill:url(#XMLID_51_);}
	.st42{fill:url(#XMLID_52_);}
	.st43{fill:url(#XMLID_53_);}
	.st44{fill:#DDA9FF;}
	.st45{fill:url(#XMLID_54_);}
	.st46{fill:url(#XMLID_55_);}
	.st47{fill:url(#XMLID_56_);}
	.st48{fill:url(#XMLID_57_);}
	.st49{fill:url(#XMLID_58_);}
	.st50{fill:url(#XMLID_59_);}
	.st51{fill:url(#XMLID_60_);}
	.st52{clip-path:url(#XMLID_61_);fill:url(#XMLID_62_);}
	.st53{fill:#FFDCFF;}
	.st54{fill:url(#XMLID_63_);}
	.st55{fill:#FFE4FF;}
	.st56{fill:url(#XMLID_64_);}
	.st57{fill:url(#XMLID_65_);}
	.st58{fill:url(#XMLID_66_);}
	.st59{fill:url(#XMLID_67_);}
	.st60{fill:url(#XMLID_68_);}
	.st61{fill:url(#XMLID_69_);}
	.st62{fill:#FFE7FF;}
	.st63{fill:url(#XMLID_70_);}
	.st64{fill:#7C26A4;}
	.st65{fill:url(#XMLID_71_);}
	.st66{fill:url(#XMLID_72_);}
	.st67{opacity:0.42;fill:#552C84;}
	.st68{fill:url(#XMLID_73_);}
</style>
<g id="BACKGROUND">
</g>
<g id="OBJECTS">
	<g>
		<g>
			<rect id="XMLID_533_" x="0.33" class="st0" width="749.33" height="499"/>
			<g id="XMLID_313_" class="st1">
				<defs>
					<rect id="XMLID_367_" x="0.33" class="st1" width="749.33" height="499"/>
				</defs>
				<clipPath id="XMLID_3_">
					<use xlink:href="#XMLID_367_"  style="overflow:visible;"/>
				</clipPath>
				<g id="XMLID_368_" class="st2">
					<g id="XMLID_513_">
						<path id="XMLID_532_" class="st3" d="M28.53-26.44c0,0.94-0.73,1.69-1.63,1.69c-0.9,0-1.63-0.76-1.63-1.69
							c0-0.94,0.73-1.7,1.63-1.7C27.8-28.14,28.53-27.38,28.53-26.44z"/>
						<path id="XMLID_531_" class="st3" d="M98-26.44c0,0.94-0.73,1.69-1.63,1.69c-0.9,0-1.63-0.76-1.63-1.69
							c0-0.94,0.73-1.7,1.63-1.7C97.27-28.14,98-27.38,98-26.44z"/>
						<path id="XMLID_530_" class="st3" d="M167.47-26.44c0,0.94-0.73,1.69-1.63,1.69c-0.9,0-1.63-0.76-1.63-1.69
							c0-0.94,0.73-1.7,1.63-1.7C166.74-28.14,167.47-27.38,167.47-26.44z"/>
						<path id="XMLID_529_" class="st3" d="M236.94-26.44c0,0.94-0.73,1.69-1.63,1.69c-0.9,0-1.63-0.76-1.63-1.69
							c0-0.94,0.73-1.7,1.63-1.7C236.21-28.14,236.94-27.38,236.94-26.44z"/>
						<path id="XMLID_528_" class="st3" d="M306.41-26.44c0,0.94-0.73,1.69-1.63,1.69c-0.9,0-1.63-0.76-1.63-1.69
							c0-0.94,0.73-1.7,1.63-1.7C305.68-28.14,306.41-27.38,306.41-26.44z"/>
						<path id="XMLID_527_" class="st3" d="M375.88-26.44c0,0.94-0.73,1.69-1.63,1.69c-0.9,0-1.63-0.76-1.63-1.69
							c0-0.94,0.73-1.7,1.63-1.7C375.15-28.14,375.88-27.38,375.88-26.44z"/>
						<path id="XMLID_526_" class="st3" d="M445.35-26.44c0,0.94-0.73,1.69-1.63,1.69c-0.9,0-1.63-0.76-1.63-1.69
							c0-0.94,0.73-1.7,1.63-1.7C444.61-28.14,445.35-27.38,445.35-26.44z"/>
						<path id="XMLID_525_" class="st3" d="M514.82-26.44c0,0.94-0.73,1.69-1.63,1.69c-0.9,0-1.63-0.76-1.63-1.69
							c0-0.94,0.73-1.7,1.63-1.7C514.08-28.14,514.82-27.38,514.82-26.44z"/>
						<path id="XMLID_521_" class="st3" d="M584.29-26.44c0,0.94-0.73,1.69-1.63,1.69c-0.9,0-1.63-0.76-1.63-1.69
							c0-0.94,0.73-1.7,1.63-1.7C583.55-28.14,584.29-27.38,584.29-26.44z"/>
						<path id="XMLID_517_" class="st3" d="M653.75-26.44c0,0.94-0.73,1.69-1.63,1.69c-0.9,0-1.63-0.76-1.63-1.69
							c0-0.94,0.73-1.7,1.63-1.7C653.02-28.14,653.75-27.38,653.75-26.44z"/>
						<path id="XMLID_516_" class="st3" d="M723.22-26.44c0,0.94-0.73,1.69-1.63,1.69c-0.9,0-1.63-0.76-1.63-1.69
							c0-0.94,0.73-1.7,1.63-1.7C722.49-28.14,723.22-27.38,723.22-26.44z"/>
					</g>
					<g id="XMLID_496_">
						<path id="XMLID_512_" class="st3" d="M28.53,42.54c0,0.94-0.73,1.7-1.63,1.7c-0.9,0-1.63-0.76-1.63-1.7
							c0-0.94,0.73-1.69,1.63-1.69C27.8,40.85,28.53,41.61,28.53,42.54z"/>
						<path id="XMLID_508_" class="st3" d="M98,42.54c0,0.94-0.73,1.7-1.63,1.7c-0.9,0-1.63-0.76-1.63-1.7
							c0-0.94,0.73-1.69,1.63-1.69C97.27,40.85,98,41.61,98,42.54z"/>
						<path id="XMLID_507_" class="st3" d="M167.47,42.54c0,0.94-0.73,1.7-1.63,1.7c-0.9,0-1.63-0.76-1.63-1.7
							c0-0.94,0.73-1.69,1.63-1.69C166.74,40.85,167.47,41.61,167.47,42.54z"/>
						<path id="XMLID_506_" class="st3" d="M236.94,42.54c0,0.94-0.73,1.7-1.63,1.7c-0.9,0-1.63-0.76-1.63-1.7
							c0-0.94,0.73-1.69,1.63-1.69C236.21,40.85,236.94,41.61,236.94,42.54z"/>
						<path id="XMLID_505_" class="st3" d="M306.41,42.54c0,0.94-0.73,1.7-1.63,1.7c-0.9,0-1.63-0.76-1.63-1.7
							c0-0.94,0.73-1.69,1.63-1.69C305.68,40.85,306.41,41.61,306.41,42.54z"/>
						<path id="XMLID_502_" class="st3" d="M375.88,42.54c0,0.94-0.73,1.7-1.63,1.7c-0.9,0-1.63-0.76-1.63-1.7
							c0-0.94,0.73-1.69,1.63-1.69C375.15,40.85,375.88,41.61,375.88,42.54z"/>
						<path id="XMLID_501_" class="st3" d="M445.35,42.54c0,0.94-0.73,1.7-1.63,1.7c-0.9,0-1.63-0.76-1.63-1.7
							c0-0.94,0.73-1.69,1.63-1.69C444.61,40.85,445.35,41.61,445.35,42.54z"/>
						<path id="XMLID_500_" class="st3" d="M514.82,42.54c0,0.94-0.73,1.7-1.63,1.7c-0.9,0-1.63-0.76-1.63-1.7
							c0-0.94,0.73-1.69,1.63-1.69C514.08,40.85,514.82,41.61,514.82,42.54z"/>
						<path id="XMLID_499_" class="st3" d="M584.29,42.54c0,0.94-0.73,1.7-1.63,1.7c-0.9,0-1.63-0.76-1.63-1.7
							c0-0.94,0.73-1.69,1.63-1.69C583.55,40.85,584.29,41.61,584.29,42.54z"/>
						<path id="XMLID_498_" class="st3" d="M653.75,42.54c0,0.94-0.73,1.7-1.63,1.7c-0.9,0-1.63-0.76-1.63-1.7
							c0-0.94,0.73-1.69,1.63-1.69C653.02,40.85,653.75,41.61,653.75,42.54z"/>
						<path id="XMLID_497_" class="st3" d="M723.22,42.54c0,0.94-0.73,1.7-1.63,1.7c-0.9,0-1.63-0.76-1.63-1.7
							c0-0.94,0.73-1.69,1.63-1.69C722.49,40.85,723.22,41.61,723.22,42.54z"/>
					</g>
					<g id="XMLID_484_">
						<path id="XMLID_495_" class="st3" d="M28.53,111.53c0,0.94-0.73,1.7-1.63,1.7c-0.9,0-1.63-0.76-1.63-1.7
							c0-0.94,0.73-1.69,1.63-1.69C27.8,109.83,28.53,110.59,28.53,111.53z"/>
						<path id="XMLID_494_" class="st3" d="M98,111.53c0,0.94-0.73,1.7-1.63,1.7c-0.9,0-1.63-0.76-1.63-1.7
							c0-0.94,0.73-1.69,1.63-1.69C97.27,109.83,98,110.59,98,111.53z"/>
						<path id="XMLID_493_" class="st3" d="M167.47,111.53c0,0.94-0.73,1.7-1.63,1.7c-0.9,0-1.63-0.76-1.63-1.7
							c0-0.94,0.73-1.69,1.63-1.69C166.74,109.83,167.47,110.59,167.47,111.53z"/>
						<path id="XMLID_492_" class="st3" d="M236.94,111.53c0,0.94-0.73,1.7-1.63,1.7c-0.9,0-1.63-0.76-1.63-1.7
							c0-0.94,0.73-1.69,1.63-1.69C236.21,109.83,236.94,110.59,236.94,111.53z"/>
						<path id="XMLID_491_" class="st3" d="M306.41,111.53c0,0.94-0.73,1.7-1.63,1.7c-0.9,0-1.63-0.76-1.63-1.7
							c0-0.94,0.73-1.69,1.63-1.69C305.68,109.83,306.41,110.59,306.41,111.53z"/>
						<path id="XMLID_490_" class="st3" d="M375.88,111.53c0,0.94-0.73,1.7-1.63,1.7c-0.9,0-1.63-0.76-1.63-1.7
							c0-0.94,0.73-1.69,1.63-1.69C375.15,109.83,375.88,110.59,375.88,111.53z"/>
						<path id="XMLID_489_" class="st3" d="M445.35,111.53c0,0.94-0.73,1.7-1.63,1.7c-0.9,0-1.63-0.76-1.63-1.7
							c0-0.94,0.73-1.69,1.63-1.69C444.61,109.83,445.35,110.59,445.35,111.53z"/>
						<path id="XMLID_488_" class="st3" d="M514.82,111.53c0,0.94-0.73,1.7-1.63,1.7c-0.9,0-1.63-0.76-1.63-1.7
							c0-0.94,0.73-1.69,1.63-1.69C514.08,109.83,514.82,110.59,514.82,111.53z"/>
						<path id="XMLID_487_" class="st3" d="M584.29,111.53c0,0.94-0.73,1.7-1.63,1.7c-0.9,0-1.63-0.76-1.63-1.7
							c0-0.94,0.73-1.69,1.63-1.69C583.55,109.83,584.29,110.59,584.29,111.53z"/>
						<path id="XMLID_486_" class="st3" d="M653.75,111.53c0,0.94-0.73,1.7-1.63,1.7c-0.9,0-1.63-0.76-1.63-1.7
							c0-0.94,0.73-1.69,1.63-1.69C653.02,109.83,653.75,110.59,653.75,111.53z"/>
						<path id="XMLID_485_" class="st3" d="M723.22,111.53c0,0.94-0.73,1.7-1.63,1.7c-0.9,0-1.63-0.76-1.63-1.7
							c0-0.94,0.73-1.69,1.63-1.69C722.49,109.83,723.22,110.59,723.22,111.53z"/>
					</g>
					<g id="XMLID_472_">
						<path id="XMLID_483_" class="st3" d="M28.53,180.51c0,0.94-0.73,1.69-1.63,1.69c-0.9,0-1.63-0.76-1.63-1.69
							c0-0.94,0.73-1.7,1.63-1.7C27.8,178.82,28.53,179.58,28.53,180.51z"/>
						<path id="XMLID_482_" class="st3" d="M98,180.51c0,0.94-0.73,1.69-1.63,1.69c-0.9,0-1.63-0.76-1.63-1.69
							c0-0.94,0.73-1.7,1.63-1.7C97.27,178.82,98,179.58,98,180.51z"/>
						<path id="XMLID_481_" class="st3" d="M167.47,180.51c0,0.94-0.73,1.69-1.63,1.69c-0.9,0-1.63-0.76-1.63-1.69
							c0-0.94,0.73-1.7,1.63-1.7C166.74,178.82,167.47,179.58,167.47,180.51z"/>
						<path id="XMLID_480_" class="st3" d="M236.94,180.51c0,0.94-0.73,1.69-1.63,1.69c-0.9,0-1.63-0.76-1.63-1.69
							c0-0.94,0.73-1.7,1.63-1.7C236.21,178.82,236.94,179.58,236.94,180.51z"/>
						<path id="XMLID_479_" class="st3" d="M306.41,180.51c0,0.94-0.73,1.69-1.63,1.69c-0.9,0-1.63-0.76-1.63-1.69
							c0-0.94,0.73-1.7,1.63-1.7C305.68,178.82,306.41,179.58,306.41,180.51z"/>
						<path id="XMLID_478_" class="st3" d="M375.88,180.51c0,0.94-0.73,1.69-1.63,1.69c-0.9,0-1.63-0.76-1.63-1.69
							c0-0.94,0.73-1.7,1.63-1.7C375.15,178.82,375.88,179.58,375.88,180.51z"/>
						<path id="XMLID_477_" class="st3" d="M445.35,180.51c0,0.94-0.73,1.69-1.63,1.69c-0.9,0-1.63-0.76-1.63-1.69
							c0-0.94,0.73-1.7,1.63-1.7C444.61,178.82,445.35,179.58,445.35,180.51z"/>
						<path id="XMLID_476_" class="st3" d="M514.82,180.51c0,0.94-0.73,1.69-1.63,1.69c-0.9,0-1.63-0.76-1.63-1.69
							c0-0.94,0.73-1.7,1.63-1.7C514.08,178.82,514.82,179.58,514.82,180.51z"/>
						<path id="XMLID_475_" class="st3" d="M584.29,180.51c0,0.94-0.73,1.69-1.63,1.69c-0.9,0-1.63-0.76-1.63-1.69
							c0-0.94,0.73-1.7,1.63-1.7C583.55,178.82,584.29,179.58,584.29,180.51z"/>
						<path id="XMLID_474_" class="st3" d="M653.75,180.51c0,0.94-0.73,1.69-1.63,1.69c-0.9,0-1.63-0.76-1.63-1.69
							c0-0.94,0.73-1.7,1.63-1.7C653.02,178.82,653.75,179.58,653.75,180.51z"/>
						<path id="XMLID_473_" class="st3" d="M723.22,180.51c0,0.94-0.73,1.69-1.63,1.69c-0.9,0-1.63-0.76-1.63-1.69
							c0-0.94,0.73-1.7,1.63-1.7C722.49,178.82,723.22,179.58,723.22,180.51z"/>
					</g>
					<g id="XMLID_460_">
						<path id="XMLID_471_" class="st3" d="M28.53,249.5c0,0.94-0.73,1.69-1.63,1.69c-0.9,0-1.63-0.76-1.63-1.69
							s0.73-1.69,1.63-1.69C27.8,247.81,28.53,248.56,28.53,249.5z"/>
						<path id="XMLID_470_" class="st3" d="M98,249.5c0,0.94-0.73,1.69-1.63,1.69c-0.9,0-1.63-0.76-1.63-1.69s0.73-1.69,1.63-1.69
							C97.27,247.81,98,248.56,98,249.5z"/>
						<path id="XMLID_469_" class="st3" d="M167.47,249.5c0,0.94-0.73,1.69-1.63,1.69c-0.9,0-1.63-0.76-1.63-1.69
							s0.73-1.69,1.63-1.69C166.74,247.81,167.47,248.56,167.47,249.5z"/>
						<ellipse id="XMLID_468_" class="st3" cx="235.3" cy="249.5" rx="1.63" ry="1.69"/>
						<path id="XMLID_467_" class="st3" d="M306.41,249.5c0,0.94-0.73,1.69-1.63,1.69c-0.9,0-1.63-0.76-1.63-1.69
							s0.73-1.69,1.63-1.69C305.68,247.81,306.41,248.56,306.41,249.5z"/>
						<path id="XMLID_466_" class="st3" d="M375.88,249.5c0,0.94-0.73,1.69-1.63,1.69c-0.9,0-1.63-0.76-1.63-1.69
							s0.73-1.69,1.63-1.69C375.15,247.81,375.88,248.56,375.88,249.5z"/>
						<path id="XMLID_465_" class="st3" d="M445.35,249.5c0,0.94-0.73,1.69-1.63,1.69c-0.9,0-1.63-0.76-1.63-1.69
							s0.73-1.69,1.63-1.69C444.61,247.81,445.35,248.56,445.35,249.5z"/>
						<path id="XMLID_464_" class="st3" d="M514.82,249.5c0,0.94-0.73,1.69-1.63,1.69c-0.9,0-1.63-0.76-1.63-1.69
							s0.73-1.69,1.63-1.69C514.08,247.81,514.82,248.56,514.82,249.5z"/>
						<path id="XMLID_463_" class="st3" d="M584.29,249.5c0,0.94-0.73,1.69-1.63,1.69c-0.9,0-1.63-0.76-1.63-1.69
							s0.73-1.69,1.63-1.69C583.55,247.81,584.29,248.56,584.29,249.5z"/>
						<path id="XMLID_462_" class="st3" d="M653.75,249.5c0,0.94-0.73,1.69-1.63,1.69c-0.9,0-1.63-0.76-1.63-1.69
							s0.73-1.69,1.63-1.69C653.02,247.81,653.75,248.56,653.75,249.5z"/>
						<path id="XMLID_461_" class="st3" d="M723.22,249.5c0,0.94-0.73,1.69-1.63,1.69c-0.9,0-1.63-0.76-1.63-1.69
							s0.73-1.69,1.63-1.69C722.49,247.81,723.22,248.56,723.22,249.5z"/>
					</g>
					<g id="XMLID_448_">
						<path id="XMLID_459_" class="st3" d="M28.53,318.49c0,0.94-0.73,1.7-1.63,1.7c-0.9,0-1.63-0.76-1.63-1.7
							c0-0.94,0.73-1.69,1.63-1.69C27.8,316.79,28.53,317.55,28.53,318.49z"/>
						<path id="XMLID_458_" class="st3" d="M98,318.49c0,0.94-0.73,1.7-1.63,1.7c-0.9,0-1.63-0.76-1.63-1.7
							c0-0.94,0.73-1.69,1.63-1.69C97.27,316.79,98,317.55,98,318.49z"/>
						<path id="XMLID_457_" class="st3" d="M167.47,318.49c0,0.94-0.73,1.7-1.63,1.7c-0.9,0-1.63-0.76-1.63-1.7
							c0-0.94,0.73-1.69,1.63-1.69C166.74,316.79,167.47,317.55,167.47,318.49z"/>
						<path id="XMLID_456_" class="st3" d="M236.94,318.49c0,0.94-0.73,1.7-1.63,1.7c-0.9,0-1.63-0.76-1.63-1.7
							c0-0.94,0.73-1.69,1.63-1.69C236.21,316.79,236.94,317.55,236.94,318.49z"/>
						<path id="XMLID_455_" class="st3" d="M306.41,318.49c0,0.94-0.73,1.7-1.63,1.7c-0.9,0-1.63-0.76-1.63-1.7
							c0-0.94,0.73-1.69,1.63-1.69C305.68,316.79,306.41,317.55,306.41,318.49z"/>
						<path id="XMLID_454_" class="st3" d="M375.88,318.49c0,0.94-0.73,1.7-1.63,1.7c-0.9,0-1.63-0.76-1.63-1.7
							c0-0.94,0.73-1.69,1.63-1.69C375.15,316.79,375.88,317.55,375.88,318.49z"/>
						<path id="XMLID_453_" class="st3" d="M445.35,318.49c0,0.94-0.73,1.7-1.63,1.7c-0.9,0-1.63-0.76-1.63-1.7
							c0-0.94,0.73-1.69,1.63-1.69C444.61,316.79,445.35,317.55,445.35,318.49z"/>
						<path id="XMLID_452_" class="st3" d="M514.82,318.49c0,0.94-0.73,1.7-1.63,1.7c-0.9,0-1.63-0.76-1.63-1.7
							c0-0.94,0.73-1.69,1.63-1.69C514.08,316.79,514.82,317.55,514.82,318.49z"/>
						<path id="XMLID_451_" class="st3" d="M584.29,318.49c0,0.94-0.73,1.7-1.63,1.7c-0.9,0-1.63-0.76-1.63-1.7
							c0-0.94,0.73-1.69,1.63-1.69C583.55,316.79,584.29,317.55,584.29,318.49z"/>
						<path id="XMLID_450_" class="st3" d="M653.75,318.49c0,0.94-0.73,1.7-1.63,1.7c-0.9,0-1.63-0.76-1.63-1.7
							c0-0.94,0.73-1.69,1.63-1.69C653.02,316.79,653.75,317.55,653.75,318.49z"/>
						<path id="XMLID_449_" class="st3" d="M723.22,318.49c0,0.94-0.73,1.7-1.63,1.7c-0.9,0-1.63-0.76-1.63-1.7
							c0-0.94,0.73-1.69,1.63-1.69C722.49,316.79,723.22,317.55,723.22,318.49z"/>
					</g>
					<g id="XMLID_436_">
						<path id="XMLID_447_" class="st3" d="M28.53,387.47c0,0.94-0.73,1.69-1.63,1.69c-0.9,0-1.63-0.76-1.63-1.69
							c0-0.94,0.73-1.7,1.63-1.7C27.8,385.78,28.53,386.53,28.53,387.47z"/>
						<path id="XMLID_446_" class="st3" d="M98,387.47c0,0.94-0.73,1.69-1.63,1.69c-0.9,0-1.63-0.76-1.63-1.69
							c0-0.94,0.73-1.7,1.63-1.7C97.27,385.78,98,386.53,98,387.47z"/>
						<path id="XMLID_445_" class="st3" d="M167.47,387.47c0,0.94-0.73,1.69-1.63,1.69c-0.9,0-1.63-0.76-1.63-1.69
							c0-0.94,0.73-1.7,1.63-1.7C166.74,385.78,167.47,386.53,167.47,387.47z"/>
						<path id="XMLID_444_" class="st3" d="M236.94,387.47c0,0.94-0.73,1.69-1.63,1.69c-0.9,0-1.63-0.76-1.63-1.69
							c0-0.94,0.73-1.7,1.63-1.7C236.21,385.78,236.94,386.53,236.94,387.47z"/>
						<path id="XMLID_443_" class="st3" d="M306.41,387.47c0,0.94-0.73,1.69-1.63,1.69c-0.9,0-1.63-0.76-1.63-1.69
							c0-0.94,0.73-1.7,1.63-1.7C305.68,385.78,306.41,386.53,306.41,387.47z"/>
						<path id="XMLID_442_" class="st3" d="M375.88,387.47c0,0.94-0.73,1.69-1.63,1.69c-0.9,0-1.63-0.76-1.63-1.69
							c0-0.94,0.73-1.7,1.63-1.7C375.15,385.78,375.88,386.53,375.88,387.47z"/>
						<path id="XMLID_441_" class="st3" d="M445.35,387.47c0,0.94-0.73,1.69-1.63,1.69c-0.9,0-1.63-0.76-1.63-1.69
							c0-0.94,0.73-1.7,1.63-1.7C444.61,385.78,445.35,386.53,445.35,387.47z"/>
						<path id="XMLID_440_" class="st3" d="M514.82,387.47c0,0.94-0.73,1.69-1.63,1.69c-0.9,0-1.63-0.76-1.63-1.69
							c0-0.94,0.73-1.7,1.63-1.7C514.08,385.78,514.82,386.53,514.82,387.47z"/>
						<path id="XMLID_439_" class="st3" d="M584.29,387.47c0,0.94-0.73,1.69-1.63,1.69c-0.9,0-1.63-0.76-1.63-1.69
							c0-0.94,0.73-1.7,1.63-1.7C583.55,385.78,584.29,386.53,584.29,387.47z"/>
						<path id="XMLID_438_" class="st3" d="M653.75,387.47c0,0.94-0.73,1.69-1.63,1.69c-0.9,0-1.63-0.76-1.63-1.69
							c0-0.94,0.73-1.7,1.63-1.7C653.02,385.78,653.75,386.53,653.75,387.47z"/>
						<path id="XMLID_437_" class="st3" d="M723.22,387.47c0,0.94-0.73,1.69-1.63,1.69c-0.9,0-1.63-0.76-1.63-1.69
							c0-0.94,0.73-1.7,1.63-1.7C722.49,385.78,723.22,386.53,723.22,387.47z"/>
					</g>
					<g id="XMLID_421_">
						<path id="XMLID_435_" class="st3" d="M28.53,456.46c0,0.94-0.73,1.69-1.63,1.69c-0.9,0-1.63-0.76-1.63-1.69
							c0-0.94,0.73-1.7,1.63-1.7C27.8,454.76,28.53,455.52,28.53,456.46z"/>
						<path id="XMLID_434_" class="st3" d="M98,456.46c0,0.94-0.73,1.69-1.63,1.69c-0.9,0-1.63-0.76-1.63-1.69
							c0-0.94,0.73-1.7,1.63-1.7C97.27,454.76,98,455.52,98,456.46z"/>
						<path id="XMLID_433_" class="st3" d="M167.47,456.46c0,0.94-0.73,1.69-1.63,1.69c-0.9,0-1.63-0.76-1.63-1.69
							c0-0.94,0.73-1.7,1.63-1.7C166.74,454.76,167.47,455.52,167.47,456.46z"/>
						<path id="XMLID_432_" class="st3" d="M236.94,456.46c0,0.94-0.73,1.69-1.63,1.69c-0.9,0-1.63-0.76-1.63-1.69
							c0-0.94,0.73-1.7,1.63-1.7C236.21,454.76,236.94,455.52,236.94,456.46z"/>
						<path id="XMLID_431_" class="st3" d="M306.41,456.46c0,0.94-0.73,1.69-1.63,1.69c-0.9,0-1.63-0.76-1.63-1.69
							c0-0.94,0.73-1.7,1.63-1.7C305.68,454.76,306.41,455.52,306.41,456.46z"/>
						<path id="XMLID_430_" class="st3" d="M375.88,456.46c0,0.94-0.73,1.69-1.63,1.69c-0.9,0-1.63-0.76-1.63-1.69
							c0-0.94,0.73-1.7,1.63-1.7C375.15,454.76,375.88,455.52,375.88,456.46z"/>
						<path id="XMLID_429_" class="st3" d="M445.35,456.46c0,0.94-0.73,1.69-1.63,1.69c-0.9,0-1.63-0.76-1.63-1.69
							c0-0.94,0.73-1.7,1.63-1.7C444.61,454.76,445.35,455.52,445.35,456.46z"/>
						<path id="XMLID_427_" class="st3" d="M514.82,456.46c0,0.94-0.73,1.69-1.63,1.69c-0.9,0-1.63-0.76-1.63-1.69
							c0-0.94,0.73-1.7,1.63-1.7C514.08,454.76,514.82,455.52,514.82,456.46z"/>
						<path id="XMLID_426_" class="st3" d="M584.29,456.46c0,0.94-0.73,1.69-1.63,1.69c-0.9,0-1.63-0.76-1.63-1.69
							c0-0.94,0.73-1.7,1.63-1.7C583.55,454.76,584.29,455.52,584.29,456.46z"/>
						<path id="XMLID_425_" class="st3" d="M653.75,456.46c0,0.94-0.73,1.69-1.63,1.69c-0.9,0-1.63-0.76-1.63-1.69
							c0-0.94,0.73-1.7,1.63-1.7C653.02,454.76,653.75,455.52,653.75,456.46z"/>
						<path id="XMLID_422_" class="st3" d="M723.22,456.46c0,0.94-0.73,1.69-1.63,1.69c-0.9,0-1.63-0.76-1.63-1.69
							c0-0.94,0.73-1.7,1.63-1.7C722.49,454.76,723.22,455.52,723.22,456.46z"/>
					</g>
					<g id="XMLID_371_">
						<path id="XMLID_420_" class="st3" d="M28.53,525.44c0,0.94-0.73,1.7-1.63,1.7c-0.9,0-1.63-0.76-1.63-1.7
							c0-0.94,0.73-1.69,1.63-1.69C27.8,523.75,28.53,524.51,28.53,525.44z"/>
						<path id="XMLID_419_" class="st3" d="M98,525.44c0,0.94-0.73,1.7-1.63,1.7c-0.9,0-1.63-0.76-1.63-1.7
							c0-0.94,0.73-1.69,1.63-1.69C97.27,523.75,98,524.51,98,525.44z"/>
						<path id="XMLID_417_" class="st3" d="M167.47,525.44c0,0.94-0.73,1.7-1.63,1.7c-0.9,0-1.63-0.76-1.63-1.7
							c0-0.94,0.73-1.69,1.63-1.69C166.74,523.75,167.47,524.51,167.47,525.44z"/>
						<path id="XMLID_415_" class="st3" d="M236.94,525.44c0,0.94-0.73,1.7-1.63,1.7c-0.9,0-1.63-0.76-1.63-1.7
							c0-0.94,0.73-1.69,1.63-1.69C236.21,523.75,236.94,524.51,236.94,525.44z"/>
						<path id="XMLID_414_" class="st3" d="M306.41,525.44c0,0.94-0.73,1.7-1.63,1.7c-0.9,0-1.63-0.76-1.63-1.7
							c0-0.94,0.73-1.69,1.63-1.69C305.68,523.75,306.41,524.51,306.41,525.44z"/>
						<path id="XMLID_413_" class="st3" d="M375.88,525.44c0,0.94-0.73,1.7-1.63,1.7c-0.9,0-1.63-0.76-1.63-1.7
							c0-0.94,0.73-1.69,1.63-1.69C375.15,523.75,375.88,524.51,375.88,525.44z"/>
						<path id="XMLID_412_" class="st3" d="M445.35,525.44c0,0.94-0.73,1.7-1.63,1.7c-0.9,0-1.63-0.76-1.63-1.7
							c0-0.94,0.73-1.69,1.63-1.69C444.61,523.75,445.35,524.51,445.35,525.44z"/>
						<path id="XMLID_385_" class="st3" d="M514.82,525.44c0,0.94-0.73,1.7-1.63,1.7c-0.9,0-1.63-0.76-1.63-1.7
							c0-0.94,0.73-1.69,1.63-1.69C514.08,523.75,514.82,524.51,514.82,525.44z"/>
						<path id="XMLID_374_" class="st3" d="M584.29,525.44c0,0.94-0.73,1.7-1.63,1.7c-0.9,0-1.63-0.76-1.63-1.7
							c0-0.94,0.73-1.69,1.63-1.69C583.55,523.75,584.29,524.51,584.29,525.44z"/>
						<path id="XMLID_373_" class="st3" d="M653.75,525.44c0,0.94-0.73,1.7-1.63,1.7c-0.9,0-1.63-0.76-1.63-1.7
							c0-0.94,0.73-1.69,1.63-1.69C653.02,523.75,653.75,524.51,653.75,525.44z"/>
						<path id="XMLID_372_" class="st3" d="M723.22,525.44c0,0.94-0.73,1.7-1.63,1.7c-0.9,0-1.63-0.76-1.63-1.7
							c0-0.94,0.73-1.69,1.63-1.69C722.49,523.75,723.22,524.51,723.22,525.44z"/>
					</g>
				</g>
			</g>
			<g id="XMLID_267_">
				<defs>
					<rect id="XMLID_268_" x="0.33" width="749.33" height="499"/>
				</defs>
				<clipPath id="XMLID_4_">
					<use xlink:href="#XMLID_268_"  style="overflow:visible;"/>
				</clipPath>
				
					<radialGradient id="XMLID_5_" cx="353.9505" cy="269.8211" r="270.045" gradientTransform="matrix(1.3324 0 0 1.3381 -118.5364 -85.0354)" gradientUnits="userSpaceOnUse">
					<stop  offset="5.376340e-03" style="stop-color:#DE3DBF"/>
					<stop  offset="1" style="stop-color:#67219E"/>
				</radialGradient>
				<path id="XMLID_299_" class="st4" d="M550.37,206.69c0,0-15.12,36.03-55.49,12.7c-40.37-23.33-43.66-47.08-121.1-24.21
					c-77.44,22.87-105.57,21.51-122.13-4.74s-47.8-62.7-113.85-58.83C71.76,135.48,37.76,45.69-9.85,31.14
					c-47.61-14.55-82.11,30.36-82.11,30.36v462.32h890.08c0,0-22.77-70.68-73.83-92.16c-51.06-21.48-43.74-36.03-48.44-72.07
					c-4.69-36.03-102.78-60.33-95.94-113.25C586.76,193.42,550.37,206.69,550.37,206.69z"/>
				
					<radialGradient id="XMLID_6_" cx="475.6864" cy="184.6586" r="407.5794" gradientTransform="matrix(1.3086 0 0 1.3381 -120.8115 -85.0354)" gradientUnits="userSpaceOnUse">
					<stop  offset="5.376340e-03" style="stop-color:#DE3DBF"/>
					<stop  offset="1" style="stop-color:#67219E"/>
				</radialGradient>
				<path id="XMLID_275_" class="st5" d="M-79.58,68.36c5.42-3.5,100.29-26.82,130.11,38.78s61.44,66.4,109.32,70.44
					c47.89,4.03,33.43,4.84,86.74,40.01s84.62,16.88,123.47,4.3c38.85-12.57,100.85,17.56,150.42-8.64
					c49.57-26.21,51.59,16.81,51.59,16.81s-13.8,37.52,26.31,63.78c40.11,26.26,20.42,56.51,31.58,104.56
					c11.16,48.04,119.71,119.19,119.71,119.19l-849.12-45.27L-79.58,68.36z"/>
				<path id="XMLID_270_" class="st6" d="M-90.96,62.04c0,0,16.77,70.86,87.52,78.81c70.74,7.95,72.93,5.59,99.91,37.89
					c26.98,32.3,41.57,50.4,89.7,38.7c48.13-11.7,90.43-39.29,129.81-16.89c39.38,22.4,126.62,60.36,216.56-27.78
					C622.5,84.64,593,217.44,593,217.44s-62.34,49.31,28.57,93.59c32.09,16.56,26.86,65.96,37.43,97.99
					c10.57,32.03,97,93.84,97,93.84S93.65,552.84,89.27,553.5c-4.38,0.66-251.7-123.26-251.7-123.26L-90.96,62.04z"/>
			</g>
			<g id="XMLID_150_">
				<defs>
					<rect id="XMLID_151_" x="0.33" width="749.33" height="499"/>
				</defs>
				<clipPath id="XMLID_14_">
					<use xlink:href="#XMLID_151_"  style="overflow:visible;"/>
				</clipPath>
				<linearGradient id="XMLID_22_" gradientUnits="userSpaceOnUse" x1="525.2217" y1="401.6362" x2="538.6175" y2="425.1074">
					<stop  offset="5.376340e-03" style="stop-color:#FEA7AF"/>
					<stop  offset="0.9731" style="stop-color:#EA47AC"/>
				</linearGradient>
				<ellipse id="XMLID_266_" class="st7" cx="531.86" cy="413.27" rx="14.02" ry="14.54"/>
				<polygon id="XMLID_364_" class="st8" points="279.34,257.87 280.3,259.7 282.06,260.69 280.3,261.69 279.34,263.51 
					278.38,261.69 276.62,260.69 278.38,259.7 				"/>
				<polygon id="XMLID_363_" class="st8" points="382.08,382.96 382.71,384.16 383.86,384.81 382.71,385.47 382.08,386.66 
					381.45,385.47 380.29,384.81 381.45,384.16 				"/>
				<polygon id="XMLID_362_" class="st8" points="383.86,275.96 384.49,277.16 385.64,277.81 384.49,278.46 383.86,279.66 
					383.23,278.46 382.08,277.81 383.23,277.16 				"/>
				<polygon id="XMLID_264_" class="st8" points="125.43,434.79 126.06,435.99 127.21,436.64 126.06,437.3 125.43,438.49 
					124.8,437.3 123.65,436.64 124.8,435.99 				"/>
				<polygon id="XMLID_263_" class="st9" points="79.71,222 80.34,223.19 81.49,223.84 80.34,224.5 79.71,225.69 79.08,224.5 
					77.93,223.84 79.08,223.19 				"/>
				<polygon id="XMLID_262_" class="st9" points="12.6,471.2 13.23,472.39 14.38,473.05 13.23,473.7 12.6,474.9 11.97,473.7 
					10.82,473.05 11.97,472.39 				"/>
				<polygon id="XMLID_261_" class="st9" points="21.18,246.39 21.81,247.58 22.96,248.24 21.81,248.89 21.18,250.08 20.55,248.89 
					19.4,248.24 20.55,247.58 				"/>
				<polygon id="XMLID_260_" class="st9" points="164.81,297.74 165.44,298.94 166.59,299.59 165.44,300.24 164.81,301.44 
					164.18,300.24 163.02,299.59 164.18,298.94 				"/>
				<polygon id="XMLID_357_" class="st10" points="223.7,327.35 224.95,329.72 227.23,331.01 224.95,332.3 223.7,334.67 
					222.45,332.3 220.18,331.01 222.45,329.72 				"/>
				<polygon id="XMLID_356_" class="st9" points="34.86,198.44 36.11,200.81 38.38,202.1 36.11,203.39 34.86,205.76 33.61,203.39 
					31.33,202.1 33.61,200.81 				"/>
				<polygon id="XMLID_259_" class="st9" points="531.86,299.59 533.11,301.95 535.39,303.25 533.11,304.54 531.86,306.9 
					530.62,304.54 528.34,303.25 530.62,301.95 				"/>
				<polygon id="XMLID_258_" class="st9" points="521.63,476.08 522.87,478.44 525.15,479.74 522.87,481.03 521.63,483.39 
					520.38,481.03 518.1,479.74 520.38,478.44 				"/>
				<polygon id="XMLID_257_" class="st9" points="41.69,431.21 42.28,432.33 43.36,432.95 42.28,433.56 41.69,434.68 41.1,433.56 
					40.02,432.95 41.1,432.33 				"/>
				<polygon id="XMLID_256_" class="st10" points="294.24,417.45 294.83,418.57 295.91,419.18 294.83,419.79 294.24,420.91 
					293.64,419.79 292.56,419.18 293.64,418.57 				"/>
				<polygon id="XMLID_254_" class="st10" points="436.54,277.93 437.13,279.05 438.21,279.66 437.13,280.27 436.54,281.39 
					435.95,280.27 434.87,279.66 435.95,279.05 				"/>
				<polygon id="XMLID_253_" class="st9" points="504.26,384.93 504.85,386.05 505.93,386.66 504.85,387.27 504.26,388.39 
					503.67,387.27 502.59,386.66 503.67,386.05 				"/>
				<polygon id="XMLID_252_" class="st9" points="462.94,234.49 463.53,235.61 464.61,236.23 463.53,236.84 462.94,237.96 
					462.34,236.84 461.26,236.23 462.34,235.61 				"/>
				<polygon id="XMLID_251_" class="st10" points="323.68,315.59 324.75,317.63 326.72,318.74 324.75,319.86 323.68,321.9 
					322.6,319.86 320.64,318.74 322.6,317.63 				"/>
				<polygon id="XMLID_250_" class="st11" points="209.42,427.29 210.89,430.08 213.58,431.6 210.89,433.13 209.42,435.92 
					207.95,433.13 205.26,431.6 207.95,430.08 				"/>
				<polygon id="XMLID_249_" class="st11" points="442.44,428.6 442.96,429.59 443.91,430.13 442.96,430.67 442.44,431.65 
					441.92,430.67 440.97,430.13 441.92,429.59 				"/>
				<polygon id="XMLID_248_" class="st11" points="469.48,320.37 470,321.36 470.95,321.9 470,322.44 469.48,323.42 468.96,322.44 
					468.01,321.9 468.96,321.36 				"/>
				<polygon id="XMLID_247_" class="st12" points="104.61,322.87 105.55,324.64 107.26,325.61 105.55,326.58 104.61,328.36 
					103.68,326.58 101.96,325.61 103.68,324.64 				"/>
				<polygon id="XMLID_246_" class="st12" points="383.86,432.72 384.53,433.98 385.75,434.68 384.53,435.37 383.86,436.64 
					383.19,435.37 381.97,434.68 383.19,433.98 				"/>
				<polygon id="XMLID_245_" class="st12" points="415.16,471.55 415.82,472.82 417.05,473.51 415.82,474.21 415.16,475.48 
					414.49,474.21 413.26,473.51 414.49,472.82 				"/>
				<polygon id="XMLID_208_" class="st12" points="411.37,329.05 412.04,330.32 413.26,331.01 412.04,331.7 411.37,332.97 
					410.7,331.7 409.48,331.01 410.7,330.32 				"/>
				<polygon id="XMLID_207_" class="st12" points="308.12,358.52 308.79,359.79 310.02,360.48 308.79,361.18 308.12,362.44 
					307.46,361.18 306.23,360.48 307.46,359.79 				"/>
				<polygon id="XMLID_206_" class="st12" points="578.66,375.67 579.33,376.94 580.55,377.64 579.33,378.33 578.66,379.6 
					577.99,378.33 576.76,377.64 577.99,376.94 				"/>
				<g id="XMLID_203_" class="st13">
					
						<linearGradient id="XMLID_24_" gradientUnits="userSpaceOnUse" x1="44.9784" y1="507.3534" x2="67.2309" y2="507.3534" gradientTransform="matrix(0.9394 -0.3429 0.3429 0.9394 -137.8656 -188.1822)">
						<stop  offset="5.376340e-03" style="stop-color:#FEA7AF"/>
						<stop  offset="0.9731" style="stop-color:#EA47AC"/>
					</linearGradient>
					<path id="XMLID_205_" class="st14" d="M99.52,272.12c-1.56,6.13-7.63,9.79-13.54,8.17s-9.44-7.91-7.88-14.04
						c1.56-6.13,7.63-9.79,13.54-8.17C97.56,259.7,101.08,265.99,99.52,272.12z"/>
					
						<linearGradient id="XMLID_26_" gradientUnits="userSpaceOnUse" x1="30.258" y1="241.7936" x2="77.9786" y2="241.7936" gradientTransform="matrix(0.9668 0.2556 -0.2556 0.9668 98.0178 22.6361)">
						<stop  offset="5.376340e-03" style="stop-color:#FEA7AF"/>
						<stop  offset="0.9731" style="stop-color:#EA47AC"/>
					</linearGradient>
					<path id="XMLID_204_" class="st15" d="M100.33,268.96c0,0,1.13,0.34,3.06,1.08c0.96,0.37,2.13,0.85,3.44,1.47
						c1.3,0.65,2.8,1.33,4.18,2.68c0.31,0.37,0.72,0.79,0.72,1.55c-0.02,0.11,0.01,0.14-0.05,0.32l-0.06,0.17
						c-0.08,0.16-0.24,0.38-0.35,0.45c-0.24,0.23-0.49,0.34-0.75,0.45c-1.01,0.39-2.02,0.47-3.05,0.53
						c-2.07,0.08-4.22-0.06-6.42-0.35c-4.41-0.57-9.03-1.55-13.61-2.77c-4.55-1.28-9.04-2.8-13.14-4.56
						c-2.05-0.88-3.99-1.85-5.75-2.99c-0.87-0.59-1.71-1.17-2.4-2.03c-0.16-0.23-0.33-0.46-0.43-0.78
						c-0.11-0.29-0.15-0.73,0.05-1.06c0.04-0.16,0.47-0.62,0.66-0.67c0.24-0.16,0.48-0.21,0.71-0.31c1.85-0.46,3.47-0.28,4.91-0.18
						c1.44,0.13,2.67,0.31,3.69,0.49c2.03,0.35,3.17,0.63,3.17,0.63s-1.17-0.14-3.21-0.33c-1.02-0.09-2.26-0.18-3.68-0.21
						c-1.4,0-3.06-0.02-4.63,0.44c-0.17,0.08-0.38,0.14-0.51,0.25c-0.08,0.05-0.15,0.1-0.16,0.12c-0.01,0.01-0.03,0.02-0.06,0.03
						c-0.02,0.03-0.05,0.1-0.07,0.15c-0.11,0.13,0.05,0.47,0.31,0.79c0.56,0.64,1.38,1.18,2.22,1.69c1.71,1,3.66,1.85,5.67,2.71
						c4.05,1.67,8.52,3.1,13.04,4.31c4.49,1.27,9.07,2.31,13.38,2.93c2.16,0.29,4.25,0.55,6.22,0.56c1.81,0,4.48-0.3,2.95-1.74
						c-1.15-1.2-2.6-2.04-3.82-2.76c-1.24-0.71-2.37-1.27-3.3-1.71C101.41,269.43,100.33,268.96,100.33,268.96z"/>
				</g>
				<g id="XMLID_200_" class="st16">
					
						<linearGradient id="XMLID_29_" gradientUnits="userSpaceOnUse" x1="-999.3599" y1="763.3616" x2="-927.1782" y2="763.3616" gradientTransform="matrix(-0.7476 -0.6641 0.6641 -0.7476 -1063.5243 289.264)">
						<stop  offset="5.376340e-03" style="stop-color:#FEA7AF"/>
						<stop  offset="0.9946" style="stop-color:#EA47AC;stop-opacity:0"/>
					</linearGradient>
					<path id="XMLID_202_" class="st17" d="M139.28,334.15l50.41,47.99c0.28,0.27,0.3,0.72,0.05,1.02l0,0
						c-0.25,0.3-0.69,0.33-0.98,0.07l-51.97-46.17c-0.8-0.71-0.88-1.96-0.18-2.77l0,0C137.3,333.47,138.51,333.41,139.28,334.15z"/>
					
						<linearGradient id="XMLID_32_" gradientUnits="userSpaceOnUse" x1="-998.4304" y1="762.8881" x2="-954.1973" y2="762.8881" gradientTransform="matrix(-0.7476 -0.6641 0.6641 -0.7476 -1063.5243 289.264)">
						<stop  offset="5.376340e-03" style="stop-color:#FEA7AF"/>
						<stop  offset="0.9946" style="stop-color:#EA47AC;stop-opacity:0"/>
					</linearGradient>
					<path id="XMLID_201_" class="st18" d="M158.12,352.51l30.89,29.41c0.17,0.16,0.19,0.44,0.03,0.62l0,0
						c-0.16,0.18-0.42,0.2-0.6,0.04l-31.85-28.29c-0.49-0.43-0.54-1.2-0.11-1.7l0,0C156.91,352.1,157.65,352.06,158.12,352.51z"/>
				</g>
				<g id="XMLID_197_" class="st19">
					
						<linearGradient id="XMLID_33_" gradientUnits="userSpaceOnUse" x1="-1127.0374" y1="984.8843" x2="-1092.3813" y2="984.8843" gradientTransform="matrix(-0.7476 -0.6641 0.6641 -0.7476 -1063.5243 289.264)">
						<stop  offset="5.376340e-03" style="stop-color:#FEA7AF"/>
						<stop  offset="0.9946" style="stop-color:#EA47AC;stop-opacity:0"/>
					</linearGradient>
					<path id="XMLID_199_" class="st20" d="M408.5,278.33l24.2,23.04c0.14,0.13,0.15,0.35,0.02,0.49l0,0
						c-0.12,0.14-0.33,0.16-0.47,0.03l-24.95-22.17c-0.38-0.34-0.42-0.94-0.09-1.33l0,0C407.55,278.01,408.13,277.98,408.5,278.33z"
						/>
					
						<linearGradient id="XMLID_34_" gradientUnits="userSpaceOnUse" x1="-1126.5911" y1="984.657" x2="-1105.3539" y2="984.657" gradientTransform="matrix(-0.7476 -0.6641 0.6641 -0.7476 -1063.5243 289.264)">
						<stop  offset="5.376340e-03" style="stop-color:#FEA7AF"/>
						<stop  offset="0.9946" style="stop-color:#EA47AC;stop-opacity:0"/>
					</linearGradient>
					<path id="XMLID_198_" class="st21" d="M417.54,287.15l14.83,14.12c0.08,0.08,0.09,0.21,0.01,0.3l0,0
						c-0.07,0.09-0.2,0.1-0.29,0.02l-15.29-13.58c-0.23-0.21-0.26-0.58-0.05-0.82l0,0C416.96,286.95,417.32,286.93,417.54,287.15z"
						/>
				</g>
				<g id="XMLID_190_" class="st22">
					<g id="XMLID_194_">
						
							<linearGradient id="XMLID_35_" gradientUnits="userSpaceOnUse" x1="-934.3365" y1="708.4225" x2="-838.498" y2="708.4225" gradientTransform="matrix(-0.7476 -0.6641 0.6641 -0.7476 -1063.5243 289.264)">
							<stop  offset="5.376340e-03" style="stop-color:#FEA7AF"/>
							<stop  offset="0.9946" style="stop-color:#EA47AC;stop-opacity:0"/>
						</linearGradient>
						<path id="XMLID_196_" class="st23" d="M37.38,316.27L104.31,380c0.37,0.36,0.4,0.96,0.07,1.35l0,0
							c-0.34,0.39-0.91,0.43-1.3,0.09l-69-61.3c-1.06-0.94-1.17-2.6-0.24-3.68l0,0C34.76,315.38,36.35,315.3,37.38,316.27z"/>
						
							<linearGradient id="XMLID_36_" gradientUnits="userSpaceOnUse" x1="-933.1024" y1="707.794" x2="-874.3724" y2="707.794" gradientTransform="matrix(-0.7476 -0.6641 0.6641 -0.7476 -1063.5243 289.264)">
							<stop  offset="5.376340e-03" style="stop-color:#FEA7AF"/>
							<stop  offset="0.9946" style="stop-color:#EA47AC;stop-opacity:0"/>
						</linearGradient>
						<path id="XMLID_195_" class="st24" d="M62.4,340.65l41.02,39.05c0.23,0.22,0.25,0.59,0.04,0.83l0,0
							c-0.21,0.24-0.56,0.27-0.8,0.06l-42.29-37.56c-0.65-0.58-0.72-1.59-0.15-2.25l0,0C60.79,340.11,61.77,340.05,62.4,340.65z"/>
					</g>
					<g id="XMLID_191_">
						
							<linearGradient id="XMLID_37_" gradientUnits="userSpaceOnUse" x1="-871.3323" y1="689.4513" x2="-827.3596" y2="689.4513" gradientTransform="matrix(-0.7476 -0.6641 0.6641 -0.7476 -1063.5243 289.264)">
							<stop  offset="5.376340e-03" style="stop-color:#FEA7AF"/>
							<stop  offset="0.9946" style="stop-color:#EA47AC;stop-opacity:0"/>
						</linearGradient>
						<path id="XMLID_193_" class="st25" d="M14.52,323.18l30.71,29.24c0.17,0.16,0.18,0.44,0.03,0.62l0,0
							c-0.15,0.18-0.42,0.2-0.6,0.04L13,324.95c-0.49-0.43-0.54-1.19-0.11-1.69l0,0C13.31,322.77,14.05,322.73,14.52,323.18z"/>
						
							<linearGradient id="XMLID_38_" gradientUnits="userSpaceOnUse" x1="-870.7661" y1="689.1628" x2="-843.8195" y2="689.1628" gradientTransform="matrix(-0.7476 -0.6641 0.6641 -0.7476 -1063.5243 289.264)">
							<stop  offset="5.376340e-03" style="stop-color:#FEA7AF"/>
							<stop  offset="0.9946" style="stop-color:#EA47AC;stop-opacity:0"/>
						</linearGradient>
						<path id="XMLID_192_" class="st26" d="M25.99,334.36l18.82,17.92c0.11,0.1,0.11,0.27,0.02,0.38l0,0
							c-0.09,0.11-0.26,0.12-0.37,0.03l-19.4-17.24c-0.3-0.26-0.33-0.73-0.07-1.03l0,0C25.26,334.11,25.71,334.09,25.99,334.36z"/>
					</g>
				</g>
				<g id="XMLID_167_" class="st16">
					
						<linearGradient id="XMLID_39_" gradientUnits="userSpaceOnUse" x1="-1244.2377" y1="1017.7505" x2="-1200.2648" y2="1017.7505" gradientTransform="matrix(-0.7476 -0.6641 0.6641 -0.7476 -1063.5243 289.264)">
						<stop  offset="5.376340e-03" style="stop-color:#FEA7AF"/>
						<stop  offset="0.9946" style="stop-color:#EA47AC;stop-opacity:0"/>
					</linearGradient>
					<path id="XMLID_189_" class="st27" d="M511.32,325.39l30.71,29.24c0.17,0.16,0.18,0.44,0.03,0.62l0,0
						c-0.15,0.18-0.42,0.2-0.6,0.04l-31.66-28.13c-0.49-0.43-0.54-1.19-0.11-1.69l0,0C510.12,324.98,510.85,324.94,511.32,325.39z"
						/>
					
						<linearGradient id="XMLID_40_" gradientUnits="userSpaceOnUse" x1="-1243.6714" y1="1017.462" x2="-1216.7249" y2="1017.462" gradientTransform="matrix(-0.7476 -0.6641 0.6641 -0.7476 -1063.5243 289.264)">
						<stop  offset="5.376340e-03" style="stop-color:#FEA7AF"/>
						<stop  offset="0.9946" style="stop-color:#EA47AC;stop-opacity:0"/>
					</linearGradient>
					<path id="XMLID_188_" class="st28" d="M522.8,336.57l18.82,17.92c0.11,0.1,0.11,0.27,0.02,0.38l0,0
						c-0.09,0.11-0.26,0.12-0.37,0.03l-19.4-17.24c-0.3-0.26-0.33-0.73-0.07-1.03l0,0C522.06,336.32,522.51,336.3,522.8,336.57z"/>
				</g>
				<g id="XMLID_159_" class="st16">
					<g id="XMLID_162_">
						<linearGradient id="XMLID_41_" gradientUnits="userSpaceOnUse" x1="140.9114" y1="235.1546" x2="224.4162" y2="235.1546">
							<stop  offset="5.376340e-03" style="stop-color:#FEA7AF"/>
							<stop  offset="0.9731" style="stop-color:#EA47AC"/>
						</linearGradient>
						<path id="XMLID_165_" class="st29" d="M224.42,235.15c0,4.16-0.56,8.16-1.6,11.96c-5.01,18.09-21.09,31.33-40.15,31.33
							c-21.3,0-38.89-16.56-41.43-37.93c-0.21-1.76-0.32-3.55-0.32-5.36c0-7.04,1.62-13.68,4.5-19.55
							c6.88-14.08,20.98-23.74,37.25-23.74c17.03,0,31.68,10.56,38.17,25.72C223.13,222.94,224.42,228.89,224.42,235.15z"/>
						<linearGradient id="XMLID_42_" gradientUnits="userSpaceOnUse" x1="145.4154" y1="206.5963" x2="220.8343" y2="206.5963">
							<stop  offset="5.376340e-03" style="stop-color:#FEA7AF"/>
							<stop  offset="0.0453" style="stop-color:#FDA1AF"/>
							<stop  offset="0.3245" style="stop-color:#F57AAE"/>
							<stop  offset="0.5813" style="stop-color:#EF5EAD"/>
							<stop  offset="0.8058" style="stop-color:#EB4DAC"/>
							<stop  offset="0.9731" style="stop-color:#EA47AC"/>
						</linearGradient>
						<path id="XMLID_164_" class="st30" d="M220.83,217.58c-20.18-10.74-27.1-6.24-48.66,1.73c-12.32,4.56-21.32,0.55-26.76-3.71
							c6.88-14.08,20.98-23.74,37.25-23.74C199.69,191.86,214.34,202.42,220.83,217.58z"/>
						<linearGradient id="XMLID_43_" gradientUnits="userSpaceOnUse" x1="141.2321" y1="259.4837" x2="222.8124" y2="259.4837">
							<stop  offset="5.376340e-03" style="stop-color:#FEA7AF"/>
							<stop  offset="0.126" style="stop-color:#FA93AE"/>
							<stop  offset="0.3615" style="stop-color:#F372AD"/>
							<stop  offset="0.5869" style="stop-color:#EE5AAD"/>
							<stop  offset="0.7962" style="stop-color:#EB4CAC"/>
							<stop  offset="0.9731" style="stop-color:#EA47AC"/>
						</linearGradient>
						<path id="XMLID_163_" class="st31" d="M222.81,247.11c-5.01,18.09-21.09,31.33-40.15,31.33c-21.3,0-38.89-16.56-41.43-37.93
							c5.64,5.35,14.74,11.11,27.6,10.32C190.78,249.5,207.64,233.42,222.81,247.11z"/>
					</g>
				</g>
				<g id="XMLID_152_" class="st16">
					<g id="XMLID_153_">
						
							<linearGradient id="XMLID_44_" gradientUnits="userSpaceOnUse" x1="581.8654" y1="178.0724" x2="664.4152" y2="178.0724" gradientTransform="matrix(0.9473 0.3203 -0.3203 0.9473 110.2588 82.0863)">
							<stop  offset="5.376340e-03" style="stop-color:#DE3DBF"/>
							<stop  offset="1" style="stop-color:#67219E"/>
						</linearGradient>
						<path id="XMLID_157_" class="st32" d="M682.47,464.02c-1.26,3.88-3.01,7.43-5.13,10.63c-10.18,15.23-29.21,22.33-46.99,16.1
							c-19.87-6.97-31.24-28.17-27.11-48.94c0.34-1.71,0.78-3.41,1.33-5.11c2.14-6.57,5.67-12.23,10.15-16.77
							c10.7-10.88,26.8-15.28,41.97-9.96c15.88,5.57,26.34,20.21,27.78,36.48C684.99,452.21,684.38,458.18,682.47,464.02z"/>
						
							<linearGradient id="XMLID_45_" gradientUnits="userSpaceOnUse" x1="586.1124" y1="149.9348" x2="660.6852" y2="149.9348" gradientTransform="matrix(0.9473 0.3203 -0.3203 0.9473 110.2588 82.0863)">
							<stop  offset="5.376340e-03" style="stop-color:#DE3DBF"/>
							<stop  offset="0.1175" style="stop-color:#CA38BA"/>
							<stop  offset="0.3936" style="stop-color:#A02EAE"/>
							<stop  offset="0.6424" style="stop-color:#8127A5"/>
							<stop  offset="0.853" style="stop-color:#6E23A0"/>
							<stop  offset="1" style="stop-color:#67219E"/>
						</linearGradient>
						<path id="XMLID_155_" class="st33" d="M684.48,446.46c-15.56-16.62-23.39-14.68-45.92-14.3
							c-12.88,0.22-20.05-6.46-23.83-12.22c10.7-10.88,26.8-15.28,41.97-9.96C672.58,415.55,683.03,430.19,684.48,446.46z"/>
						
							<linearGradient id="XMLID_46_" gradientUnits="userSpaceOnUse" x1="582.2421" y1="201.7155" x2="662.9543" y2="201.7155" gradientTransform="matrix(0.9473 0.3203 -0.3203 0.9473 110.2588 82.0863)">
							<stop  offset="5.376340e-03" style="stop-color:#DE3DBF"/>
							<stop  offset="0.1162" style="stop-color:#C337B8"/>
							<stop  offset="0.2799" style="stop-color:#A22FAE"/>
							<stop  offset="0.4483" style="stop-color:#8829A7"/>
							<stop  offset="0.6212" style="stop-color:#7624A2"/>
							<stop  offset="0.8012" style="stop-color:#6B229F"/>
							<stop  offset="1" style="stop-color:#67219E"/>
						</linearGradient>
						<path id="XMLID_154_" class="st34" d="M677.34,474.66c-10.18,15.23-29.21,22.33-46.99,16.1
							c-19.87-6.97-31.24-28.17-27.11-48.94c3.63,6.84,10.37,15.19,22.61,18.66C646.73,466.4,667.35,456.92,677.34,474.66z"/>
					</g>
				</g>
			</g>
			<g id="XMLID_7_">
				<g id="XMLID_8_">
					<g id="XMLID_120_">
						
							<linearGradient id="XMLID_47_" gradientUnits="userSpaceOnUse" x1="244.4235" y1="-265.588" x2="265.1837" y2="-265.588" gradientTransform="matrix(0.8147 0.5799 -0.5799 0.8147 171.9699 229.4433)">
							<stop  offset="5.376340e-03" style="stop-color:#A02CC2"/>
							<stop  offset="0.0148" style="stop-color:#9F2CC1"/>
							<stop  offset="0.3274" style="stop-color:#7222A6"/>
							<stop  offset="0.607" style="stop-color:#521B92"/>
							<stop  offset="0.8407" style="stop-color:#3E1786"/>
							<stop  offset="1" style="stop-color:#371582"/>
						</linearGradient>
						<path id="XMLID_140_" class="st35" d="M568.16,126.17l-76.44,111.36l-14.84-10.96l76.44-111.36
							c5.49-8,12.11-15.09,19.64-21.05l6.32-5c0.17-0.13,0.34-0.24,0.52-0.32c1.99-0.96,4.33,1.01,3.59,3.36l-2.48,7.83
							C577.95,109.36,573.66,118.17,568.16,126.17z"/>
						<path id="XMLID_138_" class="st36" d="M564.45,123.43l-76.44,111.36l-11.13-8.22l76.44-111.36c5.49-8,12.11-15.09,19.64-21.05
							l6.32-5c0.17-0.13,0.34-0.24,0.52-0.32c-0.01,0.2-0.06,0.41-0.12,0.62l-2.48,7.83C574.24,106.62,569.95,115.43,564.45,123.43z
							"/>
						
							<linearGradient id="XMLID_48_" gradientUnits="userSpaceOnUse" x1="245.3854" y1="-265.0545" x2="261.5339" y2="-265.0545" gradientTransform="matrix(0.8147 0.5799 -0.5799 0.8147 171.9699 229.4433)">
							<stop  offset="5.376340e-03" style="stop-color:#A02CC2"/>
							<stop  offset="0.0148" style="stop-color:#9F2CC1"/>
							<stop  offset="0.3274" style="stop-color:#7222A6"/>
							<stop  offset="0.607" style="stop-color:#521B92"/>
							<stop  offset="0.8407" style="stop-color:#3E1786"/>
							<stop  offset="1" style="stop-color:#371582"/>
						</linearGradient>
						<path id="XMLID_130_" class="st37" d="M565.28,123.93l-76.44,111.36l-11.13-8.22l76.44-111.36c5.49-8,12.11-15.09,19.64-21.05
							l6.32-5c0.17-0.13,0.34-0.24,0.52-0.32c-0.01,0.2-0.06,0.41-0.12,0.62l-2.48,7.83C575.07,107.12,570.77,115.93,565.28,123.93z
							"/>
						
							<radialGradient id="XMLID_49_" cx="224.7021" cy="-173.7445" r="28.7293" gradientTransform="matrix(1.0513 0.776 -0.7483 1.0902 113.162 221.9922)" gradientUnits="userSpaceOnUse">
							<stop  offset="5.376340e-03" style="stop-color:#A02CC2"/>
							<stop  offset="1" style="stop-color:#371582"/>
						</radialGradient>
						<polygon id="XMLID_129_" class="st38" points="490.81,249.04 466.69,231.23 482.7,218.09 497.54,229.05 						"/>
						<polygon id="XMLID_128_" class="st39" points="484.93,244.7 466.69,231.23 482.7,218.09 491.67,224.71 						"/>
						
							<radialGradient id="XMLID_50_" cx="225.1846" cy="-173.8851" r="25.5837" gradientTransform="matrix(1.0513 0.776 -0.7483 1.0902 113.162 221.9922)" gradientUnits="userSpaceOnUse">
							<stop  offset="5.376340e-03" style="stop-color:#A02CC2"/>
							<stop  offset="1" style="stop-color:#371582"/>
						</radialGradient>
						<polygon id="XMLID_123_" class="st40" points="486.2,245.47 466.69,231.23 483.97,218.86 492.94,225.48 						"/>
						
							<radialGradient id="XMLID_51_" cx="228.6918" cy="-153.5651" r="15.6174" gradientTransform="matrix(1.0513 0.776 -0.7483 1.0902 113.162 221.9922)" gradientUnits="userSpaceOnUse">
							<stop  offset="5.376340e-03" style="stop-color:#A02CC2"/>
							<stop  offset="1" style="stop-color:#371582"/>
						</radialGradient>
						<polygon id="XMLID_122_" class="st41" points="486.18,247.18 469.38,234.78 470.09,233.74 486.89,246.15 						"/>
						
							<radialGradient id="XMLID_52_" cx="17.3279" cy="-541.8405" r="15.6179" gradientTransform="matrix(0.9288 0.6855 -0.3355 0.4887 283.6271 469.1901)" gradientUnits="userSpaceOnUse">
							<stop  offset="0" style="stop-color:#371582"/>
							<stop  offset="0.9946" style="stop-color:#A02CC2"/>
						</radialGradient>
						<polygon id="XMLID_121_" class="st42" points="497.54,229.05 482.7,218.09 483.02,217.63 497.86,228.58 						"/>
					</g>
					<g id="XMLID_97_">
						
							<linearGradient id="XMLID_53_" gradientUnits="userSpaceOnUse" x1="311.7134" y1="-263.1626" x2="332.4736" y2="-263.1626" gradientTransform="matrix(0.8147 0.5799 -0.5799 0.8147 171.9699 229.4433)">
							<stop  offset="5.376340e-03" style="stop-color:#A02CC2"/>
							<stop  offset="0.0148" style="stop-color:#9F2CC1"/>
							<stop  offset="0.3274" style="stop-color:#7222A6"/>
							<stop  offset="0.607" style="stop-color:#521B92"/>
							<stop  offset="0.8407" style="stop-color:#3E1786"/>
							<stop  offset="1" style="stop-color:#371582"/>
						</linearGradient>
						<path id="XMLID_119_" class="st43" d="M621.58,167.16l-76.44,111.36l-14.84-10.96l76.44-111.36
							c5.49-8,12.11-15.09,19.64-21.05l6.32-5c0.17-0.13,0.34-0.24,0.52-0.32c1.99-0.96,4.33,1.01,3.59,3.36l-2.48,7.83
							C631.37,150.35,627.07,159.16,621.58,167.16z"/>
						<path id="XMLID_118_" class="st44" d="M617.87,164.43l-76.44,111.36l-11.13-8.22l76.44-111.36c5.49-8,12.11-15.09,19.64-21.05
							l6.32-5c0.17-0.13,0.34-0.24,0.52-0.32c-0.01,0.2-0.06,0.41-0.13,0.62l-2.48,7.83C627.66,147.61,623.36,156.43,617.87,164.43z
							"/>
						
							<linearGradient id="XMLID_54_" gradientUnits="userSpaceOnUse" x1="312.2161" y1="-262.4622" x2="328.3646" y2="-262.4622" gradientTransform="matrix(0.8147 0.5799 -0.5799 0.8147 171.9699 229.4433)">
							<stop  offset="5.376340e-03" style="stop-color:#A02CC2"/>
							<stop  offset="0.0148" style="stop-color:#9F2CC1"/>
							<stop  offset="0.3274" style="stop-color:#7222A6"/>
							<stop  offset="0.607" style="stop-color:#521B92"/>
							<stop  offset="0.8407" style="stop-color:#3E1786"/>
							<stop  offset="1" style="stop-color:#371582"/>
						</linearGradient>
						<path id="XMLID_103_" class="st45" d="M618.22,164.79l-76.44,111.36l-11.13-8.22l76.44-111.36c5.49-8,12.11-15.09,19.64-21.05
							l6.32-5c0.17-0.13,0.34-0.24,0.52-0.32c-0.01,0.2-0.06,0.41-0.13,0.62l-2.48,7.83C628.01,147.98,623.71,156.79,618.22,164.79z
							"/>
						
							<radialGradient id="XMLID_55_" cx="276.1895" cy="-172.787" r="28.7292" gradientTransform="matrix(1.0513 0.776 -0.7483 1.0902 113.162 221.9922)" gradientUnits="userSpaceOnUse">
							<stop  offset="5.376340e-03" style="stop-color:#A02CC2"/>
							<stop  offset="1" style="stop-color:#371582"/>
						</radialGradient>
						<polygon id="XMLID_102_" class="st46" points="544.22,290.04 520.1,272.23 536.11,259.09 550.96,270.04 						"/>
						<polygon id="XMLID_101_" class="st39" points="538.35,285.7 520.1,272.23 536.11,259.09 545.08,265.71 						"/>
						
							<radialGradient id="XMLID_56_" cx="277.657" cy="-172.7601" r="24.7271" gradientTransform="matrix(1.0513 0.776 -0.7483 1.0902 113.162 221.9922)" gradientUnits="userSpaceOnUse">
							<stop  offset="5.376340e-03" style="stop-color:#A02CC2"/>
							<stop  offset="1" style="stop-color:#371582"/>
						</radialGradient>
						<polygon id="XMLID_100_" class="st47" points="539.23,286.4 520.99,272.93 537,259.78 545.97,266.4 						"/>
						
							<radialGradient id="XMLID_57_" cx="280.1792" cy="-152.6076" r="15.6173" gradientTransform="matrix(1.0513 0.776 -0.7483 1.0902 113.162 221.9922)" gradientUnits="userSpaceOnUse">
							<stop  offset="5.376340e-03" style="stop-color:#A02CC2"/>
							<stop  offset="1" style="stop-color:#371582"/>
						</radialGradient>
						<polygon id="XMLID_99_" class="st48" points="539.6,288.18 522.79,275.78 523.5,274.74 540.31,287.14 						"/>
						
							<radialGradient id="XMLID_58_" cx="75.6109" cy="-539.7068" r="15.6179" gradientTransform="matrix(0.9288 0.6855 -0.3355 0.4887 283.6271 469.1901)" gradientUnits="userSpaceOnUse">
							<stop  offset="0" style="stop-color:#371582"/>
							<stop  offset="0.9946" style="stop-color:#A02CC2"/>
						</radialGradient>
						<polygon id="XMLID_98_" class="st49" points="550.96,270.04 536.11,259.09 536.43,258.62 551.28,269.58 						"/>
					</g>
					<g id="XMLID_95_">
						
							<linearGradient id="XMLID_59_" gradientUnits="userSpaceOnUse" x1="258.7731" y1="-288.8677" x2="316.8971" y2="-288.8677" gradientTransform="matrix(0.8147 0.5799 -0.5799 0.8147 171.9699 229.4433)">
							<stop  offset="5.376340e-03" style="stop-color:#A02CC2"/>
							<stop  offset="1" style="stop-color:#371582"/>
						</linearGradient>
						<path id="XMLID_96_" class="st50" d="M628.21,129.63L525.55,279.19l-44.28-32.68L583.93,96.95
							c11.12-16.2,26.55-28.68,44.42-35.91l9.12-3.69l0.03-0.02c4.56-1.85,9.45,1.76,9.26,6.83l-0.38,10.18
							C645.65,94.21,639.33,113.43,628.21,129.63z"/>
						<path id="XMLID_105_" class="st39" d="M618.92,122.77L516.26,272.33l-34.99-25.83L583.93,96.95
							c11.12-16.2,26.55-28.68,44.42-35.91l9.12-3.69l-0.38,10.14C636.36,87.36,630.04,106.57,618.92,122.77z"/>
						
							<linearGradient id="XMLID_60_" gradientUnits="userSpaceOnUse" x1="259.2209" y1="-287.5862" x2="305.8049" y2="-287.5862" gradientTransform="matrix(0.8147 0.5799 -0.5799 0.8147 171.9699 229.4433)">
							<stop  offset="5.376340e-03" style="stop-color:#A02CC2"/>
							<stop  offset="1" style="stop-color:#371582"/>
						</linearGradient>
						<path id="XMLID_104_" class="st51" d="M619.38,122.91L516.72,272.46l-34.99-25.83L584.39,97.08
							c11.12-16.2,26.55-28.68,44.42-35.91l9.12-3.69l-0.38,10.14C636.82,87.49,630.5,106.7,619.38,122.91z"/>
					</g>
					<g id="XMLID_92_">
						<defs>
							<path id="XMLID_93_" d="M646.38,74.34l0.38-10.18c0.19-5.07-4.7-8.68-9.26-6.83l-0.03,0.02l-9.12,3.69
								c-17.87,7.23-33.3,19.71-44.42,35.91l-3.9,5.68c0.3-0.86,0.6-1.72,0.88-2.6l2.48-7.83c0.74-2.35-1.6-4.31-3.59-3.36
								c-0.18,0.08-0.35,0.19-0.52,0.32l-6.32,5c-7.53,5.95-14.15,13.05-19.64,21.05L482.7,218.09l-16.01,13.14l9.37,6.92
								l-5.97-4.41l-0.71,1.03l13.24,9.77l-1.34,1.96l44.28,32.68l0.63-0.91l13.42,9.91l0.71-1.03l-1.06-0.78l0,0l4.98,3.67
								l6.73-19.99l70.62-102.88c5.49-8,9.79-16.81,12.75-26.14l2.48-7.83c0.74-2.35-1.6-4.31-3.59-3.36
								c-0.18,0.08-0.35,0.19-0.52,0.32l-6.32,5c-1.62,1.28-3.18,2.62-4.71,4l6.54-9.53C639.33,113.43,645.65,94.21,646.38,74.34z"
								/>
						</defs>
						<clipPath id="XMLID_61_">
							<use xlink:href="#XMLID_93_"  style="overflow:visible;"/>
						</clipPath>
						<linearGradient id="XMLID_62_" gradientUnits="userSpaceOnUse" x1="539.1467" y1="146.2039" x2="571.2095" y2="216.6026">
							<stop  offset="5.376340e-03" style="stop-color:#DE3DBF"/>
							<stop  offset="1" style="stop-color:#67219E"/>
						</linearGradient>
						<path id="XMLID_94_" class="st52" d="M624.85,104.56c-0.21-0.15-0.43-0.29-0.65-0.42c-0.07-0.04-0.14-0.07-0.22-0.11
							c-0.16-0.08-0.32-0.16-0.48-0.23c-0.09-0.04-0.18-0.07-0.26-0.1c-0.15-0.06-0.31-0.11-0.47-0.16
							c-0.1-0.03-0.19-0.05-0.29-0.07c-0.16-0.04-0.31-0.07-0.47-0.09c-0.1-0.02-0.2-0.03-0.31-0.04c-0.16-0.02-0.32-0.02-0.47-0.03
							c-0.11,0-0.22,0-0.32,0c-0.16,0.01-0.31,0.02-0.47,0.04c-0.11,0.01-0.23,0.03-0.34,0.04c-0.15,0.03-0.29,0.06-0.44,0.1
							c-0.13,0.03-0.25,0.06-0.38,0.1c-0.02,0.01-0.05,0.01-0.07,0.02c-0.22,0.07-0.44,0.16-0.67,0.25
							c-3.06,1.38-6.05,2.91-8.96,4.58c-13.47,7.75-25.15,18.55-34.14,31.64l-32.9,47.92l-48.66,12.53l-21.04,27.71l0.68,0.4
							l-1.5,1.98l23.85,14.14l1.17,0.7l-8.55,7.29c-1.46,1.24-1.38,3.58,0.16,4.71l1.79,1.32l-1.35,1.96l13.33,9.84l1.35-1.96
							l4.14,3.05l-5.57,8.49c-0.5,0.76-0.32,1.8,0.4,2.33c0.08,0.06,0.17,0.08,0.26,0.12c0.07,0.08,0.13,0.17,0.22,0.24
							c0.72,0.53,1.73,0.37,2.26-0.37l5.92-8.24l3.32,2.45l-1.35,1.96l13.33,9.84l1.35-1.96l2.15,1.59
							c1.54,1.13,3.69,0.45,4.34-1.39l3.84-10.76l0.81,0.74l20.91,18.92l1.31-2.12l0.09,0.08l18.36-29.68l-4.44-50.89l33.24-48.43
							c5.46-7.96,9.83-16.61,13-25.71c2.07-5.92,3.64-12.03,4.67-18.27c0.56-3.34,0.97-6.71,1.23-10.11
							C627.73,108.01,626.59,105.84,624.85,104.56z"/>
					</g>
					<g id="XMLID_9_">
						<g id="XMLID_30_">
							<polygon id="XMLID_91_" class="st53" points="511.45,250.84 466.66,227.14 488.53,197.06 557.55,179.28 							"/>
							
								<radialGradient id="XMLID_63_" cx="-234.2444" cy="-249.093" r="94.9274" gradientTransform="matrix(0.8054 0.5944 -0.7483 1.0902 534.9842 533.0435)" gradientUnits="userSpaceOnUse">
								<stop  offset="0" style="stop-color:#67219E"/>
								<stop  offset="0.9946" style="stop-color:#DE3DBF"/>
							</radialGradient>
							<polygon id="XMLID_89_" class="st54" points="512.31,251.89 468.35,225.81 487.7,199.44 558.4,180.33 							"/>
							<polygon id="XMLID_31_" class="st55" points="517.97,255.58 554.73,292.15 574.49,260.43 568.09,186.98 							"/>
						</g>
						<g id="XMLID_21_">
							
								<radialGradient id="XMLID_64_" cx="221.1696" cy="-247.6964" r="89.3953" gradientTransform="matrix(1.0513 0.776 -0.7483 1.0902 113.162 221.9922)" gradientUnits="userSpaceOnUse">
								<stop  offset="5.376340e-03" style="stop-color:#DE3DBF"/>
								<stop  offset="1" style="stop-color:#67219E"/>
							</radialGradient>
							<polygon id="XMLID_28_" class="st56" points="510.63,253.22 490.51,241.29 466.66,227.14 487.7,199.44 523.39,190.25 
								556.72,181.66 							"/>
							
								<radialGradient id="XMLID_65_" cx="223.1051" cy="-220.4308" r="60.5397" gradientTransform="matrix(1.0513 0.776 -0.7483 1.0902 113.162 221.9922)" gradientUnits="userSpaceOnUse">
								<stop  offset="5.376340e-03" style="stop-color:#DE3DBF"/>
								<stop  offset="1" style="stop-color:#67219E"/>
							</radialGradient>
							<polygon id="XMLID_27_" class="st57" points="490.51,241.29 466.66,227.14 487.7,199.44 523.39,190.25 							"/>
							
								<radialGradient id="XMLID_66_" cx="265.8821" cy="-247.6966" r="89.3962" gradientTransform="matrix(1.0513 0.776 -0.7483 1.0902 113.162 221.9922)" gradientUnits="userSpaceOnUse">
								<stop  offset="5.376340e-03" style="stop-color:#DE3DBF"/>
								<stop  offset="1" style="stop-color:#67219E"/>
							</radialGradient>
							<polygon id="XMLID_25_" class="st58" points="554.73,292.15 533.83,273.23 516.57,257.61 566.69,189.02 569.74,224.08 
								573.09,262.46 							"/>
							
								<radialGradient id="XMLID_67_" cx="285.455" cy="-220.7446" r="60.8699" gradientTransform="matrix(1.0513 0.776 -0.7483 1.0902 113.162 221.9922)" gradientUnits="userSpaceOnUse">
								<stop  offset="5.376340e-03" style="stop-color:#DE3DBF"/>
								<stop  offset="1" style="stop-color:#67219E"/>
							</radialGradient>
							<polygon id="XMLID_23_" class="st59" points="554.73,292.15 533.83,273.23 569.74,224.08 573.09,262.46 							"/>
						</g>
						
							<linearGradient id="XMLID_68_" gradientUnits="userSpaceOnUse" x1="382.6076" y1="-274.7126" x2="310.5658" y2="-270.7997" gradientTransform="matrix(0.8147 0.5799 -0.5799 0.8147 171.9699 229.4433)">
							<stop  offset="5.376340e-03" style="stop-color:#DE3DBF"/>
							<stop  offset="1" style="stop-color:#67219E"/>
						</linearGradient>
						<path id="XMLID_20_" class="st60" d="M603.29,161.11l-73.15,106.57l-33.21-24.51l73.15-106.57
							c8.99-13.09,20.67-23.89,34.14-31.64c2.9-1.67,5.89-3.2,8.96-4.58c0.23-0.1,0.44-0.18,0.67-0.25
							c2.03-0.66,4.08-0.22,5.65,0.94c1.74,1.28,2.88,3.45,2.69,5.96c-0.25,3.4-0.66,6.77-1.23,10.11
							c-1.04,6.23-2.6,12.34-4.67,18.27C613.13,144.5,608.76,153.15,603.29,161.11z"/>
						<path id="XMLID_19_" class="st55" d="M594.94,154.94l-73.15,106.57l-24.85-18.34l73.15-106.57
							c8.99-13.09,20.67-23.89,34.14-31.64c2.9-1.67,5.89-3.2,8.96-4.58c0.23-0.1,0.44-0.18,0.67-0.25c0.01,0.24,0,0.48-0.01,0.74
							c-0.25,3.4-0.66,6.77-1.23,10.11c-1.04,6.23-2.6,12.34-4.67,18.27C604.77,138.33,600.4,146.98,594.94,154.94z"/>
						
							<linearGradient id="XMLID_69_" gradientUnits="userSpaceOnUse" x1="271.5789" y1="-269.247" x2="304.6719" y2="-269.247" gradientTransform="matrix(0.8147 0.5799 -0.5799 0.8147 171.9699 229.4433)">
							<stop  offset="5.376340e-03" style="stop-color:#DE3DBF"/>
							<stop  offset="1" style="stop-color:#67219E"/>
						</linearGradient>
						<path id="XMLID_18_" class="st61" d="M595.87,155.51l-73.15,106.57l-24.85-18.34l73.15-106.57
							c8.99-13.09,20.67-23.89,34.14-31.64c2.9-1.67,5.89-3.2,8.96-4.58c0.23-0.1,0.44-0.18,0.67-0.25c0.01,0.24,0,0.48-0.01,0.74
							c-0.25,3.4-0.66,6.77-1.22,10.11c-1.04,6.23-2.6,12.34-4.67,18.27C605.7,138.9,601.34,147.55,595.87,155.51z"/>
						<path id="XMLID_17_" class="st62" d="M524.83,284.64l-41.53-30.66c-1.54-1.13-1.61-3.47-0.16-4.71l28.93-24.67
							c4.02-3.42,9.75-3.63,13.98-0.5l12.01,8.86c4.24,3.13,5.93,8.81,4.12,13.87l-13.01,36.42
							C528.52,285.08,526.36,285.77,524.83,284.64z"/>
						<linearGradient id="XMLID_70_" gradientUnits="userSpaceOnUse" x1="481.6498" y1="255.2152" x2="541.3445" y2="255.2152">
							<stop  offset="5.376340e-03" style="stop-color:#DE3DBF"/>
							<stop  offset="1" style="stop-color:#67219E"/>
						</linearGradient>
						<path id="XMLID_418_" class="st63" d="M540.64,248.63l-12.76,35.76c-0.64,1.8-2.77,2.48-4.26,1.37l-18.68-13.79l-2.98-2.19
							l-19.13-14.12c-1.5-1.12-1.58-3.41-0.15-4.63l28.4-24.23c3.94-3.35,9.57-3.56,13.73-0.49l3.81,2.81l4.64,3.42l3.34,2.47
							C540.75,238.08,542.42,243.67,540.64,248.63z"/>
						<polygon id="XMLID_16_" class="st64" points="495.67,268.02 482.35,258.18 483.69,256.22 497.02,266.05 						"/>
						<polygon id="XMLID_15_" class="st64" points="519.95,285.93 506.62,276.1 507.97,274.13 521.29,283.97 						"/>
						<g id="XMLID_12_">
							
								<linearGradient id="XMLID_71_" gradientUnits="userSpaceOnUse" x1="279.2873" y1="-328.9006" x2="301.3226" y2="-328.9006" gradientTransform="matrix(0.8147 0.5799 -0.5799 0.8147 171.9699 229.4433)">
								<stop  offset="5.376340e-03" style="stop-color:#DE3DBF"/>
								<stop  offset="1" style="stop-color:#67219E"/>
							</linearGradient>
							<path id="XMLID_13_" class="st65" d="M604.85,138.3c-0.32-0.23-0.55-0.6-0.62-1.03c-1.07-6.6-7.12-11.06-13.49-9.95
								c-0.83,0.15-1.62-0.44-1.76-1.3c-0.14-0.86,0.42-1.68,1.25-1.82c8.02-1.4,15.65,4.23,17,12.55c0.14,0.86-0.42,1.68-1.25,1.82
								C605.57,138.64,605.16,138.53,604.85,138.3z"/>
						</g>
						
							<linearGradient id="XMLID_72_" gradientUnits="userSpaceOnUse" x1="279.797" y1="-356.9443" x2="305.1937" y2="-358.6615" gradientTransform="matrix(0.8147 0.5799 -0.5799 0.8147 171.9699 229.4433)">
							<stop  offset="5.376340e-03" style="stop-color:#DE3DBF"/>
							<stop  offset="1" style="stop-color:#67219E"/>
						</linearGradient>
						<path id="XMLID_11_" class="st66" d="M620.97,117.14c-2.36-6.85-7.72-11-16.74-12.18c2.9-1.67,5.89-3.2,8.96-4.58
							c2.23-1,4.57-0.6,6.32,0.69c1.74,1.28,2.88,3.45,2.69,5.96C621.95,110.43,621.54,113.79,620.97,117.14z"/>
						<path id="XMLID_416_" class="st67" d="M534.44,230.9l-1.19,1.65l-28.32,39.41l-2.98-2.19l26.66-40.65l1.11-1.7
							C532.29,227.38,533.66,228.77,534.44,230.9z"/>
						
							<linearGradient id="XMLID_73_" gradientUnits="userSpaceOnUse" x1="293.3257" y1="-224.0281" x2="290.5374" y2="-144.2822" gradientTransform="matrix(0.8147 0.5799 -0.5799 0.8147 171.9699 229.4433)">
							<stop  offset="5.376340e-03" style="stop-color:#DE3DBF"/>
							<stop  offset="1" style="stop-color:#67219E"/>
						</linearGradient>
						<path id="XMLID_10_" class="st68" d="M528.77,226.49c2.57-0.04,3.94,1.35,4.71,3.48l-34.86,48.54
							c-0.53,0.74-1.53,0.9-2.26,0.37l0,0c-0.72-0.53-0.9-1.57-0.4-2.33L528.77,226.49z"/>
					</g>
				</g>
			</g>
			<g id="XMLID_1_">
				<defs>
					<rect id="XMLID_161_" x="0.33" width="749.33" height="500"/>
				</defs>
				<clipPath id="XMLID_74_">
					<use xlink:href="#XMLID_161_"  style="overflow:visible;"/>
				</clipPath>
			</g>
		</g>
	</g>
</g>
<g id="DESIGNED_BY_FREEPIK">
	<g>
	</g>
	<g>
	</g>
	<g>
	</g>
	<g>
	</g>
	<g>
	</g>
	<g>
	</g>
	<g>
	</g>
	<g>
	</g>
	<g>
	</g>
	<g>
	</g>
	<g>
	</g>
	<g>
	</g>
	<g>
	</g>
	<g>
	</g>
	<g>
	</g>
</g>
</svg>
