<svg xmlns="http://www.w3.org/2000/svg" xmlns:xlink="http://www.w3.org/1999/xlink" viewBox="0 0 774.51 440.62"><defs><style>.cls-1{fill:none;}.cls-2{isolation:isolate;}.cls-13,.cls-3{fill:#fff;}.cls-4{opacity:0.32;}.cls-5{clip-path:url(#clip-path);}.cls-6{opacity:0.11;}.cls-7{fill:#a630b0;}.cls-8{fill:#71d3ea;}.cls-8,.cls-9{opacity:0.25;}.cls-9{fill:#163191;}.cls-10{fill:#20254a;}.cls-11{fill:url(#linear-gradient);}.cls-12,.cls-14,.cls-15{fill:#fea7af;}.cls-13,.cls-14{opacity:0.29;}.cls-15,.cls-21{opacity:0.33;}.cls-16{opacity:0.22;}.cls-17{fill:url(#linear-gradient-2);}.cls-18{fill:url(#linear-gradient-3);}.cls-19{fill:url(#linear-gradient-4);}.cls-20,.cls-23,.cls-26,.cls-28,.cls-30,.cls-69,.cls-70{mix-blend-mode:screen;}.cls-20{fill:url(#linear-gradient-5);}.cls-22{fill:url(#linear-gradient-6);}.cls-23{fill:url(#linear-gradient-7);}.cls-24{opacity:0.35;}.cls-25{fill:url(#linear-gradient-8);}.cls-26{fill:url(#linear-gradient-9);}.cls-27{fill:url(#linear-gradient-10);}.cls-28{fill:url(#linear-gradient-11);}.cls-29{fill:url(#linear-gradient-12);}.cls-30{fill:url(#linear-gradient-13);}.cls-31{fill:url(#linear-gradient-14);}.cls-32{fill:url(#linear-gradient-15);}.cls-33{fill:url(#linear-gradient-16);}.cls-34{fill:url(#linear-gradient-17);}.cls-35{fill:#ffecff;}.cls-36{fill:url(#linear-gradient-18);}.cls-37{fill:url(#radial-gradient);}.cls-38{fill:#cc7dff;}.cls-39{fill:url(#radial-gradient-2);}.cls-40{fill:url(#radial-gradient-3);}.cls-41{fill:url(#radial-gradient-4);}.cls-42{fill:url(#linear-gradient-19);}.cls-43{fill:#dda9ff;}.cls-44{fill:url(#linear-gradient-20);}.cls-45{fill:url(#radial-gradient-5);}.cls-46{fill:url(#radial-gradient-6);}.cls-47{fill:url(#radial-gradient-7);}.cls-48{fill:url(#radial-gradient-8);}.cls-49{fill:url(#linear-gradient-21);}.cls-50{fill:url(#linear-gradient-22);}.cls-51{clip-path:url(#clip-path-4);}.cls-52,.cls-67{mix-blend-mode:multiply;}.cls-52{fill:url(#linear-gradient-23);}.cls-53{fill:#ffdcff;}.cls-54{fill:url(#radial-gradient-9);}.cls-55{fill:#ffe4ff;}.cls-56{fill:url(#radial-gradient-10);}.cls-57{fill:url(#radial-gradient-11);}.cls-58{fill:url(#radial-gradient-12);}.cls-59{fill:url(#radial-gradient-13);}.cls-60{fill:url(#linear-gradient-24);}.cls-61{fill:url(#linear-gradient-25);}.cls-62{fill:#ffe7ff;}.cls-63{fill:url(#linear-gradient-26);}.cls-64{fill:#7c26a4;}.cls-65{fill:url(#linear-gradient-27);}.cls-66{fill:url(#linear-gradient-28);}.cls-67{fill:#552c84;opacity:0.42;}.cls-68{fill:url(#linear-gradient-29);}.cls-69{fill:url(#radial-gradient-14);}.cls-70{fill:url(#radial-gradient-15);}</style><clipPath id="clip-path" transform="translate(171.1 21.03)"><rect class="cls-1" width="580.67" height="372.91"/></clipPath><linearGradient id="linear-gradient" x1="406.88" y1="300.07" x2="416.98" y2="317.76" gradientTransform="translate(339.02 -200.79) rotate(45)" gradientUnits="userSpaceOnUse"><stop offset="0.01" stop-color="#fea7af"/><stop offset="0.97" stop-color="#ea47ac"/></linearGradient><linearGradient id="linear-gradient-2" x1="-59.1" y1="692.75" x2="-41.93" y2="692.75" gradientTransform="translate(-121.53 -466.92) rotate(-20.05)" xlink:href="#linear-gradient"/><linearGradient id="linear-gradient-3" x1="20.2" y1="-24.58" x2="57.09" y2="-24.58" gradientTransform="translate(24.7 215.87) rotate(14.81)" xlink:href="#linear-gradient"/><linearGradient id="linear-gradient-4" x1="-2389.49" y1="999.84" x2="-2334.45" y2="999.84" gradientTransform="translate(-2303.63 -553.01) rotate(-138.39)" gradientUnits="userSpaceOnUse"><stop offset="0.01" stop-color="#fea7af"/><stop offset="0.99" stop-color="#ea47ac" stop-opacity="0"/></linearGradient><linearGradient id="linear-gradient-5" x1="-2388.78" y1="999.84" x2="-2355.05" y2="999.84" xlink:href="#linear-gradient-4"/><linearGradient id="linear-gradient-6" x1="-2489.92" y1="1170.33" x2="-2463.49" y2="1170.33" xlink:href="#linear-gradient-4"/><linearGradient id="linear-gradient-7" x1="-2489.58" y1="1170.33" x2="-2473.38" y2="1170.33" xlink:href="#linear-gradient-4"/><linearGradient id="linear-gradient-8" x1="-2339.13" y1="956.91" x2="-2266.06" y2="956.91" xlink:href="#linear-gradient-4"/><linearGradient id="linear-gradient-9" x1="-2338.19" y1="956.91" x2="-2293.41" y2="956.91" xlink:href="#linear-gradient-4"/><linearGradient id="linear-gradient-10" x1="-2290.83" y1="942.33" x2="-2257.3" y2="942.33" xlink:href="#linear-gradient-4"/><linearGradient id="linear-gradient-11" x1="-2290.4" y1="942.33" x2="-2269.85" y2="942.33" xlink:href="#linear-gradient-4"/><linearGradient id="linear-gradient-12" x1="-2579.76" y1="1196.77" x2="-2546.23" y2="1196.77" xlink:href="#linear-gradient-4"/><linearGradient id="linear-gradient-13" x1="-2579.33" y1="1196.77" x2="-2558.78" y2="1196.77" xlink:href="#linear-gradient-4"/><linearGradient id="linear-gradient-14" x1="435.69" y1="-142.9" x2="499.42" y2="-142.9" gradientTransform="matrix(0.95, 0.32, -0.32, 0.95, 9.73, 322.18)" gradientUnits="userSpaceOnUse"><stop offset="0.01" stop-color="#de3dbf"/><stop offset="1" stop-color="#67219e"/></linearGradient><linearGradient id="linear-gradient-15" x1="439.13" y1="-163.92" x2="496.69" y2="-163.92" gradientTransform="matrix(0.95, 0.32, -0.32, 0.95, 9.73, 322.18)" gradientUnits="userSpaceOnUse"><stop offset="0.01" stop-color="#de3dbf"/><stop offset="0.12" stop-color="#ca38ba"/><stop offset="0.39" stop-color="#a02eae"/><stop offset="0.64" stop-color="#8127a5"/><stop offset="0.85" stop-color="#6e23a0"/><stop offset="1" stop-color="#67219e"/></linearGradient><linearGradient id="linear-gradient-16" x1="435.94" y1="-125" x2="498.19" y2="-125" gradientTransform="matrix(0.95, 0.32, -0.32, 0.95, 9.73, 322.18)" gradientUnits="userSpaceOnUse"><stop offset="0.01" stop-color="#de3dbf"/><stop offset="0.12" stop-color="#c337b8"/><stop offset="0.28" stop-color="#a22fae"/><stop offset="0.45" stop-color="#8829a7"/><stop offset="0.62" stop-color="#7624a2"/><stop offset="0.8" stop-color="#6b229f"/><stop offset="1" stop-color="#67219e"/></linearGradient><linearGradient id="linear-gradient-17" x1="88.89" y1="-715.71" x2="103.01" y2="-715.71" gradientTransform="translate(-80.17 647.45) rotate(35.44)" gradientUnits="userSpaceOnUse"><stop offset="0.01" stop-color="#a02cc2"/><stop offset="0.01" stop-color="#9f2cc1"/><stop offset="0.33" stop-color="#7222a6"/><stop offset="0.61" stop-color="#521b92"/><stop offset="0.84" stop-color="#3e1786"/><stop offset="1" stop-color="#371582"/></linearGradient><linearGradient id="linear-gradient-18" x1="89.63" y1="-715.27" x2="100.22" y2="-715.27" xlink:href="#linear-gradient-17"/><radialGradient id="radial-gradient" cx="81.99" cy="-663.24" r="28.73" gradientTransform="translate(90.94 668.47) rotate(35.44)" gradientUnits="userSpaceOnUse"><stop offset="0.01" stop-color="#a02cc2"/><stop offset="1" stop-color="#371582"/></radialGradient><radialGradient id="radial-gradient-2" cx="82.48" cy="-663.39" r="25.58" xlink:href="#radial-gradient"/><radialGradient id="radial-gradient-3" cx="85.98" cy="-643.07" r="15.62" gradientTransform="translate(274.55 821.97)" xlink:href="#radial-gradient"/><radialGradient id="radial-gradient-4" cx="-41.29" cy="-1405.47" r="15.62" gradientTransform="matrix(0.88, 0, 0, 0.45, 407.5, 796.61)" gradientUnits="userSpaceOnUse"><stop offset="0" stop-color="#371582"/><stop offset="0.99" stop-color="#a02cc2"/></radialGradient><linearGradient id="linear-gradient-19" x1="140.38" y1="-714.75" x2="154.5" y2="-714.75" xlink:href="#linear-gradient-17"/><linearGradient id="linear-gradient-20" x1="140.76" y1="-714.18" x2="151.35" y2="-714.18" xlink:href="#linear-gradient-17"/><radialGradient id="radial-gradient-5" cx="133.48" cy="-662.29" r="28.73" xlink:href="#radial-gradient"/><radialGradient id="radial-gradient-6" cx="134.95" cy="-662.26" r="24.73" xlink:href="#radial-gradient"/><radialGradient id="radial-gradient-7" cx="137.47" cy="-642.11" r="15.62" gradientTransform="translate(264.45 851.65)" xlink:href="#radial-gradient"/><radialGradient id="radial-gradient-8" cx="17" cy="-1403.34" r="15.62" gradientTransform="matrix(0.88, 0, 0, 0.45, 397.4, 826.29)" xlink:href="#radial-gradient-4"/><linearGradient id="linear-gradient-21" x1="100.3" y1="-733.87" x2="142.42" y2="-733.87" gradientTransform="translate(-80.17 647.45) rotate(35.44)" xlink:href="#radial-gradient"/><linearGradient id="linear-gradient-22" x1="100.65" y1="-732.79" x2="133.93" y2="-732.79" gradientTransform="translate(-80.17 647.45) rotate(35.44)" xlink:href="#radial-gradient"/><clipPath id="clip-path-4" transform="translate(171.1 21.03)"><path class="cls-1" d="M500.63,55.56l.29-7.61a5.26,5.26,0,0,0-7.17-5.11l0,0-7.07,2.75a76.29,76.29,0,0,0-34.42,26.84l-3,4.24c.23-.64.46-1.29.68-1.94l1.92-5.85A2.05,2.05,0,0,0,449,66.39a1.85,1.85,0,0,0-.4.24l-4.9,3.74A72.79,72.79,0,0,0,428.52,86.1L373.79,163l-12.41,9.82,7.27,5.17L364,174.68l-.55.77,10.25,7.3-1,1.46L407,208.64l.49-.69,10.4,7.41.55-.78-.82-.58h0l3.86,2.75,5.21-14.95,54.73-76.88a73.13,73.13,0,0,0,9.88-19.53l1.92-5.85A2,2,0,0,0,490.43,97a1.85,1.85,0,0,0-.4.24l-4.9,3.73q-1.87,1.44-3.65,3l5.07-7.12A76.26,76.26,0,0,0,500.63,55.56Z"/></clipPath><linearGradient id="linear-gradient-23" x1="418.13" y1="109.95" x2="441.95" y2="162.25" gradientTransform="matrix(1, 0, 0, 1, 0, 0)" xlink:href="#linear-gradient-14"/><radialGradient id="radial-gradient-9" cx="-182.27" cy="-738.57" r="94.93" gradientTransform="matrix(0.62, 0.44, -0.58, 0.81, 269.12, 795.07)" gradientUnits="userSpaceOnUse"><stop offset="0" stop-color="#67219e"/><stop offset="0.99" stop-color="#de3dbf"/></radialGradient><radialGradient id="radial-gradient-10" cx="78.46" cy="-737.2" r="89.4" gradientTransform="translate(90.94 668.47) rotate(35.44)" xlink:href="#linear-gradient-14"/><radialGradient id="radial-gradient-11" cx="80.4" cy="-709.93" r="60.54" gradientTransform="translate(90.94 668.47) rotate(35.44)" xlink:href="#linear-gradient-14"/><radialGradient id="radial-gradient-12" cx="123.17" cy="-737.2" r="89.4" gradientTransform="translate(90.94 668.47) rotate(35.44)" xlink:href="#linear-gradient-14"/><radialGradient id="radial-gradient-13" cx="142.75" cy="-710.24" r="60.87" gradientTransform="translate(90.94 668.47) rotate(35.44)" xlink:href="#linear-gradient-14"/><linearGradient id="linear-gradient-24" x1="197.16" y1="-723.38" x2="139.35" y2="-720.24" gradientTransform="translate(-80.17 647.45) rotate(35.44)" xlink:href="#linear-gradient-14"/><linearGradient id="linear-gradient-25" x1="109.58" y1="-718.95" x2="133.22" y2="-718.95" gradientTransform="translate(-80.17 647.45) rotate(35.44)" xlink:href="#linear-gradient-14"/><linearGradient id="linear-gradient-26" x1="372.98" y1="190.72" x2="419.24" y2="190.72" gradientTransform="matrix(1, 0, 0, 1, 0, 0)" xlink:href="#linear-gradient-14"/><linearGradient id="linear-gradient-27" x1="115.74" y1="-764.08" x2="132.61" y2="-764.08" gradientTransform="translate(-80.17 647.45) rotate(35.44)" xlink:href="#linear-gradient-14"/><linearGradient id="linear-gradient-28" x1="116.45" y1="-785.28" x2="135.91" y2="-786.6" gradientTransform="translate(-80.17 647.45) rotate(35.44)" xlink:href="#linear-gradient-14"/><linearGradient id="linear-gradient-29" x1="124.55" y1="-684.71" x2="122.44" y2="-624.36" gradientTransform="translate(-80.17 647.45) rotate(35.44)" xlink:href="#linear-gradient-14"/><radialGradient id="radial-gradient-14" cx="161.84" cy="322.82" r="7.1" gradientUnits="userSpaceOnUse"><stop offset="0.01" stop-color="#de3dbf"/><stop offset="0.1" stop-color="#b03097"/><stop offset="0.22" stop-color="#822470"/><stop offset="0.34" stop-color="#5a194d"/><stop offset="0.46" stop-color="#391031"/><stop offset="0.58" stop-color="#20091c"/><stop offset="0.71" stop-color="#0e040c"/><stop offset="0.84" stop-color="#030103"/><stop offset="1"/></radialGradient><radialGradient id="radial-gradient-15" cx="216.43" cy="194.68" r="7.1" xlink:href="#radial-gradient-14"/></defs><title>Asset 1</title><g class="cls-2"><g id="Layer_2" data-name="Layer 2"><g id="OBJECTS"><rect class="cls-3" x="171.1" y="21.03" width="580.67" height="372.91"/><g class="cls-4"><g class="cls-5"><g class="cls-6"><path class="cls-7" d="M21.85-19.76a1.27,1.27,0,0,1-1.27,1.27,1.26,1.26,0,0,1-1.26-1.27A1.26,1.26,0,0,1,20.58-21,1.27,1.27,0,0,1,21.85-19.76Z" transform="translate(171.1 21.03)"/><path class="cls-7" d="M75.68-19.76a1.26,1.26,0,0,1-1.26,1.27,1.27,1.27,0,0,1-1.27-1.27A1.27,1.27,0,0,1,74.42-21,1.26,1.26,0,0,1,75.68-19.76Z" transform="translate(171.1 21.03)"/><path class="cls-7" d="M129.52-19.76a1.27,1.27,0,0,1-1.27,1.27A1.27,1.27,0,0,1,127-19.76,1.27,1.27,0,0,1,128.25-21,1.27,1.27,0,0,1,129.52-19.76Z" transform="translate(171.1 21.03)"/><path class="cls-7" d="M183.35-19.76a1.27,1.27,0,0,1-1.27,1.27,1.27,1.27,0,0,1-1.27-1.27A1.27,1.27,0,0,1,182.08-21,1.27,1.27,0,0,1,183.35-19.76Z" transform="translate(171.1 21.03)"/><path class="cls-7" d="M237.18-19.76a1.27,1.27,0,0,1-1.27,1.27,1.26,1.26,0,0,1-1.26-1.27A1.26,1.26,0,0,1,235.91-21,1.27,1.27,0,0,1,237.18-19.76Z" transform="translate(171.1 21.03)"/><path class="cls-7" d="M291-19.76a1.26,1.26,0,0,1-1.26,1.27,1.27,1.27,0,0,1-1.27-1.27A1.27,1.27,0,0,1,289.75-21,1.26,1.26,0,0,1,291-19.76Z" transform="translate(171.1 21.03)"/><path class="cls-7" d="M344.85-19.76a1.27,1.27,0,0,1-1.27,1.27,1.27,1.27,0,0,1-1.27-1.27A1.27,1.27,0,0,1,343.58-21,1.27,1.27,0,0,1,344.85-19.76Z" transform="translate(171.1 21.03)"/><path class="cls-7" d="M398.68-19.76a1.27,1.27,0,0,1-1.27,1.27,1.27,1.27,0,0,1-1.27-1.27A1.27,1.27,0,0,1,397.41-21,1.27,1.27,0,0,1,398.68-19.76Z" transform="translate(171.1 21.03)"/><path class="cls-7" d="M452.51-19.76a1.27,1.27,0,0,1-1.27,1.27A1.26,1.26,0,0,1,450-19.76,1.26,1.26,0,0,1,451.24-21,1.27,1.27,0,0,1,452.51-19.76Z" transform="translate(171.1 21.03)"/><path class="cls-7" d="M506.34-19.76a1.26,1.26,0,0,1-1.26,1.27,1.27,1.27,0,0,1-1.27-1.27A1.27,1.27,0,0,1,505.08-21,1.26,1.26,0,0,1,506.34-19.76Z" transform="translate(171.1 21.03)"/><path class="cls-7" d="M560.18-19.76a1.27,1.27,0,0,1-1.27,1.27,1.27,1.27,0,0,1-1.27-1.27A1.27,1.27,0,0,1,558.91-21,1.27,1.27,0,0,1,560.18-19.76Z" transform="translate(171.1 21.03)"/><path class="cls-7" d="M21.85,31.79a1.27,1.27,0,1,1-2.53,0,1.27,1.27,0,0,1,2.53,0Z" transform="translate(171.1 21.03)"/><path class="cls-7" d="M75.68,31.79a1.27,1.27,0,1,1-1.26-1.26A1.26,1.26,0,0,1,75.68,31.79Z" transform="translate(171.1 21.03)"/><path class="cls-7" d="M129.52,31.79a1.27,1.27,0,1,1-1.27-1.26A1.27,1.27,0,0,1,129.52,31.79Z" transform="translate(171.1 21.03)"/><path class="cls-7" d="M183.35,31.79a1.27,1.27,0,1,1-1.27-1.26A1.27,1.27,0,0,1,183.35,31.79Z" transform="translate(171.1 21.03)"/><path class="cls-7" d="M237.18,31.79a1.27,1.27,0,1,1-2.53,0,1.27,1.27,0,0,1,2.53,0Z" transform="translate(171.1 21.03)"/><path class="cls-7" d="M291,31.79a1.27,1.27,0,1,1-1.26-1.26A1.26,1.26,0,0,1,291,31.79Z" transform="translate(171.1 21.03)"/><path class="cls-7" d="M344.85,31.79a1.27,1.27,0,1,1-1.27-1.26A1.27,1.27,0,0,1,344.85,31.79Z" transform="translate(171.1 21.03)"/><path class="cls-7" d="M398.68,31.79a1.27,1.27,0,1,1-1.27-1.26A1.27,1.27,0,0,1,398.68,31.79Z" transform="translate(171.1 21.03)"/><path class="cls-7" d="M452.51,31.79a1.27,1.27,0,1,1-2.53,0,1.27,1.27,0,0,1,2.53,0Z" transform="translate(171.1 21.03)"/><path class="cls-7" d="M506.34,31.79a1.27,1.27,0,1,1-1.26-1.26A1.26,1.26,0,0,1,506.34,31.79Z" transform="translate(171.1 21.03)"/><path class="cls-7" d="M560.18,31.79a1.27,1.27,0,1,1-1.27-1.26A1.27,1.27,0,0,1,560.18,31.79Z" transform="translate(171.1 21.03)"/><path class="cls-7" d="M21.85,83.35a1.27,1.27,0,1,1-1.27-1.27A1.26,1.26,0,0,1,21.85,83.35Z" transform="translate(171.1 21.03)"/><path class="cls-7" d="M75.68,83.35a1.27,1.27,0,0,1-2.53,0,1.27,1.27,0,1,1,2.53,0Z" transform="translate(171.1 21.03)"/><path class="cls-7" d="M129.52,83.35a1.27,1.27,0,1,1-1.27-1.27A1.26,1.26,0,0,1,129.52,83.35Z" transform="translate(171.1 21.03)"/><path class="cls-7" d="M183.35,83.35a1.27,1.27,0,1,1-1.27-1.27A1.26,1.26,0,0,1,183.35,83.35Z" transform="translate(171.1 21.03)"/><path class="cls-7" d="M237.18,83.35a1.27,1.27,0,1,1-1.27-1.27A1.26,1.26,0,0,1,237.18,83.35Z" transform="translate(171.1 21.03)"/><path class="cls-7" d="M291,83.35a1.27,1.27,0,0,1-2.53,0,1.27,1.27,0,1,1,2.53,0Z" transform="translate(171.1 21.03)"/><path class="cls-7" d="M344.85,83.35a1.27,1.27,0,1,1-1.27-1.27A1.26,1.26,0,0,1,344.85,83.35Z" transform="translate(171.1 21.03)"/><path class="cls-7" d="M398.68,83.35a1.27,1.27,0,1,1-1.27-1.27A1.26,1.26,0,0,1,398.68,83.35Z" transform="translate(171.1 21.03)"/><path class="cls-7" d="M452.51,83.35a1.27,1.27,0,1,1-1.27-1.27A1.26,1.26,0,0,1,452.51,83.35Z" transform="translate(171.1 21.03)"/><path class="cls-7" d="M506.34,83.35a1.27,1.27,0,0,1-2.53,0,1.27,1.27,0,1,1,2.53,0Z" transform="translate(171.1 21.03)"/><path class="cls-7" d="M560.18,83.35a1.27,1.27,0,1,1-1.27-1.27A1.26,1.26,0,0,1,560.18,83.35Z" transform="translate(171.1 21.03)"/><path class="cls-7" d="M21.85,134.9a1.27,1.27,0,1,1-1.27-1.27A1.27,1.27,0,0,1,21.85,134.9Z" transform="translate(171.1 21.03)"/><path class="cls-7" d="M75.68,134.9a1.27,1.27,0,1,1-1.26-1.27A1.26,1.26,0,0,1,75.68,134.9Z" transform="translate(171.1 21.03)"/><path class="cls-7" d="M129.52,134.9a1.27,1.27,0,1,1-1.27-1.27A1.27,1.27,0,0,1,129.52,134.9Z" transform="translate(171.1 21.03)"/><path class="cls-7" d="M183.35,134.9a1.27,1.27,0,1,1-1.27-1.27A1.27,1.27,0,0,1,183.35,134.9Z" transform="translate(171.1 21.03)"/><path class="cls-7" d="M237.18,134.9a1.27,1.27,0,1,1-1.27-1.27A1.27,1.27,0,0,1,237.18,134.9Z" transform="translate(171.1 21.03)"/><path class="cls-7" d="M291,134.9a1.27,1.27,0,1,1-1.26-1.27A1.26,1.26,0,0,1,291,134.9Z" transform="translate(171.1 21.03)"/><path class="cls-7" d="M344.85,134.9a1.27,1.27,0,1,1-1.27-1.27A1.27,1.27,0,0,1,344.85,134.9Z" transform="translate(171.1 21.03)"/><path class="cls-7" d="M398.68,134.9a1.27,1.27,0,1,1-1.27-1.27A1.27,1.27,0,0,1,398.68,134.9Z" transform="translate(171.1 21.03)"/><path class="cls-7" d="M452.51,134.9a1.27,1.27,0,1,1-1.27-1.27A1.27,1.27,0,0,1,452.51,134.9Z" transform="translate(171.1 21.03)"/><path class="cls-7" d="M506.34,134.9a1.27,1.27,0,1,1-1.26-1.27A1.26,1.26,0,0,1,506.34,134.9Z" transform="translate(171.1 21.03)"/><path class="cls-7" d="M560.18,134.9a1.27,1.27,0,1,1-1.27-1.27A1.27,1.27,0,0,1,560.18,134.9Z" transform="translate(171.1 21.03)"/><path class="cls-7" d="M21.85,186.45a1.27,1.27,0,1,1-2.53,0,1.27,1.27,0,0,1,2.53,0Z" transform="translate(171.1 21.03)"/><path class="cls-7" d="M75.68,186.45a1.27,1.27,0,1,1-1.26-1.26A1.26,1.26,0,0,1,75.68,186.45Z" transform="translate(171.1 21.03)"/><path class="cls-7" d="M129.52,186.45a1.27,1.27,0,1,1-1.27-1.26A1.27,1.27,0,0,1,129.52,186.45Z" transform="translate(171.1 21.03)"/><circle class="cls-7" cx="353.18" cy="207.48" r="1.27"/><path class="cls-7" d="M237.18,186.45a1.27,1.27,0,1,1-2.53,0,1.27,1.27,0,0,1,2.53,0Z" transform="translate(171.1 21.03)"/><path class="cls-7" d="M291,186.45a1.27,1.27,0,1,1-1.26-1.26A1.26,1.26,0,0,1,291,186.45Z" transform="translate(171.1 21.03)"/><path class="cls-7" d="M344.85,186.45a1.27,1.27,0,1,1-1.27-1.26A1.27,1.27,0,0,1,344.85,186.45Z" transform="translate(171.1 21.03)"/><path class="cls-7" d="M398.68,186.45a1.27,1.27,0,1,1-1.27-1.26A1.27,1.27,0,0,1,398.68,186.45Z" transform="translate(171.1 21.03)"/><path class="cls-7" d="M452.51,186.45a1.27,1.27,0,1,1-2.53,0,1.27,1.27,0,0,1,2.53,0Z" transform="translate(171.1 21.03)"/><path class="cls-7" d="M506.34,186.45a1.27,1.27,0,1,1-1.26-1.26A1.26,1.26,0,0,1,506.34,186.45Z" transform="translate(171.1 21.03)"/><path class="cls-7" d="M560.18,186.45a1.27,1.27,0,1,1-1.27-1.26A1.27,1.27,0,0,1,560.18,186.45Z" transform="translate(171.1 21.03)"/><path class="cls-7" d="M21.85,238a1.27,1.27,0,1,1-1.27-1.27A1.26,1.26,0,0,1,21.85,238Z" transform="translate(171.1 21.03)"/><path class="cls-7" d="M75.68,238a1.27,1.27,0,0,1-2.53,0,1.27,1.27,0,1,1,2.53,0Z" transform="translate(171.1 21.03)"/><path class="cls-7" d="M129.52,238a1.27,1.27,0,1,1-1.27-1.27A1.26,1.26,0,0,1,129.52,238Z" transform="translate(171.1 21.03)"/><path class="cls-7" d="M183.35,238a1.27,1.27,0,1,1-1.27-1.27A1.26,1.26,0,0,1,183.35,238Z" transform="translate(171.1 21.03)"/><path class="cls-7" d="M237.18,238a1.27,1.27,0,1,1-1.27-1.27A1.26,1.26,0,0,1,237.18,238Z" transform="translate(171.1 21.03)"/><path class="cls-7" d="M291,238a1.27,1.27,0,0,1-2.53,0,1.27,1.27,0,1,1,2.53,0Z" transform="translate(171.1 21.03)"/><path class="cls-7" d="M344.85,238a1.27,1.27,0,1,1-1.27-1.27A1.26,1.26,0,0,1,344.85,238Z" transform="translate(171.1 21.03)"/><path class="cls-7" d="M398.68,238a1.27,1.27,0,1,1-1.27-1.27A1.26,1.26,0,0,1,398.68,238Z" transform="translate(171.1 21.03)"/><path class="cls-7" d="M452.51,238a1.27,1.27,0,1,1-1.27-1.27A1.26,1.26,0,0,1,452.51,238Z" transform="translate(171.1 21.03)"/><path class="cls-7" d="M506.34,238a1.27,1.27,0,0,1-2.53,0,1.27,1.27,0,1,1,2.53,0Z" transform="translate(171.1 21.03)"/><path class="cls-7" d="M560.18,238a1.27,1.27,0,1,1-1.27-1.27A1.26,1.26,0,0,1,560.18,238Z" transform="translate(171.1 21.03)"/><path class="cls-7" d="M21.85,289.56a1.27,1.27,0,1,1-1.27-1.27A1.27,1.27,0,0,1,21.85,289.56Z" transform="translate(171.1 21.03)"/><path class="cls-7" d="M75.68,289.56a1.27,1.27,0,1,1-1.26-1.27A1.26,1.26,0,0,1,75.68,289.56Z" transform="translate(171.1 21.03)"/><path class="cls-7" d="M129.52,289.56a1.27,1.27,0,1,1-1.27-1.27A1.27,1.27,0,0,1,129.52,289.56Z" transform="translate(171.1 21.03)"/><path class="cls-7" d="M183.35,289.56a1.27,1.27,0,1,1-1.27-1.27A1.27,1.27,0,0,1,183.35,289.56Z" transform="translate(171.1 21.03)"/><path class="cls-7" d="M237.18,289.56a1.27,1.27,0,1,1-1.27-1.27A1.27,1.27,0,0,1,237.18,289.56Z" transform="translate(171.1 21.03)"/><path class="cls-7" d="M291,289.56a1.27,1.27,0,1,1-1.26-1.27A1.26,1.26,0,0,1,291,289.56Z" transform="translate(171.1 21.03)"/><path class="cls-7" d="M344.85,289.56a1.27,1.27,0,1,1-1.27-1.27A1.27,1.27,0,0,1,344.85,289.56Z" transform="translate(171.1 21.03)"/><path class="cls-7" d="M398.68,289.56a1.27,1.27,0,1,1-1.27-1.27A1.27,1.27,0,0,1,398.68,289.56Z" transform="translate(171.1 21.03)"/><path class="cls-7" d="M452.51,289.56a1.27,1.27,0,1,1-1.27-1.27A1.27,1.27,0,0,1,452.51,289.56Z" transform="translate(171.1 21.03)"/><path class="cls-7" d="M506.34,289.56a1.27,1.27,0,1,1-1.26-1.27A1.26,1.26,0,0,1,506.34,289.56Z" transform="translate(171.1 21.03)"/><path class="cls-7" d="M560.18,289.56a1.27,1.27,0,1,1-1.27-1.27A1.27,1.27,0,0,1,560.18,289.56Z" transform="translate(171.1 21.03)"/><path class="cls-7" d="M21.85,341.11a1.27,1.27,0,1,1-2.53,0,1.27,1.27,0,0,1,2.53,0Z" transform="translate(171.1 21.03)"/><path class="cls-7" d="M75.68,341.11a1.27,1.27,0,1,1-1.26-1.26A1.26,1.26,0,0,1,75.68,341.11Z" transform="translate(171.1 21.03)"/><path class="cls-7" d="M129.52,341.11a1.27,1.27,0,1,1-1.27-1.26A1.27,1.27,0,0,1,129.52,341.11Z" transform="translate(171.1 21.03)"/><path class="cls-7" d="M183.35,341.11a1.27,1.27,0,1,1-1.27-1.26A1.27,1.27,0,0,1,183.35,341.11Z" transform="translate(171.1 21.03)"/><path class="cls-7" d="M237.18,341.11a1.27,1.27,0,1,1-2.53,0,1.27,1.27,0,0,1,2.53,0Z" transform="translate(171.1 21.03)"/><path class="cls-7" d="M291,341.11a1.27,1.27,0,1,1-1.26-1.26A1.26,1.26,0,0,1,291,341.11Z" transform="translate(171.1 21.03)"/><path class="cls-7" d="M344.85,341.11a1.27,1.27,0,1,1-1.27-1.26A1.27,1.27,0,0,1,344.85,341.11Z" transform="translate(171.1 21.03)"/><path class="cls-7" d="M398.68,341.11a1.27,1.27,0,1,1-1.27-1.26A1.27,1.27,0,0,1,398.68,341.11Z" transform="translate(171.1 21.03)"/><path class="cls-7" d="M452.51,341.11a1.27,1.27,0,1,1-2.53,0,1.27,1.27,0,0,1,2.53,0Z" transform="translate(171.1 21.03)"/><path class="cls-7" d="M506.34,341.11a1.27,1.27,0,1,1-1.26-1.26A1.26,1.26,0,0,1,506.34,341.11Z" transform="translate(171.1 21.03)"/><path class="cls-7" d="M560.18,341.11a1.27,1.27,0,1,1-1.27-1.26A1.27,1.27,0,0,1,560.18,341.11Z" transform="translate(171.1 21.03)"/><path class="cls-7" d="M21.85,392.67a1.27,1.27,0,1,1-1.27-1.27A1.26,1.26,0,0,1,21.85,392.67Z" transform="translate(171.1 21.03)"/><path class="cls-7" d="M75.68,392.67a1.27,1.27,0,0,1-2.53,0,1.27,1.27,0,1,1,2.53,0Z" transform="translate(171.1 21.03)"/><path class="cls-7" d="M129.52,392.67a1.27,1.27,0,1,1-1.27-1.27A1.26,1.26,0,0,1,129.52,392.67Z" transform="translate(171.1 21.03)"/><path class="cls-7" d="M183.35,392.67a1.27,1.27,0,1,1-1.27-1.27A1.26,1.26,0,0,1,183.35,392.67Z" transform="translate(171.1 21.03)"/><path class="cls-7" d="M237.18,392.67a1.27,1.27,0,1,1-1.27-1.27A1.26,1.26,0,0,1,237.18,392.67Z" transform="translate(171.1 21.03)"/><path class="cls-7" d="M291,392.67a1.27,1.27,0,0,1-2.53,0,1.27,1.27,0,1,1,2.53,0Z" transform="translate(171.1 21.03)"/><path class="cls-7" d="M344.85,392.67a1.27,1.27,0,1,1-1.27-1.27A1.26,1.26,0,0,1,344.85,392.67Z" transform="translate(171.1 21.03)"/><path class="cls-7" d="M398.68,392.67a1.27,1.27,0,1,1-1.27-1.27A1.26,1.26,0,0,1,398.68,392.67Z" transform="translate(171.1 21.03)"/><path class="cls-7" d="M452.51,392.67a1.27,1.27,0,1,1-1.27-1.27A1.26,1.26,0,0,1,452.51,392.67Z" transform="translate(171.1 21.03)"/><path class="cls-7" d="M506.34,392.67a1.27,1.27,0,0,1-2.53,0,1.27,1.27,0,1,1,2.53,0Z" transform="translate(171.1 21.03)"/><path class="cls-7" d="M560.18,392.67a1.27,1.27,0,1,1-1.27-1.27A1.26,1.26,0,0,1,560.18,392.67Z" transform="translate(171.1 21.03)"/></g></g></g><g class="cls-5"><path class="cls-8" d="M417.48,154.46s-11.35,26.92-41.65,9.49-32.77-35.18-90.89-18.09-79.23,16.08-91.65-3.55-35.88-46.85-85.45-44S32.76,34.14-3,23.27-64.6,46-64.6,46v345.5h668S586.32,338.63,548,322.58s-32.83-26.93-36.35-53.86-77.13-45.08-72-84.63S417.48,154.46,417.48,154.46Z" transform="translate(171.1 21.03)"/><path class="cls-9" d="M-53,51.09c4.14-2.62,76.64-20.05,99.42,29s47,49.62,83.55,52.63,25.54,3.62,66.28,29.9,64.66,12.62,94.35,3.22,77.07,13.13,115-6.46S445,171.92,445,171.92s-10.55,28,20.1,47.66,15.61,42.24,24.13,78.14,91.49,89.07,91.49,89.07L-68.22,353Z" transform="translate(171.1 21.03)"/><path class="cls-10" d="M-111.53,49.48s14,53.36,72.94,59.35S22.2,113,44.69,137.37s34.65,37.95,74.77,29.14,75.37-29.59,108.2-12.71,105.53,45.45,180.5-20.92,50.38,33.63,50.38,33.63-52,37.14,23.81,70.49c26.74,12.46,22.38,49.67,31.2,73.79s80.85,70.67,80.85,70.67S42.33,419.09,38.69,419.59-171.1,326.76-171.1,326.76Z" transform="translate(171.1 21.03)"/></g><g class="cls-5"><circle class="cls-11" cx="411.89" cy="308.84" r="10.86" transform="translate(73.36 402.73) rotate(-45)"/><polygon class="cls-12" points="387.31 213.74 388.05 215.1 389.42 215.84 388.05 216.59 387.31 217.95 386.56 216.59 385.2 215.84 386.56 215.1 387.31 213.74"/><polygon class="cls-12" points="466.92 307.22 467.41 308.11 468.3 308.6 467.41 309.09 466.92 309.98 466.43 309.09 465.54 308.6 466.43 308.11 466.92 307.22"/><polygon class="cls-12" points="468.3 227.26 468.79 228.15 469.68 228.64 468.79 229.13 468.3 230.02 467.81 229.13 466.92 228.64 467.81 228.15 468.3 227.26"/><polygon class="cls-12" points="268.04 345.95 268.53 346.84 269.42 347.33 268.53 347.82 268.04 348.71 267.55 347.82 266.66 347.33 267.55 346.84 268.04 345.95"/><polygon class="cls-13" points="232.61 186.93 233.1 187.82 233.99 188.31 233.1 188.79 232.61 189.69 232.12 188.79 231.23 188.31 232.12 187.82 232.61 186.93"/><polygon class="cls-13" points="180.61 373.16 181.1 374.05 181.99 374.54 181.1 375.03 180.61 375.92 180.12 375.03 179.23 374.54 180.12 374.05 180.61 373.16"/><polygon class="cls-13" points="187.26 205.15 187.75 206.05 188.64 206.53 187.75 207.02 187.26 207.92 186.77 207.02 185.88 206.53 186.77 206.05 187.26 205.15"/><polygon class="cls-13" points="298.55 243.53 299.04 244.43 299.93 244.91 299.04 245.4 298.55 246.29 298.06 245.4 297.17 244.91 298.06 244.43 298.55 243.53"/><polygon class="cls-14" points="344.19 265.66 345.16 267.43 346.92 268.39 345.16 269.36 344.19 271.13 343.23 269.36 341.46 268.39 343.23 267.43 344.19 265.66"/><polygon class="cls-13" points="197.86 169.32 198.82 171.09 200.59 172.06 198.82 173.02 197.86 174.79 196.89 173.02 195.12 172.06 196.89 171.09 197.86 169.32"/><polygon class="cls-13" points="582.99 244.91 583.96 246.68 585.72 247.65 583.96 248.61 582.99 250.38 582.02 248.61 580.26 247.65 582.02 246.68 582.99 244.91"/><polygon class="cls-13" points="575.06 376.8 576.02 378.57 577.79 379.54 576.02 380.5 575.06 382.27 574.09 380.5 572.33 379.54 574.09 378.57 575.06 376.8"/><polygon class="cls-13" points="203.15 343.27 203.61 344.11 204.45 344.57 203.61 345.03 203.15 345.86 202.69 345.03 201.86 344.57 202.69 344.11 203.15 343.27"/><polygon class="cls-14" points="398.85 332.99 399.31 333.82 400.14 334.28 399.31 334.74 398.85 335.58 398.39 334.74 397.56 334.28 398.39 333.82 398.85 332.99"/><polygon class="cls-14" points="409.61 371.24 410.07 372.08 410.91 372.54 410.07 372.99 409.61 373.83 409.15 372.99 408.32 372.54 409.15 372.08 409.61 371.24"/><polygon class="cls-14" points="509.12 228.72 509.58 229.56 510.42 230.02 509.58 230.47 509.12 231.31 508.67 230.47 507.83 230.02 508.67 229.56 509.12 228.72"/><polygon class="cls-13" points="561.6 308.69 562.06 309.52 562.89 309.98 562.06 310.44 561.6 311.27 561.14 310.44 560.31 309.98 561.14 309.52 561.6 308.69"/><polygon class="cls-13" points="529.58 196.27 530.03 197.1 530.87 197.56 530.03 198.02 529.58 198.85 529.12 198.02 528.28 197.56 529.12 197.1 529.58 196.27"/><polygon class="cls-14" points="421.67 256.87 422.5 258.39 424.02 259.23 422.5 260.06 421.67 261.58 420.83 260.06 419.31 259.23 420.83 258.39 421.67 256.87"/><polygon class="cls-3" points="333.13 340.34 334.27 342.43 336.35 343.57 334.27 344.71 333.13 346.79 331.99 344.71 329.9 343.57 331.99 342.43 333.13 340.34"/><polygon class="cls-3" points="513.7 341.32 514.1 342.06 514.84 342.46 514.1 342.87 513.7 343.6 513.29 342.87 512.56 342.46 513.29 342.06 513.7 341.32"/><polygon class="cls-3" points="534.65 260.44 535.05 261.18 535.79 261.58 535.05 261.99 534.65 262.72 534.25 261.99 533.51 261.58 534.25 261.18 534.65 260.44"/><polygon class="cls-15" points="251.91 262.31 252.63 263.63 253.96 264.36 252.63 265.08 251.91 266.41 251.18 265.08 249.86 264.36 251.18 263.63 251.91 262.31"/><polygon class="cls-15" points="468.3 344.4 468.82 345.35 469.77 345.86 468.82 346.38 468.3 347.33 467.78 346.38 466.83 345.86 467.78 345.35 468.3 344.4"/><polygon class="cls-15" points="492.55 373.42 493.07 374.37 494.02 374.89 493.07 375.4 492.55 376.35 492.03 375.4 491.08 374.89 492.03 374.37 492.55 373.42"/><polygon class="cls-15" points="489.62 266.93 490.14 267.87 491.08 268.39 490.14 268.91 489.62 269.86 489.1 268.91 488.15 268.39 489.1 267.87 489.62 266.93"/><polygon class="cls-15" points="409.61 288.95 410.13 289.9 411.08 290.42 410.13 290.94 409.61 291.88 409.09 290.94 408.15 290.42 409.09 289.9 409.61 288.95"/><polygon class="cls-15" points="619.25 301.77 619.77 302.72 620.72 303.24 619.77 303.75 619.25 304.7 618.73 303.75 617.78 303.24 618.73 302.72 619.25 301.77"/><g class="cls-16"><path class="cls-17" d="M76.86,203.36a8.59,8.59,0,1,1-6.1-10.49A8.57,8.57,0,0,1,76.86,203.36Z" transform="translate(171.1 21.03)"/><path class="cls-18" d="M77.49,201s.87.26,2.37.81c.74.28,1.65.63,2.66,1.1a11.79,11.79,0,0,1,3.24,2,1.67,1.67,0,0,1,.56,1.16.62.62,0,0,1,0,.24l0,.13a1.33,1.33,0,0,1-.27.33,1.83,1.83,0,0,1-.58.34,8,8,0,0,1-2.36.4,30.31,30.31,0,0,1-5-.26,86.68,86.68,0,0,1-10.54-2.07,85,85,0,0,1-10.18-3.41,29.46,29.46,0,0,1-4.46-2.23A8.38,8.38,0,0,1,51,198a2.21,2.21,0,0,1-.33-.59,1,1,0,0,1,0-.79,1.2,1.2,0,0,1,.5-.5,2.65,2.65,0,0,1,.56-.23,11.84,11.84,0,0,1,3.8-.14c1.11.1,2.07.24,2.86.37,1.57.26,2.46.47,2.46.47s-.91-.11-2.49-.25c-.79-.07-1.75-.14-2.85-.15a13.31,13.31,0,0,0-3.59.33,2,2,0,0,0-.39.18l-.13.09,0,0a.54.54,0,0,0-.06.11c-.08.1,0,.35.24.58a7.45,7.45,0,0,0,1.72,1.27,39.89,39.89,0,0,0,4.4,2A84.65,84.65,0,0,0,67.8,204a83.56,83.56,0,0,0,10.37,2.19,38,38,0,0,0,4.83.42c1.4,0,3.47-.23,2.28-1.3a13,13,0,0,0-3-2.06c-1-.53-1.84-.95-2.56-1.28C78.33,201.35,77.49,201,77.49,201Z" transform="translate(171.1 21.03)"/></g><path class="cls-19" d="M107.67,249.71l39.06,35.87a.54.54,0,0,1,0,.76h0a.55.55,0,0,1-.76.05l-40.27-34.5a1.46,1.46,0,0,1-.14-2.08h0A1.46,1.46,0,0,1,107.67,249.71Z" transform="translate(171.1 21.03)"/><path class="cls-20" d="M122.27,263.43l23.94,22a.34.34,0,0,1,0,.47h0a.33.33,0,0,1-.46,0l-24.68-21.14a.89.89,0,0,1-.09-1.27h0A.88.88,0,0,1,122.27,263.43Z" transform="translate(171.1 21.03)"/><g class="cls-21"><path class="cls-22" d="M316.29,208,335,225.22a.26.26,0,0,1,0,.37h0a.26.26,0,0,1-.36,0l-19.34-16.56a.71.71,0,0,1-.06-1h0A.7.7,0,0,1,316.29,208Z" transform="translate(171.1 21.03)"/><path class="cls-23" d="M323.3,214.59l11.49,10.55a.16.16,0,0,1,0,.23h0a.16.16,0,0,1-.22,0l-11.85-10.15a.43.43,0,0,1,0-.61h0A.43.43,0,0,1,323.3,214.59Z" transform="translate(171.1 21.03)"/></g><g class="cls-24"><path class="cls-25" d="M28.71,236.35,80.57,284a.71.71,0,0,1,.05,1h0a.7.7,0,0,1-1,.07L26.15,239.24a1.93,1.93,0,0,1-.19-2.75h0A1.93,1.93,0,0,1,28.71,236.35Z" transform="translate(171.1 21.03)"/><path class="cls-26" d="M48.09,254.57l31.79,29.18a.45.45,0,0,1,0,.62h0a.44.44,0,0,1-.62,0L46.52,256.34a1.18,1.18,0,0,1-.11-1.68h0A1.17,1.17,0,0,1,48.09,254.57Z" transform="translate(171.1 21.03)"/><path class="cls-27" d="M11,241.51l23.8,21.85a.34.34,0,0,1,0,.47h0a.34.34,0,0,1-.46,0l-24.53-21a.88.88,0,0,1-.09-1.26h0A.89.89,0,0,1,11,241.51Z" transform="translate(171.1 21.03)"/><path class="cls-28" d="M19.89,249.87l14.58,13.39a.21.21,0,0,1,0,.29h0a.19.19,0,0,1-.28,0l-15-12.88a.54.54,0,0,1-.05-.77h0A.55.55,0,0,1,19.89,249.87Z" transform="translate(171.1 21.03)"/></g><path class="cls-29" d="M396,243.16,419.77,265a.34.34,0,0,1,0,.47h0a.33.33,0,0,1-.46,0l-24.53-21a.88.88,0,0,1-.09-1.26h0A.89.89,0,0,1,396,243.16Z" transform="translate(171.1 21.03)"/><path class="cls-30" d="M404.87,251.52l14.58,13.39a.21.21,0,0,1,0,.29h0a.2.2,0,0,1-.28,0l-15-12.88a.55.55,0,0,1-.06-.78h0A.56.56,0,0,1,404.87,251.52Z" transform="translate(171.1 21.03)"/><path class="cls-31" d="M528.6,346.77a31.86,31.86,0,0,1-61.4-16.6,30.7,30.7,0,0,1,1-3.81,31.86,31.86,0,1,1,60.37,20.41Z" transform="translate(171.1 21.03)"/><path class="cls-32" d="M530.15,333.64c-12.06-12.42-18.12-11-35.59-10.69-10,.17-15.54-4.82-18.46-9.13a31.87,31.87,0,0,1,54,19.82Z" transform="translate(171.1 21.03)"/><path class="cls-33" d="M524.62,354.71a31.87,31.87,0,0,1-57.42-24.54,28.12,28.12,0,0,0,17.52,13.95C500.9,348.54,516.88,341.46,524.62,354.71Z" transform="translate(171.1 21.03)"/></g><path class="cls-34" d="M440,94.29,380.78,177.5l-11.5-8.18L428.52,86.1a72.79,72.79,0,0,1,15.22-15.73l4.9-3.74a1.85,1.85,0,0,1,.4-.24,2.05,2.05,0,0,1,2.78,2.51l-1.92,5.85A73.49,73.49,0,0,1,440,94.29Z" transform="translate(171.1 21.03)"/><path class="cls-35" d="M437.14,92.24l-59.23,83.22-8.63-6.14L428.52,86.1a72.79,72.79,0,0,1,15.22-15.73l4.9-3.74a1.85,1.85,0,0,1,.4-.24,1.52,1.52,0,0,1-.1.46L447,72.71A72.84,72.84,0,0,1,437.14,92.24Z" transform="translate(171.1 21.03)"/><path class="cls-36" d="M437.78,92.61l-59.23,83.22-8.63-6.14,59.24-83.22a72.79,72.79,0,0,1,15.22-15.73l4.9-3.73a1.9,1.9,0,0,1,.4-.25,1.58,1.58,0,0,1-.1.47l-1.92,5.85A72.84,72.84,0,0,1,437.78,92.61Z" transform="translate(171.1 21.03)"/><polygon class="cls-37" points="551.18 207.13 532.48 193.83 544.89 184.01 556.39 192.19 551.18 207.13"/><polygon class="cls-38" points="546.62 203.89 532.48 193.83 544.89 184.01 551.84 188.95 546.62 203.89"/><polygon class="cls-39" points="547.61 204.47 532.48 193.83 545.88 184.58 552.83 189.53 547.61 204.47"/><rect class="cls-40" x="362.26" y="179.22" width="15.98" height="0.95" transform="translate(343.92 -160.38) rotate(35.44)"/><rect class="cls-41" x="372.61" y="166.69" width="14.12" height="0.42" transform="translate(338.25 -168.21) rotate(35.44)"/><path class="cls-42" d="M481.41,124.92l-59.24,83.22L410.67,200l59.24-83.22A73,73,0,0,1,485.13,101l4.9-3.73a1.85,1.85,0,0,1,.4-.24,2,2,0,0,1,2.78,2.51l-1.92,5.85A73.13,73.13,0,0,1,481.41,124.92Z" transform="translate(171.1 21.03)"/><path class="cls-43" d="M478.53,122.88,419.3,206.09,410.67,200l59.24-83.22A73,73,0,0,1,485.13,101l4.9-3.73a1.85,1.85,0,0,1,.4-.24,1.87,1.87,0,0,1-.09.46l-1.93,5.85A72.9,72.9,0,0,1,478.53,122.88Z" transform="translate(171.1 21.03)"/><path class="cls-44" d="M478.81,123.15l-59.24,83.22L411,200.23,470.18,117a73.26,73.26,0,0,1,15.22-15.73l4.9-3.73a2,2,0,0,1,.41-.25,2,2,0,0,1-.1.47l-1.92,5.85A73.43,73.43,0,0,1,478.81,123.15Z" transform="translate(171.1 21.03)"/><polygon class="cls-45" points="592.57 237.77 573.88 224.47 586.28 214.64 597.79 222.83 592.57 237.77"/><polygon class="cls-38" points="588.01 234.53 573.88 224.47 586.28 214.64 593.23 219.59 588.01 234.53"/><polygon class="cls-46" points="588.7 235.05 574.56 224.99 586.97 215.17 593.92 220.11 588.7 235.05"/><rect class="cls-47" x="403.65" y="209.86" width="15.98" height="0.95" transform="translate(369.36 -178.71) rotate(35.44)"/><rect class="cls-48" x="414" y="197.33" width="14.12" height="0.42" transform="translate(363.68 -186.54) rotate(35.44)"/><path class="cls-49" d="M486.55,96.87,407,208.64l-34.31-24.43L452.24,72.45a76.29,76.29,0,0,1,34.42-26.84l7.07-2.75,0,0A5.26,5.26,0,0,1,500.92,48l-.29,7.61A76.26,76.26,0,0,1,486.55,96.87Z" transform="translate(171.1 21.03)"/><path class="cls-38" d="M479.35,91.75,399.8,203.51l-27.12-19.3L452.24,72.45a76.29,76.29,0,0,1,34.42-26.84l7.07-2.75-.29,7.58A76.38,76.38,0,0,1,479.35,91.75Z" transform="translate(171.1 21.03)"/><path class="cls-50" d="M479.71,91.85,400.15,203.61,373,184.31,452.59,72.55A76.29,76.29,0,0,1,487,45.71L494.08,43l-.29,7.58A76.37,76.37,0,0,1,479.71,91.85Z" transform="translate(171.1 21.03)"/><g class="cls-51"><path class="cls-52" d="M484,78.14a4.39,4.39,0,0,0-.51-.32l-.16-.08-.38-.17-.2-.07a2.53,2.53,0,0,0-.36-.12l-.23,0-.36-.07-.24,0-.37,0h-.25l-.37,0-.26,0-.34.08-.3.07h-.05l-.52.19c-2.37,1-4.69,2.18-6.94,3.43a80.36,80.36,0,0,0-26.46,23.64l-25.49,35.82-37.71,9.36-16.3,20.71.52.3-1.16,1.48L384,182.93l.91.52-6.63,5.44a2.22,2.22,0,0,0,.12,3.52l1.39,1-1,1.46,10.33,7.35,1-1.46,3.21,2.28L389,209.38a1.26,1.26,0,0,0,.31,1.74.72.72,0,0,0,.2.09,1.45,1.45,0,0,0,.17.18,1.26,1.26,0,0,0,1.75-.28L396,205l2.57,1.83-1,1.46,10.32,7.35,1.05-1.46,1.66,1.18a2.22,2.22,0,0,0,3.37-1l3-8,.63.55,16.2,14.13,1-1.58.06.06,14.23-22.18-3.44-38L471.38,123a80.14,80.14,0,0,0,13.7-32.86q.66-3.75.95-7.56A5,5,0,0,0,484,78.14Z" transform="translate(171.1 21.03)"/></g><polygon class="cls-53" points="567.17 208.48 532.47 190.77 549.41 168.29 602.89 155 567.17 208.48"/><polygon class="cls-54" points="567.84 209.26 533.77 189.78 548.77 170.07 603.56 155.79 567.84 209.26"/><polygon class="cls-55" points="572.23 212.02 600.71 239.35 616.02 215.65 611.06 160.76 572.23 212.02"/><polygon class="cls-56" points="566.53 210.26 550.95 201.34 532.47 190.77 548.77 170.07 576.42 163.2 602.25 156.78 566.53 210.26"/><polygon class="cls-57" points="550.95 201.34 532.47 190.77 548.77 170.07 576.42 163.2 550.95 201.34"/><polygon class="cls-58" points="600.71 239.35 584.51 225.21 571.14 213.54 609.98 162.28 612.34 188.48 614.94 217.17 600.71 239.35"/><polygon class="cls-59" points="600.71 239.35 584.51 225.21 612.34 188.48 614.94 217.17 600.71 239.35"/><path class="cls-60" d="M467.24,120.4,410.55,200l-25.73-18.32,56.69-79.64A80.16,80.16,0,0,1,468,78.44,77.1,77.1,0,0,1,474.91,75a5.27,5.27,0,0,1,.51-.19A5,5,0,0,1,481.89,80c-.2,2.54-.51,5.06-.95,7.56a79.36,79.36,0,0,1-3.62,13.65A80.31,80.31,0,0,1,467.24,120.4Z" transform="translate(171.1 21.03)"/><path class="cls-55" d="M460.76,115.79l-56.68,79.64-19.26-13.71,56.69-79.64A80.16,80.16,0,0,1,468,78.44,77.1,77.1,0,0,1,474.91,75a5.27,5.27,0,0,1,.51-.19,5.09,5.09,0,0,1,0,.55q-.29,3.81-1,7.56a80.14,80.14,0,0,1-13.7,32.86Z" transform="translate(171.1 21.03)"/><path class="cls-61" d="M461.49,116.21,404.8,195.85l-19.25-13.71,56.69-79.64a80.23,80.23,0,0,1,26.45-23.64c2.25-1.25,4.57-2.39,6.94-3.43l.52-.19a5,5,0,0,1,0,.55c-.2,2.54-.51,5.06-.95,7.56a80.14,80.14,0,0,1-13.7,32.86Z" transform="translate(171.1 21.03)"/><path class="cls-62" d="M406.44,212.71,374.25,189.8a2.22,2.22,0,0,1-.12-3.52l22.42-18.43a8.92,8.92,0,0,1,10.83-.38l9.31,6.63a8.91,8.91,0,0,1,3.19,10.36L409.8,211.68A2.21,2.21,0,0,1,406.44,212.71Z" transform="translate(171.1 21.03)"/><path class="cls-63" d="M418.69,185.8l-9.89,26.72a2.19,2.19,0,0,1-3.31,1L391,203.24l-2.31-1.64-14.82-10.55a2.19,2.19,0,0,1-.12-3.46l22-18.1a8.75,8.75,0,0,1,10.64-.36l2.95,2.1,3.59,2.56,2.59,1.84A8.75,8.75,0,0,1,418.69,185.8Z" transform="translate(171.1 21.03)"/><rect class="cls-64" x="372.86" y="194.98" width="12.68" height="1.8" transform="translate(354.97 -162.57) rotate(35.44)"/><rect class="cls-64" x="391.67" y="208.37" width="12.68" height="1.8" transform="translate(366.21 -171) rotate(35.44)"/><path class="cls-65" d="M468.44,103.35a1.2,1.2,0,0,1-.48-.77,9.08,9.08,0,0,0-10.45-7.43,1.19,1.19,0,0,1-.39-2.34,11.46,11.46,0,0,1,13.18,9.38,1.18,1.18,0,0,1-1,1.36A1.15,1.15,0,0,1,468.44,103.35Z" transform="translate(171.1 21.03)"/><path class="cls-66" d="M480.94,87.54c-1.83-5.12-6-8.22-13-9.1A77.1,77.1,0,0,1,474.91,75a5,5,0,0,1,7,5C481.69,82.52,481.38,85,480.94,87.54Z" transform="translate(171.1 21.03)"/><path class="cls-67" d="M413.88,172.55l-.92,1.24L391,203.24l-2.31-1.64,20.66-30.37.86-1.28A3.54,3.54,0,0,1,413.88,172.55Z" transform="translate(171.1 21.03)"/><path class="cls-68" d="M409.49,169.26a3.52,3.52,0,0,1,3.65,2.59l-27,36.28a1.27,1.27,0,0,1-1.75.27h0a1.26,1.26,0,0,1-.32-1.74Z" transform="translate(171.1 21.03)"/><g class="cls-5"><path class="cls-69" d="M169,322.82a7.11,7.11,0,1,1-7.11-7.11A7.1,7.1,0,0,1,169,322.82Z" transform="translate(171.1 21.03)"/><path class="cls-70" d="M223.54,194.68a7.11,7.11,0,1,1-7.11-7.11A7.11,7.11,0,0,1,223.54,194.68Z" transform="translate(171.1 21.03)"/></g></g></g></g></svg>