<?xml version="1.0" encoding="utf-8"?>
<!-- Generator: Adobe Illustrator 24.0.1, SVG Export Plug-In . SVG Version: 6.00 Build 0)  -->
<svg version="1.1" xmlns="http://www.w3.org/2000/svg" xmlns:xlink="http://www.w3.org/1999/xlink" x="0px" y="0px"
	 viewBox="0 0 742.5 496.5" style="enable-background:new 0 0 742.5 496.5;" xml:space="preserve">
<style type="text/css">
	.st0{opacity:0.32;}
	.st1{opacity:0.11;clip-path:url(#XMLID_3_);}
	.st2{fill:#A630B0;}
	.st3{opacity:0.25;clip-path:url(#XMLID_4_);fill:url(#XMLID_5_);}
	.st4{opacity:0.25;clip-path:url(#XMLID_4_);fill:url(#XMLID_6_);}
	.st5{clip-path:url(#XMLID_4_);fill:#261843;}
	.st6{clip-path:url(#XMLID_14_);fill:url(#XMLID_22_);}
	.st7{clip-path:url(#XMLID_14_);fill:#FEA7AF;}
	.st8{opacity:0.29;clip-path:url(#XMLID_14_);fill:#FFFFFF;}
	.st9{opacity:0.29;clip-path:url(#XMLID_14_);fill:#FEA7AF;}
	.st10{clip-path:url(#XMLID_14_);fill:#FFFFFF;}
	.st11{opacity:0.33;clip-path:url(#XMLID_14_);fill:#FEA7AF;}
	.st12{opacity:0.22;clip-path:url(#XMLID_14_);}
	.st13{fill:url(#XMLID_24_);}
	.st14{fill:url(#XMLID_26_);}
	.st15{clip-path:url(#XMLID_14_);}
	.st16{fill:url(#XMLID_29_);}
	.st17{fill:url(#XMLID_32_);}
	.st18{opacity:0.33;clip-path:url(#XMLID_14_);}
	.st19{fill:url(#XMLID_33_);}
	.st20{fill:url(#XMLID_34_);}
	.st21{opacity:0.35;clip-path:url(#XMLID_14_);}
	.st22{fill:url(#XMLID_35_);}
	.st23{fill:url(#XMLID_36_);}
	.st24{fill:url(#XMLID_37_);}
	.st25{fill:url(#XMLID_38_);}
	.st26{fill:url(#XMLID_39_);}
	.st27{fill:url(#XMLID_40_);}
	.st28{fill:url(#XMLID_41_);}
	.st29{fill:url(#XMLID_42_);}
	.st30{fill:url(#XMLID_43_);}
	.st31{fill:url(#XMLID_44_);}
	.st32{fill:url(#XMLID_45_);}
	.st33{fill:url(#XMLID_46_);}
	.st34{fill:url(#XMLID_47_);}
	.st35{fill:#FFECFF;}
	.st36{fill:url(#XMLID_48_);}
	.st37{fill:url(#XMLID_49_);}
	.st38{fill:#CC7DFF;}
	.st39{fill:url(#XMLID_50_);}
	.st40{fill:url(#XMLID_51_);}
	.st41{fill:url(#XMLID_52_);}
	.st42{fill:url(#XMLID_53_);}
	.st43{fill:#DDA9FF;}
	.st44{fill:url(#XMLID_54_);}
	.st45{fill:url(#XMLID_55_);}
	.st46{fill:url(#XMLID_56_);}
	.st47{fill:url(#XMLID_57_);}
	.st48{fill:url(#XMLID_58_);}
	.st49{fill:url(#XMLID_59_);}
	.st50{fill:url(#XMLID_60_);}
	.st51{clip-path:url(#XMLID_61_);fill:url(#XMLID_62_);}
	.st52{fill:#FFDCFF;}
	.st53{fill:url(#XMLID_63_);}
	.st54{fill:#FFE4FF;}
	.st55{fill:url(#XMLID_64_);}
	.st56{fill:url(#XMLID_65_);}
	.st57{fill:url(#XMLID_66_);}
	.st58{fill:url(#XMLID_67_);}
	.st59{fill:url(#XMLID_68_);}
	.st60{fill:url(#XMLID_69_);}
	.st61{fill:#FFE7FF;}
	.st62{fill:url(#XMLID_70_);}
	.st63{fill:#7C26A4;}
	.st64{fill:url(#XMLID_71_);}
	.st65{fill:url(#XMLID_72_);}
	.st66{opacity:0.42;fill:#552C84;}
	.st67{fill:url(#XMLID_73_);}
</style>
<g id="BACKGROUND">
</g>
<g id="OBJECTS">
	<g>
		<g>
			<g id="XMLID_313_" class="st0">
				<defs>
					<rect id="XMLID_367_" x="-3.17" class="st0" width="749.33" height="499"/>
				</defs>
				<clipPath id="XMLID_3_">
					<use xlink:href="#XMLID_367_"  style="overflow:visible;"/>
				</clipPath>
				<g id="XMLID_368_" class="st1">
					<g id="XMLID_513_">
						<path id="XMLID_532_" class="st2" d="M25.03-26.44c0,0.94-0.73,1.69-1.63,1.69c-0.9,0-1.63-0.76-1.63-1.69
							c0-0.94,0.73-1.7,1.63-1.7C24.3-28.14,25.03-27.38,25.03-26.44z"/>
						<path id="XMLID_531_" class="st2" d="M94.5-26.44c0,0.94-0.73,1.69-1.63,1.69c-0.9,0-1.63-0.76-1.63-1.69
							c0-0.94,0.73-1.7,1.63-1.7C93.77-28.14,94.5-27.38,94.5-26.44z"/>
						<path id="XMLID_530_" class="st2" d="M163.97-26.44c0,0.94-0.73,1.69-1.63,1.69c-0.9,0-1.63-0.76-1.63-1.69
							c0-0.94,0.73-1.7,1.63-1.7C163.24-28.14,163.97-27.38,163.97-26.44z"/>
						<path id="XMLID_529_" class="st2" d="M233.44-26.44c0,0.94-0.73,1.69-1.63,1.69c-0.9,0-1.63-0.76-1.63-1.69
							c0-0.94,0.73-1.7,1.63-1.7C232.71-28.14,233.44-27.38,233.44-26.44z"/>
						<path id="XMLID_528_" class="st2" d="M302.91-26.44c0,0.94-0.73,1.69-1.63,1.69c-0.9,0-1.63-0.76-1.63-1.69
							c0-0.94,0.73-1.7,1.63-1.7C302.18-28.14,302.91-27.38,302.91-26.44z"/>
						<path id="XMLID_527_" class="st2" d="M372.38-26.44c0,0.94-0.73,1.69-1.63,1.69c-0.9,0-1.63-0.76-1.63-1.69
							c0-0.94,0.73-1.7,1.63-1.7C371.65-28.14,372.38-27.38,372.38-26.44z"/>
						<path id="XMLID_526_" class="st2" d="M441.85-26.44c0,0.94-0.73,1.69-1.63,1.69c-0.9,0-1.63-0.76-1.63-1.69
							c0-0.94,0.73-1.7,1.63-1.7C441.11-28.14,441.85-27.38,441.85-26.44z"/>
						<path id="XMLID_525_" class="st2" d="M511.32-26.44c0,0.94-0.73,1.69-1.63,1.69c-0.9,0-1.63-0.76-1.63-1.69
							c0-0.94,0.73-1.7,1.63-1.7C510.58-28.14,511.32-27.38,511.32-26.44z"/>
						<path id="XMLID_521_" class="st2" d="M580.79-26.44c0,0.94-0.73,1.69-1.63,1.69c-0.9,0-1.63-0.76-1.63-1.69
							c0-0.94,0.73-1.7,1.63-1.7C580.05-28.14,580.79-27.38,580.79-26.44z"/>
						<path id="XMLID_517_" class="st2" d="M650.25-26.44c0,0.94-0.73,1.69-1.63,1.69c-0.9,0-1.63-0.76-1.63-1.69
							c0-0.94,0.73-1.7,1.63-1.7C649.52-28.14,650.25-27.38,650.25-26.44z"/>
						<path id="XMLID_516_" class="st2" d="M719.72-26.44c0,0.94-0.73,1.69-1.63,1.69c-0.9,0-1.63-0.76-1.63-1.69
							c0-0.94,0.73-1.7,1.63-1.7C718.99-28.14,719.72-27.38,719.72-26.44z"/>
					</g>
					<g id="XMLID_496_">
						<path id="XMLID_512_" class="st2" d="M25.03,42.54c0,0.94-0.73,1.7-1.63,1.7c-0.9,0-1.63-0.76-1.63-1.7
							c0-0.94,0.73-1.69,1.63-1.69C24.3,40.85,25.03,41.61,25.03,42.54z"/>
						<path id="XMLID_508_" class="st2" d="M94.5,42.54c0,0.94-0.73,1.7-1.63,1.7c-0.9,0-1.63-0.76-1.63-1.7
							c0-0.94,0.73-1.69,1.63-1.69C93.77,40.85,94.5,41.61,94.5,42.54z"/>
						<path id="XMLID_507_" class="st2" d="M163.97,42.54c0,0.94-0.73,1.7-1.63,1.7c-0.9,0-1.63-0.76-1.63-1.7
							c0-0.94,0.73-1.69,1.63-1.69C163.24,40.85,163.97,41.61,163.97,42.54z"/>
						<path id="XMLID_506_" class="st2" d="M233.44,42.54c0,0.94-0.73,1.7-1.63,1.7c-0.9,0-1.63-0.76-1.63-1.7
							c0-0.94,0.73-1.69,1.63-1.69C232.71,40.85,233.44,41.61,233.44,42.54z"/>
						<path id="XMLID_505_" class="st2" d="M302.91,42.54c0,0.94-0.73,1.7-1.63,1.7c-0.9,0-1.63-0.76-1.63-1.7
							c0-0.94,0.73-1.69,1.63-1.69C302.18,40.85,302.91,41.61,302.91,42.54z"/>
						<path id="XMLID_502_" class="st2" d="M372.38,42.54c0,0.94-0.73,1.7-1.63,1.7c-0.9,0-1.63-0.76-1.63-1.7
							c0-0.94,0.73-1.69,1.63-1.69C371.65,40.85,372.38,41.61,372.38,42.54z"/>
						<path id="XMLID_501_" class="st2" d="M441.85,42.54c0,0.94-0.73,1.7-1.63,1.7c-0.9,0-1.63-0.76-1.63-1.7
							c0-0.94,0.73-1.69,1.63-1.69C441.11,40.85,441.85,41.61,441.85,42.54z"/>
						<path id="XMLID_500_" class="st2" d="M511.32,42.54c0,0.94-0.73,1.7-1.63,1.7c-0.9,0-1.63-0.76-1.63-1.7
							c0-0.94,0.73-1.69,1.63-1.69C510.58,40.85,511.32,41.61,511.32,42.54z"/>
						<path id="XMLID_499_" class="st2" d="M580.79,42.54c0,0.94-0.73,1.7-1.63,1.7c-0.9,0-1.63-0.76-1.63-1.7
							c0-0.94,0.73-1.69,1.63-1.69C580.05,40.85,580.79,41.61,580.79,42.54z"/>
						<path id="XMLID_498_" class="st2" d="M650.25,42.54c0,0.94-0.73,1.7-1.63,1.7c-0.9,0-1.63-0.76-1.63-1.7
							c0-0.94,0.73-1.69,1.63-1.69C649.52,40.85,650.25,41.61,650.25,42.54z"/>
						<path id="XMLID_497_" class="st2" d="M719.72,42.54c0,0.94-0.73,1.7-1.63,1.7c-0.9,0-1.63-0.76-1.63-1.7
							c0-0.94,0.73-1.69,1.63-1.69C718.99,40.85,719.72,41.61,719.72,42.54z"/>
					</g>
					<g id="XMLID_484_">
						<path id="XMLID_495_" class="st2" d="M25.03,111.53c0,0.94-0.73,1.7-1.63,1.7c-0.9,0-1.63-0.76-1.63-1.7
							c0-0.94,0.73-1.69,1.63-1.69C24.3,109.83,25.03,110.59,25.03,111.53z"/>
						<path id="XMLID_494_" class="st2" d="M94.5,111.53c0,0.94-0.73,1.7-1.63,1.7c-0.9,0-1.63-0.76-1.63-1.7
							c0-0.94,0.73-1.69,1.63-1.69C93.77,109.83,94.5,110.59,94.5,111.53z"/>
						<path id="XMLID_493_" class="st2" d="M163.97,111.53c0,0.94-0.73,1.7-1.63,1.7c-0.9,0-1.63-0.76-1.63-1.7
							c0-0.94,0.73-1.69,1.63-1.69C163.24,109.83,163.97,110.59,163.97,111.53z"/>
						<path id="XMLID_492_" class="st2" d="M233.44,111.53c0,0.94-0.73,1.7-1.63,1.7c-0.9,0-1.63-0.76-1.63-1.7
							c0-0.94,0.73-1.69,1.63-1.69C232.71,109.83,233.44,110.59,233.44,111.53z"/>
						<path id="XMLID_491_" class="st2" d="M302.91,111.53c0,0.94-0.73,1.7-1.63,1.7c-0.9,0-1.63-0.76-1.63-1.7
							c0-0.94,0.73-1.69,1.63-1.69C302.18,109.83,302.91,110.59,302.91,111.53z"/>
						<path id="XMLID_490_" class="st2" d="M372.38,111.53c0,0.94-0.73,1.7-1.63,1.7c-0.9,0-1.63-0.76-1.63-1.7
							c0-0.94,0.73-1.69,1.63-1.69C371.65,109.83,372.38,110.59,372.38,111.53z"/>
						<path id="XMLID_489_" class="st2" d="M441.85,111.53c0,0.94-0.73,1.7-1.63,1.7c-0.9,0-1.63-0.76-1.63-1.7
							c0-0.94,0.73-1.69,1.63-1.69C441.11,109.83,441.85,110.59,441.85,111.53z"/>
						<path id="XMLID_488_" class="st2" d="M511.32,111.53c0,0.94-0.73,1.7-1.63,1.7c-0.9,0-1.63-0.76-1.63-1.7
							c0-0.94,0.73-1.69,1.63-1.69C510.58,109.83,511.32,110.59,511.32,111.53z"/>
						<path id="XMLID_487_" class="st2" d="M580.79,111.53c0,0.94-0.73,1.7-1.63,1.7c-0.9,0-1.63-0.76-1.63-1.7
							c0-0.94,0.73-1.69,1.63-1.69C580.05,109.83,580.79,110.59,580.79,111.53z"/>
						<path id="XMLID_486_" class="st2" d="M650.25,111.53c0,0.94-0.73,1.7-1.63,1.7c-0.9,0-1.63-0.76-1.63-1.7
							c0-0.94,0.73-1.69,1.63-1.69C649.52,109.83,650.25,110.59,650.25,111.53z"/>
						<path id="XMLID_485_" class="st2" d="M719.72,111.53c0,0.94-0.73,1.7-1.63,1.7c-0.9,0-1.63-0.76-1.63-1.7
							c0-0.94,0.73-1.69,1.63-1.69C718.99,109.83,719.72,110.59,719.72,111.53z"/>
					</g>
					<g id="XMLID_472_">
						<path id="XMLID_483_" class="st2" d="M25.03,180.51c0,0.94-0.73,1.69-1.63,1.69c-0.9,0-1.63-0.76-1.63-1.69
							c0-0.94,0.73-1.7,1.63-1.7C24.3,178.82,25.03,179.58,25.03,180.51z"/>
						<path id="XMLID_482_" class="st2" d="M94.5,180.51c0,0.94-0.73,1.69-1.63,1.69c-0.9,0-1.63-0.76-1.63-1.69
							c0-0.94,0.73-1.7,1.63-1.7C93.77,178.82,94.5,179.58,94.5,180.51z"/>
						<path id="XMLID_481_" class="st2" d="M163.97,180.51c0,0.94-0.73,1.69-1.63,1.69c-0.9,0-1.63-0.76-1.63-1.69
							c0-0.94,0.73-1.7,1.63-1.7C163.24,178.82,163.97,179.58,163.97,180.51z"/>
						<path id="XMLID_480_" class="st2" d="M233.44,180.51c0,0.94-0.73,1.69-1.63,1.69c-0.9,0-1.63-0.76-1.63-1.69
							c0-0.94,0.73-1.7,1.63-1.7C232.71,178.82,233.44,179.58,233.44,180.51z"/>
						<path id="XMLID_479_" class="st2" d="M302.91,180.51c0,0.94-0.73,1.69-1.63,1.69c-0.9,0-1.63-0.76-1.63-1.69
							c0-0.94,0.73-1.7,1.63-1.7C302.18,178.82,302.91,179.58,302.91,180.51z"/>
						<path id="XMLID_478_" class="st2" d="M372.38,180.51c0,0.94-0.73,1.69-1.63,1.69c-0.9,0-1.63-0.76-1.63-1.69
							c0-0.94,0.73-1.7,1.63-1.7C371.65,178.82,372.38,179.58,372.38,180.51z"/>
						<path id="XMLID_477_" class="st2" d="M441.85,180.51c0,0.94-0.73,1.69-1.63,1.69c-0.9,0-1.63-0.76-1.63-1.69
							c0-0.94,0.73-1.7,1.63-1.7C441.11,178.82,441.85,179.58,441.85,180.51z"/>
						<path id="XMLID_476_" class="st2" d="M511.32,180.51c0,0.94-0.73,1.69-1.63,1.69c-0.9,0-1.63-0.76-1.63-1.69
							c0-0.94,0.73-1.7,1.63-1.7C510.58,178.82,511.32,179.58,511.32,180.51z"/>
						<path id="XMLID_475_" class="st2" d="M580.79,180.51c0,0.94-0.73,1.69-1.63,1.69c-0.9,0-1.63-0.76-1.63-1.69
							c0-0.94,0.73-1.7,1.63-1.7C580.05,178.82,580.79,179.58,580.79,180.51z"/>
						<path id="XMLID_474_" class="st2" d="M650.25,180.51c0,0.94-0.73,1.69-1.63,1.69c-0.9,0-1.63-0.76-1.63-1.69
							c0-0.94,0.73-1.7,1.63-1.7C649.52,178.82,650.25,179.58,650.25,180.51z"/>
						<path id="XMLID_473_" class="st2" d="M719.72,180.51c0,0.94-0.73,1.69-1.63,1.69c-0.9,0-1.63-0.76-1.63-1.69
							c0-0.94,0.73-1.7,1.63-1.7C718.99,178.82,719.72,179.58,719.72,180.51z"/>
					</g>
					<g id="XMLID_460_">
						<path id="XMLID_471_" class="st2" d="M25.03,249.5c0,0.94-0.73,1.69-1.63,1.69c-0.9,0-1.63-0.76-1.63-1.69
							s0.73-1.69,1.63-1.69C24.3,247.81,25.03,248.56,25.03,249.5z"/>
						<path id="XMLID_470_" class="st2" d="M94.5,249.5c0,0.94-0.73,1.69-1.63,1.69c-0.9,0-1.63-0.76-1.63-1.69s0.73-1.69,1.63-1.69
							C93.77,247.81,94.5,248.56,94.5,249.5z"/>
						<path id="XMLID_469_" class="st2" d="M163.97,249.5c0,0.94-0.73,1.69-1.63,1.69c-0.9,0-1.63-0.76-1.63-1.69
							s0.73-1.69,1.63-1.69C163.24,247.81,163.97,248.56,163.97,249.5z"/>
						<ellipse id="XMLID_468_" class="st2" cx="231.8" cy="249.5" rx="1.63" ry="1.69"/>
						<path id="XMLID_467_" class="st2" d="M302.91,249.5c0,0.94-0.73,1.69-1.63,1.69c-0.9,0-1.63-0.76-1.63-1.69
							s0.73-1.69,1.63-1.69C302.18,247.81,302.91,248.56,302.91,249.5z"/>
						<path id="XMLID_466_" class="st2" d="M372.38,249.5c0,0.94-0.73,1.69-1.63,1.69c-0.9,0-1.63-0.76-1.63-1.69
							s0.73-1.69,1.63-1.69C371.65,247.81,372.38,248.56,372.38,249.5z"/>
						<path id="XMLID_465_" class="st2" d="M441.85,249.5c0,0.94-0.73,1.69-1.63,1.69c-0.9,0-1.63-0.76-1.63-1.69
							s0.73-1.69,1.63-1.69C441.11,247.81,441.85,248.56,441.85,249.5z"/>
						<path id="XMLID_464_" class="st2" d="M511.32,249.5c0,0.94-0.73,1.69-1.63,1.69c-0.9,0-1.63-0.76-1.63-1.69
							s0.73-1.69,1.63-1.69C510.58,247.81,511.32,248.56,511.32,249.5z"/>
						<path id="XMLID_463_" class="st2" d="M580.79,249.5c0,0.94-0.73,1.69-1.63,1.69c-0.9,0-1.63-0.76-1.63-1.69
							s0.73-1.69,1.63-1.69C580.05,247.81,580.79,248.56,580.79,249.5z"/>
						<path id="XMLID_462_" class="st2" d="M650.25,249.5c0,0.94-0.73,1.69-1.63,1.69c-0.9,0-1.63-0.76-1.63-1.69
							s0.73-1.69,1.63-1.69C649.52,247.81,650.25,248.56,650.25,249.5z"/>
						<path id="XMLID_461_" class="st2" d="M719.72,249.5c0,0.94-0.73,1.69-1.63,1.69c-0.9,0-1.63-0.76-1.63-1.69
							s0.73-1.69,1.63-1.69C718.99,247.81,719.72,248.56,719.72,249.5z"/>
					</g>
					<g id="XMLID_448_">
						<path id="XMLID_459_" class="st2" d="M25.03,318.49c0,0.94-0.73,1.7-1.63,1.7c-0.9,0-1.63-0.76-1.63-1.7
							c0-0.94,0.73-1.69,1.63-1.69C24.3,316.79,25.03,317.55,25.03,318.49z"/>
						<path id="XMLID_458_" class="st2" d="M94.5,318.49c0,0.94-0.73,1.7-1.63,1.7c-0.9,0-1.63-0.76-1.63-1.7
							c0-0.94,0.73-1.69,1.63-1.69C93.77,316.79,94.5,317.55,94.5,318.49z"/>
						<path id="XMLID_457_" class="st2" d="M163.97,318.49c0,0.94-0.73,1.7-1.63,1.7c-0.9,0-1.63-0.76-1.63-1.7
							c0-0.94,0.73-1.69,1.63-1.69C163.24,316.79,163.97,317.55,163.97,318.49z"/>
						<path id="XMLID_456_" class="st2" d="M233.44,318.49c0,0.94-0.73,1.7-1.63,1.7c-0.9,0-1.63-0.76-1.63-1.7
							c0-0.94,0.73-1.69,1.63-1.69C232.71,316.79,233.44,317.55,233.44,318.49z"/>
						<path id="XMLID_455_" class="st2" d="M302.91,318.49c0,0.94-0.73,1.7-1.63,1.7c-0.9,0-1.63-0.76-1.63-1.7
							c0-0.94,0.73-1.69,1.63-1.69C302.18,316.79,302.91,317.55,302.91,318.49z"/>
						<path id="XMLID_454_" class="st2" d="M372.38,318.49c0,0.94-0.73,1.7-1.63,1.7c-0.9,0-1.63-0.76-1.63-1.7
							c0-0.94,0.73-1.69,1.63-1.69C371.65,316.79,372.38,317.55,372.38,318.49z"/>
						<path id="XMLID_453_" class="st2" d="M441.85,318.49c0,0.94-0.73,1.7-1.63,1.7c-0.9,0-1.63-0.76-1.63-1.7
							c0-0.94,0.73-1.69,1.63-1.69C441.11,316.79,441.85,317.55,441.85,318.49z"/>
						<path id="XMLID_452_" class="st2" d="M511.32,318.49c0,0.94-0.73,1.7-1.63,1.7c-0.9,0-1.63-0.76-1.63-1.7
							c0-0.94,0.73-1.69,1.63-1.69C510.58,316.79,511.32,317.55,511.32,318.49z"/>
						<path id="XMLID_451_" class="st2" d="M580.79,318.49c0,0.94-0.73,1.7-1.63,1.7c-0.9,0-1.63-0.76-1.63-1.7
							c0-0.94,0.73-1.69,1.63-1.69C580.05,316.79,580.79,317.55,580.79,318.49z"/>
						<path id="XMLID_450_" class="st2" d="M650.25,318.49c0,0.94-0.73,1.7-1.63,1.7c-0.9,0-1.63-0.76-1.63-1.7
							c0-0.94,0.73-1.69,1.63-1.69C649.52,316.79,650.25,317.55,650.25,318.49z"/>
						<path id="XMLID_449_" class="st2" d="M719.72,318.49c0,0.94-0.73,1.7-1.63,1.7c-0.9,0-1.63-0.76-1.63-1.7
							c0-0.94,0.73-1.69,1.63-1.69C718.99,316.79,719.72,317.55,719.72,318.49z"/>
					</g>
					<g id="XMLID_436_">
						<path id="XMLID_447_" class="st2" d="M25.03,387.47c0,0.94-0.73,1.69-1.63,1.69c-0.9,0-1.63-0.76-1.63-1.69
							c0-0.94,0.73-1.7,1.63-1.7C24.3,385.78,25.03,386.53,25.03,387.47z"/>
						<path id="XMLID_446_" class="st2" d="M94.5,387.47c0,0.94-0.73,1.69-1.63,1.69c-0.9,0-1.63-0.76-1.63-1.69
							c0-0.94,0.73-1.7,1.63-1.7C93.77,385.78,94.5,386.53,94.5,387.47z"/>
						<path id="XMLID_445_" class="st2" d="M163.97,387.47c0,0.94-0.73,1.69-1.63,1.69c-0.9,0-1.63-0.76-1.63-1.69
							c0-0.94,0.73-1.7,1.63-1.7C163.24,385.78,163.97,386.53,163.97,387.47z"/>
						<path id="XMLID_444_" class="st2" d="M233.44,387.47c0,0.94-0.73,1.69-1.63,1.69c-0.9,0-1.63-0.76-1.63-1.69
							c0-0.94,0.73-1.7,1.63-1.7C232.71,385.78,233.44,386.53,233.44,387.47z"/>
						<path id="XMLID_443_" class="st2" d="M302.91,387.47c0,0.94-0.73,1.69-1.63,1.69c-0.9,0-1.63-0.76-1.63-1.69
							c0-0.94,0.73-1.7,1.63-1.7C302.18,385.78,302.91,386.53,302.91,387.47z"/>
						<path id="XMLID_442_" class="st2" d="M372.38,387.47c0,0.94-0.73,1.69-1.63,1.69c-0.9,0-1.63-0.76-1.63-1.69
							c0-0.94,0.73-1.7,1.63-1.7C371.65,385.78,372.38,386.53,372.38,387.47z"/>
						<path id="XMLID_441_" class="st2" d="M441.85,387.47c0,0.94-0.73,1.69-1.63,1.69c-0.9,0-1.63-0.76-1.63-1.69
							c0-0.94,0.73-1.7,1.63-1.7C441.11,385.78,441.85,386.53,441.85,387.47z"/>
						<path id="XMLID_440_" class="st2" d="M511.32,387.47c0,0.94-0.73,1.69-1.63,1.69c-0.9,0-1.63-0.76-1.63-1.69
							c0-0.94,0.73-1.7,1.63-1.7C510.58,385.78,511.32,386.53,511.32,387.47z"/>
						<path id="XMLID_439_" class="st2" d="M580.79,387.47c0,0.94-0.73,1.69-1.63,1.69c-0.9,0-1.63-0.76-1.63-1.69
							c0-0.94,0.73-1.7,1.63-1.7C580.05,385.78,580.79,386.53,580.79,387.47z"/>
						<path id="XMLID_438_" class="st2" d="M650.25,387.47c0,0.94-0.73,1.69-1.63,1.69c-0.9,0-1.63-0.76-1.63-1.69
							c0-0.94,0.73-1.7,1.63-1.7C649.52,385.78,650.25,386.53,650.25,387.47z"/>
						<path id="XMLID_437_" class="st2" d="M719.72,387.47c0,0.94-0.73,1.69-1.63,1.69c-0.9,0-1.63-0.76-1.63-1.69
							c0-0.94,0.73-1.7,1.63-1.7C718.99,385.78,719.72,386.53,719.72,387.47z"/>
					</g>
					<g id="XMLID_421_">
						<path id="XMLID_435_" class="st2" d="M25.03,456.46c0,0.94-0.73,1.69-1.63,1.69c-0.9,0-1.63-0.76-1.63-1.69
							c0-0.94,0.73-1.7,1.63-1.7C24.3,454.76,25.03,455.52,25.03,456.46z"/>
						<path id="XMLID_434_" class="st2" d="M94.5,456.46c0,0.94-0.73,1.69-1.63,1.69c-0.9,0-1.63-0.76-1.63-1.69
							c0-0.94,0.73-1.7,1.63-1.7C93.77,454.76,94.5,455.52,94.5,456.46z"/>
						<path id="XMLID_433_" class="st2" d="M163.97,456.46c0,0.94-0.73,1.69-1.63,1.69c-0.9,0-1.63-0.76-1.63-1.69
							c0-0.94,0.73-1.7,1.63-1.7C163.24,454.76,163.97,455.52,163.97,456.46z"/>
						<path id="XMLID_432_" class="st2" d="M233.44,456.46c0,0.94-0.73,1.69-1.63,1.69c-0.9,0-1.63-0.76-1.63-1.69
							c0-0.94,0.73-1.7,1.63-1.7C232.71,454.76,233.44,455.52,233.44,456.46z"/>
						<path id="XMLID_431_" class="st2" d="M302.91,456.46c0,0.94-0.73,1.69-1.63,1.69c-0.9,0-1.63-0.76-1.63-1.69
							c0-0.94,0.73-1.7,1.63-1.7C302.18,454.76,302.91,455.52,302.91,456.46z"/>
						<path id="XMLID_430_" class="st2" d="M372.38,456.46c0,0.94-0.73,1.69-1.63,1.69c-0.9,0-1.63-0.76-1.63-1.69
							c0-0.94,0.73-1.7,1.63-1.7C371.65,454.76,372.38,455.52,372.38,456.46z"/>
						<path id="XMLID_429_" class="st2" d="M441.85,456.46c0,0.94-0.73,1.69-1.63,1.69c-0.9,0-1.63-0.76-1.63-1.69
							c0-0.94,0.73-1.7,1.63-1.7C441.11,454.76,441.85,455.52,441.85,456.46z"/>
						<path id="XMLID_427_" class="st2" d="M511.32,456.46c0,0.94-0.73,1.69-1.63,1.69c-0.9,0-1.63-0.76-1.63-1.69
							c0-0.94,0.73-1.7,1.63-1.7C510.58,454.76,511.32,455.52,511.32,456.46z"/>
						<path id="XMLID_426_" class="st2" d="M580.79,456.46c0,0.94-0.73,1.69-1.63,1.69c-0.9,0-1.63-0.76-1.63-1.69
							c0-0.94,0.73-1.7,1.63-1.7C580.05,454.76,580.79,455.52,580.79,456.46z"/>
						<path id="XMLID_425_" class="st2" d="M650.25,456.46c0,0.94-0.73,1.69-1.63,1.69c-0.9,0-1.63-0.76-1.63-1.69
							c0-0.94,0.73-1.7,1.63-1.7C649.52,454.76,650.25,455.52,650.25,456.46z"/>
						<path id="XMLID_422_" class="st2" d="M719.72,456.46c0,0.94-0.73,1.69-1.63,1.69c-0.9,0-1.63-0.76-1.63-1.69
							c0-0.94,0.73-1.7,1.63-1.7C718.99,454.76,719.72,455.52,719.72,456.46z"/>
					</g>
					<g id="XMLID_371_">
						<path id="XMLID_420_" class="st2" d="M25.03,525.44c0,0.94-0.73,1.7-1.63,1.7c-0.9,0-1.63-0.76-1.63-1.7
							c0-0.94,0.73-1.69,1.63-1.69C24.3,523.75,25.03,524.51,25.03,525.44z"/>
						<path id="XMLID_419_" class="st2" d="M94.5,525.44c0,0.94-0.73,1.7-1.63,1.7c-0.9,0-1.63-0.76-1.63-1.7
							c0-0.94,0.73-1.69,1.63-1.69C93.77,523.75,94.5,524.51,94.5,525.44z"/>
						<path id="XMLID_417_" class="st2" d="M163.97,525.44c0,0.94-0.73,1.7-1.63,1.7c-0.9,0-1.63-0.76-1.63-1.7
							c0-0.94,0.73-1.69,1.63-1.69C163.24,523.75,163.97,524.51,163.97,525.44z"/>
						<path id="XMLID_415_" class="st2" d="M233.44,525.44c0,0.94-0.73,1.7-1.63,1.7c-0.9,0-1.63-0.76-1.63-1.7
							c0-0.94,0.73-1.69,1.63-1.69C232.71,523.75,233.44,524.51,233.44,525.44z"/>
						<path id="XMLID_414_" class="st2" d="M302.91,525.44c0,0.94-0.73,1.7-1.63,1.7c-0.9,0-1.63-0.76-1.63-1.7
							c0-0.94,0.73-1.69,1.63-1.69C302.18,523.75,302.91,524.51,302.91,525.44z"/>
						<path id="XMLID_413_" class="st2" d="M372.38,525.44c0,0.94-0.73,1.7-1.63,1.7c-0.9,0-1.63-0.76-1.63-1.7
							c0-0.94,0.73-1.69,1.63-1.69C371.65,523.75,372.38,524.51,372.38,525.44z"/>
						<path id="XMLID_412_" class="st2" d="M441.85,525.44c0,0.94-0.73,1.7-1.63,1.7c-0.9,0-1.63-0.76-1.63-1.7
							c0-0.94,0.73-1.69,1.63-1.69C441.11,523.75,441.85,524.51,441.85,525.44z"/>
						<path id="XMLID_385_" class="st2" d="M511.32,525.44c0,0.94-0.73,1.7-1.63,1.7c-0.9,0-1.63-0.76-1.63-1.7
							c0-0.94,0.73-1.69,1.63-1.69C510.58,523.75,511.32,524.51,511.32,525.44z"/>
						<path id="XMLID_374_" class="st2" d="M580.79,525.44c0,0.94-0.73,1.7-1.63,1.7c-0.9,0-1.63-0.76-1.63-1.7
							c0-0.94,0.73-1.69,1.63-1.69C580.05,523.75,580.79,524.51,580.79,525.44z"/>
						<path id="XMLID_373_" class="st2" d="M650.25,525.44c0,0.94-0.73,1.7-1.63,1.7c-0.9,0-1.63-0.76-1.63-1.7
							c0-0.94,0.73-1.69,1.63-1.69C649.52,523.75,650.25,524.51,650.25,525.44z"/>
						<path id="XMLID_372_" class="st2" d="M719.72,525.44c0,0.94-0.73,1.7-1.63,1.7c-0.9,0-1.63-0.76-1.63-1.7
							c0-0.94,0.73-1.69,1.63-1.69C718.99,523.75,719.72,524.51,719.72,525.44z"/>
					</g>
				</g>
			</g>
			<g id="XMLID_267_">
				<defs>
					<rect id="XMLID_268_" x="-3.17" width="749.33" height="499"/>
				</defs>
				<clipPath id="XMLID_4_">
					<use xlink:href="#XMLID_268_"  style="overflow:visible;"/>
				</clipPath>
				
					<radialGradient id="XMLID_5_" cx="350.4505" cy="269.8211" r="270.045" gradientTransform="matrix(1.3324 0 0 1.3381 -117.3728 -85.0354)" gradientUnits="userSpaceOnUse">
					<stop  offset="5.376340e-03" style="stop-color:#DE3DBF"/>
					<stop  offset="1" style="stop-color:#67219E"/>
				</radialGradient>
				<path id="XMLID_299_" class="st3" d="M546.87,206.69c0,0-15.12,36.03-55.49,12.7c-40.37-23.33-43.66-47.08-121.1-24.21
					c-77.44,22.87-105.57,21.51-122.13-4.74s-47.8-62.7-113.85-58.83C68.26,135.48,34.26,45.69-13.35,31.14
					c-47.61-14.55-82.11,30.36-82.11,30.36v462.32h890.08c0,0-22.77-70.68-73.83-92.16c-51.06-21.48-43.74-36.03-48.44-72.07
					c-4.69-36.03-102.78-60.33-95.94-113.25C583.26,193.42,546.87,206.69,546.87,206.69z"/>
				
					<radialGradient id="XMLID_6_" cx="472.1864" cy="184.6586" r="407.5794" gradientTransform="matrix(1.3086 0 0 1.3381 -119.7314 -85.0354)" gradientUnits="userSpaceOnUse">
					<stop  offset="5.376340e-03" style="stop-color:#DE3DBF"/>
					<stop  offset="1" style="stop-color:#67219E"/>
				</radialGradient>
				<path id="XMLID_275_" class="st4" d="M-83.08,68.36c5.42-3.5,100.29-26.82,130.11,38.78s61.44,66.4,109.32,70.44
					c47.89,4.03,33.43,4.84,86.74,40.01s84.62,16.88,123.47,4.3c38.85-12.57,100.85,17.56,150.42-8.64
					c49.57-26.21,51.59,16.81,51.59,16.81s-13.8,37.52,26.31,63.78c40.11,26.26,20.42,56.51,31.58,104.56
					c11.16,48.04,119.71,119.19,119.71,119.19l-849.12-45.27L-83.08,68.36z"/>
				<path id="XMLID_270_" class="st5" d="M-94.46,62.04c0,0,16.77,70.86,87.52,78.81c70.74,7.95,72.93,5.59,99.91,37.89
					c26.98,32.3,41.57,50.4,89.7,38.7c48.13-11.7,90.43-39.29,129.81-16.89c39.38,22.4,126.62,60.36,216.56-27.78
					c89.94-88.14,60.44,44.67,60.44,44.67s-62.34,49.31,28.57,93.59c32.09,16.56,26.86,65.96,37.43,97.99
					c10.57,32.03,97,93.84,97,93.84S90.15,552.84,85.77,553.5c-4.38,0.66-251.7-123.26-251.7-123.26L-94.46,62.04z"/>
			</g>
			<g id="XMLID_150_">
				<defs>
					<rect id="XMLID_151_" x="-3.17" width="749.33" height="499"/>
				</defs>
				<clipPath id="XMLID_14_">
					<use xlink:href="#XMLID_151_"  style="overflow:visible;"/>
				</clipPath>
				<linearGradient id="XMLID_22_" gradientUnits="userSpaceOnUse" x1="521.7217" y1="401.6362" x2="535.1175" y2="425.1074">
					<stop  offset="5.376340e-03" style="stop-color:#FEA7AF"/>
					<stop  offset="0.9731" style="stop-color:#EA47AC"/>
				</linearGradient>
				<ellipse id="XMLID_266_" class="st6" cx="528.36" cy="413.27" rx="14.02" ry="14.54"/>
				<polygon id="XMLID_364_" class="st7" points="275.84,257.87 276.8,259.7 278.56,260.69 276.8,261.69 275.84,263.51 
					274.88,261.69 273.12,260.69 274.88,259.7 				"/>
				<polygon id="XMLID_363_" class="st7" points="378.58,382.96 379.21,384.16 380.36,384.81 379.21,385.47 378.58,386.66 
					377.95,385.47 376.79,384.81 377.95,384.16 				"/>
				<polygon id="XMLID_362_" class="st7" points="380.36,275.96 380.99,277.16 382.14,277.81 380.99,278.46 380.36,279.66 
					379.73,278.46 378.58,277.81 379.73,277.16 				"/>
				<polygon id="XMLID_264_" class="st7" points="121.93,434.79 122.56,435.99 123.71,436.64 122.56,437.3 121.93,438.49 
					121.3,437.3 120.15,436.64 121.3,435.99 				"/>
				<polygon id="XMLID_263_" class="st8" points="76.21,222 76.84,223.19 77.99,223.84 76.84,224.5 76.21,225.69 75.58,224.5 
					74.43,223.84 75.58,223.19 				"/>
				<polygon id="XMLID_262_" class="st8" points="9.1,471.2 9.73,472.39 10.88,473.05 9.73,473.7 9.1,474.9 8.47,473.7 7.32,473.05 
					8.47,472.39 				"/>
				<polygon id="XMLID_261_" class="st8" points="17.68,246.39 18.31,247.58 19.46,248.24 18.31,248.89 17.68,250.08 17.05,248.89 
					15.9,248.24 17.05,247.58 				"/>
				<polygon id="XMLID_260_" class="st8" points="161.31,297.74 161.94,298.94 163.09,299.59 161.94,300.24 161.31,301.44 
					160.68,300.24 159.52,299.59 160.68,298.94 				"/>
				<polygon id="XMLID_357_" class="st9" points="220.2,327.35 221.45,329.72 223.73,331.01 221.45,332.3 220.2,334.67 
					218.95,332.3 216.68,331.01 218.95,329.72 				"/>
				<polygon id="XMLID_356_" class="st8" points="31.36,198.44 32.61,200.81 34.88,202.1 32.61,203.39 31.36,205.76 30.11,203.39 
					27.83,202.1 30.11,200.81 				"/>
				<polygon id="XMLID_259_" class="st8" points="528.36,299.59 529.61,301.95 531.89,303.25 529.61,304.54 528.36,306.9 
					527.12,304.54 524.84,303.25 527.12,301.95 				"/>
				<polygon id="XMLID_258_" class="st8" points="518.13,476.08 519.37,478.44 521.65,479.74 519.37,481.03 518.13,483.39 
					516.88,481.03 514.6,479.74 516.88,478.44 				"/>
				<polygon id="XMLID_257_" class="st8" points="38.19,431.21 38.78,432.33 39.86,432.95 38.78,433.56 38.19,434.68 37.6,433.56 
					36.52,432.95 37.6,432.33 				"/>
				<polygon id="XMLID_256_" class="st9" points="290.74,417.45 291.33,418.57 292.41,419.18 291.33,419.79 290.74,420.91 
					290.14,419.79 289.06,419.18 290.14,418.57 				"/>
				<polygon id="XMLID_254_" class="st9" points="433.04,277.93 433.63,279.05 434.71,279.66 433.63,280.27 433.04,281.39 
					432.45,280.27 431.37,279.66 432.45,279.05 				"/>
				<polygon id="XMLID_253_" class="st8" points="500.76,384.93 501.35,386.05 502.43,386.66 501.35,387.27 500.76,388.39 
					500.17,387.27 499.09,386.66 500.17,386.05 				"/>
				<polygon id="XMLID_252_" class="st8" points="459.44,234.49 460.03,235.61 461.11,236.23 460.03,236.84 459.44,237.96 
					458.84,236.84 457.76,236.23 458.84,235.61 				"/>
				<polygon id="XMLID_251_" class="st9" points="320.18,315.59 321.25,317.63 323.22,318.74 321.25,319.86 320.18,321.9 
					319.1,319.86 317.14,318.74 319.1,317.63 				"/>
				<polygon id="XMLID_250_" class="st10" points="205.92,427.29 207.39,430.08 210.08,431.6 207.39,433.13 205.92,435.92 
					204.45,433.13 201.76,431.6 204.45,430.08 				"/>
				<polygon id="XMLID_249_" class="st10" points="438.94,428.6 439.46,429.59 440.41,430.13 439.46,430.67 438.94,431.65 
					438.42,430.67 437.47,430.13 438.42,429.59 				"/>
				<polygon id="XMLID_248_" class="st10" points="465.98,320.37 466.5,321.36 467.45,321.9 466.5,322.44 465.98,323.42 
					465.46,322.44 464.51,321.9 465.46,321.36 				"/>
				<polygon id="XMLID_247_" class="st11" points="101.11,322.87 102.05,324.64 103.76,325.61 102.05,326.58 101.11,328.36 
					100.18,326.58 98.46,325.61 100.18,324.64 				"/>
				<polygon id="XMLID_246_" class="st11" points="380.36,432.72 381.03,433.98 382.25,434.68 381.03,435.37 380.36,436.64 
					379.69,435.37 378.47,434.68 379.69,433.98 				"/>
				<polygon id="XMLID_245_" class="st11" points="411.66,471.55 412.32,472.82 413.55,473.51 412.32,474.21 411.66,475.48 
					410.99,474.21 409.76,473.51 410.99,472.82 				"/>
				<polygon id="XMLID_208_" class="st11" points="407.87,329.05 408.54,330.32 409.76,331.01 408.54,331.7 407.87,332.97 
					407.2,331.7 405.98,331.01 407.2,330.32 				"/>
				<polygon id="XMLID_207_" class="st11" points="304.62,358.52 305.29,359.79 306.52,360.48 305.29,361.18 304.62,362.44 
					303.96,361.18 302.73,360.48 303.96,359.79 				"/>
				<polygon id="XMLID_206_" class="st11" points="575.16,375.67 575.83,376.94 577.05,377.64 575.83,378.33 575.16,379.6 
					574.49,378.33 573.26,377.64 574.49,376.94 				"/>
				<g id="XMLID_203_" class="st12">
					
						<linearGradient id="XMLID_24_" gradientUnits="userSpaceOnUse" x1="41.4784" y1="507.3534" x2="63.7309" y2="507.3534" gradientTransform="matrix(0.9394 -0.3429 0.3429 0.9394 -138.0777 -189.3824)">
						<stop  offset="5.376340e-03" style="stop-color:#FEA7AF"/>
						<stop  offset="0.9731" style="stop-color:#EA47AC"/>
					</linearGradient>
					<path id="XMLID_205_" class="st13" d="M96.02,272.12c-1.56,6.13-7.63,9.79-13.54,8.17s-9.44-7.91-7.88-14.04
						c1.56-6.13,7.63-9.79,13.54-8.17C94.06,259.7,97.58,265.99,96.02,272.12z"/>
					
						<linearGradient id="XMLID_26_" gradientUnits="userSpaceOnUse" x1="26.758" y1="241.7936" x2="74.4786" y2="241.7936" gradientTransform="matrix(0.9668 0.2556 -0.2556 0.9668 97.9016 23.5307)">
						<stop  offset="5.376340e-03" style="stop-color:#FEA7AF"/>
						<stop  offset="0.9731" style="stop-color:#EA47AC"/>
					</linearGradient>
					<path id="XMLID_204_" class="st14" d="M96.83,268.96c0,0,1.13,0.34,3.06,1.08c0.96,0.37,2.13,0.85,3.44,1.47
						c1.3,0.65,2.8,1.33,4.18,2.68c0.31,0.37,0.72,0.79,0.72,1.55c-0.02,0.11,0.01,0.14-0.05,0.32l-0.06,0.17
						c-0.08,0.16-0.24,0.38-0.35,0.45c-0.24,0.23-0.49,0.34-0.75,0.45c-1.01,0.39-2.02,0.47-3.05,0.53
						c-2.07,0.08-4.22-0.06-6.42-0.35c-4.41-0.57-9.03-1.55-13.61-2.77c-4.55-1.28-9.04-2.8-13.14-4.56
						c-2.05-0.88-3.99-1.85-5.75-2.99c-0.87-0.59-1.71-1.17-2.4-2.03c-0.16-0.23-0.33-0.46-0.43-0.78
						c-0.11-0.29-0.15-0.73,0.05-1.06c0.04-0.16,0.47-0.62,0.66-0.67c0.24-0.16,0.48-0.21,0.71-0.31c1.85-0.46,3.47-0.28,4.91-0.18
						c1.44,0.13,2.67,0.31,3.69,0.49c2.03,0.35,3.17,0.63,3.17,0.63s-1.17-0.14-3.21-0.33c-1.02-0.09-2.26-0.18-3.68-0.21
						c-1.4,0-3.06-0.02-4.63,0.44c-0.17,0.08-0.38,0.14-0.51,0.25c-0.08,0.05-0.15,0.1-0.16,0.12c-0.01,0.01-0.03,0.02-0.06,0.03
						c-0.02,0.03-0.05,0.1-0.07,0.15c-0.11,0.13,0.05,0.47,0.31,0.79c0.56,0.64,1.38,1.18,2.22,1.69c1.71,1,3.66,1.85,5.67,2.71
						c4.05,1.67,8.52,3.1,13.04,4.31c4.49,1.27,9.07,2.31,13.38,2.93c2.16,0.29,4.25,0.55,6.22,0.56c1.81,0,4.48-0.3,2.95-1.74
						c-1.15-1.2-2.6-2.04-3.82-2.76c-1.24-0.71-2.37-1.27-3.3-1.71C97.91,269.43,96.83,268.96,96.83,268.96z"/>
				</g>
				<g id="XMLID_200_" class="st15">
					
						<linearGradient id="XMLID_29_" gradientUnits="userSpaceOnUse" x1="-1002.8599" y1="763.3616" x2="-930.6782" y2="763.3616" gradientTransform="matrix(-0.7476 -0.6641 0.6641 -0.7476 -1069.6409 286.9396)">
						<stop  offset="5.376340e-03" style="stop-color:#FEA7AF"/>
						<stop  offset="0.9946" style="stop-color:#EA47AC;stop-opacity:0"/>
					</linearGradient>
					<path id="XMLID_202_" class="st16" d="M135.78,334.15l50.41,47.99c0.28,0.27,0.3,0.72,0.05,1.02l0,0
						c-0.25,0.3-0.69,0.33-0.98,0.07l-51.97-46.17c-0.8-0.71-0.88-1.96-0.18-2.77l0,0C133.8,333.47,135.01,333.41,135.78,334.15z"/>
					
						<linearGradient id="XMLID_32_" gradientUnits="userSpaceOnUse" x1="-1001.9304" y1="762.8881" x2="-957.6973" y2="762.8881" gradientTransform="matrix(-0.7476 -0.6641 0.6641 -0.7476 -1069.6409 286.9396)">
						<stop  offset="5.376340e-03" style="stop-color:#FEA7AF"/>
						<stop  offset="0.9946" style="stop-color:#EA47AC;stop-opacity:0"/>
					</linearGradient>
					<path id="XMLID_201_" class="st17" d="M154.62,352.51l30.89,29.41c0.17,0.16,0.19,0.44,0.03,0.62l0,0
						c-0.16,0.18-0.42,0.2-0.6,0.04l-31.85-28.29c-0.49-0.43-0.54-1.2-0.11-1.7l0,0C153.41,352.1,154.15,352.06,154.62,352.51z"/>
				</g>
				<g id="XMLID_197_" class="st18">
					
						<linearGradient id="XMLID_33_" gradientUnits="userSpaceOnUse" x1="-1130.5374" y1="984.8843" x2="-1095.8813" y2="984.8843" gradientTransform="matrix(-0.7476 -0.6641 0.6641 -0.7476 -1069.6409 286.9396)">
						<stop  offset="5.376340e-03" style="stop-color:#FEA7AF"/>
						<stop  offset="0.9946" style="stop-color:#EA47AC;stop-opacity:0"/>
					</linearGradient>
					<path id="XMLID_199_" class="st19" d="M405,278.33l24.2,23.04c0.14,0.13,0.15,0.35,0.02,0.49l0,0
						c-0.12,0.14-0.33,0.16-0.47,0.03l-24.95-22.17c-0.38-0.34-0.42-0.94-0.09-1.33l0,0C404.05,278.01,404.63,277.98,405,278.33z"/>
					
						<linearGradient id="XMLID_34_" gradientUnits="userSpaceOnUse" x1="-1130.0911" y1="984.657" x2="-1108.8539" y2="984.657" gradientTransform="matrix(-0.7476 -0.6641 0.6641 -0.7476 -1069.6409 286.9396)">
						<stop  offset="5.376340e-03" style="stop-color:#FEA7AF"/>
						<stop  offset="0.9946" style="stop-color:#EA47AC;stop-opacity:0"/>
					</linearGradient>
					<path id="XMLID_198_" class="st20" d="M414.04,287.15l14.83,14.12c0.08,0.08,0.09,0.21,0.01,0.3l0,0
						c-0.07,0.09-0.2,0.1-0.29,0.02l-15.29-13.58c-0.23-0.21-0.26-0.58-0.05-0.82l0,0C413.46,286.95,413.82,286.93,414.04,287.15z"
						/>
				</g>
				<g id="XMLID_190_" class="st21">
					<g id="XMLID_194_">
						
							<linearGradient id="XMLID_35_" gradientUnits="userSpaceOnUse" x1="-937.8365" y1="708.4225" x2="-841.998" y2="708.4225" gradientTransform="matrix(-0.7476 -0.6641 0.6641 -0.7476 -1069.6409 286.9396)">
							<stop  offset="5.376340e-03" style="stop-color:#FEA7AF"/>
							<stop  offset="0.9946" style="stop-color:#EA47AC;stop-opacity:0"/>
						</linearGradient>
						<path id="XMLID_196_" class="st22" d="M33.88,316.27L100.81,380c0.37,0.36,0.4,0.96,0.07,1.35l0,0
							c-0.34,0.39-0.91,0.43-1.3,0.09l-69-61.3c-1.06-0.94-1.17-2.6-0.24-3.68l0,0C31.26,315.38,32.85,315.3,33.88,316.27z"/>
						
							<linearGradient id="XMLID_36_" gradientUnits="userSpaceOnUse" x1="-936.6024" y1="707.794" x2="-877.8724" y2="707.794" gradientTransform="matrix(-0.7476 -0.6641 0.6641 -0.7476 -1069.6409 286.9396)">
							<stop  offset="5.376340e-03" style="stop-color:#FEA7AF"/>
							<stop  offset="0.9946" style="stop-color:#EA47AC;stop-opacity:0"/>
						</linearGradient>
						<path id="XMLID_195_" class="st23" d="M58.9,340.65l41.02,39.05c0.23,0.22,0.25,0.59,0.04,0.83l0,0
							c-0.21,0.24-0.56,0.27-0.8,0.06l-42.29-37.56c-0.65-0.58-0.72-1.59-0.15-2.25l0,0C57.29,340.11,58.27,340.05,58.9,340.65z"/>
					</g>
					<g id="XMLID_191_">
						
							<linearGradient id="XMLID_37_" gradientUnits="userSpaceOnUse" x1="-874.8323" y1="689.4513" x2="-830.8596" y2="689.4513" gradientTransform="matrix(-0.7476 -0.6641 0.6641 -0.7476 -1069.6409 286.9396)">
							<stop  offset="5.376340e-03" style="stop-color:#FEA7AF"/>
							<stop  offset="0.9946" style="stop-color:#EA47AC;stop-opacity:0"/>
						</linearGradient>
						<path id="XMLID_193_" class="st24" d="M11.02,323.18l30.71,29.24c0.17,0.16,0.18,0.44,0.03,0.62l0,0
							c-0.15,0.18-0.42,0.2-0.6,0.04L9.5,324.95c-0.49-0.43-0.54-1.19-0.11-1.69l0,0C9.81,322.77,10.55,322.73,11.02,323.18z"/>
						
							<linearGradient id="XMLID_38_" gradientUnits="userSpaceOnUse" x1="-874.2661" y1="689.1628" x2="-847.3195" y2="689.1628" gradientTransform="matrix(-0.7476 -0.6641 0.6641 -0.7476 -1069.6409 286.9396)">
							<stop  offset="5.376340e-03" style="stop-color:#FEA7AF"/>
							<stop  offset="0.9946" style="stop-color:#EA47AC;stop-opacity:0"/>
						</linearGradient>
						<path id="XMLID_192_" class="st25" d="M22.49,334.36l18.82,17.92c0.11,0.1,0.11,0.27,0.02,0.38l0,0
							c-0.09,0.11-0.26,0.12-0.37,0.03l-19.4-17.24c-0.3-0.26-0.33-0.73-0.07-1.03l0,0C21.76,334.11,22.21,334.09,22.49,334.36z"/>
					</g>
				</g>
				<g id="XMLID_167_" class="st15">
					
						<linearGradient id="XMLID_39_" gradientUnits="userSpaceOnUse" x1="-1247.7377" y1="1017.7505" x2="-1203.7648" y2="1017.7505" gradientTransform="matrix(-0.7476 -0.6641 0.6641 -0.7476 -1069.6409 286.9396)">
						<stop  offset="5.376340e-03" style="stop-color:#FEA7AF"/>
						<stop  offset="0.9946" style="stop-color:#EA47AC;stop-opacity:0"/>
					</linearGradient>
					<path id="XMLID_189_" class="st26" d="M507.82,325.39l30.71,29.24c0.17,0.16,0.18,0.44,0.03,0.62l0,0
						c-0.15,0.18-0.42,0.2-0.6,0.04l-31.66-28.13c-0.49-0.43-0.54-1.19-0.11-1.69l0,0C506.62,324.98,507.35,324.94,507.82,325.39z"
						/>
					
						<linearGradient id="XMLID_40_" gradientUnits="userSpaceOnUse" x1="-1247.1714" y1="1017.462" x2="-1220.2249" y2="1017.462" gradientTransform="matrix(-0.7476 -0.6641 0.6641 -0.7476 -1069.6409 286.9396)">
						<stop  offset="5.376340e-03" style="stop-color:#FEA7AF"/>
						<stop  offset="0.9946" style="stop-color:#EA47AC;stop-opacity:0"/>
					</linearGradient>
					<path id="XMLID_188_" class="st27" d="M519.3,336.57l18.82,17.92c0.11,0.1,0.11,0.27,0.02,0.38l0,0
						c-0.09,0.11-0.26,0.12-0.37,0.03l-19.4-17.24c-0.3-0.26-0.33-0.73-0.07-1.03l0,0C518.56,336.32,519.01,336.3,519.3,336.57z"/>
				</g>
				<g id="XMLID_159_" class="st15">
					<g id="XMLID_162_">
						<linearGradient id="XMLID_41_" gradientUnits="userSpaceOnUse" x1="137.4114" y1="235.1546" x2="220.9162" y2="235.1546">
							<stop  offset="5.376340e-03" style="stop-color:#FEA7AF"/>
							<stop  offset="0.9731" style="stop-color:#EA47AC"/>
						</linearGradient>
						<path id="XMLID_165_" class="st28" d="M220.92,235.15c0,4.16-0.56,8.16-1.6,11.96c-5.01,18.09-21.09,31.33-40.15,31.33
							c-21.3,0-38.89-16.56-41.43-37.93c-0.21-1.76-0.32-3.55-0.32-5.36c0-7.04,1.62-13.68,4.5-19.55
							c6.88-14.08,20.98-23.74,37.25-23.74c17.03,0,31.68,10.56,38.17,25.72C219.63,222.94,220.92,228.89,220.92,235.15z"/>
						<linearGradient id="XMLID_42_" gradientUnits="userSpaceOnUse" x1="141.9154" y1="206.5963" x2="217.3343" y2="206.5963">
							<stop  offset="5.376340e-03" style="stop-color:#FEA7AF"/>
							<stop  offset="0.0453" style="stop-color:#FDA1AF"/>
							<stop  offset="0.3245" style="stop-color:#F57AAE"/>
							<stop  offset="0.5813" style="stop-color:#EF5EAD"/>
							<stop  offset="0.8058" style="stop-color:#EB4DAC"/>
							<stop  offset="0.9731" style="stop-color:#EA47AC"/>
						</linearGradient>
						<path id="XMLID_164_" class="st29" d="M217.33,217.58c-20.18-10.74-27.1-6.24-48.66,1.73c-12.32,4.56-21.32,0.55-26.76-3.71
							c6.88-14.08,20.98-23.74,37.25-23.74C196.19,191.86,210.84,202.42,217.33,217.58z"/>
						<linearGradient id="XMLID_43_" gradientUnits="userSpaceOnUse" x1="137.7321" y1="259.4837" x2="219.3124" y2="259.4837">
							<stop  offset="5.376340e-03" style="stop-color:#FEA7AF"/>
							<stop  offset="0.126" style="stop-color:#FA93AE"/>
							<stop  offset="0.3615" style="stop-color:#F372AD"/>
							<stop  offset="0.5869" style="stop-color:#EE5AAD"/>
							<stop  offset="0.7962" style="stop-color:#EB4CAC"/>
							<stop  offset="0.9731" style="stop-color:#EA47AC"/>
						</linearGradient>
						<path id="XMLID_163_" class="st30" d="M219.31,247.11c-5.01,18.09-21.09,31.33-40.15,31.33c-21.3,0-38.89-16.56-41.43-37.93
							c5.64,5.35,14.74,11.11,27.6,10.32C187.28,249.5,204.14,233.42,219.31,247.11z"/>
					</g>
				</g>
				<g id="XMLID_152_" class="st15">
					<g id="XMLID_153_">
						
							<linearGradient id="XMLID_44_" gradientUnits="userSpaceOnUse" x1="578.3654" y1="178.0724" x2="660.9152" y2="178.0724" gradientTransform="matrix(0.9473 0.3203 -0.3203 0.9473 110.0743 83.2074)">
							<stop  offset="5.376340e-03" style="stop-color:#DE3DBF"/>
							<stop  offset="1" style="stop-color:#67219E"/>
						</linearGradient>
						<path id="XMLID_157_" class="st31" d="M678.97,464.02c-1.26,3.88-3.01,7.43-5.13,10.63c-10.18,15.23-29.21,22.33-46.99,16.1
							c-19.87-6.97-31.24-28.17-27.11-48.94c0.34-1.71,0.78-3.41,1.33-5.11c2.14-6.57,5.67-12.23,10.15-16.77
							c10.7-10.88,26.8-15.28,41.97-9.96c15.88,5.57,26.34,20.21,27.78,36.48C681.49,452.21,680.88,458.18,678.97,464.02z"/>
						
							<linearGradient id="XMLID_45_" gradientUnits="userSpaceOnUse" x1="582.6124" y1="149.9348" x2="657.1852" y2="149.9348" gradientTransform="matrix(0.9473 0.3203 -0.3203 0.9473 110.0743 83.2074)">
							<stop  offset="5.376340e-03" style="stop-color:#DE3DBF"/>
							<stop  offset="0.1175" style="stop-color:#CA38BA"/>
							<stop  offset="0.3936" style="stop-color:#A02EAE"/>
							<stop  offset="0.6424" style="stop-color:#8127A5"/>
							<stop  offset="0.853" style="stop-color:#6E23A0"/>
							<stop  offset="1" style="stop-color:#67219E"/>
						</linearGradient>
						<path id="XMLID_155_" class="st32" d="M680.98,446.46c-15.56-16.62-23.39-14.68-45.92-14.3
							c-12.88,0.22-20.05-6.46-23.83-12.22c10.7-10.88,26.8-15.28,41.97-9.96C669.08,415.55,679.53,430.19,680.98,446.46z"/>
						
							<linearGradient id="XMLID_46_" gradientUnits="userSpaceOnUse" x1="578.7421" y1="201.7155" x2="659.4543" y2="201.7155" gradientTransform="matrix(0.9473 0.3203 -0.3203 0.9473 110.0743 83.2074)">
							<stop  offset="5.376340e-03" style="stop-color:#DE3DBF"/>
							<stop  offset="0.1162" style="stop-color:#C337B8"/>
							<stop  offset="0.2799" style="stop-color:#A22FAE"/>
							<stop  offset="0.4483" style="stop-color:#8829A7"/>
							<stop  offset="0.6212" style="stop-color:#7624A2"/>
							<stop  offset="0.8012" style="stop-color:#6B229F"/>
							<stop  offset="1" style="stop-color:#67219E"/>
						</linearGradient>
						<path id="XMLID_154_" class="st33" d="M673.84,474.66c-10.18,15.23-29.21,22.33-46.99,16.1
							c-19.87-6.97-31.24-28.17-27.11-48.94c3.63,6.84,10.37,15.19,22.61,18.66C643.23,466.4,663.85,456.92,673.84,474.66z"/>
					</g>
				</g>
			</g>
			<g id="XMLID_7_">
				<g id="XMLID_8_">
					<g id="XMLID_120_">
						
							<linearGradient id="XMLID_47_" gradientUnits="userSpaceOnUse" x1="240.9235" y1="-265.588" x2="261.6837" y2="-265.588" gradientTransform="matrix(0.8147 0.5799 -0.5799 0.8147 171.3214 231.4729)">
							<stop  offset="5.376340e-03" style="stop-color:#A02CC2"/>
							<stop  offset="0.0148" style="stop-color:#9F2CC1"/>
							<stop  offset="0.3274" style="stop-color:#7222A6"/>
							<stop  offset="0.607" style="stop-color:#521B92"/>
							<stop  offset="0.8407" style="stop-color:#3E1786"/>
							<stop  offset="1" style="stop-color:#371582"/>
						</linearGradient>
						<path id="XMLID_140_" class="st34" d="M564.66,126.17l-76.44,111.36l-14.84-10.96l76.44-111.36
							c5.49-8,12.11-15.09,19.64-21.05l6.32-5c0.17-0.13,0.34-0.24,0.52-0.32c1.99-0.96,4.33,1.01,3.59,3.36l-2.48,7.83
							C574.45,109.36,570.16,118.17,564.66,126.17z"/>
						<path id="XMLID_138_" class="st35" d="M560.95,123.43l-76.44,111.36l-11.13-8.22l76.44-111.36c5.49-8,12.11-15.09,19.64-21.05
							l6.32-5c0.17-0.13,0.34-0.24,0.52-0.32c-0.01,0.2-0.06,0.41-0.12,0.62l-2.48,7.83C570.74,106.62,566.45,115.43,560.95,123.43z
							"/>
						
							<linearGradient id="XMLID_48_" gradientUnits="userSpaceOnUse" x1="241.8854" y1="-265.0545" x2="258.0339" y2="-265.0545" gradientTransform="matrix(0.8147 0.5799 -0.5799 0.8147 171.3214 231.4729)">
							<stop  offset="5.376340e-03" style="stop-color:#A02CC2"/>
							<stop  offset="0.0148" style="stop-color:#9F2CC1"/>
							<stop  offset="0.3274" style="stop-color:#7222A6"/>
							<stop  offset="0.607" style="stop-color:#521B92"/>
							<stop  offset="0.8407" style="stop-color:#3E1786"/>
							<stop  offset="1" style="stop-color:#371582"/>
						</linearGradient>
						<path id="XMLID_130_" class="st36" d="M561.78,123.93l-76.44,111.36l-11.13-8.22l76.44-111.36c5.49-8,12.11-15.09,19.64-21.05
							l6.32-5c0.17-0.13,0.34-0.24,0.52-0.32c-0.01,0.2-0.06,0.41-0.12,0.62l-2.48,7.83C571.57,107.12,567.27,115.93,561.78,123.93z
							"/>
						
							<radialGradient id="XMLID_49_" cx="221.2021" cy="-173.7445" r="28.7293" gradientTransform="matrix(1.0513 0.776 -0.7483 1.0902 113.3418 224.7082)" gradientUnits="userSpaceOnUse">
							<stop  offset="5.376340e-03" style="stop-color:#A02CC2"/>
							<stop  offset="1" style="stop-color:#371582"/>
						</radialGradient>
						<polygon id="XMLID_129_" class="st37" points="487.31,249.04 463.19,231.23 479.2,218.09 494.04,229.05 						"/>
						<polygon id="XMLID_128_" class="st38" points="481.43,244.7 463.19,231.23 479.2,218.09 488.17,224.71 						"/>
						
							<radialGradient id="XMLID_50_" cx="221.6846" cy="-173.8851" r="25.5837" gradientTransform="matrix(1.0513 0.776 -0.7483 1.0902 113.3418 224.7082)" gradientUnits="userSpaceOnUse">
							<stop  offset="5.376340e-03" style="stop-color:#A02CC2"/>
							<stop  offset="1" style="stop-color:#371582"/>
						</radialGradient>
						<polygon id="XMLID_123_" class="st39" points="482.7,245.47 463.19,231.23 480.47,218.86 489.44,225.48 						"/>
						
							<radialGradient id="XMLID_51_" cx="225.1918" cy="-153.5651" r="15.6174" gradientTransform="matrix(1.0513 0.776 -0.7483 1.0902 113.3418 224.7082)" gradientUnits="userSpaceOnUse">
							<stop  offset="5.376340e-03" style="stop-color:#A02CC2"/>
							<stop  offset="1" style="stop-color:#371582"/>
						</radialGradient>
						<polygon id="XMLID_122_" class="st40" points="482.68,247.18 465.88,234.78 466.59,233.74 483.39,246.15 						"/>
						
							<radialGradient id="XMLID_52_" cx="13.8279" cy="-541.8405" r="15.6179" gradientTransform="matrix(0.9288 0.6855 -0.3355 0.4887 283.3778 471.5894)" gradientUnits="userSpaceOnUse">
							<stop  offset="0" style="stop-color:#371582"/>
							<stop  offset="0.9946" style="stop-color:#A02CC2"/>
						</radialGradient>
						<polygon id="XMLID_121_" class="st41" points="494.04,229.05 479.2,218.09 479.52,217.63 494.36,228.58 						"/>
					</g>
					<g id="XMLID_97_">
						
							<linearGradient id="XMLID_53_" gradientUnits="userSpaceOnUse" x1="308.2134" y1="-263.1626" x2="328.9736" y2="-263.1626" gradientTransform="matrix(0.8147 0.5799 -0.5799 0.8147 171.3214 231.4729)">
							<stop  offset="5.376340e-03" style="stop-color:#A02CC2"/>
							<stop  offset="0.0148" style="stop-color:#9F2CC1"/>
							<stop  offset="0.3274" style="stop-color:#7222A6"/>
							<stop  offset="0.607" style="stop-color:#521B92"/>
							<stop  offset="0.8407" style="stop-color:#3E1786"/>
							<stop  offset="1" style="stop-color:#371582"/>
						</linearGradient>
						<path id="XMLID_119_" class="st42" d="M618.08,167.16l-76.44,111.36l-14.84-10.96l76.44-111.36
							c5.49-8,12.11-15.09,19.64-21.05l6.32-5c0.17-0.13,0.34-0.24,0.52-0.32c1.99-0.96,4.33,1.01,3.59,3.36l-2.48,7.83
							C627.87,150.35,623.57,159.16,618.08,167.16z"/>
						<path id="XMLID_118_" class="st43" d="M614.37,164.43l-76.44,111.36l-11.13-8.22l76.44-111.36c5.49-8,12.11-15.09,19.64-21.05
							l6.32-5c0.17-0.13,0.34-0.24,0.52-0.32c-0.01,0.2-0.06,0.41-0.13,0.62l-2.48,7.83C624.16,147.61,619.86,156.43,614.37,164.43z
							"/>
						
							<linearGradient id="XMLID_54_" gradientUnits="userSpaceOnUse" x1="308.7161" y1="-262.4622" x2="324.8646" y2="-262.4622" gradientTransform="matrix(0.8147 0.5799 -0.5799 0.8147 171.3214 231.4729)">
							<stop  offset="5.376340e-03" style="stop-color:#A02CC2"/>
							<stop  offset="0.0148" style="stop-color:#9F2CC1"/>
							<stop  offset="0.3274" style="stop-color:#7222A6"/>
							<stop  offset="0.607" style="stop-color:#521B92"/>
							<stop  offset="0.8407" style="stop-color:#3E1786"/>
							<stop  offset="1" style="stop-color:#371582"/>
						</linearGradient>
						<path id="XMLID_103_" class="st44" d="M614.72,164.79l-76.44,111.36l-11.13-8.22l76.44-111.36c5.49-8,12.11-15.09,19.64-21.05
							l6.32-5c0.17-0.13,0.34-0.24,0.52-0.32c-0.01,0.2-0.06,0.41-0.13,0.62l-2.48,7.83C624.51,147.98,620.21,156.79,614.72,164.79z
							"/>
						
							<radialGradient id="XMLID_55_" cx="272.6895" cy="-172.787" r="28.7292" gradientTransform="matrix(1.0513 0.776 -0.7483 1.0902 113.3418 224.7082)" gradientUnits="userSpaceOnUse">
							<stop  offset="5.376340e-03" style="stop-color:#A02CC2"/>
							<stop  offset="1" style="stop-color:#371582"/>
						</radialGradient>
						<polygon id="XMLID_102_" class="st45" points="540.72,290.04 516.6,272.23 532.61,259.09 547.46,270.04 						"/>
						<polygon id="XMLID_101_" class="st38" points="534.85,285.7 516.6,272.23 532.61,259.09 541.58,265.71 						"/>
						
							<radialGradient id="XMLID_56_" cx="274.157" cy="-172.7601" r="24.7271" gradientTransform="matrix(1.0513 0.776 -0.7483 1.0902 113.3418 224.7082)" gradientUnits="userSpaceOnUse">
							<stop  offset="5.376340e-03" style="stop-color:#A02CC2"/>
							<stop  offset="1" style="stop-color:#371582"/>
						</radialGradient>
						<polygon id="XMLID_100_" class="st46" points="535.73,286.4 517.49,272.93 533.5,259.78 542.47,266.4 						"/>
						
							<radialGradient id="XMLID_57_" cx="276.6792" cy="-152.6076" r="15.6173" gradientTransform="matrix(1.0513 0.776 -0.7483 1.0902 113.3418 224.7082)" gradientUnits="userSpaceOnUse">
							<stop  offset="5.376340e-03" style="stop-color:#A02CC2"/>
							<stop  offset="1" style="stop-color:#371582"/>
						</radialGradient>
						<polygon id="XMLID_99_" class="st47" points="536.1,288.18 519.29,275.78 520,274.74 536.81,287.14 						"/>
						
							<radialGradient id="XMLID_58_" cx="72.1109" cy="-539.7068" r="15.6179" gradientTransform="matrix(0.9288 0.6855 -0.3355 0.4887 283.3778 471.5894)" gradientUnits="userSpaceOnUse">
							<stop  offset="0" style="stop-color:#371582"/>
							<stop  offset="0.9946" style="stop-color:#A02CC2"/>
						</radialGradient>
						<polygon id="XMLID_98_" class="st48" points="547.46,270.04 532.61,259.09 532.93,258.62 547.78,269.58 						"/>
					</g>
					<g id="XMLID_95_">
						
							<linearGradient id="XMLID_59_" gradientUnits="userSpaceOnUse" x1="255.2731" y1="-288.8677" x2="313.3971" y2="-288.8677" gradientTransform="matrix(0.8147 0.5799 -0.5799 0.8147 171.3214 231.4729)">
							<stop  offset="5.376340e-03" style="stop-color:#A02CC2"/>
							<stop  offset="1" style="stop-color:#371582"/>
						</linearGradient>
						<path id="XMLID_96_" class="st49" d="M624.71,129.63L522.05,279.19l-44.28-32.68L580.43,96.95
							c11.12-16.2,26.55-28.68,44.42-35.91l9.12-3.69l0.03-0.02c4.56-1.85,9.45,1.76,9.26,6.83l-0.38,10.18
							C642.15,94.21,635.83,113.43,624.71,129.63z"/>
						<path id="XMLID_105_" class="st38" d="M615.42,122.77L512.76,272.33l-34.99-25.83L580.43,96.95
							c11.12-16.2,26.55-28.68,44.42-35.91l9.12-3.69l-0.38,10.14C632.86,87.36,626.54,106.57,615.42,122.77z"/>
						
							<linearGradient id="XMLID_60_" gradientUnits="userSpaceOnUse" x1="255.7209" y1="-287.5862" x2="302.3049" y2="-287.5862" gradientTransform="matrix(0.8147 0.5799 -0.5799 0.8147 171.3214 231.4729)">
							<stop  offset="5.376340e-03" style="stop-color:#A02CC2"/>
							<stop  offset="1" style="stop-color:#371582"/>
						</linearGradient>
						<path id="XMLID_104_" class="st50" d="M615.88,122.91L513.22,272.46l-34.99-25.83L580.89,97.08
							c11.12-16.2,26.55-28.68,44.42-35.91l9.12-3.69l-0.38,10.14C633.32,87.49,627,106.7,615.88,122.91z"/>
					</g>
					<g id="XMLID_92_">
						<defs>
							<path id="XMLID_93_" d="M642.88,74.34l0.38-10.18c0.19-5.07-4.7-8.68-9.26-6.83l-0.03,0.02l-9.12,3.69
								c-17.87,7.23-33.3,19.71-44.42,35.91l-3.9,5.68c0.3-0.86,0.6-1.72,0.88-2.6l2.48-7.83c0.74-2.35-1.6-4.31-3.59-3.36
								c-0.18,0.08-0.35,0.19-0.52,0.32l-6.32,5c-7.53,5.95-14.15,13.05-19.64,21.05L479.2,218.09l-16.01,13.14l9.37,6.92
								l-5.97-4.41l-0.71,1.03l13.24,9.77l-1.34,1.96l44.28,32.68l0.63-0.91l13.42,9.91l0.71-1.03l-1.06-0.78l0,0l4.98,3.67
								l6.73-19.99l70.62-102.88c5.49-8,9.79-16.81,12.75-26.14l2.48-7.83c0.74-2.35-1.6-4.31-3.59-3.36
								c-0.18,0.08-0.35,0.19-0.52,0.32l-6.32,5c-1.62,1.28-3.18,2.62-4.71,4l6.54-9.53C635.83,113.43,642.15,94.21,642.88,74.34z"
								/>
						</defs>
						<clipPath id="XMLID_61_">
							<use xlink:href="#XMLID_93_"  style="overflow:visible;"/>
						</clipPath>
						<linearGradient id="XMLID_62_" gradientUnits="userSpaceOnUse" x1="535.6467" y1="146.2039" x2="567.7095" y2="216.6026">
							<stop  offset="5.376340e-03" style="stop-color:#DE3DBF"/>
							<stop  offset="1" style="stop-color:#67219E"/>
						</linearGradient>
						<path id="XMLID_94_" class="st51" d="M621.35,104.56c-0.21-0.15-0.43-0.29-0.65-0.42c-0.07-0.04-0.14-0.07-0.22-0.11
							c-0.16-0.08-0.32-0.16-0.48-0.23c-0.09-0.04-0.18-0.07-0.26-0.1c-0.15-0.06-0.31-0.11-0.47-0.16
							c-0.1-0.03-0.19-0.05-0.29-0.07c-0.16-0.04-0.31-0.07-0.47-0.09c-0.1-0.02-0.2-0.03-0.31-0.04c-0.16-0.02-0.32-0.02-0.47-0.03
							c-0.11,0-0.22,0-0.32,0c-0.16,0.01-0.31,0.02-0.47,0.04c-0.11,0.01-0.23,0.03-0.34,0.04c-0.15,0.03-0.29,0.06-0.44,0.1
							c-0.13,0.03-0.25,0.06-0.38,0.1c-0.02,0.01-0.05,0.01-0.07,0.02c-0.22,0.07-0.44,0.16-0.67,0.25
							c-3.06,1.38-6.05,2.91-8.96,4.58c-13.47,7.75-25.15,18.55-34.14,31.64l-32.9,47.92l-48.66,12.53l-21.04,27.71l0.68,0.4
							l-1.5,1.98l23.85,14.14l1.17,0.7l-8.55,7.29c-1.46,1.24-1.38,3.58,0.16,4.71l1.79,1.32l-1.35,1.96l13.33,9.84l1.35-1.96
							l4.14,3.05l-5.57,8.49c-0.5,0.76-0.32,1.8,0.4,2.33c0.08,0.06,0.17,0.08,0.26,0.12c0.07,0.08,0.13,0.17,0.22,0.24
							c0.72,0.53,1.73,0.37,2.26-0.37l5.92-8.24l3.32,2.45l-1.35,1.96l13.33,9.84l1.35-1.96l2.15,1.59
							c1.54,1.13,3.69,0.45,4.34-1.39l3.84-10.76l0.81,0.74l20.91,18.92l1.31-2.12l0.09,0.08l18.36-29.68l-4.44-50.89l33.24-48.43
							c5.46-7.96,9.83-16.61,13-25.71c2.07-5.92,3.64-12.03,4.67-18.27c0.56-3.34,0.97-6.71,1.23-10.11
							C624.23,108.01,623.09,105.84,621.35,104.56z"/>
					</g>
					<g id="XMLID_9_">
						<g id="XMLID_30_">
							<polygon id="XMLID_91_" class="st52" points="507.95,250.84 463.16,227.14 485.03,197.06 554.05,179.28 							"/>
							
								<radialGradient id="XMLID_63_" cx="-237.7444" cy="-249.093" r="94.9274" gradientTransform="matrix(0.8054 0.5944 -0.7483 1.0902 534.303 535.124)" gradientUnits="userSpaceOnUse">
								<stop  offset="0" style="stop-color:#67219E"/>
								<stop  offset="0.9946" style="stop-color:#DE3DBF"/>
							</radialGradient>
							<polygon id="XMLID_89_" class="st53" points="508.81,251.89 464.85,225.81 484.2,199.44 554.9,180.33 							"/>
							<polygon id="XMLID_31_" class="st54" points="514.47,255.58 551.23,292.15 570.99,260.43 564.59,186.98 							"/>
						</g>
						<g id="XMLID_21_">
							
								<radialGradient id="XMLID_64_" cx="217.6696" cy="-247.6964" r="89.3953" gradientTransform="matrix(1.0513 0.776 -0.7483 1.0902 113.3418 224.7082)" gradientUnits="userSpaceOnUse">
								<stop  offset="5.376340e-03" style="stop-color:#DE3DBF"/>
								<stop  offset="1" style="stop-color:#67219E"/>
							</radialGradient>
							<polygon id="XMLID_28_" class="st55" points="507.13,253.22 487.01,241.29 463.16,227.14 484.2,199.44 519.89,190.25 
								553.22,181.66 							"/>
							
								<radialGradient id="XMLID_65_" cx="219.6051" cy="-220.4308" r="60.5397" gradientTransform="matrix(1.0513 0.776 -0.7483 1.0902 113.3418 224.7082)" gradientUnits="userSpaceOnUse">
								<stop  offset="5.376340e-03" style="stop-color:#DE3DBF"/>
								<stop  offset="1" style="stop-color:#67219E"/>
							</radialGradient>
							<polygon id="XMLID_27_" class="st56" points="487.01,241.29 463.16,227.14 484.2,199.44 519.89,190.25 							"/>
							
								<radialGradient id="XMLID_66_" cx="262.3821" cy="-247.6966" r="89.3962" gradientTransform="matrix(1.0513 0.776 -0.7483 1.0902 113.3418 224.7082)" gradientUnits="userSpaceOnUse">
								<stop  offset="5.376340e-03" style="stop-color:#DE3DBF"/>
								<stop  offset="1" style="stop-color:#67219E"/>
							</radialGradient>
							<polygon id="XMLID_25_" class="st57" points="551.23,292.15 530.33,273.23 513.07,257.61 563.19,189.02 566.24,224.08 
								569.59,262.46 							"/>
							
								<radialGradient id="XMLID_67_" cx="281.955" cy="-220.7446" r="60.8699" gradientTransform="matrix(1.0513 0.776 -0.7483 1.0902 113.3418 224.7082)" gradientUnits="userSpaceOnUse">
								<stop  offset="5.376340e-03" style="stop-color:#DE3DBF"/>
								<stop  offset="1" style="stop-color:#67219E"/>
							</radialGradient>
							<polygon id="XMLID_23_" class="st58" points="551.23,292.15 530.33,273.23 566.24,224.08 569.59,262.46 							"/>
						</g>
						
							<linearGradient id="XMLID_68_" gradientUnits="userSpaceOnUse" x1="379.1076" y1="-274.7126" x2="307.0658" y2="-270.7997" gradientTransform="matrix(0.8147 0.5799 -0.5799 0.8147 171.3214 231.4729)">
							<stop  offset="5.376340e-03" style="stop-color:#DE3DBF"/>
							<stop  offset="1" style="stop-color:#67219E"/>
						</linearGradient>
						<path id="XMLID_20_" class="st59" d="M599.79,161.11l-73.15,106.57l-33.21-24.51l73.15-106.57
							c8.99-13.09,20.67-23.89,34.14-31.64c2.9-1.67,5.89-3.2,8.96-4.58c0.23-0.1,0.44-0.18,0.67-0.25
							c2.03-0.66,4.08-0.22,5.65,0.94c1.74,1.28,2.88,3.45,2.69,5.96c-0.25,3.4-0.66,6.77-1.23,10.11
							c-1.04,6.23-2.6,12.34-4.67,18.27C609.63,144.5,605.26,153.15,599.79,161.11z"/>
						<path id="XMLID_19_" class="st54" d="M591.44,154.94l-73.15,106.57l-24.85-18.34l73.15-106.57
							c8.99-13.09,20.67-23.89,34.14-31.64c2.9-1.67,5.89-3.2,8.96-4.58c0.23-0.1,0.44-0.18,0.67-0.25c0.01,0.24,0,0.48-0.01,0.74
							c-0.25,3.4-0.66,6.77-1.23,10.11c-1.04,6.23-2.6,12.34-4.67,18.27C601.27,138.33,596.9,146.98,591.44,154.94z"/>
						
							<linearGradient id="XMLID_69_" gradientUnits="userSpaceOnUse" x1="268.0789" y1="-269.247" x2="301.1719" y2="-269.247" gradientTransform="matrix(0.8147 0.5799 -0.5799 0.8147 171.3214 231.4729)">
							<stop  offset="5.376340e-03" style="stop-color:#DE3DBF"/>
							<stop  offset="1" style="stop-color:#67219E"/>
						</linearGradient>
						<path id="XMLID_18_" class="st60" d="M592.37,155.51l-73.15,106.57l-24.85-18.34l73.15-106.57
							c8.99-13.09,20.67-23.89,34.14-31.64c2.9-1.67,5.89-3.2,8.96-4.58c0.23-0.1,0.44-0.18,0.67-0.25c0.01,0.24,0,0.48-0.01,0.74
							c-0.25,3.4-0.66,6.77-1.22,10.11c-1.04,6.23-2.6,12.34-4.67,18.27C602.2,138.9,597.84,147.55,592.37,155.51z"/>
						<path id="XMLID_17_" class="st61" d="M521.33,284.64l-41.53-30.66c-1.54-1.13-1.61-3.47-0.16-4.71l28.93-24.67
							c4.02-3.42,9.75-3.63,13.98-0.5l12.01,8.86c4.24,3.13,5.93,8.81,4.12,13.87l-13.01,36.42
							C525.02,285.08,522.86,285.77,521.33,284.64z"/>
						<linearGradient id="XMLID_70_" gradientUnits="userSpaceOnUse" x1="478.1498" y1="255.2152" x2="537.8445" y2="255.2152">
							<stop  offset="5.376340e-03" style="stop-color:#DE3DBF"/>
							<stop  offset="1" style="stop-color:#67219E"/>
						</linearGradient>
						<path id="XMLID_418_" class="st62" d="M537.14,248.63l-12.76,35.76c-0.64,1.8-2.77,2.48-4.26,1.37l-18.68-13.79l-2.98-2.19
							l-19.13-14.12c-1.5-1.12-1.58-3.41-0.15-4.63l28.4-24.23c3.94-3.35,9.57-3.56,13.73-0.49l3.81,2.81l4.64,3.42l3.34,2.47
							C537.25,238.08,538.92,243.67,537.14,248.63z"/>
						<polygon id="XMLID_16_" class="st63" points="492.17,268.02 478.85,258.18 480.19,256.22 493.52,266.05 						"/>
						<polygon id="XMLID_15_" class="st63" points="516.45,285.93 503.12,276.1 504.47,274.13 517.79,283.97 						"/>
						<g id="XMLID_12_">
							
								<linearGradient id="XMLID_71_" gradientUnits="userSpaceOnUse" x1="275.7873" y1="-328.9006" x2="297.8226" y2="-328.9006" gradientTransform="matrix(0.8147 0.5799 -0.5799 0.8147 171.3214 231.4729)">
								<stop  offset="5.376340e-03" style="stop-color:#DE3DBF"/>
								<stop  offset="1" style="stop-color:#67219E"/>
							</linearGradient>
							<path id="XMLID_13_" class="st64" d="M601.35,138.3c-0.32-0.23-0.55-0.6-0.62-1.03c-1.07-6.6-7.12-11.06-13.49-9.95
								c-0.83,0.15-1.62-0.44-1.76-1.3c-0.14-0.86,0.42-1.68,1.25-1.82c8.02-1.4,15.65,4.23,17,12.55c0.14,0.86-0.42,1.68-1.25,1.82
								C602.07,138.64,601.66,138.53,601.35,138.3z"/>
						</g>
						
							<linearGradient id="XMLID_72_" gradientUnits="userSpaceOnUse" x1="276.297" y1="-356.9443" x2="301.6937" y2="-358.6615" gradientTransform="matrix(0.8147 0.5799 -0.5799 0.8147 171.3214 231.4729)">
							<stop  offset="5.376340e-03" style="stop-color:#DE3DBF"/>
							<stop  offset="1" style="stop-color:#67219E"/>
						</linearGradient>
						<path id="XMLID_11_" class="st65" d="M617.47,117.14c-2.36-6.85-7.72-11-16.74-12.18c2.9-1.67,5.89-3.2,8.96-4.58
							c2.23-1,4.57-0.6,6.32,0.69c1.74,1.28,2.88,3.45,2.69,5.96C618.45,110.43,618.04,113.79,617.47,117.14z"/>
						<path id="XMLID_416_" class="st66" d="M530.94,230.9l-1.19,1.65l-28.32,39.41l-2.98-2.19l26.66-40.65l1.11-1.7
							C528.79,227.38,530.16,228.77,530.94,230.9z"/>
						
							<linearGradient id="XMLID_73_" gradientUnits="userSpaceOnUse" x1="289.8257" y1="-224.0281" x2="287.0374" y2="-144.2822" gradientTransform="matrix(0.8147 0.5799 -0.5799 0.8147 171.3214 231.4729)">
							<stop  offset="5.376340e-03" style="stop-color:#DE3DBF"/>
							<stop  offset="1" style="stop-color:#67219E"/>
						</linearGradient>
						<path id="XMLID_10_" class="st67" d="M525.27,226.49c2.57-0.04,3.94,1.35,4.71,3.48l-34.86,48.54
							c-0.53,0.74-1.53,0.9-2.26,0.37l0,0c-0.72-0.53-0.9-1.57-0.4-2.33L525.27,226.49z"/>
					</g>
				</g>
			</g>
			<g id="XMLID_1_">
				<defs>
					<rect id="XMLID_161_" x="-3.17" width="749.33" height="500"/>
				</defs>
				<clipPath id="XMLID_74_">
					<use xlink:href="#XMLID_161_"  style="overflow:visible;"/>
				</clipPath>
			</g>
		</g>
	</g>
</g>
<g>
	<g>
	</g>
	<g>
	</g>
	<g>
	</g>
	<g>
	</g>
	<g>
	</g>
	<g>
	</g>
	<g>
	</g>
	<g>
	</g>
	<g>
	</g>
	<g>
	</g>
	<g>
	</g>
	<g>
	</g>
	<g>
	</g>
	<g>
	</g>
	<g>
	</g>
</g>
</svg>
