<svg width="1192" height="590" viewBox="0 0 1192 590" fill="none" xmlns="http://www.w3.org/2000/svg">
<rect width="1192" height="590" rx="10" fill="#081120"/>
<path d="M121.34 242.38C122.807 242.38 123.933 242.76 124.72 243.52C125.52 244.267 125.92 245.327 125.92 246.7C125.92 247.5 125.74 248.24 125.38 248.92C125.033 249.6 124.487 250.153 123.74 250.58C122.993 250.993 122.067 251.2 120.96 251.2C117.733 251.2 116.12 249.093 116.12 244.88C116.12 241.96 116.78 239.993 118.1 238.98C119.42 237.953 120.86 237.44 122.42 237.44C123.327 237.44 124.113 237.56 124.78 237.8V239.74C124.073 239.473 123.353 239.34 122.62 239.34C122.033 239.34 121.433 239.473 120.82 239.74C120.207 239.993 119.667 240.447 119.2 241.1C118.747 241.74 118.473 242.587 118.38 243.64C118.713 243.28 119.127 242.98 119.62 242.74C120.127 242.5 120.7 242.38 121.34 242.38ZM121.06 249.28C122.06 249.28 122.747 249 123.12 248.44C123.493 247.88 123.68 247.287 123.68 246.66C123.68 245.847 123.453 245.227 123 244.8C122.56 244.373 121.927 244.16 121.1 244.16C120.46 244.16 119.907 244.28 119.44 244.52C118.973 244.747 118.613 245.04 118.36 245.4C118.427 246.44 118.58 247.247 118.82 247.82C119.06 248.38 119.36 248.767 119.72 248.98C120.093 249.18 120.54 249.28 121.06 249.28ZM133.552 251.24C131.712 251.24 130.338 250.667 129.432 249.52C128.525 248.373 128.072 246.653 128.072 244.36C128.072 239.773 129.898 237.48 133.552 237.48C135.405 237.48 136.785 238.053 137.692 239.2C138.598 240.347 139.052 242.067 139.052 244.36C139.052 246.667 138.598 248.393 137.692 249.54C136.798 250.673 135.418 251.24 133.552 251.24ZM133.552 249.36C134.165 249.36 134.705 249.24 135.172 249C135.652 248.747 136.045 248.253 136.352 247.52C136.672 246.787 136.832 245.733 136.832 244.36C136.832 242.4 136.525 241.08 135.912 240.4C135.312 239.707 134.525 239.36 133.552 239.36C132.592 239.36 131.805 239.707 131.192 240.4C130.592 241.08 130.292 242.4 130.292 244.36C130.292 246.333 130.592 247.66 131.192 248.34C131.792 249.02 132.578 249.36 133.552 249.36ZM148.121 242.7H146.521V240.96H148.141V240.56C148.141 239.013 148.481 237.987 149.161 237.48C149.854 236.973 150.681 236.72 151.641 236.72C152.014 236.72 152.387 236.767 152.761 236.86V238.72C152.601 238.64 152.461 238.58 152.341 238.54C152.221 238.5 152.074 238.48 151.901 238.48C151.567 238.48 151.281 238.52 151.041 238.6C150.814 238.68 150.621 238.86 150.461 239.14C150.314 239.407 150.241 239.82 150.241 240.38V240.96H152.761V242.7H150.221V251H148.121V242.7ZM154.937 241.88C155.31 241.653 155.944 241.407 156.837 241.14C157.73 240.873 158.617 240.74 159.497 240.74C160.03 240.74 160.484 240.827 160.857 241V242.68C160.484 242.627 160.037 242.6 159.517 242.6C158.637 242.6 157.81 242.667 157.037 242.8V251H154.937V241.88ZM167.265 240.74C168.359 240.74 169.285 241.007 170.045 241.54C170.819 242.06 171.199 242.907 171.185 244.08V248.88C171.185 249.787 170.785 250.42 169.985 250.78C169.185 251.127 168.045 251.3 166.565 251.3C165.379 251.3 164.399 251.053 163.625 250.56C162.852 250.067 162.465 249.24 162.465 248.08C162.465 246.987 162.779 246.167 163.405 245.62C164.045 245.073 164.945 244.8 166.105 244.8C167.305 244.8 168.305 245.04 169.105 245.52V244.56C169.105 243.2 168.285 242.52 166.645 242.52C166.059 242.52 165.472 242.613 164.885 242.8C164.299 242.973 163.812 243.22 163.425 243.54V241.58C163.799 241.34 164.339 241.14 165.045 240.98C165.765 240.82 166.505 240.74 167.265 240.74ZM166.805 249.66C167.645 249.66 168.239 249.6 168.585 249.48C168.932 249.36 169.105 249.12 169.105 248.76V246.82C168.425 246.527 167.679 246.38 166.865 246.38C166.105 246.38 165.525 246.513 165.125 246.78C164.739 247.047 164.545 247.447 164.545 247.98C164.545 248.54 164.765 248.96 165.205 249.24C165.659 249.52 166.192 249.66 166.805 249.66ZM185.096 240.74C186.496 240.74 187.516 241.033 188.156 241.62C188.809 242.207 189.136 243.12 189.136 244.36V251H187.036V244.64C187.036 243.24 186.242 242.54 184.656 242.54C183.949 242.54 183.302 242.72 182.716 243.08C182.809 243.44 182.856 243.867 182.856 244.36V251H180.756V244.64C180.756 243.24 179.962 242.54 178.376 242.54C177.656 242.54 176.949 242.667 176.256 242.92V251H174.156V241.78C174.756 241.473 175.482 241.227 176.336 241.04C177.202 240.84 178.029 240.74 178.816 240.74C180.122 240.74 181.096 240.993 181.736 241.5C182.816 240.993 183.936 240.74 185.096 240.74ZM196.245 240.72C197.805 240.72 198.945 241.227 199.665 242.24C200.398 243.24 200.758 244.647 200.745 246.46H193.705C193.772 247.447 194.058 248.2 194.565 248.72C195.085 249.227 195.818 249.48 196.765 249.48C197.378 249.48 197.965 249.407 198.525 249.26C199.085 249.1 199.578 248.9 200.005 248.66V250.62C198.965 251.073 197.772 251.3 196.425 251.3C194.918 251.3 193.732 250.847 192.865 249.94C192.012 249.02 191.585 247.72 191.585 246.04C191.585 244.32 191.992 243.007 192.805 242.1C193.618 241.18 194.765 240.72 196.245 240.72ZM196.185 242.44C195.478 242.44 194.925 242.627 194.525 243C194.125 243.373 193.865 244.007 193.745 244.9H198.605C198.512 244.047 198.272 243.427 197.885 243.04C197.498 242.64 196.932 242.44 196.185 242.44ZM206.06 251.3C205.393 251.3 204.813 251.233 204.32 251.1C203.84 250.967 203.32 250.767 202.76 250.5V248.52C203.36 248.893 203.906 249.173 204.4 249.36C204.893 249.533 205.446 249.62 206.06 249.62C206.633 249.62 207.08 249.507 207.4 249.28C207.733 249.04 207.9 248.733 207.9 248.36C207.9 248 207.766 247.733 207.5 247.56C207.233 247.387 206.82 247.2 206.26 247L205.8 246.84C204.866 246.613 204.12 246.287 203.56 245.86C203.013 245.433 202.74 244.767 202.74 243.86C202.74 243.153 202.926 242.567 203.3 242.1C203.673 241.633 204.14 241.293 204.7 241.08C205.273 240.867 205.873 240.76 206.5 240.76C207.14 240.773 207.68 240.853 208.12 241C208.56 241.133 209.04 241.333 209.56 241.6V243.4C208.866 243.04 208.34 242.793 207.98 242.66C207.633 242.527 207.213 242.46 206.72 242.46C206.173 242.46 205.733 242.56 205.4 242.76C205.066 242.96 204.9 243.24 204.9 243.6C204.9 244.027 205.066 244.34 205.4 244.54C205.733 244.727 206.253 244.92 206.96 245.12C207.626 245.307 208.153 245.487 208.54 245.66C208.94 245.833 209.286 246.12 209.58 246.52C209.886 246.907 210.04 247.44 210.04 248.12C210.026 249.187 209.633 249.987 208.86 250.52C208.1 251.04 207.166 251.3 206.06 251.3ZM222.559 240.72C224.013 240.72 225.179 241.147 226.059 242C226.953 242.853 227.399 244.24 227.399 246.16C227.399 247.733 226.993 248.98 226.179 249.9C225.366 250.82 224.226 251.28 222.759 251.28C222.399 251.28 221.986 251.233 221.519 251.14C221.053 251.047 220.633 250.907 220.259 250.72V255.02H218.179V242.9C218.179 242.14 218.606 241.587 219.459 241.24C220.326 240.893 221.359 240.72 222.559 240.72ZM222.379 249.5C223.326 249.5 224.039 249.213 224.519 248.64C225.013 248.053 225.259 247.213 225.259 246.12C225.259 244.987 225.053 244.107 224.639 243.48C224.239 242.853 223.519 242.54 222.479 242.54C221.813 242.54 221.273 242.613 220.859 242.76C220.459 242.907 220.259 243.107 220.259 243.36V248.92C220.913 249.307 221.619 249.5 222.379 249.5ZM233.979 240.72C235.539 240.72 236.679 241.227 237.399 242.24C238.133 243.24 238.493 244.647 238.479 246.46H231.439C231.506 247.447 231.793 248.2 232.299 248.72C232.819 249.227 233.553 249.48 234.499 249.48C235.113 249.48 235.699 249.407 236.259 249.26C236.819 249.1 237.313 248.9 237.739 248.66V250.62C236.699 251.073 235.506 251.3 234.159 251.3C232.653 251.3 231.466 250.847 230.599 249.94C229.746 249.02 229.319 247.72 229.319 246.04C229.319 244.32 229.726 243.007 230.539 242.1C231.353 241.18 232.499 240.72 233.979 240.72ZM233.919 242.44C233.213 242.44 232.659 242.627 232.259 243C231.859 243.373 231.599 244.007 231.479 244.9H236.339C236.246 244.047 236.006 243.427 235.619 243.04C235.233 242.64 234.666 242.44 233.919 242.44ZM240.894 241.88C241.267 241.653 241.901 241.407 242.794 241.14C243.687 240.873 244.574 240.74 245.454 240.74C245.987 240.74 246.441 240.827 246.814 241V242.68C246.441 242.627 245.994 242.6 245.474 242.6C244.594 242.6 243.767 242.667 242.994 242.8V251H240.894V241.88ZM257.466 251.3C256.799 251.3 256.219 251.233 255.726 251.1C255.246 250.967 254.726 250.767 254.166 250.5V248.52C254.766 248.893 255.313 249.173 255.806 249.36C256.299 249.533 256.853 249.62 257.466 249.62C258.039 249.62 258.486 249.507 258.806 249.28C259.139 249.04 259.306 248.733 259.306 248.36C259.306 248 259.173 247.733 258.906 247.56C258.639 247.387 258.226 247.2 257.666 247L257.206 246.84C256.273 246.613 255.526 246.287 254.966 245.86C254.419 245.433 254.146 244.767 254.146 243.86C254.146 243.153 254.333 242.567 254.706 242.1C255.079 241.633 255.546 241.293 256.106 241.08C256.679 240.867 257.279 240.76 257.906 240.76C258.546 240.773 259.086 240.853 259.526 241C259.966 241.133 260.446 241.333 260.966 241.6V243.4C260.273 243.04 259.746 242.793 259.386 242.66C259.039 242.527 258.619 242.46 258.126 242.46C257.579 242.46 257.139 242.56 256.806 242.76C256.473 242.96 256.306 243.24 256.306 243.6C256.306 244.027 256.473 244.34 256.806 244.54C257.139 244.727 257.659 244.92 258.366 245.12C259.033 245.307 259.559 245.487 259.946 245.66C260.346 245.833 260.693 246.12 260.986 246.52C261.293 246.907 261.446 247.44 261.446 248.12C261.433 249.187 261.039 249.987 260.266 250.52C259.506 251.04 258.573 251.3 257.466 251.3ZM268.042 240.72C269.602 240.72 270.742 241.227 271.462 242.24C272.195 243.24 272.555 244.647 272.542 246.46H265.502C265.569 247.447 265.855 248.2 266.362 248.72C266.882 249.227 267.615 249.48 268.562 249.48C269.175 249.48 269.762 249.407 270.322 249.26C270.882 249.1 271.375 248.9 271.802 248.66V250.62C270.762 251.073 269.569 251.3 268.222 251.3C266.715 251.3 265.529 250.847 264.662 249.94C263.809 249.02 263.382 247.72 263.382 246.04C263.382 244.32 263.789 243.007 264.602 242.1C265.415 241.18 266.562 240.72 268.042 240.72ZM267.982 242.44C267.275 242.44 266.722 242.627 266.322 243C265.922 243.373 265.662 244.007 265.542 244.9H270.402C270.309 244.047 270.069 243.427 269.682 243.04C269.295 242.64 268.729 242.44 267.982 242.44ZM279.377 251.2C277.963 251.2 276.783 250.793 275.837 249.98C274.903 249.167 274.437 247.853 274.437 246.04C274.437 244.173 274.897 242.827 275.817 242C276.75 241.16 277.93 240.74 279.357 240.74C280.437 240.74 281.463 240.94 282.437 241.34V243.22C281.423 242.793 280.497 242.58 279.657 242.58C278.603 242.58 277.817 242.847 277.297 243.38C276.777 243.9 276.517 244.733 276.517 245.88C276.517 247.08 276.77 247.96 277.277 248.52C277.783 249.067 278.597 249.34 279.717 249.34C280.623 249.34 281.537 249.12 282.457 248.68V250.56C281.497 250.987 280.47 251.2 279.377 251.2ZM289.178 251.3C287.578 251.3 286.372 250.847 285.558 249.94C284.758 249.033 284.358 247.713 284.358 245.98C284.358 242.473 285.958 240.72 289.158 240.72C290.772 240.72 291.985 241.173 292.798 242.08C293.612 242.973 294.018 244.273 294.018 245.98C294.018 247.687 293.598 249 292.758 249.92C291.918 250.84 290.725 251.3 289.178 251.3ZM289.158 249.52C290.998 249.52 291.918 248.34 291.918 245.98C291.918 244.807 291.698 243.933 291.258 243.36C290.818 242.773 290.118 242.48 289.158 242.48C288.185 242.48 287.485 242.78 287.058 243.38C286.645 243.967 286.438 244.833 286.438 245.98C286.438 247.127 286.652 248.007 287.078 248.62C287.518 249.22 288.212 249.52 289.158 249.52ZM296.441 241.78C297.041 241.473 297.768 241.227 298.621 241.04C299.488 240.84 300.314 240.74 301.101 240.74C302.501 240.74 303.534 241.033 304.201 241.62C304.868 242.207 305.201 243.12 305.201 244.36V251H303.101V244.64C303.101 243.24 302.308 242.54 300.721 242.54C299.961 242.54 299.234 242.667 298.541 242.92V251H296.441V241.78ZM316.92 236.76V248.88C316.92 249.413 316.7 249.867 316.26 250.24C315.82 250.6 315.266 250.867 314.6 251.04C313.933 251.213 313.246 251.3 312.54 251.3C311.113 251.3 309.94 250.9 309.02 250.1C308.1 249.287 307.64 247.873 307.64 245.86C307.64 244.247 308.033 242.987 308.82 242.08C309.606 241.173 310.773 240.72 312.32 240.72C312.68 240.72 313.093 240.767 313.56 240.86C314.04 240.953 314.466 241.093 314.84 241.28V236.76H316.92ZM314.84 243.1C314.52 242.913 314.16 242.773 313.76 242.68C313.373 242.573 312.993 242.52 312.62 242.52C310.726 242.52 309.78 243.647 309.78 245.9C309.78 247.02 309.993 247.9 310.42 248.54C310.846 249.167 311.593 249.48 312.66 249.48C313.273 249.48 313.786 249.407 314.2 249.26C314.626 249.113 314.84 248.92 314.84 248.68V243.1Z" fill="white"/>
<path d="M116.58 301.66H118.8V313.12H125.18V315H116.58V301.66ZM131.562 304.74C132.656 304.74 133.582 305.007 134.342 305.54C135.116 306.06 135.496 306.907 135.482 308.08V312.88C135.482 313.787 135.082 314.42 134.282 314.78C133.482 315.127 132.342 315.3 130.862 315.3C129.676 315.3 128.696 315.053 127.922 314.56C127.149 314.067 126.762 313.24 126.762 312.08C126.762 310.987 127.076 310.167 127.702 309.62C128.342 309.073 129.242 308.8 130.402 308.8C131.602 308.8 132.602 309.04 133.402 309.52V308.56C133.402 307.2 132.582 306.52 130.942 306.52C130.356 306.52 129.769 306.613 129.182 306.8C128.596 306.973 128.109 307.22 127.722 307.54V305.58C128.096 305.34 128.636 305.14 129.342 304.98C130.062 304.82 130.802 304.74 131.562 304.74ZM131.102 313.66C131.942 313.66 132.536 313.6 132.882 313.48C133.229 313.36 133.402 313.12 133.402 312.76V310.82C132.722 310.527 131.976 310.38 131.162 310.38C130.402 310.38 129.822 310.513 129.422 310.78C129.036 311.047 128.842 311.447 128.842 311.98C128.842 312.54 129.062 312.96 129.502 313.24C129.956 313.52 130.489 313.66 131.102 313.66ZM142.033 315.26C141.113 315.26 140.393 315.013 139.873 314.52C139.353 314.027 139.093 313.327 139.093 312.42V306.7H137.473V304.96H139.093V302.16H141.253V304.96H143.693V306.7H141.253V312C141.253 312.493 141.339 312.853 141.513 313.08C141.686 313.293 141.993 313.4 142.433 313.4C142.646 313.4 142.866 313.373 143.093 313.32C143.333 313.253 143.533 313.173 143.693 313.08V314.94C143.226 315.153 142.673 315.26 142.033 315.26ZM150.268 304.72C151.828 304.72 152.968 305.227 153.688 306.24C154.422 307.24 154.782 308.647 154.768 310.46H147.728C147.795 311.447 148.082 312.2 148.588 312.72C149.108 313.227 149.842 313.48 150.788 313.48C151.402 313.48 151.988 313.407 152.548 313.26C153.108 313.1 153.602 312.9 154.028 312.66V314.62C152.988 315.073 151.795 315.3 150.448 315.3C148.942 315.3 147.755 314.847 146.888 313.94C146.035 313.02 145.608 311.72 145.608 310.04C145.608 308.32 146.015 307.007 146.828 306.1C147.642 305.18 148.788 304.72 150.268 304.72ZM150.208 306.44C149.502 306.44 148.948 306.627 148.548 307C148.148 307.373 147.888 308.007 147.768 308.9H152.628C152.535 308.047 152.295 307.427 151.908 307.04C151.522 306.64 150.955 306.44 150.208 306.44ZM157.183 305.78C157.783 305.473 158.51 305.227 159.363 305.04C160.23 304.84 161.056 304.74 161.843 304.74C163.243 304.74 164.276 305.033 164.943 305.62C165.61 306.207 165.943 307.12 165.943 308.36V315H163.843V308.64C163.843 307.24 163.05 306.54 161.463 306.54C160.703 306.54 159.976 306.667 159.283 306.92V315H157.183V305.78ZM173.322 315.2C171.909 315.2 170.729 314.793 169.782 313.98C168.849 313.167 168.382 311.853 168.382 310.04C168.382 308.173 168.842 306.827 169.762 306C170.695 305.16 171.875 304.74 173.302 304.74C174.382 304.74 175.409 304.94 176.382 305.34V307.22C175.369 306.793 174.442 306.58 173.602 306.58C172.549 306.58 171.762 306.847 171.242 307.38C170.722 307.9 170.462 308.733 170.462 309.88C170.462 311.08 170.715 311.96 171.222 312.52C171.729 313.067 172.542 313.34 173.662 313.34C174.569 313.34 175.482 313.12 176.402 312.68V314.56C175.442 314.987 174.415 315.2 173.322 315.2ZM187.984 304.96L183.844 315.62C182.99 317.793 181.837 318.88 180.384 318.88C179.864 318.88 179.424 318.8 179.064 318.64V316.84C179.397 316.973 179.73 317.04 180.064 317.04C180.584 317.04 180.99 316.867 181.284 316.52C181.59 316.173 181.85 315.647 182.064 314.94L177.964 304.96H180.344L183.084 312.46L185.804 304.96H187.984ZM196.697 310.38V308.88L204.997 305.14V307.08L198.917 309.62L204.997 312.2V314.12L196.697 310.38ZM213.479 301.44C216.799 301.44 218.459 303.547 218.459 307.76C218.459 310.68 217.799 312.653 216.479 313.68C215.159 314.693 213.719 315.2 212.159 315.2C211.252 315.2 210.466 315.08 209.799 314.84V312.9C210.506 313.167 211.226 313.3 211.959 313.3C212.546 313.3 213.146 313.173 213.759 312.92C214.372 312.653 214.906 312.2 215.359 311.56C215.826 310.907 216.106 310.053 216.199 309C215.866 309.36 215.446 309.66 214.939 309.9C214.446 310.14 213.879 310.26 213.239 310.26C211.772 310.26 210.639 309.887 209.839 309.14C209.052 308.38 208.659 307.313 208.659 305.94C208.659 305.14 208.832 304.4 209.179 303.72C209.539 303.04 210.079 302.493 210.799 302.08C211.519 301.653 212.412 301.44 213.479 301.44ZM213.479 308.48C214.106 308.48 214.652 308.36 215.119 308.12C215.599 307.88 215.966 307.58 216.219 307.22C216.152 306.18 215.999 305.38 215.759 304.82C215.519 304.247 215.212 303.86 214.839 303.66C214.466 303.46 214.012 303.36 213.479 303.36C212.506 303.36 211.826 303.64 211.439 304.2C211.066 304.76 210.879 305.353 210.879 305.98C210.879 306.793 211.106 307.413 211.559 307.84C212.012 308.267 212.652 308.48 213.479 308.48ZM232.068 304.74C233.468 304.74 234.488 305.033 235.128 305.62C235.782 306.207 236.108 307.12 236.108 308.36V315H234.008V308.64C234.008 307.24 233.215 306.54 231.628 306.54C230.922 306.54 230.275 306.72 229.688 307.08C229.782 307.44 229.828 307.867 229.828 308.36V315H227.728V308.64C227.728 307.24 226.935 306.54 225.348 306.54C224.628 306.54 223.922 306.667 223.228 306.92V315H221.128V305.78C221.728 305.473 222.455 305.227 223.308 305.04C224.175 304.84 225.002 304.74 225.788 304.74C227.095 304.74 228.068 304.993 228.708 305.5C229.788 304.993 230.908 304.74 232.068 304.74ZM241.978 315.3C241.311 315.3 240.731 315.233 240.238 315.1C239.758 314.967 239.238 314.767 238.678 314.5V312.52C239.278 312.893 239.824 313.173 240.318 313.36C240.811 313.533 241.364 313.62 241.978 313.62C242.551 313.62 242.998 313.507 243.318 313.28C243.651 313.04 243.818 312.733 243.818 312.36C243.818 312 243.684 311.733 243.418 311.56C243.151 311.387 242.738 311.2 242.178 311L241.718 310.84C240.784 310.613 240.038 310.287 239.478 309.86C238.931 309.433 238.658 308.767 238.658 307.86C238.658 307.153 238.844 306.567 239.218 306.1C239.591 305.633 240.058 305.293 240.618 305.08C241.191 304.867 241.791 304.76 242.418 304.76C243.058 304.773 243.598 304.853 244.038 305C244.478 305.133 244.958 305.333 245.478 305.6V307.4C244.784 307.04 244.258 306.793 243.898 306.66C243.551 306.527 243.131 306.46 242.638 306.46C242.091 306.46 241.651 306.56 241.318 306.76C240.984 306.96 240.818 307.24 240.818 307.6C240.818 308.027 240.984 308.34 241.318 308.54C241.651 308.727 242.171 308.92 242.878 309.12C243.544 309.307 244.071 309.487 244.458 309.66C244.858 309.833 245.204 310.12 245.498 310.52C245.804 310.907 245.958 311.44 245.958 312.12C245.944 313.187 245.551 313.987 244.778 314.52C244.018 315.04 243.084 315.3 241.978 315.3Z" fill="white"/>
<path d="M127.86 365.66L122.7 379H120.4L115.34 365.66H117.82L121.7 376.42L125.54 365.68L127.86 365.66ZM129.683 365.46H131.923V367.36H129.683V365.46ZM129.743 369.02H131.843L131.863 379H129.743V369.02ZM137.778 379.3C137.112 379.3 136.532 379.233 136.038 379.1C135.558 378.967 135.038 378.767 134.478 378.5V376.52C135.078 376.893 135.625 377.173 136.118 377.36C136.612 377.533 137.165 377.62 137.778 377.62C138.352 377.62 138.798 377.507 139.118 377.28C139.452 377.04 139.618 376.733 139.618 376.36C139.618 376 139.485 375.733 139.218 375.56C138.952 375.387 138.538 375.2 137.978 375L137.518 374.84C136.585 374.613 135.838 374.287 135.278 373.86C134.732 373.433 134.458 372.767 134.458 371.86C134.458 371.153 134.645 370.567 135.018 370.1C135.392 369.633 135.858 369.293 136.418 369.08C136.992 368.867 137.592 368.76 138.218 368.76C138.858 368.773 139.398 368.853 139.838 369C140.278 369.133 140.758 369.333 141.278 369.6V371.4C140.585 371.04 140.058 370.793 139.698 370.66C139.352 370.527 138.932 370.46 138.438 370.46C137.892 370.46 137.452 370.56 137.118 370.76C136.785 370.96 136.618 371.24 136.618 371.6C136.618 372.027 136.785 372.34 137.118 372.54C137.452 372.727 137.972 372.92 138.678 373.12C139.345 373.307 139.872 373.487 140.258 373.66C140.658 373.833 141.005 374.12 141.298 374.52C141.605 374.907 141.758 375.44 141.758 376.12C141.745 377.187 141.352 377.987 140.578 378.52C139.818 379.04 138.885 379.3 137.778 379.3ZM148.654 379.3C147.254 379.3 146.161 378.96 145.374 378.28C144.601 377.587 144.214 376.58 144.214 375.26V368.96H146.314V374.96C146.314 375.813 146.501 376.447 146.874 376.86C147.261 377.26 147.854 377.46 148.654 377.46C149.454 377.46 150.041 377.26 150.414 376.86C150.801 376.447 150.994 375.813 150.994 374.96V368.96H153.014V375.26C153.014 376.58 152.634 377.587 151.874 378.28C151.114 378.96 150.041 379.3 148.654 379.3ZM160.312 368.74C161.406 368.74 162.332 369.007 163.092 369.54C163.866 370.06 164.246 370.907 164.232 372.08V376.88C164.232 377.787 163.832 378.42 163.032 378.78C162.232 379.127 161.092 379.3 159.612 379.3C158.426 379.3 157.446 379.053 156.672 378.56C155.899 378.067 155.512 377.24 155.512 376.08C155.512 374.987 155.826 374.167 156.452 373.62C157.092 373.073 157.992 372.8 159.152 372.8C160.352 372.8 161.352 373.04 162.152 373.52V372.56C162.152 371.2 161.332 370.52 159.692 370.52C159.106 370.52 158.519 370.613 157.932 370.8C157.346 370.973 156.859 371.22 156.472 371.54V369.58C156.846 369.34 157.386 369.14 158.092 368.98C158.812 368.82 159.552 368.74 160.312 368.74ZM159.852 377.66C160.692 377.66 161.286 377.6 161.632 377.48C161.979 377.36 162.152 377.12 162.152 376.76V374.82C161.472 374.527 160.726 374.38 159.912 374.38C159.152 374.38 158.572 374.513 158.172 374.78C157.786 375.047 157.592 375.447 157.592 375.98C157.592 376.54 157.812 376.96 158.252 377.24C158.706 377.52 159.239 377.66 159.852 377.66ZM167.203 379V365.16H169.283V379H167.203ZM172.242 379V365.16H174.322V379H172.242ZM186.441 368.96L182.301 379.62C181.447 381.793 180.294 382.88 178.841 382.88C178.321 382.88 177.881 382.8 177.521 382.64V380.84C177.854 380.973 178.187 381.04 178.521 381.04C179.041 381.04 179.447 380.867 179.741 380.52C180.047 380.173 180.307 379.647 180.521 378.94L176.421 368.96H178.801L181.541 376.46L184.261 368.96H186.441ZM194.234 379V365.16H196.314V379H194.234ZM203.573 379.3C201.973 379.3 200.766 378.847 199.953 377.94C199.153 377.033 198.753 375.713 198.753 373.98C198.753 370.473 200.353 368.72 203.553 368.72C205.166 368.72 206.38 369.173 207.193 370.08C208.006 370.973 208.413 372.273 208.413 373.98C208.413 375.687 207.993 377 207.153 377.92C206.313 378.84 205.12 379.3 203.573 379.3ZM203.553 377.52C205.393 377.52 206.313 376.34 206.313 373.98C206.313 372.807 206.093 371.933 205.653 371.36C205.213 370.773 204.513 370.48 203.553 370.48C202.58 370.48 201.88 370.78 201.453 371.38C201.04 371.967 200.833 372.833 200.833 373.98C200.833 375.127 201.046 376.007 201.473 376.62C201.913 377.22 202.606 377.52 203.553 377.52ZM213.735 379.3C213.069 379.3 212.489 379.233 211.995 379.1C211.515 378.967 210.995 378.767 210.435 378.5V376.52C211.035 376.893 211.582 377.173 212.075 377.36C212.569 377.533 213.122 377.62 213.735 377.62C214.309 377.62 214.755 377.507 215.075 377.28C215.409 377.04 215.575 376.733 215.575 376.36C215.575 376 215.442 375.733 215.175 375.56C214.909 375.387 214.495 375.2 213.935 375L213.475 374.84C212.542 374.613 211.795 374.287 211.235 373.86C210.689 373.433 210.415 372.767 210.415 371.86C210.415 371.153 210.602 370.567 210.975 370.1C211.349 369.633 211.815 369.293 212.375 369.08C212.949 368.867 213.549 368.76 214.175 368.76C214.815 368.773 215.355 368.853 215.795 369C216.235 369.133 216.715 369.333 217.235 369.6V371.4C216.542 371.04 216.015 370.793 215.655 370.66C215.309 370.527 214.889 370.46 214.395 370.46C213.849 370.46 213.409 370.56 213.075 370.76C212.742 370.96 212.575 371.24 212.575 371.6C212.575 372.027 212.742 372.34 213.075 372.54C213.409 372.727 213.929 372.92 214.635 373.12C215.302 373.307 215.829 373.487 216.215 373.66C216.615 373.833 216.962 374.12 217.255 374.52C217.562 374.907 217.715 375.44 217.715 376.12C217.702 377.187 217.309 377.987 216.535 378.52C215.775 379.04 214.842 379.3 213.735 379.3ZM223.071 379.3C222.405 379.3 221.825 379.233 221.331 379.1C220.851 378.967 220.331 378.767 219.771 378.5V376.52C220.371 376.893 220.918 377.173 221.411 377.36C221.905 377.533 222.458 377.62 223.071 377.62C223.645 377.62 224.091 377.507 224.411 377.28C224.745 377.04 224.911 376.733 224.911 376.36C224.911 376 224.778 375.733 224.511 375.56C224.245 375.387 223.831 375.2 223.271 375L222.811 374.84C221.878 374.613 221.131 374.287 220.571 373.86C220.025 373.433 219.751 372.767 219.751 371.86C219.751 371.153 219.938 370.567 220.311 370.1C220.685 369.633 221.151 369.293 221.711 369.08C222.285 368.867 222.885 368.76 223.511 368.76C224.151 368.773 224.691 368.853 225.131 369C225.571 369.133 226.051 369.333 226.571 369.6V371.4C225.878 371.04 225.351 370.793 224.991 370.66C224.645 370.527 224.225 370.46 223.731 370.46C223.185 370.46 222.745 370.56 222.411 370.76C222.078 370.96 221.911 371.24 221.911 371.6C221.911 372.027 222.078 372.34 222.411 372.54C222.745 372.727 223.265 372.92 223.971 373.12C224.638 373.307 225.165 373.487 225.551 373.66C225.951 373.833 226.298 374.12 226.591 374.52C226.898 374.907 227.051 375.44 227.051 376.12C227.038 377.187 226.645 377.987 225.871 378.52C225.111 379.04 224.178 379.3 223.071 379.3ZM229.507 379V365.16H231.587V379H229.507ZM238.686 368.72C240.246 368.72 241.386 369.227 242.106 370.24C242.84 371.24 243.2 372.647 243.186 374.46H236.146C236.213 375.447 236.5 376.2 237.006 376.72C237.526 377.227 238.26 377.48 239.206 377.48C239.82 377.48 240.406 377.407 240.966 377.26C241.526 377.1 242.02 376.9 242.446 376.66V378.62C241.406 379.073 240.213 379.3 238.866 379.3C237.36 379.3 236.173 378.847 235.306 377.94C234.453 377.02 234.026 375.72 234.026 374.04C234.026 372.32 234.433 371.007 235.246 370.1C236.06 369.18 237.206 368.72 238.686 368.72ZM238.626 370.44C237.92 370.44 237.366 370.627 236.966 371C236.566 371.373 236.306 372.007 236.186 372.9H241.046C240.953 372.047 240.713 371.427 240.326 371.04C239.94 370.64 239.373 370.44 238.626 370.44ZM248.501 379.3C247.834 379.3 247.254 379.233 246.761 379.1C246.281 378.967 245.761 378.767 245.201 378.5V376.52C245.801 376.893 246.348 377.173 246.841 377.36C247.334 377.533 247.888 377.62 248.501 377.62C249.074 377.62 249.521 377.507 249.841 377.28C250.174 377.04 250.341 376.733 250.341 376.36C250.341 376 250.208 375.733 249.941 375.56C249.674 375.387 249.261 375.2 248.701 375L248.241 374.84C247.308 374.613 246.561 374.287 246.001 373.86C245.454 373.433 245.181 372.767 245.181 371.86C245.181 371.153 245.368 370.567 245.741 370.1C246.114 369.633 246.581 369.293 247.141 369.08C247.714 368.867 248.314 368.76 248.941 368.76C249.581 368.773 250.121 368.853 250.561 369C251.001 369.133 251.481 369.333 252.001 369.6V371.4C251.308 371.04 250.781 370.793 250.421 370.66C250.074 370.527 249.654 370.46 249.161 370.46C248.614 370.46 248.174 370.56 247.841 370.76C247.508 370.96 247.341 371.24 247.341 371.6C247.341 372.027 247.508 372.34 247.841 372.54C248.174 372.727 248.694 372.92 249.401 373.12C250.068 373.307 250.594 373.487 250.981 373.66C251.381 373.833 251.728 374.12 252.021 374.52C252.328 374.907 252.481 375.44 252.481 376.12C252.468 377.187 252.074 377.987 251.301 378.52C250.541 379.04 249.608 379.3 248.501 379.3ZM257.837 379.3C257.17 379.3 256.59 379.233 256.097 379.1C255.617 378.967 255.097 378.767 254.537 378.5V376.52C255.137 376.893 255.684 377.173 256.177 377.36C256.67 377.533 257.224 377.62 257.837 377.62C258.41 377.62 258.857 377.507 259.177 377.28C259.51 377.04 259.677 376.733 259.677 376.36C259.677 376 259.544 375.733 259.277 375.56C259.01 375.387 258.597 375.2 258.037 375L257.577 374.84C256.644 374.613 255.897 374.287 255.337 373.86C254.79 373.433 254.517 372.767 254.517 371.86C254.517 371.153 254.704 370.567 255.077 370.1C255.45 369.633 255.917 369.293 256.477 369.08C257.05 368.867 257.65 368.76 258.277 368.76C258.917 368.773 259.457 368.853 259.897 369C260.337 369.133 260.817 369.333 261.337 369.6V371.4C260.644 371.04 260.117 370.793 259.757 370.66C259.41 370.527 258.99 370.46 258.497 370.46C257.95 370.46 257.51 370.56 257.177 370.76C256.844 370.96 256.677 371.24 256.677 371.6C256.677 372.027 256.844 372.34 257.177 372.54C257.51 372.727 258.03 372.92 258.737 373.12C259.404 373.307 259.93 373.487 260.317 373.66C260.717 373.833 261.064 374.12 261.357 374.52C261.664 374.907 261.817 375.44 261.817 376.12C261.804 377.187 261.41 377.987 260.637 378.52C259.877 379.04 258.944 379.3 257.837 379.3ZM274.377 379.2C272.963 379.2 271.783 378.793 270.837 377.98C269.903 377.167 269.437 375.853 269.437 374.04C269.437 372.173 269.897 370.827 270.817 370C271.75 369.16 272.93 368.74 274.357 368.74C275.437 368.74 276.463 368.94 277.437 369.34V371.22C276.423 370.793 275.497 370.58 274.657 370.58C273.603 370.58 272.817 370.847 272.297 371.38C271.777 371.9 271.517 372.733 271.517 373.88C271.517 375.08 271.77 375.96 272.277 376.52C272.783 377.067 273.597 377.34 274.717 377.34C275.623 377.34 276.537 377.12 277.457 376.68V378.56C276.497 378.987 275.47 379.2 274.377 379.2ZM284.178 379.3C282.578 379.3 281.372 378.847 280.558 377.94C279.758 377.033 279.358 375.713 279.358 373.98C279.358 370.473 280.958 368.72 284.158 368.72C285.772 368.72 286.985 369.173 287.798 370.08C288.612 370.973 289.018 372.273 289.018 373.98C289.018 375.687 288.598 377 287.758 377.92C286.918 378.84 285.725 379.3 284.178 379.3ZM284.158 377.52C285.998 377.52 286.918 376.34 286.918 373.98C286.918 372.807 286.698 371.933 286.258 371.36C285.818 370.773 285.118 370.48 284.158 370.48C283.185 370.48 282.485 370.78 282.058 371.38C281.645 371.967 281.438 372.833 281.438 373.98C281.438 375.127 281.652 376.007 282.078 376.62C282.518 377.22 283.212 377.52 284.158 377.52ZM291.441 379V365.16H293.521V379H291.441ZM300.78 379.3C299.18 379.3 297.973 378.847 297.16 377.94C296.36 377.033 295.96 375.713 295.96 373.98C295.96 370.473 297.56 368.72 300.76 368.72C302.373 368.72 303.587 369.173 304.4 370.08C305.213 370.973 305.62 372.273 305.62 373.98C305.62 375.687 305.2 377 304.36 377.92C303.52 378.84 302.327 379.3 300.78 379.3ZM300.76 377.52C302.6 377.52 303.52 376.34 303.52 373.98C303.52 372.807 303.3 371.933 302.86 371.36C302.42 370.773 301.72 370.48 300.76 370.48C299.787 370.48 299.087 370.78 298.66 371.38C298.247 371.967 298.04 372.833 298.04 373.98C298.04 375.127 298.253 376.007 298.68 376.62C299.12 377.22 299.813 377.52 300.76 377.52ZM308.043 369.88C308.416 369.653 309.049 369.407 309.943 369.14C310.836 368.873 311.723 368.74 312.603 368.74C313.136 368.74 313.589 368.827 313.963 369V370.68C313.589 370.627 313.143 370.6 312.623 370.6C311.743 370.6 310.916 370.667 310.143 370.8V379H308.043V369.88Z" fill="white"/>
<path d="M124.52 434.86C125.213 435.1 125.78 435.493 126.22 436.04C126.66 436.587 126.88 437.28 126.88 438.12C126.88 439.427 126.44 440.4 125.56 441.04C124.68 441.68 123.487 442 121.98 442H116.58V428.66H121.52C123.08 428.66 124.233 428.973 124.98 429.6C125.74 430.227 126.12 431.12 126.12 432.28C126.12 432.933 125.973 433.453 125.68 433.84C125.4 434.213 125.013 434.553 124.52 434.86ZM118.78 434.22H121.78C122.407 434.22 122.913 434.093 123.3 433.84C123.7 433.587 123.9 433.127 123.9 432.46C123.9 431.753 123.7 431.253 123.3 430.96C122.913 430.667 122.347 430.52 121.6 430.52H118.78V434.22ZM121.96 440.16C122.773 440.16 123.42 440.007 123.9 439.7C124.38 439.38 124.62 438.82 124.62 438.02C124.62 437.22 124.367 436.687 123.86 436.42C123.367 436.14 122.713 436 121.9 436H118.8V440.16H121.96ZM133.75 431.74C134.843 431.74 135.77 432.007 136.53 432.54C137.303 433.06 137.683 433.907 137.67 435.08V439.88C137.67 440.787 137.27 441.42 136.47 441.78C135.67 442.127 134.53 442.3 133.05 442.3C131.863 442.3 130.883 442.053 130.11 441.56C129.336 441.067 128.95 440.24 128.95 439.08C128.95 437.987 129.263 437.167 129.89 436.62C130.53 436.073 131.43 435.8 132.59 435.8C133.79 435.8 134.79 436.04 135.59 436.52V435.56C135.59 434.2 134.77 433.52 133.13 433.52C132.543 433.52 131.956 433.613 131.37 433.8C130.783 433.973 130.296 434.22 129.91 434.54V432.58C130.283 432.34 130.823 432.14 131.53 431.98C132.25 431.82 132.99 431.74 133.75 431.74ZM133.29 440.66C134.13 440.66 134.723 440.6 135.07 440.48C135.416 440.36 135.59 440.12 135.59 439.76V437.82C134.91 437.527 134.163 437.38 133.35 437.38C132.59 437.38 132.01 437.513 131.61 437.78C131.223 438.047 131.03 438.447 131.03 438.98C131.03 439.54 131.25 439.96 131.69 440.24C132.143 440.52 132.676 440.66 133.29 440.66ZM140.64 432.78C141.24 432.473 141.967 432.227 142.82 432.04C143.687 431.84 144.513 431.74 145.3 431.74C146.7 431.74 147.733 432.033 148.4 432.62C149.067 433.207 149.4 434.12 149.4 435.36V442H147.3V435.64C147.3 434.24 146.507 433.54 144.92 433.54C144.16 433.54 143.433 433.667 142.74 433.92V442H140.64V432.78ZM161.119 427.76V439.88C161.119 440.413 160.899 440.867 160.459 441.24C160.019 441.6 159.466 441.867 158.799 442.04C158.132 442.213 157.446 442.3 156.739 442.3C155.312 442.3 154.139 441.9 153.219 441.1C152.299 440.287 151.839 438.873 151.839 436.86C151.839 435.247 152.232 433.987 153.019 433.08C153.806 432.173 154.972 431.72 156.519 431.72C156.879 431.72 157.292 431.767 157.759 431.86C158.239 431.953 158.666 432.093 159.039 432.28V427.76H161.119ZM159.039 434.1C158.719 433.913 158.359 433.773 157.959 433.68C157.572 433.573 157.192 433.52 156.819 433.52C154.926 433.52 153.979 434.647 153.979 436.9C153.979 438.02 154.192 438.9 154.619 439.54C155.046 440.167 155.792 440.48 156.859 440.48C157.472 440.48 157.986 440.407 158.399 440.26C158.826 440.113 159.039 439.92 159.039 439.68V434.1ZM178.178 431.96L174.838 442H172.838L170.678 434.86L168.538 442H166.558L163.218 431.96H165.458L167.698 439.52L169.818 431.96H171.558L173.738 439.56L176.018 431.96H178.178ZM180.25 428.46H182.49V430.36H180.25V428.46ZM180.31 432.02H182.41L182.43 442H180.31V432.02ZM194.205 427.76V439.88C194.205 440.413 193.985 440.867 193.545 441.24C193.105 441.6 192.552 441.867 191.885 442.04C191.218 442.213 190.532 442.3 189.825 442.3C188.398 442.3 187.225 441.9 186.305 441.1C185.385 440.287 184.925 438.873 184.925 436.86C184.925 435.247 185.318 433.987 186.105 433.08C186.892 432.173 188.058 431.72 189.605 431.72C189.965 431.72 190.378 431.767 190.845 431.86C191.325 431.953 191.752 432.093 192.125 432.28V427.76H194.205ZM192.125 434.1C191.805 433.913 191.445 433.773 191.045 433.68C190.658 433.573 190.278 433.52 189.905 433.52C188.012 433.52 187.065 434.647 187.065 436.9C187.065 438.02 187.278 438.9 187.705 439.54C188.132 440.167 188.878 440.48 189.945 440.48C190.558 440.48 191.072 440.407 191.485 440.26C191.912 440.113 192.125 439.92 192.125 439.68V434.1ZM200.744 442.26C199.824 442.26 199.104 442.013 198.584 441.52C198.064 441.027 197.804 440.327 197.804 439.42V433.7H196.184V431.96H197.804V429.16H199.964V431.96H202.404V433.7H199.964V439C199.964 439.493 200.05 439.853 200.224 440.08C200.397 440.293 200.704 440.4 201.144 440.4C201.357 440.4 201.577 440.373 201.804 440.32C202.044 440.253 202.244 440.173 202.404 440.08V441.94C201.937 442.153 201.384 442.26 200.744 442.26ZM209.899 431.74C212.433 431.74 213.699 433.087 213.699 435.78V442H211.599V436.04C211.599 435.227 211.406 434.607 211.019 434.18C210.633 433.753 210.059 433.54 209.299 433.54C208.486 433.54 207.699 433.76 206.939 434.2L206.919 442H204.839V427.72H206.939V432.56C207.939 432.013 208.926 431.74 209.899 431.74ZM223.259 437.38V435.88L231.559 432.14V434.08L225.479 436.62L231.559 439.2V441.12L223.259 437.38ZM238.422 430.86L235.782 432.48V430.28L238.462 428.66H240.622V442H238.422V430.86ZM248.541 442.16C247.288 442.16 246.048 441.853 244.821 441.24V439.2C246.035 439.92 247.215 440.28 248.361 440.28C249.375 440.28 250.155 440.1 250.701 439.74C251.248 439.367 251.521 438.833 251.521 438.14C251.521 437.42 251.248 436.867 250.701 436.48C250.168 436.093 249.368 435.9 248.301 435.9H246.621V434.08H248.341C249.155 434.08 249.775 433.92 250.201 433.6C250.641 433.267 250.861 432.813 250.861 432.24C250.861 431.627 250.621 431.167 250.141 430.86C249.661 430.54 248.988 430.38 248.121 430.38C247.601 430.38 247.101 430.44 246.621 430.56C246.141 430.68 245.641 430.867 245.121 431.12V429.24C246.135 428.733 247.208 428.48 248.341 428.48C249.288 428.48 250.108 428.64 250.801 428.96C251.495 429.267 252.021 429.693 252.381 430.24C252.741 430.787 252.921 431.407 252.921 432.1C252.921 432.633 252.801 433.1 252.561 433.5C252.321 433.887 252.048 434.193 251.741 434.42C251.448 434.633 251.228 434.753 251.081 434.78C251.308 434.833 251.615 435 252.001 435.28C252.401 435.56 252.755 435.953 253.061 436.46C253.381 436.953 253.541 437.54 253.541 438.22C253.541 438.993 253.348 439.68 252.961 440.28C252.575 440.867 252.001 441.327 251.241 441.66C250.495 441.993 249.595 442.16 248.541 442.16ZM275.363 428.66V442H273.163V431.82L268.703 437.98L264.443 431.86V442H262.303V428.66H264.603L268.803 434.86L273.103 428.66H275.363ZM283.074 431.74C284.567 431.74 285.7 432.187 286.474 433.08C287.247 433.973 287.634 435.24 287.634 436.88C287.634 438.853 287.167 440.253 286.234 441.08C285.314 441.893 284.14 442.3 282.714 442.3C279.847 442.3 278.414 441.54 278.414 440.02V427.94H280.494V432.36C280.88 432.173 281.314 432.027 281.794 431.92C282.287 431.8 282.714 431.74 283.074 431.74ZM282.554 440.48C283.647 440.48 284.407 440.167 284.834 439.54C285.274 438.913 285.494 438.053 285.494 436.96C285.494 435.84 285.26 434.987 284.794 434.4C284.34 433.813 283.66 433.52 282.754 433.52C282.38 433.52 281.987 433.573 281.574 433.68C281.174 433.773 280.814 433.913 280.494 434.1V439.5C280.494 440.153 281.18 440.48 282.554 440.48ZM294.454 431.72C295.907 431.72 297.074 432.147 297.954 433C298.847 433.853 299.294 435.24 299.294 437.16C299.294 438.733 298.887 439.98 298.074 440.9C297.26 441.82 296.12 442.28 294.654 442.28C294.294 442.28 293.88 442.233 293.414 442.14C292.947 442.047 292.527 441.907 292.154 441.72V446.02H290.074V433.9C290.074 433.14 290.5 432.587 291.354 432.24C292.22 431.893 293.254 431.72 294.454 431.72ZM294.274 440.5C295.22 440.5 295.934 440.213 296.414 439.64C296.907 439.053 297.154 438.213 297.154 437.12C297.154 435.987 296.947 435.107 296.534 434.48C296.134 433.853 295.414 433.54 294.374 433.54C293.707 433.54 293.167 433.613 292.754 433.76C292.354 433.907 292.154 434.107 292.154 434.36V439.92C292.807 440.307 293.514 440.5 294.274 440.5ZM304.634 442.3C303.967 442.3 303.387 442.233 302.894 442.1C302.414 441.967 301.894 441.767 301.334 441.5V439.52C301.934 439.893 302.481 440.173 302.974 440.36C303.467 440.533 304.021 440.62 304.634 440.62C305.207 440.62 305.654 440.507 305.974 440.28C306.307 440.04 306.474 439.733 306.474 439.36C306.474 439 306.341 438.733 306.074 438.56C305.807 438.387 305.394 438.2 304.834 438L304.374 437.84C303.441 437.613 302.694 437.287 302.134 436.86C301.587 436.433 301.314 435.767 301.314 434.86C301.314 434.153 301.501 433.567 301.874 433.1C302.247 432.633 302.714 432.293 303.274 432.08C303.847 431.867 304.447 431.76 305.074 431.76C305.714 431.773 306.254 431.853 306.694 432C307.134 432.133 307.614 432.333 308.134 432.6V434.4C307.441 434.04 306.914 433.793 306.554 433.66C306.207 433.527 305.787 433.46 305.294 433.46C304.747 433.46 304.307 433.56 303.974 433.76C303.641 433.96 303.474 434.24 303.474 434.6C303.474 435.027 303.641 435.34 303.974 435.54C304.307 435.727 304.827 435.92 305.534 436.12C306.201 436.307 306.727 436.487 307.114 436.66C307.514 436.833 307.861 437.12 308.154 437.52C308.461 437.907 308.614 438.44 308.614 439.12C308.601 440.187 308.207 440.987 307.434 441.52C306.674 442.04 305.741 442.3 304.634 442.3Z" fill="white"/>
<rect x="439" y="73" width="607" height="451" stroke="#5EC3EB" stroke-opacity="0.5" stroke-width="2"/>
<path d="M532.16 124.32H549.28V128.04H536.56V136H547.68V139.76H536.56V151H532.16V124.32ZM554.03 132.76C554.777 132.307 556.044 131.813 557.83 131.28C559.617 130.747 561.39 130.48 563.15 130.48C564.217 130.48 565.124 130.653 565.87 131V134.36C565.124 134.253 564.23 134.2 563.19 134.2C561.43 134.2 559.777 134.333 558.23 134.6V151H554.03V132.76ZM578.687 130.48C580.874 130.48 582.727 131.013 584.247 132.08C585.794 133.12 586.554 134.813 586.527 137.16V146.76C586.527 148.573 585.727 149.84 584.127 150.56C582.527 151.253 580.247 151.6 577.287 151.6C574.914 151.6 572.954 151.107 571.407 150.12C569.86 149.133 569.087 147.48 569.087 145.16C569.087 142.973 569.714 141.333 570.967 140.24C572.247 139.147 574.047 138.6 576.367 138.6C578.767 138.6 580.767 139.08 582.367 140.04V138.12C582.367 135.4 580.727 134.04 577.447 134.04C576.274 134.04 575.1 134.227 573.927 134.6C572.754 134.947 571.78 135.44 571.007 136.08V132.16C571.754 131.68 572.834 131.28 574.247 130.96C575.687 130.64 577.167 130.48 578.687 130.48ZM577.767 148.32C579.447 148.32 580.634 148.2 581.327 147.96C582.02 147.72 582.367 147.24 582.367 146.52V142.64C581.007 142.053 579.514 141.76 577.887 141.76C576.367 141.76 575.207 142.027 574.407 142.56C573.634 143.093 573.247 143.893 573.247 144.96C573.247 146.08 573.687 146.92 574.567 147.48C575.474 148.04 576.54 148.32 577.767 148.32ZM601.308 151.4C598.481 151.4 596.121 150.587 594.228 148.96C592.361 147.333 591.428 144.707 591.428 141.08C591.428 137.347 592.348 134.653 594.188 133C596.054 131.32 598.414 130.48 601.268 130.48C603.428 130.48 605.481 130.88 607.428 131.68V135.44C605.401 134.587 603.548 134.16 601.868 134.16C599.761 134.16 598.188 134.693 597.148 135.76C596.108 136.8 595.588 138.467 595.588 140.76C595.588 143.16 596.094 144.92 597.108 146.04C598.121 147.133 599.748 147.68 601.988 147.68C603.801 147.68 605.628 147.24 607.468 146.36V150.12C605.548 150.973 603.494 151.4 601.308 151.4ZM619.472 151.52C617.632 151.52 616.192 151.027 615.152 150.04C614.112 149.053 613.592 147.653 613.592 145.84V134.4H610.352V130.92H613.592V125.32H617.912V130.92H622.792V134.4H617.912V145C617.912 145.987 618.085 146.707 618.432 147.16C618.778 147.587 619.392 147.8 620.272 147.8C620.698 147.8 621.138 147.747 621.592 147.64C622.072 147.507 622.472 147.347 622.792 147.16V150.88C621.858 151.307 620.752 151.52 619.472 151.52ZM636.343 130.48C638.53 130.48 640.383 131.013 641.903 132.08C643.45 133.12 644.21 134.813 644.183 137.16V146.76C644.183 148.573 643.383 149.84 641.783 150.56C640.183 151.253 637.903 151.6 634.943 151.6C632.57 151.6 630.61 151.107 629.063 150.12C627.516 149.133 626.743 147.48 626.743 145.16C626.743 142.973 627.37 141.333 628.623 140.24C629.903 139.147 631.703 138.6 634.023 138.6C636.423 138.6 638.423 139.08 640.023 140.04V138.12C640.023 135.4 638.383 134.04 635.103 134.04C633.93 134.04 632.756 134.227 631.583 134.6C630.41 134.947 629.436 135.44 628.663 136.08V132.16C629.41 131.68 630.49 131.28 631.903 130.96C633.343 130.64 634.823 130.48 636.343 130.48ZM635.423 148.32C637.103 148.32 638.29 148.2 638.983 147.96C639.676 147.72 640.023 147.24 640.023 146.52V142.64C638.663 142.053 637.17 141.76 635.543 141.76C634.023 141.76 632.863 142.027 632.063 142.56C631.29 143.093 630.903 143.893 630.903 144.96C630.903 146.08 631.343 146.92 632.223 147.48C633.13 148.04 634.196 148.32 635.423 148.32ZM650.124 151V123.32H654.284V151H650.124Z" fill="white"/>
<path d="M837.119 133.264C834.919 133.264 833.232 132.626 832.059 131.35C830.885 130.074 830.299 128.182 830.299 125.674C830.299 123.181 830.878 121.296 832.037 120.02C833.195 118.729 834.889 118.084 837.119 118.084C839.333 118.084 841.027 118.722 842.201 119.998C843.374 121.259 843.961 123.151 843.961 125.674C843.961 128.167 843.374 130.059 842.201 131.35C841.042 132.626 839.348 133.264 837.119 133.264ZM837.119 131.152C838.615 131.152 839.707 130.719 840.397 129.854C841.101 128.974 841.453 127.573 841.453 125.652C841.453 123.745 841.101 122.359 840.397 121.494C839.693 120.629 838.6 120.196 837.119 120.196C835.637 120.196 834.545 120.629 833.841 121.494C833.137 122.359 832.785 123.753 832.785 125.674C832.785 127.595 833.137 128.989 833.841 129.854C834.545 130.719 835.637 131.152 837.119 131.152ZM850.683 133.286C849.671 133.286 848.879 133.015 848.307 132.472C847.735 131.929 847.449 131.159 847.449 130.162V123.87H845.667V121.956H847.449V118.876H849.825V121.956H852.509V123.87H849.825V129.7C849.825 130.243 849.921 130.639 850.111 130.888C850.302 131.123 850.639 131.24 851.123 131.24C851.358 131.24 851.6 131.211 851.849 131.152C852.113 131.079 852.333 130.991 852.509 130.888V132.934C851.996 133.169 851.387 133.286 850.683 133.286ZM860.755 121.714C863.541 121.714 864.935 123.195 864.935 126.158V133H862.625V126.444C862.625 125.549 862.412 124.867 861.987 124.398C861.561 123.929 860.931 123.694 860.095 123.694C859.2 123.694 858.335 123.936 857.499 124.42L857.477 133H855.189V117.292H857.499V122.616C858.599 122.015 859.684 121.714 860.755 121.714ZM872.741 121.692C874.457 121.692 875.711 122.249 876.503 123.364C877.309 124.464 877.705 126.011 877.691 128.006H869.947C870.02 129.091 870.335 129.92 870.893 130.492C871.465 131.049 872.271 131.328 873.313 131.328C873.987 131.328 874.633 131.247 875.249 131.086C875.865 130.91 876.407 130.69 876.877 130.426V132.582C875.733 133.081 874.42 133.33 872.939 133.33C871.281 133.33 869.976 132.831 869.023 131.834C868.084 130.822 867.615 129.392 867.615 127.544C867.615 125.652 868.062 124.207 868.957 123.21C869.851 122.198 871.113 121.692 872.741 121.692ZM872.675 123.584C871.897 123.584 871.289 123.789 870.849 124.2C870.409 124.611 870.123 125.307 869.991 126.29H875.337C875.234 125.351 874.97 124.669 874.545 124.244C874.119 123.804 873.496 123.584 872.675 123.584ZM880.347 122.968C880.757 122.719 881.454 122.447 882.437 122.154C883.419 121.861 884.395 121.714 885.363 121.714C885.949 121.714 886.448 121.809 886.859 122V123.848C886.448 123.789 885.957 123.76 885.385 123.76C884.417 123.76 883.507 123.833 882.657 123.98V133H880.347V122.968ZM904.45 133L901.018 127.456H897.916V133H895.496V118.326H902.008C903.548 118.326 904.721 118.7 905.528 119.448C906.349 120.181 906.76 121.281 906.76 122.748C906.76 123.804 906.466 124.728 905.88 125.52C905.308 126.312 904.53 126.818 903.548 127.038L907.464 133H904.45ZM897.916 125.476H901.326C902.294 125.476 903.012 125.263 903.482 124.838C903.966 124.413 904.208 123.767 904.208 122.902C904.208 122.066 904.01 121.435 903.614 121.01C903.232 120.585 902.602 120.372 901.722 120.372H897.916V125.476ZM914.571 121.692C916.287 121.692 917.541 122.249 918.333 123.364C919.139 124.464 919.535 126.011 919.521 128.006H911.777C911.85 129.091 912.165 129.92 912.723 130.492C913.295 131.049 914.101 131.328 915.143 131.328C915.817 131.328 916.463 131.247 917.079 131.086C917.695 130.91 918.237 130.69 918.707 130.426V132.582C917.563 133.081 916.25 133.33 914.769 133.33C913.111 133.33 911.806 132.831 910.853 131.834C909.914 130.822 909.445 129.392 909.445 127.544C909.445 125.652 909.892 124.207 910.787 123.21C911.681 122.198 912.943 121.692 914.571 121.692ZM914.505 123.584C913.727 123.584 913.119 123.789 912.679 124.2C912.239 124.611 911.953 125.307 911.821 126.29H917.167C917.064 125.351 916.8 124.669 916.375 124.244C915.949 123.804 915.326 123.584 914.505 123.584ZM934.211 121.714C935.751 121.714 936.873 122.037 937.577 122.682C938.295 123.327 938.655 124.332 938.655 125.696V133H936.345V126.004C936.345 124.464 935.472 123.694 933.727 123.694C932.949 123.694 932.238 123.892 931.593 124.288C931.695 124.684 931.747 125.153 931.747 125.696V133H929.437V126.004C929.437 124.464 928.564 123.694 926.819 123.694C926.027 123.694 925.249 123.833 924.487 124.112V133H922.177V122.858C922.837 122.521 923.636 122.249 924.575 122.044C925.528 121.824 926.437 121.714 927.303 121.714C928.74 121.714 929.811 121.993 930.515 122.55C931.703 121.993 932.935 121.714 934.211 121.714ZM946.651 133.33C944.891 133.33 943.564 132.831 942.669 131.834C941.789 130.837 941.349 129.385 941.349 127.478C941.349 123.621 943.109 121.692 946.629 121.692C948.404 121.692 949.738 122.191 950.633 123.188C951.528 124.171 951.975 125.601 951.975 127.478C951.975 129.355 951.513 130.8 950.589 131.812C949.665 132.824 948.352 133.33 946.651 133.33ZM946.629 131.372C948.653 131.372 949.665 130.074 949.665 127.478C949.665 126.187 949.423 125.227 948.939 124.596C948.455 123.951 947.685 123.628 946.629 123.628C945.558 123.628 944.788 123.958 944.319 124.618C943.864 125.263 943.637 126.217 943.637 127.478C943.637 128.739 943.872 129.707 944.341 130.382C944.825 131.042 945.588 131.372 946.629 131.372ZM958.578 133.286C957.566 133.286 956.774 133.015 956.202 132.472C955.63 131.929 955.344 131.159 955.344 130.162V123.87H953.562V121.956H955.344V118.876H957.72V121.956H960.404V123.87H957.72V129.7C957.72 130.243 957.815 130.639 958.006 130.888C958.196 131.123 958.534 131.24 959.018 131.24C959.252 131.24 959.494 131.211 959.744 131.152C960.008 131.079 960.228 130.991 960.404 130.888V132.934C959.89 133.169 959.282 133.286 958.578 133.286ZM967.637 121.692C969.353 121.692 970.607 122.249 971.399 123.364C972.206 124.464 972.602 126.011 972.587 128.006H964.843C964.916 129.091 965.232 129.92 965.789 130.492C966.361 131.049 967.168 131.328 968.209 131.328C968.884 131.328 969.529 131.247 970.145 131.086C970.761 130.91 971.304 130.69 971.773 130.426V132.582C970.629 133.081 969.316 133.33 967.835 133.33C966.178 133.33 964.872 132.831 963.919 131.834C962.98 130.822 962.511 129.392 962.511 127.544C962.511 125.652 962.958 124.207 963.853 123.21C964.748 122.198 966.009 121.692 967.637 121.692ZM967.571 123.584C966.794 123.584 966.185 123.789 965.745 124.2C965.305 124.611 965.019 125.307 964.887 126.29H970.233C970.13 125.351 969.866 124.669 969.441 124.244C969.016 123.804 968.392 123.584 967.571 123.584ZM864.505 144.326H869.653C874.346 144.326 876.693 146.768 876.693 151.652C876.693 156.551 874.346 159 869.653 159H864.505V144.326ZM869.411 156.954C871.053 156.954 872.263 156.529 873.041 155.678C873.818 154.827 874.207 153.485 874.207 151.652C874.207 149.819 873.818 148.477 873.041 147.626C872.263 146.775 871.053 146.35 869.411 146.35H866.925V156.954H869.411ZM884.031 147.692C885.747 147.692 887.001 148.249 887.793 149.364C888.599 150.464 888.995 152.011 888.981 154.006H881.237C881.31 155.091 881.625 155.92 882.183 156.492C882.755 157.049 883.561 157.328 884.603 157.328C885.277 157.328 885.923 157.247 886.539 157.086C887.155 156.91 887.697 156.69 888.167 156.426V158.582C887.023 159.081 885.71 159.33 884.229 159.33C882.571 159.33 881.266 158.831 880.313 157.834C879.374 156.822 878.905 155.392 878.905 153.544C878.905 151.652 879.352 150.207 880.247 149.21C881.141 148.198 882.403 147.692 884.031 147.692ZM883.965 149.584C883.187 149.584 882.579 149.789 882.139 150.2C881.699 150.611 881.413 151.307 881.281 152.29H886.627C886.524 151.351 886.26 150.669 885.835 150.244C885.409 149.804 884.786 149.584 883.965 149.584ZM894.827 159.33C894.093 159.33 893.455 159.257 892.913 159.11C892.385 158.963 891.813 158.743 891.197 158.45V156.272C891.857 156.683 892.458 156.991 893.001 157.196C893.543 157.387 894.152 157.482 894.827 157.482C895.457 157.482 895.949 157.357 896.301 157.108C896.667 156.844 896.851 156.507 896.851 156.096C896.851 155.7 896.704 155.407 896.411 155.216C896.117 155.025 895.663 154.82 895.047 154.6L894.541 154.424C893.514 154.175 892.693 153.815 892.077 153.346C891.475 152.877 891.175 152.143 891.175 151.146C891.175 150.369 891.38 149.723 891.791 149.21C892.201 148.697 892.715 148.323 893.331 148.088C893.961 147.853 894.621 147.736 895.311 147.736C896.015 147.751 896.609 147.839 897.093 148C897.577 148.147 898.105 148.367 898.677 148.66V150.64C897.914 150.244 897.335 149.973 896.939 149.826C896.557 149.679 896.095 149.606 895.553 149.606C894.951 149.606 894.467 149.716 894.101 149.936C893.734 150.156 893.551 150.464 893.551 150.86C893.551 151.329 893.734 151.674 894.101 151.894C894.467 152.099 895.039 152.312 895.817 152.532C896.55 152.737 897.129 152.935 897.555 153.126C897.995 153.317 898.376 153.632 898.699 154.072C899.036 154.497 899.205 155.084 899.205 155.832C899.19 157.005 898.757 157.885 897.907 158.472C897.071 159.044 896.044 159.33 894.827 159.33ZM908.638 159L904.194 154.05V159H901.906V143.776H904.216L904.194 152.092L908.22 147.956H911.058L906.042 152.752L911.63 159H908.638ZM917.811 159.286C916.799 159.286 916.007 159.015 915.435 158.472C914.863 157.929 914.577 157.159 914.577 156.162V149.87H912.795V147.956H914.577V144.876H916.953V147.956H919.637V149.87H916.953V155.7C916.953 156.243 917.048 156.639 917.239 156.888C917.43 157.123 917.767 157.24 918.251 157.24C918.486 157.24 918.728 157.211 918.977 157.152C919.241 157.079 919.461 156.991 919.637 156.888V158.934C919.124 159.169 918.515 159.286 917.811 159.286ZM927.046 159.33C925.286 159.33 923.959 158.831 923.064 157.834C922.184 156.837 921.744 155.385 921.744 153.478C921.744 149.621 923.504 147.692 927.024 147.692C928.799 147.692 930.134 148.191 931.028 149.188C931.923 150.171 932.37 151.601 932.37 153.478C932.37 155.355 931.908 156.8 930.984 157.812C930.06 158.824 928.748 159.33 927.046 159.33ZM927.024 157.372C929.048 157.372 930.06 156.074 930.06 153.478C930.06 152.187 929.818 151.227 929.334 150.596C928.85 149.951 928.08 149.628 927.024 149.628C925.954 149.628 925.184 149.958 924.714 150.618C924.26 151.263 924.032 152.217 924.032 153.478C924.032 154.739 924.267 155.707 924.736 156.382C925.22 157.042 925.983 157.372 927.024 157.372ZM939.853 147.692C941.452 147.692 942.735 148.161 943.703 149.1C944.686 150.039 945.177 151.564 945.177 153.676C945.177 155.407 944.73 156.778 943.835 157.79C942.941 158.802 941.687 159.308 940.073 159.308C939.677 159.308 939.223 159.257 938.709 159.154C938.196 159.051 937.734 158.897 937.323 158.692V163.422H935.035V150.09C935.035 149.254 935.505 148.645 936.443 148.264C937.397 147.883 938.533 147.692 939.853 147.692ZM939.655 157.35C940.697 157.35 941.481 157.035 942.009 156.404C942.552 155.759 942.823 154.835 942.823 153.632C942.823 152.385 942.596 151.417 942.141 150.728C941.701 150.039 940.909 149.694 939.765 149.694C939.032 149.694 938.438 149.775 937.983 149.936C937.543 150.097 937.323 150.317 937.323 150.596V156.712C938.042 157.137 938.819 157.35 939.655 157.35Z" fill="white"/>
<rect x="439.5" y="73.5" width="308" height="450" stroke="#5EC3EB" stroke-width="3"/>
<circle cx="593.5" cy="239.5" r="8.5" fill="#5EC3EB"/>
<circle cx="593.5" cy="435.5" r="8.5" fill="#5EC3EB"/>
<circle cx="904.5" cy="435.5" r="8.5" fill="#444444"/>
<circle cx="593.5" cy="371.5" r="8.5" fill="#5EC3EB"/>
<circle cx="593.5" cy="307.5" r="8.5" fill="#5EC3EB"/>
</svg>
